G04 #@! TF.FileFunction,Legend,Top*
%FSLAX46Y46*%
G04 Gerber Fmt 4.6, Leading zero omitted, Abs format (unit mm)*
G04 Created by KiCad (PCBNEW 4.0.2+dfsg1-stable) date Do 15 Jun 2017 09:10:39 CEST*
%MOMM*%
G01*
G04 APERTURE LIST*
%ADD10C,0.150000*%
G04 APERTURE END LIST*
D10*
X589286Y-3624929D02*
X1351191Y-3624929D01*
X970239Y-4005881D02*
X970239Y-3243976D01*
X2303572Y-3005881D02*
X1827381Y-3005881D01*
X1779762Y-3482071D01*
X1827381Y-3434452D01*
X1922619Y-3386833D01*
X2160715Y-3386833D01*
X2255953Y-3434452D01*
X2303572Y-3482071D01*
X2351191Y-3577310D01*
X2351191Y-3815405D01*
X2303572Y-3910643D01*
X2255953Y-3958262D01*
X2160715Y-4005881D01*
X1922619Y-4005881D01*
X1827381Y-3958262D01*
X1779762Y-3910643D01*
X2636905Y-3005881D02*
X2970238Y-4005881D01*
X3303572Y-3005881D01*
X8975000Y2729834D02*
X9008333Y2696500D01*
X9041667Y2596500D01*
X9041667Y2529834D01*
X9008333Y2429834D01*
X8941667Y2363167D01*
X8875000Y2329834D01*
X8741667Y2296500D01*
X8641667Y2296500D01*
X8508333Y2329834D01*
X8441667Y2363167D01*
X8375000Y2429834D01*
X8341667Y2529834D01*
X8341667Y2596500D01*
X8375000Y2696500D01*
X8408333Y2729834D01*
X8408333Y2996500D02*
X8375000Y3029834D01*
X8341667Y3096500D01*
X8341667Y3263167D01*
X8375000Y3329834D01*
X8408333Y3363167D01*
X8475000Y3396500D01*
X8541667Y3396500D01*
X8641667Y3363167D01*
X9041667Y2963167D01*
X9041667Y3396500D01*
X8975000Y4096501D02*
X9008333Y4063167D01*
X9041667Y3963167D01*
X9041667Y3896501D01*
X9008333Y3796501D01*
X8941667Y3729834D01*
X8875000Y3696501D01*
X8741667Y3663167D01*
X8641667Y3663167D01*
X8508333Y3696501D01*
X8441667Y3729834D01*
X8375000Y3796501D01*
X8341667Y3896501D01*
X8341667Y3963167D01*
X8375000Y4063167D01*
X8408333Y4096501D01*
X9041667Y4396501D02*
X8341667Y4396501D01*
X9041667Y4796501D02*
X8641667Y4496501D01*
X8341667Y4796501D02*
X8741667Y4396501D01*
X8982143Y-4120166D02*
X9029762Y-4167785D01*
X9077381Y-4310642D01*
X9077381Y-4405880D01*
X9029762Y-4548738D01*
X8934524Y-4643976D01*
X8839286Y-4691595D01*
X8648810Y-4739214D01*
X8505952Y-4739214D01*
X8315476Y-4691595D01*
X8220238Y-4643976D01*
X8125000Y-4548738D01*
X8077381Y-4405880D01*
X8077381Y-4310642D01*
X8125000Y-4167785D01*
X8172619Y-4120166D01*
X8172619Y-3739214D02*
X8125000Y-3691595D01*
X8077381Y-3596357D01*
X8077381Y-3358261D01*
X8125000Y-3263023D01*
X8172619Y-3215404D01*
X8267857Y-3167785D01*
X8363095Y-3167785D01*
X8505952Y-3215404D01*
X9077381Y-3786833D01*
X9077381Y-3167785D01*
X9077381Y-2739214D02*
X8077381Y-2739214D01*
X8077381Y-2501119D01*
X8125000Y-2358261D01*
X8220238Y-2263023D01*
X8315476Y-2215404D01*
X8505952Y-2167785D01*
X8648810Y-2167785D01*
X8839286Y-2215404D01*
X8934524Y-2263023D01*
X9029762Y-2358261D01*
X9077381Y-2501119D01*
X9077381Y-2739214D01*
X1644048Y294119D02*
X1644048Y1294119D01*
X1882143Y1294119D01*
X2025001Y1246500D01*
X2120239Y1151262D01*
X2167858Y1056024D01*
X2215477Y865548D01*
X2215477Y722690D01*
X2167858Y532214D01*
X2120239Y436976D01*
X2025001Y341738D01*
X1882143Y294119D01*
X1644048Y294119D01*
X2644048Y675071D02*
X3405953Y675071D01*
X3025001Y294119D02*
X3025001Y1056024D01*
X1644048Y-2255881D02*
X1644048Y-1255881D01*
X1882143Y-1255881D01*
X2025001Y-1303500D01*
X2120239Y-1398738D01*
X2167858Y-1493976D01*
X2215477Y-1684452D01*
X2215477Y-1827310D01*
X2167858Y-2017786D01*
X2120239Y-2113024D01*
X2025001Y-2208262D01*
X1882143Y-2255881D01*
X1644048Y-2255881D01*
X2644048Y-1874929D02*
X3405953Y-1874929D01*
X1463096Y3996500D02*
X1367858Y4044119D01*
X1225001Y4044119D01*
X1082143Y3996500D01*
X986905Y3901262D01*
X939286Y3806024D01*
X891667Y3615548D01*
X891667Y3472690D01*
X939286Y3282214D01*
X986905Y3186976D01*
X1082143Y3091738D01*
X1225001Y3044119D01*
X1320239Y3044119D01*
X1463096Y3091738D01*
X1510715Y3139357D01*
X1510715Y3472690D01*
X1320239Y3472690D01*
X1939286Y3044119D02*
X1939286Y4044119D01*
X2510715Y3044119D01*
X2510715Y4044119D01*
X2986905Y3044119D02*
X2986905Y4044119D01*
X3225000Y4044119D01*
X3367858Y3996500D01*
X3463096Y3901262D01*
X3510715Y3806024D01*
X3558334Y3615548D01*
X3558334Y3472690D01*
X3510715Y3282214D01*
X3463096Y3186976D01*
X3367858Y3091738D01*
X3225000Y3044119D01*
X2986905Y3044119D01*
X-10025000Y3284596D02*
X-10072619Y3189358D01*
X-10072619Y3046501D01*
X-10025000Y2903643D01*
X-9929762Y2808405D01*
X-9834524Y2760786D01*
X-9644048Y2713167D01*
X-9501190Y2713167D01*
X-9310714Y2760786D01*
X-9215476Y2808405D01*
X-9120238Y2903643D01*
X-9072619Y3046501D01*
X-9072619Y3141739D01*
X-9120238Y3284596D01*
X-9167857Y3332215D01*
X-9501190Y3332215D01*
X-9501190Y3141739D01*
X-9072619Y3760786D02*
X-10072619Y3760786D01*
X-9072619Y4332215D01*
X-10072619Y4332215D01*
X-9072619Y4808405D02*
X-10072619Y4808405D01*
X-10072619Y5046500D01*
X-10025000Y5189358D01*
X-9929762Y5284596D01*
X-9834524Y5332215D01*
X-9644048Y5379834D01*
X-9501190Y5379834D01*
X-9310714Y5332215D01*
X-9215476Y5284596D01*
X-9120238Y5189358D01*
X-9072619Y5046500D01*
X-9072619Y4808405D01*
X-6472619Y4129834D02*
X-6948810Y3796500D01*
X-6472619Y3558405D02*
X-7472619Y3558405D01*
X-7472619Y3939358D01*
X-7425000Y4034596D01*
X-7377381Y4082215D01*
X-7282143Y4129834D01*
X-7139286Y4129834D01*
X-7044048Y4082215D01*
X-6996429Y4034596D01*
X-6948810Y3939358D01*
X-6948810Y3558405D01*
X-7472619Y4463167D02*
X-6472619Y5129834D01*
X-7472619Y5129834D02*
X-6472619Y4463167D01*
X-4872619Y3634595D02*
X-4872619Y4206024D01*
X-3872619Y3920309D02*
X-4872619Y3920309D01*
X-4872619Y4444119D02*
X-3872619Y5110786D01*
X-4872619Y5110786D02*
X-3872619Y4444119D01*
M02*
