G04 #@! TF.FileFunction,Copper,L1,Top,Signal*
%FSLAX46Y46*%
G04 Gerber Fmt 4.6, Leading zero omitted, Abs format (unit mm)*
G04 Created by KiCad (PCBNEW 4.0.2+dfsg1-stable) date Do 15 Jun 2017 09:10:39 CEST*
%MOMM*%
G01*
G04 APERTURE LIST*
%ADD10C,0.150000*%
%ADD11C,1.500000*%
%ADD12O,3.500120X1.501140*%
%ADD13C,1.099820*%
%ADD14R,1.500000X1.200000*%
%ADD15C,0.500000*%
%ADD16C,0.254000*%
G04 APERTURE END LIST*
D10*
D11*
X5700000Y-3753500D03*
D12*
X6999600Y5683770D03*
X6999600Y-5715750D03*
D13*
X6999600Y-2266430D03*
X6999600Y2234450D03*
D14*
X8240000Y1326500D03*
X8240000Y-1213500D03*
X5700000Y1326500D03*
X5700000Y-1213500D03*
X5700000Y3866500D03*
X-9540000Y6406500D03*
X-7000000Y6406500D03*
X-4460000Y6406500D03*
D15*
X2025000Y-6353500D03*
X-2775000Y7546500D03*
X-6875000Y-7053500D03*
X325000Y-3553500D03*
X4125000Y3446500D03*
X2125000Y6746500D03*
X425000Y1846500D03*
X725000Y-153500D03*
X3525000Y-3553500D03*
X2725000Y346500D03*
X-2475000Y-6153500D03*
X4025000Y-3553500D03*
X8525000Y246500D03*
X8525000Y-1753500D03*
X1625000Y3646500D03*
X4125000Y946500D03*
X2625000Y2846500D03*
X4125000Y-1053500D03*
X-775000Y2046500D03*
X-1075000Y-6053500D03*
X-6975000Y5346500D03*
X-4425000Y5346500D03*
X625000Y3846500D03*
X1325000Y-2453500D03*
X2125000Y-2453500D03*
X225000Y2946500D03*
X-11275000Y1246500D03*
X-875000Y-2753500D03*
D10*
X-9540000Y6406500D02*
X-9540000Y7331500D01*
X-9540000Y7331500D02*
X-9225000Y7646500D01*
D16*
X675000Y-3903500D02*
X325000Y-3553500D01*
X675000Y-5003500D02*
X675000Y-3903500D01*
X2025000Y-6353500D02*
X675000Y-5003500D01*
X-9225000Y7646500D02*
X-2875000Y7646500D01*
X-2875000Y7646500D02*
X-2775000Y7546500D01*
X225000Y6746500D02*
X-1975000Y6746500D01*
X-1975000Y6746500D02*
X-2775000Y7546500D01*
X425000Y1846500D02*
X325000Y1846500D01*
X325000Y1846500D02*
X-675000Y2846500D01*
X25000Y6746500D02*
X225000Y6746500D01*
X225000Y6746500D02*
X2125000Y6746500D01*
X-675000Y6046500D02*
X25000Y6746500D01*
X-675000Y2846500D02*
X-675000Y6046500D01*
X325000Y-3553500D02*
X325000Y-553500D01*
X325000Y-553500D02*
X425000Y-453500D01*
X425000Y-453500D02*
X425000Y1846500D01*
X325000Y-3553500D02*
X325000Y-3653500D01*
X5175000Y3484130D02*
X4162630Y3484130D01*
X4162630Y3484130D02*
X4125000Y3446500D01*
D10*
X1575000Y6196500D02*
X2125000Y6746500D01*
X3525000Y-3553500D02*
X4025000Y-3553500D01*
D16*
X2725000Y346500D02*
X2725000Y-2753500D01*
X2725000Y-2753500D02*
X3525000Y-3553500D01*
X3125000Y-3953500D02*
X3525000Y-3553500D01*
X-2475000Y-6153500D02*
X-2475000Y-6953500D01*
X-2475000Y-6953500D02*
X-2275000Y-7153500D01*
X-2275000Y-7153500D02*
X2525000Y-7153500D01*
X2525000Y-7153500D02*
X3125000Y-6553500D01*
X3125000Y-6553500D02*
X3125000Y-3953500D01*
X5175000Y-3516110D02*
X4062390Y-3516110D01*
X4062390Y-3516110D02*
X4025000Y-3553500D01*
D10*
X8525000Y246500D02*
X8525000Y946500D01*
X8525000Y-1753500D02*
X8525000Y-1053500D01*
X4125000Y946500D02*
X3725000Y946500D01*
X2725000Y3646500D02*
X1625000Y3646500D01*
X3325000Y3046500D02*
X2725000Y3646500D01*
X3325000Y1346500D02*
X3325000Y3046500D01*
X3725000Y946500D02*
X3325000Y1346500D01*
D16*
X5175000Y1000010D02*
X4178510Y1000010D01*
X4178510Y1000010D02*
X4125000Y946500D01*
D10*
X4125000Y-1053500D02*
X3825000Y-1053500D01*
X2925000Y2546500D02*
X2625000Y2846500D01*
X2925000Y1146500D02*
X2925000Y2546500D01*
X3325000Y746500D02*
X2925000Y1146500D01*
X3325000Y-553500D02*
X3325000Y746500D01*
X3825000Y-1053500D02*
X3325000Y-553500D01*
D16*
X5175000Y-1016750D02*
X4161750Y-1016750D01*
X4161750Y-1016750D02*
X4125000Y-1053500D01*
D10*
X-1075000Y-6053500D02*
X-575000Y-6053500D01*
X-275000Y-5753500D02*
X-275000Y-3153500D01*
X-575000Y-6053500D02*
X-275000Y-5753500D01*
X-275000Y-3153500D02*
X-275000Y-1153500D01*
X-775000Y-653500D02*
X-275000Y-1153500D01*
X-775000Y2046500D02*
X-775000Y-653500D01*
X-7000000Y5371500D02*
X-7000000Y6406500D01*
X-6975000Y5346500D02*
X-7000000Y5371500D01*
X-4425000Y6371500D02*
X-4425000Y5346500D01*
X-4425000Y6371500D02*
X-4460000Y6406500D01*
X1325000Y-2453500D02*
X1325000Y-2353500D01*
X1325000Y2246500D02*
X925000Y2646500D01*
X925000Y2646500D02*
X925000Y3546500D01*
X925000Y3546500D02*
X625000Y3846500D01*
X2025000Y1546500D02*
X1325000Y2246500D01*
X2025000Y-1653500D02*
X2025000Y1546500D01*
X1325000Y-2353500D02*
X2025000Y-1653500D01*
X825000Y-2853500D02*
X825000Y-2253500D01*
X2125000Y-2553500D02*
X1625000Y-3053500D01*
X1625000Y-3053500D02*
X1025000Y-3053500D01*
X1025000Y-3053500D02*
X825000Y-2853500D01*
X2125000Y-2453500D02*
X2125000Y-2553500D01*
X925000Y-2153500D02*
X1424998Y-1653502D01*
X1424998Y-1653502D02*
X1424998Y1546502D01*
X1424998Y1546502D02*
X225000Y2746500D01*
X225000Y2746500D02*
X225000Y2946500D01*
X825000Y-2253500D02*
X925000Y-2153500D01*
X-3175000Y-5603500D02*
X-10975000Y-5603500D01*
X-10975000Y-5603500D02*
X-11275000Y-5303500D01*
X-875000Y-4903500D02*
X-875000Y-2753500D01*
X-1575000Y-5603500D02*
X-875000Y-4903500D01*
X-3175000Y-5603500D02*
X-1575000Y-5603500D01*
X-11275000Y-5303500D02*
X-11275000Y1246500D01*
G36*
X3375470Y7096500D02*
X3396367Y6991442D01*
X3455878Y6902378D01*
X3544942Y6842867D01*
X3650000Y6821970D01*
X4350000Y6821970D01*
X4455058Y6842867D01*
X4544122Y6902378D01*
X4603633Y6991442D01*
X4624530Y7096500D01*
X4624530Y7846970D01*
X9225070Y7846970D01*
X9225070Y-7878970D01*
X4624530Y-7878970D01*
X4624530Y-7103500D01*
X4603633Y-6998442D01*
X4544122Y-6909378D01*
X4455058Y-6849867D01*
X4350000Y-6828970D01*
X3650000Y-6828970D01*
X3544942Y-6849867D01*
X3455878Y-6909378D01*
X3396367Y-6998442D01*
X3375470Y-7103500D01*
X3375470Y-7878970D01*
X-12000470Y-7878970D01*
X-12000470Y1152431D01*
X-11750082Y1152431D01*
X-11677920Y977786D01*
X-11575000Y874686D01*
X-11575000Y-5303500D01*
X-11552164Y-5418305D01*
X-11487132Y-5515632D01*
X-11187132Y-5815632D01*
X-11089805Y-5880664D01*
X-10975000Y-5903500D01*
X-2885514Y-5903500D01*
X-2949918Y-6058602D01*
X-2950082Y-6247569D01*
X-2877920Y-6422214D01*
X-2827000Y-6473223D01*
X-2827000Y-6953495D01*
X-2827001Y-6953500D01*
X-2800206Y-7088205D01*
X-2723902Y-7202402D01*
X-2523904Y-7402399D01*
X-2523902Y-7402402D01*
X-2409705Y-7478706D01*
X-2387356Y-7483152D01*
X-2275000Y-7505501D01*
X-2274995Y-7505500D01*
X2524995Y-7505500D01*
X2525000Y-7505501D01*
X2659705Y-7478706D01*
X2773902Y-7402402D01*
X3373899Y-6802404D01*
X3373902Y-6802402D01*
X3450206Y-6688205D01*
X3477000Y-6553500D01*
X3477000Y-5715750D01*
X4985846Y-5715750D01*
X5060107Y-6089084D01*
X5271584Y-6405582D01*
X5588082Y-6617059D01*
X5961416Y-6691320D01*
X8037784Y-6691320D01*
X8411118Y-6617059D01*
X8727616Y-6405582D01*
X8939093Y-6089084D01*
X9013354Y-5715750D01*
X8939093Y-5342416D01*
X8727616Y-5025918D01*
X8411118Y-4814441D01*
X8037784Y-4740180D01*
X5961416Y-4740180D01*
X5588082Y-4814441D01*
X5271584Y-5025918D01*
X5060107Y-5342416D01*
X4985846Y-5715750D01*
X3477000Y-5715750D01*
X3477000Y-4099304D01*
X3547783Y-4028520D01*
X3619069Y-4028582D01*
X3775168Y-3964083D01*
X3930102Y-4028418D01*
X4119069Y-4028582D01*
X4293714Y-3956420D01*
X4382179Y-3868110D01*
X4724900Y-3868110D01*
X4724831Y-3946589D01*
X4872954Y-4305071D01*
X5146986Y-4579582D01*
X5505210Y-4728330D01*
X5893089Y-4728669D01*
X6251571Y-4580546D01*
X6526082Y-4306514D01*
X6674830Y-3948290D01*
X6675169Y-3560411D01*
X6527046Y-3201929D01*
X6253014Y-2927418D01*
X5894790Y-2778670D01*
X5506911Y-2778331D01*
X5148429Y-2926454D01*
X4910358Y-3164110D01*
X4307455Y-3164110D01*
X4294417Y-3151049D01*
X4119898Y-3078582D01*
X3930931Y-3078418D01*
X3774832Y-3142917D01*
X3619898Y-3078582D01*
X3547823Y-3078519D01*
X3077000Y-2607696D01*
X3077000Y-711952D01*
X3112868Y-765632D01*
X3612868Y-1265632D01*
X3710195Y-1330664D01*
X3735550Y-1335707D01*
X3855583Y-1455951D01*
X4030102Y-1528418D01*
X4219069Y-1528582D01*
X4393714Y-1456420D01*
X4481538Y-1368750D01*
X4720592Y-1368750D01*
X4720592Y-1813500D01*
X4736281Y-1896880D01*
X4785559Y-1973460D01*
X4860747Y-2024834D01*
X4950000Y-2042908D01*
X6253355Y-2042908D01*
X6224825Y-2111615D01*
X6224556Y-2419893D01*
X6342281Y-2704808D01*
X6560076Y-2922983D01*
X6844785Y-3041205D01*
X7153063Y-3041474D01*
X7437978Y-2923749D01*
X7656153Y-2705954D01*
X7774375Y-2421245D01*
X7774644Y-2112967D01*
X7745696Y-2042908D01*
X8142738Y-2042908D01*
X8255583Y-2155951D01*
X8430102Y-2228418D01*
X8619069Y-2228582D01*
X8793714Y-2156420D01*
X8907425Y-2042908D01*
X8990000Y-2042908D01*
X9073380Y-2027219D01*
X9149960Y-1977941D01*
X9201334Y-1902753D01*
X9219408Y-1813500D01*
X9219408Y-613500D01*
X9203719Y-530120D01*
X9154441Y-453540D01*
X9079253Y-402166D01*
X8990000Y-384092D01*
X7490000Y-384092D01*
X7406620Y-399781D01*
X7330040Y-449059D01*
X7278666Y-524247D01*
X7260592Y-613500D01*
X7260592Y-1535744D01*
X7154415Y-1491655D01*
X6846137Y-1491386D01*
X6679408Y-1560277D01*
X6679408Y-613500D01*
X6663719Y-530120D01*
X6614441Y-453540D01*
X6539253Y-402166D01*
X6450000Y-384092D01*
X4950000Y-384092D01*
X4866620Y-399781D01*
X4790040Y-449059D01*
X4738666Y-524247D01*
X4720592Y-613500D01*
X4720592Y-664750D01*
X4408094Y-664750D01*
X4394417Y-651049D01*
X4219898Y-578582D01*
X4030931Y-578418D01*
X3856286Y-650580D01*
X3851311Y-655547D01*
X3625000Y-429236D01*
X3625000Y666391D01*
X3725000Y646500D01*
X3753311Y646500D01*
X3855583Y544049D01*
X4030102Y471582D01*
X4219069Y471418D01*
X4393714Y543580D01*
X4498327Y648010D01*
X4735361Y648010D01*
X4736281Y643120D01*
X4785559Y566540D01*
X4860747Y515166D01*
X4950000Y497092D01*
X6450000Y497092D01*
X6533380Y512781D01*
X6609960Y562059D01*
X6661334Y637247D01*
X6679408Y726500D01*
X6679408Y1528346D01*
X6844785Y1459675D01*
X7153063Y1459406D01*
X7260592Y1503836D01*
X7260592Y726500D01*
X7276281Y643120D01*
X7325559Y566540D01*
X7400747Y515166D01*
X7490000Y497092D01*
X8114732Y497092D01*
X8050082Y341398D01*
X8049918Y152431D01*
X8122080Y-22214D01*
X8255583Y-155951D01*
X8430102Y-228418D01*
X8619069Y-228582D01*
X8793714Y-156420D01*
X8927451Y-22917D01*
X8999918Y151602D01*
X9000082Y340569D01*
X8935408Y497092D01*
X8990000Y497092D01*
X9073380Y512781D01*
X9149960Y562059D01*
X9201334Y637247D01*
X9219408Y726500D01*
X9219408Y1926500D01*
X9203719Y2009880D01*
X9154441Y2086460D01*
X9079253Y2137834D01*
X8990000Y2155908D01*
X7774442Y2155908D01*
X7774644Y2387913D01*
X7656919Y2672828D01*
X7439124Y2891003D01*
X7154415Y3009225D01*
X6846137Y3009494D01*
X6561222Y2891769D01*
X6343047Y2673974D01*
X6224825Y2389265D01*
X6224621Y2155908D01*
X4950000Y2155908D01*
X4866620Y2140219D01*
X4790040Y2090941D01*
X4738666Y2015753D01*
X4720592Y1926500D01*
X4720592Y1352010D01*
X4387050Y1352010D01*
X4219898Y1421418D01*
X4030931Y1421582D01*
X3856286Y1349420D01*
X3801267Y1294497D01*
X3625000Y1470764D01*
X3625000Y3046500D01*
X3602164Y3161305D01*
X3537132Y3258632D01*
X2937132Y3858632D01*
X2839805Y3923664D01*
X2725000Y3946500D01*
X1996689Y3946500D01*
X1894417Y4048951D01*
X1719898Y4121418D01*
X1530931Y4121582D01*
X1356286Y4049420D01*
X1222549Y3915917D01*
X1150082Y3741398D01*
X1150080Y3739254D01*
X1137132Y3758632D01*
X1099956Y3795808D01*
X1100082Y3940569D01*
X1027920Y4115214D01*
X894417Y4248951D01*
X719898Y4321418D01*
X530931Y4321582D01*
X356286Y4249420D01*
X222549Y4115917D01*
X150082Y3941398D01*
X149918Y3752431D01*
X222080Y3577786D01*
X355583Y3444049D01*
X530102Y3371582D01*
X625000Y3371500D01*
X625000Y3218139D01*
X494417Y3348951D01*
X319898Y3421418D01*
X130931Y3421582D01*
X-43714Y3349420D01*
X-177451Y3215917D01*
X-249918Y3041398D01*
X-250082Y2852431D01*
X-177920Y2677786D01*
X-44417Y2544049D01*
X36991Y2510245D01*
X1124998Y1422238D01*
X1124998Y-1529238D01*
X612868Y-2041368D01*
X547836Y-2138695D01*
X525000Y-2253500D01*
X525000Y-2853500D01*
X547836Y-2968305D01*
X612868Y-3065632D01*
X812868Y-3265632D01*
X910195Y-3330664D01*
X1025000Y-3353500D01*
X1625000Y-3353500D01*
X1739805Y-3330664D01*
X1837132Y-3265632D01*
X2174221Y-2928543D01*
X2219069Y-2928582D01*
X2393490Y-2856513D01*
X2399794Y-2888205D01*
X2476098Y-3002402D01*
X3027197Y-3553500D01*
X2876098Y-3704598D01*
X2799794Y-3818795D01*
X2772999Y-3953500D01*
X2773000Y-3953505D01*
X2773000Y-6407697D01*
X2379196Y-6801500D01*
X-2123000Y-6801500D01*
X-2123000Y-6473280D01*
X-2072549Y-6422917D01*
X-2000082Y-6248398D01*
X-1999918Y-6059431D01*
X-2064348Y-5903500D01*
X-1575000Y-5903500D01*
X-1522719Y-5893101D01*
X-1549918Y-5958602D01*
X-1550082Y-6147569D01*
X-1477920Y-6322214D01*
X-1344417Y-6455951D01*
X-1169898Y-6528418D01*
X-980931Y-6528582D01*
X-806286Y-6456420D01*
X-703186Y-6353500D01*
X-575000Y-6353500D01*
X-460195Y-6330664D01*
X-362868Y-6265632D01*
X-62868Y-5965632D01*
X2164Y-5868305D01*
X25000Y-5753500D01*
X25000Y-1153500D01*
X2164Y-1038695D01*
X-62868Y-941368D01*
X-475000Y-529236D01*
X-475000Y1674811D01*
X-372549Y1777083D01*
X-300082Y1951602D01*
X-299918Y2140569D01*
X-372080Y2315214D01*
X-505583Y2448951D01*
X-680102Y2521418D01*
X-869069Y2521582D01*
X-1043714Y2449420D01*
X-1177451Y2315917D01*
X-1249918Y2141398D01*
X-1250082Y1952431D01*
X-1177920Y1777786D01*
X-1075000Y1674686D01*
X-1075000Y-653500D01*
X-1052164Y-768305D01*
X-987132Y-865632D01*
X-575000Y-1277764D01*
X-575000Y-2381686D01*
X-605583Y-2351049D01*
X-780102Y-2278582D01*
X-969069Y-2278418D01*
X-1143714Y-2350580D01*
X-1277451Y-2484083D01*
X-1349918Y-2658602D01*
X-1350082Y-2847569D01*
X-1277920Y-3022214D01*
X-1175000Y-3125314D01*
X-1175000Y-4779236D01*
X-1699264Y-5303500D01*
X-1800000Y-5303500D01*
X-1800000Y4546500D01*
X-1805129Y4573759D01*
X-1821239Y4598795D01*
X-1845821Y4615591D01*
X-1875000Y4621500D01*
X-10875000Y4621500D01*
X-10902259Y4616371D01*
X-10927295Y4600261D01*
X-10944091Y4575679D01*
X-10950000Y4546500D01*
X-10950000Y1593271D01*
X-11005583Y1648951D01*
X-11180102Y1721418D01*
X-11369069Y1721582D01*
X-11543714Y1649420D01*
X-11677451Y1515917D01*
X-11749918Y1341398D01*
X-11750082Y1152431D01*
X-12000470Y1152431D01*
X-12000470Y7006500D01*
X-7979408Y7006500D01*
X-7979408Y5806500D01*
X-7963719Y5723120D01*
X-7914441Y5646540D01*
X-7839253Y5595166D01*
X-7750000Y5577092D01*
X-7393573Y5577092D01*
X-7449918Y5441398D01*
X-7450082Y5252431D01*
X-7377920Y5077786D01*
X-7244417Y4944049D01*
X-7069898Y4871582D01*
X-6880931Y4871418D01*
X-6706286Y4943580D01*
X-6572549Y5077083D01*
X-6500082Y5251602D01*
X-6499918Y5440569D01*
X-6556328Y5577092D01*
X-6250000Y5577092D01*
X-6166620Y5592781D01*
X-6090040Y5642059D01*
X-6038666Y5717247D01*
X-6020592Y5806500D01*
X-6020592Y7006500D01*
X-5439408Y7006500D01*
X-5439408Y5806500D01*
X-5423719Y5723120D01*
X-5374441Y5646540D01*
X-5299253Y5595166D01*
X-5210000Y5577092D01*
X-4843573Y5577092D01*
X-4899918Y5441398D01*
X-4900082Y5252431D01*
X-4827920Y5077786D01*
X-4694417Y4944049D01*
X-4519898Y4871582D01*
X-4330931Y4871418D01*
X-4156286Y4943580D01*
X-4022549Y5077083D01*
X-3950082Y5251602D01*
X-3949918Y5440569D01*
X-4006328Y5577092D01*
X-3710000Y5577092D01*
X-3626620Y5592781D01*
X-3550040Y5642059D01*
X-3521540Y5683770D01*
X4985846Y5683770D01*
X5060107Y5310436D01*
X5271584Y4993938D01*
X5588082Y4782461D01*
X5961416Y4708200D01*
X8037784Y4708200D01*
X8411118Y4782461D01*
X8727616Y4993938D01*
X8939093Y5310436D01*
X9013354Y5683770D01*
X8939093Y6057104D01*
X8727616Y6373602D01*
X8411118Y6585079D01*
X8037784Y6659340D01*
X5961416Y6659340D01*
X5588082Y6585079D01*
X5271584Y6373602D01*
X5060107Y6057104D01*
X4985846Y5683770D01*
X-3521540Y5683770D01*
X-3498666Y5717247D01*
X-3480592Y5806500D01*
X-3480592Y7006500D01*
X-3496281Y7089880D01*
X-3545559Y7166460D01*
X-3620747Y7217834D01*
X-3710000Y7235908D01*
X-5210000Y7235908D01*
X-5293380Y7220219D01*
X-5369960Y7170941D01*
X-5421334Y7095753D01*
X-5439408Y7006500D01*
X-6020592Y7006500D01*
X-6036281Y7089880D01*
X-6085559Y7166460D01*
X-6160747Y7217834D01*
X-6250000Y7235908D01*
X-7750000Y7235908D01*
X-7833380Y7220219D01*
X-7909960Y7170941D01*
X-7961334Y7095753D01*
X-7979408Y7006500D01*
X-12000470Y7006500D01*
X-12000470Y7846970D01*
X3375470Y7846970D01*
X3375470Y7096500D01*
X3375470Y7096500D01*
G37*
X3375470Y7096500D02*
X3396367Y6991442D01*
X3455878Y6902378D01*
X3544942Y6842867D01*
X3650000Y6821970D01*
X4350000Y6821970D01*
X4455058Y6842867D01*
X4544122Y6902378D01*
X4603633Y6991442D01*
X4624530Y7096500D01*
X4624530Y7846970D01*
X9225070Y7846970D01*
X9225070Y-7878970D01*
X4624530Y-7878970D01*
X4624530Y-7103500D01*
X4603633Y-6998442D01*
X4544122Y-6909378D01*
X4455058Y-6849867D01*
X4350000Y-6828970D01*
X3650000Y-6828970D01*
X3544942Y-6849867D01*
X3455878Y-6909378D01*
X3396367Y-6998442D01*
X3375470Y-7103500D01*
X3375470Y-7878970D01*
X-12000470Y-7878970D01*
X-12000470Y1152431D01*
X-11750082Y1152431D01*
X-11677920Y977786D01*
X-11575000Y874686D01*
X-11575000Y-5303500D01*
X-11552164Y-5418305D01*
X-11487132Y-5515632D01*
X-11187132Y-5815632D01*
X-11089805Y-5880664D01*
X-10975000Y-5903500D01*
X-2885514Y-5903500D01*
X-2949918Y-6058602D01*
X-2950082Y-6247569D01*
X-2877920Y-6422214D01*
X-2827000Y-6473223D01*
X-2827000Y-6953495D01*
X-2827001Y-6953500D01*
X-2800206Y-7088205D01*
X-2723902Y-7202402D01*
X-2523904Y-7402399D01*
X-2523902Y-7402402D01*
X-2409705Y-7478706D01*
X-2387356Y-7483152D01*
X-2275000Y-7505501D01*
X-2274995Y-7505500D01*
X2524995Y-7505500D01*
X2525000Y-7505501D01*
X2659705Y-7478706D01*
X2773902Y-7402402D01*
X3373899Y-6802404D01*
X3373902Y-6802402D01*
X3450206Y-6688205D01*
X3477000Y-6553500D01*
X3477000Y-5715750D01*
X4985846Y-5715750D01*
X5060107Y-6089084D01*
X5271584Y-6405582D01*
X5588082Y-6617059D01*
X5961416Y-6691320D01*
X8037784Y-6691320D01*
X8411118Y-6617059D01*
X8727616Y-6405582D01*
X8939093Y-6089084D01*
X9013354Y-5715750D01*
X8939093Y-5342416D01*
X8727616Y-5025918D01*
X8411118Y-4814441D01*
X8037784Y-4740180D01*
X5961416Y-4740180D01*
X5588082Y-4814441D01*
X5271584Y-5025918D01*
X5060107Y-5342416D01*
X4985846Y-5715750D01*
X3477000Y-5715750D01*
X3477000Y-4099304D01*
X3547783Y-4028520D01*
X3619069Y-4028582D01*
X3775168Y-3964083D01*
X3930102Y-4028418D01*
X4119069Y-4028582D01*
X4293714Y-3956420D01*
X4382179Y-3868110D01*
X4724900Y-3868110D01*
X4724831Y-3946589D01*
X4872954Y-4305071D01*
X5146986Y-4579582D01*
X5505210Y-4728330D01*
X5893089Y-4728669D01*
X6251571Y-4580546D01*
X6526082Y-4306514D01*
X6674830Y-3948290D01*
X6675169Y-3560411D01*
X6527046Y-3201929D01*
X6253014Y-2927418D01*
X5894790Y-2778670D01*
X5506911Y-2778331D01*
X5148429Y-2926454D01*
X4910358Y-3164110D01*
X4307455Y-3164110D01*
X4294417Y-3151049D01*
X4119898Y-3078582D01*
X3930931Y-3078418D01*
X3774832Y-3142917D01*
X3619898Y-3078582D01*
X3547823Y-3078519D01*
X3077000Y-2607696D01*
X3077000Y-711952D01*
X3112868Y-765632D01*
X3612868Y-1265632D01*
X3710195Y-1330664D01*
X3735550Y-1335707D01*
X3855583Y-1455951D01*
X4030102Y-1528418D01*
X4219069Y-1528582D01*
X4393714Y-1456420D01*
X4481538Y-1368750D01*
X4720592Y-1368750D01*
X4720592Y-1813500D01*
X4736281Y-1896880D01*
X4785559Y-1973460D01*
X4860747Y-2024834D01*
X4950000Y-2042908D01*
X6253355Y-2042908D01*
X6224825Y-2111615D01*
X6224556Y-2419893D01*
X6342281Y-2704808D01*
X6560076Y-2922983D01*
X6844785Y-3041205D01*
X7153063Y-3041474D01*
X7437978Y-2923749D01*
X7656153Y-2705954D01*
X7774375Y-2421245D01*
X7774644Y-2112967D01*
X7745696Y-2042908D01*
X8142738Y-2042908D01*
X8255583Y-2155951D01*
X8430102Y-2228418D01*
X8619069Y-2228582D01*
X8793714Y-2156420D01*
X8907425Y-2042908D01*
X8990000Y-2042908D01*
X9073380Y-2027219D01*
X9149960Y-1977941D01*
X9201334Y-1902753D01*
X9219408Y-1813500D01*
X9219408Y-613500D01*
X9203719Y-530120D01*
X9154441Y-453540D01*
X9079253Y-402166D01*
X8990000Y-384092D01*
X7490000Y-384092D01*
X7406620Y-399781D01*
X7330040Y-449059D01*
X7278666Y-524247D01*
X7260592Y-613500D01*
X7260592Y-1535744D01*
X7154415Y-1491655D01*
X6846137Y-1491386D01*
X6679408Y-1560277D01*
X6679408Y-613500D01*
X6663719Y-530120D01*
X6614441Y-453540D01*
X6539253Y-402166D01*
X6450000Y-384092D01*
X4950000Y-384092D01*
X4866620Y-399781D01*
X4790040Y-449059D01*
X4738666Y-524247D01*
X4720592Y-613500D01*
X4720592Y-664750D01*
X4408094Y-664750D01*
X4394417Y-651049D01*
X4219898Y-578582D01*
X4030931Y-578418D01*
X3856286Y-650580D01*
X3851311Y-655547D01*
X3625000Y-429236D01*
X3625000Y666391D01*
X3725000Y646500D01*
X3753311Y646500D01*
X3855583Y544049D01*
X4030102Y471582D01*
X4219069Y471418D01*
X4393714Y543580D01*
X4498327Y648010D01*
X4735361Y648010D01*
X4736281Y643120D01*
X4785559Y566540D01*
X4860747Y515166D01*
X4950000Y497092D01*
X6450000Y497092D01*
X6533380Y512781D01*
X6609960Y562059D01*
X6661334Y637247D01*
X6679408Y726500D01*
X6679408Y1528346D01*
X6844785Y1459675D01*
X7153063Y1459406D01*
X7260592Y1503836D01*
X7260592Y726500D01*
X7276281Y643120D01*
X7325559Y566540D01*
X7400747Y515166D01*
X7490000Y497092D01*
X8114732Y497092D01*
X8050082Y341398D01*
X8049918Y152431D01*
X8122080Y-22214D01*
X8255583Y-155951D01*
X8430102Y-228418D01*
X8619069Y-228582D01*
X8793714Y-156420D01*
X8927451Y-22917D01*
X8999918Y151602D01*
X9000082Y340569D01*
X8935408Y497092D01*
X8990000Y497092D01*
X9073380Y512781D01*
X9149960Y562059D01*
X9201334Y637247D01*
X9219408Y726500D01*
X9219408Y1926500D01*
X9203719Y2009880D01*
X9154441Y2086460D01*
X9079253Y2137834D01*
X8990000Y2155908D01*
X7774442Y2155908D01*
X7774644Y2387913D01*
X7656919Y2672828D01*
X7439124Y2891003D01*
X7154415Y3009225D01*
X6846137Y3009494D01*
X6561222Y2891769D01*
X6343047Y2673974D01*
X6224825Y2389265D01*
X6224621Y2155908D01*
X4950000Y2155908D01*
X4866620Y2140219D01*
X4790040Y2090941D01*
X4738666Y2015753D01*
X4720592Y1926500D01*
X4720592Y1352010D01*
X4387050Y1352010D01*
X4219898Y1421418D01*
X4030931Y1421582D01*
X3856286Y1349420D01*
X3801267Y1294497D01*
X3625000Y1470764D01*
X3625000Y3046500D01*
X3602164Y3161305D01*
X3537132Y3258632D01*
X2937132Y3858632D01*
X2839805Y3923664D01*
X2725000Y3946500D01*
X1996689Y3946500D01*
X1894417Y4048951D01*
X1719898Y4121418D01*
X1530931Y4121582D01*
X1356286Y4049420D01*
X1222549Y3915917D01*
X1150082Y3741398D01*
X1150080Y3739254D01*
X1137132Y3758632D01*
X1099956Y3795808D01*
X1100082Y3940569D01*
X1027920Y4115214D01*
X894417Y4248951D01*
X719898Y4321418D01*
X530931Y4321582D01*
X356286Y4249420D01*
X222549Y4115917D01*
X150082Y3941398D01*
X149918Y3752431D01*
X222080Y3577786D01*
X355583Y3444049D01*
X530102Y3371582D01*
X625000Y3371500D01*
X625000Y3218139D01*
X494417Y3348951D01*
X319898Y3421418D01*
X130931Y3421582D01*
X-43714Y3349420D01*
X-177451Y3215917D01*
X-249918Y3041398D01*
X-250082Y2852431D01*
X-177920Y2677786D01*
X-44417Y2544049D01*
X36991Y2510245D01*
X1124998Y1422238D01*
X1124998Y-1529238D01*
X612868Y-2041368D01*
X547836Y-2138695D01*
X525000Y-2253500D01*
X525000Y-2853500D01*
X547836Y-2968305D01*
X612868Y-3065632D01*
X812868Y-3265632D01*
X910195Y-3330664D01*
X1025000Y-3353500D01*
X1625000Y-3353500D01*
X1739805Y-3330664D01*
X1837132Y-3265632D01*
X2174221Y-2928543D01*
X2219069Y-2928582D01*
X2393490Y-2856513D01*
X2399794Y-2888205D01*
X2476098Y-3002402D01*
X3027197Y-3553500D01*
X2876098Y-3704598D01*
X2799794Y-3818795D01*
X2772999Y-3953500D01*
X2773000Y-3953505D01*
X2773000Y-6407697D01*
X2379196Y-6801500D01*
X-2123000Y-6801500D01*
X-2123000Y-6473280D01*
X-2072549Y-6422917D01*
X-2000082Y-6248398D01*
X-1999918Y-6059431D01*
X-2064348Y-5903500D01*
X-1575000Y-5903500D01*
X-1522719Y-5893101D01*
X-1549918Y-5958602D01*
X-1550082Y-6147569D01*
X-1477920Y-6322214D01*
X-1344417Y-6455951D01*
X-1169898Y-6528418D01*
X-980931Y-6528582D01*
X-806286Y-6456420D01*
X-703186Y-6353500D01*
X-575000Y-6353500D01*
X-460195Y-6330664D01*
X-362868Y-6265632D01*
X-62868Y-5965632D01*
X2164Y-5868305D01*
X25000Y-5753500D01*
X25000Y-1153500D01*
X2164Y-1038695D01*
X-62868Y-941368D01*
X-475000Y-529236D01*
X-475000Y1674811D01*
X-372549Y1777083D01*
X-300082Y1951602D01*
X-299918Y2140569D01*
X-372080Y2315214D01*
X-505583Y2448951D01*
X-680102Y2521418D01*
X-869069Y2521582D01*
X-1043714Y2449420D01*
X-1177451Y2315917D01*
X-1249918Y2141398D01*
X-1250082Y1952431D01*
X-1177920Y1777786D01*
X-1075000Y1674686D01*
X-1075000Y-653500D01*
X-1052164Y-768305D01*
X-987132Y-865632D01*
X-575000Y-1277764D01*
X-575000Y-2381686D01*
X-605583Y-2351049D01*
X-780102Y-2278582D01*
X-969069Y-2278418D01*
X-1143714Y-2350580D01*
X-1277451Y-2484083D01*
X-1349918Y-2658602D01*
X-1350082Y-2847569D01*
X-1277920Y-3022214D01*
X-1175000Y-3125314D01*
X-1175000Y-4779236D01*
X-1699264Y-5303500D01*
X-1800000Y-5303500D01*
X-1800000Y4546500D01*
X-1805129Y4573759D01*
X-1821239Y4598795D01*
X-1845821Y4615591D01*
X-1875000Y4621500D01*
X-10875000Y4621500D01*
X-10902259Y4616371D01*
X-10927295Y4600261D01*
X-10944091Y4575679D01*
X-10950000Y4546500D01*
X-10950000Y1593271D01*
X-11005583Y1648951D01*
X-11180102Y1721418D01*
X-11369069Y1721582D01*
X-11543714Y1649420D01*
X-11677451Y1515917D01*
X-11749918Y1341398D01*
X-11750082Y1152431D01*
X-12000470Y1152431D01*
X-12000470Y7006500D01*
X-7979408Y7006500D01*
X-7979408Y5806500D01*
X-7963719Y5723120D01*
X-7914441Y5646540D01*
X-7839253Y5595166D01*
X-7750000Y5577092D01*
X-7393573Y5577092D01*
X-7449918Y5441398D01*
X-7450082Y5252431D01*
X-7377920Y5077786D01*
X-7244417Y4944049D01*
X-7069898Y4871582D01*
X-6880931Y4871418D01*
X-6706286Y4943580D01*
X-6572549Y5077083D01*
X-6500082Y5251602D01*
X-6499918Y5440569D01*
X-6556328Y5577092D01*
X-6250000Y5577092D01*
X-6166620Y5592781D01*
X-6090040Y5642059D01*
X-6038666Y5717247D01*
X-6020592Y5806500D01*
X-6020592Y7006500D01*
X-5439408Y7006500D01*
X-5439408Y5806500D01*
X-5423719Y5723120D01*
X-5374441Y5646540D01*
X-5299253Y5595166D01*
X-5210000Y5577092D01*
X-4843573Y5577092D01*
X-4899918Y5441398D01*
X-4900082Y5252431D01*
X-4827920Y5077786D01*
X-4694417Y4944049D01*
X-4519898Y4871582D01*
X-4330931Y4871418D01*
X-4156286Y4943580D01*
X-4022549Y5077083D01*
X-3950082Y5251602D01*
X-3949918Y5440569D01*
X-4006328Y5577092D01*
X-3710000Y5577092D01*
X-3626620Y5592781D01*
X-3550040Y5642059D01*
X-3521540Y5683770D01*
X4985846Y5683770D01*
X5060107Y5310436D01*
X5271584Y4993938D01*
X5588082Y4782461D01*
X5961416Y4708200D01*
X8037784Y4708200D01*
X8411118Y4782461D01*
X8727616Y4993938D01*
X8939093Y5310436D01*
X9013354Y5683770D01*
X8939093Y6057104D01*
X8727616Y6373602D01*
X8411118Y6585079D01*
X8037784Y6659340D01*
X5961416Y6659340D01*
X5588082Y6585079D01*
X5271584Y6373602D01*
X5060107Y6057104D01*
X4985846Y5683770D01*
X-3521540Y5683770D01*
X-3498666Y5717247D01*
X-3480592Y5806500D01*
X-3480592Y7006500D01*
X-3496281Y7089880D01*
X-3545559Y7166460D01*
X-3620747Y7217834D01*
X-3710000Y7235908D01*
X-5210000Y7235908D01*
X-5293380Y7220219D01*
X-5369960Y7170941D01*
X-5421334Y7095753D01*
X-5439408Y7006500D01*
X-6020592Y7006500D01*
X-6036281Y7089880D01*
X-6085559Y7166460D01*
X-6160747Y7217834D01*
X-6250000Y7235908D01*
X-7750000Y7235908D01*
X-7833380Y7220219D01*
X-7909960Y7170941D01*
X-7961334Y7095753D01*
X-7979408Y7006500D01*
X-12000470Y7006500D01*
X-12000470Y7846970D01*
X3375470Y7846970D01*
X3375470Y7096500D01*
M02*
