M48
;DRILL file {KiCad 4.0.2+dfsg1-stable} date Do 15 Jun 2017 09:05:13 CEST
;FORMAT={-:-/ absolute / metric / decimal}
FMAT,2
METRIC,TZ
T1C0.300
T2C1.001
T3C1.100
%
G90
G05
M71
T1
X115.725Y-97.75
X120.025Y-93.65
X120.125Y-106.05
X122.575Y-93.65
X124.225Y-91.45
X124.525Y-105.15
X125.925Y-105.05
X126.125Y-101.75
X126.225Y-96.95
X127.225Y-96.05
X127.325Y-102.55
X127.425Y-97.15
X127.625Y-95.15
X127.725Y-99.15
X128.325Y-101.45
X128.625Y-95.35
X129.025Y-105.35
X129.125Y-92.25
X129.125Y-101.45
X129.625Y-96.15
X129.725Y-98.65
X130.525Y-102.55
X131.025Y-102.55
X131.125Y-95.55
X131.125Y-98.05
X131.125Y-100.05
X135.525Y-98.75
X135.525Y-100.75
T3
X134.Y-96.762
X134.Y-101.263
T2
X134.749Y-93.313G85X133.25Y-93.313
G05
X134.749Y-104.712G85X133.25Y-104.712
G05
T0
M30
