G04 #@! TF.GenerationSoftware,KiCad,Pcbnew,(5.0.1)-4*
G04 #@! TF.CreationDate,2019-04-02T18:22:59+02:00*
G04 #@! TF.ProjectId,nk-u2f,6E6B2D7532662E6B696361645F706362,R8*
G04 #@! TF.SameCoordinates,PX6e8e008PY57c9250*
G04 #@! TF.FileFunction,Copper,L2,Bot,Signal*
G04 #@! TF.FilePolarity,Positive*
%FSLAX46Y46*%
G04 Gerber Fmt 4.6, Leading zero omitted, Abs format (unit mm)*
G04 Created by KiCad (PCBNEW (5.0.1)-4) date 02.04.2019 18:22:59*
%MOMM*%
%LPD*%
G01*
G04 APERTURE LIST*
G04 #@! TA.AperFunction,ComponentPad*
%ADD10C,1.099820*%
G04 #@! TD*
G04 #@! TA.AperFunction,SMDPad,CuDef*
%ADD11R,1.998980X1.198880*%
G04 #@! TD*
G04 #@! TA.AperFunction,ComponentPad*
%ADD12O,3.500120X1.501140*%
G04 #@! TD*
G04 #@! TA.AperFunction,Conductor*
%ADD13O,8.000000X8.000000*%
G04 #@! TD*
G04 #@! TA.AperFunction,BGAPad,CuDef*
%ADD14C,0.500000*%
G04 #@! TD*
G04 #@! TA.AperFunction,SMDPad,CuDef*
%ADD15R,0.600000X0.700000*%
G04 #@! TD*
G04 #@! TA.AperFunction,ViaPad*
%ADD16C,0.500000*%
G04 #@! TD*
G04 #@! TA.AperFunction,Conductor*
%ADD17C,0.150000*%
G04 #@! TD*
G04 #@! TA.AperFunction,Conductor*
%ADD18C,0.500000*%
G04 #@! TD*
G04 #@! TA.AperFunction,Conductor*
%ADD19C,0.400000*%
G04 #@! TD*
G04 #@! TA.AperFunction,Conductor*
%ADD20C,0.200000*%
G04 #@! TD*
G04 #@! TA.AperFunction,Conductor*
%ADD21C,0.300000*%
G04 #@! TD*
G04 #@! TA.AperFunction,Conductor*
%ADD22C,0.800000*%
G04 #@! TD*
G04 #@! TA.AperFunction,Conductor*
%ADD23C,0.254000*%
G04 #@! TD*
G04 APERTURE END LIST*
D10*
G04 #@! TO.P,J1,8*
G04 #@! TO.N,N/C*
X18074600Y-4712050D03*
G04 #@! TO.P,J1,7*
X18074600Y-9212930D03*
D11*
G04 #@! TO.P,J1,4*
G04 #@! TO.N,/GND*
X15674020Y-3462370D03*
G04 #@! TO.P,J1,1*
G04 #@! TO.N,/+5V*
X15674020Y-10462610D03*
G04 #@! TO.P,J1,3*
G04 #@! TO.N,/HD+*
X15674020Y-5946490D03*
G04 #@! TO.P,J1,2*
G04 #@! TO.N,/HD-*
X15674020Y-7963250D03*
D12*
G04 #@! TO.P,J1,6*
G04 #@! TO.N,Net-(C5-Pad1)*
X18074600Y-12662250D03*
G04 #@! TO.P,J1,5*
X18074600Y-1262730D03*
G04 #@! TD*
D13*
G04 #@! TO.N,Net-(P1-Pad1)*
G04 #@! TO.C,P1*
X4050000Y-8140000D03*
G04 #@! TD*
D14*
G04 #@! TO.P,REF\002A\002A,~*
G04 #@! TO.N,N/C*
X17575000Y-14250000D03*
G04 #@! TD*
G04 #@! TO.P,REF\002A\002A,~*
G04 #@! TO.N,N/C*
X0Y0D03*
G04 #@! TD*
D15*
G04 #@! TO.P,D1,2*
G04 #@! TO.N,Net-(D1-Pad2)*
X1441600Y-13690300D03*
G04 #@! TO.P,D1,1*
G04 #@! TO.N,/LED*
X341600Y-13690300D03*
G04 #@! TD*
D16*
G04 #@! TO.N,/+5V*
X11404200Y-4800000D03*
X16375000Y-11600000D03*
X12054200Y-2700000D03*
X14404200Y-9100000D03*
G04 #@! TO.N,/C2D*
X13504200Y-6200000D03*
X18104192Y-7350000D03*
G04 #@! TO.N,/HD+*
X15575000Y-4900010D03*
X13404200Y-10000000D03*
G04 #@! TO.N,/HD-*
X15410210Y-6950000D03*
X15554214Y-9124998D03*
G04 #@! TO.N,/Button*
X12054182Y-13650000D03*
X10340000Y-10349996D03*
G04 #@! TO.N,Net-(P1-Pad1)*
X7550000Y-11700000D03*
G04 #@! TO.N,Net-(D1-Pad2)*
X1441600Y-14500000D03*
G04 #@! TO.N,/LED*
X341600Y-14500000D03*
G04 #@! TO.N,/GND*
X16854200Y-2500000D03*
X11200000Y-10200000D03*
X14091760Y-4049988D03*
X11654200Y100000D03*
X15054200Y-500000D03*
X12104200Y-5300000D03*
X17054200Y-9600000D03*
X14204200Y-6200000D03*
X9884200Y-5840000D03*
X12010000Y-12700000D03*
X15200000Y-12950000D03*
G04 #@! TO.N,/Button_reset*
X10434200Y-5280000D03*
X12254218Y-11050022D03*
G04 #@! TD*
D17*
G04 #@! TO.N,/+5V*
X16454200Y-11600000D02*
X16454200Y-11600000D01*
X15674020Y-10462610D02*
X16216810Y-10462610D01*
X16216810Y-10462610D02*
X16454200Y-10700000D01*
X16116810Y-10462610D02*
X15674020Y-10462610D01*
D18*
X16375000Y-11600000D02*
X16375000Y-10720800D01*
D17*
X16375000Y-10720800D02*
X16116810Y-10462610D01*
D19*
X12054200Y-2700000D02*
X12054200Y-4050000D01*
X12054200Y-4150000D02*
X11404200Y-4800000D01*
D17*
X12054200Y-4050000D02*
X12054200Y-4150000D01*
D19*
X14404200Y-9100000D02*
X14404200Y-9600000D01*
D17*
X15273970Y-10462610D02*
X15674020Y-10462610D01*
D19*
X14411360Y-9600000D02*
X15273970Y-10462610D01*
D17*
X14404200Y-9600000D02*
X14411360Y-9600000D01*
D19*
X15304200Y-10800000D02*
X13117385Y-10800000D01*
D17*
X15674020Y-10462610D02*
X15641590Y-10462610D01*
X15641590Y-10462610D02*
X15304200Y-10800000D01*
X13117385Y-10800000D02*
X13104200Y-10800000D01*
D19*
X11404200Y-6150000D02*
X11404200Y-4800000D01*
X12354200Y-7100000D02*
X11404200Y-6150000D01*
X12354200Y-10054200D02*
X12354200Y-7100000D01*
X13104200Y-10800000D02*
X13100000Y-10800000D01*
X13100000Y-10800000D02*
X12354200Y-10054200D01*
D20*
G04 #@! TO.N,/C2D*
X17204200Y-6450008D02*
X18104192Y-7350000D01*
X17204200Y-5250000D02*
X17204200Y-6450008D01*
X16354200Y-4400000D02*
X17204200Y-5250000D01*
X14854200Y-4400000D02*
X16354200Y-4400000D01*
X13504200Y-6200000D02*
X13504200Y-5750000D01*
X13504200Y-5750000D02*
X14854200Y-4400000D01*
D17*
G04 #@! TO.N,/HD+*
X15500000Y-5772470D02*
X15674020Y-5946490D01*
X15554360Y-5826830D02*
X15674020Y-5946490D01*
D21*
X15754200Y-5626990D02*
X15554360Y-5826830D01*
D17*
X15575000Y-5847470D02*
X15674020Y-5946490D01*
D21*
X15575000Y-5847470D02*
X15575000Y-4900010D01*
D20*
X13404200Y-9646447D02*
X13404200Y-10000000D01*
X13404200Y-7816260D02*
X13404200Y-9646447D01*
X15273970Y-5946490D02*
X13404200Y-7816260D01*
D17*
X15674020Y-5946490D02*
X15273970Y-5946490D01*
D21*
G04 #@! TO.N,/HD-*
X15500000Y-7789230D02*
X15674020Y-7963250D01*
D17*
X15810002Y-8099232D02*
X15674020Y-7963250D01*
X15410210Y-6950000D02*
X15410210Y-6950000D01*
D21*
X15410210Y-7699440D02*
X15410210Y-6950000D01*
X15674020Y-7963250D02*
X15410210Y-7699440D01*
X15554214Y-9124998D02*
X15554214Y-7963250D01*
D20*
G04 #@! TO.N,/Button*
X10340000Y-10703549D02*
X10340000Y-10349996D01*
X12054182Y-13650000D02*
X10340000Y-11935818D01*
X10340000Y-11935818D02*
X10340000Y-10703549D01*
G04 #@! TO.N,Net-(D1-Pad2)*
X1441600Y-13690300D02*
X1441600Y-14500000D01*
G04 #@! TO.N,/LED*
X341600Y-13690300D02*
X341600Y-14500000D01*
D17*
X341600Y-14500000D02*
X341600Y-14500000D01*
G04 #@! TO.N,/GND*
X15674020Y-3462370D02*
X15891830Y-3462370D01*
D20*
G04 #@! TO.N,/Button_reset*
X10434200Y-5633553D02*
X10434200Y-5280000D01*
X10434200Y-7740000D02*
X10434200Y-5633553D01*
X11794200Y-9100000D02*
X10434200Y-7740000D01*
X12254218Y-11050022D02*
X11794200Y-10590004D01*
X11794200Y-10590004D02*
X11794200Y-9100000D01*
D17*
G04 #@! TO.N,Net-(C5-Pad1)*
X18991950Y-12662250D02*
X18074600Y-12662250D01*
D22*
X19954200Y-11700000D02*
X18991950Y-12662250D01*
X19954200Y-2300000D02*
X19954200Y-11700000D01*
D17*
X18074600Y-1262730D02*
X18916930Y-1262730D01*
D22*
X18916930Y-1262730D02*
X19954200Y-2300000D01*
G04 #@! TD*
D20*
G04 #@! TO.N,/GND*
G36*
X14425470Y164713D02*
X14424021Y150000D01*
X14429804Y91282D01*
X14446932Y34820D01*
X14474745Y-17215D01*
X14512176Y-62824D01*
X14557785Y-100255D01*
X14609820Y-128068D01*
X14666282Y-145196D01*
X14725000Y-150979D01*
X14739712Y-149530D01*
X15410288Y-149530D01*
X15425000Y-150979D01*
X15439712Y-149530D01*
X15483718Y-145196D01*
X15540180Y-128068D01*
X15592215Y-100255D01*
X15637824Y-62824D01*
X15675255Y-17215D01*
X15703068Y34820D01*
X15720196Y91282D01*
X15725979Y150000D01*
X15724530Y164712D01*
X15724530Y875470D01*
X19408332Y875470D01*
X19591248Y775932D01*
X19808871Y613409D01*
X20001097Y421508D01*
X20163986Y204164D01*
X20275071Y851D01*
X20275071Y-1701632D01*
X20053696Y-1480257D01*
X20060182Y-1458876D01*
X20079501Y-1262730D01*
X20060182Y-1066584D01*
X20002969Y-877976D01*
X19910059Y-704154D01*
X19785023Y-551797D01*
X19632666Y-426761D01*
X19458844Y-333851D01*
X19270236Y-276638D01*
X19123241Y-262160D01*
X17025959Y-262160D01*
X16878964Y-276638D01*
X16690356Y-333851D01*
X16516534Y-426761D01*
X16364177Y-551797D01*
X16239141Y-704154D01*
X16146231Y-877976D01*
X16089018Y-1066584D01*
X16069699Y-1262730D01*
X16089018Y-1458876D01*
X16146231Y-1647484D01*
X16239141Y-1821306D01*
X16364177Y-1973663D01*
X16516534Y-2098699D01*
X16690356Y-2191609D01*
X16878964Y-2248822D01*
X17025959Y-2263300D01*
X18998261Y-2263300D01*
X19304200Y-2569239D01*
X19304201Y-11430760D01*
X19073281Y-11661680D01*
X17025959Y-11661680D01*
X16878964Y-11676158D01*
X16869639Y-11678987D01*
X16870184Y-11673458D01*
X16875000Y-11649246D01*
X16875000Y-11210610D01*
X16882383Y-11201614D01*
X16905597Y-11158184D01*
X16919892Y-11111058D01*
X16924719Y-11062050D01*
X16924719Y-9863170D01*
X16919892Y-9814162D01*
X16905597Y-9767036D01*
X16882383Y-9723606D01*
X16851142Y-9685538D01*
X16813074Y-9654297D01*
X16769644Y-9631083D01*
X16722518Y-9616788D01*
X16673510Y-9611961D01*
X15669001Y-9611961D01*
X15700059Y-9605783D01*
X15791053Y-9568092D01*
X15872945Y-9513373D01*
X15942589Y-9443729D01*
X15997308Y-9361837D01*
X16034999Y-9270843D01*
X16054214Y-9174244D01*
X16054214Y-9134146D01*
X17274690Y-9134146D01*
X17274690Y-9291714D01*
X17305430Y-9446255D01*
X17365729Y-9591829D01*
X17453270Y-9722843D01*
X17564687Y-9834260D01*
X17695701Y-9921801D01*
X17841275Y-9982100D01*
X17995816Y-10012840D01*
X18153384Y-10012840D01*
X18307925Y-9982100D01*
X18453499Y-9921801D01*
X18584513Y-9834260D01*
X18695930Y-9722843D01*
X18783471Y-9591829D01*
X18843770Y-9446255D01*
X18874510Y-9291714D01*
X18874510Y-9134146D01*
X18843770Y-8979605D01*
X18783471Y-8834031D01*
X18695930Y-8703017D01*
X18584513Y-8591600D01*
X18453499Y-8504059D01*
X18307925Y-8443760D01*
X18153384Y-8413020D01*
X17995816Y-8413020D01*
X17841275Y-8443760D01*
X17695701Y-8504059D01*
X17564687Y-8591600D01*
X17453270Y-8703017D01*
X17365729Y-8834031D01*
X17305430Y-8979605D01*
X17274690Y-9134146D01*
X16054214Y-9134146D01*
X16054214Y-9075752D01*
X16034999Y-8979153D01*
X15997308Y-8888159D01*
X15954214Y-8823665D01*
X15954214Y-8813899D01*
X16673510Y-8813899D01*
X16722518Y-8809072D01*
X16769644Y-8794777D01*
X16813074Y-8771563D01*
X16851142Y-8740322D01*
X16882383Y-8702254D01*
X16905597Y-8658824D01*
X16919892Y-8611698D01*
X16924719Y-8562690D01*
X16924719Y-7363810D01*
X16919892Y-7314802D01*
X16905597Y-7267676D01*
X16882383Y-7224246D01*
X16851142Y-7186178D01*
X16813074Y-7154937D01*
X16769644Y-7131723D01*
X16722518Y-7117428D01*
X16673510Y-7112601D01*
X15884054Y-7112601D01*
X15890995Y-7095845D01*
X15910210Y-6999246D01*
X15910210Y-6900754D01*
X15890995Y-6804155D01*
X15888089Y-6797139D01*
X16673510Y-6797139D01*
X16722518Y-6792312D01*
X16769644Y-6778017D01*
X16813074Y-6754803D01*
X16851142Y-6723562D01*
X16882383Y-6685494D01*
X16905597Y-6642064D01*
X16907190Y-6636813D01*
X16911779Y-6645398D01*
X16955516Y-6698693D01*
X16968876Y-6709657D01*
X17604192Y-7344974D01*
X17604192Y-7399246D01*
X17623407Y-7495845D01*
X17661098Y-7586839D01*
X17715817Y-7668731D01*
X17785461Y-7738375D01*
X17867353Y-7793094D01*
X17958347Y-7830785D01*
X18054946Y-7850000D01*
X18153438Y-7850000D01*
X18250037Y-7830785D01*
X18341031Y-7793094D01*
X18422923Y-7738375D01*
X18492567Y-7668731D01*
X18547286Y-7586839D01*
X18584977Y-7495845D01*
X18604192Y-7399246D01*
X18604192Y-7300754D01*
X18584977Y-7204155D01*
X18547286Y-7113161D01*
X18492567Y-7031269D01*
X18422923Y-6961625D01*
X18341031Y-6906906D01*
X18250037Y-6869215D01*
X18153438Y-6850000D01*
X18099166Y-6850000D01*
X17554200Y-6305035D01*
X17554200Y-5322893D01*
X17564687Y-5333380D01*
X17695701Y-5420921D01*
X17841275Y-5481220D01*
X17995816Y-5511960D01*
X18153384Y-5511960D01*
X18307925Y-5481220D01*
X18453499Y-5420921D01*
X18584513Y-5333380D01*
X18695930Y-5221963D01*
X18783471Y-5090949D01*
X18843770Y-4945375D01*
X18874510Y-4790834D01*
X18874510Y-4633266D01*
X18843770Y-4478725D01*
X18783471Y-4333151D01*
X18695930Y-4202137D01*
X18584513Y-4090720D01*
X18453499Y-4003179D01*
X18307925Y-3942880D01*
X18153384Y-3912140D01*
X17995816Y-3912140D01*
X17841275Y-3942880D01*
X17695701Y-4003179D01*
X17564687Y-4090720D01*
X17453270Y-4202137D01*
X17365729Y-4333151D01*
X17305430Y-4478725D01*
X17274690Y-4633266D01*
X17274690Y-4790834D01*
X17283301Y-4834127D01*
X16749928Y-4300755D01*
X16791930Y-4283357D01*
X16832876Y-4255998D01*
X16867698Y-4221176D01*
X16895057Y-4180229D01*
X16913903Y-4134732D01*
X16923510Y-4086433D01*
X16923510Y-3674870D01*
X16861010Y-3612370D01*
X15824020Y-3612370D01*
X15824020Y-3632370D01*
X15524020Y-3632370D01*
X15524020Y-3612370D01*
X14487030Y-3612370D01*
X14424530Y-3674870D01*
X14424530Y-4086433D01*
X14434137Y-4134732D01*
X14452983Y-4180229D01*
X14480342Y-4221176D01*
X14509196Y-4250030D01*
X13268876Y-5490351D01*
X13255516Y-5501315D01*
X13211779Y-5554610D01*
X13190299Y-5594797D01*
X13179279Y-5615413D01*
X13159265Y-5681389D01*
X13152507Y-5750000D01*
X13154200Y-5767188D01*
X13154200Y-5842894D01*
X13115825Y-5881269D01*
X13061106Y-5963161D01*
X13023415Y-6054155D01*
X13004200Y-6150754D01*
X13004200Y-6249246D01*
X13023415Y-6345845D01*
X13061106Y-6436839D01*
X13115825Y-6518731D01*
X13185469Y-6588375D01*
X13267361Y-6643094D01*
X13358355Y-6680785D01*
X13454954Y-6700000D01*
X13553446Y-6700000D01*
X13650045Y-6680785D01*
X13741039Y-6643094D01*
X13822931Y-6588375D01*
X13892575Y-6518731D01*
X13947294Y-6436839D01*
X13984985Y-6345845D01*
X14004200Y-6249246D01*
X14004200Y-6150754D01*
X13984985Y-6054155D01*
X13947294Y-5963161D01*
X13892575Y-5881269D01*
X13880240Y-5868934D01*
X14425637Y-5323537D01*
X14423321Y-5347050D01*
X14423321Y-6302165D01*
X13168876Y-7556611D01*
X13155515Y-7567576D01*
X13111778Y-7620871D01*
X13079278Y-7681674D01*
X13063912Y-7732329D01*
X13059265Y-7747649D01*
X13052507Y-7816260D01*
X13054200Y-7833448D01*
X13054201Y-9629249D01*
X13054200Y-9629259D01*
X13054200Y-9642894D01*
X13015825Y-9681269D01*
X12961106Y-9763161D01*
X12923415Y-9854155D01*
X12904200Y-9950754D01*
X12904200Y-9967805D01*
X12804200Y-9867805D01*
X12804200Y-7122094D01*
X12806376Y-7100000D01*
X12804200Y-7077905D01*
X12804200Y-7077895D01*
X12797689Y-7011785D01*
X12771957Y-6926959D01*
X12741092Y-6869215D01*
X12730171Y-6848783D01*
X12688028Y-6797432D01*
X12688024Y-6797428D01*
X12673937Y-6780263D01*
X12656772Y-6766176D01*
X11854200Y-5963605D01*
X11854200Y-5020166D01*
X11878080Y-4962515D01*
X12388028Y-4452568D01*
X12430171Y-4401217D01*
X12471957Y-4323041D01*
X12497688Y-4238215D01*
X12506376Y-4150000D01*
X12501452Y-4100005D01*
X12504200Y-4072105D01*
X12504200Y-2920166D01*
X12534985Y-2845845D01*
X12536484Y-2838307D01*
X14424530Y-2838307D01*
X14424530Y-3249870D01*
X14487030Y-3312370D01*
X15524020Y-3312370D01*
X15524020Y-2675430D01*
X15824020Y-2675430D01*
X15824020Y-3312370D01*
X16861010Y-3312370D01*
X16923510Y-3249870D01*
X16923510Y-2838307D01*
X16913903Y-2790008D01*
X16895057Y-2744511D01*
X16867698Y-2703564D01*
X16832876Y-2668742D01*
X16791930Y-2641383D01*
X16746432Y-2622537D01*
X16698133Y-2612930D01*
X15886520Y-2612930D01*
X15824020Y-2675430D01*
X15524020Y-2675430D01*
X15461520Y-2612930D01*
X14649907Y-2612930D01*
X14601608Y-2622537D01*
X14556110Y-2641383D01*
X14515164Y-2668742D01*
X14480342Y-2703564D01*
X14452983Y-2744511D01*
X14434137Y-2790008D01*
X14424530Y-2838307D01*
X12536484Y-2838307D01*
X12554200Y-2749246D01*
X12554200Y-2650754D01*
X12534985Y-2554155D01*
X12497294Y-2463161D01*
X12442575Y-2381269D01*
X12372931Y-2311625D01*
X12291039Y-2256906D01*
X12200045Y-2219215D01*
X12103446Y-2200000D01*
X12004954Y-2200000D01*
X11908355Y-2219215D01*
X11817361Y-2256906D01*
X11735469Y-2311625D01*
X11665825Y-2381269D01*
X11611106Y-2463161D01*
X11573415Y-2554155D01*
X11554200Y-2650754D01*
X11554200Y-2749246D01*
X11573415Y-2845845D01*
X11604200Y-2920167D01*
X11604201Y-3963603D01*
X11241685Y-4326120D01*
X11167361Y-4356906D01*
X11085469Y-4411625D01*
X11015825Y-4481269D01*
X10961106Y-4563161D01*
X10923415Y-4654155D01*
X10904200Y-4750754D01*
X10904200Y-4849246D01*
X10923415Y-4945845D01*
X10954201Y-5020168D01*
X10954200Y-6127905D01*
X10952024Y-6150000D01*
X10954200Y-6172094D01*
X10954200Y-6172104D01*
X10960711Y-6238214D01*
X10971282Y-6273061D01*
X10986443Y-6323040D01*
X11028229Y-6401216D01*
X11067185Y-6448684D01*
X11084463Y-6469737D01*
X11101634Y-6483829D01*
X11904201Y-7286397D01*
X11904200Y-8715026D01*
X10784200Y-7595027D01*
X10784200Y-5637106D01*
X10822575Y-5598731D01*
X10877294Y-5516839D01*
X10914985Y-5425845D01*
X10934200Y-5329246D01*
X10934200Y-5230754D01*
X10914985Y-5134155D01*
X10877294Y-5043161D01*
X10822575Y-4961269D01*
X10752931Y-4891625D01*
X10671039Y-4836906D01*
X10580045Y-4799215D01*
X10483446Y-4780000D01*
X10384954Y-4780000D01*
X10288355Y-4799215D01*
X10197361Y-4836906D01*
X10115469Y-4891625D01*
X10045825Y-4961269D01*
X9991106Y-5043161D01*
X9953415Y-5134155D01*
X9934200Y-5230754D01*
X9934200Y-5329246D01*
X9953415Y-5425845D01*
X9991106Y-5516839D01*
X10045825Y-5598731D01*
X10084200Y-5637106D01*
X10084200Y-5650741D01*
X10084201Y-5650751D01*
X10084200Y-7722812D01*
X10082507Y-7740000D01*
X10084200Y-7757188D01*
X10089265Y-7808611D01*
X10109278Y-7874586D01*
X10141778Y-7935389D01*
X10185515Y-7988684D01*
X10198876Y-7999649D01*
X11444201Y-9244976D01*
X11444200Y-10572815D01*
X11442507Y-10590004D01*
X11444200Y-10607192D01*
X11449265Y-10658615D01*
X11469278Y-10724590D01*
X11501778Y-10785393D01*
X11545515Y-10838688D01*
X11558876Y-10849653D01*
X11754218Y-11044996D01*
X11754218Y-11099268D01*
X11773433Y-11195867D01*
X11811124Y-11286861D01*
X11865843Y-11368753D01*
X11935487Y-11438397D01*
X12017379Y-11493116D01*
X12108373Y-11530807D01*
X12204972Y-11550022D01*
X12303464Y-11550022D01*
X12400063Y-11530807D01*
X12491057Y-11493116D01*
X12572949Y-11438397D01*
X12642593Y-11368753D01*
X12697312Y-11286861D01*
X12735003Y-11195867D01*
X12754218Y-11099268D01*
X12754218Y-11090614D01*
X12766176Y-11102572D01*
X12780263Y-11119737D01*
X12797428Y-11133824D01*
X12797432Y-11133828D01*
X12848783Y-11175971D01*
X12864944Y-11184609D01*
X12926959Y-11217757D01*
X13011785Y-11243489D01*
X13077895Y-11250000D01*
X13077907Y-11250000D01*
X13099999Y-11252176D01*
X13122091Y-11250000D01*
X14509471Y-11250000D01*
X14534966Y-11270923D01*
X14578396Y-11294137D01*
X14625522Y-11308432D01*
X14674530Y-11313259D01*
X15875000Y-11313259D01*
X15875000Y-11649246D01*
X15879816Y-11673459D01*
X15882235Y-11698016D01*
X15889399Y-11721631D01*
X15894215Y-11745845D01*
X15903662Y-11768651D01*
X15910825Y-11792266D01*
X15922459Y-11814031D01*
X15931906Y-11836839D01*
X15945620Y-11857363D01*
X15957254Y-11879129D01*
X15972913Y-11898209D01*
X15986625Y-11918731D01*
X16004075Y-11936181D01*
X16019736Y-11955264D01*
X16038819Y-11970925D01*
X16056269Y-11988375D01*
X16076791Y-12002087D01*
X16095871Y-12017746D01*
X16117638Y-12029381D01*
X16138161Y-12043094D01*
X16160965Y-12052540D01*
X16182733Y-12064175D01*
X16206352Y-12071340D01*
X16229155Y-12080785D01*
X16253366Y-12085601D01*
X16253852Y-12085748D01*
X16239141Y-12103674D01*
X16146231Y-12277496D01*
X16089018Y-12466104D01*
X16069699Y-12662250D01*
X16089018Y-12858396D01*
X16146231Y-13047004D01*
X16239141Y-13220826D01*
X16364177Y-13373183D01*
X16516534Y-13498219D01*
X16690356Y-13591129D01*
X16878964Y-13648342D01*
X17025959Y-13662820D01*
X17451455Y-13662820D01*
X17399986Y-13673058D01*
X17290793Y-13718287D01*
X17192522Y-13783950D01*
X17108950Y-13867522D01*
X17043287Y-13965793D01*
X16998058Y-14074986D01*
X16975000Y-14190905D01*
X16975000Y-14309095D01*
X16998058Y-14425014D01*
X17043287Y-14534207D01*
X17108950Y-14632478D01*
X17192522Y-14716050D01*
X17290793Y-14781713D01*
X17336077Y-14800470D01*
X15724530Y-14800470D01*
X15724530Y-14064712D01*
X15725979Y-14050000D01*
X15720196Y-13991282D01*
X15703068Y-13934820D01*
X15675255Y-13882785D01*
X15637824Y-13837176D01*
X15592215Y-13799745D01*
X15540180Y-13771932D01*
X15483718Y-13754804D01*
X15439712Y-13750470D01*
X15425000Y-13749021D01*
X15410288Y-13750470D01*
X14739712Y-13750470D01*
X14725000Y-13749021D01*
X14710288Y-13750470D01*
X14666282Y-13754804D01*
X14609820Y-13771932D01*
X14557785Y-13799745D01*
X14512176Y-13837176D01*
X14474745Y-13882785D01*
X14446932Y-13934820D01*
X14429804Y-13991282D01*
X14424021Y-14050000D01*
X14425470Y-14064713D01*
X14425471Y-14800470D01*
X10715711Y-14800470D01*
X10711122Y-14798727D01*
X10475082Y-14668222D01*
X10259896Y-14505598D01*
X10069913Y-14314142D01*
X9908951Y-14097702D01*
X9780272Y-13860661D01*
X9686457Y-13607779D01*
X9629401Y-13344160D01*
X9610000Y-13071558D01*
X9610000Y-10300750D01*
X9840000Y-10300750D01*
X9840000Y-10399242D01*
X9859215Y-10495841D01*
X9896906Y-10586835D01*
X9951625Y-10668727D01*
X9990000Y-10707102D01*
X9990000Y-10720737D01*
X9990001Y-10720747D01*
X9990000Y-11918629D01*
X9988307Y-11935818D01*
X9990000Y-11953006D01*
X9995065Y-12004429D01*
X10015078Y-12070404D01*
X10047578Y-12131207D01*
X10091315Y-12184502D01*
X10104676Y-12195467D01*
X11554182Y-13644975D01*
X11554182Y-13699246D01*
X11573397Y-13795845D01*
X11611088Y-13886839D01*
X11665807Y-13968731D01*
X11735451Y-14038375D01*
X11817343Y-14093094D01*
X11908337Y-14130785D01*
X12004936Y-14150000D01*
X12103428Y-14150000D01*
X12200027Y-14130785D01*
X12291021Y-14093094D01*
X12372913Y-14038375D01*
X12442557Y-13968731D01*
X12497276Y-13886839D01*
X12534967Y-13795845D01*
X12554182Y-13699246D01*
X12554182Y-13600754D01*
X12534967Y-13504155D01*
X12497276Y-13413161D01*
X12442557Y-13331269D01*
X12372913Y-13261625D01*
X12291021Y-13206906D01*
X12200027Y-13169215D01*
X12103428Y-13150000D01*
X12049157Y-13150000D01*
X10690000Y-11790845D01*
X10690000Y-10707102D01*
X10728375Y-10668727D01*
X10783094Y-10586835D01*
X10820785Y-10495841D01*
X10840000Y-10399242D01*
X10840000Y-10300750D01*
X10820785Y-10204151D01*
X10783094Y-10113157D01*
X10728375Y-10031265D01*
X10658731Y-9961621D01*
X10576839Y-9906902D01*
X10485845Y-9869211D01*
X10389246Y-9849996D01*
X10290754Y-9849996D01*
X10194155Y-9869211D01*
X10103161Y-9906902D01*
X10021269Y-9961621D01*
X9951625Y-10031265D01*
X9896906Y-10113157D01*
X9859215Y-10204151D01*
X9840000Y-10300750D01*
X9610000Y-10300750D01*
X9610000Y-828083D01*
X9629645Y-553777D01*
X9687416Y-288576D01*
X9782387Y-34323D01*
X9912626Y203812D01*
X10075463Y420943D01*
X10267592Y612666D01*
X10485076Y775048D01*
X10669616Y875470D01*
X14425471Y875470D01*
X14425470Y164713D01*
X14425470Y164713D01*
G37*
X14425470Y164713D02*
X14424021Y150000D01*
X14429804Y91282D01*
X14446932Y34820D01*
X14474745Y-17215D01*
X14512176Y-62824D01*
X14557785Y-100255D01*
X14609820Y-128068D01*
X14666282Y-145196D01*
X14725000Y-150979D01*
X14739712Y-149530D01*
X15410288Y-149530D01*
X15425000Y-150979D01*
X15439712Y-149530D01*
X15483718Y-145196D01*
X15540180Y-128068D01*
X15592215Y-100255D01*
X15637824Y-62824D01*
X15675255Y-17215D01*
X15703068Y34820D01*
X15720196Y91282D01*
X15725979Y150000D01*
X15724530Y164712D01*
X15724530Y875470D01*
X19408332Y875470D01*
X19591248Y775932D01*
X19808871Y613409D01*
X20001097Y421508D01*
X20163986Y204164D01*
X20275071Y851D01*
X20275071Y-1701632D01*
X20053696Y-1480257D01*
X20060182Y-1458876D01*
X20079501Y-1262730D01*
X20060182Y-1066584D01*
X20002969Y-877976D01*
X19910059Y-704154D01*
X19785023Y-551797D01*
X19632666Y-426761D01*
X19458844Y-333851D01*
X19270236Y-276638D01*
X19123241Y-262160D01*
X17025959Y-262160D01*
X16878964Y-276638D01*
X16690356Y-333851D01*
X16516534Y-426761D01*
X16364177Y-551797D01*
X16239141Y-704154D01*
X16146231Y-877976D01*
X16089018Y-1066584D01*
X16069699Y-1262730D01*
X16089018Y-1458876D01*
X16146231Y-1647484D01*
X16239141Y-1821306D01*
X16364177Y-1973663D01*
X16516534Y-2098699D01*
X16690356Y-2191609D01*
X16878964Y-2248822D01*
X17025959Y-2263300D01*
X18998261Y-2263300D01*
X19304200Y-2569239D01*
X19304201Y-11430760D01*
X19073281Y-11661680D01*
X17025959Y-11661680D01*
X16878964Y-11676158D01*
X16869639Y-11678987D01*
X16870184Y-11673458D01*
X16875000Y-11649246D01*
X16875000Y-11210610D01*
X16882383Y-11201614D01*
X16905597Y-11158184D01*
X16919892Y-11111058D01*
X16924719Y-11062050D01*
X16924719Y-9863170D01*
X16919892Y-9814162D01*
X16905597Y-9767036D01*
X16882383Y-9723606D01*
X16851142Y-9685538D01*
X16813074Y-9654297D01*
X16769644Y-9631083D01*
X16722518Y-9616788D01*
X16673510Y-9611961D01*
X15669001Y-9611961D01*
X15700059Y-9605783D01*
X15791053Y-9568092D01*
X15872945Y-9513373D01*
X15942589Y-9443729D01*
X15997308Y-9361837D01*
X16034999Y-9270843D01*
X16054214Y-9174244D01*
X16054214Y-9134146D01*
X17274690Y-9134146D01*
X17274690Y-9291714D01*
X17305430Y-9446255D01*
X17365729Y-9591829D01*
X17453270Y-9722843D01*
X17564687Y-9834260D01*
X17695701Y-9921801D01*
X17841275Y-9982100D01*
X17995816Y-10012840D01*
X18153384Y-10012840D01*
X18307925Y-9982100D01*
X18453499Y-9921801D01*
X18584513Y-9834260D01*
X18695930Y-9722843D01*
X18783471Y-9591829D01*
X18843770Y-9446255D01*
X18874510Y-9291714D01*
X18874510Y-9134146D01*
X18843770Y-8979605D01*
X18783471Y-8834031D01*
X18695930Y-8703017D01*
X18584513Y-8591600D01*
X18453499Y-8504059D01*
X18307925Y-8443760D01*
X18153384Y-8413020D01*
X17995816Y-8413020D01*
X17841275Y-8443760D01*
X17695701Y-8504059D01*
X17564687Y-8591600D01*
X17453270Y-8703017D01*
X17365729Y-8834031D01*
X17305430Y-8979605D01*
X17274690Y-9134146D01*
X16054214Y-9134146D01*
X16054214Y-9075752D01*
X16034999Y-8979153D01*
X15997308Y-8888159D01*
X15954214Y-8823665D01*
X15954214Y-8813899D01*
X16673510Y-8813899D01*
X16722518Y-8809072D01*
X16769644Y-8794777D01*
X16813074Y-8771563D01*
X16851142Y-8740322D01*
X16882383Y-8702254D01*
X16905597Y-8658824D01*
X16919892Y-8611698D01*
X16924719Y-8562690D01*
X16924719Y-7363810D01*
X16919892Y-7314802D01*
X16905597Y-7267676D01*
X16882383Y-7224246D01*
X16851142Y-7186178D01*
X16813074Y-7154937D01*
X16769644Y-7131723D01*
X16722518Y-7117428D01*
X16673510Y-7112601D01*
X15884054Y-7112601D01*
X15890995Y-7095845D01*
X15910210Y-6999246D01*
X15910210Y-6900754D01*
X15890995Y-6804155D01*
X15888089Y-6797139D01*
X16673510Y-6797139D01*
X16722518Y-6792312D01*
X16769644Y-6778017D01*
X16813074Y-6754803D01*
X16851142Y-6723562D01*
X16882383Y-6685494D01*
X16905597Y-6642064D01*
X16907190Y-6636813D01*
X16911779Y-6645398D01*
X16955516Y-6698693D01*
X16968876Y-6709657D01*
X17604192Y-7344974D01*
X17604192Y-7399246D01*
X17623407Y-7495845D01*
X17661098Y-7586839D01*
X17715817Y-7668731D01*
X17785461Y-7738375D01*
X17867353Y-7793094D01*
X17958347Y-7830785D01*
X18054946Y-7850000D01*
X18153438Y-7850000D01*
X18250037Y-7830785D01*
X18341031Y-7793094D01*
X18422923Y-7738375D01*
X18492567Y-7668731D01*
X18547286Y-7586839D01*
X18584977Y-7495845D01*
X18604192Y-7399246D01*
X18604192Y-7300754D01*
X18584977Y-7204155D01*
X18547286Y-7113161D01*
X18492567Y-7031269D01*
X18422923Y-6961625D01*
X18341031Y-6906906D01*
X18250037Y-6869215D01*
X18153438Y-6850000D01*
X18099166Y-6850000D01*
X17554200Y-6305035D01*
X17554200Y-5322893D01*
X17564687Y-5333380D01*
X17695701Y-5420921D01*
X17841275Y-5481220D01*
X17995816Y-5511960D01*
X18153384Y-5511960D01*
X18307925Y-5481220D01*
X18453499Y-5420921D01*
X18584513Y-5333380D01*
X18695930Y-5221963D01*
X18783471Y-5090949D01*
X18843770Y-4945375D01*
X18874510Y-4790834D01*
X18874510Y-4633266D01*
X18843770Y-4478725D01*
X18783471Y-4333151D01*
X18695930Y-4202137D01*
X18584513Y-4090720D01*
X18453499Y-4003179D01*
X18307925Y-3942880D01*
X18153384Y-3912140D01*
X17995816Y-3912140D01*
X17841275Y-3942880D01*
X17695701Y-4003179D01*
X17564687Y-4090720D01*
X17453270Y-4202137D01*
X17365729Y-4333151D01*
X17305430Y-4478725D01*
X17274690Y-4633266D01*
X17274690Y-4790834D01*
X17283301Y-4834127D01*
X16749928Y-4300755D01*
X16791930Y-4283357D01*
X16832876Y-4255998D01*
X16867698Y-4221176D01*
X16895057Y-4180229D01*
X16913903Y-4134732D01*
X16923510Y-4086433D01*
X16923510Y-3674870D01*
X16861010Y-3612370D01*
X15824020Y-3612370D01*
X15824020Y-3632370D01*
X15524020Y-3632370D01*
X15524020Y-3612370D01*
X14487030Y-3612370D01*
X14424530Y-3674870D01*
X14424530Y-4086433D01*
X14434137Y-4134732D01*
X14452983Y-4180229D01*
X14480342Y-4221176D01*
X14509196Y-4250030D01*
X13268876Y-5490351D01*
X13255516Y-5501315D01*
X13211779Y-5554610D01*
X13190299Y-5594797D01*
X13179279Y-5615413D01*
X13159265Y-5681389D01*
X13152507Y-5750000D01*
X13154200Y-5767188D01*
X13154200Y-5842894D01*
X13115825Y-5881269D01*
X13061106Y-5963161D01*
X13023415Y-6054155D01*
X13004200Y-6150754D01*
X13004200Y-6249246D01*
X13023415Y-6345845D01*
X13061106Y-6436839D01*
X13115825Y-6518731D01*
X13185469Y-6588375D01*
X13267361Y-6643094D01*
X13358355Y-6680785D01*
X13454954Y-6700000D01*
X13553446Y-6700000D01*
X13650045Y-6680785D01*
X13741039Y-6643094D01*
X13822931Y-6588375D01*
X13892575Y-6518731D01*
X13947294Y-6436839D01*
X13984985Y-6345845D01*
X14004200Y-6249246D01*
X14004200Y-6150754D01*
X13984985Y-6054155D01*
X13947294Y-5963161D01*
X13892575Y-5881269D01*
X13880240Y-5868934D01*
X14425637Y-5323537D01*
X14423321Y-5347050D01*
X14423321Y-6302165D01*
X13168876Y-7556611D01*
X13155515Y-7567576D01*
X13111778Y-7620871D01*
X13079278Y-7681674D01*
X13063912Y-7732329D01*
X13059265Y-7747649D01*
X13052507Y-7816260D01*
X13054200Y-7833448D01*
X13054201Y-9629249D01*
X13054200Y-9629259D01*
X13054200Y-9642894D01*
X13015825Y-9681269D01*
X12961106Y-9763161D01*
X12923415Y-9854155D01*
X12904200Y-9950754D01*
X12904200Y-9967805D01*
X12804200Y-9867805D01*
X12804200Y-7122094D01*
X12806376Y-7100000D01*
X12804200Y-7077905D01*
X12804200Y-7077895D01*
X12797689Y-7011785D01*
X12771957Y-6926959D01*
X12741092Y-6869215D01*
X12730171Y-6848783D01*
X12688028Y-6797432D01*
X12688024Y-6797428D01*
X12673937Y-6780263D01*
X12656772Y-6766176D01*
X11854200Y-5963605D01*
X11854200Y-5020166D01*
X11878080Y-4962515D01*
X12388028Y-4452568D01*
X12430171Y-4401217D01*
X12471957Y-4323041D01*
X12497688Y-4238215D01*
X12506376Y-4150000D01*
X12501452Y-4100005D01*
X12504200Y-4072105D01*
X12504200Y-2920166D01*
X12534985Y-2845845D01*
X12536484Y-2838307D01*
X14424530Y-2838307D01*
X14424530Y-3249870D01*
X14487030Y-3312370D01*
X15524020Y-3312370D01*
X15524020Y-2675430D01*
X15824020Y-2675430D01*
X15824020Y-3312370D01*
X16861010Y-3312370D01*
X16923510Y-3249870D01*
X16923510Y-2838307D01*
X16913903Y-2790008D01*
X16895057Y-2744511D01*
X16867698Y-2703564D01*
X16832876Y-2668742D01*
X16791930Y-2641383D01*
X16746432Y-2622537D01*
X16698133Y-2612930D01*
X15886520Y-2612930D01*
X15824020Y-2675430D01*
X15524020Y-2675430D01*
X15461520Y-2612930D01*
X14649907Y-2612930D01*
X14601608Y-2622537D01*
X14556110Y-2641383D01*
X14515164Y-2668742D01*
X14480342Y-2703564D01*
X14452983Y-2744511D01*
X14434137Y-2790008D01*
X14424530Y-2838307D01*
X12536484Y-2838307D01*
X12554200Y-2749246D01*
X12554200Y-2650754D01*
X12534985Y-2554155D01*
X12497294Y-2463161D01*
X12442575Y-2381269D01*
X12372931Y-2311625D01*
X12291039Y-2256906D01*
X12200045Y-2219215D01*
X12103446Y-2200000D01*
X12004954Y-2200000D01*
X11908355Y-2219215D01*
X11817361Y-2256906D01*
X11735469Y-2311625D01*
X11665825Y-2381269D01*
X11611106Y-2463161D01*
X11573415Y-2554155D01*
X11554200Y-2650754D01*
X11554200Y-2749246D01*
X11573415Y-2845845D01*
X11604200Y-2920167D01*
X11604201Y-3963603D01*
X11241685Y-4326120D01*
X11167361Y-4356906D01*
X11085469Y-4411625D01*
X11015825Y-4481269D01*
X10961106Y-4563161D01*
X10923415Y-4654155D01*
X10904200Y-4750754D01*
X10904200Y-4849246D01*
X10923415Y-4945845D01*
X10954201Y-5020168D01*
X10954200Y-6127905D01*
X10952024Y-6150000D01*
X10954200Y-6172094D01*
X10954200Y-6172104D01*
X10960711Y-6238214D01*
X10971282Y-6273061D01*
X10986443Y-6323040D01*
X11028229Y-6401216D01*
X11067185Y-6448684D01*
X11084463Y-6469737D01*
X11101634Y-6483829D01*
X11904201Y-7286397D01*
X11904200Y-8715026D01*
X10784200Y-7595027D01*
X10784200Y-5637106D01*
X10822575Y-5598731D01*
X10877294Y-5516839D01*
X10914985Y-5425845D01*
X10934200Y-5329246D01*
X10934200Y-5230754D01*
X10914985Y-5134155D01*
X10877294Y-5043161D01*
X10822575Y-4961269D01*
X10752931Y-4891625D01*
X10671039Y-4836906D01*
X10580045Y-4799215D01*
X10483446Y-4780000D01*
X10384954Y-4780000D01*
X10288355Y-4799215D01*
X10197361Y-4836906D01*
X10115469Y-4891625D01*
X10045825Y-4961269D01*
X9991106Y-5043161D01*
X9953415Y-5134155D01*
X9934200Y-5230754D01*
X9934200Y-5329246D01*
X9953415Y-5425845D01*
X9991106Y-5516839D01*
X10045825Y-5598731D01*
X10084200Y-5637106D01*
X10084200Y-5650741D01*
X10084201Y-5650751D01*
X10084200Y-7722812D01*
X10082507Y-7740000D01*
X10084200Y-7757188D01*
X10089265Y-7808611D01*
X10109278Y-7874586D01*
X10141778Y-7935389D01*
X10185515Y-7988684D01*
X10198876Y-7999649D01*
X11444201Y-9244976D01*
X11444200Y-10572815D01*
X11442507Y-10590004D01*
X11444200Y-10607192D01*
X11449265Y-10658615D01*
X11469278Y-10724590D01*
X11501778Y-10785393D01*
X11545515Y-10838688D01*
X11558876Y-10849653D01*
X11754218Y-11044996D01*
X11754218Y-11099268D01*
X11773433Y-11195867D01*
X11811124Y-11286861D01*
X11865843Y-11368753D01*
X11935487Y-11438397D01*
X12017379Y-11493116D01*
X12108373Y-11530807D01*
X12204972Y-11550022D01*
X12303464Y-11550022D01*
X12400063Y-11530807D01*
X12491057Y-11493116D01*
X12572949Y-11438397D01*
X12642593Y-11368753D01*
X12697312Y-11286861D01*
X12735003Y-11195867D01*
X12754218Y-11099268D01*
X12754218Y-11090614D01*
X12766176Y-11102572D01*
X12780263Y-11119737D01*
X12797428Y-11133824D01*
X12797432Y-11133828D01*
X12848783Y-11175971D01*
X12864944Y-11184609D01*
X12926959Y-11217757D01*
X13011785Y-11243489D01*
X13077895Y-11250000D01*
X13077907Y-11250000D01*
X13099999Y-11252176D01*
X13122091Y-11250000D01*
X14509471Y-11250000D01*
X14534966Y-11270923D01*
X14578396Y-11294137D01*
X14625522Y-11308432D01*
X14674530Y-11313259D01*
X15875000Y-11313259D01*
X15875000Y-11649246D01*
X15879816Y-11673459D01*
X15882235Y-11698016D01*
X15889399Y-11721631D01*
X15894215Y-11745845D01*
X15903662Y-11768651D01*
X15910825Y-11792266D01*
X15922459Y-11814031D01*
X15931906Y-11836839D01*
X15945620Y-11857363D01*
X15957254Y-11879129D01*
X15972913Y-11898209D01*
X15986625Y-11918731D01*
X16004075Y-11936181D01*
X16019736Y-11955264D01*
X16038819Y-11970925D01*
X16056269Y-11988375D01*
X16076791Y-12002087D01*
X16095871Y-12017746D01*
X16117638Y-12029381D01*
X16138161Y-12043094D01*
X16160965Y-12052540D01*
X16182733Y-12064175D01*
X16206352Y-12071340D01*
X16229155Y-12080785D01*
X16253366Y-12085601D01*
X16253852Y-12085748D01*
X16239141Y-12103674D01*
X16146231Y-12277496D01*
X16089018Y-12466104D01*
X16069699Y-12662250D01*
X16089018Y-12858396D01*
X16146231Y-13047004D01*
X16239141Y-13220826D01*
X16364177Y-13373183D01*
X16516534Y-13498219D01*
X16690356Y-13591129D01*
X16878964Y-13648342D01*
X17025959Y-13662820D01*
X17451455Y-13662820D01*
X17399986Y-13673058D01*
X17290793Y-13718287D01*
X17192522Y-13783950D01*
X17108950Y-13867522D01*
X17043287Y-13965793D01*
X16998058Y-14074986D01*
X16975000Y-14190905D01*
X16975000Y-14309095D01*
X16998058Y-14425014D01*
X17043287Y-14534207D01*
X17108950Y-14632478D01*
X17192522Y-14716050D01*
X17290793Y-14781713D01*
X17336077Y-14800470D01*
X15724530Y-14800470D01*
X15724530Y-14064712D01*
X15725979Y-14050000D01*
X15720196Y-13991282D01*
X15703068Y-13934820D01*
X15675255Y-13882785D01*
X15637824Y-13837176D01*
X15592215Y-13799745D01*
X15540180Y-13771932D01*
X15483718Y-13754804D01*
X15439712Y-13750470D01*
X15425000Y-13749021D01*
X15410288Y-13750470D01*
X14739712Y-13750470D01*
X14725000Y-13749021D01*
X14710288Y-13750470D01*
X14666282Y-13754804D01*
X14609820Y-13771932D01*
X14557785Y-13799745D01*
X14512176Y-13837176D01*
X14474745Y-13882785D01*
X14446932Y-13934820D01*
X14429804Y-13991282D01*
X14424021Y-14050000D01*
X14425470Y-14064713D01*
X14425471Y-14800470D01*
X10715711Y-14800470D01*
X10711122Y-14798727D01*
X10475082Y-14668222D01*
X10259896Y-14505598D01*
X10069913Y-14314142D01*
X9908951Y-14097702D01*
X9780272Y-13860661D01*
X9686457Y-13607779D01*
X9629401Y-13344160D01*
X9610000Y-13071558D01*
X9610000Y-10300750D01*
X9840000Y-10300750D01*
X9840000Y-10399242D01*
X9859215Y-10495841D01*
X9896906Y-10586835D01*
X9951625Y-10668727D01*
X9990000Y-10707102D01*
X9990000Y-10720737D01*
X9990001Y-10720747D01*
X9990000Y-11918629D01*
X9988307Y-11935818D01*
X9990000Y-11953006D01*
X9995065Y-12004429D01*
X10015078Y-12070404D01*
X10047578Y-12131207D01*
X10091315Y-12184502D01*
X10104676Y-12195467D01*
X11554182Y-13644975D01*
X11554182Y-13699246D01*
X11573397Y-13795845D01*
X11611088Y-13886839D01*
X11665807Y-13968731D01*
X11735451Y-14038375D01*
X11817343Y-14093094D01*
X11908337Y-14130785D01*
X12004936Y-14150000D01*
X12103428Y-14150000D01*
X12200027Y-14130785D01*
X12291021Y-14093094D01*
X12372913Y-14038375D01*
X12442557Y-13968731D01*
X12497276Y-13886839D01*
X12534967Y-13795845D01*
X12554182Y-13699246D01*
X12554182Y-13600754D01*
X12534967Y-13504155D01*
X12497276Y-13413161D01*
X12442557Y-13331269D01*
X12372913Y-13261625D01*
X12291021Y-13206906D01*
X12200027Y-13169215D01*
X12103428Y-13150000D01*
X12049157Y-13150000D01*
X10690000Y-11790845D01*
X10690000Y-10707102D01*
X10728375Y-10668727D01*
X10783094Y-10586835D01*
X10820785Y-10495841D01*
X10840000Y-10399242D01*
X10840000Y-10300750D01*
X10820785Y-10204151D01*
X10783094Y-10113157D01*
X10728375Y-10031265D01*
X10658731Y-9961621D01*
X10576839Y-9906902D01*
X10485845Y-9869211D01*
X10389246Y-9849996D01*
X10290754Y-9849996D01*
X10194155Y-9869211D01*
X10103161Y-9906902D01*
X10021269Y-9961621D01*
X9951625Y-10031265D01*
X9896906Y-10113157D01*
X9859215Y-10204151D01*
X9840000Y-10300750D01*
X9610000Y-10300750D01*
X9610000Y-828083D01*
X9629645Y-553777D01*
X9687416Y-288576D01*
X9782387Y-34323D01*
X9912626Y203812D01*
X10075463Y420943D01*
X10267592Y612666D01*
X10485076Y775048D01*
X10669616Y875470D01*
X14425471Y875470D01*
X14425470Y164713D01*
D23*
G04 #@! TO.N,Net-(P1-Pad1)*
G36*
X7446344Y464286D02*
X7654384Y270705D01*
X7828336Y52058D01*
X7967820Y-190038D01*
X8069732Y-450198D01*
X8131801Y-722624D01*
X8153000Y-1005993D01*
X8153000Y-13197517D01*
X8135740Y-13416828D01*
X8085550Y-13625885D01*
X8003272Y-13824520D01*
X7890941Y-14007828D01*
X7751312Y-14171312D01*
X7587828Y-14310941D01*
X7404520Y-14423272D01*
X7205885Y-14505550D01*
X6996828Y-14555740D01*
X6777517Y-14573000D01*
X6129028Y-14573000D01*
X5877383Y-14556302D01*
X5634278Y-14507331D01*
X5399776Y-14426669D01*
X5177983Y-14315727D01*
X4972803Y-14176459D01*
X4784674Y-14008489D01*
X3413722Y-12610656D01*
X3407636Y-12604849D01*
X3210080Y-12428461D01*
X3196820Y-12418115D01*
X2977689Y-12269378D01*
X2963180Y-12260875D01*
X2726318Y-12142395D01*
X2710812Y-12135884D01*
X2460372Y-12049740D01*
X2444142Y-12045335D01*
X2184515Y-11993036D01*
X2167845Y-11990814D01*
X1903585Y-11973279D01*
X1895176Y-11973000D01*
X774141Y-11973000D01*
X507978Y-11953968D01*
X251679Y-11898225D01*
X5921Y-11806582D01*
X-224295Y-11680904D01*
X-434293Y-11523744D01*
X-619786Y-11338310D01*
X-777010Y-11128364D01*
X-873470Y-10951801D01*
X-873470Y31641D01*
X-857036Y61754D01*
X-627000Y61754D01*
X-627000Y-61754D01*
X-602905Y-182889D01*
X-555640Y-296996D01*
X-487023Y-399689D01*
X-399689Y-487023D01*
X-296996Y-555640D01*
X-182889Y-602905D01*
X-61754Y-627000D01*
X61754Y-627000D01*
X182889Y-602905D01*
X296996Y-555640D01*
X399689Y-487023D01*
X487023Y-399689D01*
X555640Y-296996D01*
X602905Y-182889D01*
X627000Y-61754D01*
X627000Y61754D01*
X602905Y182889D01*
X555640Y296996D01*
X487023Y399689D01*
X399689Y487023D01*
X296996Y555640D01*
X182889Y602905D01*
X61754Y627000D01*
X-61754Y627000D01*
X-182889Y602905D01*
X-296996Y555640D01*
X-399689Y487023D01*
X-487023Y399689D01*
X-555640Y296996D01*
X-602905Y182889D01*
X-627000Y61754D01*
X-857036Y61754D01*
X-774971Y212122D01*
X-614851Y426100D01*
X-425913Y615098D01*
X-211995Y775278D01*
X-77986Y848470D01*
X6966114Y848470D01*
X7446344Y464286D01*
X7446344Y464286D01*
G37*
X7446344Y464286D02*
X7654384Y270705D01*
X7828336Y52058D01*
X7967820Y-190038D01*
X8069732Y-450198D01*
X8131801Y-722624D01*
X8153000Y-1005993D01*
X8153000Y-13197517D01*
X8135740Y-13416828D01*
X8085550Y-13625885D01*
X8003272Y-13824520D01*
X7890941Y-14007828D01*
X7751312Y-14171312D01*
X7587828Y-14310941D01*
X7404520Y-14423272D01*
X7205885Y-14505550D01*
X6996828Y-14555740D01*
X6777517Y-14573000D01*
X6129028Y-14573000D01*
X5877383Y-14556302D01*
X5634278Y-14507331D01*
X5399776Y-14426669D01*
X5177983Y-14315727D01*
X4972803Y-14176459D01*
X4784674Y-14008489D01*
X3413722Y-12610656D01*
X3407636Y-12604849D01*
X3210080Y-12428461D01*
X3196820Y-12418115D01*
X2977689Y-12269378D01*
X2963180Y-12260875D01*
X2726318Y-12142395D01*
X2710812Y-12135884D01*
X2460372Y-12049740D01*
X2444142Y-12045335D01*
X2184515Y-11993036D01*
X2167845Y-11990814D01*
X1903585Y-11973279D01*
X1895176Y-11973000D01*
X774141Y-11973000D01*
X507978Y-11953968D01*
X251679Y-11898225D01*
X5921Y-11806582D01*
X-224295Y-11680904D01*
X-434293Y-11523744D01*
X-619786Y-11338310D01*
X-777010Y-11128364D01*
X-873470Y-10951801D01*
X-873470Y31641D01*
X-857036Y61754D01*
X-627000Y61754D01*
X-627000Y-61754D01*
X-602905Y-182889D01*
X-555640Y-296996D01*
X-487023Y-399689D01*
X-399689Y-487023D01*
X-296996Y-555640D01*
X-182889Y-602905D01*
X-61754Y-627000D01*
X61754Y-627000D01*
X182889Y-602905D01*
X296996Y-555640D01*
X399689Y-487023D01*
X487023Y-399689D01*
X555640Y-296996D01*
X602905Y-182889D01*
X627000Y-61754D01*
X627000Y61754D01*
X602905Y182889D01*
X555640Y296996D01*
X487023Y399689D01*
X399689Y487023D01*
X296996Y555640D01*
X182889Y602905D01*
X61754Y627000D01*
X-61754Y627000D01*
X-182889Y602905D01*
X-296996Y555640D01*
X-399689Y487023D01*
X-487023Y399689D01*
X-555640Y296996D01*
X-602905Y182889D01*
X-627000Y61754D01*
X-857036Y61754D01*
X-774971Y212122D01*
X-614851Y426100D01*
X-425913Y615098D01*
X-211995Y775278D01*
X-77986Y848470D01*
X6966114Y848470D01*
X7446344Y464286D01*
G04 #@! TD*
M02*
