G04 #@! TF.GenerationSoftware,KiCad,Pcbnew,(5.0.1)-4*
G04 #@! TF.CreationDate,2019-05-22T10:47:43+02:00*
G04 #@! TF.ProjectId,nk-u2f,6E6B2D7532662E6B696361645F706362,R8*
G04 #@! TF.SameCoordinates,PX6e8e008PY57c9250*
G04 #@! TF.FileFunction,Paste,Top*
G04 #@! TF.FilePolarity,Positive*
%FSLAX46Y46*%
G04 Gerber Fmt 4.6, Leading zero omitted, Abs format (unit mm)*
G04 Created by KiCad (PCBNEW (5.0.1)-4) date 22.05.2019 10:47:43*
%MOMM*%
%LPD*%
G01*
G04 APERTURE LIST*
%ADD10C,0.300000*%
%ADD11R,0.340000X0.340000*%
%ADD12C,0.150000*%
%ADD13C,0.300000*%
%ADD14R,0.540000X0.540000*%
%ADD15R,0.500000X0.600000*%
%ADD16R,1.060000X0.650000*%
%ADD17R,0.250000X0.700000*%
%ADD18R,0.714000X0.498000*%
%ADD19R,0.300000X0.450000*%
%ADD20R,0.400000X0.600000*%
%ADD21R,0.600000X0.400000*%
%ADD22R,0.600000X0.500000*%
G04 APERTURE END LIST*
D10*
G04 #@! TO.C,REF\002A\002A*
X19875000Y-11250000D02*
G75*
G03X19875000Y-11250000I-100000J0D01*
G01*
X100000Y0D02*
G75*
G03X100000Y0I-100000J0D01*
G01*
G04 #@! TD*
D11*
G04 #@! TO.C,U1*
X10350000Y-8950000D03*
D12*
G36*
X10932351Y-8800361D02*
X10939632Y-8801441D01*
X10946771Y-8803229D01*
X10953701Y-8805709D01*
X10960355Y-8808856D01*
X10966668Y-8812640D01*
X10972579Y-8817024D01*
X10978033Y-8821967D01*
X10982976Y-8827421D01*
X10987360Y-8833332D01*
X10991144Y-8839645D01*
X10994291Y-8846299D01*
X10996771Y-8853229D01*
X10998559Y-8860368D01*
X10999639Y-8867649D01*
X11000000Y-8875000D01*
X11000000Y-9625000D01*
X10999639Y-9632351D01*
X10998559Y-9639632D01*
X10996771Y-9646771D01*
X10994291Y-9653701D01*
X10991144Y-9660355D01*
X10987360Y-9666668D01*
X10982976Y-9672579D01*
X10978033Y-9678033D01*
X10972579Y-9682976D01*
X10966668Y-9687360D01*
X10960355Y-9691144D01*
X10953701Y-9694291D01*
X10946771Y-9696771D01*
X10939632Y-9698559D01*
X10932351Y-9699639D01*
X10925000Y-9700000D01*
X10775000Y-9700000D01*
X10767649Y-9699639D01*
X10760368Y-9698559D01*
X10753229Y-9696771D01*
X10746299Y-9694291D01*
X10739645Y-9691144D01*
X10733332Y-9687360D01*
X10727421Y-9682976D01*
X10721967Y-9678033D01*
X10717024Y-9672579D01*
X10712640Y-9666668D01*
X10708856Y-9660355D01*
X10705709Y-9653701D01*
X10703229Y-9646771D01*
X10701441Y-9639632D01*
X10700361Y-9632351D01*
X10700000Y-9625000D01*
X10700000Y-8875000D01*
X10700361Y-8867649D01*
X10701441Y-8860368D01*
X10703229Y-8853229D01*
X10705709Y-8846299D01*
X10708856Y-8839645D01*
X10712640Y-8833332D01*
X10717024Y-8827421D01*
X10721967Y-8821967D01*
X10727421Y-8817024D01*
X10733332Y-8812640D01*
X10739645Y-8808856D01*
X10746299Y-8805709D01*
X10753229Y-8803229D01*
X10760368Y-8801441D01*
X10767649Y-8800361D01*
X10775000Y-8800000D01*
X10925000Y-8800000D01*
X10932351Y-8800361D01*
X10932351Y-8800361D01*
G37*
D13*
X10850000Y-9250000D03*
D12*
G36*
X11432351Y-8800361D02*
X11439632Y-8801441D01*
X11446771Y-8803229D01*
X11453701Y-8805709D01*
X11460355Y-8808856D01*
X11466668Y-8812640D01*
X11472579Y-8817024D01*
X11478033Y-8821967D01*
X11482976Y-8827421D01*
X11487360Y-8833332D01*
X11491144Y-8839645D01*
X11494291Y-8846299D01*
X11496771Y-8853229D01*
X11498559Y-8860368D01*
X11499639Y-8867649D01*
X11500000Y-8875000D01*
X11500000Y-9625000D01*
X11499639Y-9632351D01*
X11498559Y-9639632D01*
X11496771Y-9646771D01*
X11494291Y-9653701D01*
X11491144Y-9660355D01*
X11487360Y-9666668D01*
X11482976Y-9672579D01*
X11478033Y-9678033D01*
X11472579Y-9682976D01*
X11466668Y-9687360D01*
X11460355Y-9691144D01*
X11453701Y-9694291D01*
X11446771Y-9696771D01*
X11439632Y-9698559D01*
X11432351Y-9699639D01*
X11425000Y-9700000D01*
X11275000Y-9700000D01*
X11267649Y-9699639D01*
X11260368Y-9698559D01*
X11253229Y-9696771D01*
X11246299Y-9694291D01*
X11239645Y-9691144D01*
X11233332Y-9687360D01*
X11227421Y-9682976D01*
X11221967Y-9678033D01*
X11217024Y-9672579D01*
X11212640Y-9666668D01*
X11208856Y-9660355D01*
X11205709Y-9653701D01*
X11203229Y-9646771D01*
X11201441Y-9639632D01*
X11200361Y-9632351D01*
X11200000Y-9625000D01*
X11200000Y-8875000D01*
X11200361Y-8867649D01*
X11201441Y-8860368D01*
X11203229Y-8853229D01*
X11205709Y-8846299D01*
X11208856Y-8839645D01*
X11212640Y-8833332D01*
X11217024Y-8827421D01*
X11221967Y-8821967D01*
X11227421Y-8817024D01*
X11233332Y-8812640D01*
X11239645Y-8808856D01*
X11246299Y-8805709D01*
X11253229Y-8803229D01*
X11260368Y-8801441D01*
X11267649Y-8800361D01*
X11275000Y-8800000D01*
X11425000Y-8800000D01*
X11432351Y-8800361D01*
X11432351Y-8800361D01*
G37*
D13*
X11350000Y-9250000D03*
D12*
G36*
X11932351Y-8800361D02*
X11939632Y-8801441D01*
X11946771Y-8803229D01*
X11953701Y-8805709D01*
X11960355Y-8808856D01*
X11966668Y-8812640D01*
X11972579Y-8817024D01*
X11978033Y-8821967D01*
X11982976Y-8827421D01*
X11987360Y-8833332D01*
X11991144Y-8839645D01*
X11994291Y-8846299D01*
X11996771Y-8853229D01*
X11998559Y-8860368D01*
X11999639Y-8867649D01*
X12000000Y-8875000D01*
X12000000Y-9625000D01*
X11999639Y-9632351D01*
X11998559Y-9639632D01*
X11996771Y-9646771D01*
X11994291Y-9653701D01*
X11991144Y-9660355D01*
X11987360Y-9666668D01*
X11982976Y-9672579D01*
X11978033Y-9678033D01*
X11972579Y-9682976D01*
X11966668Y-9687360D01*
X11960355Y-9691144D01*
X11953701Y-9694291D01*
X11946771Y-9696771D01*
X11939632Y-9698559D01*
X11932351Y-9699639D01*
X11925000Y-9700000D01*
X11775000Y-9700000D01*
X11767649Y-9699639D01*
X11760368Y-9698559D01*
X11753229Y-9696771D01*
X11746299Y-9694291D01*
X11739645Y-9691144D01*
X11733332Y-9687360D01*
X11727421Y-9682976D01*
X11721967Y-9678033D01*
X11717024Y-9672579D01*
X11712640Y-9666668D01*
X11708856Y-9660355D01*
X11705709Y-9653701D01*
X11703229Y-9646771D01*
X11701441Y-9639632D01*
X11700361Y-9632351D01*
X11700000Y-9625000D01*
X11700000Y-8875000D01*
X11700361Y-8867649D01*
X11701441Y-8860368D01*
X11703229Y-8853229D01*
X11705709Y-8846299D01*
X11708856Y-8839645D01*
X11712640Y-8833332D01*
X11717024Y-8827421D01*
X11721967Y-8821967D01*
X11727421Y-8817024D01*
X11733332Y-8812640D01*
X11739645Y-8808856D01*
X11746299Y-8805709D01*
X11753229Y-8803229D01*
X11760368Y-8801441D01*
X11767649Y-8800361D01*
X11775000Y-8800000D01*
X11925000Y-8800000D01*
X11932351Y-8800361D01*
X11932351Y-8800361D01*
G37*
D13*
X11850000Y-9250000D03*
D12*
G36*
X12432351Y-8800361D02*
X12439632Y-8801441D01*
X12446771Y-8803229D01*
X12453701Y-8805709D01*
X12460355Y-8808856D01*
X12466668Y-8812640D01*
X12472579Y-8817024D01*
X12478033Y-8821967D01*
X12482976Y-8827421D01*
X12487360Y-8833332D01*
X12491144Y-8839645D01*
X12494291Y-8846299D01*
X12496771Y-8853229D01*
X12498559Y-8860368D01*
X12499639Y-8867649D01*
X12500000Y-8875000D01*
X12500000Y-9625000D01*
X12499639Y-9632351D01*
X12498559Y-9639632D01*
X12496771Y-9646771D01*
X12494291Y-9653701D01*
X12491144Y-9660355D01*
X12487360Y-9666668D01*
X12482976Y-9672579D01*
X12478033Y-9678033D01*
X12472579Y-9682976D01*
X12466668Y-9687360D01*
X12460355Y-9691144D01*
X12453701Y-9694291D01*
X12446771Y-9696771D01*
X12439632Y-9698559D01*
X12432351Y-9699639D01*
X12425000Y-9700000D01*
X12275000Y-9700000D01*
X12267649Y-9699639D01*
X12260368Y-9698559D01*
X12253229Y-9696771D01*
X12246299Y-9694291D01*
X12239645Y-9691144D01*
X12233332Y-9687360D01*
X12227421Y-9682976D01*
X12221967Y-9678033D01*
X12217024Y-9672579D01*
X12212640Y-9666668D01*
X12208856Y-9660355D01*
X12205709Y-9653701D01*
X12203229Y-9646771D01*
X12201441Y-9639632D01*
X12200361Y-9632351D01*
X12200000Y-9625000D01*
X12200000Y-8875000D01*
X12200361Y-8867649D01*
X12201441Y-8860368D01*
X12203229Y-8853229D01*
X12205709Y-8846299D01*
X12208856Y-8839645D01*
X12212640Y-8833332D01*
X12217024Y-8827421D01*
X12221967Y-8821967D01*
X12227421Y-8817024D01*
X12233332Y-8812640D01*
X12239645Y-8808856D01*
X12246299Y-8805709D01*
X12253229Y-8803229D01*
X12260368Y-8801441D01*
X12267649Y-8800361D01*
X12275000Y-8800000D01*
X12425000Y-8800000D01*
X12432351Y-8800361D01*
X12432351Y-8800361D01*
G37*
D13*
X12350000Y-9250000D03*
D11*
X12850000Y-8950000D03*
D12*
G36*
X13532351Y-8300361D02*
X13539632Y-8301441D01*
X13546771Y-8303229D01*
X13553701Y-8305709D01*
X13560355Y-8308856D01*
X13566668Y-8312640D01*
X13572579Y-8317024D01*
X13578033Y-8321967D01*
X13582976Y-8327421D01*
X13587360Y-8333332D01*
X13591144Y-8339645D01*
X13594291Y-8346299D01*
X13596771Y-8353229D01*
X13598559Y-8360368D01*
X13599639Y-8367649D01*
X13600000Y-8375000D01*
X13600000Y-8525000D01*
X13599639Y-8532351D01*
X13598559Y-8539632D01*
X13596771Y-8546771D01*
X13594291Y-8553701D01*
X13591144Y-8560355D01*
X13587360Y-8566668D01*
X13582976Y-8572579D01*
X13578033Y-8578033D01*
X13572579Y-8582976D01*
X13566668Y-8587360D01*
X13560355Y-8591144D01*
X13553701Y-8594291D01*
X13546771Y-8596771D01*
X13539632Y-8598559D01*
X13532351Y-8599639D01*
X13525000Y-8600000D01*
X12775000Y-8600000D01*
X12767649Y-8599639D01*
X12760368Y-8598559D01*
X12753229Y-8596771D01*
X12746299Y-8594291D01*
X12739645Y-8591144D01*
X12733332Y-8587360D01*
X12727421Y-8582976D01*
X12721967Y-8578033D01*
X12717024Y-8572579D01*
X12712640Y-8566668D01*
X12708856Y-8560355D01*
X12705709Y-8553701D01*
X12703229Y-8546771D01*
X12701441Y-8539632D01*
X12700361Y-8532351D01*
X12700000Y-8525000D01*
X12700000Y-8375000D01*
X12700361Y-8367649D01*
X12701441Y-8360368D01*
X12703229Y-8353229D01*
X12705709Y-8346299D01*
X12708856Y-8339645D01*
X12712640Y-8333332D01*
X12717024Y-8327421D01*
X12721967Y-8321967D01*
X12727421Y-8317024D01*
X12733332Y-8312640D01*
X12739645Y-8308856D01*
X12746299Y-8305709D01*
X12753229Y-8303229D01*
X12760368Y-8301441D01*
X12767649Y-8300361D01*
X12775000Y-8300000D01*
X13525000Y-8300000D01*
X13532351Y-8300361D01*
X13532351Y-8300361D01*
G37*
D13*
X13150000Y-8450000D03*
D12*
G36*
X13532351Y-7800361D02*
X13539632Y-7801441D01*
X13546771Y-7803229D01*
X13553701Y-7805709D01*
X13560355Y-7808856D01*
X13566668Y-7812640D01*
X13572579Y-7817024D01*
X13578033Y-7821967D01*
X13582976Y-7827421D01*
X13587360Y-7833332D01*
X13591144Y-7839645D01*
X13594291Y-7846299D01*
X13596771Y-7853229D01*
X13598559Y-7860368D01*
X13599639Y-7867649D01*
X13600000Y-7875000D01*
X13600000Y-8025000D01*
X13599639Y-8032351D01*
X13598559Y-8039632D01*
X13596771Y-8046771D01*
X13594291Y-8053701D01*
X13591144Y-8060355D01*
X13587360Y-8066668D01*
X13582976Y-8072579D01*
X13578033Y-8078033D01*
X13572579Y-8082976D01*
X13566668Y-8087360D01*
X13560355Y-8091144D01*
X13553701Y-8094291D01*
X13546771Y-8096771D01*
X13539632Y-8098559D01*
X13532351Y-8099639D01*
X13525000Y-8100000D01*
X12775000Y-8100000D01*
X12767649Y-8099639D01*
X12760368Y-8098559D01*
X12753229Y-8096771D01*
X12746299Y-8094291D01*
X12739645Y-8091144D01*
X12733332Y-8087360D01*
X12727421Y-8082976D01*
X12721967Y-8078033D01*
X12717024Y-8072579D01*
X12712640Y-8066668D01*
X12708856Y-8060355D01*
X12705709Y-8053701D01*
X12703229Y-8046771D01*
X12701441Y-8039632D01*
X12700361Y-8032351D01*
X12700000Y-8025000D01*
X12700000Y-7875000D01*
X12700361Y-7867649D01*
X12701441Y-7860368D01*
X12703229Y-7853229D01*
X12705709Y-7846299D01*
X12708856Y-7839645D01*
X12712640Y-7833332D01*
X12717024Y-7827421D01*
X12721967Y-7821967D01*
X12727421Y-7817024D01*
X12733332Y-7812640D01*
X12739645Y-7808856D01*
X12746299Y-7805709D01*
X12753229Y-7803229D01*
X12760368Y-7801441D01*
X12767649Y-7800361D01*
X12775000Y-7800000D01*
X13525000Y-7800000D01*
X13532351Y-7800361D01*
X13532351Y-7800361D01*
G37*
D13*
X13150000Y-7950000D03*
D12*
G36*
X13532351Y-7300361D02*
X13539632Y-7301441D01*
X13546771Y-7303229D01*
X13553701Y-7305709D01*
X13560355Y-7308856D01*
X13566668Y-7312640D01*
X13572579Y-7317024D01*
X13578033Y-7321967D01*
X13582976Y-7327421D01*
X13587360Y-7333332D01*
X13591144Y-7339645D01*
X13594291Y-7346299D01*
X13596771Y-7353229D01*
X13598559Y-7360368D01*
X13599639Y-7367649D01*
X13600000Y-7375000D01*
X13600000Y-7525000D01*
X13599639Y-7532351D01*
X13598559Y-7539632D01*
X13596771Y-7546771D01*
X13594291Y-7553701D01*
X13591144Y-7560355D01*
X13587360Y-7566668D01*
X13582976Y-7572579D01*
X13578033Y-7578033D01*
X13572579Y-7582976D01*
X13566668Y-7587360D01*
X13560355Y-7591144D01*
X13553701Y-7594291D01*
X13546771Y-7596771D01*
X13539632Y-7598559D01*
X13532351Y-7599639D01*
X13525000Y-7600000D01*
X12775000Y-7600000D01*
X12767649Y-7599639D01*
X12760368Y-7598559D01*
X12753229Y-7596771D01*
X12746299Y-7594291D01*
X12739645Y-7591144D01*
X12733332Y-7587360D01*
X12727421Y-7582976D01*
X12721967Y-7578033D01*
X12717024Y-7572579D01*
X12712640Y-7566668D01*
X12708856Y-7560355D01*
X12705709Y-7553701D01*
X12703229Y-7546771D01*
X12701441Y-7539632D01*
X12700361Y-7532351D01*
X12700000Y-7525000D01*
X12700000Y-7375000D01*
X12700361Y-7367649D01*
X12701441Y-7360368D01*
X12703229Y-7353229D01*
X12705709Y-7346299D01*
X12708856Y-7339645D01*
X12712640Y-7333332D01*
X12717024Y-7327421D01*
X12721967Y-7321967D01*
X12727421Y-7317024D01*
X12733332Y-7312640D01*
X12739645Y-7308856D01*
X12746299Y-7305709D01*
X12753229Y-7303229D01*
X12760368Y-7301441D01*
X12767649Y-7300361D01*
X12775000Y-7300000D01*
X13525000Y-7300000D01*
X13532351Y-7300361D01*
X13532351Y-7300361D01*
G37*
D13*
X13150000Y-7450000D03*
D12*
G36*
X13532351Y-6800361D02*
X13539632Y-6801441D01*
X13546771Y-6803229D01*
X13553701Y-6805709D01*
X13560355Y-6808856D01*
X13566668Y-6812640D01*
X13572579Y-6817024D01*
X13578033Y-6821967D01*
X13582976Y-6827421D01*
X13587360Y-6833332D01*
X13591144Y-6839645D01*
X13594291Y-6846299D01*
X13596771Y-6853229D01*
X13598559Y-6860368D01*
X13599639Y-6867649D01*
X13600000Y-6875000D01*
X13600000Y-7025000D01*
X13599639Y-7032351D01*
X13598559Y-7039632D01*
X13596771Y-7046771D01*
X13594291Y-7053701D01*
X13591144Y-7060355D01*
X13587360Y-7066668D01*
X13582976Y-7072579D01*
X13578033Y-7078033D01*
X13572579Y-7082976D01*
X13566668Y-7087360D01*
X13560355Y-7091144D01*
X13553701Y-7094291D01*
X13546771Y-7096771D01*
X13539632Y-7098559D01*
X13532351Y-7099639D01*
X13525000Y-7100000D01*
X12775000Y-7100000D01*
X12767649Y-7099639D01*
X12760368Y-7098559D01*
X12753229Y-7096771D01*
X12746299Y-7094291D01*
X12739645Y-7091144D01*
X12733332Y-7087360D01*
X12727421Y-7082976D01*
X12721967Y-7078033D01*
X12717024Y-7072579D01*
X12712640Y-7066668D01*
X12708856Y-7060355D01*
X12705709Y-7053701D01*
X12703229Y-7046771D01*
X12701441Y-7039632D01*
X12700361Y-7032351D01*
X12700000Y-7025000D01*
X12700000Y-6875000D01*
X12700361Y-6867649D01*
X12701441Y-6860368D01*
X12703229Y-6853229D01*
X12705709Y-6846299D01*
X12708856Y-6839645D01*
X12712640Y-6833332D01*
X12717024Y-6827421D01*
X12721967Y-6821967D01*
X12727421Y-6817024D01*
X12733332Y-6812640D01*
X12739645Y-6808856D01*
X12746299Y-6805709D01*
X12753229Y-6803229D01*
X12760368Y-6801441D01*
X12767649Y-6800361D01*
X12775000Y-6800000D01*
X13525000Y-6800000D01*
X13532351Y-6800361D01*
X13532351Y-6800361D01*
G37*
D13*
X13150000Y-6950000D03*
D11*
X12850000Y-6450000D03*
D12*
G36*
X12432351Y-5700361D02*
X12439632Y-5701441D01*
X12446771Y-5703229D01*
X12453701Y-5705709D01*
X12460355Y-5708856D01*
X12466668Y-5712640D01*
X12472579Y-5717024D01*
X12478033Y-5721967D01*
X12482976Y-5727421D01*
X12487360Y-5733332D01*
X12491144Y-5739645D01*
X12494291Y-5746299D01*
X12496771Y-5753229D01*
X12498559Y-5760368D01*
X12499639Y-5767649D01*
X12500000Y-5775000D01*
X12500000Y-6525000D01*
X12499639Y-6532351D01*
X12498559Y-6539632D01*
X12496771Y-6546771D01*
X12494291Y-6553701D01*
X12491144Y-6560355D01*
X12487360Y-6566668D01*
X12482976Y-6572579D01*
X12478033Y-6578033D01*
X12472579Y-6582976D01*
X12466668Y-6587360D01*
X12460355Y-6591144D01*
X12453701Y-6594291D01*
X12446771Y-6596771D01*
X12439632Y-6598559D01*
X12432351Y-6599639D01*
X12425000Y-6600000D01*
X12275000Y-6600000D01*
X12267649Y-6599639D01*
X12260368Y-6598559D01*
X12253229Y-6596771D01*
X12246299Y-6594291D01*
X12239645Y-6591144D01*
X12233332Y-6587360D01*
X12227421Y-6582976D01*
X12221967Y-6578033D01*
X12217024Y-6572579D01*
X12212640Y-6566668D01*
X12208856Y-6560355D01*
X12205709Y-6553701D01*
X12203229Y-6546771D01*
X12201441Y-6539632D01*
X12200361Y-6532351D01*
X12200000Y-6525000D01*
X12200000Y-5775000D01*
X12200361Y-5767649D01*
X12201441Y-5760368D01*
X12203229Y-5753229D01*
X12205709Y-5746299D01*
X12208856Y-5739645D01*
X12212640Y-5733332D01*
X12217024Y-5727421D01*
X12221967Y-5721967D01*
X12227421Y-5717024D01*
X12233332Y-5712640D01*
X12239645Y-5708856D01*
X12246299Y-5705709D01*
X12253229Y-5703229D01*
X12260368Y-5701441D01*
X12267649Y-5700361D01*
X12275000Y-5700000D01*
X12425000Y-5700000D01*
X12432351Y-5700361D01*
X12432351Y-5700361D01*
G37*
D13*
X12350000Y-6150000D03*
D12*
G36*
X11932351Y-5700361D02*
X11939632Y-5701441D01*
X11946771Y-5703229D01*
X11953701Y-5705709D01*
X11960355Y-5708856D01*
X11966668Y-5712640D01*
X11972579Y-5717024D01*
X11978033Y-5721967D01*
X11982976Y-5727421D01*
X11987360Y-5733332D01*
X11991144Y-5739645D01*
X11994291Y-5746299D01*
X11996771Y-5753229D01*
X11998559Y-5760368D01*
X11999639Y-5767649D01*
X12000000Y-5775000D01*
X12000000Y-6525000D01*
X11999639Y-6532351D01*
X11998559Y-6539632D01*
X11996771Y-6546771D01*
X11994291Y-6553701D01*
X11991144Y-6560355D01*
X11987360Y-6566668D01*
X11982976Y-6572579D01*
X11978033Y-6578033D01*
X11972579Y-6582976D01*
X11966668Y-6587360D01*
X11960355Y-6591144D01*
X11953701Y-6594291D01*
X11946771Y-6596771D01*
X11939632Y-6598559D01*
X11932351Y-6599639D01*
X11925000Y-6600000D01*
X11775000Y-6600000D01*
X11767649Y-6599639D01*
X11760368Y-6598559D01*
X11753229Y-6596771D01*
X11746299Y-6594291D01*
X11739645Y-6591144D01*
X11733332Y-6587360D01*
X11727421Y-6582976D01*
X11721967Y-6578033D01*
X11717024Y-6572579D01*
X11712640Y-6566668D01*
X11708856Y-6560355D01*
X11705709Y-6553701D01*
X11703229Y-6546771D01*
X11701441Y-6539632D01*
X11700361Y-6532351D01*
X11700000Y-6525000D01*
X11700000Y-5775000D01*
X11700361Y-5767649D01*
X11701441Y-5760368D01*
X11703229Y-5753229D01*
X11705709Y-5746299D01*
X11708856Y-5739645D01*
X11712640Y-5733332D01*
X11717024Y-5727421D01*
X11721967Y-5721967D01*
X11727421Y-5717024D01*
X11733332Y-5712640D01*
X11739645Y-5708856D01*
X11746299Y-5705709D01*
X11753229Y-5703229D01*
X11760368Y-5701441D01*
X11767649Y-5700361D01*
X11775000Y-5700000D01*
X11925000Y-5700000D01*
X11932351Y-5700361D01*
X11932351Y-5700361D01*
G37*
D13*
X11850000Y-6150000D03*
D12*
G36*
X11432351Y-5700361D02*
X11439632Y-5701441D01*
X11446771Y-5703229D01*
X11453701Y-5705709D01*
X11460355Y-5708856D01*
X11466668Y-5712640D01*
X11472579Y-5717024D01*
X11478033Y-5721967D01*
X11482976Y-5727421D01*
X11487360Y-5733332D01*
X11491144Y-5739645D01*
X11494291Y-5746299D01*
X11496771Y-5753229D01*
X11498559Y-5760368D01*
X11499639Y-5767649D01*
X11500000Y-5775000D01*
X11500000Y-6525000D01*
X11499639Y-6532351D01*
X11498559Y-6539632D01*
X11496771Y-6546771D01*
X11494291Y-6553701D01*
X11491144Y-6560355D01*
X11487360Y-6566668D01*
X11482976Y-6572579D01*
X11478033Y-6578033D01*
X11472579Y-6582976D01*
X11466668Y-6587360D01*
X11460355Y-6591144D01*
X11453701Y-6594291D01*
X11446771Y-6596771D01*
X11439632Y-6598559D01*
X11432351Y-6599639D01*
X11425000Y-6600000D01*
X11275000Y-6600000D01*
X11267649Y-6599639D01*
X11260368Y-6598559D01*
X11253229Y-6596771D01*
X11246299Y-6594291D01*
X11239645Y-6591144D01*
X11233332Y-6587360D01*
X11227421Y-6582976D01*
X11221967Y-6578033D01*
X11217024Y-6572579D01*
X11212640Y-6566668D01*
X11208856Y-6560355D01*
X11205709Y-6553701D01*
X11203229Y-6546771D01*
X11201441Y-6539632D01*
X11200361Y-6532351D01*
X11200000Y-6525000D01*
X11200000Y-5775000D01*
X11200361Y-5767649D01*
X11201441Y-5760368D01*
X11203229Y-5753229D01*
X11205709Y-5746299D01*
X11208856Y-5739645D01*
X11212640Y-5733332D01*
X11217024Y-5727421D01*
X11221967Y-5721967D01*
X11227421Y-5717024D01*
X11233332Y-5712640D01*
X11239645Y-5708856D01*
X11246299Y-5705709D01*
X11253229Y-5703229D01*
X11260368Y-5701441D01*
X11267649Y-5700361D01*
X11275000Y-5700000D01*
X11425000Y-5700000D01*
X11432351Y-5700361D01*
X11432351Y-5700361D01*
G37*
D13*
X11350000Y-6150000D03*
D12*
G36*
X10932351Y-5700361D02*
X10939632Y-5701441D01*
X10946771Y-5703229D01*
X10953701Y-5705709D01*
X10960355Y-5708856D01*
X10966668Y-5712640D01*
X10972579Y-5717024D01*
X10978033Y-5721967D01*
X10982976Y-5727421D01*
X10987360Y-5733332D01*
X10991144Y-5739645D01*
X10994291Y-5746299D01*
X10996771Y-5753229D01*
X10998559Y-5760368D01*
X10999639Y-5767649D01*
X11000000Y-5775000D01*
X11000000Y-6525000D01*
X10999639Y-6532351D01*
X10998559Y-6539632D01*
X10996771Y-6546771D01*
X10994291Y-6553701D01*
X10991144Y-6560355D01*
X10987360Y-6566668D01*
X10982976Y-6572579D01*
X10978033Y-6578033D01*
X10972579Y-6582976D01*
X10966668Y-6587360D01*
X10960355Y-6591144D01*
X10953701Y-6594291D01*
X10946771Y-6596771D01*
X10939632Y-6598559D01*
X10932351Y-6599639D01*
X10925000Y-6600000D01*
X10775000Y-6600000D01*
X10767649Y-6599639D01*
X10760368Y-6598559D01*
X10753229Y-6596771D01*
X10746299Y-6594291D01*
X10739645Y-6591144D01*
X10733332Y-6587360D01*
X10727421Y-6582976D01*
X10721967Y-6578033D01*
X10717024Y-6572579D01*
X10712640Y-6566668D01*
X10708856Y-6560355D01*
X10705709Y-6553701D01*
X10703229Y-6546771D01*
X10701441Y-6539632D01*
X10700361Y-6532351D01*
X10700000Y-6525000D01*
X10700000Y-5775000D01*
X10700361Y-5767649D01*
X10701441Y-5760368D01*
X10703229Y-5753229D01*
X10705709Y-5746299D01*
X10708856Y-5739645D01*
X10712640Y-5733332D01*
X10717024Y-5727421D01*
X10721967Y-5721967D01*
X10727421Y-5717024D01*
X10733332Y-5712640D01*
X10739645Y-5708856D01*
X10746299Y-5705709D01*
X10753229Y-5703229D01*
X10760368Y-5701441D01*
X10767649Y-5700361D01*
X10775000Y-5700000D01*
X10925000Y-5700000D01*
X10932351Y-5700361D01*
X10932351Y-5700361D01*
G37*
D13*
X10850000Y-6150000D03*
D11*
X10350000Y-6450000D03*
D12*
G36*
X10432351Y-6800361D02*
X10439632Y-6801441D01*
X10446771Y-6803229D01*
X10453701Y-6805709D01*
X10460355Y-6808856D01*
X10466668Y-6812640D01*
X10472579Y-6817024D01*
X10478033Y-6821967D01*
X10482976Y-6827421D01*
X10487360Y-6833332D01*
X10491144Y-6839645D01*
X10494291Y-6846299D01*
X10496771Y-6853229D01*
X10498559Y-6860368D01*
X10499639Y-6867649D01*
X10500000Y-6875000D01*
X10500000Y-7025000D01*
X10499639Y-7032351D01*
X10498559Y-7039632D01*
X10496771Y-7046771D01*
X10494291Y-7053701D01*
X10491144Y-7060355D01*
X10487360Y-7066668D01*
X10482976Y-7072579D01*
X10478033Y-7078033D01*
X10472579Y-7082976D01*
X10466668Y-7087360D01*
X10460355Y-7091144D01*
X10453701Y-7094291D01*
X10446771Y-7096771D01*
X10439632Y-7098559D01*
X10432351Y-7099639D01*
X10425000Y-7100000D01*
X9675000Y-7100000D01*
X9667649Y-7099639D01*
X9660368Y-7098559D01*
X9653229Y-7096771D01*
X9646299Y-7094291D01*
X9639645Y-7091144D01*
X9633332Y-7087360D01*
X9627421Y-7082976D01*
X9621967Y-7078033D01*
X9617024Y-7072579D01*
X9612640Y-7066668D01*
X9608856Y-7060355D01*
X9605709Y-7053701D01*
X9603229Y-7046771D01*
X9601441Y-7039632D01*
X9600361Y-7032351D01*
X9600000Y-7025000D01*
X9600000Y-6875000D01*
X9600361Y-6867649D01*
X9601441Y-6860368D01*
X9603229Y-6853229D01*
X9605709Y-6846299D01*
X9608856Y-6839645D01*
X9612640Y-6833332D01*
X9617024Y-6827421D01*
X9621967Y-6821967D01*
X9627421Y-6817024D01*
X9633332Y-6812640D01*
X9639645Y-6808856D01*
X9646299Y-6805709D01*
X9653229Y-6803229D01*
X9660368Y-6801441D01*
X9667649Y-6800361D01*
X9675000Y-6800000D01*
X10425000Y-6800000D01*
X10432351Y-6800361D01*
X10432351Y-6800361D01*
G37*
D13*
X10050000Y-6950000D03*
D12*
G36*
X10432351Y-7300361D02*
X10439632Y-7301441D01*
X10446771Y-7303229D01*
X10453701Y-7305709D01*
X10460355Y-7308856D01*
X10466668Y-7312640D01*
X10472579Y-7317024D01*
X10478033Y-7321967D01*
X10482976Y-7327421D01*
X10487360Y-7333332D01*
X10491144Y-7339645D01*
X10494291Y-7346299D01*
X10496771Y-7353229D01*
X10498559Y-7360368D01*
X10499639Y-7367649D01*
X10500000Y-7375000D01*
X10500000Y-7525000D01*
X10499639Y-7532351D01*
X10498559Y-7539632D01*
X10496771Y-7546771D01*
X10494291Y-7553701D01*
X10491144Y-7560355D01*
X10487360Y-7566668D01*
X10482976Y-7572579D01*
X10478033Y-7578033D01*
X10472579Y-7582976D01*
X10466668Y-7587360D01*
X10460355Y-7591144D01*
X10453701Y-7594291D01*
X10446771Y-7596771D01*
X10439632Y-7598559D01*
X10432351Y-7599639D01*
X10425000Y-7600000D01*
X9675000Y-7600000D01*
X9667649Y-7599639D01*
X9660368Y-7598559D01*
X9653229Y-7596771D01*
X9646299Y-7594291D01*
X9639645Y-7591144D01*
X9633332Y-7587360D01*
X9627421Y-7582976D01*
X9621967Y-7578033D01*
X9617024Y-7572579D01*
X9612640Y-7566668D01*
X9608856Y-7560355D01*
X9605709Y-7553701D01*
X9603229Y-7546771D01*
X9601441Y-7539632D01*
X9600361Y-7532351D01*
X9600000Y-7525000D01*
X9600000Y-7375000D01*
X9600361Y-7367649D01*
X9601441Y-7360368D01*
X9603229Y-7353229D01*
X9605709Y-7346299D01*
X9608856Y-7339645D01*
X9612640Y-7333332D01*
X9617024Y-7327421D01*
X9621967Y-7321967D01*
X9627421Y-7317024D01*
X9633332Y-7312640D01*
X9639645Y-7308856D01*
X9646299Y-7305709D01*
X9653229Y-7303229D01*
X9660368Y-7301441D01*
X9667649Y-7300361D01*
X9675000Y-7300000D01*
X10425000Y-7300000D01*
X10432351Y-7300361D01*
X10432351Y-7300361D01*
G37*
D13*
X10050000Y-7450000D03*
D12*
G36*
X10432351Y-7800361D02*
X10439632Y-7801441D01*
X10446771Y-7803229D01*
X10453701Y-7805709D01*
X10460355Y-7808856D01*
X10466668Y-7812640D01*
X10472579Y-7817024D01*
X10478033Y-7821967D01*
X10482976Y-7827421D01*
X10487360Y-7833332D01*
X10491144Y-7839645D01*
X10494291Y-7846299D01*
X10496771Y-7853229D01*
X10498559Y-7860368D01*
X10499639Y-7867649D01*
X10500000Y-7875000D01*
X10500000Y-8025000D01*
X10499639Y-8032351D01*
X10498559Y-8039632D01*
X10496771Y-8046771D01*
X10494291Y-8053701D01*
X10491144Y-8060355D01*
X10487360Y-8066668D01*
X10482976Y-8072579D01*
X10478033Y-8078033D01*
X10472579Y-8082976D01*
X10466668Y-8087360D01*
X10460355Y-8091144D01*
X10453701Y-8094291D01*
X10446771Y-8096771D01*
X10439632Y-8098559D01*
X10432351Y-8099639D01*
X10425000Y-8100000D01*
X9675000Y-8100000D01*
X9667649Y-8099639D01*
X9660368Y-8098559D01*
X9653229Y-8096771D01*
X9646299Y-8094291D01*
X9639645Y-8091144D01*
X9633332Y-8087360D01*
X9627421Y-8082976D01*
X9621967Y-8078033D01*
X9617024Y-8072579D01*
X9612640Y-8066668D01*
X9608856Y-8060355D01*
X9605709Y-8053701D01*
X9603229Y-8046771D01*
X9601441Y-8039632D01*
X9600361Y-8032351D01*
X9600000Y-8025000D01*
X9600000Y-7875000D01*
X9600361Y-7867649D01*
X9601441Y-7860368D01*
X9603229Y-7853229D01*
X9605709Y-7846299D01*
X9608856Y-7839645D01*
X9612640Y-7833332D01*
X9617024Y-7827421D01*
X9621967Y-7821967D01*
X9627421Y-7817024D01*
X9633332Y-7812640D01*
X9639645Y-7808856D01*
X9646299Y-7805709D01*
X9653229Y-7803229D01*
X9660368Y-7801441D01*
X9667649Y-7800361D01*
X9675000Y-7800000D01*
X10425000Y-7800000D01*
X10432351Y-7800361D01*
X10432351Y-7800361D01*
G37*
D13*
X10050000Y-7950000D03*
D12*
G36*
X10432351Y-8300361D02*
X10439632Y-8301441D01*
X10446771Y-8303229D01*
X10453701Y-8305709D01*
X10460355Y-8308856D01*
X10466668Y-8312640D01*
X10472579Y-8317024D01*
X10478033Y-8321967D01*
X10482976Y-8327421D01*
X10487360Y-8333332D01*
X10491144Y-8339645D01*
X10494291Y-8346299D01*
X10496771Y-8353229D01*
X10498559Y-8360368D01*
X10499639Y-8367649D01*
X10500000Y-8375000D01*
X10500000Y-8525000D01*
X10499639Y-8532351D01*
X10498559Y-8539632D01*
X10496771Y-8546771D01*
X10494291Y-8553701D01*
X10491144Y-8560355D01*
X10487360Y-8566668D01*
X10482976Y-8572579D01*
X10478033Y-8578033D01*
X10472579Y-8582976D01*
X10466668Y-8587360D01*
X10460355Y-8591144D01*
X10453701Y-8594291D01*
X10446771Y-8596771D01*
X10439632Y-8598559D01*
X10432351Y-8599639D01*
X10425000Y-8600000D01*
X9675000Y-8600000D01*
X9667649Y-8599639D01*
X9660368Y-8598559D01*
X9653229Y-8596771D01*
X9646299Y-8594291D01*
X9639645Y-8591144D01*
X9633332Y-8587360D01*
X9627421Y-8582976D01*
X9621967Y-8578033D01*
X9617024Y-8572579D01*
X9612640Y-8566668D01*
X9608856Y-8560355D01*
X9605709Y-8553701D01*
X9603229Y-8546771D01*
X9601441Y-8539632D01*
X9600361Y-8532351D01*
X9600000Y-8525000D01*
X9600000Y-8375000D01*
X9600361Y-8367649D01*
X9601441Y-8360368D01*
X9603229Y-8353229D01*
X9605709Y-8346299D01*
X9608856Y-8339645D01*
X9612640Y-8333332D01*
X9617024Y-8327421D01*
X9621967Y-8321967D01*
X9627421Y-8317024D01*
X9633332Y-8312640D01*
X9639645Y-8308856D01*
X9646299Y-8305709D01*
X9653229Y-8303229D01*
X9660368Y-8301441D01*
X9667649Y-8300361D01*
X9675000Y-8300000D01*
X10425000Y-8300000D01*
X10432351Y-8300361D01*
X10432351Y-8300361D01*
G37*
D13*
X10050000Y-8450000D03*
D14*
X11150000Y-7250000D03*
X11150000Y-8150000D03*
X12050000Y-8150000D03*
X12050000Y-7250000D03*
G04 #@! TD*
D15*
G04 #@! TO.C,C3*
X15500000Y-11850000D03*
X15500000Y-10750000D03*
G04 #@! TD*
D16*
G04 #@! TO.C,U2*
X10900000Y-11750000D03*
X10900000Y-12700000D03*
X10900000Y-13650000D03*
X13100000Y-13650000D03*
X13100000Y-11750000D03*
X13100000Y-12700000D03*
G04 #@! TD*
D17*
G04 #@! TO.C,U4*
X10850000Y0D03*
X10350000Y0D03*
X9850000Y0D03*
X9350000Y0D03*
X9350000Y-2800000D03*
X9850000Y-2800000D03*
X10350000Y-2800000D03*
X10850000Y-2800000D03*
D18*
X9505000Y-1815000D03*
X10695000Y-1815000D03*
X9505000Y-985000D03*
X10695000Y-985000D03*
G04 #@! TD*
D15*
G04 #@! TO.C,C2*
X14544200Y-11850000D03*
X14544200Y-10750000D03*
G04 #@! TD*
D19*
G04 #@! TO.C,U3*
X13954200Y-600000D03*
X12954200Y-600000D03*
X13954200Y-2000000D03*
X13454200Y-600000D03*
X12954200Y-2000000D03*
G04 #@! TD*
D20*
G04 #@! TO.C,R1*
X8704200Y-11700000D03*
X9604200Y-11700000D03*
G04 #@! TD*
D21*
G04 #@! TO.C,R2*
X9500000Y-12700000D03*
X9500000Y-13600000D03*
G04 #@! TD*
D20*
G04 #@! TO.C,R3*
X7404200Y-13700000D03*
X8304200Y-13700000D03*
G04 #@! TD*
D21*
G04 #@! TO.C,R4*
X14404200Y-8350000D03*
X14404200Y-7450000D03*
G04 #@! TD*
D20*
G04 #@! TO.C,R5*
X10954200Y-4100000D03*
X10054200Y-4100000D03*
G04 #@! TD*
D21*
G04 #@! TO.C,R7*
X12100000Y-3350000D03*
X12100000Y-4250000D03*
G04 #@! TD*
D15*
G04 #@! TO.C,C4*
X13254200Y-3250000D03*
X13254200Y-4350000D03*
G04 #@! TD*
G04 #@! TO.C,C1*
X12050000Y-1950000D03*
X12050000Y-850000D03*
G04 #@! TD*
D22*
G04 #@! TO.C,C5*
X14870400Y-2234900D03*
X15970400Y-2234900D03*
G04 #@! TD*
D20*
G04 #@! TO.C,R6*
X14874200Y-1320000D03*
X15774200Y-1320000D03*
G04 #@! TD*
M02*
