G04 #@! TF.GenerationSoftware,KiCad,Pcbnew,(5.0.1)-4*
G04 #@! TF.CreationDate,2019-04-02T18:22:59+02:00*
G04 #@! TF.ProjectId,nk-u2f,6E6B2D7532662E6B696361645F706362,R8*
G04 #@! TF.SameCoordinates,PX6e8e008PY57c9250*
G04 #@! TF.FileFunction,Soldermask,Bot*
G04 #@! TF.FilePolarity,Negative*
%FSLAX46Y46*%
G04 Gerber Fmt 4.6, Leading zero omitted, Abs format (unit mm)*
G04 Created by KiCad (PCBNEW (5.0.1)-4) date 02.04.2019 18:22:59*
%MOMM*%
%LPD*%
G01*
G04 APERTURE LIST*
%ADD10C,0.150000*%
G04 APERTURE END LIST*
D10*
G36*
X17720845Y-13769215D02*
X17811839Y-13806906D01*
X17893731Y-13861625D01*
X17963375Y-13931269D01*
X18018094Y-14013161D01*
X18055785Y-14104155D01*
X18075000Y-14200754D01*
X18075000Y-14299246D01*
X18055785Y-14395845D01*
X18018094Y-14486839D01*
X17963375Y-14568731D01*
X17893731Y-14638375D01*
X17811839Y-14693094D01*
X17720845Y-14730785D01*
X17624246Y-14750000D01*
X17525754Y-14750000D01*
X17429155Y-14730785D01*
X17338161Y-14693094D01*
X17256269Y-14638375D01*
X17186625Y-14568731D01*
X17131906Y-14486839D01*
X17094215Y-14395845D01*
X17075000Y-14299246D01*
X17075000Y-14200754D01*
X17094215Y-14104155D01*
X17131906Y-14013161D01*
X17186625Y-13931269D01*
X17256269Y-13861625D01*
X17338161Y-13806906D01*
X17429155Y-13769215D01*
X17525754Y-13750000D01*
X17624246Y-13750000D01*
X17720845Y-13769215D01*
X17720845Y-13769215D01*
G37*
G36*
X6500594Y899941D02*
X6500604Y899941D01*
X6635850Y886620D01*
X6735495Y876806D01*
X6961940Y808114D01*
X6963022Y807536D01*
X6963026Y807534D01*
X7169552Y697144D01*
X7170633Y696566D01*
X7353553Y546447D01*
X7614214Y285786D01*
X7786707Y89096D01*
X7932051Y-128427D01*
X8047759Y-363060D01*
X8131852Y-610789D01*
X8132009Y-611579D01*
X8132011Y-611586D01*
X8182731Y-866573D01*
X8182732Y-866581D01*
X8182890Y-867375D01*
X8200000Y-1128427D01*
X8200000Y-13200000D01*
X8178731Y-13443107D01*
X8115570Y-13678828D01*
X8115111Y-13679813D01*
X8115110Y-13679815D01*
X8012895Y-13899017D01*
X8012892Y-13899023D01*
X8012436Y-13900000D01*
X7872462Y-14099903D01*
X7699903Y-14272462D01*
X7500000Y-14412436D01*
X7499023Y-14412892D01*
X7499017Y-14412895D01*
X7279815Y-14515110D01*
X7279813Y-14515111D01*
X7278828Y-14515570D01*
X7125085Y-14556765D01*
X7044164Y-14578448D01*
X7044162Y-14578448D01*
X7043107Y-14578731D01*
X6800000Y-14600000D01*
X6228427Y-14600000D01*
X6040108Y-14587657D01*
X5968197Y-14582944D01*
X5968195Y-14582944D01*
X5967375Y-14582890D01*
X5966581Y-14582732D01*
X5966573Y-14582731D01*
X5711586Y-14532011D01*
X5711579Y-14532009D01*
X5710789Y-14531852D01*
X5463060Y-14447759D01*
X5228427Y-14332051D01*
X5010904Y-14186707D01*
X4814214Y-14014214D01*
X3386362Y-12586362D01*
X3385168Y-12585244D01*
X3190327Y-12414373D01*
X3187732Y-12412382D01*
X2972935Y-12268859D01*
X2970103Y-12267224D01*
X2738407Y-12152965D01*
X2735386Y-12151714D01*
X2557526Y-12091338D01*
X2490764Y-12068675D01*
X2487610Y-12067830D01*
X2234219Y-12017427D01*
X2230991Y-12017003D01*
X1972397Y-12000054D01*
X1970762Y-12000000D01*
X896662Y-12000000D01*
X616259Y-11977932D01*
X342761Y-11912271D01*
X82901Y-11804633D01*
X82057Y-11804116D01*
X-156080Y-11658186D01*
X-156086Y-11658182D01*
X-156921Y-11657670D01*
X-370800Y-11475000D01*
X-553490Y-11261116D01*
X-700491Y-11021298D01*
X-808188Y-10761445D01*
X-873931Y-10487949D01*
X-896104Y-10207538D01*
X-898110Y-5311960D01*
X-899775Y-1250821D01*
X-899775Y-1250000D01*
X-881090Y-1107664D01*
X-826194Y-975017D01*
X-773392Y-906171D01*
X-739828Y-862407D01*
X-739826Y-862405D01*
X-738829Y-861105D01*
X-679814Y-815805D01*
X-626258Y-774695D01*
X-626255Y-774694D01*
X-624952Y-773693D01*
X-623433Y-773064D01*
X-623432Y-773063D01*
X-493847Y-719372D01*
X-493844Y-719371D01*
X-492328Y-718743D01*
X-490703Y-718529D01*
X-490699Y-718528D01*
X-350805Y-700106D01*
X-350000Y-700000D01*
X-154785Y-700000D01*
X-152335Y-699880D01*
X-124767Y-697165D01*
X10517Y-683840D01*
X15323Y-682884D01*
X170733Y-635741D01*
X175261Y-633865D01*
X318484Y-557310D01*
X322559Y-554587D01*
X412489Y-480784D01*
X448098Y-451561D01*
X451562Y-448097D01*
X554587Y-322559D01*
X557310Y-318484D01*
X633865Y-175261D01*
X635741Y-170733D01*
X682884Y-15323D01*
X683840Y-10517D01*
X699880Y152334D01*
X700000Y154785D01*
X700000Y350000D01*
X718741Y492350D01*
X721910Y500000D01*
X773060Y623488D01*
X773686Y625000D01*
X861091Y738909D01*
X975000Y826314D01*
X1097189Y876926D01*
X1106138Y880633D01*
X1106140Y880634D01*
X1107650Y881259D01*
X1109273Y881473D01*
X1109274Y881473D01*
X1249193Y899894D01*
X1249197Y899894D01*
X1250000Y900000D01*
X6500000Y900000D01*
X6500594Y899941D01*
X6500594Y899941D01*
G37*
G36*
X1791600Y-14090300D02*
X1091600Y-14090300D01*
X1091600Y-13290300D01*
X1791600Y-13290300D01*
X1791600Y-14090300D01*
X1791600Y-14090300D01*
G37*
G36*
X691600Y-14090300D02*
X-8400Y-14090300D01*
X-8400Y-13290300D01*
X691600Y-13290300D01*
X691600Y-14090300D01*
X691600Y-14090300D01*
G37*
G36*
X19231029Y-11873264D02*
X19381937Y-11919042D01*
X19521015Y-11993380D01*
X19642917Y-12093423D01*
X19742960Y-12215325D01*
X19817298Y-12354403D01*
X19863076Y-12505311D01*
X19878533Y-12662250D01*
X19863076Y-12819189D01*
X19817298Y-12970097D01*
X19742960Y-13109175D01*
X19642917Y-13231077D01*
X19521015Y-13331120D01*
X19381937Y-13405458D01*
X19231029Y-13451236D01*
X19113414Y-13462820D01*
X17035786Y-13462820D01*
X16918171Y-13451236D01*
X16767263Y-13405458D01*
X16628185Y-13331120D01*
X16506283Y-13231077D01*
X16406240Y-13109175D01*
X16331902Y-12970097D01*
X16286124Y-12819189D01*
X16270667Y-12662250D01*
X16286124Y-12505311D01*
X16331902Y-12354403D01*
X16406240Y-12215325D01*
X16506283Y-12093423D01*
X16628185Y-11993380D01*
X16767263Y-11919042D01*
X16918171Y-11873264D01*
X17035786Y-11861680D01*
X19113414Y-11861680D01*
X19231029Y-11873264D01*
X19231029Y-11873264D01*
G37*
G36*
X16723510Y-11112050D02*
X14624530Y-11112050D01*
X14624530Y-9813170D01*
X16723510Y-9813170D01*
X16723510Y-11112050D01*
X16723510Y-11112050D01*
G37*
G36*
X18249587Y-8636074D02*
X18358764Y-8681296D01*
X18457021Y-8746949D01*
X18540581Y-8830509D01*
X18606234Y-8928766D01*
X18651456Y-9037943D01*
X18674510Y-9153844D01*
X18674510Y-9272016D01*
X18651456Y-9387917D01*
X18606234Y-9497094D01*
X18540581Y-9595351D01*
X18457021Y-9678911D01*
X18358764Y-9744564D01*
X18249587Y-9789786D01*
X18133686Y-9812840D01*
X18015514Y-9812840D01*
X17899613Y-9789786D01*
X17790436Y-9744564D01*
X17692179Y-9678911D01*
X17608619Y-9595351D01*
X17542966Y-9497094D01*
X17497744Y-9387917D01*
X17474690Y-9272016D01*
X17474690Y-9153844D01*
X17497744Y-9037943D01*
X17542966Y-8928766D01*
X17608619Y-8830509D01*
X17692179Y-8746949D01*
X17790436Y-8681296D01*
X17899613Y-8636074D01*
X18015514Y-8613020D01*
X18133686Y-8613020D01*
X18249587Y-8636074D01*
X18249587Y-8636074D01*
G37*
G36*
X16723510Y-8612690D02*
X14624530Y-8612690D01*
X14624530Y-7313810D01*
X16723510Y-7313810D01*
X16723510Y-8612690D01*
X16723510Y-8612690D01*
G37*
G36*
X16723510Y-6595930D02*
X14624530Y-6595930D01*
X14624530Y-5297050D01*
X16723510Y-5297050D01*
X16723510Y-6595930D01*
X16723510Y-6595930D01*
G37*
G36*
X18249587Y-4135194D02*
X18358764Y-4180416D01*
X18457021Y-4246069D01*
X18540581Y-4329629D01*
X18606234Y-4427886D01*
X18651456Y-4537063D01*
X18674510Y-4652964D01*
X18674510Y-4771136D01*
X18651456Y-4887037D01*
X18606234Y-4996214D01*
X18540581Y-5094471D01*
X18457021Y-5178031D01*
X18358764Y-5243684D01*
X18249587Y-5288906D01*
X18133686Y-5311960D01*
X18015514Y-5311960D01*
X17899613Y-5288906D01*
X17790436Y-5243684D01*
X17692179Y-5178031D01*
X17608619Y-5094471D01*
X17542966Y-4996214D01*
X17497744Y-4887037D01*
X17474690Y-4771136D01*
X17474690Y-4652964D01*
X17497744Y-4537063D01*
X17542966Y-4427886D01*
X17608619Y-4329629D01*
X17692179Y-4246069D01*
X17790436Y-4180416D01*
X17899613Y-4135194D01*
X18015514Y-4112140D01*
X18133686Y-4112140D01*
X18249587Y-4135194D01*
X18249587Y-4135194D01*
G37*
G36*
X16723510Y-4111810D02*
X14624530Y-4111810D01*
X14624530Y-2812930D01*
X16723510Y-2812930D01*
X16723510Y-4111810D01*
X16723510Y-4111810D01*
G37*
G36*
X19231029Y-473744D02*
X19381937Y-519522D01*
X19521015Y-593860D01*
X19642917Y-693903D01*
X19742960Y-815805D01*
X19817298Y-954883D01*
X19863076Y-1105791D01*
X19878533Y-1262730D01*
X19863076Y-1419669D01*
X19817298Y-1570577D01*
X19742960Y-1709655D01*
X19642917Y-1831557D01*
X19521015Y-1931600D01*
X19381937Y-2005938D01*
X19231029Y-2051716D01*
X19113414Y-2063300D01*
X17035786Y-2063300D01*
X16918171Y-2051716D01*
X16767263Y-2005938D01*
X16628185Y-1931600D01*
X16506283Y-1831557D01*
X16406240Y-1709655D01*
X16331902Y-1570577D01*
X16286124Y-1419669D01*
X16270667Y-1262730D01*
X16286124Y-1105791D01*
X16331902Y-954883D01*
X16406240Y-815805D01*
X16506283Y-693903D01*
X16628185Y-593860D01*
X16767263Y-519522D01*
X16918171Y-473744D01*
X17035786Y-462160D01*
X19113414Y-462160D01*
X19231029Y-473744D01*
X19231029Y-473744D01*
G37*
G36*
X145845Y480785D02*
X236839Y443094D01*
X318730Y388376D01*
X388376Y318730D01*
X410587Y285489D01*
X443094Y236839D01*
X480785Y145845D01*
X500000Y49246D01*
X500000Y-49246D01*
X480785Y-145845D01*
X443094Y-236839D01*
X388375Y-318731D01*
X318731Y-388375D01*
X236839Y-443094D01*
X145845Y-480785D01*
X49246Y-500000D01*
X-49246Y-500000D01*
X-145845Y-480785D01*
X-236839Y-443094D01*
X-318731Y-388375D01*
X-388375Y-318731D01*
X-443094Y-236839D01*
X-480785Y-145845D01*
X-500000Y-49246D01*
X-500000Y49246D01*
X-480785Y145845D01*
X-443094Y236839D01*
X-410587Y285489D01*
X-388376Y318730D01*
X-318730Y388376D01*
X-236839Y443094D01*
X-145845Y480785D01*
X-49246Y500000D01*
X49246Y500000D01*
X145845Y480785D01*
X145845Y480785D01*
G37*
M02*
