G04 #@! TF.GenerationSoftware,KiCad,Pcbnew,(5.0.1)-4*
G04 #@! TF.CreationDate,2018-12-21T18:47:33+01:00*
G04 #@! TF.ProjectId,nk-u2f,6E6B2D7532662E6B696361645F706362,R5*
G04 #@! TF.SameCoordinates,PX791ddc0PY5e69114*
G04 #@! TF.FileFunction,Soldermask,Bot*
G04 #@! TF.FilePolarity,Negative*
%FSLAX46Y46*%
G04 Gerber Fmt 4.6, Leading zero omitted, Abs format (unit mm)*
G04 Created by KiCad (PCBNEW (5.0.1)-4) date 21.12.2018 18:47:33*
%MOMM*%
%LPD*%
G01*
G04 APERTURE LIST*
%ADD10C,0.150000*%
G04 APERTURE END LIST*
D10*
G36*
X8170845Y-6872715D02*
X8261839Y-6910406D01*
X8343731Y-6965125D01*
X8413375Y-7034769D01*
X8468094Y-7116661D01*
X8505785Y-7207655D01*
X8525000Y-7304254D01*
X8525000Y-7402746D01*
X8505785Y-7499345D01*
X8468094Y-7590339D01*
X8413375Y-7672231D01*
X8343731Y-7741875D01*
X8261839Y-7796594D01*
X8170845Y-7834285D01*
X8074246Y-7853500D01*
X7975754Y-7853500D01*
X7879155Y-7834285D01*
X7788161Y-7796594D01*
X7706269Y-7741875D01*
X7636625Y-7672231D01*
X7581906Y-7590339D01*
X7544215Y-7499345D01*
X7525000Y-7402746D01*
X7525000Y-7304254D01*
X7544215Y-7207655D01*
X7581906Y-7116661D01*
X7636625Y-7034769D01*
X7706269Y-6965125D01*
X7788161Y-6910406D01*
X7879155Y-6872715D01*
X7975754Y-6853500D01*
X8074246Y-6853500D01*
X8170845Y-6872715D01*
X8170845Y-6872715D01*
G37*
G36*
X3315800Y-7720000D02*
X2715800Y-7720000D01*
X2715800Y-7020000D01*
X3315800Y-7020000D01*
X3315800Y-7720000D01*
X3315800Y-7720000D01*
G37*
G36*
X-551400Y-7436700D02*
X-1051400Y-7436700D01*
X-1051400Y-6736700D01*
X-551400Y-6736700D01*
X-551400Y-7436700D01*
X-551400Y-7436700D01*
G37*
G36*
X-1451400Y-7436700D02*
X-1951400Y-7436700D01*
X-1951400Y-6736700D01*
X-1451400Y-6736700D01*
X-1451400Y-7436700D01*
X-1451400Y-7436700D01*
G37*
G36*
X2387500Y-7428300D02*
X1637500Y-7428300D01*
X1637500Y-6268300D01*
X2387500Y-6268300D01*
X2387500Y-7428300D01*
X2387500Y-7428300D01*
G37*
G36*
X487500Y-7428300D02*
X-262500Y-7428300D01*
X-262500Y-6268300D01*
X487500Y-6268300D01*
X487500Y-7428300D01*
X487500Y-7428300D01*
G37*
G36*
X1437500Y-7428300D02*
X687500Y-7428300D01*
X687500Y-6268300D01*
X1437500Y-6268300D01*
X1437500Y-7428300D01*
X1437500Y-7428300D01*
G37*
G36*
X-9283400Y-7143800D02*
X-9983400Y-7143800D01*
X-9983400Y-6343800D01*
X-9283400Y-6343800D01*
X-9283400Y-7143800D01*
X-9283400Y-7143800D01*
G37*
G36*
X-10383400Y-7143800D02*
X-11083400Y-7143800D01*
X-11083400Y-6343800D01*
X-10383400Y-6343800D01*
X-10383400Y-7143800D01*
X-10383400Y-7143800D01*
G37*
G36*
X3315800Y-6620000D02*
X2715800Y-6620000D01*
X2715800Y-5920000D01*
X3315800Y-5920000D01*
X3315800Y-6620000D01*
X3315800Y-6620000D01*
G37*
G36*
X8156029Y-4926764D02*
X8306937Y-4972542D01*
X8446015Y-5046880D01*
X8567917Y-5146923D01*
X8667960Y-5268825D01*
X8742298Y-5407903D01*
X8788076Y-5558811D01*
X8803533Y-5715750D01*
X8788076Y-5872689D01*
X8742298Y-6023597D01*
X8667960Y-6162675D01*
X8567917Y-6284577D01*
X8446015Y-6384620D01*
X8306937Y-6458958D01*
X8156029Y-6504736D01*
X8038414Y-6516320D01*
X5960786Y-6516320D01*
X5843171Y-6504736D01*
X5692263Y-6458958D01*
X5553185Y-6384620D01*
X5431283Y-6284577D01*
X5331240Y-6162675D01*
X5256902Y-6023597D01*
X5211124Y-5872689D01*
X5195667Y-5715750D01*
X5211124Y-5558811D01*
X5256902Y-5407903D01*
X5331240Y-5268825D01*
X5431283Y-5146923D01*
X5553185Y-5046880D01*
X5692263Y-4972542D01*
X5843171Y-4926764D01*
X5960786Y-4915180D01*
X8038414Y-4915180D01*
X8156029Y-4926764D01*
X8156029Y-4926764D01*
G37*
G36*
X4585800Y-6259500D02*
X3985800Y-6259500D01*
X3985800Y-5559500D01*
X4585800Y-5559500D01*
X4585800Y-6259500D01*
X4585800Y-6259500D01*
G37*
G36*
X3375960Y-5693740D02*
X2675960Y-5693740D01*
X2675960Y-5193740D01*
X3375960Y-5193740D01*
X3375960Y-5693740D01*
X3375960Y-5693740D01*
G37*
G36*
X2387500Y-5228300D02*
X1637500Y-5228300D01*
X1637500Y-4068300D01*
X2387500Y-4068300D01*
X2387500Y-5228300D01*
X2387500Y-5228300D01*
G37*
G36*
X1437500Y-5228300D02*
X687500Y-5228300D01*
X687500Y-4068300D01*
X1437500Y-4068300D01*
X1437500Y-5228300D01*
X1437500Y-5228300D01*
G37*
G36*
X487500Y-5228300D02*
X-262500Y-5228300D01*
X-262500Y-4068300D01*
X487500Y-4068300D01*
X487500Y-5228300D01*
X487500Y-5228300D01*
G37*
G36*
X-1444200Y-5214200D02*
X-1944200Y-5214200D01*
X-1944200Y-4514200D01*
X-1444200Y-4514200D01*
X-1444200Y-5214200D01*
X-1444200Y-5214200D01*
G37*
G36*
X-544200Y-5214200D02*
X-1044200Y-5214200D01*
X-1044200Y-4514200D01*
X-544200Y-4514200D01*
X-544200Y-5214200D01*
X-544200Y-5214200D01*
G37*
G36*
X4585800Y-5159500D02*
X3985800Y-5159500D01*
X3985800Y-4459500D01*
X4585800Y-4459500D01*
X4585800Y-5159500D01*
X4585800Y-5159500D01*
G37*
G36*
X-5715108Y7834157D02*
X-5643197Y7829444D01*
X-5643195Y7829444D01*
X-5642375Y7829390D01*
X-5641581Y7829232D01*
X-5641573Y7829231D01*
X-5386586Y7778511D01*
X-5386579Y7778509D01*
X-5385789Y7778352D01*
X-5138060Y7694259D01*
X-4903427Y7578551D01*
X-4685904Y7433207D01*
X-4489214Y7260714D01*
X-4460786Y7232286D01*
X-4288293Y7035596D01*
X-4142949Y6818073D01*
X-4027241Y6583440D01*
X-3943148Y6335711D01*
X-3942991Y6334921D01*
X-3942989Y6334914D01*
X-3892269Y6079927D01*
X-3892268Y6079919D01*
X-3892110Y6079125D01*
X-3875000Y5818073D01*
X-3875000Y4475738D01*
X-3874946Y4474103D01*
X-3870849Y4411600D01*
X-3857998Y4215516D01*
X-3857573Y4212281D01*
X-3807171Y3958892D01*
X-3806324Y3955733D01*
X-3723286Y3711114D01*
X-3722035Y3708093D01*
X-3607776Y3476397D01*
X-3606141Y3473565D01*
X-3462618Y3258768D01*
X-3460627Y3256173D01*
X-3289756Y3061332D01*
X-3288638Y3060138D01*
X-2360786Y2132286D01*
X-2188293Y1935596D01*
X-2042949Y1718073D01*
X-1927241Y1483440D01*
X-1843148Y1235711D01*
X-1842991Y1234921D01*
X-1842989Y1234914D01*
X-1792269Y979927D01*
X-1792268Y979919D01*
X-1792110Y979125D01*
X-1775000Y718073D01*
X-1775000Y-1215042D01*
X-1775027Y-1215443D01*
X-1775027Y-1215456D01*
X-1785891Y-1379416D01*
X-1792484Y-1478919D01*
X-1792649Y-1479738D01*
X-1837515Y-1702806D01*
X-1844631Y-1738182D01*
X-1930529Y-1988298D01*
X-2048675Y-2224895D01*
X-2049144Y-2225587D01*
X-2049145Y-2225589D01*
X-2116843Y-2325514D01*
X-2197005Y-2443835D01*
X-2372925Y-2641291D01*
X-2373228Y-2641589D01*
X-2373231Y-2641592D01*
X-3020463Y-3277854D01*
X-4141357Y-4379749D01*
X-4378952Y-4579534D01*
X-4644601Y-4740146D01*
X-4931904Y-4857715D01*
X-5082922Y-4893562D01*
X-5232999Y-4929186D01*
X-5233004Y-4929187D01*
X-5233940Y-4929409D01*
X-5234899Y-4929484D01*
X-5234901Y-4929484D01*
X-5542964Y-4953464D01*
X-5542975Y-4953464D01*
X-5543432Y-4953500D01*
X-9448524Y-4953500D01*
X-9622421Y-4940596D01*
X-9742775Y-4931666D01*
X-9742778Y-4931666D01*
X-9743702Y-4931597D01*
X-10032415Y-4866370D01*
X-10308340Y-4759245D01*
X-10565433Y-4612570D01*
X-10608226Y-4578904D01*
X-10797696Y-4429846D01*
X-10797697Y-4429845D01*
X-10798062Y-4429558D01*
X-10984922Y-4258714D01*
X-11324228Y-3948492D01*
X-11324237Y-3948483D01*
X-11324538Y-3948208D01*
X-11515215Y-3747979D01*
X-11676454Y-3523366D01*
X-11805174Y-3278662D01*
X-11898916Y-3018544D01*
X-11935820Y-2843285D01*
X-11955710Y-2748829D01*
X-11955710Y-2748827D01*
X-11955888Y-2747983D01*
X-11975000Y-2472150D01*
X-11975000Y5696500D01*
X-11958994Y5818073D01*
X-11956473Y5837226D01*
X-11956473Y5837227D01*
X-11956259Y5838850D01*
X-11901314Y5971500D01*
X-11813909Y6085409D01*
X-11700000Y6172814D01*
X-11633675Y6200287D01*
X-11568862Y6227133D01*
X-11568860Y6227134D01*
X-11567350Y6227759D01*
X-11565727Y6227973D01*
X-11565726Y6227973D01*
X-11425807Y6246394D01*
X-11425803Y6246394D01*
X-11425000Y6246500D01*
X-11229785Y6246500D01*
X-11227335Y6246620D01*
X-11199767Y6249335D01*
X-11064483Y6262660D01*
X-11059677Y6263616D01*
X-10904267Y6310759D01*
X-10899739Y6312635D01*
X-10756516Y6389190D01*
X-10752441Y6391913D01*
X-10662511Y6465716D01*
X-10626902Y6494939D01*
X-10623438Y6498403D01*
X-10520413Y6623941D01*
X-10517690Y6628016D01*
X-10441135Y6771239D01*
X-10439259Y6775767D01*
X-10392116Y6931177D01*
X-10391160Y6935983D01*
X-10375120Y7098834D01*
X-10375000Y7101285D01*
X-10375000Y7296500D01*
X-10356259Y7438850D01*
X-10353090Y7446500D01*
X-10301940Y7569988D01*
X-10301314Y7571500D01*
X-10213909Y7685409D01*
X-10100000Y7772814D01*
X-10033675Y7800287D01*
X-9968862Y7827133D01*
X-9968860Y7827134D01*
X-9967350Y7827759D01*
X-9965727Y7827973D01*
X-9965726Y7827973D01*
X-9825807Y7846394D01*
X-9825803Y7846394D01*
X-9825000Y7846500D01*
X-5903427Y7846500D01*
X-5715108Y7834157D01*
X-5715108Y7834157D01*
G37*
G36*
X3375960Y-4793740D02*
X2675960Y-4793740D01*
X2675960Y-4293740D01*
X3375960Y-4293740D01*
X3375960Y-4793740D01*
X3375960Y-4793740D01*
G37*
G36*
X5648510Y-4165550D02*
X3549530Y-4165550D01*
X3549530Y-2866670D01*
X5648510Y-2866670D01*
X5648510Y-4165550D01*
X5648510Y-4165550D01*
G37*
G36*
X3124500Y-3867900D02*
X2424500Y-3867900D01*
X2424500Y-3367900D01*
X3124500Y-3367900D01*
X3124500Y-3867900D01*
X3124500Y-3867900D01*
G37*
G36*
X2057700Y-3867900D02*
X1357700Y-3867900D01*
X1357700Y-3367900D01*
X2057700Y-3367900D01*
X2057700Y-3867900D01*
X2057700Y-3867900D01*
G37*
G36*
X2057700Y-2967900D02*
X1357700Y-2967900D01*
X1357700Y-2467900D01*
X2057700Y-2467900D01*
X2057700Y-2967900D01*
X2057700Y-2967900D01*
G37*
G36*
X3124500Y-2967900D02*
X2424500Y-2967900D01*
X2424500Y-2467900D01*
X3124500Y-2467900D01*
X3124500Y-2967900D01*
X3124500Y-2967900D01*
G37*
G36*
X7174587Y-1689574D02*
X7283764Y-1734796D01*
X7382021Y-1800449D01*
X7465581Y-1884009D01*
X7531234Y-1982266D01*
X7576456Y-2091443D01*
X7599510Y-2207344D01*
X7599510Y-2325516D01*
X7576456Y-2441417D01*
X7531234Y-2550594D01*
X7465581Y-2648851D01*
X7382021Y-2732411D01*
X7283764Y-2798064D01*
X7174587Y-2843286D01*
X7058686Y-2866340D01*
X6940514Y-2866340D01*
X6824613Y-2843286D01*
X6715436Y-2798064D01*
X6617179Y-2732411D01*
X6533619Y-2648851D01*
X6467966Y-2550594D01*
X6422744Y-2441417D01*
X6399690Y-2325516D01*
X6399690Y-2207344D01*
X6422744Y-2091443D01*
X6467966Y-1982266D01*
X6533619Y-1884009D01*
X6617179Y-1800449D01*
X6715436Y-1734796D01*
X6824613Y-1689574D01*
X6940514Y-1666520D01*
X7058686Y-1666520D01*
X7174587Y-1689574D01*
X7174587Y-1689574D01*
G37*
G36*
X-5694Y-1136033D02*
X27293Y-1146039D01*
X57695Y-1162289D01*
X84342Y-1184158D01*
X106211Y-1210805D01*
X122461Y-1241207D01*
X132467Y-1274194D01*
X135000Y-1299911D01*
X135000Y-1677089D01*
X132467Y-1702806D01*
X122461Y-1735793D01*
X106211Y-1766195D01*
X97594Y-1776694D01*
X84345Y-1792839D01*
X80025Y-1796384D01*
X57694Y-1814711D01*
X27292Y-1830961D01*
X-5695Y-1840967D01*
X-40000Y-1844346D01*
X-74306Y-1840967D01*
X-107293Y-1830961D01*
X-137695Y-1814711D01*
X-148194Y-1806094D01*
X-164339Y-1792845D01*
X-167884Y-1788525D01*
X-186211Y-1766194D01*
X-202461Y-1735792D01*
X-212467Y-1702805D01*
X-215000Y-1677088D01*
X-214999Y-1299911D01*
X-212466Y-1274194D01*
X-202460Y-1241207D01*
X-186210Y-1210805D01*
X-164341Y-1184158D01*
X-137694Y-1162289D01*
X-107292Y-1146039D01*
X-74305Y-1136033D01*
X-40000Y-1132654D01*
X-5694Y-1136033D01*
X-5694Y-1136033D01*
G37*
G36*
X494306Y-1136033D02*
X527293Y-1146039D01*
X557695Y-1162289D01*
X584342Y-1184158D01*
X606211Y-1210805D01*
X622461Y-1241207D01*
X632467Y-1274194D01*
X635000Y-1299911D01*
X635000Y-1677089D01*
X632467Y-1702806D01*
X622461Y-1735793D01*
X606211Y-1766195D01*
X597594Y-1776694D01*
X584345Y-1792839D01*
X580025Y-1796384D01*
X557694Y-1814711D01*
X527292Y-1830961D01*
X494305Y-1840967D01*
X460000Y-1844346D01*
X425694Y-1840967D01*
X392707Y-1830961D01*
X362305Y-1814711D01*
X351806Y-1806094D01*
X335661Y-1792845D01*
X332116Y-1788525D01*
X313789Y-1766194D01*
X297539Y-1735792D01*
X287533Y-1702805D01*
X285000Y-1677088D01*
X285001Y-1299911D01*
X287534Y-1274194D01*
X297540Y-1241207D01*
X313790Y-1210805D01*
X335659Y-1184158D01*
X362306Y-1162289D01*
X392708Y-1146039D01*
X425695Y-1136033D01*
X460000Y-1132654D01*
X494306Y-1136033D01*
X494306Y-1136033D01*
G37*
G36*
X1024306Y-1136033D02*
X1057293Y-1146039D01*
X1087695Y-1162289D01*
X1114342Y-1184158D01*
X1136211Y-1210805D01*
X1152461Y-1241207D01*
X1162467Y-1274194D01*
X1165000Y-1299911D01*
X1165000Y-1677089D01*
X1162467Y-1702806D01*
X1152461Y-1735793D01*
X1136211Y-1766195D01*
X1127594Y-1776694D01*
X1114345Y-1792839D01*
X1110025Y-1796384D01*
X1087694Y-1814711D01*
X1057292Y-1830961D01*
X1024305Y-1840967D01*
X990000Y-1844346D01*
X955694Y-1840967D01*
X922707Y-1830961D01*
X892305Y-1814711D01*
X881806Y-1806094D01*
X865661Y-1792845D01*
X862116Y-1788525D01*
X843789Y-1766194D01*
X827539Y-1735792D01*
X817533Y-1702805D01*
X815000Y-1677088D01*
X815001Y-1299911D01*
X817534Y-1274194D01*
X827540Y-1241207D01*
X843790Y-1210805D01*
X865659Y-1184158D01*
X892306Y-1162289D01*
X922708Y-1146039D01*
X955695Y-1136033D01*
X990000Y-1132654D01*
X1024306Y-1136033D01*
X1024306Y-1136033D01*
G37*
G36*
X1524306Y-1136033D02*
X1557293Y-1146039D01*
X1587695Y-1162289D01*
X1614342Y-1184158D01*
X1636211Y-1210805D01*
X1652461Y-1241207D01*
X1662467Y-1274194D01*
X1665000Y-1299911D01*
X1665000Y-1677089D01*
X1662467Y-1702806D01*
X1652461Y-1735793D01*
X1636211Y-1766195D01*
X1627594Y-1776694D01*
X1614345Y-1792839D01*
X1610025Y-1796384D01*
X1587694Y-1814711D01*
X1557292Y-1830961D01*
X1524305Y-1840967D01*
X1490000Y-1844346D01*
X1455694Y-1840967D01*
X1422707Y-1830961D01*
X1392305Y-1814711D01*
X1381806Y-1806094D01*
X1365661Y-1792845D01*
X1362116Y-1788525D01*
X1343789Y-1766194D01*
X1327539Y-1735792D01*
X1317533Y-1702805D01*
X1315000Y-1677088D01*
X1315001Y-1299911D01*
X1317534Y-1274194D01*
X1327540Y-1241207D01*
X1343790Y-1210805D01*
X1365659Y-1184158D01*
X1392306Y-1162289D01*
X1422708Y-1146039D01*
X1455695Y-1136033D01*
X1490000Y-1132654D01*
X1524306Y-1136033D01*
X1524306Y-1136033D01*
G37*
G36*
X5648510Y-1666190D02*
X3549530Y-1666190D01*
X3549530Y-367310D01*
X5648510Y-367310D01*
X5648510Y-1666190D01*
X5648510Y-1666190D01*
G37*
G36*
X-320000Y-1638500D02*
X-760000Y-1638500D01*
X-760000Y-1198500D01*
X-320000Y-1198500D01*
X-320000Y-1638500D01*
X-320000Y-1638500D01*
G37*
G36*
X2210000Y-1638500D02*
X1770000Y-1638500D01*
X1770000Y-1198500D01*
X2210000Y-1198500D01*
X2210000Y-1638500D01*
X2210000Y-1638500D01*
G37*
G36*
X-395694Y-746033D02*
X-362707Y-756039D01*
X-332305Y-772289D01*
X-305658Y-794158D01*
X-283789Y-820805D01*
X-267539Y-851207D01*
X-257533Y-884194D01*
X-254154Y-918500D01*
X-257533Y-952806D01*
X-267539Y-985793D01*
X-283789Y-1016195D01*
X-305658Y-1042842D01*
X-332305Y-1064711D01*
X-362707Y-1080961D01*
X-395694Y-1090967D01*
X-421411Y-1093500D01*
X-798589Y-1093500D01*
X-824306Y-1090967D01*
X-857293Y-1080961D01*
X-887695Y-1064711D01*
X-914342Y-1042842D01*
X-936211Y-1016195D01*
X-952461Y-985793D01*
X-962467Y-952806D01*
X-965846Y-918500D01*
X-962467Y-884194D01*
X-952461Y-851207D01*
X-936211Y-820805D01*
X-914342Y-794158D01*
X-887695Y-772289D01*
X-857293Y-756039D01*
X-824306Y-746033D01*
X-798589Y-743500D01*
X-421411Y-743500D01*
X-395694Y-746033D01*
X-395694Y-746033D01*
G37*
G36*
X2274306Y-746033D02*
X2307293Y-756039D01*
X2337695Y-772289D01*
X2364342Y-794158D01*
X2386211Y-820805D01*
X2402461Y-851207D01*
X2412467Y-884194D01*
X2415846Y-918500D01*
X2412467Y-952806D01*
X2402461Y-985793D01*
X2386211Y-1016195D01*
X2364342Y-1042842D01*
X2337695Y-1064711D01*
X2307293Y-1080961D01*
X2274306Y-1090967D01*
X2248589Y-1093500D01*
X1871411Y-1093500D01*
X1845694Y-1090967D01*
X1812707Y-1080961D01*
X1782305Y-1064711D01*
X1755658Y-1042842D01*
X1733789Y-1016195D01*
X1717539Y-985793D01*
X1707533Y-952806D01*
X1704154Y-918500D01*
X1707533Y-884194D01*
X1717539Y-851207D01*
X1733789Y-820805D01*
X1755658Y-794158D01*
X1782305Y-772289D01*
X1812707Y-756039D01*
X1845694Y-746033D01*
X1871411Y-743500D01*
X2248589Y-743500D01*
X2274306Y-746033D01*
X2274306Y-746033D01*
G37*
G36*
X3391200Y-1048500D02*
X2691200Y-1048500D01*
X2691200Y-548500D01*
X3391200Y-548500D01*
X3391200Y-1048500D01*
X3391200Y-1048500D01*
G37*
G36*
X1525000Y-953500D02*
X-75000Y-953500D01*
X-75000Y646500D01*
X1525000Y646500D01*
X1525000Y-953500D01*
X1525000Y-953500D01*
G37*
G36*
X-395694Y-246033D02*
X-362707Y-256039D01*
X-332305Y-272289D01*
X-305658Y-294158D01*
X-283789Y-320805D01*
X-267539Y-351207D01*
X-257533Y-384194D01*
X-254154Y-418500D01*
X-257533Y-452806D01*
X-267539Y-485793D01*
X-283789Y-516195D01*
X-305658Y-542842D01*
X-332305Y-564711D01*
X-362707Y-580961D01*
X-395694Y-590967D01*
X-421411Y-593500D01*
X-798589Y-593500D01*
X-824306Y-590967D01*
X-857293Y-580961D01*
X-887695Y-564711D01*
X-914342Y-542842D01*
X-936211Y-516195D01*
X-952461Y-485793D01*
X-962467Y-452806D01*
X-965846Y-418500D01*
X-962467Y-384194D01*
X-952461Y-351207D01*
X-936211Y-320805D01*
X-914342Y-294158D01*
X-887695Y-272289D01*
X-857293Y-256039D01*
X-824306Y-246033D01*
X-798589Y-243500D01*
X-421411Y-243500D01*
X-395694Y-246033D01*
X-395694Y-246033D01*
G37*
G36*
X2274306Y-246033D02*
X2307293Y-256039D01*
X2337695Y-272289D01*
X2364342Y-294158D01*
X2386211Y-320805D01*
X2402461Y-351207D01*
X2412467Y-384194D01*
X2415846Y-418500D01*
X2412467Y-452806D01*
X2402461Y-485793D01*
X2386211Y-516195D01*
X2364342Y-542842D01*
X2337695Y-564711D01*
X2307293Y-580961D01*
X2274306Y-590967D01*
X2248589Y-593500D01*
X1871411Y-593500D01*
X1845694Y-590967D01*
X1812707Y-580961D01*
X1782305Y-564711D01*
X1755658Y-542842D01*
X1733789Y-516195D01*
X1717539Y-485793D01*
X1707533Y-452806D01*
X1704154Y-418500D01*
X1707533Y-384194D01*
X1717539Y-351207D01*
X1733789Y-320805D01*
X1755658Y-294158D01*
X1782305Y-272289D01*
X1812707Y-256039D01*
X1845694Y-246033D01*
X1871411Y-243500D01*
X2248589Y-243500D01*
X2274306Y-246033D01*
X2274306Y-246033D01*
G37*
G36*
X3391200Y-148500D02*
X2691200Y-148500D01*
X2691200Y351500D01*
X3391200Y351500D01*
X3391200Y-148500D01*
X3391200Y-148500D01*
G37*
G36*
X-395694Y274967D02*
X-362707Y264961D01*
X-332305Y248711D01*
X-305658Y226842D01*
X-283789Y200195D01*
X-267539Y169793D01*
X-257533Y136806D01*
X-254154Y102500D01*
X-257533Y68194D01*
X-267539Y35207D01*
X-283789Y4805D01*
X-305658Y-21842D01*
X-332305Y-43711D01*
X-362707Y-59961D01*
X-395694Y-69967D01*
X-421411Y-72500D01*
X-798589Y-72500D01*
X-824306Y-69967D01*
X-857293Y-59961D01*
X-887695Y-43711D01*
X-914342Y-21842D01*
X-936211Y4805D01*
X-952461Y35207D01*
X-962467Y68194D01*
X-965846Y102500D01*
X-962467Y136806D01*
X-952461Y169793D01*
X-936211Y200195D01*
X-914342Y226842D01*
X-887695Y248711D01*
X-857293Y264961D01*
X-824306Y274967D01*
X-798589Y277500D01*
X-421411Y277500D01*
X-395694Y274967D01*
X-395694Y274967D01*
G37*
G36*
X2274306Y283967D02*
X2307293Y273961D01*
X2337695Y257711D01*
X2364342Y235842D01*
X2386211Y209195D01*
X2402461Y178793D01*
X2412467Y145806D01*
X2415846Y111500D01*
X2412467Y77194D01*
X2402461Y44207D01*
X2386211Y13805D01*
X2364342Y-12842D01*
X2337695Y-34711D01*
X2307293Y-50961D01*
X2274306Y-60967D01*
X2248589Y-63500D01*
X1871411Y-63500D01*
X1845694Y-60967D01*
X1812707Y-50961D01*
X1782305Y-34711D01*
X1755658Y-12842D01*
X1733789Y13805D01*
X1717539Y44207D01*
X1707533Y77194D01*
X1704154Y111500D01*
X1707533Y145806D01*
X1717539Y178793D01*
X1733789Y209195D01*
X1755658Y235842D01*
X1782305Y257711D01*
X1812707Y273961D01*
X1845694Y283967D01*
X1871411Y286500D01*
X2248589Y286500D01*
X2274306Y283967D01*
X2274306Y283967D01*
G37*
G36*
X5648510Y350570D02*
X3549530Y350570D01*
X3549530Y1649450D01*
X5648510Y1649450D01*
X5648510Y350570D01*
X5648510Y350570D01*
G37*
G36*
X-395694Y783967D02*
X-362707Y773961D01*
X-332305Y757711D01*
X-305658Y735842D01*
X-283789Y709195D01*
X-267539Y678793D01*
X-257533Y645806D01*
X-254154Y611500D01*
X-257533Y577194D01*
X-267539Y544207D01*
X-283789Y513805D01*
X-305658Y487158D01*
X-332305Y465289D01*
X-362707Y449039D01*
X-395694Y439033D01*
X-421411Y436500D01*
X-798589Y436500D01*
X-824306Y439033D01*
X-857293Y449039D01*
X-887695Y465289D01*
X-914342Y487158D01*
X-936211Y513805D01*
X-952461Y544207D01*
X-962467Y577194D01*
X-965846Y611500D01*
X-962467Y645806D01*
X-952461Y678793D01*
X-936211Y709195D01*
X-914342Y735842D01*
X-887695Y757711D01*
X-857293Y773961D01*
X-824306Y783967D01*
X-798589Y786500D01*
X-421411Y786500D01*
X-395694Y783967D01*
X-395694Y783967D01*
G37*
G36*
X2274306Y783967D02*
X2307293Y773961D01*
X2337695Y757711D01*
X2364342Y735842D01*
X2386211Y709195D01*
X2402461Y678793D01*
X2412467Y645806D01*
X2415846Y611500D01*
X2412467Y577194D01*
X2402461Y544207D01*
X2386211Y513805D01*
X2364342Y487158D01*
X2337695Y465289D01*
X2307293Y449039D01*
X2274306Y439033D01*
X2248589Y436500D01*
X1871411Y436500D01*
X1845694Y439033D01*
X1812707Y449039D01*
X1782305Y465289D01*
X1755658Y487158D01*
X1733789Y513805D01*
X1717539Y544207D01*
X1707533Y577194D01*
X1704154Y611500D01*
X1707533Y645806D01*
X1717539Y678793D01*
X1733789Y709195D01*
X1755658Y735842D01*
X1782305Y757711D01*
X1812707Y773961D01*
X1845694Y783967D01*
X1871411Y786500D01*
X2248589Y786500D01*
X2274306Y783967D01*
X2274306Y783967D01*
G37*
G36*
X1494306Y1553967D02*
X1527293Y1543961D01*
X1557695Y1527711D01*
X1584342Y1505842D01*
X1606211Y1479195D01*
X1622461Y1448793D01*
X1632467Y1415806D01*
X1635000Y1390089D01*
X1635000Y1012911D01*
X1632467Y987194D01*
X1622461Y954207D01*
X1606211Y923805D01*
X1597594Y913306D01*
X1584345Y897161D01*
X1580025Y893616D01*
X1557694Y875289D01*
X1527292Y859039D01*
X1494305Y849033D01*
X1460000Y845654D01*
X1425694Y849033D01*
X1392707Y859039D01*
X1362305Y875289D01*
X1351806Y883906D01*
X1335661Y897155D01*
X1332116Y901475D01*
X1313789Y923806D01*
X1297539Y954208D01*
X1287533Y987195D01*
X1285000Y1012912D01*
X1285001Y1390089D01*
X1287534Y1415806D01*
X1297540Y1448793D01*
X1313790Y1479195D01*
X1335659Y1505842D01*
X1362306Y1527711D01*
X1392708Y1543961D01*
X1425695Y1553967D01*
X1460000Y1557346D01*
X1494306Y1553967D01*
X1494306Y1553967D01*
G37*
G36*
X1024306Y1553967D02*
X1057293Y1543961D01*
X1087695Y1527711D01*
X1114342Y1505842D01*
X1136211Y1479195D01*
X1152461Y1448793D01*
X1162467Y1415806D01*
X1165000Y1390089D01*
X1165000Y1012911D01*
X1162467Y987194D01*
X1152461Y954207D01*
X1136211Y923805D01*
X1127594Y913306D01*
X1114345Y897161D01*
X1110025Y893616D01*
X1087694Y875289D01*
X1057292Y859039D01*
X1024305Y849033D01*
X990000Y845654D01*
X955694Y849033D01*
X922707Y859039D01*
X892305Y875289D01*
X881806Y883906D01*
X865661Y897155D01*
X862116Y901475D01*
X843789Y923806D01*
X827539Y954208D01*
X817533Y987195D01*
X815000Y1012912D01*
X815001Y1390089D01*
X817534Y1415806D01*
X827540Y1448793D01*
X843790Y1479195D01*
X865659Y1505842D01*
X892306Y1527711D01*
X922708Y1543961D01*
X955695Y1553967D01*
X990000Y1557346D01*
X1024306Y1553967D01*
X1024306Y1553967D01*
G37*
G36*
X494306Y1553967D02*
X527293Y1543961D01*
X557695Y1527711D01*
X584342Y1505842D01*
X606211Y1479195D01*
X622461Y1448793D01*
X632467Y1415806D01*
X635000Y1390089D01*
X635000Y1012911D01*
X632467Y987194D01*
X622461Y954207D01*
X606211Y923805D01*
X597594Y913306D01*
X584345Y897161D01*
X580025Y893616D01*
X557694Y875289D01*
X527292Y859039D01*
X494305Y849033D01*
X460000Y845654D01*
X425694Y849033D01*
X392707Y859039D01*
X362305Y875289D01*
X351806Y883906D01*
X335661Y897155D01*
X332116Y901475D01*
X313789Y923806D01*
X297539Y954208D01*
X287533Y987195D01*
X285000Y1012912D01*
X285001Y1390089D01*
X287534Y1415806D01*
X297540Y1448793D01*
X313790Y1479195D01*
X335659Y1505842D01*
X362306Y1527711D01*
X392708Y1543961D01*
X425695Y1553967D01*
X460000Y1557346D01*
X494306Y1553967D01*
X494306Y1553967D01*
G37*
G36*
X-5694Y1553967D02*
X27293Y1543961D01*
X57695Y1527711D01*
X84342Y1505842D01*
X106211Y1479195D01*
X122461Y1448793D01*
X132467Y1415806D01*
X135000Y1390089D01*
X135000Y1012911D01*
X132467Y987194D01*
X122461Y954207D01*
X106211Y923805D01*
X97594Y913306D01*
X84345Y897161D01*
X80025Y893616D01*
X57694Y875289D01*
X27292Y859039D01*
X-5695Y849033D01*
X-40000Y845654D01*
X-74306Y849033D01*
X-107293Y859039D01*
X-137695Y875289D01*
X-148194Y883906D01*
X-164339Y897155D01*
X-167884Y901475D01*
X-186211Y923806D01*
X-202461Y954208D01*
X-212467Y987195D01*
X-215000Y1012912D01*
X-214999Y1390089D01*
X-212466Y1415806D01*
X-202460Y1448793D01*
X-186210Y1479195D01*
X-164341Y1505842D01*
X-137694Y1527711D01*
X-107292Y1543961D01*
X-74305Y1553967D01*
X-40000Y1557346D01*
X-5694Y1553967D01*
X-5694Y1553967D01*
G37*
G36*
X-320000Y891500D02*
X-760000Y891500D01*
X-760000Y1331500D01*
X-320000Y1331500D01*
X-320000Y891500D01*
X-320000Y891500D01*
G37*
G36*
X2210000Y891500D02*
X1770000Y891500D01*
X1770000Y1331500D01*
X2210000Y1331500D01*
X2210000Y891500D01*
X2210000Y891500D01*
G37*
G36*
X3427560Y1396060D02*
X2827560Y1396060D01*
X2827560Y2096060D01*
X3427560Y2096060D01*
X3427560Y1396060D01*
X3427560Y1396060D01*
G37*
G36*
X7174587Y2811306D02*
X7283764Y2766084D01*
X7382021Y2700431D01*
X7465581Y2616871D01*
X7531234Y2518614D01*
X7576456Y2409437D01*
X7599510Y2293536D01*
X7599510Y2175364D01*
X7576456Y2059463D01*
X7531234Y1950286D01*
X7465581Y1852029D01*
X7382021Y1768469D01*
X7283764Y1702816D01*
X7174587Y1657594D01*
X7058686Y1634540D01*
X6940514Y1634540D01*
X6824613Y1657594D01*
X6715436Y1702816D01*
X6617179Y1768469D01*
X6533619Y1852029D01*
X6467966Y1950286D01*
X6422744Y2059463D01*
X6399690Y2175364D01*
X6399690Y2293536D01*
X6422744Y2409437D01*
X6467966Y2518614D01*
X6533619Y2616871D01*
X6617179Y2700431D01*
X6715436Y2766084D01*
X6824613Y2811306D01*
X6940514Y2834360D01*
X7058686Y2834360D01*
X7174587Y2811306D01*
X7174587Y2811306D01*
G37*
G36*
X3427560Y2496060D02*
X2827560Y2496060D01*
X2827560Y3196060D01*
X3427560Y3196060D01*
X3427560Y2496060D01*
X3427560Y2496060D01*
G37*
G36*
X5648510Y2834690D02*
X3549530Y2834690D01*
X3549530Y4133570D01*
X5648510Y4133570D01*
X5648510Y2834690D01*
X5648510Y2834690D01*
G37*
G36*
X-1267600Y3813300D02*
X-1617600Y3813300D01*
X-1617600Y4613300D01*
X-1267600Y4613300D01*
X-1267600Y3813300D01*
X-1267600Y3813300D01*
G37*
G36*
X232400Y3813300D02*
X-117600Y3813300D01*
X-117600Y4613300D01*
X232400Y4613300D01*
X232400Y3813300D01*
X232400Y3813300D01*
G37*
G36*
X-267600Y3813300D02*
X-617600Y3813300D01*
X-617600Y4613300D01*
X-267600Y4613300D01*
X-267600Y3813300D01*
X-267600Y3813300D01*
G37*
G36*
X-767600Y3813300D02*
X-1117600Y3813300D01*
X-1117600Y4613300D01*
X-767600Y4613300D01*
X-767600Y3813300D01*
X-767600Y3813300D01*
G37*
G36*
X5245400Y4411600D02*
X4545400Y4411600D01*
X4545400Y5011600D01*
X5245400Y5011600D01*
X5245400Y4411600D01*
X5245400Y4411600D01*
G37*
G36*
X4145400Y4411600D02*
X3445400Y4411600D01*
X3445400Y5011600D01*
X4145400Y5011600D01*
X4145400Y4411600D01*
X4145400Y4411600D01*
G37*
G36*
X2979200Y4600200D02*
X2579200Y4600200D01*
X2579200Y5150200D01*
X2979200Y5150200D01*
X2979200Y4600200D01*
X2979200Y4600200D01*
G37*
G36*
X1979200Y4600200D02*
X1579200Y4600200D01*
X1579200Y5150200D01*
X1979200Y5150200D01*
X1979200Y4600200D01*
X1979200Y4600200D01*
G37*
G36*
X-2145200Y4713300D02*
X-2745200Y4713300D01*
X-2745200Y5413300D01*
X-2145200Y5413300D01*
X-2145200Y4713300D01*
X-2145200Y4713300D01*
G37*
G36*
X547400Y4733300D02*
X-1932600Y4733300D01*
X-1932600Y6493300D01*
X547400Y6493300D01*
X547400Y4733300D01*
X547400Y4733300D01*
G37*
G36*
X8156029Y6472756D02*
X8306937Y6426978D01*
X8446015Y6352640D01*
X8567917Y6252597D01*
X8667960Y6130695D01*
X8742298Y5991617D01*
X8788076Y5840709D01*
X8803533Y5683770D01*
X8788076Y5526831D01*
X8742298Y5375923D01*
X8667960Y5236845D01*
X8567917Y5114943D01*
X8446015Y5014900D01*
X8306937Y4940562D01*
X8156029Y4894784D01*
X8038414Y4883200D01*
X5960786Y4883200D01*
X5843171Y4894784D01*
X5692263Y4940562D01*
X5553185Y5014900D01*
X5431283Y5114943D01*
X5331240Y5236845D01*
X5256902Y5375923D01*
X5211124Y5526831D01*
X5195667Y5683770D01*
X5211124Y5840709D01*
X5256902Y5991617D01*
X5331240Y6130695D01*
X5431283Y6252597D01*
X5553185Y6352640D01*
X5692263Y6426978D01*
X5843171Y6472756D01*
X5960786Y6484340D01*
X8038414Y6484340D01*
X8156029Y6472756D01*
X8156029Y6472756D01*
G37*
G36*
X4067600Y5276000D02*
X3567600Y5276000D01*
X3567600Y5976000D01*
X4067600Y5976000D01*
X4067600Y5276000D01*
X4067600Y5276000D01*
G37*
G36*
X4967600Y5276000D02*
X4467600Y5276000D01*
X4467600Y5976000D01*
X4967600Y5976000D01*
X4967600Y5276000D01*
X4967600Y5276000D01*
G37*
G36*
X-2145200Y5813300D02*
X-2745200Y5813300D01*
X-2745200Y6513300D01*
X-2145200Y6513300D01*
X-2145200Y5813300D01*
X-2145200Y5813300D01*
G37*
G36*
X2979200Y6000200D02*
X2579200Y6000200D01*
X2579200Y6550200D01*
X2979200Y6550200D01*
X2979200Y6000200D01*
X2979200Y6000200D01*
G37*
G36*
X2479200Y6000200D02*
X2079200Y6000200D01*
X2079200Y6550200D01*
X2479200Y6550200D01*
X2479200Y6000200D01*
X2479200Y6000200D01*
G37*
G36*
X1979200Y6000200D02*
X1579200Y6000200D01*
X1579200Y6550200D01*
X1979200Y6550200D01*
X1979200Y6000200D01*
X1979200Y6000200D01*
G37*
G36*
X-10929155Y7427285D02*
X-10838161Y7389594D01*
X-10756270Y7334876D01*
X-10686624Y7265230D01*
X-10664413Y7231989D01*
X-10631906Y7183339D01*
X-10594215Y7092345D01*
X-10575000Y6995746D01*
X-10575000Y6897254D01*
X-10594215Y6800655D01*
X-10631906Y6709661D01*
X-10686625Y6627769D01*
X-10756269Y6558125D01*
X-10838161Y6503406D01*
X-10929155Y6465715D01*
X-11025754Y6446500D01*
X-11124246Y6446500D01*
X-11220845Y6465715D01*
X-11311839Y6503406D01*
X-11393731Y6558125D01*
X-11463375Y6627769D01*
X-11518094Y6709661D01*
X-11555785Y6800655D01*
X-11575000Y6897254D01*
X-11575000Y6995746D01*
X-11555785Y7092345D01*
X-11518094Y7183339D01*
X-11485587Y7231989D01*
X-11463376Y7265230D01*
X-11393730Y7334876D01*
X-11311839Y7389594D01*
X-11220845Y7427285D01*
X-11124246Y7446500D01*
X-11025754Y7446500D01*
X-10929155Y7427285D01*
X-10929155Y7427285D01*
G37*
G36*
X232400Y6613300D02*
X-117600Y6613300D01*
X-117600Y7413300D01*
X232400Y7413300D01*
X232400Y6613300D01*
X232400Y6613300D01*
G37*
G36*
X-267600Y6613300D02*
X-617600Y6613300D01*
X-617600Y7413300D01*
X-267600Y7413300D01*
X-267600Y6613300D01*
X-267600Y6613300D01*
G37*
G36*
X-767600Y6613300D02*
X-1117600Y6613300D01*
X-1117600Y7413300D01*
X-767600Y7413300D01*
X-767600Y6613300D01*
X-767600Y6613300D01*
G37*
G36*
X-1267600Y6613300D02*
X-1617600Y6613300D01*
X-1617600Y7413300D01*
X-1267600Y7413300D01*
X-1267600Y6613300D01*
X-1267600Y6613300D01*
G37*
M02*
