G04 #@! TF.GenerationSoftware,KiCad,Pcbnew,(5.0.1)-4*
G04 #@! TF.CreationDate,2018-12-21T18:47:33+01:00*
G04 #@! TF.ProjectId,nk-u2f,6E6B2D7532662E6B696361645F706362,R5*
G04 #@! TF.SameCoordinates,PX791ddc0PY5e69114*
G04 #@! TF.FileFunction,Copper,L1,Top,Signal*
G04 #@! TF.FilePolarity,Positive*
%FSLAX46Y46*%
G04 Gerber Fmt 4.6, Leading zero omitted, Abs format (unit mm)*
G04 Created by KiCad (PCBNEW (5.0.1)-4) date 21.12.2018 18:47:33*
%MOMM*%
%LPD*%
G01*
G04 APERTURE LIST*
G04 #@! TA.AperFunction,ComponentPad*
%ADD10C,1.099820*%
G04 #@! TD*
G04 #@! TA.AperFunction,ComponentPad*
%ADD11O,3.500120X1.501140*%
G04 #@! TD*
G04 #@! TA.AperFunction,BGAPad,CuDef*
%ADD12C,1.800000*%
G04 #@! TD*
G04 #@! TA.AperFunction,ViaPad*
%ADD13C,0.500000*%
G04 #@! TD*
G04 #@! TA.AperFunction,Conductor*
%ADD14C,0.500000*%
G04 #@! TD*
G04 #@! TA.AperFunction,Conductor*
%ADD15C,0.150000*%
G04 #@! TD*
G04 #@! TA.AperFunction,Conductor*
%ADD16C,0.254000*%
G04 #@! TD*
G04 APERTURE END LIST*
D10*
G04 #@! TO.P,J1,8*
G04 #@! TO.N,N/C*
X6999600Y2234450D03*
G04 #@! TO.P,J1,7*
X6999600Y-2266430D03*
D11*
G04 #@! TO.P,J1,6*
G04 #@! TO.N,Net-(C5-Pad1)*
X6999600Y-5715750D03*
G04 #@! TO.P,J1,5*
X6999600Y5683770D03*
G04 #@! TD*
D12*
G04 #@! TO.P,TP1,1*
G04 #@! TO.N,/GND*
X6970000Y3866500D03*
G04 #@! TD*
G04 #@! TO.P,TP5,1*
G04 #@! TO.N,/C2CK*
X8240000Y1326500D03*
G04 #@! TD*
G04 #@! TO.P,TP2,1*
G04 #@! TO.N,/HD+*
X5700000Y1326500D03*
G04 #@! TD*
G04 #@! TO.P,TP3,1*
G04 #@! TO.N,/HD-*
X5700000Y-1213500D03*
G04 #@! TD*
G04 #@! TO.P,TP6,1*
G04 #@! TO.N,/C2D*
X8240000Y-1213500D03*
G04 #@! TD*
G04 #@! TO.P,TP4,1*
G04 #@! TO.N,/+5V*
X6970000Y-3753500D03*
G04 #@! TD*
D13*
G04 #@! TO.N,/+5V*
X3147880Y680620D03*
X5428800Y-4622900D03*
G04 #@! TO.N,/C2CK*
X7003602Y101500D03*
G04 #@! TO.N,/C2D*
X8068090Y-2654400D03*
G04 #@! TO.N,/HD+*
X1853305Y4089775D03*
X4278210Y2120800D03*
G04 #@! TO.N,/HD-*
X2529430Y4094134D03*
X3968300Y554D03*
G04 #@! TO.N,/Button*
X-552900Y1701700D03*
X1199700Y-5918288D03*
G04 #@! TO.N,/SDA*
X642900Y4314514D03*
X1738210Y-2197192D03*
G04 #@! TO.N,/SCL*
X2418900Y-2171800D03*
X662948Y3662795D03*
G04 #@! TO.N,/LED*
X-11589200Y-6743800D03*
X-558583Y-2204217D03*
G04 #@! TO.N,/GND*
X3714300Y-5372200D03*
X-420330Y2338039D03*
X7918000Y2832000D03*
X463100Y1981100D03*
X725000Y-153500D03*
X2343923Y-5918338D03*
X6965500Y-7429600D03*
X7016300Y7124600D03*
X920300Y5562500D03*
G04 #@! TO.N,/Button_reset*
X-44900Y-3048100D03*
X-667200Y-6312000D03*
G04 #@! TD*
D14*
G04 #@! TO.N,/+5V*
X3147880Y327067D02*
X3147880Y680620D01*
X3147880Y-1935580D02*
X3147880Y327067D01*
X4965800Y-3753500D02*
X3147880Y-1935580D01*
X6970000Y-3753500D02*
X4965800Y-3753500D01*
X5428800Y-3772000D02*
X5428800Y-4622900D01*
X6415700Y-3772000D02*
X5428800Y-3772000D01*
X6970000Y-4326300D02*
X6415700Y-3772000D01*
X6970000Y-3753500D02*
X6970000Y-4326300D01*
D15*
G04 #@! TO.N,/C2CK*
X7562402Y660300D02*
X7422702Y520600D01*
X7848602Y946500D02*
X7562402Y660300D01*
D14*
X7562402Y660300D02*
X7573800Y660300D01*
X7573800Y660300D02*
X8240000Y1326500D01*
X7422702Y520600D02*
X7003602Y101500D01*
D15*
X8525000Y946500D02*
X7848602Y946500D01*
G04 #@! TO.N,/C2D*
X8525000Y-1053500D02*
X8235500Y-1343000D01*
D14*
X8068090Y-2644010D02*
X8068090Y-2654400D01*
X8235500Y-2476600D02*
X8068090Y-2644010D01*
X8235500Y-1343000D02*
X8235500Y-2476600D01*
D16*
G04 #@! TO.N,/HD+*
X5175000Y1000010D02*
X5175000Y1218900D01*
D15*
X4278210Y2153790D02*
X4278210Y2120800D01*
X4278210Y3195190D02*
X4278210Y2153790D01*
X2904265Y4569135D02*
X4278210Y3195190D01*
X1853305Y4089775D02*
X2332665Y4569135D01*
X2332665Y4569135D02*
X2904265Y4569135D01*
D16*
X4905700Y2120800D02*
X4278210Y2120800D01*
X5700000Y1326500D02*
X4905700Y2120800D01*
D14*
G04 #@! TO.N,/HD-*
X4791400Y-304900D02*
X5803019Y-1316519D01*
X5803019Y-1316519D02*
X5700000Y-1213500D01*
D16*
X5175000Y-1016750D02*
X5175000Y-736900D01*
D15*
X2934766Y4094134D02*
X3803200Y3225700D01*
D14*
X4485946Y554D02*
X4791400Y-304900D01*
D15*
X2529430Y4094134D02*
X2934766Y4094134D01*
D14*
X3968300Y554D02*
X4485946Y554D01*
D15*
X3968300Y571400D02*
X3968300Y554D01*
X3803200Y736500D02*
X3968300Y571400D01*
X3803200Y3225700D02*
X3803200Y736500D01*
G04 #@! TO.N,/Button*
X-552900Y1701700D02*
X249989Y898811D01*
X1199700Y-3526198D02*
X1199700Y-5564735D01*
X249989Y-2576487D02*
X1199700Y-3526198D01*
X1199700Y-5564735D02*
X1199700Y-5918288D01*
X249989Y898811D02*
X249989Y-2576487D01*
G04 #@! TO.N,/SDA*
X140499Y3812113D02*
X392901Y4064515D01*
X140499Y3361001D02*
X140499Y3812113D01*
X392901Y4064515D02*
X642900Y4314514D01*
X1738210Y-2197192D02*
X1738210Y1763290D01*
X1738210Y1763290D02*
X140499Y3361001D01*
G04 #@! TO.N,/SCL*
X2418900Y-2171800D02*
X2418900Y1906843D01*
X2418900Y1906843D02*
X912947Y3412796D01*
X912947Y3412796D02*
X662948Y3662795D01*
G04 #@! TO.N,/LED*
X-558583Y-5347083D02*
X-558583Y-2204217D01*
X-1162500Y-5951000D02*
X-558583Y-5347083D01*
X-1162500Y-7371000D02*
X-1162500Y-5951000D01*
X-1551300Y-7759800D02*
X-1162500Y-7371000D01*
X-11589200Y-6743800D02*
X-10573200Y-7759800D01*
X-10573200Y-7759800D02*
X-1551300Y-7759800D01*
D14*
G04 #@! TO.N,/GND*
X6965500Y-7191770D02*
X6965500Y-6453500D01*
X6970000Y3866500D02*
X4330800Y3866500D01*
X4330800Y3866500D02*
X2634800Y5562500D01*
X2634800Y5562500D02*
X920300Y5562500D01*
X-934063Y5562500D02*
X-972163Y5600600D01*
X-972163Y5600600D02*
X-972163Y7289863D01*
X-972163Y7289863D02*
X-1340300Y7658000D01*
X-1340300Y7658000D02*
X-8274500Y7658000D01*
X-8274500Y7658000D02*
X-9744294Y6188206D01*
X-9744294Y6188206D02*
X-10067010Y6188206D01*
X-10067010Y6188206D02*
X-9912652Y6033848D01*
D16*
X-9540000Y6406500D02*
X-9390000Y6406500D01*
D14*
X463100Y1981100D02*
X725000Y1719200D01*
X725000Y1719200D02*
X725000Y-153500D01*
X6970000Y3866500D02*
X6970000Y3780000D01*
X6970000Y3780000D02*
X7918000Y2832000D01*
X2343923Y-5564785D02*
X2343923Y-5918338D01*
X725000Y-153500D02*
X725000Y-2379732D01*
X725000Y-2379732D02*
X2343923Y-3998655D01*
X2343923Y-3998655D02*
X2343923Y-5564785D01*
X920300Y5562500D02*
X-934063Y5562500D01*
D16*
X6970000Y3866500D02*
X8242792Y3866500D01*
X8242792Y3866500D02*
X9073700Y4697408D01*
X9073700Y4697408D02*
X9073700Y6273700D01*
X2593922Y-6168337D02*
X2343923Y-5918338D01*
X6312860Y-6776960D02*
X3202545Y-6776960D01*
X3202545Y-6776960D02*
X2593922Y-6168337D01*
X6965500Y-7429600D02*
X6312860Y-6776960D01*
D14*
X-972163Y3416363D02*
X-972163Y5600600D01*
X463100Y1981100D02*
X-972163Y3416363D01*
D16*
X9073700Y6273700D02*
X8222800Y7124600D01*
X8222800Y7124600D02*
X7016300Y7124600D01*
D15*
G04 #@! TO.N,/Button_reset*
X-44900Y-5715100D02*
X-641800Y-6312000D01*
X-641800Y-6312000D02*
X-667200Y-6312000D01*
X-44900Y-3048100D02*
X-44900Y-5715100D01*
G04 #@! TD*
D16*
G04 #@! TO.N,/GND*
G36*
X3323470Y7112531D02*
X3321891Y7096500D01*
X3328196Y7032489D01*
X3346867Y6970938D01*
X3377187Y6914212D01*
X3417992Y6864492D01*
X3467712Y6823687D01*
X3524438Y6793367D01*
X3585989Y6774696D01*
X3650000Y6768391D01*
X3666030Y6769970D01*
X4333970Y6769970D01*
X4350000Y6768391D01*
X4414011Y6774696D01*
X4475562Y6793367D01*
X4532288Y6823687D01*
X4582008Y6864492D01*
X4622813Y6914212D01*
X4653133Y6970938D01*
X4671804Y7032489D01*
X4676530Y7080469D01*
X4676530Y7080470D01*
X4678109Y7096500D01*
X4676530Y7112531D01*
X4676530Y7794970D01*
X8326460Y7794970D01*
X8501643Y7699640D01*
X8716168Y7539431D01*
X8905650Y7350270D01*
X9066220Y7136020D01*
X9173071Y6940456D01*
X9173071Y2048606D01*
X9154236Y2076794D01*
X8990294Y2240736D01*
X8797519Y2369544D01*
X8583318Y2458269D01*
X8355924Y2503500D01*
X8124076Y2503500D01*
X7896682Y2458269D01*
X7805687Y2420578D01*
X7794732Y2475651D01*
X7732398Y2626139D01*
X7641903Y2761574D01*
X7526724Y2876753D01*
X7391289Y2967248D01*
X7240801Y3029582D01*
X7081044Y3061360D01*
X6918156Y3061360D01*
X6758399Y3029582D01*
X6607911Y2967248D01*
X6472476Y2876753D01*
X6357297Y2761574D01*
X6266802Y2626139D01*
X6204468Y2475651D01*
X6189007Y2397923D01*
X6043318Y2458269D01*
X5815924Y2503500D01*
X5584076Y2503500D01*
X5356682Y2458269D01*
X5203462Y2394803D01*
X5192753Y2407853D01*
X5131236Y2458338D01*
X5061052Y2495853D01*
X4984898Y2518954D01*
X4925540Y2524800D01*
X4925537Y2524800D01*
X4905700Y2526754D01*
X4885863Y2524800D01*
X4630210Y2524800D01*
X4630210Y3177901D01*
X4631913Y3195190D01*
X4629835Y3216289D01*
X4625117Y3264194D01*
X4606110Y3326852D01*
X4604989Y3330547D01*
X4572303Y3391697D01*
X4539339Y3431865D01*
X4539331Y3431873D01*
X4528315Y3445296D01*
X4514893Y3456311D01*
X3165400Y4805802D01*
X3154371Y4819241D01*
X3100772Y4863228D01*
X3039621Y4895914D01*
X2973269Y4916042D01*
X2921557Y4921135D01*
X2921554Y4921135D01*
X2904265Y4922838D01*
X2886976Y4921135D01*
X2349953Y4921135D01*
X2332664Y4922838D01*
X2315375Y4921135D01*
X2315373Y4921135D01*
X2263661Y4916042D01*
X2197309Y4895914D01*
X2168843Y4880699D01*
X2136157Y4863228D01*
X2109699Y4841514D01*
X2082559Y4819241D01*
X2071535Y4805808D01*
X1882502Y4616775D01*
X1801400Y4616775D01*
X1699585Y4596523D01*
X1603677Y4556796D01*
X1517362Y4499123D01*
X1443957Y4425718D01*
X1386284Y4339403D01*
X1346557Y4243495D01*
X1326305Y4141680D01*
X1326305Y4037870D01*
X1346557Y3936055D01*
X1386284Y3840147D01*
X1443957Y3753832D01*
X1517362Y3680427D01*
X1603677Y3622754D01*
X1699585Y3583027D01*
X1801400Y3562775D01*
X1905210Y3562775D01*
X2007025Y3583027D01*
X2102933Y3622754D01*
X2189248Y3680427D01*
X2193559Y3684738D01*
X2279802Y3627113D01*
X2375710Y3587386D01*
X2477525Y3567134D01*
X2581335Y3567134D01*
X2683150Y3587386D01*
X2779058Y3627113D01*
X2853947Y3677151D01*
X3451200Y3079897D01*
X3451201Y1113440D01*
X3442082Y1120924D01*
X3419144Y1133184D01*
X3397508Y1147641D01*
X3373465Y1157600D01*
X3350530Y1169859D01*
X3325646Y1177407D01*
X3301600Y1187368D01*
X3276074Y1192445D01*
X3251190Y1199994D01*
X3225309Y1202543D01*
X3199785Y1207620D01*
X3173761Y1207620D01*
X3147880Y1210169D01*
X3121999Y1207620D01*
X3095975Y1207620D01*
X3070450Y1202543D01*
X3044571Y1199994D01*
X3019689Y1192446D01*
X2994160Y1187368D01*
X2970111Y1177406D01*
X2945231Y1169859D01*
X2922299Y1157602D01*
X2898252Y1147641D01*
X2876612Y1133182D01*
X2853679Y1120924D01*
X2833580Y1104429D01*
X2811937Y1089968D01*
X2793531Y1071562D01*
X2773433Y1055068D01*
X2770900Y1051982D01*
X2770900Y1889555D01*
X2772603Y1906844D01*
X2770884Y1924294D01*
X2765807Y1975847D01*
X2745679Y2042199D01*
X2720092Y2090069D01*
X2712993Y2103351D01*
X2680028Y2143518D01*
X2669006Y2156949D01*
X2655573Y2167973D01*
X1189948Y3633597D01*
X1189948Y3714700D01*
X1169696Y3816515D01*
X1129969Y3912423D01*
X1072296Y3998738D01*
X1068356Y4002678D01*
X1109921Y4064886D01*
X1149648Y4160794D01*
X1169900Y4262609D01*
X1169900Y4366419D01*
X1149648Y4468234D01*
X1109921Y4564142D01*
X1052248Y4650457D01*
X978843Y4723862D01*
X892528Y4781535D01*
X796620Y4821262D01*
X694805Y4841514D01*
X590995Y4841514D01*
X489180Y4821262D01*
X393272Y4781535D01*
X306957Y4723862D01*
X233552Y4650457D01*
X175879Y4564142D01*
X136152Y4468234D01*
X115900Y4366419D01*
X115900Y4285317D01*
X-96173Y4073243D01*
X-109606Y4062219D01*
X-120629Y4048787D01*
X-153594Y4008620D01*
X-182564Y3954419D01*
X-186279Y3947469D01*
X-206407Y3881117D01*
X-210060Y3844028D01*
X-213204Y3812113D01*
X-211501Y3794824D01*
X-211501Y3378290D01*
X-213204Y3361001D01*
X-211501Y3343712D01*
X-211501Y3343710D01*
X-206408Y3291998D01*
X-186280Y3225646D01*
X-179243Y3212481D01*
X-153594Y3164494D01*
X-131356Y3137398D01*
X-109607Y3110896D01*
X-96172Y3099870D01*
X1386211Y1617486D01*
X1386210Y-1803901D01*
X1328862Y-1861249D01*
X1271189Y-1947564D01*
X1231462Y-2043472D01*
X1211210Y-2145287D01*
X1211210Y-2249097D01*
X1231462Y-2350912D01*
X1271189Y-2446820D01*
X1328862Y-2533135D01*
X1402267Y-2606540D01*
X1488582Y-2664213D01*
X1584490Y-2703940D01*
X1686305Y-2724192D01*
X1790115Y-2724192D01*
X1891930Y-2703940D01*
X1987838Y-2664213D01*
X2074153Y-2606540D01*
X2092901Y-2587792D01*
X2169272Y-2638821D01*
X2265180Y-2678548D01*
X2366995Y-2698800D01*
X2470805Y-2698800D01*
X2572620Y-2678548D01*
X2668528Y-2638821D01*
X2754843Y-2581148D01*
X2828248Y-2507743D01*
X2885921Y-2421428D01*
X2886658Y-2419648D01*
X4574849Y-4107839D01*
X4591352Y-4127948D01*
X4671598Y-4193804D01*
X4763150Y-4242739D01*
X4862490Y-4272874D01*
X4901800Y-4276746D01*
X4901800Y-4674805D01*
X4906878Y-4700336D01*
X4909427Y-4726210D01*
X4916973Y-4751085D01*
X4922052Y-4776620D01*
X4932016Y-4800676D01*
X4939562Y-4825550D01*
X4951817Y-4848477D01*
X4961779Y-4872528D01*
X4976241Y-4894172D01*
X4988497Y-4917102D01*
X5004990Y-4937199D01*
X5019452Y-4958843D01*
X5037859Y-4977250D01*
X5054353Y-4997348D01*
X5074451Y-5013842D01*
X5092857Y-5032248D01*
X5114500Y-5046709D01*
X5134599Y-5063204D01*
X5157532Y-5075462D01*
X5179172Y-5089921D01*
X5183079Y-5091539D01*
X5141584Y-5142101D01*
X5046167Y-5320614D01*
X4987409Y-5514311D01*
X4967569Y-5715750D01*
X4987409Y-5917189D01*
X5046167Y-6110886D01*
X5141584Y-6289399D01*
X5269993Y-6445867D01*
X5426461Y-6574276D01*
X5604974Y-6669693D01*
X5798671Y-6728451D01*
X5949639Y-6743320D01*
X6220787Y-6743320D01*
X6520770Y-7043303D01*
X6561972Y-7070833D01*
X6610573Y-7080500D01*
X7325000Y-7080500D01*
X7373601Y-7070833D01*
X7414803Y-7043303D01*
X7714786Y-6743320D01*
X8049561Y-6743320D01*
X8200529Y-6728451D01*
X8394226Y-6669693D01*
X8572739Y-6574276D01*
X8729207Y-6445867D01*
X8857616Y-6289399D01*
X8953033Y-6110886D01*
X9011791Y-5917189D01*
X9031631Y-5715750D01*
X9011791Y-5514311D01*
X8953033Y-5320614D01*
X8857616Y-5142101D01*
X8729207Y-4985633D01*
X8572739Y-4857224D01*
X8394226Y-4761807D01*
X8200529Y-4703049D01*
X8049561Y-4688180D01*
X7689697Y-4688180D01*
X7720294Y-4667736D01*
X7884236Y-4503794D01*
X8013044Y-4311019D01*
X8101769Y-4096818D01*
X8147000Y-3869424D01*
X8147000Y-3637576D01*
X8101769Y-3410182D01*
X8013044Y-3195981D01*
X8001326Y-3178444D01*
X8016185Y-3181400D01*
X8042209Y-3181400D01*
X8068090Y-3183949D01*
X8093971Y-3181400D01*
X8119995Y-3181400D01*
X8145519Y-3176323D01*
X8171400Y-3173774D01*
X8196284Y-3166225D01*
X8221810Y-3161148D01*
X8245856Y-3151187D01*
X8270740Y-3143639D01*
X8293675Y-3131380D01*
X8317718Y-3121421D01*
X8339354Y-3106964D01*
X8362292Y-3094704D01*
X8382396Y-3078205D01*
X8404033Y-3063748D01*
X8422435Y-3045346D01*
X8442538Y-3028848D01*
X8459036Y-3008745D01*
X8477438Y-2990343D01*
X8491895Y-2968706D01*
X8506595Y-2950794D01*
X8589834Y-2867555D01*
X8609948Y-2851048D01*
X8675804Y-2770802D01*
X8724739Y-2679250D01*
X8754874Y-2579910D01*
X8762500Y-2502481D01*
X8762500Y-2502479D01*
X8765049Y-2476601D01*
X8762500Y-2450723D01*
X8762500Y-2271049D01*
X8797519Y-2256544D01*
X8990294Y-2127736D01*
X9154236Y-1963794D01*
X9173070Y-1935606D01*
X9173070Y-6948811D01*
X9055643Y-7163190D01*
X8895032Y-7377083D01*
X8705589Y-7565910D01*
X8491180Y-7725819D01*
X8305081Y-7826970D01*
X4676530Y-7826970D01*
X4676530Y-7119531D01*
X4678109Y-7103500D01*
X4671804Y-7039489D01*
X4653133Y-6977938D01*
X4622813Y-6921212D01*
X4582008Y-6871492D01*
X4532288Y-6830687D01*
X4475562Y-6800367D01*
X4414011Y-6781696D01*
X4366031Y-6776970D01*
X4350000Y-6775391D01*
X4333970Y-6776970D01*
X3666030Y-6776970D01*
X3650000Y-6775391D01*
X3633969Y-6776970D01*
X3585989Y-6781696D01*
X3524438Y-6800367D01*
X3467712Y-6830687D01*
X3417992Y-6871492D01*
X3377187Y-6921212D01*
X3346867Y-6977938D01*
X3328196Y-7039489D01*
X3321891Y-7103500D01*
X3323470Y-7119531D01*
X3323471Y-7826970D01*
X-1120668Y-7826970D01*
X-925823Y-7632126D01*
X-912395Y-7621106D01*
X-901372Y-7607675D01*
X-868407Y-7567508D01*
X-844684Y-7523125D01*
X-835721Y-7506356D01*
X-815593Y-7440004D01*
X-810500Y-7388292D01*
X-810500Y-7388290D01*
X-808797Y-7371001D01*
X-810500Y-7353712D01*
X-810500Y-6820821D01*
X-719105Y-6839000D01*
X-615295Y-6839000D01*
X-513480Y-6818748D01*
X-417572Y-6779021D01*
X-331257Y-6721348D01*
X-257852Y-6647943D01*
X-200179Y-6561628D01*
X-160452Y-6465720D01*
X-140200Y-6363905D01*
X-140200Y-6308202D01*
X191773Y-5976230D01*
X205206Y-5965206D01*
X229519Y-5935580D01*
X249193Y-5911608D01*
X281878Y-5850457D01*
X281879Y-5850456D01*
X302007Y-5784104D01*
X307100Y-5732392D01*
X307100Y-5732390D01*
X308803Y-5715101D01*
X307100Y-5697812D01*
X307100Y-3441391D01*
X364448Y-3384043D01*
X422121Y-3297728D01*
X437148Y-3261449D01*
X847700Y-3672001D01*
X847701Y-5524996D01*
X790352Y-5582345D01*
X732679Y-5668660D01*
X692952Y-5764568D01*
X672700Y-5866383D01*
X672700Y-5970193D01*
X692952Y-6072008D01*
X732679Y-6167916D01*
X790352Y-6254231D01*
X863757Y-6327636D01*
X950072Y-6385309D01*
X1045980Y-6425036D01*
X1147795Y-6445288D01*
X1251605Y-6445288D01*
X1353420Y-6425036D01*
X1449328Y-6385309D01*
X1535643Y-6327636D01*
X1609048Y-6254231D01*
X1666721Y-6167916D01*
X1706448Y-6072008D01*
X1726700Y-5970193D01*
X1726700Y-5866383D01*
X1706448Y-5764568D01*
X1666721Y-5668660D01*
X1609048Y-5582345D01*
X1551700Y-5524997D01*
X1551700Y-3543486D01*
X1553403Y-3526197D01*
X1548636Y-3477798D01*
X1546607Y-3457194D01*
X1526479Y-3390842D01*
X1493794Y-3329692D01*
X1493793Y-3329690D01*
X1460828Y-3289523D01*
X1460826Y-3289521D01*
X1449805Y-3276092D01*
X1436377Y-3265072D01*
X601989Y-2430685D01*
X601989Y881522D01*
X603692Y898811D01*
X601464Y921429D01*
X596896Y967815D01*
X577335Y1032298D01*
X576768Y1034168D01*
X544082Y1095318D01*
X511118Y1135485D01*
X511115Y1135488D01*
X500094Y1148917D01*
X486666Y1159937D01*
X-25900Y1672502D01*
X-25900Y1753605D01*
X-46152Y1855420D01*
X-85879Y1951328D01*
X-143552Y2037643D01*
X-216957Y2111048D01*
X-303272Y2168721D01*
X-399180Y2208448D01*
X-500995Y2228700D01*
X-604805Y2228700D01*
X-706620Y2208448D01*
X-802528Y2168721D01*
X-888843Y2111048D01*
X-962248Y2037643D01*
X-1019921Y1951328D01*
X-1059648Y1855420D01*
X-1079900Y1753605D01*
X-1079900Y1649795D01*
X-1059648Y1547980D01*
X-1019921Y1452072D01*
X-962248Y1365757D01*
X-888843Y1292352D01*
X-802528Y1234679D01*
X-706620Y1194952D01*
X-604805Y1174700D01*
X-523702Y1174700D01*
X-102011Y753008D01*
X-102010Y-1938952D01*
X-149235Y-1868274D01*
X-222640Y-1794869D01*
X-308955Y-1737196D01*
X-404863Y-1697469D01*
X-506678Y-1677217D01*
X-610488Y-1677217D01*
X-712303Y-1697469D01*
X-808211Y-1737196D01*
X-894526Y-1794869D01*
X-967931Y-1868274D01*
X-1025604Y-1954589D01*
X-1065331Y-2050497D01*
X-1085583Y-2152312D01*
X-1085583Y-2256122D01*
X-1065331Y-2357937D01*
X-1025604Y-2453845D01*
X-967931Y-2540160D01*
X-910582Y-2597509D01*
X-910583Y-5201279D01*
X-1399172Y-5689870D01*
X-1412605Y-5700894D01*
X-1423628Y-5714326D01*
X-1456593Y-5754493D01*
X-1488849Y-5814841D01*
X-1489278Y-5815644D01*
X-1499838Y-5850457D01*
X-1509406Y-5881997D01*
X-1516203Y-5951000D01*
X-1514499Y-5968299D01*
X-1514500Y-7225197D01*
X-1697102Y-7407800D01*
X-10427397Y-7407800D01*
X-11062200Y-6772998D01*
X-11062200Y-6691895D01*
X-11082452Y-6590080D01*
X-11122179Y-6494172D01*
X-11179852Y-6407857D01*
X-11253257Y-6334452D01*
X-11339572Y-6276779D01*
X-11435480Y-6237052D01*
X-11537295Y-6216800D01*
X-11641105Y-6216800D01*
X-11742920Y-6237052D01*
X-11838828Y-6276779D01*
X-11925143Y-6334452D01*
X-11948470Y-6357779D01*
X-11948470Y5683770D01*
X4967569Y5683770D01*
X4987409Y5482331D01*
X5046167Y5288634D01*
X5141584Y5110121D01*
X5269993Y4953653D01*
X5426461Y4825244D01*
X5604974Y4729827D01*
X5798671Y4671069D01*
X5949639Y4656200D01*
X8049561Y4656200D01*
X8200529Y4671069D01*
X8394226Y4729827D01*
X8572739Y4825244D01*
X8729207Y4953653D01*
X8857616Y5110121D01*
X8953033Y5288634D01*
X9011791Y5482331D01*
X9031631Y5683770D01*
X9011791Y5885209D01*
X8953033Y6078906D01*
X8857616Y6257419D01*
X8729207Y6413887D01*
X8572739Y6542296D01*
X8394226Y6637713D01*
X8200529Y6696471D01*
X8049561Y6711340D01*
X5949639Y6711340D01*
X5798671Y6696471D01*
X5604974Y6637713D01*
X5426461Y6542296D01*
X5269993Y6413887D01*
X5141584Y6257419D01*
X5046167Y6078906D01*
X4987409Y5885209D01*
X4967569Y5683770D01*
X-11948470Y5683770D01*
X-11948470Y6927750D01*
X-11838752Y7128427D01*
X-11678614Y7342142D01*
X-11489697Y7530912D01*
X-11275857Y7690884D01*
X-11085124Y7794970D01*
X3323471Y7794970D01*
X3323470Y7112531D01*
X3323470Y7112531D01*
G37*
X3323470Y7112531D02*
X3321891Y7096500D01*
X3328196Y7032489D01*
X3346867Y6970938D01*
X3377187Y6914212D01*
X3417992Y6864492D01*
X3467712Y6823687D01*
X3524438Y6793367D01*
X3585989Y6774696D01*
X3650000Y6768391D01*
X3666030Y6769970D01*
X4333970Y6769970D01*
X4350000Y6768391D01*
X4414011Y6774696D01*
X4475562Y6793367D01*
X4532288Y6823687D01*
X4582008Y6864492D01*
X4622813Y6914212D01*
X4653133Y6970938D01*
X4671804Y7032489D01*
X4676530Y7080469D01*
X4676530Y7080470D01*
X4678109Y7096500D01*
X4676530Y7112531D01*
X4676530Y7794970D01*
X8326460Y7794970D01*
X8501643Y7699640D01*
X8716168Y7539431D01*
X8905650Y7350270D01*
X9066220Y7136020D01*
X9173071Y6940456D01*
X9173071Y2048606D01*
X9154236Y2076794D01*
X8990294Y2240736D01*
X8797519Y2369544D01*
X8583318Y2458269D01*
X8355924Y2503500D01*
X8124076Y2503500D01*
X7896682Y2458269D01*
X7805687Y2420578D01*
X7794732Y2475651D01*
X7732398Y2626139D01*
X7641903Y2761574D01*
X7526724Y2876753D01*
X7391289Y2967248D01*
X7240801Y3029582D01*
X7081044Y3061360D01*
X6918156Y3061360D01*
X6758399Y3029582D01*
X6607911Y2967248D01*
X6472476Y2876753D01*
X6357297Y2761574D01*
X6266802Y2626139D01*
X6204468Y2475651D01*
X6189007Y2397923D01*
X6043318Y2458269D01*
X5815924Y2503500D01*
X5584076Y2503500D01*
X5356682Y2458269D01*
X5203462Y2394803D01*
X5192753Y2407853D01*
X5131236Y2458338D01*
X5061052Y2495853D01*
X4984898Y2518954D01*
X4925540Y2524800D01*
X4925537Y2524800D01*
X4905700Y2526754D01*
X4885863Y2524800D01*
X4630210Y2524800D01*
X4630210Y3177901D01*
X4631913Y3195190D01*
X4629835Y3216289D01*
X4625117Y3264194D01*
X4606110Y3326852D01*
X4604989Y3330547D01*
X4572303Y3391697D01*
X4539339Y3431865D01*
X4539331Y3431873D01*
X4528315Y3445296D01*
X4514893Y3456311D01*
X3165400Y4805802D01*
X3154371Y4819241D01*
X3100772Y4863228D01*
X3039621Y4895914D01*
X2973269Y4916042D01*
X2921557Y4921135D01*
X2921554Y4921135D01*
X2904265Y4922838D01*
X2886976Y4921135D01*
X2349953Y4921135D01*
X2332664Y4922838D01*
X2315375Y4921135D01*
X2315373Y4921135D01*
X2263661Y4916042D01*
X2197309Y4895914D01*
X2168843Y4880699D01*
X2136157Y4863228D01*
X2109699Y4841514D01*
X2082559Y4819241D01*
X2071535Y4805808D01*
X1882502Y4616775D01*
X1801400Y4616775D01*
X1699585Y4596523D01*
X1603677Y4556796D01*
X1517362Y4499123D01*
X1443957Y4425718D01*
X1386284Y4339403D01*
X1346557Y4243495D01*
X1326305Y4141680D01*
X1326305Y4037870D01*
X1346557Y3936055D01*
X1386284Y3840147D01*
X1443957Y3753832D01*
X1517362Y3680427D01*
X1603677Y3622754D01*
X1699585Y3583027D01*
X1801400Y3562775D01*
X1905210Y3562775D01*
X2007025Y3583027D01*
X2102933Y3622754D01*
X2189248Y3680427D01*
X2193559Y3684738D01*
X2279802Y3627113D01*
X2375710Y3587386D01*
X2477525Y3567134D01*
X2581335Y3567134D01*
X2683150Y3587386D01*
X2779058Y3627113D01*
X2853947Y3677151D01*
X3451200Y3079897D01*
X3451201Y1113440D01*
X3442082Y1120924D01*
X3419144Y1133184D01*
X3397508Y1147641D01*
X3373465Y1157600D01*
X3350530Y1169859D01*
X3325646Y1177407D01*
X3301600Y1187368D01*
X3276074Y1192445D01*
X3251190Y1199994D01*
X3225309Y1202543D01*
X3199785Y1207620D01*
X3173761Y1207620D01*
X3147880Y1210169D01*
X3121999Y1207620D01*
X3095975Y1207620D01*
X3070450Y1202543D01*
X3044571Y1199994D01*
X3019689Y1192446D01*
X2994160Y1187368D01*
X2970111Y1177406D01*
X2945231Y1169859D01*
X2922299Y1157602D01*
X2898252Y1147641D01*
X2876612Y1133182D01*
X2853679Y1120924D01*
X2833580Y1104429D01*
X2811937Y1089968D01*
X2793531Y1071562D01*
X2773433Y1055068D01*
X2770900Y1051982D01*
X2770900Y1889555D01*
X2772603Y1906844D01*
X2770884Y1924294D01*
X2765807Y1975847D01*
X2745679Y2042199D01*
X2720092Y2090069D01*
X2712993Y2103351D01*
X2680028Y2143518D01*
X2669006Y2156949D01*
X2655573Y2167973D01*
X1189948Y3633597D01*
X1189948Y3714700D01*
X1169696Y3816515D01*
X1129969Y3912423D01*
X1072296Y3998738D01*
X1068356Y4002678D01*
X1109921Y4064886D01*
X1149648Y4160794D01*
X1169900Y4262609D01*
X1169900Y4366419D01*
X1149648Y4468234D01*
X1109921Y4564142D01*
X1052248Y4650457D01*
X978843Y4723862D01*
X892528Y4781535D01*
X796620Y4821262D01*
X694805Y4841514D01*
X590995Y4841514D01*
X489180Y4821262D01*
X393272Y4781535D01*
X306957Y4723862D01*
X233552Y4650457D01*
X175879Y4564142D01*
X136152Y4468234D01*
X115900Y4366419D01*
X115900Y4285317D01*
X-96173Y4073243D01*
X-109606Y4062219D01*
X-120629Y4048787D01*
X-153594Y4008620D01*
X-182564Y3954419D01*
X-186279Y3947469D01*
X-206407Y3881117D01*
X-210060Y3844028D01*
X-213204Y3812113D01*
X-211501Y3794824D01*
X-211501Y3378290D01*
X-213204Y3361001D01*
X-211501Y3343712D01*
X-211501Y3343710D01*
X-206408Y3291998D01*
X-186280Y3225646D01*
X-179243Y3212481D01*
X-153594Y3164494D01*
X-131356Y3137398D01*
X-109607Y3110896D01*
X-96172Y3099870D01*
X1386211Y1617486D01*
X1386210Y-1803901D01*
X1328862Y-1861249D01*
X1271189Y-1947564D01*
X1231462Y-2043472D01*
X1211210Y-2145287D01*
X1211210Y-2249097D01*
X1231462Y-2350912D01*
X1271189Y-2446820D01*
X1328862Y-2533135D01*
X1402267Y-2606540D01*
X1488582Y-2664213D01*
X1584490Y-2703940D01*
X1686305Y-2724192D01*
X1790115Y-2724192D01*
X1891930Y-2703940D01*
X1987838Y-2664213D01*
X2074153Y-2606540D01*
X2092901Y-2587792D01*
X2169272Y-2638821D01*
X2265180Y-2678548D01*
X2366995Y-2698800D01*
X2470805Y-2698800D01*
X2572620Y-2678548D01*
X2668528Y-2638821D01*
X2754843Y-2581148D01*
X2828248Y-2507743D01*
X2885921Y-2421428D01*
X2886658Y-2419648D01*
X4574849Y-4107839D01*
X4591352Y-4127948D01*
X4671598Y-4193804D01*
X4763150Y-4242739D01*
X4862490Y-4272874D01*
X4901800Y-4276746D01*
X4901800Y-4674805D01*
X4906878Y-4700336D01*
X4909427Y-4726210D01*
X4916973Y-4751085D01*
X4922052Y-4776620D01*
X4932016Y-4800676D01*
X4939562Y-4825550D01*
X4951817Y-4848477D01*
X4961779Y-4872528D01*
X4976241Y-4894172D01*
X4988497Y-4917102D01*
X5004990Y-4937199D01*
X5019452Y-4958843D01*
X5037859Y-4977250D01*
X5054353Y-4997348D01*
X5074451Y-5013842D01*
X5092857Y-5032248D01*
X5114500Y-5046709D01*
X5134599Y-5063204D01*
X5157532Y-5075462D01*
X5179172Y-5089921D01*
X5183079Y-5091539D01*
X5141584Y-5142101D01*
X5046167Y-5320614D01*
X4987409Y-5514311D01*
X4967569Y-5715750D01*
X4987409Y-5917189D01*
X5046167Y-6110886D01*
X5141584Y-6289399D01*
X5269993Y-6445867D01*
X5426461Y-6574276D01*
X5604974Y-6669693D01*
X5798671Y-6728451D01*
X5949639Y-6743320D01*
X6220787Y-6743320D01*
X6520770Y-7043303D01*
X6561972Y-7070833D01*
X6610573Y-7080500D01*
X7325000Y-7080500D01*
X7373601Y-7070833D01*
X7414803Y-7043303D01*
X7714786Y-6743320D01*
X8049561Y-6743320D01*
X8200529Y-6728451D01*
X8394226Y-6669693D01*
X8572739Y-6574276D01*
X8729207Y-6445867D01*
X8857616Y-6289399D01*
X8953033Y-6110886D01*
X9011791Y-5917189D01*
X9031631Y-5715750D01*
X9011791Y-5514311D01*
X8953033Y-5320614D01*
X8857616Y-5142101D01*
X8729207Y-4985633D01*
X8572739Y-4857224D01*
X8394226Y-4761807D01*
X8200529Y-4703049D01*
X8049561Y-4688180D01*
X7689697Y-4688180D01*
X7720294Y-4667736D01*
X7884236Y-4503794D01*
X8013044Y-4311019D01*
X8101769Y-4096818D01*
X8147000Y-3869424D01*
X8147000Y-3637576D01*
X8101769Y-3410182D01*
X8013044Y-3195981D01*
X8001326Y-3178444D01*
X8016185Y-3181400D01*
X8042209Y-3181400D01*
X8068090Y-3183949D01*
X8093971Y-3181400D01*
X8119995Y-3181400D01*
X8145519Y-3176323D01*
X8171400Y-3173774D01*
X8196284Y-3166225D01*
X8221810Y-3161148D01*
X8245856Y-3151187D01*
X8270740Y-3143639D01*
X8293675Y-3131380D01*
X8317718Y-3121421D01*
X8339354Y-3106964D01*
X8362292Y-3094704D01*
X8382396Y-3078205D01*
X8404033Y-3063748D01*
X8422435Y-3045346D01*
X8442538Y-3028848D01*
X8459036Y-3008745D01*
X8477438Y-2990343D01*
X8491895Y-2968706D01*
X8506595Y-2950794D01*
X8589834Y-2867555D01*
X8609948Y-2851048D01*
X8675804Y-2770802D01*
X8724739Y-2679250D01*
X8754874Y-2579910D01*
X8762500Y-2502481D01*
X8762500Y-2502479D01*
X8765049Y-2476601D01*
X8762500Y-2450723D01*
X8762500Y-2271049D01*
X8797519Y-2256544D01*
X8990294Y-2127736D01*
X9154236Y-1963794D01*
X9173070Y-1935606D01*
X9173070Y-6948811D01*
X9055643Y-7163190D01*
X8895032Y-7377083D01*
X8705589Y-7565910D01*
X8491180Y-7725819D01*
X8305081Y-7826970D01*
X4676530Y-7826970D01*
X4676530Y-7119531D01*
X4678109Y-7103500D01*
X4671804Y-7039489D01*
X4653133Y-6977938D01*
X4622813Y-6921212D01*
X4582008Y-6871492D01*
X4532288Y-6830687D01*
X4475562Y-6800367D01*
X4414011Y-6781696D01*
X4366031Y-6776970D01*
X4350000Y-6775391D01*
X4333970Y-6776970D01*
X3666030Y-6776970D01*
X3650000Y-6775391D01*
X3633969Y-6776970D01*
X3585989Y-6781696D01*
X3524438Y-6800367D01*
X3467712Y-6830687D01*
X3417992Y-6871492D01*
X3377187Y-6921212D01*
X3346867Y-6977938D01*
X3328196Y-7039489D01*
X3321891Y-7103500D01*
X3323470Y-7119531D01*
X3323471Y-7826970D01*
X-1120668Y-7826970D01*
X-925823Y-7632126D01*
X-912395Y-7621106D01*
X-901372Y-7607675D01*
X-868407Y-7567508D01*
X-844684Y-7523125D01*
X-835721Y-7506356D01*
X-815593Y-7440004D01*
X-810500Y-7388292D01*
X-810500Y-7388290D01*
X-808797Y-7371001D01*
X-810500Y-7353712D01*
X-810500Y-6820821D01*
X-719105Y-6839000D01*
X-615295Y-6839000D01*
X-513480Y-6818748D01*
X-417572Y-6779021D01*
X-331257Y-6721348D01*
X-257852Y-6647943D01*
X-200179Y-6561628D01*
X-160452Y-6465720D01*
X-140200Y-6363905D01*
X-140200Y-6308202D01*
X191773Y-5976230D01*
X205206Y-5965206D01*
X229519Y-5935580D01*
X249193Y-5911608D01*
X281878Y-5850457D01*
X281879Y-5850456D01*
X302007Y-5784104D01*
X307100Y-5732392D01*
X307100Y-5732390D01*
X308803Y-5715101D01*
X307100Y-5697812D01*
X307100Y-3441391D01*
X364448Y-3384043D01*
X422121Y-3297728D01*
X437148Y-3261449D01*
X847700Y-3672001D01*
X847701Y-5524996D01*
X790352Y-5582345D01*
X732679Y-5668660D01*
X692952Y-5764568D01*
X672700Y-5866383D01*
X672700Y-5970193D01*
X692952Y-6072008D01*
X732679Y-6167916D01*
X790352Y-6254231D01*
X863757Y-6327636D01*
X950072Y-6385309D01*
X1045980Y-6425036D01*
X1147795Y-6445288D01*
X1251605Y-6445288D01*
X1353420Y-6425036D01*
X1449328Y-6385309D01*
X1535643Y-6327636D01*
X1609048Y-6254231D01*
X1666721Y-6167916D01*
X1706448Y-6072008D01*
X1726700Y-5970193D01*
X1726700Y-5866383D01*
X1706448Y-5764568D01*
X1666721Y-5668660D01*
X1609048Y-5582345D01*
X1551700Y-5524997D01*
X1551700Y-3543486D01*
X1553403Y-3526197D01*
X1548636Y-3477798D01*
X1546607Y-3457194D01*
X1526479Y-3390842D01*
X1493794Y-3329692D01*
X1493793Y-3329690D01*
X1460828Y-3289523D01*
X1460826Y-3289521D01*
X1449805Y-3276092D01*
X1436377Y-3265072D01*
X601989Y-2430685D01*
X601989Y881522D01*
X603692Y898811D01*
X601464Y921429D01*
X596896Y967815D01*
X577335Y1032298D01*
X576768Y1034168D01*
X544082Y1095318D01*
X511118Y1135485D01*
X511115Y1135488D01*
X500094Y1148917D01*
X486666Y1159937D01*
X-25900Y1672502D01*
X-25900Y1753605D01*
X-46152Y1855420D01*
X-85879Y1951328D01*
X-143552Y2037643D01*
X-216957Y2111048D01*
X-303272Y2168721D01*
X-399180Y2208448D01*
X-500995Y2228700D01*
X-604805Y2228700D01*
X-706620Y2208448D01*
X-802528Y2168721D01*
X-888843Y2111048D01*
X-962248Y2037643D01*
X-1019921Y1951328D01*
X-1059648Y1855420D01*
X-1079900Y1753605D01*
X-1079900Y1649795D01*
X-1059648Y1547980D01*
X-1019921Y1452072D01*
X-962248Y1365757D01*
X-888843Y1292352D01*
X-802528Y1234679D01*
X-706620Y1194952D01*
X-604805Y1174700D01*
X-523702Y1174700D01*
X-102011Y753008D01*
X-102010Y-1938952D01*
X-149235Y-1868274D01*
X-222640Y-1794869D01*
X-308955Y-1737196D01*
X-404863Y-1697469D01*
X-506678Y-1677217D01*
X-610488Y-1677217D01*
X-712303Y-1697469D01*
X-808211Y-1737196D01*
X-894526Y-1794869D01*
X-967931Y-1868274D01*
X-1025604Y-1954589D01*
X-1065331Y-2050497D01*
X-1085583Y-2152312D01*
X-1085583Y-2256122D01*
X-1065331Y-2357937D01*
X-1025604Y-2453845D01*
X-967931Y-2540160D01*
X-910582Y-2597509D01*
X-910583Y-5201279D01*
X-1399172Y-5689870D01*
X-1412605Y-5700894D01*
X-1423628Y-5714326D01*
X-1456593Y-5754493D01*
X-1488849Y-5814841D01*
X-1489278Y-5815644D01*
X-1499838Y-5850457D01*
X-1509406Y-5881997D01*
X-1516203Y-5951000D01*
X-1514499Y-5968299D01*
X-1514500Y-7225197D01*
X-1697102Y-7407800D01*
X-10427397Y-7407800D01*
X-11062200Y-6772998D01*
X-11062200Y-6691895D01*
X-11082452Y-6590080D01*
X-11122179Y-6494172D01*
X-11179852Y-6407857D01*
X-11253257Y-6334452D01*
X-11339572Y-6276779D01*
X-11435480Y-6237052D01*
X-11537295Y-6216800D01*
X-11641105Y-6216800D01*
X-11742920Y-6237052D01*
X-11838828Y-6276779D01*
X-11925143Y-6334452D01*
X-11948470Y-6357779D01*
X-11948470Y5683770D01*
X4967569Y5683770D01*
X4987409Y5482331D01*
X5046167Y5288634D01*
X5141584Y5110121D01*
X5269993Y4953653D01*
X5426461Y4825244D01*
X5604974Y4729827D01*
X5798671Y4671069D01*
X5949639Y4656200D01*
X8049561Y4656200D01*
X8200529Y4671069D01*
X8394226Y4729827D01*
X8572739Y4825244D01*
X8729207Y4953653D01*
X8857616Y5110121D01*
X8953033Y5288634D01*
X9011791Y5482331D01*
X9031631Y5683770D01*
X9011791Y5885209D01*
X8953033Y6078906D01*
X8857616Y6257419D01*
X8729207Y6413887D01*
X8572739Y6542296D01*
X8394226Y6637713D01*
X8200529Y6696471D01*
X8049561Y6711340D01*
X5949639Y6711340D01*
X5798671Y6696471D01*
X5604974Y6637713D01*
X5426461Y6542296D01*
X5269993Y6413887D01*
X5141584Y6257419D01*
X5046167Y6078906D01*
X4987409Y5885209D01*
X4967569Y5683770D01*
X-11948470Y5683770D01*
X-11948470Y6927750D01*
X-11838752Y7128427D01*
X-11678614Y7342142D01*
X-11489697Y7530912D01*
X-11275857Y7690884D01*
X-11085124Y7794970D01*
X3323471Y7794970D01*
X3323470Y7112531D01*
G04 #@! TD*
M02*
