M48
;DRILL file {KiCad (5.0.1)-4} date 04.01.2019 14:17:11
;FORMAT={-:-/ absolute / metric / decimal}
FMAT,2
METRIC,TZ
T1C0.200
T2C0.300
T3C1.001
T4C1.100
%
G90
G05
M71
T1
X0.342Y-14.5
X1.442Y-14.5
X7.55Y-11.7
X9.884Y-5.84
X10.34Y-10.35
X10.434Y-5.28
X11.2Y-10.2
X11.404Y-4.8
X11.654Y0.1
X12.01Y-12.7
X12.054Y-13.65
X12.054Y-2.7
X12.104Y-5.3
X12.254Y-11.05
X13.404Y-10.
X13.504Y-6.2
X14.092Y-4.05
X14.204Y-6.2
X14.404Y-9.1
X15.054Y-0.5
X15.41Y-6.95
X15.554Y-9.125
X15.575Y-4.9
X16.375Y-11.6
X16.854Y-2.5
X17.054Y-9.6
X18.104Y-7.35
T2
X15.2Y-12.95
T4
X18.075Y-4.712
X18.075Y-9.213
T3
X18.824Y-1.263G85X17.325Y-1.263
G05
X18.824Y-12.662G85X17.325Y-12.662
G05
T0
M30
