G04 #@! TF.GenerationSoftware,KiCad,Pcbnew,(5.0.1)-4*
G04 #@! TF.CreationDate,2019-04-02T18:22:59+02:00*
G04 #@! TF.ProjectId,nk-u2f,6E6B2D7532662E6B696361645F706362,R8*
G04 #@! TF.SameCoordinates,PX6e8e008PY57c9250*
G04 #@! TF.FileFunction,Legend,Top*
G04 #@! TF.FilePolarity,Positive*
%FSLAX46Y46*%
G04 Gerber Fmt 4.6, Leading zero omitted, Abs format (unit mm)*
G04 Created by KiCad (PCBNEW (5.0.1)-4) date 02.04.2019 18:22:59*
%MOMM*%
%LPD*%
G01*
G04 APERTURE LIST*
%ADD10C,0.150000*%
%ADD11C,0.254000*%
%ADD12C,0.120000*%
%ADD13C,0.250000*%
%ADD14C,0.304800*%
G04 APERTURE END LIST*
D10*
X316133Y-9899680D02*
X-17200Y-9423490D01*
X-255296Y-9899680D02*
X-255296Y-8899680D01*
X125657Y-8899680D01*
X220895Y-8947300D01*
X268514Y-8994919D01*
X316133Y-9090157D01*
X316133Y-9233014D01*
X268514Y-9328252D01*
X220895Y-9375871D01*
X125657Y-9423490D01*
X-255296Y-9423490D01*
X792323Y-9899680D02*
X982800Y-9899680D01*
X1078038Y-9852061D01*
X1125657Y-9804442D01*
X1220895Y-9661585D01*
X1268514Y-9471109D01*
X1268514Y-9090157D01*
X1220895Y-8994919D01*
X1173276Y-8947300D01*
X1078038Y-8899680D01*
X887561Y-8899680D01*
X792323Y-8947300D01*
X744704Y-8994919D01*
X697085Y-9090157D01*
X697085Y-9328252D01*
X744704Y-9423490D01*
X792323Y-9471109D01*
X887561Y-9518728D01*
X1078038Y-9518728D01*
X1173276Y-9471109D01*
X1220895Y-9423490D01*
X1268514Y-9328252D01*
X68828Y-7851871D02*
X-264505Y-7851871D01*
X-264505Y-8375680D02*
X-264505Y-7375680D01*
X211685Y-7375680D01*
X592638Y-8375680D02*
X592638Y-7375680D01*
X1068828Y-8375680D02*
X1068828Y-7375680D01*
X1306923Y-7375680D01*
X1449780Y-7423300D01*
X1545019Y-7518538D01*
X1592638Y-7613776D01*
X1640257Y-7804252D01*
X1640257Y-7947109D01*
X1592638Y-8137585D01*
X1545019Y-8232823D01*
X1449780Y-8328061D01*
X1306923Y-8375680D01*
X1068828Y-8375680D01*
X2259304Y-7375680D02*
X2449780Y-7375680D01*
X2545019Y-7423300D01*
X2640257Y-7518538D01*
X2687876Y-7709014D01*
X2687876Y-8042347D01*
X2640257Y-8232823D01*
X2545019Y-8328061D01*
X2449780Y-8375680D01*
X2259304Y-8375680D01*
X2164066Y-8328061D01*
X2068828Y-8232823D01*
X2021209Y-8042347D01*
X2021209Y-7709014D01*
X2068828Y-7518538D01*
X2164066Y-7423300D01*
X2259304Y-7375680D01*
X3878352Y-7375680D02*
X3878352Y-8185204D01*
X3925971Y-8280442D01*
X3973590Y-8328061D01*
X4068828Y-8375680D01*
X4259304Y-8375680D01*
X4354542Y-8328061D01*
X4402161Y-8280442D01*
X4449780Y-8185204D01*
X4449780Y-7375680D01*
X4878352Y-7470919D02*
X4925971Y-7423300D01*
X5021209Y-7375680D01*
X5259304Y-7375680D01*
X5354542Y-7423300D01*
X5402161Y-7470919D01*
X5449780Y-7566157D01*
X5449780Y-7661395D01*
X5402161Y-7804252D01*
X4830733Y-8375680D01*
X5449780Y-8375680D01*
X6211685Y-7851871D02*
X5878352Y-7851871D01*
X5878352Y-8375680D02*
X5878352Y-7375680D01*
X6354542Y-7375680D01*
X-258215Y-6838980D02*
X-258215Y-5838980D01*
X313214Y-6838980D01*
X313214Y-5838980D01*
X789404Y-6838980D02*
X789404Y-6172314D01*
X789404Y-5838980D02*
X741785Y-5886600D01*
X789404Y-5934219D01*
X837023Y-5886600D01*
X789404Y-5838980D01*
X789404Y-5934219D01*
X1122738Y-6172314D02*
X1503690Y-6172314D01*
X1265595Y-5838980D02*
X1265595Y-6696123D01*
X1313214Y-6791361D01*
X1408452Y-6838980D01*
X1503690Y-6838980D01*
X1837023Y-6838980D02*
X1837023Y-6172314D01*
X1837023Y-6362790D02*
X1884642Y-6267552D01*
X1932261Y-6219933D01*
X2027500Y-6172314D01*
X2122738Y-6172314D01*
X2598928Y-6838980D02*
X2503690Y-6791361D01*
X2456071Y-6743742D01*
X2408452Y-6648504D01*
X2408452Y-6362790D01*
X2456071Y-6267552D01*
X2503690Y-6219933D01*
X2598928Y-6172314D01*
X2741785Y-6172314D01*
X2837023Y-6219933D01*
X2884642Y-6267552D01*
X2932261Y-6362790D01*
X2932261Y-6648504D01*
X2884642Y-6743742D01*
X2837023Y-6791361D01*
X2741785Y-6838980D01*
X2598928Y-6838980D01*
X3360833Y-6838980D02*
X3360833Y-5838980D01*
X3456071Y-6458028D02*
X3741785Y-6838980D01*
X3741785Y-6172314D02*
X3360833Y-6553266D01*
X4551309Y-6791361D02*
X4456071Y-6838980D01*
X4265595Y-6838980D01*
X4170357Y-6791361D01*
X4122738Y-6696123D01*
X4122738Y-6315171D01*
X4170357Y-6219933D01*
X4265595Y-6172314D01*
X4456071Y-6172314D01*
X4551309Y-6219933D01*
X4598928Y-6315171D01*
X4598928Y-6410409D01*
X4122738Y-6505647D01*
X4932261Y-6172314D02*
X5170357Y-6838980D01*
X5408452Y-6172314D02*
X5170357Y-6838980D01*
X5075119Y-7077076D01*
X5027500Y-7124695D01*
X4932261Y-7172314D01*
X19714285Y-9366666D02*
X19676190Y-9328571D01*
X19638095Y-9214285D01*
X19638095Y-9138095D01*
X19676190Y-9023809D01*
X19752380Y-8947619D01*
X19828571Y-8909523D01*
X19980952Y-8871428D01*
X20095238Y-8871428D01*
X20247619Y-8909523D01*
X20323809Y-8947619D01*
X20400000Y-9023809D01*
X20438095Y-9138095D01*
X20438095Y-9214285D01*
X20400000Y-9328571D01*
X20361904Y-9366666D01*
X20361904Y-9671428D02*
X20400000Y-9709523D01*
X20438095Y-9785714D01*
X20438095Y-9976190D01*
X20400000Y-10052380D01*
X20361904Y-10090476D01*
X20285714Y-10128571D01*
X20209523Y-10128571D01*
X20095238Y-10090476D01*
X19638095Y-9633333D01*
X19638095Y-10128571D01*
X19638095Y-10471428D02*
X20438095Y-10471428D01*
X20438095Y-10661904D01*
X20400000Y-10776190D01*
X20323809Y-10852380D01*
X20247619Y-10890476D01*
X20095238Y-10928571D01*
X19980952Y-10928571D01*
X19828571Y-10890476D01*
X19752380Y-10852380D01*
X19676190Y-10776190D01*
X19638095Y-10661904D01*
X19638095Y-10471428D01*
X19672485Y-2266766D02*
X19634390Y-2228671D01*
X19596295Y-2114385D01*
X19596295Y-2038195D01*
X19634390Y-1923909D01*
X19710580Y-1847719D01*
X19786771Y-1809623D01*
X19939152Y-1771528D01*
X20053438Y-1771528D01*
X20205819Y-1809623D01*
X20282009Y-1847719D01*
X20358200Y-1923909D01*
X20396295Y-2038195D01*
X20396295Y-2114385D01*
X20358200Y-2228671D01*
X20320104Y-2266766D01*
X20320104Y-2571528D02*
X20358200Y-2609623D01*
X20396295Y-2685814D01*
X20396295Y-2876290D01*
X20358200Y-2952480D01*
X20320104Y-2990576D01*
X20243914Y-3028671D01*
X20167723Y-3028671D01*
X20053438Y-2990576D01*
X19596295Y-2533433D01*
X19596295Y-3028671D01*
X19672485Y-3828671D02*
X19634390Y-3790576D01*
X19596295Y-3676290D01*
X19596295Y-3600100D01*
X19634390Y-3485814D01*
X19710580Y-3409623D01*
X19786771Y-3371528D01*
X19939152Y-3333433D01*
X20053438Y-3333433D01*
X20205819Y-3371528D01*
X20282009Y-3409623D01*
X20358200Y-3485814D01*
X20396295Y-3600100D01*
X20396295Y-3676290D01*
X20358200Y-3790576D01*
X20320104Y-3828671D01*
X19596295Y-4171528D02*
X20396295Y-4171528D01*
X19596295Y-4628671D02*
X20053438Y-4285814D01*
X20396295Y-4628671D02*
X19939152Y-4171528D01*
X14575628Y-9957142D02*
X15185152Y-9957142D01*
X14880390Y-10261904D02*
X14880390Y-9652380D01*
X15947057Y-9461904D02*
X15566104Y-9461904D01*
X15528009Y-9842857D01*
X15566104Y-9804761D01*
X15642295Y-9766666D01*
X15832771Y-9766666D01*
X15908961Y-9804761D01*
X15947057Y-9842857D01*
X15985152Y-9919047D01*
X15985152Y-10109523D01*
X15947057Y-10185714D01*
X15908961Y-10223809D01*
X15832771Y-10261904D01*
X15642295Y-10261904D01*
X15566104Y-10223809D01*
X15528009Y-10185714D01*
X16213723Y-9461904D02*
X16480390Y-10261904D01*
X16747057Y-9461904D01*
X13799438Y-9361904D02*
X13799438Y-8561904D01*
X13989914Y-8561904D01*
X14104200Y-8600000D01*
X14180390Y-8676190D01*
X14218485Y-8752380D01*
X14256580Y-8904761D01*
X14256580Y-9019047D01*
X14218485Y-9171428D01*
X14180390Y-9247619D01*
X14104200Y-9323809D01*
X13989914Y-9361904D01*
X13799438Y-9361904D01*
X14599438Y-9057142D02*
X15208961Y-9057142D01*
X14199438Y-5861904D02*
X14199438Y-5061904D01*
X14389914Y-5061904D01*
X14504200Y-5100000D01*
X14580390Y-5176190D01*
X14618485Y-5252380D01*
X14656580Y-5404761D01*
X14656580Y-5519047D01*
X14618485Y-5671428D01*
X14580390Y-5747619D01*
X14504200Y-5823809D01*
X14389914Y-5861904D01*
X14199438Y-5861904D01*
X14999438Y-5557142D02*
X15608961Y-5557142D01*
X15304200Y-5861904D02*
X15304200Y-5252380D01*
X15540476Y-3700000D02*
X15464285Y-3661904D01*
X15350000Y-3661904D01*
X15235714Y-3700000D01*
X15159523Y-3776190D01*
X15121428Y-3852380D01*
X15083333Y-4004761D01*
X15083333Y-4119047D01*
X15121428Y-4271428D01*
X15159523Y-4347619D01*
X15235714Y-4423809D01*
X15350000Y-4461904D01*
X15426190Y-4461904D01*
X15540476Y-4423809D01*
X15578571Y-4385714D01*
X15578571Y-4119047D01*
X15426190Y-4119047D01*
X15921428Y-4461904D02*
X15921428Y-3661904D01*
X16378571Y-4461904D01*
X16378571Y-3661904D01*
X16759523Y-4461904D02*
X16759523Y-3661904D01*
X16950000Y-3661904D01*
X17064285Y-3700000D01*
X17140476Y-3776190D01*
X17178571Y-3852380D01*
X17216666Y-4004761D01*
X17216666Y-4119047D01*
X17178571Y-4271428D01*
X17140476Y-4347619D01*
X17064285Y-4423809D01*
X16950000Y-4461904D01*
X16759523Y-4461904D01*
X26052872Y-10324800D02*
G75*
G03X26052872Y-10324800I-1395672J0D01*
G01*
X27970572Y-8192529D02*
G75*
G03X27970572Y-8192529I-1395672J0D01*
G01*
X24274872Y-8129029D02*
G75*
G03X24274872Y-8129029I-1395672J0D01*
G01*
X24274872Y-5360429D02*
G75*
G03X24274872Y-5360429I-1395672J0D01*
G01*
X27997301Y-5448000D02*
G75*
G03X27997301Y-5448000I-1395672J0D01*
G01*
X26193901Y-3314400D02*
G75*
G03X26193901Y-3314400I-1395672J0D01*
G01*
D11*
G04 #@! TO.C,J1*
X15974020Y-11661490D02*
X15974020Y-12761310D01*
X15974020Y-2263490D02*
X15974020Y-1163670D01*
D10*
G04 #@! TO.C,U1*
X9850000Y-5950000D02*
X9850000Y-8950000D01*
X9850000Y-8950000D02*
X10350000Y-9450000D01*
X10350000Y-9450000D02*
X13350000Y-9450000D01*
X13350000Y-9450000D02*
X13350000Y-5950000D01*
X13350000Y-5950000D02*
X9850000Y-5950000D01*
X10100000Y-9200000D02*
X10100000Y-9200000D01*
X10100000Y-6200000D02*
X10100000Y-6200000D01*
X10100000Y-6200000D02*
X10100000Y-6200000D01*
X13100000Y-9200000D02*
X13100000Y-9200000D01*
X13100000Y-9200000D02*
X13100000Y-9200000D01*
X13100000Y-6200000D02*
X13100000Y-6200000D01*
X13100000Y-6200000D02*
X13100000Y-6200000D01*
D12*
G04 #@! TO.C,C3*
X15030000Y-11050000D02*
X15030000Y-11550000D01*
X15970000Y-11550000D02*
X15970000Y-11050000D01*
G04 #@! TO.C,U2*
X11100000Y-14310000D02*
X12900000Y-14310000D01*
X12900000Y-11090000D02*
X10450000Y-11090000D01*
D10*
G04 #@! TO.C,U4*
X8475000Y-350000D02*
X8475000Y-2450000D01*
X11725000Y425000D02*
X11725000Y-2450000D01*
D12*
G04 #@! TO.C,C2*
X14074200Y-11050000D02*
X14074200Y-11550000D01*
X15014200Y-11550000D02*
X15014200Y-11050000D01*
G04 #@! TO.C,U3*
X12554200Y-1950000D02*
X12554200Y-650000D01*
X14354200Y-400000D02*
X14354200Y-1950000D01*
G04 #@! TO.C,R1*
X9404200Y-11170000D02*
X8904200Y-11170000D01*
X8904200Y-12230000D02*
X9404200Y-12230000D01*
G04 #@! TO.C,R2*
X10030000Y-13400000D02*
X10030000Y-12900000D01*
X8970000Y-12900000D02*
X8970000Y-13400000D01*
G04 #@! TO.C,R3*
X8104200Y-13170000D02*
X7604200Y-13170000D01*
X7604200Y-14230000D02*
X8104200Y-14230000D01*
G04 #@! TO.C,R4*
X13874200Y-7650000D02*
X13874200Y-8150000D01*
X14934200Y-8150000D02*
X14934200Y-7650000D01*
G04 #@! TO.C,R5*
X10254200Y-4630000D02*
X10754200Y-4630000D01*
X10754200Y-3570000D02*
X10254200Y-3570000D01*
G04 #@! TO.C,R7*
X12630000Y-4050000D02*
X12630000Y-3550000D01*
X11570000Y-3550000D02*
X11570000Y-4050000D01*
G04 #@! TO.C,C4*
X13724200Y-4050000D02*
X13724200Y-3550000D01*
X12784200Y-3550000D02*
X12784200Y-4050000D01*
G04 #@! TO.C,C1*
X11580000Y-1150000D02*
X11580000Y-1650000D01*
X12520000Y-1650000D02*
X12520000Y-1150000D01*
G04 #@! TO.C,C5*
X15670400Y-1764900D02*
X15170400Y-1764900D01*
X15170400Y-2704900D02*
X15670400Y-2704900D01*
G04 #@! TO.C,R6*
X15574200Y-790000D02*
X15074200Y-790000D01*
X15074200Y-1850000D02*
X15574200Y-1850000D01*
G04 #@! TO.C,J1*
D13*
X21933333Y-13552380D02*
X21933333Y-14266666D01*
X21980952Y-14409523D01*
X22076190Y-14504761D01*
X22219047Y-14552380D01*
X22314285Y-14552380D01*
X20933333Y-14552380D02*
X21504761Y-14552380D01*
X21219047Y-14552380D02*
X21219047Y-13552380D01*
X21314285Y-13695238D01*
X21409523Y-13790476D01*
X21504761Y-13838095D01*
D14*
G04 #@! TO.C,U1*
D10*
X7539914Y-6492857D02*
X7539914Y-7464285D01*
X7597057Y-7578571D01*
X7654200Y-7635714D01*
X7768485Y-7692857D01*
X7997057Y-7692857D01*
X8111342Y-7635714D01*
X8168485Y-7578571D01*
X8225628Y-7464285D01*
X8225628Y-6492857D01*
X9425628Y-7692857D02*
X8739914Y-7692857D01*
X9082771Y-7692857D02*
X9082771Y-6492857D01*
X8968485Y-6664285D01*
X8854200Y-6778571D01*
X8739914Y-6835714D01*
G04 #@! TO.C,C3*
X15689914Y-13233333D02*
X15728009Y-13271428D01*
X15766104Y-13385714D01*
X15766104Y-13461904D01*
X15728009Y-13576190D01*
X15651819Y-13652380D01*
X15575628Y-13690476D01*
X15423247Y-13728571D01*
X15308961Y-13728571D01*
X15156580Y-13690476D01*
X15080390Y-13652380D01*
X15004200Y-13576190D01*
X14966104Y-13461904D01*
X14966104Y-13385714D01*
X15004200Y-13271428D01*
X15042295Y-13233333D01*
X14966104Y-12966666D02*
X14966104Y-12471428D01*
X15270866Y-12738095D01*
X15270866Y-12623809D01*
X15308961Y-12547619D01*
X15347057Y-12509523D01*
X15423247Y-12471428D01*
X15613723Y-12471428D01*
X15689914Y-12509523D01*
X15728009Y-12547619D01*
X15766104Y-12623809D01*
X15766104Y-12852380D01*
X15728009Y-12928571D01*
X15689914Y-12966666D01*
G04 #@! TO.C,U2*
X11694676Y-9961904D02*
X11694676Y-10609523D01*
X11732771Y-10685714D01*
X11770866Y-10723809D01*
X11847057Y-10761904D01*
X11999438Y-10761904D01*
X12075628Y-10723809D01*
X12113723Y-10685714D01*
X12151819Y-10609523D01*
X12151819Y-9961904D01*
X12494676Y-10038095D02*
X12532771Y-10000000D01*
X12608961Y-9961904D01*
X12799438Y-9961904D01*
X12875628Y-10000000D01*
X12913723Y-10038095D01*
X12951819Y-10114285D01*
X12951819Y-10190476D01*
X12913723Y-10304761D01*
X12456580Y-10761904D01*
X12951819Y-10761904D01*
G04 #@! TO.C,U4*
X5152295Y-882380D02*
X5152295Y-1691904D01*
X5199914Y-1787142D01*
X5247533Y-1834761D01*
X5342771Y-1882380D01*
X5533247Y-1882380D01*
X5628485Y-1834761D01*
X5676104Y-1787142D01*
X5723723Y-1691904D01*
X5723723Y-882380D01*
X6628485Y-1215714D02*
X6628485Y-1882380D01*
X6390390Y-834761D02*
X6152295Y-1549047D01*
X6771342Y-1549047D01*
G04 #@! TO.C,C2*
X14579914Y-13233333D02*
X14618009Y-13271428D01*
X14656104Y-13385714D01*
X14656104Y-13461904D01*
X14618009Y-13576190D01*
X14541819Y-13652380D01*
X14465628Y-13690476D01*
X14313247Y-13728571D01*
X14198961Y-13728571D01*
X14046580Y-13690476D01*
X13970390Y-13652380D01*
X13894200Y-13576190D01*
X13856104Y-13461904D01*
X13856104Y-13385714D01*
X13894200Y-13271428D01*
X13932295Y-13233333D01*
X13932295Y-12928571D02*
X13894200Y-12890476D01*
X13856104Y-12814285D01*
X13856104Y-12623809D01*
X13894200Y-12547619D01*
X13932295Y-12509523D01*
X14008485Y-12471428D01*
X14084676Y-12471428D01*
X14198961Y-12509523D01*
X14656104Y-12966666D01*
X14656104Y-12471428D01*
G04 #@! TO.C,U3*
X12692295Y873220D02*
X12692295Y63696D01*
X12739914Y-31542D01*
X12787533Y-79161D01*
X12882771Y-126780D01*
X13073247Y-126780D01*
X13168485Y-79161D01*
X13216104Y-31542D01*
X13263723Y63696D01*
X13263723Y873220D01*
X13644676Y873220D02*
X14263723Y873220D01*
X13930390Y492267D01*
X14073247Y492267D01*
X14168485Y444648D01*
X14216104Y397029D01*
X14263723Y301791D01*
X14263723Y63696D01*
X14216104Y-31542D01*
X14168485Y-79161D01*
X14073247Y-126780D01*
X13787533Y-126780D01*
X13692295Y-79161D01*
X13644676Y-31542D01*
G04 #@! TO.C,R1*
X7214613Y-12213340D02*
X6881280Y-11737150D01*
X6643184Y-12213340D02*
X6643184Y-11213340D01*
X7024137Y-11213340D01*
X7119375Y-11260960D01*
X7166994Y-11308579D01*
X7214613Y-11403817D01*
X7214613Y-11546674D01*
X7166994Y-11641912D01*
X7119375Y-11689531D01*
X7024137Y-11737150D01*
X6643184Y-11737150D01*
X8166994Y-12213340D02*
X7595565Y-12213340D01*
X7881280Y-12213340D02*
X7881280Y-11213340D01*
X7786041Y-11356198D01*
X7690803Y-11451436D01*
X7595565Y-11499055D01*
G04 #@! TO.C,R2*
X9303333Y-14922380D02*
X8970000Y-14446190D01*
X8731904Y-14922380D02*
X8731904Y-13922380D01*
X9112857Y-13922380D01*
X9208095Y-13970000D01*
X9255714Y-14017619D01*
X9303333Y-14112857D01*
X9303333Y-14255714D01*
X9255714Y-14350952D01*
X9208095Y-14398571D01*
X9112857Y-14446190D01*
X8731904Y-14446190D01*
X9684285Y-14017619D02*
X9731904Y-13970000D01*
X9827142Y-13922380D01*
X10065238Y-13922380D01*
X10160476Y-13970000D01*
X10208095Y-14017619D01*
X10255714Y-14112857D01*
X10255714Y-14208095D01*
X10208095Y-14350952D01*
X9636666Y-14922380D01*
X10255714Y-14922380D01*
G04 #@! TO.C,R3*
X5847533Y-14162380D02*
X5514200Y-13686190D01*
X5276104Y-14162380D02*
X5276104Y-13162380D01*
X5657057Y-13162380D01*
X5752295Y-13210000D01*
X5799914Y-13257619D01*
X5847533Y-13352857D01*
X5847533Y-13495714D01*
X5799914Y-13590952D01*
X5752295Y-13638571D01*
X5657057Y-13686190D01*
X5276104Y-13686190D01*
X6180866Y-13162380D02*
X6799914Y-13162380D01*
X6466580Y-13543333D01*
X6609438Y-13543333D01*
X6704676Y-13590952D01*
X6752295Y-13638571D01*
X6799914Y-13733809D01*
X6799914Y-13971904D01*
X6752295Y-14067142D01*
X6704676Y-14114761D01*
X6609438Y-14162380D01*
X6323723Y-14162380D01*
X6228485Y-14114761D01*
X6180866Y-14067142D01*
G04 #@! TO.C,R4*
X14087533Y-7116666D02*
X13854200Y-6783333D01*
X13687533Y-7116666D02*
X13687533Y-6416666D01*
X13954200Y-6416666D01*
X14020866Y-6450000D01*
X14054200Y-6483333D01*
X14087533Y-6550000D01*
X14087533Y-6650000D01*
X14054200Y-6716666D01*
X14020866Y-6750000D01*
X13954200Y-6783333D01*
X13687533Y-6783333D01*
X14687533Y-6650000D02*
X14687533Y-7116666D01*
X14520866Y-6383333D02*
X14354200Y-6883333D01*
X14787533Y-6883333D01*
G04 #@! TO.C,R5*
X5737533Y-4752380D02*
X5404200Y-4276190D01*
X5166104Y-4752380D02*
X5166104Y-3752380D01*
X5547057Y-3752380D01*
X5642295Y-3800000D01*
X5689914Y-3847619D01*
X5737533Y-3942857D01*
X5737533Y-4085714D01*
X5689914Y-4180952D01*
X5642295Y-4228571D01*
X5547057Y-4276190D01*
X5166104Y-4276190D01*
X6642295Y-3752380D02*
X6166104Y-3752380D01*
X6118485Y-4228571D01*
X6166104Y-4180952D01*
X6261342Y-4133333D01*
X6499438Y-4133333D01*
X6594676Y-4180952D01*
X6642295Y-4228571D01*
X6689914Y-4323809D01*
X6689914Y-4561904D01*
X6642295Y-4657142D01*
X6594676Y-4704761D01*
X6499438Y-4752380D01*
X6261342Y-4752380D01*
X6166104Y-4704761D01*
X6118485Y-4657142D01*
G04 #@! TO.C,R7*
X8006580Y-4616666D02*
X7530390Y-4950000D01*
X8006580Y-5188095D02*
X7006580Y-5188095D01*
X7006580Y-4807142D01*
X7054200Y-4711904D01*
X7101819Y-4664285D01*
X7197057Y-4616666D01*
X7339914Y-4616666D01*
X7435152Y-4664285D01*
X7482771Y-4711904D01*
X7530390Y-4807142D01*
X7530390Y-5188095D01*
X7006580Y-4283333D02*
X7006580Y-3616666D01*
X8006580Y-4045238D01*
G04 #@! TO.C,C4*
X9161342Y-4616666D02*
X9208961Y-4664285D01*
X9256580Y-4807142D01*
X9256580Y-4902380D01*
X9208961Y-5045238D01*
X9113723Y-5140476D01*
X9018485Y-5188095D01*
X8828009Y-5235714D01*
X8685152Y-5235714D01*
X8494676Y-5188095D01*
X8399438Y-5140476D01*
X8304200Y-5045238D01*
X8256580Y-4902380D01*
X8256580Y-4807142D01*
X8304200Y-4664285D01*
X8351819Y-4616666D01*
X8589914Y-3759523D02*
X9256580Y-3759523D01*
X8208961Y-3997619D02*
X8923247Y-4235714D01*
X8923247Y-3616666D01*
G04 #@! TO.C,C1*
X8021342Y-1486666D02*
X8068961Y-1534285D01*
X8116580Y-1677142D01*
X8116580Y-1772380D01*
X8068961Y-1915238D01*
X7973723Y-2010476D01*
X7878485Y-2058095D01*
X7688009Y-2105714D01*
X7545152Y-2105714D01*
X7354676Y-2058095D01*
X7259438Y-2010476D01*
X7164200Y-1915238D01*
X7116580Y-1772380D01*
X7116580Y-1677142D01*
X7164200Y-1534285D01*
X7211819Y-1486666D01*
X8116580Y-534285D02*
X8116580Y-1105714D01*
X8116580Y-820000D02*
X7116580Y-820000D01*
X7259438Y-915238D01*
X7354676Y-1010476D01*
X7402295Y-1105714D01*
G04 #@! TO.C,TP1*
X23649295Y-2931880D02*
X24220723Y-2931880D01*
X23935009Y-3931880D02*
X23935009Y-2931880D01*
X24554057Y-3931880D02*
X24554057Y-2931880D01*
X24935009Y-2931880D01*
X25030247Y-2979500D01*
X25077866Y-3027119D01*
X25125485Y-3122357D01*
X25125485Y-3265214D01*
X25077866Y-3360452D01*
X25030247Y-3408071D01*
X24935009Y-3455690D01*
X24554057Y-3455690D01*
X26077866Y-3931880D02*
X25506438Y-3931880D01*
X25792152Y-3931880D02*
X25792152Y-2931880D01*
X25696914Y-3074738D01*
X25601676Y-3169976D01*
X25506438Y-3217595D01*
G04 #@! TO.C,TP5*
X25351095Y-4989280D02*
X25922523Y-4989280D01*
X25636809Y-5989280D02*
X25636809Y-4989280D01*
X26255857Y-5989280D02*
X26255857Y-4989280D01*
X26636809Y-4989280D01*
X26732047Y-5036900D01*
X26779666Y-5084519D01*
X26827285Y-5179757D01*
X26827285Y-5322614D01*
X26779666Y-5417852D01*
X26732047Y-5465471D01*
X26636809Y-5513090D01*
X26255857Y-5513090D01*
X27732047Y-4989280D02*
X27255857Y-4989280D01*
X27208238Y-5465471D01*
X27255857Y-5417852D01*
X27351095Y-5370233D01*
X27589190Y-5370233D01*
X27684428Y-5417852D01*
X27732047Y-5465471D01*
X27779666Y-5560709D01*
X27779666Y-5798804D01*
X27732047Y-5894042D01*
X27684428Y-5941661D01*
X27589190Y-5989280D01*
X27351095Y-5989280D01*
X27255857Y-5941661D01*
X27208238Y-5894042D01*
G04 #@! TO.C,TP2*
X21629995Y-4887680D02*
X22201423Y-4887680D01*
X21915709Y-5887680D02*
X21915709Y-4887680D01*
X22534757Y-5887680D02*
X22534757Y-4887680D01*
X22915709Y-4887680D01*
X23010947Y-4935300D01*
X23058566Y-4982919D01*
X23106185Y-5078157D01*
X23106185Y-5221014D01*
X23058566Y-5316252D01*
X23010947Y-5363871D01*
X22915709Y-5411490D01*
X22534757Y-5411490D01*
X23487138Y-4982919D02*
X23534757Y-4935300D01*
X23629995Y-4887680D01*
X23868090Y-4887680D01*
X23963328Y-4935300D01*
X24010947Y-4982919D01*
X24058566Y-5078157D01*
X24058566Y-5173395D01*
X24010947Y-5316252D01*
X23439519Y-5887680D01*
X24058566Y-5887680D01*
G04 #@! TO.C,TP3*
X21617295Y-7707080D02*
X22188723Y-7707080D01*
X21903009Y-8707080D02*
X21903009Y-7707080D01*
X22522057Y-8707080D02*
X22522057Y-7707080D01*
X22903009Y-7707080D01*
X22998247Y-7754700D01*
X23045866Y-7802319D01*
X23093485Y-7897557D01*
X23093485Y-8040414D01*
X23045866Y-8135652D01*
X22998247Y-8183271D01*
X22903009Y-8230890D01*
X22522057Y-8230890D01*
X23426819Y-7707080D02*
X24045866Y-7707080D01*
X23712533Y-8088033D01*
X23855390Y-8088033D01*
X23950628Y-8135652D01*
X23998247Y-8183271D01*
X24045866Y-8278509D01*
X24045866Y-8516604D01*
X23998247Y-8611842D01*
X23950628Y-8659461D01*
X23855390Y-8707080D01*
X23569676Y-8707080D01*
X23474438Y-8659461D01*
X23426819Y-8611842D01*
G04 #@! TO.C,TP6*
X25351095Y-7757880D02*
X25922523Y-7757880D01*
X25636809Y-8757880D02*
X25636809Y-7757880D01*
X26255857Y-8757880D02*
X26255857Y-7757880D01*
X26636809Y-7757880D01*
X26732047Y-7805500D01*
X26779666Y-7853119D01*
X26827285Y-7948357D01*
X26827285Y-8091214D01*
X26779666Y-8186452D01*
X26732047Y-8234071D01*
X26636809Y-8281690D01*
X26255857Y-8281690D01*
X27684428Y-7757880D02*
X27493952Y-7757880D01*
X27398714Y-7805500D01*
X27351095Y-7853119D01*
X27255857Y-7995976D01*
X27208238Y-8186452D01*
X27208238Y-8567404D01*
X27255857Y-8662642D01*
X27303476Y-8710261D01*
X27398714Y-8757880D01*
X27589190Y-8757880D01*
X27684428Y-8710261D01*
X27732047Y-8662642D01*
X27779666Y-8567404D01*
X27779666Y-8329309D01*
X27732047Y-8234071D01*
X27684428Y-8186452D01*
X27589190Y-8138833D01*
X27398714Y-8138833D01*
X27303476Y-8186452D01*
X27255857Y-8234071D01*
X27208238Y-8329309D01*
G04 #@! TO.C,TP4*
X23458795Y-9840680D02*
X24030223Y-9840680D01*
X23744509Y-10840680D02*
X23744509Y-9840680D01*
X24363557Y-10840680D02*
X24363557Y-9840680D01*
X24744509Y-9840680D01*
X24839747Y-9888300D01*
X24887366Y-9935919D01*
X24934985Y-10031157D01*
X24934985Y-10174014D01*
X24887366Y-10269252D01*
X24839747Y-10316871D01*
X24744509Y-10364490D01*
X24363557Y-10364490D01*
X25792128Y-10174014D02*
X25792128Y-10840680D01*
X25554033Y-9793061D02*
X25315938Y-10507347D01*
X25934985Y-10507347D01*
G04 #@! TO.C,C5*
X14366666Y-3585714D02*
X14328571Y-3623809D01*
X14214285Y-3661904D01*
X14138095Y-3661904D01*
X14023809Y-3623809D01*
X13947619Y-3547619D01*
X13909523Y-3471428D01*
X13871428Y-3319047D01*
X13871428Y-3204761D01*
X13909523Y-3052380D01*
X13947619Y-2976190D01*
X14023809Y-2900000D01*
X14138095Y-2861904D01*
X14214285Y-2861904D01*
X14328571Y-2900000D01*
X14366666Y-2938095D01*
X15090476Y-2861904D02*
X14709523Y-2861904D01*
X14671428Y-3242857D01*
X14709523Y-3204761D01*
X14785714Y-3166666D01*
X14976190Y-3166666D01*
X15052380Y-3204761D01*
X15090476Y-3242857D01*
X15128571Y-3319047D01*
X15128571Y-3509523D01*
X15090476Y-3585714D01*
X15052380Y-3623809D01*
X14976190Y-3661904D01*
X14785714Y-3661904D01*
X14709523Y-3623809D01*
X14671428Y-3585714D01*
G04 #@! TO.C,R6*
X15016666Y-761904D02*
X14750000Y-380952D01*
X14559523Y-761904D02*
X14559523Y38096D01*
X14864285Y38096D01*
X14940476Y0D01*
X14978571Y-38095D01*
X15016666Y-114285D01*
X15016666Y-228571D01*
X14978571Y-304761D01*
X14940476Y-342857D01*
X14864285Y-380952D01*
X14559523Y-380952D01*
X15702380Y38096D02*
X15550000Y38096D01*
X15473809Y0D01*
X15435714Y-38095D01*
X15359523Y-152380D01*
X15321428Y-304761D01*
X15321428Y-609523D01*
X15359523Y-685714D01*
X15397619Y-723809D01*
X15473809Y-761904D01*
X15626190Y-761904D01*
X15702380Y-723809D01*
X15740476Y-685714D01*
X15778571Y-609523D01*
X15778571Y-419047D01*
X15740476Y-342857D01*
X15702380Y-304761D01*
X15626190Y-266666D01*
X15473809Y-266666D01*
X15397619Y-304761D01*
X15359523Y-342857D01*
X15321428Y-419047D01*
G04 #@! TD*
M02*
