M48
;DRILL file {KiCad (5.0.1)-4} date 21.12.2018 18:47:35
;FORMAT={-:-/ absolute / metric / decimal}
FMAT,2
METRIC,TZ
T1C0.200
T2C1.001
T3C1.100
%
G90
G05
M71
T1
X-11.589Y-6.744
X-0.667Y-6.312
X-0.559Y-2.204
X-0.553Y1.702
X-0.42Y2.338
X-0.045Y-3.048
X0.463Y1.981
X0.643Y4.315
X0.663Y3.663
X0.725Y-0.153
X0.92Y5.562
X1.2Y-5.918
X1.738Y-2.197
X1.853Y4.09
X2.344Y-5.918
X2.419Y-2.172
X2.529Y4.094
X3.148Y0.681
X3.714Y-5.372
X3.968Y0.001
X4.278Y2.121
X5.429Y-4.623
X6.965Y-7.43
X7.004Y0.101
X7.016Y7.125
X7.918Y2.832
X8.068Y-2.654
T3
X7.Y2.234
X7.Y-2.266
T2
X7.749Y5.684G85X6.25Y5.684
G05
X7.749Y-5.716G85X6.25Y-5.716
G05
T0
M30
