G04 #@! TF.GenerationSoftware,KiCad,Pcbnew,(5.0.1)-4*
G04 #@! TF.CreationDate,2019-04-02T18:22:59+02:00*
G04 #@! TF.ProjectId,nk-u2f,6E6B2D7532662E6B696361645F706362,R8*
G04 #@! TF.SameCoordinates,PX6e8e008PY57c9250*
G04 #@! TF.FileFunction,Legend,Bot*
G04 #@! TF.FilePolarity,Positive*
%FSLAX46Y46*%
G04 Gerber Fmt 4.6, Leading zero omitted, Abs format (unit mm)*
G04 Created by KiCad (PCBNEW (5.0.1)-4) date 02.04.2019 18:22:59*
%MOMM*%
%LPD*%
G01*
G04 APERTURE LIST*
%ADD10C,0.150000*%
%ADD11C,0.120000*%
G04 APERTURE END LIST*
D10*
X12175628Y-12328571D02*
X12175628Y-12661904D01*
X11651819Y-12661904D02*
X12651819Y-12661904D01*
X12651819Y-12185714D01*
X11651819Y-11804761D02*
X12651819Y-11804761D01*
X11651819Y-11328571D02*
X12651819Y-11328571D01*
X12651819Y-11090476D01*
X12604200Y-10947619D01*
X12508961Y-10852380D01*
X12413723Y-10804761D01*
X12223247Y-10757142D01*
X12080390Y-10757142D01*
X11889914Y-10804761D01*
X11794676Y-10852380D01*
X11699438Y-10947619D01*
X11651819Y-11090476D01*
X11651819Y-11328571D01*
X12651819Y-10138095D02*
X12651819Y-9947619D01*
X12604200Y-9852380D01*
X12508961Y-9757142D01*
X12318485Y-9709523D01*
X11985152Y-9709523D01*
X11794676Y-9757142D01*
X11699438Y-9852380D01*
X11651819Y-9947619D01*
X11651819Y-10138095D01*
X11699438Y-10233333D01*
X11794676Y-10328571D01*
X11985152Y-10376190D01*
X12318485Y-10376190D01*
X12508961Y-10328571D01*
X12604200Y-10233333D01*
X12651819Y-10138095D01*
X12651819Y-8519047D02*
X11842295Y-8519047D01*
X11747057Y-8471428D01*
X11699438Y-8423809D01*
X11651819Y-8328571D01*
X11651819Y-8138095D01*
X11699438Y-8042857D01*
X11747057Y-7995238D01*
X11842295Y-7947619D01*
X12651819Y-7947619D01*
X12556580Y-7519047D02*
X12604200Y-7471428D01*
X12651819Y-7376190D01*
X12651819Y-7138095D01*
X12604200Y-7042857D01*
X12556580Y-6995238D01*
X12461342Y-6947619D01*
X12366104Y-6947619D01*
X12223247Y-6995238D01*
X11651819Y-7566666D01*
X11651819Y-6947619D01*
X12175628Y-6185714D02*
X12175628Y-6519047D01*
X11651819Y-6519047D02*
X12651819Y-6519047D01*
X12651819Y-6042857D01*
X13251819Y-12685714D02*
X14251819Y-12685714D01*
X13251819Y-12114285D01*
X14251819Y-12114285D01*
X13251819Y-11638095D02*
X13918485Y-11638095D01*
X14251819Y-11638095D02*
X14204200Y-11685714D01*
X14156580Y-11638095D01*
X14204200Y-11590476D01*
X14251819Y-11638095D01*
X14156580Y-11638095D01*
X13918485Y-11304761D02*
X13918485Y-10923809D01*
X14251819Y-11161904D02*
X13394676Y-11161904D01*
X13299438Y-11114285D01*
X13251819Y-11019047D01*
X13251819Y-10923809D01*
X13251819Y-10590476D02*
X13918485Y-10590476D01*
X13728009Y-10590476D02*
X13823247Y-10542857D01*
X13870866Y-10495238D01*
X13918485Y-10400000D01*
X13918485Y-10304761D01*
X13251819Y-9828571D02*
X13299438Y-9923809D01*
X13347057Y-9971428D01*
X13442295Y-10019047D01*
X13728009Y-10019047D01*
X13823247Y-9971428D01*
X13870866Y-9923809D01*
X13918485Y-9828571D01*
X13918485Y-9685714D01*
X13870866Y-9590476D01*
X13823247Y-9542857D01*
X13728009Y-9495238D01*
X13442295Y-9495238D01*
X13347057Y-9542857D01*
X13299438Y-9590476D01*
X13251819Y-9685714D01*
X13251819Y-9828571D01*
X13251819Y-9066666D02*
X14251819Y-9066666D01*
X13632771Y-8971428D02*
X13251819Y-8685714D01*
X13918485Y-8685714D02*
X13537533Y-9066666D01*
X13299438Y-7876190D02*
X13251819Y-7971428D01*
X13251819Y-8161904D01*
X13299438Y-8257142D01*
X13394676Y-8304761D01*
X13775628Y-8304761D01*
X13870866Y-8257142D01*
X13918485Y-8161904D01*
X13918485Y-7971428D01*
X13870866Y-7876190D01*
X13775628Y-7828571D01*
X13680390Y-7828571D01*
X13585152Y-8304761D01*
X13918485Y-7495238D02*
X13251819Y-7257142D01*
X13918485Y-7019047D02*
X13251819Y-7257142D01*
X13013723Y-7352380D01*
X12966104Y-7400000D01*
X12918485Y-7495238D01*
X10151819Y-12066666D02*
X10628009Y-12400000D01*
X10151819Y-12638095D02*
X11151819Y-12638095D01*
X11151819Y-12257142D01*
X11104200Y-12161904D01*
X11056580Y-12114285D01*
X10961342Y-12066666D01*
X10818485Y-12066666D01*
X10723247Y-12114285D01*
X10675628Y-12161904D01*
X10628009Y-12257142D01*
X10628009Y-12638095D01*
X10151819Y-11590476D02*
X10151819Y-11400000D01*
X10199438Y-11304761D01*
X10247057Y-11257142D01*
X10389914Y-11161904D01*
X10580390Y-11114285D01*
X10961342Y-11114285D01*
X11056580Y-11161904D01*
X11104200Y-11209523D01*
X11151819Y-11304761D01*
X11151819Y-11495238D01*
X11104200Y-11590476D01*
X11056580Y-11638095D01*
X10961342Y-11685714D01*
X10723247Y-11685714D01*
X10628009Y-11638095D01*
X10580390Y-11590476D01*
X10532771Y-11495238D01*
X10532771Y-11304761D01*
X10580390Y-11209523D01*
X10628009Y-11161904D01*
X10723247Y-11114285D01*
D11*
G04 #@! TO.C,D1*
X-58400Y-14140300D02*
X-58400Y-13240300D01*
X-58400Y-13240300D02*
X1391600Y-13240300D01*
X-58400Y-14140300D02*
X1391600Y-14140300D01*
D10*
X3551295Y-14269680D02*
X3551295Y-13269680D01*
X3313200Y-13269680D01*
X3170342Y-13317300D01*
X3075104Y-13412538D01*
X3027485Y-13507776D01*
X2979866Y-13698252D01*
X2979866Y-13841109D01*
X3027485Y-14031585D01*
X3075104Y-14126823D01*
X3170342Y-14222061D01*
X3313200Y-14269680D01*
X3551295Y-14269680D01*
X2027485Y-14269680D02*
X2598914Y-14269680D01*
X2313200Y-14269680D02*
X2313200Y-13269680D01*
X2408438Y-13412538D01*
X2503676Y-13507776D01*
X2598914Y-13555395D01*
G04 #@! TD*
M02*
