G04 #@! TF.GenerationSoftware,KiCad,Pcbnew,(5.0.1)-4*
G04 #@! TF.CreationDate,2019-04-02T18:22:58+02:00*
G04 #@! TF.ProjectId,nk-u2f,6E6B2D7532662E6B696361645F706362,R8*
G04 #@! TF.SameCoordinates,PX6e8e008PY57c9250*
G04 #@! TF.FileFunction,Copper,L1,Top,Signal*
G04 #@! TF.FilePolarity,Positive*
%FSLAX46Y46*%
G04 Gerber Fmt 4.6, Leading zero omitted, Abs format (unit mm)*
G04 Created by KiCad (PCBNEW (5.0.1)-4) date 02.04.2019 18:22:58*
%MOMM*%
%LPD*%
G01*
G04 APERTURE LIST*
G04 #@! TA.AperFunction,EtchedComponent*
%ADD10C,0.150000*%
G04 #@! TD*
G04 #@! TA.AperFunction,ComponentPad*
%ADD11C,1.099820*%
G04 #@! TD*
G04 #@! TA.AperFunction,ComponentPad*
%ADD12O,3.500120X1.501140*%
G04 #@! TD*
G04 #@! TA.AperFunction,SMDPad,CuDef*
%ADD13R,0.340000X0.340000*%
G04 #@! TD*
G04 #@! TA.AperFunction,Conductor*
%ADD14C,0.150000*%
G04 #@! TD*
G04 #@! TA.AperFunction,SMDPad,CuDef*
%ADD15C,0.300000*%
G04 #@! TD*
G04 #@! TA.AperFunction,SMDPad,CuDef*
%ADD16R,0.900000X0.900000*%
G04 #@! TD*
G04 #@! TA.AperFunction,SMDPad,CuDef*
%ADD17R,0.500000X0.600000*%
G04 #@! TD*
G04 #@! TA.AperFunction,SMDPad,CuDef*
%ADD18R,1.060000X0.650000*%
G04 #@! TD*
G04 #@! TA.AperFunction,SMDPad,CuDef*
%ADD19R,0.250000X0.700000*%
G04 #@! TD*
G04 #@! TA.AperFunction,SMDPad,CuDef*
%ADD20R,1.190000X0.830000*%
G04 #@! TD*
G04 #@! TA.AperFunction,SMDPad,CuDef*
%ADD21R,0.300000X0.450000*%
G04 #@! TD*
G04 #@! TA.AperFunction,SMDPad,CuDef*
%ADD22R,0.400000X0.600000*%
G04 #@! TD*
G04 #@! TA.AperFunction,SMDPad,CuDef*
%ADD23R,0.600000X0.400000*%
G04 #@! TD*
G04 #@! TA.AperFunction,BGAPad,CuDef*
%ADD24C,1.800000*%
G04 #@! TD*
G04 #@! TA.AperFunction,SMDPad,CuDef*
%ADD25R,0.600000X0.500000*%
G04 #@! TD*
G04 #@! TA.AperFunction,BGAPad,CuDef*
%ADD26C,0.500000*%
G04 #@! TD*
G04 #@! TA.AperFunction,ViaPad*
%ADD27C,0.500000*%
G04 #@! TD*
G04 #@! TA.AperFunction,Conductor*
%ADD28C,0.300000*%
G04 #@! TD*
G04 #@! TA.AperFunction,Conductor*
%ADD29C,0.250000*%
G04 #@! TD*
G04 #@! TA.AperFunction,Conductor*
%ADD30C,0.200000*%
G04 #@! TD*
G04 #@! TA.AperFunction,Conductor*
%ADD31C,0.350000*%
G04 #@! TD*
G04 #@! TA.AperFunction,Conductor*
%ADD32C,0.400000*%
G04 #@! TD*
G04 APERTURE END LIST*
D10*
G04 #@! TO.C,J1*
G36*
X16974600Y-662730D02*
X16374600Y-1262730D01*
X16374600Y837270D01*
X19774600Y837270D01*
X19774600Y-1262730D01*
X19174600Y-662730D01*
X16974600Y-662730D01*
G37*
X16974600Y-662730D02*
X16374600Y-1262730D01*
X16374600Y837270D01*
X19774600Y837270D01*
X19774600Y-1262730D01*
X19174600Y-662730D01*
X16974600Y-662730D01*
G36*
X19174600Y-13262250D02*
X19774600Y-12662250D01*
X19774600Y-14762250D01*
X16374600Y-14762250D01*
X16374600Y-12662250D01*
X16974600Y-13262250D01*
X19174600Y-13262250D01*
G37*
X19174600Y-13262250D02*
X19774600Y-12662250D01*
X19774600Y-14762250D01*
X16374600Y-14762250D01*
X16374600Y-12662250D01*
X16974600Y-13262250D01*
X19174600Y-13262250D01*
G04 #@! TD*
D11*
G04 #@! TO.P,J1,8*
G04 #@! TO.N,N/C*
X18074600Y-4712050D03*
G04 #@! TO.P,J1,7*
X18074600Y-9212930D03*
D12*
G04 #@! TO.P,J1,6*
G04 #@! TO.N,Net-(C5-Pad1)*
X18074600Y-12662250D03*
G04 #@! TO.P,J1,5*
X18074600Y-1262730D03*
G04 #@! TD*
D13*
G04 #@! TO.P,U1,1*
G04 #@! TO.N,/Button*
X10350000Y-8950000D03*
D14*
G04 #@! TD*
G04 #@! TO.N,Net-(U1-Pad2)*
G04 #@! TO.C,U1*
G36*
X10932351Y-8800361D02*
X10939632Y-8801441D01*
X10946771Y-8803229D01*
X10953701Y-8805709D01*
X10960355Y-8808856D01*
X10966668Y-8812640D01*
X10972579Y-8817024D01*
X10978033Y-8821967D01*
X10982976Y-8827421D01*
X10987360Y-8833332D01*
X10991144Y-8839645D01*
X10994291Y-8846299D01*
X10996771Y-8853229D01*
X10998559Y-8860368D01*
X10999639Y-8867649D01*
X11000000Y-8875000D01*
X11000000Y-9625000D01*
X10999639Y-9632351D01*
X10998559Y-9639632D01*
X10996771Y-9646771D01*
X10994291Y-9653701D01*
X10991144Y-9660355D01*
X10987360Y-9666668D01*
X10982976Y-9672579D01*
X10978033Y-9678033D01*
X10972579Y-9682976D01*
X10966668Y-9687360D01*
X10960355Y-9691144D01*
X10953701Y-9694291D01*
X10946771Y-9696771D01*
X10939632Y-9698559D01*
X10932351Y-9699639D01*
X10925000Y-9700000D01*
X10775000Y-9700000D01*
X10767649Y-9699639D01*
X10760368Y-9698559D01*
X10753229Y-9696771D01*
X10746299Y-9694291D01*
X10739645Y-9691144D01*
X10733332Y-9687360D01*
X10727421Y-9682976D01*
X10721967Y-9678033D01*
X10717024Y-9672579D01*
X10712640Y-9666668D01*
X10708856Y-9660355D01*
X10705709Y-9653701D01*
X10703229Y-9646771D01*
X10701441Y-9639632D01*
X10700361Y-9632351D01*
X10700000Y-9625000D01*
X10700000Y-8875000D01*
X10700361Y-8867649D01*
X10701441Y-8860368D01*
X10703229Y-8853229D01*
X10705709Y-8846299D01*
X10708856Y-8839645D01*
X10712640Y-8833332D01*
X10717024Y-8827421D01*
X10721967Y-8821967D01*
X10727421Y-8817024D01*
X10733332Y-8812640D01*
X10739645Y-8808856D01*
X10746299Y-8805709D01*
X10753229Y-8803229D01*
X10760368Y-8801441D01*
X10767649Y-8800361D01*
X10775000Y-8800000D01*
X10925000Y-8800000D01*
X10932351Y-8800361D01*
X10932351Y-8800361D01*
G37*
D15*
G04 #@! TO.P,U1,2*
G04 #@! TO.N,Net-(U1-Pad2)*
X10850000Y-9250000D03*
D14*
G04 #@! TD*
G04 #@! TO.N,/GND*
G04 #@! TO.C,U1*
G36*
X11432351Y-8800361D02*
X11439632Y-8801441D01*
X11446771Y-8803229D01*
X11453701Y-8805709D01*
X11460355Y-8808856D01*
X11466668Y-8812640D01*
X11472579Y-8817024D01*
X11478033Y-8821967D01*
X11482976Y-8827421D01*
X11487360Y-8833332D01*
X11491144Y-8839645D01*
X11494291Y-8846299D01*
X11496771Y-8853229D01*
X11498559Y-8860368D01*
X11499639Y-8867649D01*
X11500000Y-8875000D01*
X11500000Y-9625000D01*
X11499639Y-9632351D01*
X11498559Y-9639632D01*
X11496771Y-9646771D01*
X11494291Y-9653701D01*
X11491144Y-9660355D01*
X11487360Y-9666668D01*
X11482976Y-9672579D01*
X11478033Y-9678033D01*
X11472579Y-9682976D01*
X11466668Y-9687360D01*
X11460355Y-9691144D01*
X11453701Y-9694291D01*
X11446771Y-9696771D01*
X11439632Y-9698559D01*
X11432351Y-9699639D01*
X11425000Y-9700000D01*
X11275000Y-9700000D01*
X11267649Y-9699639D01*
X11260368Y-9698559D01*
X11253229Y-9696771D01*
X11246299Y-9694291D01*
X11239645Y-9691144D01*
X11233332Y-9687360D01*
X11227421Y-9682976D01*
X11221967Y-9678033D01*
X11217024Y-9672579D01*
X11212640Y-9666668D01*
X11208856Y-9660355D01*
X11205709Y-9653701D01*
X11203229Y-9646771D01*
X11201441Y-9639632D01*
X11200361Y-9632351D01*
X11200000Y-9625000D01*
X11200000Y-8875000D01*
X11200361Y-8867649D01*
X11201441Y-8860368D01*
X11203229Y-8853229D01*
X11205709Y-8846299D01*
X11208856Y-8839645D01*
X11212640Y-8833332D01*
X11217024Y-8827421D01*
X11221967Y-8821967D01*
X11227421Y-8817024D01*
X11233332Y-8812640D01*
X11239645Y-8808856D01*
X11246299Y-8805709D01*
X11253229Y-8803229D01*
X11260368Y-8801441D01*
X11267649Y-8800361D01*
X11275000Y-8800000D01*
X11425000Y-8800000D01*
X11432351Y-8800361D01*
X11432351Y-8800361D01*
G37*
D15*
G04 #@! TO.P,U1,3*
G04 #@! TO.N,/GND*
X11350000Y-9250000D03*
D14*
G04 #@! TD*
G04 #@! TO.N,/HD+*
G04 #@! TO.C,U1*
G36*
X11932351Y-8800361D02*
X11939632Y-8801441D01*
X11946771Y-8803229D01*
X11953701Y-8805709D01*
X11960355Y-8808856D01*
X11966668Y-8812640D01*
X11972579Y-8817024D01*
X11978033Y-8821967D01*
X11982976Y-8827421D01*
X11987360Y-8833332D01*
X11991144Y-8839645D01*
X11994291Y-8846299D01*
X11996771Y-8853229D01*
X11998559Y-8860368D01*
X11999639Y-8867649D01*
X12000000Y-8875000D01*
X12000000Y-9625000D01*
X11999639Y-9632351D01*
X11998559Y-9639632D01*
X11996771Y-9646771D01*
X11994291Y-9653701D01*
X11991144Y-9660355D01*
X11987360Y-9666668D01*
X11982976Y-9672579D01*
X11978033Y-9678033D01*
X11972579Y-9682976D01*
X11966668Y-9687360D01*
X11960355Y-9691144D01*
X11953701Y-9694291D01*
X11946771Y-9696771D01*
X11939632Y-9698559D01*
X11932351Y-9699639D01*
X11925000Y-9700000D01*
X11775000Y-9700000D01*
X11767649Y-9699639D01*
X11760368Y-9698559D01*
X11753229Y-9696771D01*
X11746299Y-9694291D01*
X11739645Y-9691144D01*
X11733332Y-9687360D01*
X11727421Y-9682976D01*
X11721967Y-9678033D01*
X11717024Y-9672579D01*
X11712640Y-9666668D01*
X11708856Y-9660355D01*
X11705709Y-9653701D01*
X11703229Y-9646771D01*
X11701441Y-9639632D01*
X11700361Y-9632351D01*
X11700000Y-9625000D01*
X11700000Y-8875000D01*
X11700361Y-8867649D01*
X11701441Y-8860368D01*
X11703229Y-8853229D01*
X11705709Y-8846299D01*
X11708856Y-8839645D01*
X11712640Y-8833332D01*
X11717024Y-8827421D01*
X11721967Y-8821967D01*
X11727421Y-8817024D01*
X11733332Y-8812640D01*
X11739645Y-8808856D01*
X11746299Y-8805709D01*
X11753229Y-8803229D01*
X11760368Y-8801441D01*
X11767649Y-8800361D01*
X11775000Y-8800000D01*
X11925000Y-8800000D01*
X11932351Y-8800361D01*
X11932351Y-8800361D01*
G37*
D15*
G04 #@! TO.P,U1,4*
G04 #@! TO.N,/HD+*
X11850000Y-9250000D03*
D14*
G04 #@! TD*
G04 #@! TO.N,/HD-*
G04 #@! TO.C,U1*
G36*
X12432351Y-8800361D02*
X12439632Y-8801441D01*
X12446771Y-8803229D01*
X12453701Y-8805709D01*
X12460355Y-8808856D01*
X12466668Y-8812640D01*
X12472579Y-8817024D01*
X12478033Y-8821967D01*
X12482976Y-8827421D01*
X12487360Y-8833332D01*
X12491144Y-8839645D01*
X12494291Y-8846299D01*
X12496771Y-8853229D01*
X12498559Y-8860368D01*
X12499639Y-8867649D01*
X12500000Y-8875000D01*
X12500000Y-9625000D01*
X12499639Y-9632351D01*
X12498559Y-9639632D01*
X12496771Y-9646771D01*
X12494291Y-9653701D01*
X12491144Y-9660355D01*
X12487360Y-9666668D01*
X12482976Y-9672579D01*
X12478033Y-9678033D01*
X12472579Y-9682976D01*
X12466668Y-9687360D01*
X12460355Y-9691144D01*
X12453701Y-9694291D01*
X12446771Y-9696771D01*
X12439632Y-9698559D01*
X12432351Y-9699639D01*
X12425000Y-9700000D01*
X12275000Y-9700000D01*
X12267649Y-9699639D01*
X12260368Y-9698559D01*
X12253229Y-9696771D01*
X12246299Y-9694291D01*
X12239645Y-9691144D01*
X12233332Y-9687360D01*
X12227421Y-9682976D01*
X12221967Y-9678033D01*
X12217024Y-9672579D01*
X12212640Y-9666668D01*
X12208856Y-9660355D01*
X12205709Y-9653701D01*
X12203229Y-9646771D01*
X12201441Y-9639632D01*
X12200361Y-9632351D01*
X12200000Y-9625000D01*
X12200000Y-8875000D01*
X12200361Y-8867649D01*
X12201441Y-8860368D01*
X12203229Y-8853229D01*
X12205709Y-8846299D01*
X12208856Y-8839645D01*
X12212640Y-8833332D01*
X12217024Y-8827421D01*
X12221967Y-8821967D01*
X12227421Y-8817024D01*
X12233332Y-8812640D01*
X12239645Y-8808856D01*
X12246299Y-8805709D01*
X12253229Y-8803229D01*
X12260368Y-8801441D01*
X12267649Y-8800361D01*
X12275000Y-8800000D01*
X12425000Y-8800000D01*
X12432351Y-8800361D01*
X12432351Y-8800361D01*
G37*
D15*
G04 #@! TO.P,U1,5*
G04 #@! TO.N,/HD-*
X12350000Y-9250000D03*
D13*
G04 #@! TO.P,U1,6*
G04 #@! TO.N,Net-(U1-Pad6)*
X12850000Y-8950000D03*
D14*
G04 #@! TD*
G04 #@! TO.N,/+5V*
G04 #@! TO.C,U1*
G36*
X13532351Y-8300361D02*
X13539632Y-8301441D01*
X13546771Y-8303229D01*
X13553701Y-8305709D01*
X13560355Y-8308856D01*
X13566668Y-8312640D01*
X13572579Y-8317024D01*
X13578033Y-8321967D01*
X13582976Y-8327421D01*
X13587360Y-8333332D01*
X13591144Y-8339645D01*
X13594291Y-8346299D01*
X13596771Y-8353229D01*
X13598559Y-8360368D01*
X13599639Y-8367649D01*
X13600000Y-8375000D01*
X13600000Y-8525000D01*
X13599639Y-8532351D01*
X13598559Y-8539632D01*
X13596771Y-8546771D01*
X13594291Y-8553701D01*
X13591144Y-8560355D01*
X13587360Y-8566668D01*
X13582976Y-8572579D01*
X13578033Y-8578033D01*
X13572579Y-8582976D01*
X13566668Y-8587360D01*
X13560355Y-8591144D01*
X13553701Y-8594291D01*
X13546771Y-8596771D01*
X13539632Y-8598559D01*
X13532351Y-8599639D01*
X13525000Y-8600000D01*
X12775000Y-8600000D01*
X12767649Y-8599639D01*
X12760368Y-8598559D01*
X12753229Y-8596771D01*
X12746299Y-8594291D01*
X12739645Y-8591144D01*
X12733332Y-8587360D01*
X12727421Y-8582976D01*
X12721967Y-8578033D01*
X12717024Y-8572579D01*
X12712640Y-8566668D01*
X12708856Y-8560355D01*
X12705709Y-8553701D01*
X12703229Y-8546771D01*
X12701441Y-8539632D01*
X12700361Y-8532351D01*
X12700000Y-8525000D01*
X12700000Y-8375000D01*
X12700361Y-8367649D01*
X12701441Y-8360368D01*
X12703229Y-8353229D01*
X12705709Y-8346299D01*
X12708856Y-8339645D01*
X12712640Y-8333332D01*
X12717024Y-8327421D01*
X12721967Y-8321967D01*
X12727421Y-8317024D01*
X12733332Y-8312640D01*
X12739645Y-8308856D01*
X12746299Y-8305709D01*
X12753229Y-8303229D01*
X12760368Y-8301441D01*
X12767649Y-8300361D01*
X12775000Y-8300000D01*
X13525000Y-8300000D01*
X13532351Y-8300361D01*
X13532351Y-8300361D01*
G37*
D15*
G04 #@! TO.P,U1,7*
G04 #@! TO.N,/+5V*
X13150000Y-8450000D03*
D14*
G04 #@! TD*
G04 #@! TO.N,/+5V*
G04 #@! TO.C,U1*
G36*
X13532351Y-7800361D02*
X13539632Y-7801441D01*
X13546771Y-7803229D01*
X13553701Y-7805709D01*
X13560355Y-7808856D01*
X13566668Y-7812640D01*
X13572579Y-7817024D01*
X13578033Y-7821967D01*
X13582976Y-7827421D01*
X13587360Y-7833332D01*
X13591144Y-7839645D01*
X13594291Y-7846299D01*
X13596771Y-7853229D01*
X13598559Y-7860368D01*
X13599639Y-7867649D01*
X13600000Y-7875000D01*
X13600000Y-8025000D01*
X13599639Y-8032351D01*
X13598559Y-8039632D01*
X13596771Y-8046771D01*
X13594291Y-8053701D01*
X13591144Y-8060355D01*
X13587360Y-8066668D01*
X13582976Y-8072579D01*
X13578033Y-8078033D01*
X13572579Y-8082976D01*
X13566668Y-8087360D01*
X13560355Y-8091144D01*
X13553701Y-8094291D01*
X13546771Y-8096771D01*
X13539632Y-8098559D01*
X13532351Y-8099639D01*
X13525000Y-8100000D01*
X12775000Y-8100000D01*
X12767649Y-8099639D01*
X12760368Y-8098559D01*
X12753229Y-8096771D01*
X12746299Y-8094291D01*
X12739645Y-8091144D01*
X12733332Y-8087360D01*
X12727421Y-8082976D01*
X12721967Y-8078033D01*
X12717024Y-8072579D01*
X12712640Y-8066668D01*
X12708856Y-8060355D01*
X12705709Y-8053701D01*
X12703229Y-8046771D01*
X12701441Y-8039632D01*
X12700361Y-8032351D01*
X12700000Y-8025000D01*
X12700000Y-7875000D01*
X12700361Y-7867649D01*
X12701441Y-7860368D01*
X12703229Y-7853229D01*
X12705709Y-7846299D01*
X12708856Y-7839645D01*
X12712640Y-7833332D01*
X12717024Y-7827421D01*
X12721967Y-7821967D01*
X12727421Y-7817024D01*
X12733332Y-7812640D01*
X12739645Y-7808856D01*
X12746299Y-7805709D01*
X12753229Y-7803229D01*
X12760368Y-7801441D01*
X12767649Y-7800361D01*
X12775000Y-7800000D01*
X13525000Y-7800000D01*
X13532351Y-7800361D01*
X13532351Y-7800361D01*
G37*
D15*
G04 #@! TO.P,U1,8*
G04 #@! TO.N,/+5V*
X13150000Y-7950000D03*
D14*
G04 #@! TD*
G04 #@! TO.N,/C2CK*
G04 #@! TO.C,U1*
G36*
X13532351Y-7300361D02*
X13539632Y-7301441D01*
X13546771Y-7303229D01*
X13553701Y-7305709D01*
X13560355Y-7308856D01*
X13566668Y-7312640D01*
X13572579Y-7317024D01*
X13578033Y-7321967D01*
X13582976Y-7327421D01*
X13587360Y-7333332D01*
X13591144Y-7339645D01*
X13594291Y-7346299D01*
X13596771Y-7353229D01*
X13598559Y-7360368D01*
X13599639Y-7367649D01*
X13600000Y-7375000D01*
X13600000Y-7525000D01*
X13599639Y-7532351D01*
X13598559Y-7539632D01*
X13596771Y-7546771D01*
X13594291Y-7553701D01*
X13591144Y-7560355D01*
X13587360Y-7566668D01*
X13582976Y-7572579D01*
X13578033Y-7578033D01*
X13572579Y-7582976D01*
X13566668Y-7587360D01*
X13560355Y-7591144D01*
X13553701Y-7594291D01*
X13546771Y-7596771D01*
X13539632Y-7598559D01*
X13532351Y-7599639D01*
X13525000Y-7600000D01*
X12775000Y-7600000D01*
X12767649Y-7599639D01*
X12760368Y-7598559D01*
X12753229Y-7596771D01*
X12746299Y-7594291D01*
X12739645Y-7591144D01*
X12733332Y-7587360D01*
X12727421Y-7582976D01*
X12721967Y-7578033D01*
X12717024Y-7572579D01*
X12712640Y-7566668D01*
X12708856Y-7560355D01*
X12705709Y-7553701D01*
X12703229Y-7546771D01*
X12701441Y-7539632D01*
X12700361Y-7532351D01*
X12700000Y-7525000D01*
X12700000Y-7375000D01*
X12700361Y-7367649D01*
X12701441Y-7360368D01*
X12703229Y-7353229D01*
X12705709Y-7346299D01*
X12708856Y-7339645D01*
X12712640Y-7333332D01*
X12717024Y-7327421D01*
X12721967Y-7321967D01*
X12727421Y-7317024D01*
X12733332Y-7312640D01*
X12739645Y-7308856D01*
X12746299Y-7305709D01*
X12753229Y-7303229D01*
X12760368Y-7301441D01*
X12767649Y-7300361D01*
X12775000Y-7300000D01*
X13525000Y-7300000D01*
X13532351Y-7300361D01*
X13532351Y-7300361D01*
G37*
D15*
G04 #@! TO.P,U1,9*
G04 #@! TO.N,/C2CK*
X13150000Y-7450000D03*
D14*
G04 #@! TD*
G04 #@! TO.N,/C2D*
G04 #@! TO.C,U1*
G36*
X13532351Y-6800361D02*
X13539632Y-6801441D01*
X13546771Y-6803229D01*
X13553701Y-6805709D01*
X13560355Y-6808856D01*
X13566668Y-6812640D01*
X13572579Y-6817024D01*
X13578033Y-6821967D01*
X13582976Y-6827421D01*
X13587360Y-6833332D01*
X13591144Y-6839645D01*
X13594291Y-6846299D01*
X13596771Y-6853229D01*
X13598559Y-6860368D01*
X13599639Y-6867649D01*
X13600000Y-6875000D01*
X13600000Y-7025000D01*
X13599639Y-7032351D01*
X13598559Y-7039632D01*
X13596771Y-7046771D01*
X13594291Y-7053701D01*
X13591144Y-7060355D01*
X13587360Y-7066668D01*
X13582976Y-7072579D01*
X13578033Y-7078033D01*
X13572579Y-7082976D01*
X13566668Y-7087360D01*
X13560355Y-7091144D01*
X13553701Y-7094291D01*
X13546771Y-7096771D01*
X13539632Y-7098559D01*
X13532351Y-7099639D01*
X13525000Y-7100000D01*
X12775000Y-7100000D01*
X12767649Y-7099639D01*
X12760368Y-7098559D01*
X12753229Y-7096771D01*
X12746299Y-7094291D01*
X12739645Y-7091144D01*
X12733332Y-7087360D01*
X12727421Y-7082976D01*
X12721967Y-7078033D01*
X12717024Y-7072579D01*
X12712640Y-7066668D01*
X12708856Y-7060355D01*
X12705709Y-7053701D01*
X12703229Y-7046771D01*
X12701441Y-7039632D01*
X12700361Y-7032351D01*
X12700000Y-7025000D01*
X12700000Y-6875000D01*
X12700361Y-6867649D01*
X12701441Y-6860368D01*
X12703229Y-6853229D01*
X12705709Y-6846299D01*
X12708856Y-6839645D01*
X12712640Y-6833332D01*
X12717024Y-6827421D01*
X12721967Y-6821967D01*
X12727421Y-6817024D01*
X12733332Y-6812640D01*
X12739645Y-6808856D01*
X12746299Y-6805709D01*
X12753229Y-6803229D01*
X12760368Y-6801441D01*
X12767649Y-6800361D01*
X12775000Y-6800000D01*
X13525000Y-6800000D01*
X13532351Y-6800361D01*
X13532351Y-6800361D01*
G37*
D15*
G04 #@! TO.P,U1,10*
G04 #@! TO.N,/C2D*
X13150000Y-6950000D03*
D13*
G04 #@! TO.P,U1,11*
G04 #@! TO.N,/SCL*
X12850000Y-6450000D03*
D14*
G04 #@! TD*
G04 #@! TO.N,/GND*
G04 #@! TO.C,U1*
G36*
X12432351Y-5700361D02*
X12439632Y-5701441D01*
X12446771Y-5703229D01*
X12453701Y-5705709D01*
X12460355Y-5708856D01*
X12466668Y-5712640D01*
X12472579Y-5717024D01*
X12478033Y-5721967D01*
X12482976Y-5727421D01*
X12487360Y-5733332D01*
X12491144Y-5739645D01*
X12494291Y-5746299D01*
X12496771Y-5753229D01*
X12498559Y-5760368D01*
X12499639Y-5767649D01*
X12500000Y-5775000D01*
X12500000Y-6525000D01*
X12499639Y-6532351D01*
X12498559Y-6539632D01*
X12496771Y-6546771D01*
X12494291Y-6553701D01*
X12491144Y-6560355D01*
X12487360Y-6566668D01*
X12482976Y-6572579D01*
X12478033Y-6578033D01*
X12472579Y-6582976D01*
X12466668Y-6587360D01*
X12460355Y-6591144D01*
X12453701Y-6594291D01*
X12446771Y-6596771D01*
X12439632Y-6598559D01*
X12432351Y-6599639D01*
X12425000Y-6600000D01*
X12275000Y-6600000D01*
X12267649Y-6599639D01*
X12260368Y-6598559D01*
X12253229Y-6596771D01*
X12246299Y-6594291D01*
X12239645Y-6591144D01*
X12233332Y-6587360D01*
X12227421Y-6582976D01*
X12221967Y-6578033D01*
X12217024Y-6572579D01*
X12212640Y-6566668D01*
X12208856Y-6560355D01*
X12205709Y-6553701D01*
X12203229Y-6546771D01*
X12201441Y-6539632D01*
X12200361Y-6532351D01*
X12200000Y-6525000D01*
X12200000Y-5775000D01*
X12200361Y-5767649D01*
X12201441Y-5760368D01*
X12203229Y-5753229D01*
X12205709Y-5746299D01*
X12208856Y-5739645D01*
X12212640Y-5733332D01*
X12217024Y-5727421D01*
X12221967Y-5721967D01*
X12227421Y-5717024D01*
X12233332Y-5712640D01*
X12239645Y-5708856D01*
X12246299Y-5705709D01*
X12253229Y-5703229D01*
X12260368Y-5701441D01*
X12267649Y-5700361D01*
X12275000Y-5700000D01*
X12425000Y-5700000D01*
X12432351Y-5700361D01*
X12432351Y-5700361D01*
G37*
D15*
G04 #@! TO.P,U1,12*
G04 #@! TO.N,/GND*
X12350000Y-6150000D03*
D14*
G04 #@! TD*
G04 #@! TO.N,/SDA*
G04 #@! TO.C,U1*
G36*
X11932351Y-5700361D02*
X11939632Y-5701441D01*
X11946771Y-5703229D01*
X11953701Y-5705709D01*
X11960355Y-5708856D01*
X11966668Y-5712640D01*
X11972579Y-5717024D01*
X11978033Y-5721967D01*
X11982976Y-5727421D01*
X11987360Y-5733332D01*
X11991144Y-5739645D01*
X11994291Y-5746299D01*
X11996771Y-5753229D01*
X11998559Y-5760368D01*
X11999639Y-5767649D01*
X12000000Y-5775000D01*
X12000000Y-6525000D01*
X11999639Y-6532351D01*
X11998559Y-6539632D01*
X11996771Y-6546771D01*
X11994291Y-6553701D01*
X11991144Y-6560355D01*
X11987360Y-6566668D01*
X11982976Y-6572579D01*
X11978033Y-6578033D01*
X11972579Y-6582976D01*
X11966668Y-6587360D01*
X11960355Y-6591144D01*
X11953701Y-6594291D01*
X11946771Y-6596771D01*
X11939632Y-6598559D01*
X11932351Y-6599639D01*
X11925000Y-6600000D01*
X11775000Y-6600000D01*
X11767649Y-6599639D01*
X11760368Y-6598559D01*
X11753229Y-6596771D01*
X11746299Y-6594291D01*
X11739645Y-6591144D01*
X11733332Y-6587360D01*
X11727421Y-6582976D01*
X11721967Y-6578033D01*
X11717024Y-6572579D01*
X11712640Y-6566668D01*
X11708856Y-6560355D01*
X11705709Y-6553701D01*
X11703229Y-6546771D01*
X11701441Y-6539632D01*
X11700361Y-6532351D01*
X11700000Y-6525000D01*
X11700000Y-5775000D01*
X11700361Y-5767649D01*
X11701441Y-5760368D01*
X11703229Y-5753229D01*
X11705709Y-5746299D01*
X11708856Y-5739645D01*
X11712640Y-5733332D01*
X11717024Y-5727421D01*
X11721967Y-5721967D01*
X11727421Y-5717024D01*
X11733332Y-5712640D01*
X11739645Y-5708856D01*
X11746299Y-5705709D01*
X11753229Y-5703229D01*
X11760368Y-5701441D01*
X11767649Y-5700361D01*
X11775000Y-5700000D01*
X11925000Y-5700000D01*
X11932351Y-5700361D01*
X11932351Y-5700361D01*
G37*
D15*
G04 #@! TO.P,U1,13*
G04 #@! TO.N,/SDA*
X11850000Y-6150000D03*
D14*
G04 #@! TD*
G04 #@! TO.N,Net-(U1-Pad14)*
G04 #@! TO.C,U1*
G36*
X11432351Y-5700361D02*
X11439632Y-5701441D01*
X11446771Y-5703229D01*
X11453701Y-5705709D01*
X11460355Y-5708856D01*
X11466668Y-5712640D01*
X11472579Y-5717024D01*
X11478033Y-5721967D01*
X11482976Y-5727421D01*
X11487360Y-5733332D01*
X11491144Y-5739645D01*
X11494291Y-5746299D01*
X11496771Y-5753229D01*
X11498559Y-5760368D01*
X11499639Y-5767649D01*
X11500000Y-5775000D01*
X11500000Y-6525000D01*
X11499639Y-6532351D01*
X11498559Y-6539632D01*
X11496771Y-6546771D01*
X11494291Y-6553701D01*
X11491144Y-6560355D01*
X11487360Y-6566668D01*
X11482976Y-6572579D01*
X11478033Y-6578033D01*
X11472579Y-6582976D01*
X11466668Y-6587360D01*
X11460355Y-6591144D01*
X11453701Y-6594291D01*
X11446771Y-6596771D01*
X11439632Y-6598559D01*
X11432351Y-6599639D01*
X11425000Y-6600000D01*
X11275000Y-6600000D01*
X11267649Y-6599639D01*
X11260368Y-6598559D01*
X11253229Y-6596771D01*
X11246299Y-6594291D01*
X11239645Y-6591144D01*
X11233332Y-6587360D01*
X11227421Y-6582976D01*
X11221967Y-6578033D01*
X11217024Y-6572579D01*
X11212640Y-6566668D01*
X11208856Y-6560355D01*
X11205709Y-6553701D01*
X11203229Y-6546771D01*
X11201441Y-6539632D01*
X11200361Y-6532351D01*
X11200000Y-6525000D01*
X11200000Y-5775000D01*
X11200361Y-5767649D01*
X11201441Y-5760368D01*
X11203229Y-5753229D01*
X11205709Y-5746299D01*
X11208856Y-5739645D01*
X11212640Y-5733332D01*
X11217024Y-5727421D01*
X11221967Y-5721967D01*
X11227421Y-5717024D01*
X11233332Y-5712640D01*
X11239645Y-5708856D01*
X11246299Y-5705709D01*
X11253229Y-5703229D01*
X11260368Y-5701441D01*
X11267649Y-5700361D01*
X11275000Y-5700000D01*
X11425000Y-5700000D01*
X11432351Y-5700361D01*
X11432351Y-5700361D01*
G37*
D15*
G04 #@! TO.P,U1,14*
G04 #@! TO.N,Net-(U1-Pad14)*
X11350000Y-6150000D03*
D14*
G04 #@! TD*
G04 #@! TO.N,/Button_reset*
G04 #@! TO.C,U1*
G36*
X10932351Y-5700361D02*
X10939632Y-5701441D01*
X10946771Y-5703229D01*
X10953701Y-5705709D01*
X10960355Y-5708856D01*
X10966668Y-5712640D01*
X10972579Y-5717024D01*
X10978033Y-5721967D01*
X10982976Y-5727421D01*
X10987360Y-5733332D01*
X10991144Y-5739645D01*
X10994291Y-5746299D01*
X10996771Y-5753229D01*
X10998559Y-5760368D01*
X10999639Y-5767649D01*
X11000000Y-5775000D01*
X11000000Y-6525000D01*
X10999639Y-6532351D01*
X10998559Y-6539632D01*
X10996771Y-6546771D01*
X10994291Y-6553701D01*
X10991144Y-6560355D01*
X10987360Y-6566668D01*
X10982976Y-6572579D01*
X10978033Y-6578033D01*
X10972579Y-6582976D01*
X10966668Y-6587360D01*
X10960355Y-6591144D01*
X10953701Y-6594291D01*
X10946771Y-6596771D01*
X10939632Y-6598559D01*
X10932351Y-6599639D01*
X10925000Y-6600000D01*
X10775000Y-6600000D01*
X10767649Y-6599639D01*
X10760368Y-6598559D01*
X10753229Y-6596771D01*
X10746299Y-6594291D01*
X10739645Y-6591144D01*
X10733332Y-6587360D01*
X10727421Y-6582976D01*
X10721967Y-6578033D01*
X10717024Y-6572579D01*
X10712640Y-6566668D01*
X10708856Y-6560355D01*
X10705709Y-6553701D01*
X10703229Y-6546771D01*
X10701441Y-6539632D01*
X10700361Y-6532351D01*
X10700000Y-6525000D01*
X10700000Y-5775000D01*
X10700361Y-5767649D01*
X10701441Y-5760368D01*
X10703229Y-5753229D01*
X10705709Y-5746299D01*
X10708856Y-5739645D01*
X10712640Y-5733332D01*
X10717024Y-5727421D01*
X10721967Y-5721967D01*
X10727421Y-5717024D01*
X10733332Y-5712640D01*
X10739645Y-5708856D01*
X10746299Y-5705709D01*
X10753229Y-5703229D01*
X10760368Y-5701441D01*
X10767649Y-5700361D01*
X10775000Y-5700000D01*
X10925000Y-5700000D01*
X10932351Y-5700361D01*
X10932351Y-5700361D01*
G37*
D15*
G04 #@! TO.P,U1,15*
G04 #@! TO.N,/Button_reset*
X10850000Y-6150000D03*
D13*
G04 #@! TO.P,U1,16*
G04 #@! TO.N,/LED*
X10350000Y-6450000D03*
D14*
G04 #@! TD*
G04 #@! TO.N,Net-(U1-Pad17)*
G04 #@! TO.C,U1*
G36*
X10432351Y-6800361D02*
X10439632Y-6801441D01*
X10446771Y-6803229D01*
X10453701Y-6805709D01*
X10460355Y-6808856D01*
X10466668Y-6812640D01*
X10472579Y-6817024D01*
X10478033Y-6821967D01*
X10482976Y-6827421D01*
X10487360Y-6833332D01*
X10491144Y-6839645D01*
X10494291Y-6846299D01*
X10496771Y-6853229D01*
X10498559Y-6860368D01*
X10499639Y-6867649D01*
X10500000Y-6875000D01*
X10500000Y-7025000D01*
X10499639Y-7032351D01*
X10498559Y-7039632D01*
X10496771Y-7046771D01*
X10494291Y-7053701D01*
X10491144Y-7060355D01*
X10487360Y-7066668D01*
X10482976Y-7072579D01*
X10478033Y-7078033D01*
X10472579Y-7082976D01*
X10466668Y-7087360D01*
X10460355Y-7091144D01*
X10453701Y-7094291D01*
X10446771Y-7096771D01*
X10439632Y-7098559D01*
X10432351Y-7099639D01*
X10425000Y-7100000D01*
X9675000Y-7100000D01*
X9667649Y-7099639D01*
X9660368Y-7098559D01*
X9653229Y-7096771D01*
X9646299Y-7094291D01*
X9639645Y-7091144D01*
X9633332Y-7087360D01*
X9627421Y-7082976D01*
X9621967Y-7078033D01*
X9617024Y-7072579D01*
X9612640Y-7066668D01*
X9608856Y-7060355D01*
X9605709Y-7053701D01*
X9603229Y-7046771D01*
X9601441Y-7039632D01*
X9600361Y-7032351D01*
X9600000Y-7025000D01*
X9600000Y-6875000D01*
X9600361Y-6867649D01*
X9601441Y-6860368D01*
X9603229Y-6853229D01*
X9605709Y-6846299D01*
X9608856Y-6839645D01*
X9612640Y-6833332D01*
X9617024Y-6827421D01*
X9621967Y-6821967D01*
X9627421Y-6817024D01*
X9633332Y-6812640D01*
X9639645Y-6808856D01*
X9646299Y-6805709D01*
X9653229Y-6803229D01*
X9660368Y-6801441D01*
X9667649Y-6800361D01*
X9675000Y-6800000D01*
X10425000Y-6800000D01*
X10432351Y-6800361D01*
X10432351Y-6800361D01*
G37*
D15*
G04 #@! TO.P,U1,17*
G04 #@! TO.N,Net-(U1-Pad17)*
X10050000Y-6950000D03*
D14*
G04 #@! TD*
G04 #@! TO.N,Net-(U1-Pad18)*
G04 #@! TO.C,U1*
G36*
X10432351Y-7300361D02*
X10439632Y-7301441D01*
X10446771Y-7303229D01*
X10453701Y-7305709D01*
X10460355Y-7308856D01*
X10466668Y-7312640D01*
X10472579Y-7317024D01*
X10478033Y-7321967D01*
X10482976Y-7327421D01*
X10487360Y-7333332D01*
X10491144Y-7339645D01*
X10494291Y-7346299D01*
X10496771Y-7353229D01*
X10498559Y-7360368D01*
X10499639Y-7367649D01*
X10500000Y-7375000D01*
X10500000Y-7525000D01*
X10499639Y-7532351D01*
X10498559Y-7539632D01*
X10496771Y-7546771D01*
X10494291Y-7553701D01*
X10491144Y-7560355D01*
X10487360Y-7566668D01*
X10482976Y-7572579D01*
X10478033Y-7578033D01*
X10472579Y-7582976D01*
X10466668Y-7587360D01*
X10460355Y-7591144D01*
X10453701Y-7594291D01*
X10446771Y-7596771D01*
X10439632Y-7598559D01*
X10432351Y-7599639D01*
X10425000Y-7600000D01*
X9675000Y-7600000D01*
X9667649Y-7599639D01*
X9660368Y-7598559D01*
X9653229Y-7596771D01*
X9646299Y-7594291D01*
X9639645Y-7591144D01*
X9633332Y-7587360D01*
X9627421Y-7582976D01*
X9621967Y-7578033D01*
X9617024Y-7572579D01*
X9612640Y-7566668D01*
X9608856Y-7560355D01*
X9605709Y-7553701D01*
X9603229Y-7546771D01*
X9601441Y-7539632D01*
X9600361Y-7532351D01*
X9600000Y-7525000D01*
X9600000Y-7375000D01*
X9600361Y-7367649D01*
X9601441Y-7360368D01*
X9603229Y-7353229D01*
X9605709Y-7346299D01*
X9608856Y-7339645D01*
X9612640Y-7333332D01*
X9617024Y-7327421D01*
X9621967Y-7321967D01*
X9627421Y-7317024D01*
X9633332Y-7312640D01*
X9639645Y-7308856D01*
X9646299Y-7305709D01*
X9653229Y-7303229D01*
X9660368Y-7301441D01*
X9667649Y-7300361D01*
X9675000Y-7300000D01*
X10425000Y-7300000D01*
X10432351Y-7300361D01*
X10432351Y-7300361D01*
G37*
D15*
G04 #@! TO.P,U1,18*
G04 #@! TO.N,Net-(U1-Pad18)*
X10050000Y-7450000D03*
D14*
G04 #@! TD*
G04 #@! TO.N,Net-(U1-Pad19)*
G04 #@! TO.C,U1*
G36*
X10432351Y-7800361D02*
X10439632Y-7801441D01*
X10446771Y-7803229D01*
X10453701Y-7805709D01*
X10460355Y-7808856D01*
X10466668Y-7812640D01*
X10472579Y-7817024D01*
X10478033Y-7821967D01*
X10482976Y-7827421D01*
X10487360Y-7833332D01*
X10491144Y-7839645D01*
X10494291Y-7846299D01*
X10496771Y-7853229D01*
X10498559Y-7860368D01*
X10499639Y-7867649D01*
X10500000Y-7875000D01*
X10500000Y-8025000D01*
X10499639Y-8032351D01*
X10498559Y-8039632D01*
X10496771Y-8046771D01*
X10494291Y-8053701D01*
X10491144Y-8060355D01*
X10487360Y-8066668D01*
X10482976Y-8072579D01*
X10478033Y-8078033D01*
X10472579Y-8082976D01*
X10466668Y-8087360D01*
X10460355Y-8091144D01*
X10453701Y-8094291D01*
X10446771Y-8096771D01*
X10439632Y-8098559D01*
X10432351Y-8099639D01*
X10425000Y-8100000D01*
X9675000Y-8100000D01*
X9667649Y-8099639D01*
X9660368Y-8098559D01*
X9653229Y-8096771D01*
X9646299Y-8094291D01*
X9639645Y-8091144D01*
X9633332Y-8087360D01*
X9627421Y-8082976D01*
X9621967Y-8078033D01*
X9617024Y-8072579D01*
X9612640Y-8066668D01*
X9608856Y-8060355D01*
X9605709Y-8053701D01*
X9603229Y-8046771D01*
X9601441Y-8039632D01*
X9600361Y-8032351D01*
X9600000Y-8025000D01*
X9600000Y-7875000D01*
X9600361Y-7867649D01*
X9601441Y-7860368D01*
X9603229Y-7853229D01*
X9605709Y-7846299D01*
X9608856Y-7839645D01*
X9612640Y-7833332D01*
X9617024Y-7827421D01*
X9621967Y-7821967D01*
X9627421Y-7817024D01*
X9633332Y-7812640D01*
X9639645Y-7808856D01*
X9646299Y-7805709D01*
X9653229Y-7803229D01*
X9660368Y-7801441D01*
X9667649Y-7800361D01*
X9675000Y-7800000D01*
X10425000Y-7800000D01*
X10432351Y-7800361D01*
X10432351Y-7800361D01*
G37*
D15*
G04 #@! TO.P,U1,19*
G04 #@! TO.N,Net-(U1-Pad19)*
X10050000Y-7950000D03*
D14*
G04 #@! TD*
G04 #@! TO.N,Net-(U1-Pad20)*
G04 #@! TO.C,U1*
G36*
X10432351Y-8300361D02*
X10439632Y-8301441D01*
X10446771Y-8303229D01*
X10453701Y-8305709D01*
X10460355Y-8308856D01*
X10466668Y-8312640D01*
X10472579Y-8317024D01*
X10478033Y-8321967D01*
X10482976Y-8327421D01*
X10487360Y-8333332D01*
X10491144Y-8339645D01*
X10494291Y-8346299D01*
X10496771Y-8353229D01*
X10498559Y-8360368D01*
X10499639Y-8367649D01*
X10500000Y-8375000D01*
X10500000Y-8525000D01*
X10499639Y-8532351D01*
X10498559Y-8539632D01*
X10496771Y-8546771D01*
X10494291Y-8553701D01*
X10491144Y-8560355D01*
X10487360Y-8566668D01*
X10482976Y-8572579D01*
X10478033Y-8578033D01*
X10472579Y-8582976D01*
X10466668Y-8587360D01*
X10460355Y-8591144D01*
X10453701Y-8594291D01*
X10446771Y-8596771D01*
X10439632Y-8598559D01*
X10432351Y-8599639D01*
X10425000Y-8600000D01*
X9675000Y-8600000D01*
X9667649Y-8599639D01*
X9660368Y-8598559D01*
X9653229Y-8596771D01*
X9646299Y-8594291D01*
X9639645Y-8591144D01*
X9633332Y-8587360D01*
X9627421Y-8582976D01*
X9621967Y-8578033D01*
X9617024Y-8572579D01*
X9612640Y-8566668D01*
X9608856Y-8560355D01*
X9605709Y-8553701D01*
X9603229Y-8546771D01*
X9601441Y-8539632D01*
X9600361Y-8532351D01*
X9600000Y-8525000D01*
X9600000Y-8375000D01*
X9600361Y-8367649D01*
X9601441Y-8360368D01*
X9603229Y-8353229D01*
X9605709Y-8346299D01*
X9608856Y-8339645D01*
X9612640Y-8333332D01*
X9617024Y-8327421D01*
X9621967Y-8321967D01*
X9627421Y-8317024D01*
X9633332Y-8312640D01*
X9639645Y-8308856D01*
X9646299Y-8305709D01*
X9653229Y-8303229D01*
X9660368Y-8301441D01*
X9667649Y-8300361D01*
X9675000Y-8300000D01*
X10425000Y-8300000D01*
X10432351Y-8300361D01*
X10432351Y-8300361D01*
G37*
D15*
G04 #@! TO.P,U1,20*
G04 #@! TO.N,Net-(U1-Pad20)*
X10050000Y-8450000D03*
D16*
G04 #@! TO.P,U1,21*
G04 #@! TO.N,/GND*
X11150000Y-7250000D03*
X11150000Y-8150000D03*
X12050000Y-8150000D03*
X12050000Y-7250000D03*
G04 #@! TD*
D17*
G04 #@! TO.P,C3,1*
G04 #@! TO.N,/+5V*
X15500000Y-11850000D03*
G04 #@! TO.P,C3,2*
G04 #@! TO.N,/GND*
X15500000Y-10750000D03*
G04 #@! TD*
D18*
G04 #@! TO.P,U2,1*
G04 #@! TO.N,Net-(R1-Pad2)*
X10900000Y-11750000D03*
G04 #@! TO.P,U2,2*
G04 #@! TO.N,/GND*
X10900000Y-12700000D03*
G04 #@! TO.P,U2,3*
G04 #@! TO.N,Net-(R2-Pad2)*
X10900000Y-13650000D03*
G04 #@! TO.P,U2,4*
G04 #@! TO.N,/Button*
X13100000Y-13650000D03*
G04 #@! TO.P,U2,6*
G04 #@! TO.N,/Button_reset*
X13100000Y-11750000D03*
G04 #@! TO.P,U2,5*
G04 #@! TO.N,/+5V*
X13100000Y-12700000D03*
G04 #@! TD*
D19*
G04 #@! TO.P,U4,1*
G04 #@! TO.N,Net-(U4-Pad1)*
X10850000Y0D03*
G04 #@! TO.P,U4,2*
G04 #@! TO.N,Net-(U4-Pad2)*
X10350000Y0D03*
G04 #@! TO.P,U4,3*
G04 #@! TO.N,Net-(U4-Pad3)*
X9850000Y0D03*
G04 #@! TO.P,U4,4*
G04 #@! TO.N,/GND*
X9350000Y0D03*
G04 #@! TO.P,U4,5*
G04 #@! TO.N,/SDA*
X9350000Y-2800000D03*
G04 #@! TO.P,U4,6*
G04 #@! TO.N,/SCL*
X9850000Y-2800000D03*
G04 #@! TO.P,U4,7*
G04 #@! TO.N,Net-(U4-Pad7)*
X10350000Y-2800000D03*
G04 #@! TO.P,U4,8*
G04 #@! TO.N,/+5V*
X10850000Y-2800000D03*
D20*
G04 #@! TO.P,U4,9*
G04 #@! TO.N,N/C*
X9505000Y-1815000D03*
X10695000Y-1815000D03*
X9505000Y-985000D03*
X10695000Y-985000D03*
G04 #@! TD*
D17*
G04 #@! TO.P,C2,1*
G04 #@! TO.N,/+5V*
X14544200Y-11850000D03*
G04 #@! TO.P,C2,2*
G04 #@! TO.N,/GND*
X14544200Y-10750000D03*
G04 #@! TD*
D21*
G04 #@! TO.P,U3,1*
G04 #@! TO.N,Net-(U3-Pad1)*
X13954200Y-600000D03*
G04 #@! TO.P,U3,3*
G04 #@! TO.N,/+5V*
X12954200Y-600000D03*
G04 #@! TO.P,U3,5*
G04 #@! TO.N,/HD+*
X13954200Y-2000000D03*
G04 #@! TO.P,U3,2*
G04 #@! TO.N,/GND*
X13454200Y-600000D03*
G04 #@! TO.P,U3,4*
G04 #@! TO.N,/HD-*
X12954200Y-2000000D03*
G04 #@! TD*
D22*
G04 #@! TO.P,R1,1*
G04 #@! TO.N,Net-(P1-Pad1)*
X8704200Y-11700000D03*
G04 #@! TO.P,R1,2*
G04 #@! TO.N,Net-(R1-Pad2)*
X9604200Y-11700000D03*
G04 #@! TD*
D23*
G04 #@! TO.P,R2,1*
G04 #@! TO.N,/GND*
X9500000Y-12700000D03*
G04 #@! TO.P,R2,2*
G04 #@! TO.N,Net-(R2-Pad2)*
X9500000Y-13600000D03*
G04 #@! TD*
D22*
G04 #@! TO.P,R3,1*
G04 #@! TO.N,Net-(D1-Pad2)*
X7404200Y-13700000D03*
G04 #@! TO.P,R3,2*
G04 #@! TO.N,/+5V*
X8304200Y-13700000D03*
G04 #@! TD*
D23*
G04 #@! TO.P,R4,1*
G04 #@! TO.N,/+5V*
X14404200Y-8350000D03*
G04 #@! TO.P,R4,2*
G04 #@! TO.N,/C2CK*
X14404200Y-7450000D03*
G04 #@! TD*
D22*
G04 #@! TO.P,R5,1*
G04 #@! TO.N,/+5V*
X10954200Y-4100000D03*
G04 #@! TO.P,R5,2*
G04 #@! TO.N,/SDA*
X10054200Y-4100000D03*
G04 #@! TD*
D23*
G04 #@! TO.P,R7,1*
G04 #@! TO.N,/+5V*
X12100000Y-3350000D03*
G04 #@! TO.P,R7,2*
G04 #@! TO.N,/SCL*
X12100000Y-4250000D03*
G04 #@! TD*
D17*
G04 #@! TO.P,C4,1*
G04 #@! TO.N,/+5V*
X13254200Y-3250000D03*
G04 #@! TO.P,C4,2*
G04 #@! TO.N,/GND*
X13254200Y-4350000D03*
G04 #@! TD*
G04 #@! TO.P,C1,1*
G04 #@! TO.N,/+5V*
X12050000Y-1950000D03*
G04 #@! TO.P,C1,2*
G04 #@! TO.N,/GND*
X12050000Y-850000D03*
G04 #@! TD*
D24*
G04 #@! TO.P,TP1,1*
G04 #@! TO.N,/GND*
X18045000Y-3080000D03*
G04 #@! TD*
G04 #@! TO.P,TP5,1*
G04 #@! TO.N,/C2CK*
X19315000Y-5620000D03*
G04 #@! TD*
G04 #@! TO.P,TP2,1*
G04 #@! TO.N,/HD+*
X16775000Y-5620000D03*
G04 #@! TD*
G04 #@! TO.P,TP3,1*
G04 #@! TO.N,/HD-*
X16775000Y-8160000D03*
G04 #@! TD*
G04 #@! TO.P,TP6,1*
G04 #@! TO.N,/C2D*
X19315000Y-8160000D03*
G04 #@! TD*
G04 #@! TO.P,TP4,1*
G04 #@! TO.N,/+5V*
X18045000Y-10700000D03*
G04 #@! TD*
D25*
G04 #@! TO.P,C5,2*
G04 #@! TO.N,/GND*
X14870400Y-2234900D03*
G04 #@! TO.P,C5,1*
G04 #@! TO.N,Net-(C5-Pad1)*
X15970400Y-2234900D03*
G04 #@! TD*
D22*
G04 #@! TO.P,R6,2*
G04 #@! TO.N,/GND*
X14874200Y-1320000D03*
G04 #@! TO.P,R6,1*
G04 #@! TO.N,Net-(C5-Pad1)*
X15774200Y-1320000D03*
G04 #@! TD*
D26*
G04 #@! TO.P,REF\002A\002A,~*
G04 #@! TO.N,N/C*
X0Y0D03*
G04 #@! TD*
G04 #@! TO.P,REF\002A\002A,~*
G04 #@! TO.N,N/C*
X19775000Y-11250000D03*
G04 #@! TD*
D27*
G04 #@! TO.N,/+5V*
X11404200Y-4800000D03*
X16375000Y-11600000D03*
X12054200Y-2700000D03*
X14404200Y-9100000D03*
G04 #@! TO.N,/C2D*
X13504200Y-6200000D03*
X18104192Y-7350000D03*
G04 #@! TO.N,/HD+*
X15575000Y-4900010D03*
X13404200Y-10000000D03*
G04 #@! TO.N,/HD-*
X15410210Y-6950000D03*
X15554214Y-9124998D03*
G04 #@! TO.N,/Button*
X12054182Y-13650000D03*
X10340000Y-10349996D03*
G04 #@! TO.N,Net-(P1-Pad1)*
X7550000Y-11700000D03*
G04 #@! TO.N,Net-(D1-Pad2)*
X1441600Y-14500000D03*
G04 #@! TO.N,/LED*
X341600Y-14500000D03*
G04 #@! TO.N,/GND*
X16854200Y-2500000D03*
X11200000Y-10200000D03*
X14091760Y-4049988D03*
X11654200Y100000D03*
X15054200Y-500000D03*
X12104200Y-5300000D03*
X17054200Y-9600000D03*
X14204200Y-6200000D03*
X9884200Y-5840000D03*
X12010000Y-12700000D03*
X15200000Y-12950000D03*
G04 #@! TO.N,/Button_reset*
X10434200Y-5280000D03*
X12254218Y-11050022D03*
G04 #@! TD*
D28*
G04 #@! TO.N,/+5V*
X14154200Y-12350000D02*
X14154200Y-13650000D01*
D14*
X12000000Y-1950000D02*
X12000000Y-1900000D01*
X12000000Y-3250000D02*
X12100000Y-3350000D01*
D28*
X12054200Y-1950000D02*
X12054200Y-2700000D01*
D14*
X14500000Y-11680000D02*
X14500000Y-11650000D01*
D28*
X14630000Y-11850000D02*
X15500000Y-11850000D01*
X13780000Y-12700000D02*
X14630000Y-11850000D01*
D14*
X13654200Y-12700000D02*
X13780000Y-12700000D01*
D28*
X13100000Y-12700000D02*
X13654200Y-12700000D01*
D14*
X8350000Y-13795800D02*
X8350000Y-13700000D01*
X13154200Y-3350000D02*
X13254200Y-3250000D01*
D28*
X12100000Y-3350000D02*
X13154200Y-3350000D01*
X12054200Y-2700000D02*
X12054200Y-3250000D01*
X16375000Y-11600000D02*
X18045000Y-10700000D01*
X15500000Y-11850000D02*
X16125000Y-11850000D01*
X16125000Y-11850000D02*
X16375000Y-11600000D01*
D29*
X10950000Y-2700000D02*
X10850000Y-2800000D01*
D28*
X9104200Y-14550000D02*
X8350000Y-13795800D01*
X13904200Y-14550000D02*
X9104200Y-14550000D01*
X14154200Y-14300000D02*
X13904200Y-14550000D01*
X14154200Y-13000000D02*
X14154200Y-14300000D01*
X13654200Y-12700000D02*
X13854200Y-12700000D01*
X13854200Y-12700000D02*
X14154200Y-13000000D01*
D14*
X11704200Y-2700000D02*
X12054200Y-2700000D01*
D29*
X11704200Y-2700000D02*
X10950000Y-2700000D01*
X11854200Y-2700000D02*
X11704200Y-2700000D01*
D30*
X12954200Y-975000D02*
X12954200Y-600000D01*
D14*
X12954200Y-995800D02*
X12954200Y-975000D01*
D30*
X12050000Y-1900000D02*
X12954200Y-995800D01*
D14*
X12050000Y-1950000D02*
X12050000Y-1900000D01*
D30*
X13150000Y-8450000D02*
X14304200Y-8450000D01*
X14004200Y-7950000D02*
X14404200Y-8350000D01*
X13150000Y-7950000D02*
X14004200Y-7950000D01*
D31*
X14404200Y-8350000D02*
X14404200Y-8999916D01*
D28*
X10954200Y-4350000D02*
X10954200Y-4100000D01*
X11404200Y-4800000D02*
X10954200Y-4350000D01*
D30*
G04 #@! TO.N,/C2CK*
X13150000Y-7450000D02*
X14404200Y-7450000D01*
D14*
X14404200Y-7450000D02*
X14504200Y-7450000D01*
X15654200Y-7450000D02*
X14404200Y-7450000D01*
X16229202Y-6874998D02*
X15654200Y-7450000D01*
X19315000Y-5620000D02*
X18060002Y-6874998D01*
X18060002Y-6874998D02*
X16229202Y-6874998D01*
D30*
G04 #@! TO.N,/C2D*
X13504200Y-6900000D02*
X13504200Y-6400000D01*
D14*
X12935000Y-6935000D02*
X13110002Y-6935000D01*
D28*
X19315000Y-8160000D02*
X18104192Y-7350000D01*
D30*
X13504200Y-6700000D02*
X13504200Y-6200000D01*
X13110002Y-6935000D02*
X13269200Y-6935000D01*
X13269200Y-6935000D02*
X13504200Y-6700000D01*
D14*
G04 #@! TO.N,/HD+*
X16319990Y-5620000D02*
X16775000Y-5620000D01*
D28*
X16775000Y-5620000D02*
X15575000Y-4900010D01*
D14*
X13954200Y-2475000D02*
X13954200Y-2000000D01*
X15575000Y-4900010D02*
X15575000Y-4095800D01*
X15575000Y-4095800D02*
X13954200Y-2475000D01*
D30*
X13050647Y-10000000D02*
X13404200Y-10000000D01*
X12044200Y-10000000D02*
X13050647Y-10000000D01*
X11865000Y-9055000D02*
X11865000Y-9820800D01*
X11865000Y-9820800D02*
X12044200Y-10000000D01*
D14*
G04 #@! TO.N,/HD-*
X16660000Y-8160000D02*
X16775000Y-8160000D01*
D28*
X16775000Y-8160000D02*
X15554214Y-9124998D01*
D14*
X12335000Y-9055000D02*
X12335000Y-9528013D01*
D30*
X12335000Y-9528013D02*
X12363015Y-9499998D01*
X12363015Y-9499998D02*
X13629187Y-9499998D01*
X13629187Y-9499998D02*
X13904198Y-9499998D01*
X13904198Y-9499998D02*
X14204200Y-9800000D01*
X14879212Y-9800000D02*
X15554214Y-9124998D01*
X14204200Y-9800000D02*
X14879212Y-9800000D01*
D14*
X15410210Y-5610210D02*
X15410210Y-6950000D01*
X12954200Y-2375000D02*
X13179200Y-2600000D01*
X12954200Y-2000000D02*
X12954200Y-2375000D01*
X13179200Y-2600000D02*
X13600000Y-2600000D01*
X13600000Y-2600000D02*
X15050000Y-4050000D01*
X15050000Y-4050000D02*
X15050000Y-5250000D01*
X15050000Y-5250000D02*
X15410210Y-5610210D01*
D30*
G04 #@! TO.N,/Button*
X13100000Y-13650000D02*
X12054182Y-13650000D01*
X10335000Y-8965000D02*
X10340000Y-8970000D01*
X10340000Y-9996443D02*
X10340000Y-10349996D01*
X10340000Y-8970000D02*
X10340000Y-9996443D01*
D14*
G04 #@! TO.N,Net-(P1-Pad1)*
X8750000Y-11700000D02*
X7854200Y-11700000D01*
X7854200Y-11700000D02*
X7550000Y-11700000D01*
D30*
G04 #@! TO.N,Net-(R2-Pad2)*
X10900000Y-13650000D02*
X9654200Y-13650000D01*
D14*
G04 #@! TO.N,/SDA*
X11774200Y-5680000D02*
X11774200Y-6084200D01*
X10054200Y-4000000D02*
X10054200Y-4100000D01*
X9350000Y-2800000D02*
X9350000Y-3295800D01*
X9350000Y-3295800D02*
X10054200Y-4000000D01*
X10054200Y-4200000D02*
X10054200Y-4100000D01*
X11154200Y-5300000D02*
X10054200Y-4200000D01*
X11404200Y-5300000D02*
X11154200Y-5300000D01*
X11850000Y-6150000D02*
X11850000Y-5745800D01*
X11850000Y-5745800D02*
X11404200Y-5300000D01*
G04 #@! TO.N,/SCL*
X12000000Y-4250000D02*
X12100000Y-4250000D01*
X11250000Y-3500000D02*
X12000000Y-4250000D01*
X10050000Y-3500000D02*
X11250000Y-3500000D01*
X9850000Y-2800000D02*
X9850000Y-3300000D01*
X9850000Y-3300000D02*
X10050000Y-3500000D01*
X12865000Y-5360800D02*
X12865000Y-6435000D01*
X12100000Y-4250000D02*
X12154200Y-4250000D01*
X12154200Y-4650000D02*
X12865000Y-5360800D01*
X12100000Y-4600000D02*
X12100000Y-4250000D01*
X12150000Y-4650000D02*
X12100000Y-4600000D01*
X12154200Y-4650000D02*
X12150000Y-4650000D01*
D30*
G04 #@! TO.N,Net-(D1-Pad2)*
X6654200Y-14500000D02*
X1441600Y-14500000D01*
D14*
X7404200Y-13700000D02*
X7404200Y-13750000D01*
D30*
X7404200Y-13750000D02*
X6654200Y-14500000D01*
G04 #@! TO.N,/LED*
X9469200Y-6435000D02*
X10335000Y-6435000D01*
X8904200Y-9745800D02*
X8904200Y-7000000D01*
X8904200Y-7000000D02*
X9469200Y-6435000D01*
X8400000Y-10250000D02*
X8904200Y-9745800D01*
X1141600Y-13700000D02*
X6000000Y-13700000D01*
X341600Y-14500000D02*
X1141600Y-13700000D01*
X6350000Y-13350000D02*
X6350000Y-10850000D01*
X6350000Y-10850000D02*
X6950000Y-10250000D01*
X6000000Y-13700000D02*
X6350000Y-13350000D01*
X6950000Y-10250000D02*
X8400000Y-10250000D01*
D14*
G04 #@! TO.N,Net-(R1-Pad2)*
X10804200Y-11710000D02*
X9604200Y-11710000D01*
G04 #@! TO.N,/GND*
X12824200Y-3800000D02*
X13334200Y-3800000D01*
X18045000Y-3080000D02*
X17434200Y-3080000D01*
X11600000Y-7585000D02*
X11600000Y-7700000D01*
D29*
X12365000Y-6820000D02*
X11600000Y-7585000D01*
X12365000Y-6365000D02*
X12365000Y-6820000D01*
D14*
X11335000Y-7965000D02*
X11600000Y-7700000D01*
D29*
X11335000Y-9055000D02*
X11335000Y-7965000D01*
D14*
X12365000Y-6365000D02*
X12365000Y-5960800D01*
X14874200Y-1320000D02*
X14874200Y-1790000D01*
X14874200Y-1790000D02*
X14474200Y-1790000D01*
X13254200Y-4350000D02*
X13254200Y-4300000D01*
X13254200Y-4350000D02*
X13254200Y-3800000D01*
X13254200Y-3800000D02*
X13764200Y-3800000D01*
X15100000Y-10750000D02*
X15024200Y-10674200D01*
X15500000Y-10750000D02*
X15100000Y-10750000D01*
X15024200Y-10674200D02*
X15024200Y-10290000D01*
D29*
X18045000Y-3080000D02*
X16774200Y-3080000D01*
X19194200Y-3080000D02*
X18045000Y-3080000D01*
D14*
X18045000Y-3080000D02*
X18045000Y-3079200D01*
D29*
X18045000Y-3079200D02*
X18834200Y-2290000D01*
D14*
X18045000Y-3080000D02*
X17944200Y-3080000D01*
D29*
X17944200Y-3080000D02*
X17204200Y-2340000D01*
D30*
G04 #@! TO.N,/Button_reset*
X10895800Y-5775800D02*
X10480000Y-5360000D01*
X12754200Y-11550005D02*
X12504217Y-11300021D01*
X12504217Y-11300021D02*
X12254218Y-11050022D01*
X12754200Y-11749996D02*
X12754200Y-11550005D01*
D14*
X10850000Y-5695800D02*
X10434200Y-5280000D01*
X10775000Y-6090000D02*
X10775000Y-5630000D01*
G04 #@! TO.N,Net-(C5-Pad1)*
X15850370Y-1262730D02*
X15792600Y-1320500D01*
D32*
X18074600Y-1262730D02*
X15850370Y-1262730D01*
D14*
X17392570Y-1262730D02*
X18074600Y-1262730D01*
D32*
X16154200Y-2234900D02*
X17126370Y-1262730D01*
G04 #@! TD*
D30*
G04 #@! TO.N,/GND*
G36*
X16146231Y-12277496D02*
X16089018Y-12466104D01*
X16083712Y-12519974D01*
X16075881Y-12534219D01*
X16075709Y-12534761D01*
X16075436Y-12535262D01*
X16066114Y-12565008D01*
X16056702Y-12594679D01*
X16056639Y-12595245D01*
X16056468Y-12595789D01*
X16053086Y-12626919D01*
X16049632Y-12657712D01*
X16049624Y-12658778D01*
X16049617Y-12658847D01*
X16049623Y-12658921D01*
X16049600Y-12662250D01*
X16049600Y-14762250D01*
X16052585Y-14792691D01*
X16053293Y-14800470D01*
X15724530Y-14800470D01*
X15724530Y-14064712D01*
X15725979Y-14050000D01*
X15720196Y-13991282D01*
X15703068Y-13934820D01*
X15675255Y-13882785D01*
X15637824Y-13837176D01*
X15592215Y-13799745D01*
X15540180Y-13771932D01*
X15483718Y-13754804D01*
X15439712Y-13750470D01*
X15425000Y-13749021D01*
X15410288Y-13750470D01*
X14739712Y-13750470D01*
X14725000Y-13749021D01*
X14710288Y-13750470D01*
X14666282Y-13754804D01*
X14609820Y-13771932D01*
X14557785Y-13799745D01*
X14554200Y-13802687D01*
X14554200Y-13019643D01*
X14556135Y-12999999D01*
X14554200Y-12980353D01*
X14554200Y-12491485D01*
X14644476Y-12401209D01*
X14794200Y-12401209D01*
X14843208Y-12396382D01*
X14890334Y-12382087D01*
X14933764Y-12358873D01*
X14971832Y-12327632D01*
X15003073Y-12289564D01*
X15022100Y-12253967D01*
X15041127Y-12289564D01*
X15072368Y-12327632D01*
X15110436Y-12358873D01*
X15153866Y-12382087D01*
X15200992Y-12396382D01*
X15250000Y-12401209D01*
X15750000Y-12401209D01*
X15799008Y-12396382D01*
X15846134Y-12382087D01*
X15889564Y-12358873D01*
X15927632Y-12327632D01*
X15958873Y-12289564D01*
X15980021Y-12250000D01*
X16105354Y-12250000D01*
X16125000Y-12251935D01*
X16144646Y-12250000D01*
X16144647Y-12250000D01*
X16161833Y-12248307D01*
X16146231Y-12277496D01*
X16146231Y-12277496D01*
G37*
X16146231Y-12277496D02*
X16089018Y-12466104D01*
X16083712Y-12519974D01*
X16075881Y-12534219D01*
X16075709Y-12534761D01*
X16075436Y-12535262D01*
X16066114Y-12565008D01*
X16056702Y-12594679D01*
X16056639Y-12595245D01*
X16056468Y-12595789D01*
X16053086Y-12626919D01*
X16049632Y-12657712D01*
X16049624Y-12658778D01*
X16049617Y-12658847D01*
X16049623Y-12658921D01*
X16049600Y-12662250D01*
X16049600Y-14762250D01*
X16052585Y-14792691D01*
X16053293Y-14800470D01*
X15724530Y-14800470D01*
X15724530Y-14064712D01*
X15725979Y-14050000D01*
X15720196Y-13991282D01*
X15703068Y-13934820D01*
X15675255Y-13882785D01*
X15637824Y-13837176D01*
X15592215Y-13799745D01*
X15540180Y-13771932D01*
X15483718Y-13754804D01*
X15439712Y-13750470D01*
X15425000Y-13749021D01*
X15410288Y-13750470D01*
X14739712Y-13750470D01*
X14725000Y-13749021D01*
X14710288Y-13750470D01*
X14666282Y-13754804D01*
X14609820Y-13771932D01*
X14557785Y-13799745D01*
X14554200Y-13802687D01*
X14554200Y-13019643D01*
X14556135Y-12999999D01*
X14554200Y-12980353D01*
X14554200Y-12491485D01*
X14644476Y-12401209D01*
X14794200Y-12401209D01*
X14843208Y-12396382D01*
X14890334Y-12382087D01*
X14933764Y-12358873D01*
X14971832Y-12327632D01*
X15003073Y-12289564D01*
X15022100Y-12253967D01*
X15041127Y-12289564D01*
X15072368Y-12327632D01*
X15110436Y-12358873D01*
X15153866Y-12382087D01*
X15200992Y-12396382D01*
X15250000Y-12401209D01*
X15750000Y-12401209D01*
X15799008Y-12396382D01*
X15846134Y-12382087D01*
X15889564Y-12358873D01*
X15927632Y-12327632D01*
X15958873Y-12289564D01*
X15980021Y-12250000D01*
X16105354Y-12250000D01*
X16125000Y-12251935D01*
X16144646Y-12250000D01*
X16144647Y-12250000D01*
X16161833Y-12248307D01*
X16146231Y-12277496D01*
G36*
X14425470Y164713D02*
X14424021Y150000D01*
X14429804Y91282D01*
X14446932Y34820D01*
X14474745Y-17215D01*
X14509116Y-59095D01*
X14512176Y-62824D01*
X14557785Y-100255D01*
X14609820Y-128068D01*
X14666282Y-145196D01*
X14725000Y-150979D01*
X14739712Y-149530D01*
X15410288Y-149530D01*
X15425000Y-150979D01*
X15439712Y-149530D01*
X15483718Y-145196D01*
X15540180Y-128068D01*
X15592215Y-100255D01*
X15637824Y-62824D01*
X15675255Y-17215D01*
X15703068Y34820D01*
X15720196Y91282D01*
X15725979Y150000D01*
X15724530Y164712D01*
X15724530Y875470D01*
X16053384Y875470D01*
X16053039Y872185D01*
X16049632Y841808D01*
X16049617Y839621D01*
X16049608Y839539D01*
X16049615Y839457D01*
X16049600Y837270D01*
X16049600Y-781624D01*
X16023208Y-773618D01*
X15974200Y-768791D01*
X15574200Y-768791D01*
X15525192Y-773618D01*
X15478066Y-787913D01*
X15434636Y-811127D01*
X15396568Y-842368D01*
X15365327Y-880436D01*
X15342113Y-923866D01*
X15327818Y-970992D01*
X15324200Y-1007725D01*
X15324200Y-995377D01*
X15314593Y-947078D01*
X15295747Y-901581D01*
X15268388Y-860634D01*
X15233566Y-825812D01*
X15192620Y-798453D01*
X15147122Y-779607D01*
X15098823Y-770000D01*
X14961700Y-770000D01*
X14899200Y-832500D01*
X14899200Y-1295000D01*
X14919200Y-1295000D01*
X14919200Y-1345000D01*
X14899200Y-1345000D01*
X14899200Y-1793600D01*
X14895400Y-1797400D01*
X14895400Y-2209900D01*
X14915400Y-2209900D01*
X14915400Y-2259900D01*
X14895400Y-2259900D01*
X14895400Y-2672400D01*
X14957900Y-2734900D01*
X15195023Y-2734900D01*
X15243322Y-2725293D01*
X15288820Y-2706447D01*
X15329766Y-2679088D01*
X15364588Y-2644266D01*
X15391947Y-2603319D01*
X15410793Y-2557822D01*
X15420400Y-2509523D01*
X15420400Y-2497175D01*
X15424018Y-2533908D01*
X15438313Y-2581034D01*
X15461527Y-2624464D01*
X15492768Y-2662532D01*
X15530836Y-2693773D01*
X15574266Y-2716987D01*
X15621392Y-2731282D01*
X15670400Y-2736109D01*
X16270400Y-2736109D01*
X16319408Y-2731282D01*
X16366534Y-2716987D01*
X16409964Y-2693773D01*
X16448032Y-2662532D01*
X16479273Y-2624464D01*
X16502487Y-2581034D01*
X16516782Y-2533908D01*
X16519535Y-2505960D01*
X16800481Y-2225015D01*
X16878964Y-2248822D01*
X17025959Y-2263300D01*
X17228168Y-2263300D01*
X17210555Y-2280913D01*
X17254610Y-2324968D01*
X17095653Y-2421160D01*
X16985361Y-2619029D01*
X16915790Y-2834611D01*
X16889614Y-3059624D01*
X16907839Y-3285420D01*
X16969765Y-3503322D01*
X17073012Y-3704956D01*
X17095653Y-3738840D01*
X17254612Y-3835033D01*
X18009645Y-3080000D01*
X17995503Y-3065858D01*
X18030858Y-3030503D01*
X18045000Y-3044645D01*
X18059143Y-3030503D01*
X18094498Y-3065858D01*
X18080355Y-3080000D01*
X18835388Y-3835033D01*
X18994347Y-3738840D01*
X19104639Y-3540971D01*
X19174210Y-3325389D01*
X19200386Y-3100376D01*
X19182161Y-2874580D01*
X19120235Y-2656678D01*
X19016988Y-2455044D01*
X18994347Y-2421160D01*
X18835390Y-2324968D01*
X18879445Y-2280913D01*
X18861832Y-2263300D01*
X19123241Y-2263300D01*
X19270236Y-2248822D01*
X19458844Y-2191609D01*
X19632666Y-2098699D01*
X19785023Y-1973663D01*
X19910059Y-1821306D01*
X20002969Y-1647484D01*
X20060182Y-1458876D01*
X20065488Y-1405006D01*
X20073319Y-1390761D01*
X20073491Y-1390219D01*
X20073764Y-1389718D01*
X20083045Y-1360099D01*
X20092498Y-1330301D01*
X20092562Y-1329730D01*
X20092731Y-1329191D01*
X20096098Y-1298206D01*
X20099568Y-1267268D01*
X20099576Y-1266202D01*
X20099583Y-1266133D01*
X20099577Y-1266059D01*
X20099600Y-1262730D01*
X20099600Y837270D01*
X20096615Y867711D01*
X20095909Y875470D01*
X20275071Y875470D01*
X20275071Y-4986903D01*
X20208263Y-4886918D01*
X20048082Y-4726737D01*
X19859729Y-4600884D01*
X19650443Y-4514194D01*
X19428265Y-4470000D01*
X19201735Y-4470000D01*
X18979557Y-4514194D01*
X18860624Y-4563458D01*
X18843770Y-4478725D01*
X18783471Y-4333151D01*
X18695930Y-4202137D01*
X18587832Y-4094039D01*
X18669956Y-4051988D01*
X18703840Y-4029347D01*
X18800033Y-3870388D01*
X18045000Y-3115355D01*
X17289967Y-3870388D01*
X17386160Y-4029347D01*
X17540199Y-4115208D01*
X17453270Y-4202137D01*
X17365729Y-4333151D01*
X17305430Y-4478725D01*
X17284069Y-4586113D01*
X17110443Y-4514194D01*
X16888265Y-4470000D01*
X16661735Y-4470000D01*
X16439557Y-4514194D01*
X16230271Y-4600884D01*
X16052211Y-4719859D01*
X16038057Y-4711367D01*
X16018094Y-4663171D01*
X15963375Y-4581279D01*
X15900000Y-4517904D01*
X15900000Y-4111752D01*
X15901571Y-4095799D01*
X15900000Y-4079846D01*
X15900000Y-4079839D01*
X15895297Y-4032089D01*
X15894466Y-4029347D01*
X15876713Y-3970826D01*
X15867648Y-3953866D01*
X15846535Y-3914366D01*
X15805921Y-3864879D01*
X15793523Y-3854704D01*
X14673718Y-2734900D01*
X14782900Y-2734900D01*
X14845400Y-2672400D01*
X14845400Y-2259900D01*
X14825400Y-2259900D01*
X14825400Y-2209900D01*
X14845400Y-2209900D01*
X14845400Y-1811300D01*
X14849200Y-1807500D01*
X14849200Y-1345000D01*
X14486700Y-1345000D01*
X14424200Y-1407500D01*
X14424200Y-1644623D01*
X14433807Y-1692922D01*
X14452653Y-1738419D01*
X14465556Y-1757730D01*
X14451980Y-1763353D01*
X14411034Y-1790712D01*
X14376212Y-1825534D01*
X14355409Y-1856669D01*
X14355409Y-1775000D01*
X14350582Y-1725992D01*
X14336287Y-1678866D01*
X14313073Y-1635436D01*
X14281832Y-1597368D01*
X14243764Y-1566127D01*
X14200334Y-1542913D01*
X14153208Y-1528618D01*
X14104200Y-1523791D01*
X13804200Y-1523791D01*
X13755192Y-1528618D01*
X13708066Y-1542913D01*
X13664636Y-1566127D01*
X13626568Y-1597368D01*
X13595327Y-1635436D01*
X13572113Y-1678866D01*
X13557818Y-1725992D01*
X13552991Y-1775000D01*
X13552991Y-2225000D01*
X13557818Y-2274008D01*
X13558119Y-2275000D01*
X13350281Y-2275000D01*
X13350582Y-2274008D01*
X13355409Y-2225000D01*
X13355409Y-1775000D01*
X13350582Y-1725992D01*
X13336287Y-1678866D01*
X13313073Y-1635436D01*
X13281832Y-1597368D01*
X13243764Y-1566127D01*
X13200334Y-1542913D01*
X13153208Y-1528618D01*
X13104200Y-1523791D01*
X12921183Y-1523791D01*
X13213841Y-1231133D01*
X13246621Y-1191190D01*
X13279121Y-1130388D01*
X13295923Y-1075000D01*
X13366700Y-1075000D01*
X13429200Y-1012500D01*
X13429200Y-625000D01*
X13409200Y-625000D01*
X13409200Y-575000D01*
X13429200Y-575000D01*
X13429200Y-187500D01*
X13479200Y-187500D01*
X13479200Y-575000D01*
X13499200Y-575000D01*
X13499200Y-625000D01*
X13479200Y-625000D01*
X13479200Y-1012500D01*
X13541700Y-1075000D01*
X13628823Y-1075000D01*
X13677122Y-1065393D01*
X13703310Y-1054545D01*
X13708066Y-1057087D01*
X13755192Y-1071382D01*
X13804200Y-1076209D01*
X14104200Y-1076209D01*
X14153208Y-1071382D01*
X14200334Y-1057087D01*
X14243764Y-1033873D01*
X14281832Y-1002632D01*
X14287785Y-995377D01*
X14424200Y-995377D01*
X14424200Y-1232500D01*
X14486700Y-1295000D01*
X14849200Y-1295000D01*
X14849200Y-832500D01*
X14786700Y-770000D01*
X14649577Y-770000D01*
X14601278Y-779607D01*
X14555780Y-798453D01*
X14514834Y-825812D01*
X14480012Y-860634D01*
X14452653Y-901581D01*
X14433807Y-947078D01*
X14424200Y-995377D01*
X14287785Y-995377D01*
X14313073Y-964564D01*
X14336287Y-921134D01*
X14350582Y-874008D01*
X14355409Y-825000D01*
X14355409Y-375000D01*
X14350582Y-325992D01*
X14336287Y-278866D01*
X14313073Y-235436D01*
X14281832Y-197368D01*
X14243764Y-166127D01*
X14200334Y-142913D01*
X14153208Y-128618D01*
X14104200Y-123791D01*
X13804200Y-123791D01*
X13755192Y-128618D01*
X13708066Y-142913D01*
X13703310Y-145455D01*
X13677122Y-134607D01*
X13628823Y-125000D01*
X13541700Y-125000D01*
X13479200Y-187500D01*
X13429200Y-187500D01*
X13366700Y-125000D01*
X13279577Y-125000D01*
X13231278Y-134607D01*
X13205090Y-145455D01*
X13200334Y-142913D01*
X13153208Y-128618D01*
X13104200Y-123791D01*
X12804200Y-123791D01*
X12755192Y-128618D01*
X12708066Y-142913D01*
X12664636Y-166127D01*
X12626568Y-197368D01*
X12595327Y-235436D01*
X12572113Y-278866D01*
X12557818Y-325992D01*
X12552991Y-375000D01*
X12552991Y-825000D01*
X12557818Y-874008D01*
X12563218Y-891809D01*
X12533763Y-921263D01*
X12487500Y-875000D01*
X12075000Y-875000D01*
X12075000Y-895000D01*
X12025000Y-895000D01*
X12025000Y-875000D01*
X11612500Y-875000D01*
X11550000Y-937500D01*
X11550000Y-1174623D01*
X11559607Y-1222922D01*
X11578453Y-1268420D01*
X11605812Y-1309366D01*
X11640634Y-1344188D01*
X11681581Y-1371547D01*
X11727078Y-1390393D01*
X11775377Y-1400000D01*
X11787725Y-1400000D01*
X11750992Y-1403618D01*
X11703866Y-1417913D01*
X11660436Y-1441127D01*
X11622368Y-1472368D01*
X11591127Y-1510436D01*
X11567913Y-1553866D01*
X11553618Y-1600992D01*
X11548791Y-1650000D01*
X11548791Y-2250000D01*
X11553618Y-2299008D01*
X11561502Y-2325000D01*
X11522431Y-2325000D01*
X11536382Y-2279008D01*
X11541209Y-2230000D01*
X11541209Y-570000D01*
X11536814Y-525377D01*
X11550000Y-525377D01*
X11550000Y-762500D01*
X11612500Y-825000D01*
X12025000Y-825000D01*
X12025000Y-362500D01*
X12075000Y-362500D01*
X12075000Y-825000D01*
X12487500Y-825000D01*
X12550000Y-762500D01*
X12550000Y-525377D01*
X12540393Y-477078D01*
X12521547Y-431580D01*
X12494188Y-390634D01*
X12459366Y-355812D01*
X12418419Y-328453D01*
X12372922Y-309607D01*
X12324623Y-300000D01*
X12137500Y-300000D01*
X12075000Y-362500D01*
X12025000Y-362500D01*
X11962500Y-300000D01*
X11775377Y-300000D01*
X11727078Y-309607D01*
X11681581Y-328453D01*
X11640634Y-355812D01*
X11605812Y-390634D01*
X11578453Y-431580D01*
X11559607Y-477078D01*
X11550000Y-525377D01*
X11536814Y-525377D01*
X11536382Y-520992D01*
X11522087Y-473866D01*
X11498873Y-430436D01*
X11467632Y-392368D01*
X11429564Y-361127D01*
X11386134Y-337913D01*
X11339008Y-323618D01*
X11290000Y-318791D01*
X11226209Y-318791D01*
X11226209Y350000D01*
X11221382Y399008D01*
X11207087Y446134D01*
X11183873Y489564D01*
X11152632Y527632D01*
X11114564Y558873D01*
X11071134Y582087D01*
X11024008Y596382D01*
X10975000Y601209D01*
X10725000Y601209D01*
X10675992Y596382D01*
X10628866Y582087D01*
X10600000Y566658D01*
X10571134Y582087D01*
X10524008Y596382D01*
X10475000Y601209D01*
X10225000Y601209D01*
X10175992Y596382D01*
X10128866Y582087D01*
X10100000Y566658D01*
X10071134Y582087D01*
X10024008Y596382D01*
X9975000Y601209D01*
X9725000Y601209D01*
X9675992Y596382D01*
X9628866Y582087D01*
X9600409Y566876D01*
X9593419Y571547D01*
X9547922Y590393D01*
X9499623Y600000D01*
X9437500Y600000D01*
X9375000Y537500D01*
X9375000Y25000D01*
X9395000Y25000D01*
X9395000Y-25000D01*
X9375000Y-25000D01*
X9375000Y-45000D01*
X9325000Y-45000D01*
X9325000Y-25000D01*
X9037500Y-25000D01*
X8975000Y-87500D01*
X8975000Y-318791D01*
X8910000Y-318791D01*
X8860992Y-323618D01*
X8813866Y-337913D01*
X8770436Y-361127D01*
X8732368Y-392368D01*
X8701127Y-430436D01*
X8677913Y-473866D01*
X8663618Y-520992D01*
X8658791Y-570000D01*
X8658791Y-2230000D01*
X8663618Y-2279008D01*
X8677913Y-2326134D01*
X8701127Y-2369564D01*
X8732368Y-2407632D01*
X8770436Y-2438873D01*
X8813866Y-2462087D01*
X8860992Y-2476382D01*
X8910000Y-2481209D01*
X8973791Y-2481209D01*
X8973791Y-3150000D01*
X8978618Y-3199008D01*
X8992913Y-3246134D01*
X9016127Y-3289564D01*
X9023727Y-3298825D01*
X9029703Y-3359511D01*
X9048287Y-3420773D01*
X9053985Y-3431433D01*
X9078466Y-3477234D01*
X9119080Y-3526721D01*
X9131478Y-3536896D01*
X9602991Y-4008410D01*
X9602991Y-4400000D01*
X9607818Y-4449008D01*
X9622113Y-4496134D01*
X9645327Y-4539564D01*
X9676568Y-4577632D01*
X9714636Y-4608873D01*
X9758066Y-4632087D01*
X9805192Y-4646382D01*
X9854200Y-4651209D01*
X10045791Y-4651209D01*
X10221492Y-4826911D01*
X10197361Y-4836906D01*
X10115469Y-4891625D01*
X10045825Y-4961269D01*
X9991106Y-5043161D01*
X9953415Y-5134155D01*
X9934200Y-5230754D01*
X9934200Y-5329246D01*
X9953415Y-5425845D01*
X9991106Y-5516839D01*
X10045825Y-5598731D01*
X10115469Y-5668375D01*
X10197361Y-5723094D01*
X10288355Y-5760785D01*
X10384954Y-5780000D01*
X10405027Y-5780000D01*
X10448791Y-5823765D01*
X10448791Y-6028791D01*
X10180000Y-6028791D01*
X10130992Y-6033618D01*
X10083866Y-6047913D01*
X10040436Y-6071127D01*
X10023531Y-6085000D01*
X9486389Y-6085000D01*
X9469200Y-6083307D01*
X9452011Y-6085000D01*
X9400588Y-6090065D01*
X9334613Y-6110078D01*
X9273810Y-6142578D01*
X9220515Y-6186315D01*
X9209555Y-6199670D01*
X8668876Y-6740351D01*
X8655516Y-6751315D01*
X8611779Y-6804610D01*
X8586871Y-6851209D01*
X8579279Y-6865413D01*
X8559265Y-6931389D01*
X8552507Y-7000000D01*
X8554201Y-7017198D01*
X8554200Y-9600825D01*
X8255027Y-9900000D01*
X6967188Y-9900000D01*
X6949999Y-9898307D01*
X6881387Y-9905065D01*
X6861374Y-9911136D01*
X6815413Y-9925078D01*
X6754610Y-9957578D01*
X6701315Y-10001315D01*
X6690357Y-10014668D01*
X6114676Y-10590351D01*
X6101316Y-10601315D01*
X6057579Y-10654610D01*
X6046724Y-10674918D01*
X6025079Y-10715413D01*
X6005065Y-10781389D01*
X5998307Y-10850000D01*
X6000001Y-10867198D01*
X6000000Y-13205026D01*
X5855026Y-13350000D01*
X1158789Y-13350000D01*
X1141600Y-13348307D01*
X1072988Y-13355065D01*
X1007012Y-13375078D01*
X985833Y-13386399D01*
X946210Y-13407578D01*
X892915Y-13451315D01*
X881951Y-13464675D01*
X346627Y-14000000D01*
X292354Y-14000000D01*
X195755Y-14019215D01*
X104761Y-14056906D01*
X22869Y-14111625D01*
X-46775Y-14181269D01*
X-101494Y-14263161D01*
X-139185Y-14354155D01*
X-158400Y-14450754D01*
X-158400Y-14549246D01*
X-139185Y-14645845D01*
X-101494Y-14736839D01*
X-58977Y-14800470D01*
X-900470Y-14800470D01*
X-900470Y59095D01*
X-600000Y59095D01*
X-600000Y-59095D01*
X-576942Y-175014D01*
X-531713Y-284207D01*
X-466050Y-382478D01*
X-382478Y-466050D01*
X-284207Y-531713D01*
X-175014Y-576942D01*
X-59095Y-600000D01*
X59095Y-600000D01*
X175014Y-576942D01*
X284207Y-531713D01*
X382478Y-466050D01*
X466050Y-382478D01*
X531713Y-284207D01*
X576942Y-175014D01*
X600000Y-59095D01*
X600000Y59095D01*
X576942Y175014D01*
X531713Y284207D01*
X471299Y374623D01*
X8975000Y374623D01*
X8975000Y87500D01*
X9037500Y25000D01*
X9325000Y25000D01*
X9325000Y537500D01*
X9262500Y600000D01*
X9200377Y600000D01*
X9152078Y590393D01*
X9106581Y571547D01*
X9065634Y544188D01*
X9030812Y509366D01*
X9003453Y468420D01*
X8984607Y422922D01*
X8975000Y374623D01*
X471299Y374623D01*
X466050Y382478D01*
X382478Y466050D01*
X284207Y531713D01*
X175014Y576942D01*
X59095Y600000D01*
X-59095Y600000D01*
X-175014Y576942D01*
X-284207Y531713D01*
X-382478Y466050D01*
X-466050Y382478D01*
X-531713Y284207D01*
X-576942Y175014D01*
X-600000Y59095D01*
X-900470Y59095D01*
X-900470Y875470D01*
X14425471Y875470D01*
X14425470Y164713D01*
X14425470Y164713D01*
G37*
X14425470Y164713D02*
X14424021Y150000D01*
X14429804Y91282D01*
X14446932Y34820D01*
X14474745Y-17215D01*
X14509116Y-59095D01*
X14512176Y-62824D01*
X14557785Y-100255D01*
X14609820Y-128068D01*
X14666282Y-145196D01*
X14725000Y-150979D01*
X14739712Y-149530D01*
X15410288Y-149530D01*
X15425000Y-150979D01*
X15439712Y-149530D01*
X15483718Y-145196D01*
X15540180Y-128068D01*
X15592215Y-100255D01*
X15637824Y-62824D01*
X15675255Y-17215D01*
X15703068Y34820D01*
X15720196Y91282D01*
X15725979Y150000D01*
X15724530Y164712D01*
X15724530Y875470D01*
X16053384Y875470D01*
X16053039Y872185D01*
X16049632Y841808D01*
X16049617Y839621D01*
X16049608Y839539D01*
X16049615Y839457D01*
X16049600Y837270D01*
X16049600Y-781624D01*
X16023208Y-773618D01*
X15974200Y-768791D01*
X15574200Y-768791D01*
X15525192Y-773618D01*
X15478066Y-787913D01*
X15434636Y-811127D01*
X15396568Y-842368D01*
X15365327Y-880436D01*
X15342113Y-923866D01*
X15327818Y-970992D01*
X15324200Y-1007725D01*
X15324200Y-995377D01*
X15314593Y-947078D01*
X15295747Y-901581D01*
X15268388Y-860634D01*
X15233566Y-825812D01*
X15192620Y-798453D01*
X15147122Y-779607D01*
X15098823Y-770000D01*
X14961700Y-770000D01*
X14899200Y-832500D01*
X14899200Y-1295000D01*
X14919200Y-1295000D01*
X14919200Y-1345000D01*
X14899200Y-1345000D01*
X14899200Y-1793600D01*
X14895400Y-1797400D01*
X14895400Y-2209900D01*
X14915400Y-2209900D01*
X14915400Y-2259900D01*
X14895400Y-2259900D01*
X14895400Y-2672400D01*
X14957900Y-2734900D01*
X15195023Y-2734900D01*
X15243322Y-2725293D01*
X15288820Y-2706447D01*
X15329766Y-2679088D01*
X15364588Y-2644266D01*
X15391947Y-2603319D01*
X15410793Y-2557822D01*
X15420400Y-2509523D01*
X15420400Y-2497175D01*
X15424018Y-2533908D01*
X15438313Y-2581034D01*
X15461527Y-2624464D01*
X15492768Y-2662532D01*
X15530836Y-2693773D01*
X15574266Y-2716987D01*
X15621392Y-2731282D01*
X15670400Y-2736109D01*
X16270400Y-2736109D01*
X16319408Y-2731282D01*
X16366534Y-2716987D01*
X16409964Y-2693773D01*
X16448032Y-2662532D01*
X16479273Y-2624464D01*
X16502487Y-2581034D01*
X16516782Y-2533908D01*
X16519535Y-2505960D01*
X16800481Y-2225015D01*
X16878964Y-2248822D01*
X17025959Y-2263300D01*
X17228168Y-2263300D01*
X17210555Y-2280913D01*
X17254610Y-2324968D01*
X17095653Y-2421160D01*
X16985361Y-2619029D01*
X16915790Y-2834611D01*
X16889614Y-3059624D01*
X16907839Y-3285420D01*
X16969765Y-3503322D01*
X17073012Y-3704956D01*
X17095653Y-3738840D01*
X17254612Y-3835033D01*
X18009645Y-3080000D01*
X17995503Y-3065858D01*
X18030858Y-3030503D01*
X18045000Y-3044645D01*
X18059143Y-3030503D01*
X18094498Y-3065858D01*
X18080355Y-3080000D01*
X18835388Y-3835033D01*
X18994347Y-3738840D01*
X19104639Y-3540971D01*
X19174210Y-3325389D01*
X19200386Y-3100376D01*
X19182161Y-2874580D01*
X19120235Y-2656678D01*
X19016988Y-2455044D01*
X18994347Y-2421160D01*
X18835390Y-2324968D01*
X18879445Y-2280913D01*
X18861832Y-2263300D01*
X19123241Y-2263300D01*
X19270236Y-2248822D01*
X19458844Y-2191609D01*
X19632666Y-2098699D01*
X19785023Y-1973663D01*
X19910059Y-1821306D01*
X20002969Y-1647484D01*
X20060182Y-1458876D01*
X20065488Y-1405006D01*
X20073319Y-1390761D01*
X20073491Y-1390219D01*
X20073764Y-1389718D01*
X20083045Y-1360099D01*
X20092498Y-1330301D01*
X20092562Y-1329730D01*
X20092731Y-1329191D01*
X20096098Y-1298206D01*
X20099568Y-1267268D01*
X20099576Y-1266202D01*
X20099583Y-1266133D01*
X20099577Y-1266059D01*
X20099600Y-1262730D01*
X20099600Y837270D01*
X20096615Y867711D01*
X20095909Y875470D01*
X20275071Y875470D01*
X20275071Y-4986903D01*
X20208263Y-4886918D01*
X20048082Y-4726737D01*
X19859729Y-4600884D01*
X19650443Y-4514194D01*
X19428265Y-4470000D01*
X19201735Y-4470000D01*
X18979557Y-4514194D01*
X18860624Y-4563458D01*
X18843770Y-4478725D01*
X18783471Y-4333151D01*
X18695930Y-4202137D01*
X18587832Y-4094039D01*
X18669956Y-4051988D01*
X18703840Y-4029347D01*
X18800033Y-3870388D01*
X18045000Y-3115355D01*
X17289967Y-3870388D01*
X17386160Y-4029347D01*
X17540199Y-4115208D01*
X17453270Y-4202137D01*
X17365729Y-4333151D01*
X17305430Y-4478725D01*
X17284069Y-4586113D01*
X17110443Y-4514194D01*
X16888265Y-4470000D01*
X16661735Y-4470000D01*
X16439557Y-4514194D01*
X16230271Y-4600884D01*
X16052211Y-4719859D01*
X16038057Y-4711367D01*
X16018094Y-4663171D01*
X15963375Y-4581279D01*
X15900000Y-4517904D01*
X15900000Y-4111752D01*
X15901571Y-4095799D01*
X15900000Y-4079846D01*
X15900000Y-4079839D01*
X15895297Y-4032089D01*
X15894466Y-4029347D01*
X15876713Y-3970826D01*
X15867648Y-3953866D01*
X15846535Y-3914366D01*
X15805921Y-3864879D01*
X15793523Y-3854704D01*
X14673718Y-2734900D01*
X14782900Y-2734900D01*
X14845400Y-2672400D01*
X14845400Y-2259900D01*
X14825400Y-2259900D01*
X14825400Y-2209900D01*
X14845400Y-2209900D01*
X14845400Y-1811300D01*
X14849200Y-1807500D01*
X14849200Y-1345000D01*
X14486700Y-1345000D01*
X14424200Y-1407500D01*
X14424200Y-1644623D01*
X14433807Y-1692922D01*
X14452653Y-1738419D01*
X14465556Y-1757730D01*
X14451980Y-1763353D01*
X14411034Y-1790712D01*
X14376212Y-1825534D01*
X14355409Y-1856669D01*
X14355409Y-1775000D01*
X14350582Y-1725992D01*
X14336287Y-1678866D01*
X14313073Y-1635436D01*
X14281832Y-1597368D01*
X14243764Y-1566127D01*
X14200334Y-1542913D01*
X14153208Y-1528618D01*
X14104200Y-1523791D01*
X13804200Y-1523791D01*
X13755192Y-1528618D01*
X13708066Y-1542913D01*
X13664636Y-1566127D01*
X13626568Y-1597368D01*
X13595327Y-1635436D01*
X13572113Y-1678866D01*
X13557818Y-1725992D01*
X13552991Y-1775000D01*
X13552991Y-2225000D01*
X13557818Y-2274008D01*
X13558119Y-2275000D01*
X13350281Y-2275000D01*
X13350582Y-2274008D01*
X13355409Y-2225000D01*
X13355409Y-1775000D01*
X13350582Y-1725992D01*
X13336287Y-1678866D01*
X13313073Y-1635436D01*
X13281832Y-1597368D01*
X13243764Y-1566127D01*
X13200334Y-1542913D01*
X13153208Y-1528618D01*
X13104200Y-1523791D01*
X12921183Y-1523791D01*
X13213841Y-1231133D01*
X13246621Y-1191190D01*
X13279121Y-1130388D01*
X13295923Y-1075000D01*
X13366700Y-1075000D01*
X13429200Y-1012500D01*
X13429200Y-625000D01*
X13409200Y-625000D01*
X13409200Y-575000D01*
X13429200Y-575000D01*
X13429200Y-187500D01*
X13479200Y-187500D01*
X13479200Y-575000D01*
X13499200Y-575000D01*
X13499200Y-625000D01*
X13479200Y-625000D01*
X13479200Y-1012500D01*
X13541700Y-1075000D01*
X13628823Y-1075000D01*
X13677122Y-1065393D01*
X13703310Y-1054545D01*
X13708066Y-1057087D01*
X13755192Y-1071382D01*
X13804200Y-1076209D01*
X14104200Y-1076209D01*
X14153208Y-1071382D01*
X14200334Y-1057087D01*
X14243764Y-1033873D01*
X14281832Y-1002632D01*
X14287785Y-995377D01*
X14424200Y-995377D01*
X14424200Y-1232500D01*
X14486700Y-1295000D01*
X14849200Y-1295000D01*
X14849200Y-832500D01*
X14786700Y-770000D01*
X14649577Y-770000D01*
X14601278Y-779607D01*
X14555780Y-798453D01*
X14514834Y-825812D01*
X14480012Y-860634D01*
X14452653Y-901581D01*
X14433807Y-947078D01*
X14424200Y-995377D01*
X14287785Y-995377D01*
X14313073Y-964564D01*
X14336287Y-921134D01*
X14350582Y-874008D01*
X14355409Y-825000D01*
X14355409Y-375000D01*
X14350582Y-325992D01*
X14336287Y-278866D01*
X14313073Y-235436D01*
X14281832Y-197368D01*
X14243764Y-166127D01*
X14200334Y-142913D01*
X14153208Y-128618D01*
X14104200Y-123791D01*
X13804200Y-123791D01*
X13755192Y-128618D01*
X13708066Y-142913D01*
X13703310Y-145455D01*
X13677122Y-134607D01*
X13628823Y-125000D01*
X13541700Y-125000D01*
X13479200Y-187500D01*
X13429200Y-187500D01*
X13366700Y-125000D01*
X13279577Y-125000D01*
X13231278Y-134607D01*
X13205090Y-145455D01*
X13200334Y-142913D01*
X13153208Y-128618D01*
X13104200Y-123791D01*
X12804200Y-123791D01*
X12755192Y-128618D01*
X12708066Y-142913D01*
X12664636Y-166127D01*
X12626568Y-197368D01*
X12595327Y-235436D01*
X12572113Y-278866D01*
X12557818Y-325992D01*
X12552991Y-375000D01*
X12552991Y-825000D01*
X12557818Y-874008D01*
X12563218Y-891809D01*
X12533763Y-921263D01*
X12487500Y-875000D01*
X12075000Y-875000D01*
X12075000Y-895000D01*
X12025000Y-895000D01*
X12025000Y-875000D01*
X11612500Y-875000D01*
X11550000Y-937500D01*
X11550000Y-1174623D01*
X11559607Y-1222922D01*
X11578453Y-1268420D01*
X11605812Y-1309366D01*
X11640634Y-1344188D01*
X11681581Y-1371547D01*
X11727078Y-1390393D01*
X11775377Y-1400000D01*
X11787725Y-1400000D01*
X11750992Y-1403618D01*
X11703866Y-1417913D01*
X11660436Y-1441127D01*
X11622368Y-1472368D01*
X11591127Y-1510436D01*
X11567913Y-1553866D01*
X11553618Y-1600992D01*
X11548791Y-1650000D01*
X11548791Y-2250000D01*
X11553618Y-2299008D01*
X11561502Y-2325000D01*
X11522431Y-2325000D01*
X11536382Y-2279008D01*
X11541209Y-2230000D01*
X11541209Y-570000D01*
X11536814Y-525377D01*
X11550000Y-525377D01*
X11550000Y-762500D01*
X11612500Y-825000D01*
X12025000Y-825000D01*
X12025000Y-362500D01*
X12075000Y-362500D01*
X12075000Y-825000D01*
X12487500Y-825000D01*
X12550000Y-762500D01*
X12550000Y-525377D01*
X12540393Y-477078D01*
X12521547Y-431580D01*
X12494188Y-390634D01*
X12459366Y-355812D01*
X12418419Y-328453D01*
X12372922Y-309607D01*
X12324623Y-300000D01*
X12137500Y-300000D01*
X12075000Y-362500D01*
X12025000Y-362500D01*
X11962500Y-300000D01*
X11775377Y-300000D01*
X11727078Y-309607D01*
X11681581Y-328453D01*
X11640634Y-355812D01*
X11605812Y-390634D01*
X11578453Y-431580D01*
X11559607Y-477078D01*
X11550000Y-525377D01*
X11536814Y-525377D01*
X11536382Y-520992D01*
X11522087Y-473866D01*
X11498873Y-430436D01*
X11467632Y-392368D01*
X11429564Y-361127D01*
X11386134Y-337913D01*
X11339008Y-323618D01*
X11290000Y-318791D01*
X11226209Y-318791D01*
X11226209Y350000D01*
X11221382Y399008D01*
X11207087Y446134D01*
X11183873Y489564D01*
X11152632Y527632D01*
X11114564Y558873D01*
X11071134Y582087D01*
X11024008Y596382D01*
X10975000Y601209D01*
X10725000Y601209D01*
X10675992Y596382D01*
X10628866Y582087D01*
X10600000Y566658D01*
X10571134Y582087D01*
X10524008Y596382D01*
X10475000Y601209D01*
X10225000Y601209D01*
X10175992Y596382D01*
X10128866Y582087D01*
X10100000Y566658D01*
X10071134Y582087D01*
X10024008Y596382D01*
X9975000Y601209D01*
X9725000Y601209D01*
X9675992Y596382D01*
X9628866Y582087D01*
X9600409Y566876D01*
X9593419Y571547D01*
X9547922Y590393D01*
X9499623Y600000D01*
X9437500Y600000D01*
X9375000Y537500D01*
X9375000Y25000D01*
X9395000Y25000D01*
X9395000Y-25000D01*
X9375000Y-25000D01*
X9375000Y-45000D01*
X9325000Y-45000D01*
X9325000Y-25000D01*
X9037500Y-25000D01*
X8975000Y-87500D01*
X8975000Y-318791D01*
X8910000Y-318791D01*
X8860992Y-323618D01*
X8813866Y-337913D01*
X8770436Y-361127D01*
X8732368Y-392368D01*
X8701127Y-430436D01*
X8677913Y-473866D01*
X8663618Y-520992D01*
X8658791Y-570000D01*
X8658791Y-2230000D01*
X8663618Y-2279008D01*
X8677913Y-2326134D01*
X8701127Y-2369564D01*
X8732368Y-2407632D01*
X8770436Y-2438873D01*
X8813866Y-2462087D01*
X8860992Y-2476382D01*
X8910000Y-2481209D01*
X8973791Y-2481209D01*
X8973791Y-3150000D01*
X8978618Y-3199008D01*
X8992913Y-3246134D01*
X9016127Y-3289564D01*
X9023727Y-3298825D01*
X9029703Y-3359511D01*
X9048287Y-3420773D01*
X9053985Y-3431433D01*
X9078466Y-3477234D01*
X9119080Y-3526721D01*
X9131478Y-3536896D01*
X9602991Y-4008410D01*
X9602991Y-4400000D01*
X9607818Y-4449008D01*
X9622113Y-4496134D01*
X9645327Y-4539564D01*
X9676568Y-4577632D01*
X9714636Y-4608873D01*
X9758066Y-4632087D01*
X9805192Y-4646382D01*
X9854200Y-4651209D01*
X10045791Y-4651209D01*
X10221492Y-4826911D01*
X10197361Y-4836906D01*
X10115469Y-4891625D01*
X10045825Y-4961269D01*
X9991106Y-5043161D01*
X9953415Y-5134155D01*
X9934200Y-5230754D01*
X9934200Y-5329246D01*
X9953415Y-5425845D01*
X9991106Y-5516839D01*
X10045825Y-5598731D01*
X10115469Y-5668375D01*
X10197361Y-5723094D01*
X10288355Y-5760785D01*
X10384954Y-5780000D01*
X10405027Y-5780000D01*
X10448791Y-5823765D01*
X10448791Y-6028791D01*
X10180000Y-6028791D01*
X10130992Y-6033618D01*
X10083866Y-6047913D01*
X10040436Y-6071127D01*
X10023531Y-6085000D01*
X9486389Y-6085000D01*
X9469200Y-6083307D01*
X9452011Y-6085000D01*
X9400588Y-6090065D01*
X9334613Y-6110078D01*
X9273810Y-6142578D01*
X9220515Y-6186315D01*
X9209555Y-6199670D01*
X8668876Y-6740351D01*
X8655516Y-6751315D01*
X8611779Y-6804610D01*
X8586871Y-6851209D01*
X8579279Y-6865413D01*
X8559265Y-6931389D01*
X8552507Y-7000000D01*
X8554201Y-7017198D01*
X8554200Y-9600825D01*
X8255027Y-9900000D01*
X6967188Y-9900000D01*
X6949999Y-9898307D01*
X6881387Y-9905065D01*
X6861374Y-9911136D01*
X6815413Y-9925078D01*
X6754610Y-9957578D01*
X6701315Y-10001315D01*
X6690357Y-10014668D01*
X6114676Y-10590351D01*
X6101316Y-10601315D01*
X6057579Y-10654610D01*
X6046724Y-10674918D01*
X6025079Y-10715413D01*
X6005065Y-10781389D01*
X5998307Y-10850000D01*
X6000001Y-10867198D01*
X6000000Y-13205026D01*
X5855026Y-13350000D01*
X1158789Y-13350000D01*
X1141600Y-13348307D01*
X1072988Y-13355065D01*
X1007012Y-13375078D01*
X985833Y-13386399D01*
X946210Y-13407578D01*
X892915Y-13451315D01*
X881951Y-13464675D01*
X346627Y-14000000D01*
X292354Y-14000000D01*
X195755Y-14019215D01*
X104761Y-14056906D01*
X22869Y-14111625D01*
X-46775Y-14181269D01*
X-101494Y-14263161D01*
X-139185Y-14354155D01*
X-158400Y-14450754D01*
X-158400Y-14549246D01*
X-139185Y-14645845D01*
X-101494Y-14736839D01*
X-58977Y-14800470D01*
X-900470Y-14800470D01*
X-900470Y59095D01*
X-600000Y59095D01*
X-600000Y-59095D01*
X-576942Y-175014D01*
X-531713Y-284207D01*
X-466050Y-382478D01*
X-382478Y-466050D01*
X-284207Y-531713D01*
X-175014Y-576942D01*
X-59095Y-600000D01*
X59095Y-600000D01*
X175014Y-576942D01*
X284207Y-531713D01*
X382478Y-466050D01*
X466050Y-382478D01*
X531713Y-284207D01*
X576942Y-175014D01*
X600000Y-59095D01*
X600000Y59095D01*
X576942Y175014D01*
X531713Y284207D01*
X471299Y374623D01*
X8975000Y374623D01*
X8975000Y87500D01*
X9037500Y25000D01*
X9325000Y25000D01*
X9325000Y537500D01*
X9262500Y600000D01*
X9200377Y600000D01*
X9152078Y590393D01*
X9106581Y571547D01*
X9065634Y544188D01*
X9030812Y509366D01*
X9003453Y468420D01*
X8984607Y422922D01*
X8975000Y374623D01*
X471299Y374623D01*
X466050Y382478D01*
X382478Y466050D01*
X284207Y531713D01*
X175014Y576942D01*
X59095Y600000D01*
X-59095Y600000D01*
X-175014Y576942D01*
X-284207Y531713D01*
X-382478Y466050D01*
X-466050Y382478D01*
X-531713Y284207D01*
X-576942Y175014D01*
X-600000Y59095D01*
X-900470Y59095D01*
X-900470Y875470D01*
X14425471Y875470D01*
X14425470Y164713D01*
G36*
X9355059Y-7088640D02*
X9373622Y-7149835D01*
X9400436Y-7200000D01*
X9373622Y-7250165D01*
X9355059Y-7311360D01*
X9348791Y-7375000D01*
X9348791Y-7525000D01*
X9355059Y-7588640D01*
X9373622Y-7649835D01*
X9400436Y-7700000D01*
X9373622Y-7750165D01*
X9355059Y-7811360D01*
X9348791Y-7875000D01*
X9348791Y-8025000D01*
X9355059Y-8088640D01*
X9373622Y-8149835D01*
X9400436Y-8200000D01*
X9373622Y-8250165D01*
X9355059Y-8311360D01*
X9348791Y-8375000D01*
X9348791Y-8525000D01*
X9355059Y-8588640D01*
X9373622Y-8649835D01*
X9403767Y-8706232D01*
X9444335Y-8755665D01*
X9493768Y-8796233D01*
X9550165Y-8826378D01*
X9611360Y-8844941D01*
X9675000Y-8851209D01*
X9928791Y-8851209D01*
X9928791Y-9120000D01*
X9933618Y-9169008D01*
X9947913Y-9216134D01*
X9971127Y-9259564D01*
X9990000Y-9282562D01*
X9990001Y-9979245D01*
X9990000Y-9979255D01*
X9990000Y-9992890D01*
X9951625Y-10031265D01*
X9896906Y-10113157D01*
X9859215Y-10204151D01*
X9840000Y-10300750D01*
X9840000Y-10399242D01*
X9859215Y-10495841D01*
X9896906Y-10586835D01*
X9951625Y-10668727D01*
X10021269Y-10738371D01*
X10103161Y-10793090D01*
X10194155Y-10830781D01*
X10290754Y-10849996D01*
X10389246Y-10849996D01*
X10485845Y-10830781D01*
X10576839Y-10793090D01*
X10658731Y-10738371D01*
X10728375Y-10668727D01*
X10783094Y-10586835D01*
X10820785Y-10495841D01*
X10840000Y-10399242D01*
X10840000Y-10300750D01*
X10820785Y-10204151D01*
X10783094Y-10113157D01*
X10728375Y-10031265D01*
X10690000Y-9992890D01*
X10690000Y-9938462D01*
X10711360Y-9944941D01*
X10775000Y-9951209D01*
X10925000Y-9951209D01*
X10988640Y-9944941D01*
X11049835Y-9926378D01*
X11071488Y-9914804D01*
X11081580Y-9921547D01*
X11127078Y-9940393D01*
X11175377Y-9950000D01*
X11262500Y-9950000D01*
X11325000Y-9887500D01*
X11325000Y-9275000D01*
X11305000Y-9275000D01*
X11305000Y-9225000D01*
X11325000Y-9225000D01*
X11325000Y-9205000D01*
X11375000Y-9205000D01*
X11375000Y-9225000D01*
X11395000Y-9225000D01*
X11395000Y-9275000D01*
X11375000Y-9275000D01*
X11375000Y-9887500D01*
X11437500Y-9950000D01*
X11524623Y-9950000D01*
X11537658Y-9947407D01*
X11540079Y-9955387D01*
X11572579Y-10016190D01*
X11616316Y-10069485D01*
X11629676Y-10080449D01*
X11784546Y-10235319D01*
X11795515Y-10248685D01*
X11848810Y-10292422D01*
X11909613Y-10324922D01*
X11954569Y-10338559D01*
X11975587Y-10344935D01*
X12044199Y-10351693D01*
X12061388Y-10350000D01*
X13047094Y-10350000D01*
X13085469Y-10388375D01*
X13167361Y-10443094D01*
X13258355Y-10480785D01*
X13354954Y-10500000D01*
X13453446Y-10500000D01*
X13550045Y-10480785D01*
X13641039Y-10443094D01*
X13667554Y-10425377D01*
X14044200Y-10425377D01*
X14044200Y-10662500D01*
X14106700Y-10725000D01*
X14519200Y-10725000D01*
X14519200Y-10262500D01*
X14569200Y-10262500D01*
X14569200Y-10725000D01*
X14981700Y-10725000D01*
X15022100Y-10684600D01*
X15062500Y-10725000D01*
X15475000Y-10725000D01*
X15475000Y-10262500D01*
X15525000Y-10262500D01*
X15525000Y-10725000D01*
X15937500Y-10725000D01*
X16000000Y-10662500D01*
X16000000Y-10425377D01*
X15990393Y-10377078D01*
X15971547Y-10331580D01*
X15944188Y-10290634D01*
X15909366Y-10255812D01*
X15868419Y-10228453D01*
X15822922Y-10209607D01*
X15774623Y-10200000D01*
X15587500Y-10200000D01*
X15525000Y-10262500D01*
X15475000Y-10262500D01*
X15412500Y-10200000D01*
X15225377Y-10200000D01*
X15177078Y-10209607D01*
X15131581Y-10228453D01*
X15090634Y-10255812D01*
X15055812Y-10290634D01*
X15028453Y-10331580D01*
X15022100Y-10346917D01*
X15015747Y-10331580D01*
X14988388Y-10290634D01*
X14953566Y-10255812D01*
X14912619Y-10228453D01*
X14867122Y-10209607D01*
X14818823Y-10200000D01*
X14631700Y-10200000D01*
X14569200Y-10262500D01*
X14519200Y-10262500D01*
X14456700Y-10200000D01*
X14269577Y-10200000D01*
X14221278Y-10209607D01*
X14175781Y-10228453D01*
X14134834Y-10255812D01*
X14100012Y-10290634D01*
X14072653Y-10331580D01*
X14053807Y-10377078D01*
X14044200Y-10425377D01*
X13667554Y-10425377D01*
X13722931Y-10388375D01*
X13792575Y-10318731D01*
X13847294Y-10236839D01*
X13884985Y-10145845D01*
X13904200Y-10049246D01*
X13904200Y-9994974D01*
X13944551Y-10035325D01*
X13955515Y-10048685D01*
X14008810Y-10092422D01*
X14047602Y-10113157D01*
X14069612Y-10124922D01*
X14135588Y-10144935D01*
X14204200Y-10151693D01*
X14221389Y-10150000D01*
X14862024Y-10150000D01*
X14879212Y-10151693D01*
X14896400Y-10150000D01*
X14896401Y-10150000D01*
X14947824Y-10144935D01*
X15013799Y-10124922D01*
X15074602Y-10092422D01*
X15127897Y-10048685D01*
X15138865Y-10035320D01*
X15549188Y-9624998D01*
X15603460Y-9624998D01*
X15700059Y-9605783D01*
X15791053Y-9568092D01*
X15872945Y-9513373D01*
X15942589Y-9443729D01*
X15997308Y-9361837D01*
X16034999Y-9270843D01*
X16038779Y-9251840D01*
X16176355Y-9143090D01*
X16230271Y-9179116D01*
X16439557Y-9265806D01*
X16661735Y-9310000D01*
X16888265Y-9310000D01*
X17110443Y-9265806D01*
X17274690Y-9197772D01*
X17274690Y-9291714D01*
X17305430Y-9446255D01*
X17365729Y-9591829D01*
X17448395Y-9715547D01*
X17311918Y-9806737D01*
X17151737Y-9966918D01*
X17025884Y-10155271D01*
X16939194Y-10364557D01*
X16895000Y-10586735D01*
X16895000Y-10813265D01*
X16904361Y-10860327D01*
X16450094Y-11105142D01*
X16424246Y-11100000D01*
X16325754Y-11100000D01*
X16229155Y-11119215D01*
X16138161Y-11156906D01*
X16056269Y-11211625D01*
X15986625Y-11281269D01*
X15931906Y-11363161D01*
X15927938Y-11372741D01*
X15927632Y-11372368D01*
X15889564Y-11341127D01*
X15846134Y-11317913D01*
X15799008Y-11303618D01*
X15762275Y-11300000D01*
X15774623Y-11300000D01*
X15822922Y-11290393D01*
X15868419Y-11271547D01*
X15909366Y-11244188D01*
X15944188Y-11209366D01*
X15971547Y-11168420D01*
X15990393Y-11122922D01*
X16000000Y-11074623D01*
X16000000Y-10837500D01*
X15937500Y-10775000D01*
X15525000Y-10775000D01*
X15525000Y-10795000D01*
X15475000Y-10795000D01*
X15475000Y-10775000D01*
X15062500Y-10775000D01*
X15022100Y-10815400D01*
X14981700Y-10775000D01*
X14569200Y-10775000D01*
X14569200Y-10795000D01*
X14519200Y-10795000D01*
X14519200Y-10775000D01*
X14106700Y-10775000D01*
X14044200Y-10837500D01*
X14044200Y-11074623D01*
X14053807Y-11122922D01*
X14072653Y-11168420D01*
X14100012Y-11209366D01*
X14134834Y-11244188D01*
X14175781Y-11271547D01*
X14221278Y-11290393D01*
X14269577Y-11300000D01*
X14281925Y-11300000D01*
X14245192Y-11303618D01*
X14198066Y-11317913D01*
X14154636Y-11341127D01*
X14116568Y-11372368D01*
X14085327Y-11410436D01*
X14062113Y-11453866D01*
X14047818Y-11500992D01*
X14042991Y-11550000D01*
X14042991Y-11871324D01*
X13881209Y-12033106D01*
X13881209Y-11425000D01*
X13876382Y-11375992D01*
X13862087Y-11328866D01*
X13838873Y-11285436D01*
X13807632Y-11247368D01*
X13769564Y-11216127D01*
X13726134Y-11192913D01*
X13679008Y-11178618D01*
X13630000Y-11173791D01*
X12872961Y-11173791D01*
X12754218Y-11055048D01*
X12754218Y-11000776D01*
X12735003Y-10904177D01*
X12697312Y-10813183D01*
X12642593Y-10731291D01*
X12572949Y-10661647D01*
X12491057Y-10606928D01*
X12400063Y-10569237D01*
X12303464Y-10550022D01*
X12204972Y-10550022D01*
X12108373Y-10569237D01*
X12017379Y-10606928D01*
X11935487Y-10661647D01*
X11865843Y-10731291D01*
X11811124Y-10813183D01*
X11773433Y-10904177D01*
X11754218Y-11000776D01*
X11754218Y-11099268D01*
X11773433Y-11195867D01*
X11811124Y-11286861D01*
X11865843Y-11368753D01*
X11935487Y-11438397D01*
X12017379Y-11493116D01*
X12108373Y-11530807D01*
X12204972Y-11550022D01*
X12259244Y-11550022D01*
X12318791Y-11609570D01*
X12318791Y-12075000D01*
X12323618Y-12124008D01*
X12337913Y-12171134D01*
X12361127Y-12214564D01*
X12369691Y-12225000D01*
X12361127Y-12235436D01*
X12337913Y-12278866D01*
X12323618Y-12325992D01*
X12318791Y-12375000D01*
X12318791Y-13025000D01*
X12323618Y-13074008D01*
X12337913Y-13121134D01*
X12361127Y-13164564D01*
X12369691Y-13175000D01*
X12361127Y-13185436D01*
X12337913Y-13228866D01*
X12335549Y-13236659D01*
X12291021Y-13206906D01*
X12200027Y-13169215D01*
X12103428Y-13150000D01*
X12004936Y-13150000D01*
X11908337Y-13169215D01*
X11817343Y-13206906D01*
X11735451Y-13261625D01*
X11680390Y-13316686D01*
X11676382Y-13275992D01*
X11662087Y-13228866D01*
X11638873Y-13185436D01*
X11630384Y-13175092D01*
X11651547Y-13143419D01*
X11670393Y-13097922D01*
X11680000Y-13049623D01*
X11680000Y-12787500D01*
X11617500Y-12725000D01*
X10925000Y-12725000D01*
X10925000Y-12745000D01*
X10875000Y-12745000D01*
X10875000Y-12725000D01*
X10182500Y-12725000D01*
X10120000Y-12787500D01*
X10120000Y-13049623D01*
X10129607Y-13097922D01*
X10148453Y-13143419D01*
X10169616Y-13175092D01*
X10161127Y-13185436D01*
X10137913Y-13228866D01*
X10123618Y-13275992D01*
X10121253Y-13300000D01*
X10030021Y-13300000D01*
X10008873Y-13260436D01*
X9977632Y-13222368D01*
X9939564Y-13191127D01*
X9896134Y-13167913D01*
X9849008Y-13153618D01*
X9812275Y-13150000D01*
X9824623Y-13150000D01*
X9872922Y-13140393D01*
X9918419Y-13121547D01*
X9959366Y-13094188D01*
X9994188Y-13059366D01*
X10021547Y-13018420D01*
X10040393Y-12972922D01*
X10050000Y-12924623D01*
X10050000Y-12787500D01*
X9987500Y-12725000D01*
X9525000Y-12725000D01*
X9525000Y-12745000D01*
X9475000Y-12745000D01*
X9475000Y-12725000D01*
X9012500Y-12725000D01*
X8950000Y-12787500D01*
X8950000Y-12924623D01*
X8959607Y-12972922D01*
X8978453Y-13018420D01*
X9005812Y-13059366D01*
X9040634Y-13094188D01*
X9081581Y-13121547D01*
X9127078Y-13140393D01*
X9175377Y-13150000D01*
X9187725Y-13150000D01*
X9150992Y-13153618D01*
X9103866Y-13167913D01*
X9060436Y-13191127D01*
X9022368Y-13222368D01*
X8991127Y-13260436D01*
X8967913Y-13303866D01*
X8953618Y-13350992D01*
X8948791Y-13400000D01*
X8948791Y-13800000D01*
X8951949Y-13832064D01*
X8755409Y-13635524D01*
X8755409Y-13400000D01*
X8750582Y-13350992D01*
X8736287Y-13303866D01*
X8713073Y-13260436D01*
X8681832Y-13222368D01*
X8643764Y-13191127D01*
X8600334Y-13167913D01*
X8553208Y-13153618D01*
X8504200Y-13148791D01*
X8104200Y-13148791D01*
X8055192Y-13153618D01*
X8008066Y-13167913D01*
X7964636Y-13191127D01*
X7926568Y-13222368D01*
X7895327Y-13260436D01*
X7872113Y-13303866D01*
X7857818Y-13350992D01*
X7854200Y-13387725D01*
X7850582Y-13350992D01*
X7836287Y-13303866D01*
X7813073Y-13260436D01*
X7781832Y-13222368D01*
X7743764Y-13191127D01*
X7700334Y-13167913D01*
X7653208Y-13153618D01*
X7604200Y-13148791D01*
X7204200Y-13148791D01*
X7155192Y-13153618D01*
X7108066Y-13167913D01*
X7064636Y-13191127D01*
X7026568Y-13222368D01*
X6995327Y-13260436D01*
X6972113Y-13303866D01*
X6957818Y-13350992D01*
X6952991Y-13400000D01*
X6952991Y-13706235D01*
X6509227Y-14150000D01*
X1798706Y-14150000D01*
X1760331Y-14111625D01*
X1678439Y-14056906D01*
X1661766Y-14050000D01*
X5982812Y-14050000D01*
X6000000Y-14051693D01*
X6017188Y-14050000D01*
X6017189Y-14050000D01*
X6068612Y-14044935D01*
X6134587Y-14024922D01*
X6195390Y-13992422D01*
X6248685Y-13948685D01*
X6259653Y-13935320D01*
X6585334Y-13609640D01*
X6598684Y-13598685D01*
X6612880Y-13581388D01*
X6642422Y-13545390D01*
X6674922Y-13484587D01*
X6694935Y-13418612D01*
X6701693Y-13350000D01*
X6700000Y-13332811D01*
X6700000Y-12991422D01*
X6891422Y-12800000D01*
X8700000Y-12800000D01*
X8738268Y-12792388D01*
X8770711Y-12770711D01*
X8891422Y-12650000D01*
X8987500Y-12650000D01*
X9012500Y-12675000D01*
X9475000Y-12675000D01*
X9475000Y-12655000D01*
X9525000Y-12655000D01*
X9525000Y-12675000D01*
X9987500Y-12675000D01*
X10012500Y-12650000D01*
X10157500Y-12650000D01*
X10182500Y-12675000D01*
X10875000Y-12675000D01*
X10875000Y-12655000D01*
X10925000Y-12655000D01*
X10925000Y-12675000D01*
X11617500Y-12675000D01*
X11642500Y-12650000D01*
X11650000Y-12650000D01*
X11688268Y-12642388D01*
X11720711Y-12620711D01*
X11742388Y-12588268D01*
X11750000Y-12550000D01*
X11750000Y-11350000D01*
X11742388Y-11311732D01*
X11720711Y-11279289D01*
X11520711Y-11079289D01*
X11488268Y-11057612D01*
X11450000Y-11050000D01*
X10091422Y-11050000D01*
X9250000Y-10208578D01*
X9250000Y-9805630D01*
X9254200Y-9762989D01*
X9254200Y-9762987D01*
X9255893Y-9745801D01*
X9254200Y-9728615D01*
X9254200Y-7144973D01*
X9351067Y-7048107D01*
X9355059Y-7088640D01*
X9355059Y-7088640D01*
G37*
X9355059Y-7088640D02*
X9373622Y-7149835D01*
X9400436Y-7200000D01*
X9373622Y-7250165D01*
X9355059Y-7311360D01*
X9348791Y-7375000D01*
X9348791Y-7525000D01*
X9355059Y-7588640D01*
X9373622Y-7649835D01*
X9400436Y-7700000D01*
X9373622Y-7750165D01*
X9355059Y-7811360D01*
X9348791Y-7875000D01*
X9348791Y-8025000D01*
X9355059Y-8088640D01*
X9373622Y-8149835D01*
X9400436Y-8200000D01*
X9373622Y-8250165D01*
X9355059Y-8311360D01*
X9348791Y-8375000D01*
X9348791Y-8525000D01*
X9355059Y-8588640D01*
X9373622Y-8649835D01*
X9403767Y-8706232D01*
X9444335Y-8755665D01*
X9493768Y-8796233D01*
X9550165Y-8826378D01*
X9611360Y-8844941D01*
X9675000Y-8851209D01*
X9928791Y-8851209D01*
X9928791Y-9120000D01*
X9933618Y-9169008D01*
X9947913Y-9216134D01*
X9971127Y-9259564D01*
X9990000Y-9282562D01*
X9990001Y-9979245D01*
X9990000Y-9979255D01*
X9990000Y-9992890D01*
X9951625Y-10031265D01*
X9896906Y-10113157D01*
X9859215Y-10204151D01*
X9840000Y-10300750D01*
X9840000Y-10399242D01*
X9859215Y-10495841D01*
X9896906Y-10586835D01*
X9951625Y-10668727D01*
X10021269Y-10738371D01*
X10103161Y-10793090D01*
X10194155Y-10830781D01*
X10290754Y-10849996D01*
X10389246Y-10849996D01*
X10485845Y-10830781D01*
X10576839Y-10793090D01*
X10658731Y-10738371D01*
X10728375Y-10668727D01*
X10783094Y-10586835D01*
X10820785Y-10495841D01*
X10840000Y-10399242D01*
X10840000Y-10300750D01*
X10820785Y-10204151D01*
X10783094Y-10113157D01*
X10728375Y-10031265D01*
X10690000Y-9992890D01*
X10690000Y-9938462D01*
X10711360Y-9944941D01*
X10775000Y-9951209D01*
X10925000Y-9951209D01*
X10988640Y-9944941D01*
X11049835Y-9926378D01*
X11071488Y-9914804D01*
X11081580Y-9921547D01*
X11127078Y-9940393D01*
X11175377Y-9950000D01*
X11262500Y-9950000D01*
X11325000Y-9887500D01*
X11325000Y-9275000D01*
X11305000Y-9275000D01*
X11305000Y-9225000D01*
X11325000Y-9225000D01*
X11325000Y-9205000D01*
X11375000Y-9205000D01*
X11375000Y-9225000D01*
X11395000Y-9225000D01*
X11395000Y-9275000D01*
X11375000Y-9275000D01*
X11375000Y-9887500D01*
X11437500Y-9950000D01*
X11524623Y-9950000D01*
X11537658Y-9947407D01*
X11540079Y-9955387D01*
X11572579Y-10016190D01*
X11616316Y-10069485D01*
X11629676Y-10080449D01*
X11784546Y-10235319D01*
X11795515Y-10248685D01*
X11848810Y-10292422D01*
X11909613Y-10324922D01*
X11954569Y-10338559D01*
X11975587Y-10344935D01*
X12044199Y-10351693D01*
X12061388Y-10350000D01*
X13047094Y-10350000D01*
X13085469Y-10388375D01*
X13167361Y-10443094D01*
X13258355Y-10480785D01*
X13354954Y-10500000D01*
X13453446Y-10500000D01*
X13550045Y-10480785D01*
X13641039Y-10443094D01*
X13667554Y-10425377D01*
X14044200Y-10425377D01*
X14044200Y-10662500D01*
X14106700Y-10725000D01*
X14519200Y-10725000D01*
X14519200Y-10262500D01*
X14569200Y-10262500D01*
X14569200Y-10725000D01*
X14981700Y-10725000D01*
X15022100Y-10684600D01*
X15062500Y-10725000D01*
X15475000Y-10725000D01*
X15475000Y-10262500D01*
X15525000Y-10262500D01*
X15525000Y-10725000D01*
X15937500Y-10725000D01*
X16000000Y-10662500D01*
X16000000Y-10425377D01*
X15990393Y-10377078D01*
X15971547Y-10331580D01*
X15944188Y-10290634D01*
X15909366Y-10255812D01*
X15868419Y-10228453D01*
X15822922Y-10209607D01*
X15774623Y-10200000D01*
X15587500Y-10200000D01*
X15525000Y-10262500D01*
X15475000Y-10262500D01*
X15412500Y-10200000D01*
X15225377Y-10200000D01*
X15177078Y-10209607D01*
X15131581Y-10228453D01*
X15090634Y-10255812D01*
X15055812Y-10290634D01*
X15028453Y-10331580D01*
X15022100Y-10346917D01*
X15015747Y-10331580D01*
X14988388Y-10290634D01*
X14953566Y-10255812D01*
X14912619Y-10228453D01*
X14867122Y-10209607D01*
X14818823Y-10200000D01*
X14631700Y-10200000D01*
X14569200Y-10262500D01*
X14519200Y-10262500D01*
X14456700Y-10200000D01*
X14269577Y-10200000D01*
X14221278Y-10209607D01*
X14175781Y-10228453D01*
X14134834Y-10255812D01*
X14100012Y-10290634D01*
X14072653Y-10331580D01*
X14053807Y-10377078D01*
X14044200Y-10425377D01*
X13667554Y-10425377D01*
X13722931Y-10388375D01*
X13792575Y-10318731D01*
X13847294Y-10236839D01*
X13884985Y-10145845D01*
X13904200Y-10049246D01*
X13904200Y-9994974D01*
X13944551Y-10035325D01*
X13955515Y-10048685D01*
X14008810Y-10092422D01*
X14047602Y-10113157D01*
X14069612Y-10124922D01*
X14135588Y-10144935D01*
X14204200Y-10151693D01*
X14221389Y-10150000D01*
X14862024Y-10150000D01*
X14879212Y-10151693D01*
X14896400Y-10150000D01*
X14896401Y-10150000D01*
X14947824Y-10144935D01*
X15013799Y-10124922D01*
X15074602Y-10092422D01*
X15127897Y-10048685D01*
X15138865Y-10035320D01*
X15549188Y-9624998D01*
X15603460Y-9624998D01*
X15700059Y-9605783D01*
X15791053Y-9568092D01*
X15872945Y-9513373D01*
X15942589Y-9443729D01*
X15997308Y-9361837D01*
X16034999Y-9270843D01*
X16038779Y-9251840D01*
X16176355Y-9143090D01*
X16230271Y-9179116D01*
X16439557Y-9265806D01*
X16661735Y-9310000D01*
X16888265Y-9310000D01*
X17110443Y-9265806D01*
X17274690Y-9197772D01*
X17274690Y-9291714D01*
X17305430Y-9446255D01*
X17365729Y-9591829D01*
X17448395Y-9715547D01*
X17311918Y-9806737D01*
X17151737Y-9966918D01*
X17025884Y-10155271D01*
X16939194Y-10364557D01*
X16895000Y-10586735D01*
X16895000Y-10813265D01*
X16904361Y-10860327D01*
X16450094Y-11105142D01*
X16424246Y-11100000D01*
X16325754Y-11100000D01*
X16229155Y-11119215D01*
X16138161Y-11156906D01*
X16056269Y-11211625D01*
X15986625Y-11281269D01*
X15931906Y-11363161D01*
X15927938Y-11372741D01*
X15927632Y-11372368D01*
X15889564Y-11341127D01*
X15846134Y-11317913D01*
X15799008Y-11303618D01*
X15762275Y-11300000D01*
X15774623Y-11300000D01*
X15822922Y-11290393D01*
X15868419Y-11271547D01*
X15909366Y-11244188D01*
X15944188Y-11209366D01*
X15971547Y-11168420D01*
X15990393Y-11122922D01*
X16000000Y-11074623D01*
X16000000Y-10837500D01*
X15937500Y-10775000D01*
X15525000Y-10775000D01*
X15525000Y-10795000D01*
X15475000Y-10795000D01*
X15475000Y-10775000D01*
X15062500Y-10775000D01*
X15022100Y-10815400D01*
X14981700Y-10775000D01*
X14569200Y-10775000D01*
X14569200Y-10795000D01*
X14519200Y-10795000D01*
X14519200Y-10775000D01*
X14106700Y-10775000D01*
X14044200Y-10837500D01*
X14044200Y-11074623D01*
X14053807Y-11122922D01*
X14072653Y-11168420D01*
X14100012Y-11209366D01*
X14134834Y-11244188D01*
X14175781Y-11271547D01*
X14221278Y-11290393D01*
X14269577Y-11300000D01*
X14281925Y-11300000D01*
X14245192Y-11303618D01*
X14198066Y-11317913D01*
X14154636Y-11341127D01*
X14116568Y-11372368D01*
X14085327Y-11410436D01*
X14062113Y-11453866D01*
X14047818Y-11500992D01*
X14042991Y-11550000D01*
X14042991Y-11871324D01*
X13881209Y-12033106D01*
X13881209Y-11425000D01*
X13876382Y-11375992D01*
X13862087Y-11328866D01*
X13838873Y-11285436D01*
X13807632Y-11247368D01*
X13769564Y-11216127D01*
X13726134Y-11192913D01*
X13679008Y-11178618D01*
X13630000Y-11173791D01*
X12872961Y-11173791D01*
X12754218Y-11055048D01*
X12754218Y-11000776D01*
X12735003Y-10904177D01*
X12697312Y-10813183D01*
X12642593Y-10731291D01*
X12572949Y-10661647D01*
X12491057Y-10606928D01*
X12400063Y-10569237D01*
X12303464Y-10550022D01*
X12204972Y-10550022D01*
X12108373Y-10569237D01*
X12017379Y-10606928D01*
X11935487Y-10661647D01*
X11865843Y-10731291D01*
X11811124Y-10813183D01*
X11773433Y-10904177D01*
X11754218Y-11000776D01*
X11754218Y-11099268D01*
X11773433Y-11195867D01*
X11811124Y-11286861D01*
X11865843Y-11368753D01*
X11935487Y-11438397D01*
X12017379Y-11493116D01*
X12108373Y-11530807D01*
X12204972Y-11550022D01*
X12259244Y-11550022D01*
X12318791Y-11609570D01*
X12318791Y-12075000D01*
X12323618Y-12124008D01*
X12337913Y-12171134D01*
X12361127Y-12214564D01*
X12369691Y-12225000D01*
X12361127Y-12235436D01*
X12337913Y-12278866D01*
X12323618Y-12325992D01*
X12318791Y-12375000D01*
X12318791Y-13025000D01*
X12323618Y-13074008D01*
X12337913Y-13121134D01*
X12361127Y-13164564D01*
X12369691Y-13175000D01*
X12361127Y-13185436D01*
X12337913Y-13228866D01*
X12335549Y-13236659D01*
X12291021Y-13206906D01*
X12200027Y-13169215D01*
X12103428Y-13150000D01*
X12004936Y-13150000D01*
X11908337Y-13169215D01*
X11817343Y-13206906D01*
X11735451Y-13261625D01*
X11680390Y-13316686D01*
X11676382Y-13275992D01*
X11662087Y-13228866D01*
X11638873Y-13185436D01*
X11630384Y-13175092D01*
X11651547Y-13143419D01*
X11670393Y-13097922D01*
X11680000Y-13049623D01*
X11680000Y-12787500D01*
X11617500Y-12725000D01*
X10925000Y-12725000D01*
X10925000Y-12745000D01*
X10875000Y-12745000D01*
X10875000Y-12725000D01*
X10182500Y-12725000D01*
X10120000Y-12787500D01*
X10120000Y-13049623D01*
X10129607Y-13097922D01*
X10148453Y-13143419D01*
X10169616Y-13175092D01*
X10161127Y-13185436D01*
X10137913Y-13228866D01*
X10123618Y-13275992D01*
X10121253Y-13300000D01*
X10030021Y-13300000D01*
X10008873Y-13260436D01*
X9977632Y-13222368D01*
X9939564Y-13191127D01*
X9896134Y-13167913D01*
X9849008Y-13153618D01*
X9812275Y-13150000D01*
X9824623Y-13150000D01*
X9872922Y-13140393D01*
X9918419Y-13121547D01*
X9959366Y-13094188D01*
X9994188Y-13059366D01*
X10021547Y-13018420D01*
X10040393Y-12972922D01*
X10050000Y-12924623D01*
X10050000Y-12787500D01*
X9987500Y-12725000D01*
X9525000Y-12725000D01*
X9525000Y-12745000D01*
X9475000Y-12745000D01*
X9475000Y-12725000D01*
X9012500Y-12725000D01*
X8950000Y-12787500D01*
X8950000Y-12924623D01*
X8959607Y-12972922D01*
X8978453Y-13018420D01*
X9005812Y-13059366D01*
X9040634Y-13094188D01*
X9081581Y-13121547D01*
X9127078Y-13140393D01*
X9175377Y-13150000D01*
X9187725Y-13150000D01*
X9150992Y-13153618D01*
X9103866Y-13167913D01*
X9060436Y-13191127D01*
X9022368Y-13222368D01*
X8991127Y-13260436D01*
X8967913Y-13303866D01*
X8953618Y-13350992D01*
X8948791Y-13400000D01*
X8948791Y-13800000D01*
X8951949Y-13832064D01*
X8755409Y-13635524D01*
X8755409Y-13400000D01*
X8750582Y-13350992D01*
X8736287Y-13303866D01*
X8713073Y-13260436D01*
X8681832Y-13222368D01*
X8643764Y-13191127D01*
X8600334Y-13167913D01*
X8553208Y-13153618D01*
X8504200Y-13148791D01*
X8104200Y-13148791D01*
X8055192Y-13153618D01*
X8008066Y-13167913D01*
X7964636Y-13191127D01*
X7926568Y-13222368D01*
X7895327Y-13260436D01*
X7872113Y-13303866D01*
X7857818Y-13350992D01*
X7854200Y-13387725D01*
X7850582Y-13350992D01*
X7836287Y-13303866D01*
X7813073Y-13260436D01*
X7781832Y-13222368D01*
X7743764Y-13191127D01*
X7700334Y-13167913D01*
X7653208Y-13153618D01*
X7604200Y-13148791D01*
X7204200Y-13148791D01*
X7155192Y-13153618D01*
X7108066Y-13167913D01*
X7064636Y-13191127D01*
X7026568Y-13222368D01*
X6995327Y-13260436D01*
X6972113Y-13303866D01*
X6957818Y-13350992D01*
X6952991Y-13400000D01*
X6952991Y-13706235D01*
X6509227Y-14150000D01*
X1798706Y-14150000D01*
X1760331Y-14111625D01*
X1678439Y-14056906D01*
X1661766Y-14050000D01*
X5982812Y-14050000D01*
X6000000Y-14051693D01*
X6017188Y-14050000D01*
X6017189Y-14050000D01*
X6068612Y-14044935D01*
X6134587Y-14024922D01*
X6195390Y-13992422D01*
X6248685Y-13948685D01*
X6259653Y-13935320D01*
X6585334Y-13609640D01*
X6598684Y-13598685D01*
X6612880Y-13581388D01*
X6642422Y-13545390D01*
X6674922Y-13484587D01*
X6694935Y-13418612D01*
X6701693Y-13350000D01*
X6700000Y-13332811D01*
X6700000Y-12991422D01*
X6891422Y-12800000D01*
X8700000Y-12800000D01*
X8738268Y-12792388D01*
X8770711Y-12770711D01*
X8891422Y-12650000D01*
X8987500Y-12650000D01*
X9012500Y-12675000D01*
X9475000Y-12675000D01*
X9475000Y-12655000D01*
X9525000Y-12655000D01*
X9525000Y-12675000D01*
X9987500Y-12675000D01*
X10012500Y-12650000D01*
X10157500Y-12650000D01*
X10182500Y-12675000D01*
X10875000Y-12675000D01*
X10875000Y-12655000D01*
X10925000Y-12655000D01*
X10925000Y-12675000D01*
X11617500Y-12675000D01*
X11642500Y-12650000D01*
X11650000Y-12650000D01*
X11688268Y-12642388D01*
X11720711Y-12620711D01*
X11742388Y-12588268D01*
X11750000Y-12550000D01*
X11750000Y-11350000D01*
X11742388Y-11311732D01*
X11720711Y-11279289D01*
X11520711Y-11079289D01*
X11488268Y-11057612D01*
X11450000Y-11050000D01*
X10091422Y-11050000D01*
X9250000Y-10208578D01*
X9250000Y-9805630D01*
X9254200Y-9762989D01*
X9254200Y-9762987D01*
X9255893Y-9745801D01*
X9254200Y-9728615D01*
X9254200Y-7144973D01*
X9351067Y-7048107D01*
X9355059Y-7088640D01*
G36*
X11175000Y-7225000D02*
X12025000Y-7225000D01*
X12025000Y-7205000D01*
X12075000Y-7205000D01*
X12075000Y-7225000D01*
X12095000Y-7225000D01*
X12095000Y-7275000D01*
X12075000Y-7275000D01*
X12075000Y-8125000D01*
X12095000Y-8125000D01*
X12095000Y-8175000D01*
X12075000Y-8175000D01*
X12075000Y-8195000D01*
X12025000Y-8195000D01*
X12025000Y-8175000D01*
X11175000Y-8175000D01*
X11175000Y-8195000D01*
X11125000Y-8195000D01*
X11125000Y-8175000D01*
X11105000Y-8175000D01*
X11105000Y-8125000D01*
X11125000Y-8125000D01*
X11125000Y-7275000D01*
X11175000Y-7275000D01*
X11175000Y-8125000D01*
X12025000Y-8125000D01*
X12025000Y-7275000D01*
X11175000Y-7275000D01*
X11125000Y-7275000D01*
X11105000Y-7275000D01*
X11105000Y-7225000D01*
X11125000Y-7225000D01*
X11125000Y-7205000D01*
X11175000Y-7205000D01*
X11175000Y-7225000D01*
X11175000Y-7225000D01*
G37*
X11175000Y-7225000D02*
X12025000Y-7225000D01*
X12025000Y-7205000D01*
X12075000Y-7205000D01*
X12075000Y-7225000D01*
X12095000Y-7225000D01*
X12095000Y-7275000D01*
X12075000Y-7275000D01*
X12075000Y-8125000D01*
X12095000Y-8125000D01*
X12095000Y-8175000D01*
X12075000Y-8175000D01*
X12075000Y-8195000D01*
X12025000Y-8195000D01*
X12025000Y-8175000D01*
X11175000Y-8175000D01*
X11175000Y-8195000D01*
X11125000Y-8195000D01*
X11125000Y-8175000D01*
X11105000Y-8175000D01*
X11105000Y-8125000D01*
X11125000Y-8125000D01*
X11125000Y-7275000D01*
X11175000Y-7275000D01*
X11175000Y-8125000D01*
X12025000Y-8125000D01*
X12025000Y-7275000D01*
X11175000Y-7275000D01*
X11125000Y-7275000D01*
X11105000Y-7275000D01*
X11105000Y-7225000D01*
X11125000Y-7225000D01*
X11125000Y-7205000D01*
X11175000Y-7205000D01*
X11175000Y-7225000D01*
G36*
X14725000Y-4184620D02*
X14725001Y-5234037D01*
X14723429Y-5250000D01*
X14729703Y-5313711D01*
X14748287Y-5374973D01*
X14761172Y-5399079D01*
X14778466Y-5431434D01*
X14819080Y-5480921D01*
X14831478Y-5491096D01*
X15085210Y-5744829D01*
X15085211Y-6567893D01*
X15021835Y-6631269D01*
X14967116Y-6713161D01*
X14929425Y-6804155D01*
X14910210Y-6900754D01*
X14910210Y-6999246D01*
X14929425Y-7095845D01*
X14941501Y-7125000D01*
X14920858Y-7125000D01*
X14913073Y-7110436D01*
X14881832Y-7072368D01*
X14843764Y-7041127D01*
X14800334Y-7017913D01*
X14753208Y-7003618D01*
X14704200Y-6998791D01*
X14104200Y-6998791D01*
X14055192Y-7003618D01*
X14008066Y-7017913D01*
X13964636Y-7041127D01*
X13926568Y-7072368D01*
X13903891Y-7100000D01*
X13841495Y-7100000D01*
X13844941Y-7088640D01*
X13851209Y-7025000D01*
X13851209Y-6947555D01*
X13854200Y-6917189D01*
X13854200Y-6717188D01*
X13855893Y-6700001D01*
X13854200Y-6682812D01*
X13854200Y-6557106D01*
X13892575Y-6518731D01*
X13947294Y-6436839D01*
X13984985Y-6345845D01*
X14004200Y-6249246D01*
X14004200Y-6150754D01*
X13984985Y-6054155D01*
X13947294Y-5963161D01*
X13892575Y-5881269D01*
X13822931Y-5811625D01*
X13741039Y-5756906D01*
X13650045Y-5719215D01*
X13553446Y-5700000D01*
X13454954Y-5700000D01*
X13358355Y-5719215D01*
X13267361Y-5756906D01*
X13190000Y-5808597D01*
X13190000Y-5376752D01*
X13191571Y-5360799D01*
X13190000Y-5344846D01*
X13190000Y-5344839D01*
X13185584Y-5300000D01*
X13185297Y-5297088D01*
X13166713Y-5235826D01*
X13156270Y-5216289D01*
X13136535Y-5179366D01*
X13095921Y-5129879D01*
X13083524Y-5119705D01*
X12583861Y-4620042D01*
X12608873Y-4589564D01*
X12632087Y-4546134D01*
X12646382Y-4499008D01*
X12651209Y-4450000D01*
X12651209Y-4437500D01*
X12754200Y-4437500D01*
X12754200Y-4674623D01*
X12763807Y-4722922D01*
X12782653Y-4768420D01*
X12810012Y-4809366D01*
X12844834Y-4844188D01*
X12885781Y-4871547D01*
X12931278Y-4890393D01*
X12979577Y-4900000D01*
X13166700Y-4900000D01*
X13229200Y-4837500D01*
X13229200Y-4375000D01*
X13279200Y-4375000D01*
X13279200Y-4837500D01*
X13341700Y-4900000D01*
X13528823Y-4900000D01*
X13577122Y-4890393D01*
X13622619Y-4871547D01*
X13663566Y-4844188D01*
X13698388Y-4809366D01*
X13725747Y-4768420D01*
X13744593Y-4722922D01*
X13754200Y-4674623D01*
X13754200Y-4437500D01*
X13691700Y-4375000D01*
X13279200Y-4375000D01*
X13229200Y-4375000D01*
X12816700Y-4375000D01*
X12754200Y-4437500D01*
X12651209Y-4437500D01*
X12651209Y-4050000D01*
X12646382Y-4000992D01*
X12632087Y-3953866D01*
X12608873Y-3910436D01*
X12577632Y-3872368D01*
X12539564Y-3841127D01*
X12496134Y-3817913D01*
X12449008Y-3803618D01*
X12412275Y-3800000D01*
X12449008Y-3796382D01*
X12496134Y-3782087D01*
X12539564Y-3758873D01*
X12550376Y-3750000D01*
X12853824Y-3750000D01*
X12864636Y-3758873D01*
X12908066Y-3782087D01*
X12955192Y-3796382D01*
X12991925Y-3800000D01*
X12979577Y-3800000D01*
X12931278Y-3809607D01*
X12885781Y-3828453D01*
X12844834Y-3855812D01*
X12810012Y-3890634D01*
X12782653Y-3931580D01*
X12763807Y-3977078D01*
X12754200Y-4025377D01*
X12754200Y-4262500D01*
X12816700Y-4325000D01*
X13229200Y-4325000D01*
X13229200Y-4305000D01*
X13279200Y-4305000D01*
X13279200Y-4325000D01*
X13691700Y-4325000D01*
X13754200Y-4262500D01*
X13754200Y-4025377D01*
X13744593Y-3977078D01*
X13725747Y-3931580D01*
X13698388Y-3890634D01*
X13663566Y-3855812D01*
X13622619Y-3828453D01*
X13577122Y-3809607D01*
X13528823Y-3800000D01*
X13516475Y-3800000D01*
X13553208Y-3796382D01*
X13600334Y-3782087D01*
X13643764Y-3758873D01*
X13681832Y-3727632D01*
X13713073Y-3689564D01*
X13736287Y-3646134D01*
X13750582Y-3599008D01*
X13755409Y-3550000D01*
X13755409Y-3215028D01*
X14725000Y-4184620D01*
X14725000Y-4184620D01*
G37*
X14725000Y-4184620D02*
X14725001Y-5234037D01*
X14723429Y-5250000D01*
X14729703Y-5313711D01*
X14748287Y-5374973D01*
X14761172Y-5399079D01*
X14778466Y-5431434D01*
X14819080Y-5480921D01*
X14831478Y-5491096D01*
X15085210Y-5744829D01*
X15085211Y-6567893D01*
X15021835Y-6631269D01*
X14967116Y-6713161D01*
X14929425Y-6804155D01*
X14910210Y-6900754D01*
X14910210Y-6999246D01*
X14929425Y-7095845D01*
X14941501Y-7125000D01*
X14920858Y-7125000D01*
X14913073Y-7110436D01*
X14881832Y-7072368D01*
X14843764Y-7041127D01*
X14800334Y-7017913D01*
X14753208Y-7003618D01*
X14704200Y-6998791D01*
X14104200Y-6998791D01*
X14055192Y-7003618D01*
X14008066Y-7017913D01*
X13964636Y-7041127D01*
X13926568Y-7072368D01*
X13903891Y-7100000D01*
X13841495Y-7100000D01*
X13844941Y-7088640D01*
X13851209Y-7025000D01*
X13851209Y-6947555D01*
X13854200Y-6917189D01*
X13854200Y-6717188D01*
X13855893Y-6700001D01*
X13854200Y-6682812D01*
X13854200Y-6557106D01*
X13892575Y-6518731D01*
X13947294Y-6436839D01*
X13984985Y-6345845D01*
X14004200Y-6249246D01*
X14004200Y-6150754D01*
X13984985Y-6054155D01*
X13947294Y-5963161D01*
X13892575Y-5881269D01*
X13822931Y-5811625D01*
X13741039Y-5756906D01*
X13650045Y-5719215D01*
X13553446Y-5700000D01*
X13454954Y-5700000D01*
X13358355Y-5719215D01*
X13267361Y-5756906D01*
X13190000Y-5808597D01*
X13190000Y-5376752D01*
X13191571Y-5360799D01*
X13190000Y-5344846D01*
X13190000Y-5344839D01*
X13185584Y-5300000D01*
X13185297Y-5297088D01*
X13166713Y-5235826D01*
X13156270Y-5216289D01*
X13136535Y-5179366D01*
X13095921Y-5129879D01*
X13083524Y-5119705D01*
X12583861Y-4620042D01*
X12608873Y-4589564D01*
X12632087Y-4546134D01*
X12646382Y-4499008D01*
X12651209Y-4450000D01*
X12651209Y-4437500D01*
X12754200Y-4437500D01*
X12754200Y-4674623D01*
X12763807Y-4722922D01*
X12782653Y-4768420D01*
X12810012Y-4809366D01*
X12844834Y-4844188D01*
X12885781Y-4871547D01*
X12931278Y-4890393D01*
X12979577Y-4900000D01*
X13166700Y-4900000D01*
X13229200Y-4837500D01*
X13229200Y-4375000D01*
X13279200Y-4375000D01*
X13279200Y-4837500D01*
X13341700Y-4900000D01*
X13528823Y-4900000D01*
X13577122Y-4890393D01*
X13622619Y-4871547D01*
X13663566Y-4844188D01*
X13698388Y-4809366D01*
X13725747Y-4768420D01*
X13744593Y-4722922D01*
X13754200Y-4674623D01*
X13754200Y-4437500D01*
X13691700Y-4375000D01*
X13279200Y-4375000D01*
X13229200Y-4375000D01*
X12816700Y-4375000D01*
X12754200Y-4437500D01*
X12651209Y-4437500D01*
X12651209Y-4050000D01*
X12646382Y-4000992D01*
X12632087Y-3953866D01*
X12608873Y-3910436D01*
X12577632Y-3872368D01*
X12539564Y-3841127D01*
X12496134Y-3817913D01*
X12449008Y-3803618D01*
X12412275Y-3800000D01*
X12449008Y-3796382D01*
X12496134Y-3782087D01*
X12539564Y-3758873D01*
X12550376Y-3750000D01*
X12853824Y-3750000D01*
X12864636Y-3758873D01*
X12908066Y-3782087D01*
X12955192Y-3796382D01*
X12991925Y-3800000D01*
X12979577Y-3800000D01*
X12931278Y-3809607D01*
X12885781Y-3828453D01*
X12844834Y-3855812D01*
X12810012Y-3890634D01*
X12782653Y-3931580D01*
X12763807Y-3977078D01*
X12754200Y-4025377D01*
X12754200Y-4262500D01*
X12816700Y-4325000D01*
X13229200Y-4325000D01*
X13229200Y-4305000D01*
X13279200Y-4305000D01*
X13279200Y-4325000D01*
X13691700Y-4325000D01*
X13754200Y-4262500D01*
X13754200Y-4025377D01*
X13744593Y-3977078D01*
X13725747Y-3931580D01*
X13698388Y-3890634D01*
X13663566Y-3855812D01*
X13622619Y-3828453D01*
X13577122Y-3809607D01*
X13528823Y-3800000D01*
X13516475Y-3800000D01*
X13553208Y-3796382D01*
X13600334Y-3782087D01*
X13643764Y-3758873D01*
X13681832Y-3727632D01*
X13713073Y-3689564D01*
X13736287Y-3646134D01*
X13750582Y-3599008D01*
X13755409Y-3550000D01*
X13755409Y-3215028D01*
X14725000Y-4184620D01*
G36*
X11908902Y-4868521D02*
X11919079Y-4880921D01*
X11954907Y-4910325D01*
X12494581Y-5450000D01*
X12437500Y-5450000D01*
X12375000Y-5512500D01*
X12375000Y-6125000D01*
X12395000Y-6125000D01*
X12395000Y-6175000D01*
X12375000Y-6175000D01*
X12375000Y-6195000D01*
X12325000Y-6195000D01*
X12325000Y-6175000D01*
X12305000Y-6175000D01*
X12305000Y-6125000D01*
X12325000Y-6125000D01*
X12325000Y-5512500D01*
X12262500Y-5450000D01*
X12175377Y-5450000D01*
X12127078Y-5459607D01*
X12081580Y-5478453D01*
X12071488Y-5485196D01*
X12049835Y-5473622D01*
X12032044Y-5468225D01*
X11737562Y-5173744D01*
X11792575Y-5118731D01*
X11847294Y-5036839D01*
X11884985Y-4945845D01*
X11901782Y-4861401D01*
X11908902Y-4868521D01*
X11908902Y-4868521D01*
G37*
X11908902Y-4868521D02*
X11919079Y-4880921D01*
X11954907Y-4910325D01*
X12494581Y-5450000D01*
X12437500Y-5450000D01*
X12375000Y-5512500D01*
X12375000Y-6125000D01*
X12395000Y-6125000D01*
X12395000Y-6175000D01*
X12375000Y-6175000D01*
X12375000Y-6195000D01*
X12325000Y-6195000D01*
X12325000Y-6175000D01*
X12305000Y-6175000D01*
X12305000Y-6125000D01*
X12325000Y-6125000D01*
X12325000Y-5512500D01*
X12262500Y-5450000D01*
X12175377Y-5450000D01*
X12127078Y-5459607D01*
X12081580Y-5478453D01*
X12071488Y-5485196D01*
X12049835Y-5473622D01*
X12032044Y-5468225D01*
X11737562Y-5173744D01*
X11792575Y-5118731D01*
X11847294Y-5036839D01*
X11884985Y-4945845D01*
X11901782Y-4861401D01*
X11908902Y-4868521D01*
G36*
X13229198Y-3862498D02*
X13167909Y-3801209D01*
X13229198Y-3801209D01*
X13229198Y-3862498D01*
X13229198Y-3862498D01*
G37*
X13229198Y-3862498D02*
X13167909Y-3801209D01*
X13229198Y-3801209D01*
X13229198Y-3862498D01*
G36*
X13279202Y-3862498D02*
X13279202Y-3801209D01*
X13340491Y-3801209D01*
X13279202Y-3862498D01*
X13279202Y-3862498D01*
G37*
X13279202Y-3862498D02*
X13279202Y-3801209D01*
X13340491Y-3801209D01*
X13279202Y-3862498D01*
G36*
X17289968Y-2289610D02*
X17263658Y-2263300D01*
X17305890Y-2263300D01*
X17289968Y-2289610D01*
X17289968Y-2289610D01*
G37*
X17289968Y-2289610D02*
X17263658Y-2263300D01*
X17305890Y-2263300D01*
X17289968Y-2289610D01*
G36*
X18800032Y-2289610D02*
X18784110Y-2263300D01*
X18826342Y-2263300D01*
X18800032Y-2289610D01*
X18800032Y-2289610D01*
G37*
X18800032Y-2289610D02*
X18784110Y-2263300D01*
X18826342Y-2263300D01*
X18800032Y-2289610D01*
G04 #@! TD*
M02*
