G04 #@! TF.FileFunction,Copper,L2,Bot,Signal*
%FSLAX46Y46*%
G04 Gerber Fmt 4.6, Leading zero omitted, Abs format (unit mm)*
G04 Created by KiCad (PCBNEW 4.0.7) date 2018. May 23., Wednesday 20:43:36*
%MOMM*%
%LPD*%
G01*
G04 APERTURE LIST*
%ADD10C,0.150000*%
%ADD11R,0.650000X1.060000*%
%ADD12R,0.250000X0.700000*%
%ADD13R,1.190000X0.830000*%
%ADD14O,8.000000X8.000000*%
%ADD15O,3.500120X1.501140*%
%ADD16R,1.998980X1.198880*%
%ADD17C,1.099820*%
%ADD18R,0.500000X0.600000*%
%ADD19R,0.340000X0.340000*%
%ADD20O,0.250000X0.610000*%
%ADD21O,0.610000X0.250000*%
%ADD22R,1.500000X1.500000*%
%ADD23R,0.300000X0.450000*%
%ADD24R,0.700000X0.600000*%
%ADD25R,0.400000X0.600000*%
%ADD26R,0.600000X0.400000*%
%ADD27C,0.500000*%
%ADD28C,0.254000*%
%ADD29C,0.500000*%
%ADD30C,0.300000*%
%ADD31C,0.350000*%
%ADD32C,0.250000*%
G04 APERTURE END LIST*
D10*
D11*
X110000Y-4894500D03*
X1060000Y-4894500D03*
X2010000Y-4894500D03*
X2010000Y-7094500D03*
X110000Y-7094500D03*
X1060000Y-7094500D03*
D12*
X-1442600Y7013300D03*
X-942600Y7013300D03*
X-442600Y7013300D03*
X57400Y7013300D03*
X57400Y4213300D03*
X-442600Y4213300D03*
X-942600Y4213300D03*
X-1442600Y4213300D03*
D13*
X-97600Y5198300D03*
X-1287600Y5198300D03*
X-97600Y6028300D03*
X-1287600Y6028300D03*
D14*
X-6375000Y-453500D03*
D15*
X6999600Y5683770D03*
X6999600Y-5715750D03*
D16*
X4899020Y-1016750D03*
X4899020Y1000010D03*
X4899020Y-3516110D03*
X4899020Y3484130D03*
D17*
X6999600Y-2266430D03*
X6999600Y2234450D03*
D18*
X3015800Y-7370000D03*
X3015800Y-6270000D03*
D19*
X-540000Y1111500D03*
D20*
X-40000Y1201500D03*
X460000Y1201500D03*
X990000Y1201500D03*
X1460000Y1201500D03*
D19*
X1990000Y1111500D03*
D21*
X2060000Y611500D03*
X2060000Y111500D03*
X2060000Y-418500D03*
X2060000Y-918500D03*
D19*
X1990000Y-1418500D03*
D20*
X1490000Y-1488500D03*
X990000Y-1488500D03*
X460000Y-1488500D03*
X-40000Y-1488500D03*
D19*
X-540000Y-1418500D03*
D21*
X-610000Y-918500D03*
X-610000Y-418500D03*
X-610000Y102500D03*
X-610000Y611500D03*
D22*
X725000Y-153500D03*
D23*
X1779200Y6275200D03*
X2779200Y6275200D03*
X1779200Y4875200D03*
X2279200Y6275200D03*
X2779200Y4875200D03*
D18*
X4285800Y-4809500D03*
X4285800Y-5909500D03*
D24*
X-11375000Y-603500D03*
X-11375000Y496500D03*
D25*
X-1706480Y-5090260D03*
X-806480Y-5090260D03*
D26*
X3025960Y-5443740D03*
X3025960Y-4543740D03*
D25*
X-1701400Y-6159600D03*
X-801400Y-6159600D03*
D26*
X3203760Y38420D03*
X3203760Y-861580D03*
X1893120Y-3741940D03*
X1893120Y-2841940D03*
X2904040Y-3741940D03*
X2904040Y-2841940D03*
D18*
X3127560Y1746060D03*
X3127560Y2846060D03*
X-2445200Y5063300D03*
X-2445200Y6163300D03*
D27*
X8400600Y-3746600D03*
X3147880Y680620D03*
X7003602Y101500D03*
X8235500Y-2654400D03*
X4278210Y2120800D03*
X1853305Y4089775D03*
X3968300Y554D03*
X2529430Y4094134D03*
X565156Y-5845599D03*
X-552900Y1701700D03*
X642900Y4314514D03*
X1738210Y-2197192D03*
X640376Y3640223D03*
X2418900Y-2171800D03*
X-1391100Y-4165700D03*
X-11614600Y1224180D03*
X3714300Y-5372200D03*
X-420330Y2338039D03*
X4044500Y5587900D03*
X7918000Y2832000D03*
X463100Y1981100D03*
X2304600Y-6159600D03*
X725000Y-153500D03*
D28*
X3015800Y-7370000D02*
X3015800Y-7353400D01*
X3015800Y-7353400D02*
X3587300Y-6781900D01*
X4812801Y-6559699D02*
X4812801Y-5386501D01*
X3587300Y-6781900D02*
X4590600Y-6781900D01*
X4590600Y-6781900D02*
X4812801Y-6559699D01*
X4812801Y-5386501D02*
X4285800Y-4859500D01*
X4285800Y-4859500D02*
X4285800Y-4809500D01*
X3127560Y1746060D02*
X3098440Y1746060D01*
X3206201Y4428599D02*
X3206201Y5321801D01*
X3098440Y1746060D02*
X2600559Y2243941D01*
X2600559Y3369259D02*
X3206300Y3975000D01*
X2600559Y2243941D02*
X2600559Y3369259D01*
X3142800Y5384700D02*
X2926900Y5600600D01*
X3206300Y3975000D02*
X3206300Y4428500D01*
X3206300Y4428500D02*
X3206201Y4428599D01*
X3206201Y5321801D02*
X3150801Y5377201D01*
X2926900Y5600600D02*
X2783900Y5600600D01*
X3150801Y5377201D02*
X3142800Y5377201D01*
X3142800Y5377201D02*
X3142800Y5384700D01*
X2783900Y5600600D02*
X2779200Y5595900D01*
X-1442600Y4213300D02*
X-1442600Y3609300D01*
X-1442600Y3609300D02*
X-779600Y2946300D01*
X-779600Y2946300D02*
X818700Y2946300D01*
X818700Y2946300D02*
X1326303Y3453903D01*
X1326303Y3453903D02*
X1326303Y5206503D01*
X1326303Y5206503D02*
X1720400Y5600600D01*
X1720400Y5600600D02*
X2850700Y5600600D01*
X2850700Y5600600D02*
X2855400Y5595900D01*
X2855400Y5595900D02*
X2779200Y5595900D01*
D29*
X8047047Y-3746600D02*
X8400600Y-3746600D01*
X5129510Y-3746600D02*
X8047047Y-3746600D01*
X4899020Y-3516110D02*
X5129510Y-3746600D01*
D10*
X1060000Y-6784498D02*
X615001Y-6339499D01*
X615001Y-6339499D02*
X-271501Y-6339499D01*
X-451400Y-6159600D02*
X-801400Y-6159600D01*
X1060000Y-7094500D02*
X1060000Y-6784498D01*
X-271501Y-6339499D02*
X-451400Y-6159600D01*
D28*
X3015800Y-7370000D02*
X2961100Y-7370000D01*
X2961100Y-7370000D02*
X2901500Y-7429600D01*
X2901500Y-7429600D02*
X2901500Y-7658200D01*
X2901500Y-7658200D02*
X2658199Y-7901501D01*
X2658199Y-7901501D02*
X1493801Y-7901501D01*
X1493801Y-7901501D02*
X1250500Y-7658200D01*
X1250500Y-7658200D02*
X1250500Y-7285000D01*
X1250500Y-7285000D02*
X1060000Y-7094500D01*
X4285800Y-4809500D02*
X4285800Y-4129330D01*
X4285800Y-4129330D02*
X4899020Y-3516110D01*
D10*
X4899020Y-3516110D02*
X4681230Y-3733900D01*
X4681230Y-3733900D02*
X2912080Y-3733900D01*
X2912080Y-3733900D02*
X2904040Y-3741940D01*
X2904040Y-3741940D02*
X1893120Y-3741940D01*
D28*
X4888210Y-3505300D02*
X4899020Y-3516110D01*
X2779200Y5595900D02*
X2779200Y6275200D01*
D30*
X-2445200Y4863300D02*
X-2445200Y4813200D01*
X-2445200Y4813200D02*
X-1835600Y4203600D01*
X-1835600Y4203600D02*
X-1452300Y4203600D01*
X-1452300Y4203600D02*
X-1442600Y4213300D01*
D28*
X-2445200Y5063300D02*
X-2445200Y5113300D01*
X2060000Y611500D02*
X2112999Y664499D01*
X2112999Y664499D02*
X2381601Y664499D01*
X2381601Y664499D02*
X2415502Y698400D01*
X2415502Y698400D02*
X3130100Y698400D01*
X3130100Y698400D02*
X3147880Y680620D01*
X3127560Y1746060D02*
X2990400Y1608900D01*
X2990400Y1608900D02*
X2990400Y838100D01*
X2990400Y838100D02*
X3147880Y680620D01*
X3203760Y38420D02*
X3203760Y624740D01*
X3203760Y624740D02*
X3147880Y680620D01*
X2881160Y-3660220D02*
X2965000Y-3744060D01*
X4025000Y-3553500D02*
X4062390Y-3516110D01*
X4062390Y-3516110D02*
X4899020Y-3516110D01*
X4185800Y-4909500D02*
X4285800Y-4809500D01*
X2060000Y111500D02*
X2060000Y346500D01*
X2060000Y346500D02*
X2060000Y611500D01*
X3015800Y-7370000D02*
X3015800Y-7520000D01*
D10*
X7003602Y-1003398D02*
X7003602Y-252053D01*
X5893911Y-2113089D02*
X7003602Y-1003398D01*
X3950229Y-2113089D02*
X5893911Y-2113089D01*
X3203760Y-1366620D02*
X3950229Y-2113089D01*
X7003602Y-252053D02*
X7003602Y101500D01*
X3203760Y-861580D02*
X3203760Y-1366620D01*
X2060000Y-418500D02*
X2621400Y-418500D01*
X2621400Y-418500D02*
X2883720Y-680820D01*
X2883720Y-680820D02*
X3023000Y-680820D01*
X3023000Y-680820D02*
X3203760Y-861580D01*
X2060000Y-418500D02*
X2128640Y-418500D01*
X2060000Y-918500D02*
X2235002Y-918500D01*
X2235002Y-918500D02*
X3826122Y-2509620D01*
X3826122Y-2509620D02*
X5981120Y-2509620D01*
X5981120Y-2509620D02*
X6633900Y-3162400D01*
X6633900Y-3162400D02*
X7727500Y-3162400D01*
X7727500Y-3162400D02*
X7985501Y-2904399D01*
X7985501Y-2904399D02*
X8235500Y-2654400D01*
D28*
X4899020Y1853450D02*
X4631670Y2120800D01*
X4899020Y1000010D02*
X4899020Y1853450D01*
X4631670Y2120800D02*
X4278210Y2120800D01*
D10*
X990000Y2050800D02*
X1839489Y2900289D01*
X1839489Y4075959D02*
X1853305Y4089775D01*
X1779200Y4163880D02*
X1853305Y4089775D01*
X1839489Y2900289D02*
X1839489Y4075959D01*
X990000Y1201500D02*
X990000Y2050800D01*
X1779200Y4875200D02*
X1779200Y4163880D01*
D28*
X4321853Y554D02*
X3968300Y554D01*
X4899020Y-163310D02*
X4735156Y554D01*
X4899020Y-1016750D02*
X4899020Y-163310D01*
X4735156Y554D02*
X4321853Y554D01*
D10*
X1390200Y1981100D02*
X2139500Y2730400D01*
X1460000Y1201500D02*
X1390200Y1271300D01*
X2139500Y3704204D02*
X2529430Y4094134D01*
X1390200Y1271300D02*
X1390200Y1981100D01*
X2139500Y2730400D02*
X2139500Y3704204D01*
X2779200Y4875200D02*
X2558600Y4654600D01*
X2558600Y4654600D02*
X2558600Y4123304D01*
X2558600Y4123304D02*
X2529430Y4094134D01*
D28*
X5175000Y-1016750D02*
X4899020Y-1016750D01*
D10*
X815155Y-6095598D02*
X565156Y-5845599D01*
X1059056Y-6339499D02*
X815155Y-6095598D01*
X1565001Y-6339499D02*
X1059056Y-6339499D01*
X2010000Y-6784498D02*
X1565001Y-6339499D01*
X2010000Y-7094500D02*
X2010000Y-6784498D01*
X-540000Y1111500D02*
X-540000Y1688800D01*
X-540000Y1688800D02*
X-552900Y1701700D01*
D28*
X-1706480Y-5090260D02*
X-1977000Y-4851500D01*
X-1977000Y-4851500D02*
X-5925000Y-903500D01*
X-5925000Y-903500D02*
X-6375000Y-453500D01*
X3025960Y-4543740D02*
X2360760Y-4543740D01*
X2360760Y-4543740D02*
X2010000Y-4894500D01*
D10*
X642900Y4314514D02*
X158614Y4314514D01*
X158614Y4314514D02*
X57400Y4213300D01*
X990000Y-1488500D02*
X990000Y-1949400D01*
X990000Y-1949400D02*
X1237792Y-2197192D01*
X1237792Y-2197192D02*
X1738210Y-2197192D01*
X1738210Y-2197192D02*
X1738210Y-2687030D01*
X1738210Y-2687030D02*
X1893120Y-2841940D01*
X2418900Y-2171800D02*
X2774500Y-2171800D01*
X2774500Y-2171800D02*
X2888800Y-2286100D01*
X2873140Y-2841940D02*
X2904040Y-2841940D01*
X2888800Y-2286100D02*
X2888800Y-2826280D01*
X2888800Y-2826280D02*
X2873140Y-2841940D01*
X-442600Y3713300D02*
X-119524Y3390224D01*
X-119524Y3390224D02*
X390377Y3390224D01*
X390377Y3390224D02*
X640376Y3640223D01*
X-442600Y4213300D02*
X-442600Y3713300D01*
X2168901Y-1921801D02*
X2418900Y-2171800D01*
X1990000Y-1742900D02*
X2168901Y-1921801D01*
X1990000Y-1418500D02*
X1990000Y-1742900D01*
X-11375000Y-603500D02*
X-11379800Y-603500D01*
X-2419800Y-7785200D02*
X-1701400Y-7066800D01*
X-1701400Y-7066800D02*
X-1701400Y-6159600D01*
X-11379800Y-603500D02*
X-11627300Y-851000D01*
X-11627300Y-851000D02*
X-11627300Y-6693000D01*
X-11627300Y-6693000D02*
X-10535100Y-7785200D01*
X-10535100Y-7785200D02*
X-2419800Y-7785200D01*
X-540000Y-1418500D02*
X-540000Y-3314600D01*
X-540000Y-3314600D02*
X-1391100Y-4165700D01*
X-11375000Y984580D02*
X-11614600Y1224180D01*
X-11375000Y496500D02*
X-11375000Y984580D01*
D28*
X110000Y-4894500D02*
X-88300Y-5092800D01*
X-88300Y-5092800D02*
X-803940Y-5092800D01*
X-803940Y-5092800D02*
X-806480Y-5090260D01*
D29*
X102200Y-4902300D02*
X110000Y-4894500D01*
X3127560Y2846060D02*
X3127560Y3146960D01*
X3127560Y3146960D02*
X3371400Y3390800D01*
X3371400Y3390800D02*
X4805690Y3390800D01*
X4805690Y3390800D02*
X4899020Y3484130D01*
D28*
X3025960Y-5443740D02*
X3028500Y-5446280D01*
X3028500Y-5446280D02*
X3028500Y-6257300D01*
X3028500Y-6257300D02*
X3015800Y-6270000D01*
X3015800Y-6270000D02*
X3476900Y-6270000D01*
X3476900Y-6270000D02*
X3841300Y-5905600D01*
X3841300Y-5905600D02*
X4281900Y-5905600D01*
X4281900Y-5905600D02*
X4285800Y-5909500D01*
D31*
X2825300Y7188100D02*
X2393500Y7188100D01*
X2393500Y7188100D02*
X2304199Y7277401D01*
X2279200Y6275200D02*
X2304199Y6300199D01*
X2304199Y6300199D02*
X2304199Y7277401D01*
X2304199Y7277401D02*
X1885500Y7696100D01*
X1885500Y7696100D02*
X-6800Y7696100D01*
X4849530Y5587900D02*
X4849530Y5709970D01*
X4849530Y5709970D02*
X4095300Y6464200D01*
X4095300Y6464200D02*
X3550202Y6464200D01*
X3550202Y6464200D02*
X3189201Y6825201D01*
X3189201Y6825201D02*
X3188199Y6825201D01*
X3188199Y6825201D02*
X2825300Y7188100D01*
X57400Y7013300D02*
X57400Y7631900D01*
X-6800Y7696100D02*
X-1899100Y7696100D01*
X57400Y7631900D02*
X-6800Y7696100D01*
X-1899100Y7696100D02*
X-2445200Y7150000D01*
X-2445200Y7150000D02*
X-2445200Y6163300D01*
D32*
X1490000Y-1488500D02*
X1490000Y-1348100D01*
X1490000Y-1348100D02*
X1491800Y-1346300D01*
X1491800Y-1095999D02*
X1352100Y-956299D01*
X1491800Y-1346300D02*
X1491800Y-1095999D01*
X1352100Y-956299D02*
X1352100Y-780600D01*
X1352100Y-780600D02*
X725000Y-153500D01*
D10*
X3547500Y-5372200D02*
X3714300Y-5372200D01*
X3025960Y-5443740D02*
X3475960Y-5443740D01*
X3475960Y-5443740D02*
X3547500Y-5372200D01*
X463100Y1981100D02*
X-95700Y1981100D01*
X-420330Y2305730D02*
X-420330Y2338039D01*
X-95700Y1981100D02*
X-420330Y2305730D01*
X4849530Y5587900D02*
X4044500Y5587900D01*
D29*
X4849530Y5207185D02*
X4849530Y5587900D01*
X4899020Y3484130D02*
X4899020Y5157695D01*
X4899020Y5157695D02*
X4849530Y5207185D01*
X7668001Y3081999D02*
X7918000Y2832000D01*
X7265870Y3484130D02*
X7668001Y3081999D01*
X4899020Y3484130D02*
X7265870Y3484130D01*
D28*
X463100Y1763600D02*
X463100Y1981100D01*
X460000Y1201500D02*
X460000Y1760500D01*
X460000Y1760500D02*
X463100Y1763600D01*
X2304600Y-6159600D02*
X2215700Y-6159600D01*
X2215700Y-6159600D02*
X2043588Y-5987488D01*
X2043588Y-5987488D02*
X1383188Y-5987488D01*
X1383188Y-5987488D02*
X1060000Y-5664300D01*
X1060000Y-5664300D02*
X1060000Y-4894500D01*
X3015800Y-6270000D02*
X2905400Y-6159600D01*
X2905400Y-6159600D02*
X2304600Y-6159600D01*
X3015800Y-6270000D02*
X3015800Y-6146900D01*
X3015800Y-6146900D02*
X3079300Y-6083400D01*
D32*
X460000Y1201500D02*
X460000Y111500D01*
D10*
X460000Y111500D02*
X725000Y-153500D01*
X110000Y-7094500D02*
X-761000Y-7094500D01*
X-761000Y-7094500D02*
X-1231481Y-6624019D01*
X-1231481Y-6624019D02*
X-1231481Y-4683685D01*
X-1231481Y-4683685D02*
X-40000Y-3492204D01*
X-40000Y-3492204D02*
X-40000Y-1668500D01*
X-40000Y-1668500D02*
X-40000Y-1488500D01*
D29*
X110000Y-7094500D02*
X102200Y-7086700D01*
D28*
X110000Y-7094500D02*
X110000Y-6844500D01*
D10*
G36*
X3375470Y7096500D02*
X3377998Y7070717D01*
X3380333Y7045058D01*
X3380604Y7044138D01*
X3380698Y7043177D01*
X3388177Y7018405D01*
X3395460Y6993659D01*
X3395906Y6992806D01*
X3396184Y6991885D01*
X3408310Y6969078D01*
X3420283Y6946177D01*
X3420886Y6945427D01*
X3421338Y6944577D01*
X3437641Y6924588D01*
X3453856Y6904421D01*
X3454596Y6903800D01*
X3455202Y6903057D01*
X3475108Y6886589D01*
X3494900Y6869982D01*
X3495740Y6869520D01*
X3496485Y6868904D01*
X3519269Y6856585D01*
X3541851Y6844170D01*
X3542767Y6843879D01*
X3543615Y6843421D01*
X3568313Y6835775D01*
X3592922Y6827969D01*
X3593878Y6827862D01*
X3594798Y6827577D01*
X3620498Y6824876D01*
X3646167Y6821997D01*
X3648017Y6821984D01*
X3648083Y6821977D01*
X3648149Y6821983D01*
X3650000Y6821970D01*
X4350000Y6821970D01*
X4375783Y6824498D01*
X4401442Y6826833D01*
X4402362Y6827104D01*
X4403323Y6827198D01*
X4428095Y6834677D01*
X4452841Y6841960D01*
X4453694Y6842406D01*
X4454615Y6842684D01*
X4477422Y6854810D01*
X4500323Y6866783D01*
X4501073Y6867386D01*
X4501923Y6867838D01*
X4521912Y6884141D01*
X4542079Y6900356D01*
X4542700Y6901096D01*
X4543443Y6901702D01*
X4559911Y6921608D01*
X4576518Y6941400D01*
X4576980Y6942240D01*
X4577596Y6942985D01*
X4589915Y6965769D01*
X4602330Y6988351D01*
X4602621Y6989267D01*
X4603079Y6990115D01*
X4610725Y7014813D01*
X4618531Y7039422D01*
X4618638Y7040378D01*
X4618923Y7041298D01*
X4621624Y7066998D01*
X4624503Y7092667D01*
X4624516Y7094517D01*
X4624523Y7094583D01*
X4624517Y7094649D01*
X4624530Y7096500D01*
X4624530Y7846970D01*
X9225070Y7846970D01*
X9225070Y-7878970D01*
X4624530Y-7878970D01*
X4624530Y-7130589D01*
X4655351Y-7127893D01*
X4657129Y-7127377D01*
X4658970Y-7127196D01*
X4690045Y-7117814D01*
X4721321Y-7108728D01*
X4722969Y-7107874D01*
X4724737Y-7107340D01*
X4753410Y-7092094D01*
X4782313Y-7077112D01*
X4783760Y-7075957D01*
X4785394Y-7075088D01*
X4810573Y-7054553D01*
X4836002Y-7034253D01*
X4838583Y-7031708D01*
X4838631Y-7031669D01*
X4838668Y-7031625D01*
X4839502Y-7030802D01*
X5061703Y-6808600D01*
X5082351Y-6783463D01*
X5103241Y-6758567D01*
X5104133Y-6756944D01*
X5105307Y-6755515D01*
X5120641Y-6726917D01*
X5136337Y-6698367D01*
X5136898Y-6696598D01*
X5137771Y-6694970D01*
X5147272Y-6663896D01*
X5157109Y-6632884D01*
X5157315Y-6631046D01*
X5157857Y-6629274D01*
X5161144Y-6596913D01*
X5164767Y-6564614D01*
X5164792Y-6560997D01*
X5164799Y-6560928D01*
X5164793Y-6560864D01*
X5164801Y-6559699D01*
X5164801Y-6231896D01*
X5174232Y-6249936D01*
X5293536Y-6398321D01*
X5439389Y-6520706D01*
X5606236Y-6612431D01*
X5787722Y-6670001D01*
X5976933Y-6691225D01*
X5990554Y-6691320D01*
X8008646Y-6691320D01*
X8198135Y-6672740D01*
X8380407Y-6617709D01*
X8548518Y-6528323D01*
X8696066Y-6407986D01*
X8817430Y-6261282D01*
X8907988Y-6093799D01*
X8964290Y-5911916D01*
X8984192Y-5722561D01*
X8966936Y-5532946D01*
X8913179Y-5350295D01*
X8824968Y-5181564D01*
X8705664Y-5033179D01*
X8559811Y-4910794D01*
X8392964Y-4819069D01*
X8211478Y-4761499D01*
X8022267Y-4740275D01*
X8008646Y-4740180D01*
X5990554Y-4740180D01*
X5801065Y-4758760D01*
X5618793Y-4813791D01*
X5450682Y-4903177D01*
X5303134Y-5023514D01*
X5181770Y-5170218D01*
X5137801Y-5251537D01*
X5122995Y-5223691D01*
X5108013Y-5194788D01*
X5106858Y-5193341D01*
X5105989Y-5191707D01*
X5085454Y-5166528D01*
X5065154Y-5141099D01*
X5062609Y-5138518D01*
X5062570Y-5138470D01*
X5062526Y-5138433D01*
X5061703Y-5137599D01*
X4761888Y-4837784D01*
X4761888Y-4509500D01*
X4759031Y-4473670D01*
X4740211Y-4412898D01*
X4705205Y-4359775D01*
X4683925Y-4341638D01*
X5898510Y-4341638D01*
X5934340Y-4338781D01*
X5995112Y-4319961D01*
X6048235Y-4284955D01*
X6089503Y-4236536D01*
X6096236Y-4221600D01*
X8394686Y-4221600D01*
X8437218Y-4222491D01*
X8528955Y-4206316D01*
X8615803Y-4172629D01*
X8694454Y-4122716D01*
X8761912Y-4058476D01*
X8815608Y-3982357D01*
X8853497Y-3897259D01*
X8874134Y-3806421D01*
X8874821Y-3757211D01*
X8875588Y-3749916D01*
X8875012Y-3743583D01*
X8875620Y-3700024D01*
X8857527Y-3608646D01*
X8822029Y-3522522D01*
X8770479Y-3444934D01*
X8704841Y-3378836D01*
X8627614Y-3326745D01*
X8541741Y-3290648D01*
X8450491Y-3271917D01*
X8357341Y-3271266D01*
X8355590Y-3271600D01*
X8042564Y-3271600D01*
X8185684Y-3128480D01*
X8272118Y-3130291D01*
X8363855Y-3114116D01*
X8450703Y-3080429D01*
X8529354Y-3030516D01*
X8596812Y-2966276D01*
X8650508Y-2890157D01*
X8688397Y-2805059D01*
X8709034Y-2714221D01*
X8710520Y-2607824D01*
X8692427Y-2516446D01*
X8656929Y-2430322D01*
X8605379Y-2352734D01*
X8539741Y-2286636D01*
X8462514Y-2234545D01*
X8376641Y-2198448D01*
X8285391Y-2179717D01*
X8192241Y-2179066D01*
X8100739Y-2196521D01*
X8014370Y-2231417D01*
X7936423Y-2282424D01*
X7869869Y-2347599D01*
X7817241Y-2424460D01*
X7780544Y-2510079D01*
X7761177Y-2601196D01*
X7759876Y-2694339D01*
X7761647Y-2703989D01*
X7603236Y-2862400D01*
X7497495Y-2862400D01*
X7589041Y-2775222D01*
X7676640Y-2651042D01*
X7738451Y-2512213D01*
X7772119Y-2364022D01*
X7774543Y-2190446D01*
X7745025Y-2041373D01*
X7687115Y-1900872D01*
X7603018Y-1774295D01*
X7495936Y-1666463D01*
X7369949Y-1581484D01*
X7229856Y-1522594D01*
X7080992Y-1492037D01*
X6940210Y-1491054D01*
X7215734Y-1215530D01*
X7233320Y-1194121D01*
X7251136Y-1172888D01*
X7251896Y-1171506D01*
X7252897Y-1170287D01*
X7265984Y-1145880D01*
X7279343Y-1121581D01*
X7279821Y-1120075D01*
X7280565Y-1118687D01*
X7288658Y-1092217D01*
X7297046Y-1065772D01*
X7297222Y-1064203D01*
X7297683Y-1062695D01*
X7300480Y-1035157D01*
X7303573Y-1007587D01*
X7303594Y-1004500D01*
X7303600Y-1004445D01*
X7303595Y-1004393D01*
X7303602Y-1003398D01*
X7303602Y-268763D01*
X7364914Y-210376D01*
X7418610Y-134257D01*
X7456499Y-49159D01*
X7477136Y41679D01*
X7478622Y148076D01*
X7460529Y239454D01*
X7425031Y325578D01*
X7373481Y403166D01*
X7307843Y469264D01*
X7230616Y521355D01*
X7144743Y557452D01*
X7053493Y576183D01*
X6960343Y576834D01*
X6868841Y559379D01*
X6782472Y524483D01*
X6704525Y473476D01*
X6637971Y408301D01*
X6585343Y331440D01*
X6548646Y245821D01*
X6529279Y154704D01*
X6527978Y61561D01*
X6544794Y-30061D01*
X6579085Y-116672D01*
X6629547Y-194973D01*
X6694256Y-261981D01*
X6703602Y-268477D01*
X6703602Y-879134D01*
X6124598Y-1458138D01*
X6124598Y-417310D01*
X6121741Y-381480D01*
X6102921Y-320708D01*
X6067915Y-267585D01*
X6019496Y-226317D01*
X5961497Y-200173D01*
X5898510Y-191222D01*
X5251020Y-191222D01*
X5251020Y-163310D01*
X5247844Y-130919D01*
X5245013Y-98559D01*
X5244497Y-96781D01*
X5244316Y-94940D01*
X5234934Y-63865D01*
X5225848Y-32589D01*
X5224994Y-30941D01*
X5224460Y-29173D01*
X5209214Y-500D01*
X5194232Y28403D01*
X5193077Y29850D01*
X5192208Y31484D01*
X5171673Y56663D01*
X5151373Y82092D01*
X5148832Y84669D01*
X5148789Y84721D01*
X5148740Y84761D01*
X5147922Y85591D01*
X5059032Y174482D01*
X5898510Y174482D01*
X5934340Y177339D01*
X5995112Y196159D01*
X6048235Y231165D01*
X6089503Y279584D01*
X6115647Y337583D01*
X6124598Y400570D01*
X6124598Y1599450D01*
X6121741Y1635280D01*
X6102921Y1696052D01*
X6067915Y1749175D01*
X6019496Y1790443D01*
X5961497Y1816587D01*
X5898510Y1825538D01*
X5251020Y1825538D01*
X5251020Y1853450D01*
X5247844Y1885841D01*
X5245013Y1918201D01*
X5244497Y1919979D01*
X5244316Y1921820D01*
X5234934Y1952895D01*
X5225848Y1984171D01*
X5224994Y1985819D01*
X5224460Y1987587D01*
X5209214Y2016260D01*
X5194232Y2045163D01*
X5193077Y2046610D01*
X5192208Y2048244D01*
X5171673Y2073423D01*
X5151373Y2098852D01*
X5148828Y2101433D01*
X5148789Y2101481D01*
X5148745Y2101518D01*
X5147922Y2102352D01*
X5080981Y2169293D01*
X6223672Y2169293D01*
X6251105Y2019822D01*
X6307048Y1878527D01*
X6389370Y1750788D01*
X6494936Y1641471D01*
X6619724Y1554741D01*
X6758981Y1493901D01*
X6907404Y1461268D01*
X7059338Y1458086D01*
X7208997Y1484475D01*
X7350680Y1539430D01*
X7478990Y1620858D01*
X7589041Y1725658D01*
X7676640Y1849838D01*
X7738451Y1988667D01*
X7772119Y2136858D01*
X7774543Y2310434D01*
X7745025Y2459507D01*
X7687115Y2600008D01*
X7603018Y2726585D01*
X7495936Y2834417D01*
X7369949Y2919396D01*
X7229856Y2978286D01*
X7080992Y3008843D01*
X6929028Y3009904D01*
X6779752Y2981428D01*
X6638850Y2924500D01*
X6511689Y2841289D01*
X6403113Y2734962D01*
X6317256Y2609572D01*
X6257390Y2469893D01*
X6225794Y2321246D01*
X6223672Y2169293D01*
X5080981Y2169293D01*
X4880572Y2369702D01*
X4855409Y2390370D01*
X4830538Y2411240D01*
X4828915Y2412132D01*
X4827486Y2413306D01*
X4798869Y2428650D01*
X4770338Y2444336D01*
X4768571Y2444897D01*
X4766942Y2445770D01*
X4735894Y2455262D01*
X4704855Y2465108D01*
X4703012Y2465315D01*
X4701245Y2465855D01*
X4668933Y2469137D01*
X4636585Y2472766D01*
X4632968Y2472791D01*
X4632899Y2472798D01*
X4632835Y2472792D01*
X4631670Y2472800D01*
X4598105Y2472800D01*
X4582451Y2488564D01*
X4505224Y2540655D01*
X4419351Y2576752D01*
X4328101Y2595483D01*
X4234951Y2596134D01*
X4143449Y2578679D01*
X4057080Y2543783D01*
X3979133Y2492776D01*
X3912579Y2427601D01*
X3859951Y2350740D01*
X3823254Y2265121D01*
X3803887Y2174004D01*
X3802586Y2080861D01*
X3819402Y1989239D01*
X3853693Y1902628D01*
X3903375Y1825538D01*
X3899530Y1825538D01*
X3863700Y1822681D01*
X3802928Y1803861D01*
X3749805Y1768855D01*
X3708537Y1720436D01*
X3682393Y1662437D01*
X3673442Y1599450D01*
X3673442Y400570D01*
X3674607Y385956D01*
X3673165Y388145D01*
X3624746Y429413D01*
X3567499Y455218D01*
X3600777Y529961D01*
X3621414Y620799D01*
X3622900Y727196D01*
X3604807Y818574D01*
X3569309Y904698D01*
X3517759Y982286D01*
X3452121Y1048384D01*
X3374894Y1100475D01*
X3342400Y1114134D01*
X3342400Y1219972D01*
X3377560Y1219972D01*
X3413390Y1222829D01*
X3474162Y1241649D01*
X3527285Y1276655D01*
X3568553Y1325074D01*
X3594697Y1383073D01*
X3603648Y1446060D01*
X3603648Y2046060D01*
X3600791Y2081890D01*
X3581971Y2142662D01*
X3546965Y2195785D01*
X3498546Y2237053D01*
X3440547Y2263197D01*
X3385216Y2271060D01*
X3404645Y2271060D01*
X3457775Y2281628D01*
X3507821Y2302358D01*
X3552862Y2332454D01*
X3591167Y2370758D01*
X3621262Y2415799D01*
X3641992Y2465846D01*
X3652560Y2518975D01*
X3652560Y2692310D01*
X3583812Y2761058D01*
X3652560Y2761058D01*
X3652560Y2762319D01*
X3655828Y2754429D01*
X3685924Y2709388D01*
X3724228Y2671083D01*
X3769269Y2640988D01*
X3819316Y2620258D01*
X3872445Y2609690D01*
X4745270Y2609690D01*
X4814020Y2678440D01*
X4814020Y3399130D01*
X4984020Y3399130D01*
X4984020Y2678440D01*
X5052770Y2609690D01*
X5925595Y2609690D01*
X5978724Y2620258D01*
X6028771Y2640988D01*
X6073812Y2671083D01*
X6112116Y2709388D01*
X6142212Y2754429D01*
X6162942Y2804475D01*
X6173510Y2857605D01*
X6173510Y3330380D01*
X6104760Y3399130D01*
X4984020Y3399130D01*
X4814020Y3399130D01*
X3693280Y3399130D01*
X3624530Y3330380D01*
X3624530Y3268431D01*
X3621262Y3276321D01*
X3591167Y3321362D01*
X3552862Y3359666D01*
X3507821Y3389762D01*
X3457775Y3410492D01*
X3404645Y3421060D01*
X3281310Y3421060D01*
X3212562Y3352312D01*
X3212562Y3421060D01*
X3150164Y3421060D01*
X3455201Y3726098D01*
X3475845Y3751231D01*
X3496740Y3776132D01*
X3497632Y3777755D01*
X3498806Y3779184D01*
X3514150Y3807801D01*
X3529836Y3836332D01*
X3530397Y3838099D01*
X3531270Y3839728D01*
X3540762Y3870776D01*
X3550608Y3901815D01*
X3550815Y3903658D01*
X3551355Y3905425D01*
X3554637Y3937737D01*
X3558266Y3970085D01*
X3558291Y3973702D01*
X3558298Y3973771D01*
X3558292Y3973835D01*
X3558300Y3975000D01*
X3558300Y4110655D01*
X3624530Y4110655D01*
X3624530Y3637880D01*
X3693280Y3569130D01*
X4814020Y3569130D01*
X4814020Y4289820D01*
X4984020Y4289820D01*
X4984020Y3569130D01*
X6104760Y3569130D01*
X6173510Y3637880D01*
X6173510Y4110655D01*
X6162942Y4163785D01*
X6142212Y4213831D01*
X6112116Y4258872D01*
X6073812Y4297177D01*
X6028771Y4327272D01*
X5978724Y4348002D01*
X5925595Y4358570D01*
X5052770Y4358570D01*
X4984020Y4289820D01*
X4814020Y4289820D01*
X4745270Y4358570D01*
X3872445Y4358570D01*
X3819316Y4348002D01*
X3769269Y4327272D01*
X3724228Y4297177D01*
X3685924Y4258872D01*
X3655828Y4213831D01*
X3635098Y4163785D01*
X3624530Y4110655D01*
X3558300Y4110655D01*
X3558300Y4428500D01*
X3558201Y4429510D01*
X3558201Y5321801D01*
X3555025Y5354192D01*
X3552194Y5386552D01*
X3551678Y5388330D01*
X3551497Y5390171D01*
X3542105Y5421278D01*
X3533028Y5452523D01*
X3532176Y5454168D01*
X3531641Y5455938D01*
X3516386Y5484628D01*
X3501413Y5513514D01*
X3500258Y5514961D01*
X3499389Y5516595D01*
X3478854Y5541774D01*
X3458554Y5567203D01*
X3456013Y5569780D01*
X3455970Y5569832D01*
X3455921Y5569872D01*
X3455102Y5570703D01*
X3399703Y5626103D01*
X3395760Y5629342D01*
X3395153Y5630102D01*
X3392612Y5632679D01*
X3392569Y5632731D01*
X3392520Y5632771D01*
X3391702Y5633601D01*
X3334723Y5690581D01*
X5015008Y5690581D01*
X5032264Y5500966D01*
X5086021Y5318315D01*
X5174232Y5149584D01*
X5293536Y5001199D01*
X5439389Y4878814D01*
X5606236Y4787089D01*
X5787722Y4729519D01*
X5976933Y4708295D01*
X5990554Y4708200D01*
X8008646Y4708200D01*
X8198135Y4726780D01*
X8380407Y4781811D01*
X8548518Y4871197D01*
X8696066Y4991534D01*
X8817430Y5138238D01*
X8907988Y5305721D01*
X8964290Y5487604D01*
X8984192Y5676959D01*
X8966936Y5866574D01*
X8913179Y6049225D01*
X8824968Y6217956D01*
X8705664Y6366341D01*
X8559811Y6488726D01*
X8392964Y6580451D01*
X8211478Y6638021D01*
X8022267Y6659245D01*
X8008646Y6659340D01*
X5990554Y6659340D01*
X5801065Y6640760D01*
X5618793Y6585729D01*
X5450682Y6496343D01*
X5303134Y6376006D01*
X5181770Y6229302D01*
X5091212Y6061819D01*
X5034910Y5879936D01*
X5015008Y5690581D01*
X3334723Y5690581D01*
X3175802Y5849502D01*
X3150639Y5870170D01*
X3131200Y5886482D01*
X3131200Y5953632D01*
X3146337Y5987213D01*
X3155288Y6050200D01*
X3155288Y6500200D01*
X3152431Y6536030D01*
X3133611Y6596802D01*
X3098605Y6649925D01*
X3050186Y6691193D01*
X2992187Y6717337D01*
X2929200Y6726288D01*
X2629200Y6726288D01*
X2593370Y6723431D01*
X2591134Y6722738D01*
X2559461Y6743902D01*
X2509415Y6764632D01*
X2456285Y6775200D01*
X2422950Y6775200D01*
X2354200Y6706450D01*
X2354200Y6360200D01*
X2384200Y6360200D01*
X2384200Y6190200D01*
X2354200Y6190200D01*
X2354200Y6170200D01*
X2204200Y6170200D01*
X2204200Y6190200D01*
X2174200Y6190200D01*
X2174200Y6360200D01*
X2204200Y6360200D01*
X2204200Y6706450D01*
X2135450Y6775200D01*
X2102115Y6775200D01*
X2048985Y6764632D01*
X1998939Y6743902D01*
X1964971Y6721205D01*
X1929200Y6726288D01*
X1629200Y6726288D01*
X1593370Y6723431D01*
X1532598Y6704611D01*
X1479475Y6669605D01*
X1438207Y6621186D01*
X1412063Y6563187D01*
X1403112Y6500200D01*
X1403112Y6050200D01*
X1405969Y6014370D01*
X1424789Y5953598D01*
X1459795Y5900475D01*
X1495939Y5869669D01*
X1474998Y5852953D01*
X1472421Y5850412D01*
X1472369Y5850369D01*
X1472329Y5850320D01*
X1471498Y5849501D01*
X1077401Y5455405D01*
X1056733Y5430242D01*
X1035863Y5405371D01*
X1034971Y5403748D01*
X1033797Y5402319D01*
X1018453Y5373702D01*
X1002767Y5345171D01*
X1002206Y5343404D01*
X1001333Y5341775D01*
X991841Y5310727D01*
X981995Y5279688D01*
X981788Y5277845D01*
X981248Y5276078D01*
X977966Y5243766D01*
X974337Y5211418D01*
X974312Y5207801D01*
X974305Y5207732D01*
X974311Y5207668D01*
X974303Y5206503D01*
X974303Y4654926D01*
X947141Y4682278D01*
X869914Y4734369D01*
X784041Y4770466D01*
X723432Y4782907D01*
X723488Y4783300D01*
X723488Y6443300D01*
X720631Y6479130D01*
X701811Y6539902D01*
X666805Y6593025D01*
X618386Y6634293D01*
X560387Y6660437D01*
X497400Y6669388D01*
X457400Y6669388D01*
X457400Y6859550D01*
X388650Y6928300D01*
X119900Y6928300D01*
X119900Y6908300D01*
X-5100Y6908300D01*
X-5100Y6928300D01*
X-47600Y6928300D01*
X-47600Y7098300D01*
X-5100Y7098300D01*
X-5100Y7569550D01*
X119900Y7569550D01*
X119900Y7098300D01*
X388650Y7098300D01*
X457400Y7167050D01*
X457400Y7390385D01*
X446832Y7443514D01*
X426102Y7493561D01*
X396007Y7538602D01*
X357702Y7576906D01*
X312661Y7607002D01*
X262615Y7627732D01*
X209485Y7638300D01*
X188650Y7638300D01*
X119900Y7569550D01*
X-5100Y7569550D01*
X-73850Y7638300D01*
X-94685Y7638300D01*
X-147815Y7627732D01*
X-197861Y7607002D01*
X-242902Y7576906D01*
X-244107Y7575701D01*
X-254613Y7580437D01*
X-317600Y7589388D01*
X-567600Y7589388D01*
X-603430Y7586531D01*
X-664202Y7567711D01*
X-691360Y7549815D01*
X-696614Y7554293D01*
X-754613Y7580437D01*
X-817600Y7589388D01*
X-1067600Y7589388D01*
X-1103430Y7586531D01*
X-1164202Y7567711D01*
X-1191360Y7549815D01*
X-1196614Y7554293D01*
X-1254613Y7580437D01*
X-1317600Y7589388D01*
X-1567600Y7589388D01*
X-1603430Y7586531D01*
X-1664202Y7567711D01*
X-1717325Y7532705D01*
X-1758593Y7484286D01*
X-1784737Y7426287D01*
X-1793688Y7363300D01*
X-1793688Y6669388D01*
X-1882600Y6669388D01*
X-1918430Y6666531D01*
X-1979202Y6647711D01*
X-1986134Y6643143D01*
X-2019898Y6676906D01*
X-2064939Y6707002D01*
X-2114985Y6727732D01*
X-2168115Y6738300D01*
X-2291450Y6738300D01*
X-2360200Y6669550D01*
X-2360200Y6248300D01*
X-2340200Y6248300D01*
X-2340200Y6078300D01*
X-2360200Y6078300D01*
X-2360200Y6058300D01*
X-2530200Y6058300D01*
X-2530200Y6078300D01*
X-2550200Y6078300D01*
X-2550200Y6248300D01*
X-2530200Y6248300D01*
X-2530200Y6669550D01*
X-2598950Y6738300D01*
X-2722285Y6738300D01*
X-2738500Y6735075D01*
X-2738500Y7846970D01*
X3375470Y7846970D01*
X3375470Y7096500D01*
X3375470Y7096500D01*
G37*
X3375470Y7096500D02*
X3377998Y7070717D01*
X3380333Y7045058D01*
X3380604Y7044138D01*
X3380698Y7043177D01*
X3388177Y7018405D01*
X3395460Y6993659D01*
X3395906Y6992806D01*
X3396184Y6991885D01*
X3408310Y6969078D01*
X3420283Y6946177D01*
X3420886Y6945427D01*
X3421338Y6944577D01*
X3437641Y6924588D01*
X3453856Y6904421D01*
X3454596Y6903800D01*
X3455202Y6903057D01*
X3475108Y6886589D01*
X3494900Y6869982D01*
X3495740Y6869520D01*
X3496485Y6868904D01*
X3519269Y6856585D01*
X3541851Y6844170D01*
X3542767Y6843879D01*
X3543615Y6843421D01*
X3568313Y6835775D01*
X3592922Y6827969D01*
X3593878Y6827862D01*
X3594798Y6827577D01*
X3620498Y6824876D01*
X3646167Y6821997D01*
X3648017Y6821984D01*
X3648083Y6821977D01*
X3648149Y6821983D01*
X3650000Y6821970D01*
X4350000Y6821970D01*
X4375783Y6824498D01*
X4401442Y6826833D01*
X4402362Y6827104D01*
X4403323Y6827198D01*
X4428095Y6834677D01*
X4452841Y6841960D01*
X4453694Y6842406D01*
X4454615Y6842684D01*
X4477422Y6854810D01*
X4500323Y6866783D01*
X4501073Y6867386D01*
X4501923Y6867838D01*
X4521912Y6884141D01*
X4542079Y6900356D01*
X4542700Y6901096D01*
X4543443Y6901702D01*
X4559911Y6921608D01*
X4576518Y6941400D01*
X4576980Y6942240D01*
X4577596Y6942985D01*
X4589915Y6965769D01*
X4602330Y6988351D01*
X4602621Y6989267D01*
X4603079Y6990115D01*
X4610725Y7014813D01*
X4618531Y7039422D01*
X4618638Y7040378D01*
X4618923Y7041298D01*
X4621624Y7066998D01*
X4624503Y7092667D01*
X4624516Y7094517D01*
X4624523Y7094583D01*
X4624517Y7094649D01*
X4624530Y7096500D01*
X4624530Y7846970D01*
X9225070Y7846970D01*
X9225070Y-7878970D01*
X4624530Y-7878970D01*
X4624530Y-7130589D01*
X4655351Y-7127893D01*
X4657129Y-7127377D01*
X4658970Y-7127196D01*
X4690045Y-7117814D01*
X4721321Y-7108728D01*
X4722969Y-7107874D01*
X4724737Y-7107340D01*
X4753410Y-7092094D01*
X4782313Y-7077112D01*
X4783760Y-7075957D01*
X4785394Y-7075088D01*
X4810573Y-7054553D01*
X4836002Y-7034253D01*
X4838583Y-7031708D01*
X4838631Y-7031669D01*
X4838668Y-7031625D01*
X4839502Y-7030802D01*
X5061703Y-6808600D01*
X5082351Y-6783463D01*
X5103241Y-6758567D01*
X5104133Y-6756944D01*
X5105307Y-6755515D01*
X5120641Y-6726917D01*
X5136337Y-6698367D01*
X5136898Y-6696598D01*
X5137771Y-6694970D01*
X5147272Y-6663896D01*
X5157109Y-6632884D01*
X5157315Y-6631046D01*
X5157857Y-6629274D01*
X5161144Y-6596913D01*
X5164767Y-6564614D01*
X5164792Y-6560997D01*
X5164799Y-6560928D01*
X5164793Y-6560864D01*
X5164801Y-6559699D01*
X5164801Y-6231896D01*
X5174232Y-6249936D01*
X5293536Y-6398321D01*
X5439389Y-6520706D01*
X5606236Y-6612431D01*
X5787722Y-6670001D01*
X5976933Y-6691225D01*
X5990554Y-6691320D01*
X8008646Y-6691320D01*
X8198135Y-6672740D01*
X8380407Y-6617709D01*
X8548518Y-6528323D01*
X8696066Y-6407986D01*
X8817430Y-6261282D01*
X8907988Y-6093799D01*
X8964290Y-5911916D01*
X8984192Y-5722561D01*
X8966936Y-5532946D01*
X8913179Y-5350295D01*
X8824968Y-5181564D01*
X8705664Y-5033179D01*
X8559811Y-4910794D01*
X8392964Y-4819069D01*
X8211478Y-4761499D01*
X8022267Y-4740275D01*
X8008646Y-4740180D01*
X5990554Y-4740180D01*
X5801065Y-4758760D01*
X5618793Y-4813791D01*
X5450682Y-4903177D01*
X5303134Y-5023514D01*
X5181770Y-5170218D01*
X5137801Y-5251537D01*
X5122995Y-5223691D01*
X5108013Y-5194788D01*
X5106858Y-5193341D01*
X5105989Y-5191707D01*
X5085454Y-5166528D01*
X5065154Y-5141099D01*
X5062609Y-5138518D01*
X5062570Y-5138470D01*
X5062526Y-5138433D01*
X5061703Y-5137599D01*
X4761888Y-4837784D01*
X4761888Y-4509500D01*
X4759031Y-4473670D01*
X4740211Y-4412898D01*
X4705205Y-4359775D01*
X4683925Y-4341638D01*
X5898510Y-4341638D01*
X5934340Y-4338781D01*
X5995112Y-4319961D01*
X6048235Y-4284955D01*
X6089503Y-4236536D01*
X6096236Y-4221600D01*
X8394686Y-4221600D01*
X8437218Y-4222491D01*
X8528955Y-4206316D01*
X8615803Y-4172629D01*
X8694454Y-4122716D01*
X8761912Y-4058476D01*
X8815608Y-3982357D01*
X8853497Y-3897259D01*
X8874134Y-3806421D01*
X8874821Y-3757211D01*
X8875588Y-3749916D01*
X8875012Y-3743583D01*
X8875620Y-3700024D01*
X8857527Y-3608646D01*
X8822029Y-3522522D01*
X8770479Y-3444934D01*
X8704841Y-3378836D01*
X8627614Y-3326745D01*
X8541741Y-3290648D01*
X8450491Y-3271917D01*
X8357341Y-3271266D01*
X8355590Y-3271600D01*
X8042564Y-3271600D01*
X8185684Y-3128480D01*
X8272118Y-3130291D01*
X8363855Y-3114116D01*
X8450703Y-3080429D01*
X8529354Y-3030516D01*
X8596812Y-2966276D01*
X8650508Y-2890157D01*
X8688397Y-2805059D01*
X8709034Y-2714221D01*
X8710520Y-2607824D01*
X8692427Y-2516446D01*
X8656929Y-2430322D01*
X8605379Y-2352734D01*
X8539741Y-2286636D01*
X8462514Y-2234545D01*
X8376641Y-2198448D01*
X8285391Y-2179717D01*
X8192241Y-2179066D01*
X8100739Y-2196521D01*
X8014370Y-2231417D01*
X7936423Y-2282424D01*
X7869869Y-2347599D01*
X7817241Y-2424460D01*
X7780544Y-2510079D01*
X7761177Y-2601196D01*
X7759876Y-2694339D01*
X7761647Y-2703989D01*
X7603236Y-2862400D01*
X7497495Y-2862400D01*
X7589041Y-2775222D01*
X7676640Y-2651042D01*
X7738451Y-2512213D01*
X7772119Y-2364022D01*
X7774543Y-2190446D01*
X7745025Y-2041373D01*
X7687115Y-1900872D01*
X7603018Y-1774295D01*
X7495936Y-1666463D01*
X7369949Y-1581484D01*
X7229856Y-1522594D01*
X7080992Y-1492037D01*
X6940210Y-1491054D01*
X7215734Y-1215530D01*
X7233320Y-1194121D01*
X7251136Y-1172888D01*
X7251896Y-1171506D01*
X7252897Y-1170287D01*
X7265984Y-1145880D01*
X7279343Y-1121581D01*
X7279821Y-1120075D01*
X7280565Y-1118687D01*
X7288658Y-1092217D01*
X7297046Y-1065772D01*
X7297222Y-1064203D01*
X7297683Y-1062695D01*
X7300480Y-1035157D01*
X7303573Y-1007587D01*
X7303594Y-1004500D01*
X7303600Y-1004445D01*
X7303595Y-1004393D01*
X7303602Y-1003398D01*
X7303602Y-268763D01*
X7364914Y-210376D01*
X7418610Y-134257D01*
X7456499Y-49159D01*
X7477136Y41679D01*
X7478622Y148076D01*
X7460529Y239454D01*
X7425031Y325578D01*
X7373481Y403166D01*
X7307843Y469264D01*
X7230616Y521355D01*
X7144743Y557452D01*
X7053493Y576183D01*
X6960343Y576834D01*
X6868841Y559379D01*
X6782472Y524483D01*
X6704525Y473476D01*
X6637971Y408301D01*
X6585343Y331440D01*
X6548646Y245821D01*
X6529279Y154704D01*
X6527978Y61561D01*
X6544794Y-30061D01*
X6579085Y-116672D01*
X6629547Y-194973D01*
X6694256Y-261981D01*
X6703602Y-268477D01*
X6703602Y-879134D01*
X6124598Y-1458138D01*
X6124598Y-417310D01*
X6121741Y-381480D01*
X6102921Y-320708D01*
X6067915Y-267585D01*
X6019496Y-226317D01*
X5961497Y-200173D01*
X5898510Y-191222D01*
X5251020Y-191222D01*
X5251020Y-163310D01*
X5247844Y-130919D01*
X5245013Y-98559D01*
X5244497Y-96781D01*
X5244316Y-94940D01*
X5234934Y-63865D01*
X5225848Y-32589D01*
X5224994Y-30941D01*
X5224460Y-29173D01*
X5209214Y-500D01*
X5194232Y28403D01*
X5193077Y29850D01*
X5192208Y31484D01*
X5171673Y56663D01*
X5151373Y82092D01*
X5148832Y84669D01*
X5148789Y84721D01*
X5148740Y84761D01*
X5147922Y85591D01*
X5059032Y174482D01*
X5898510Y174482D01*
X5934340Y177339D01*
X5995112Y196159D01*
X6048235Y231165D01*
X6089503Y279584D01*
X6115647Y337583D01*
X6124598Y400570D01*
X6124598Y1599450D01*
X6121741Y1635280D01*
X6102921Y1696052D01*
X6067915Y1749175D01*
X6019496Y1790443D01*
X5961497Y1816587D01*
X5898510Y1825538D01*
X5251020Y1825538D01*
X5251020Y1853450D01*
X5247844Y1885841D01*
X5245013Y1918201D01*
X5244497Y1919979D01*
X5244316Y1921820D01*
X5234934Y1952895D01*
X5225848Y1984171D01*
X5224994Y1985819D01*
X5224460Y1987587D01*
X5209214Y2016260D01*
X5194232Y2045163D01*
X5193077Y2046610D01*
X5192208Y2048244D01*
X5171673Y2073423D01*
X5151373Y2098852D01*
X5148828Y2101433D01*
X5148789Y2101481D01*
X5148745Y2101518D01*
X5147922Y2102352D01*
X5080981Y2169293D01*
X6223672Y2169293D01*
X6251105Y2019822D01*
X6307048Y1878527D01*
X6389370Y1750788D01*
X6494936Y1641471D01*
X6619724Y1554741D01*
X6758981Y1493901D01*
X6907404Y1461268D01*
X7059338Y1458086D01*
X7208997Y1484475D01*
X7350680Y1539430D01*
X7478990Y1620858D01*
X7589041Y1725658D01*
X7676640Y1849838D01*
X7738451Y1988667D01*
X7772119Y2136858D01*
X7774543Y2310434D01*
X7745025Y2459507D01*
X7687115Y2600008D01*
X7603018Y2726585D01*
X7495936Y2834417D01*
X7369949Y2919396D01*
X7229856Y2978286D01*
X7080992Y3008843D01*
X6929028Y3009904D01*
X6779752Y2981428D01*
X6638850Y2924500D01*
X6511689Y2841289D01*
X6403113Y2734962D01*
X6317256Y2609572D01*
X6257390Y2469893D01*
X6225794Y2321246D01*
X6223672Y2169293D01*
X5080981Y2169293D01*
X4880572Y2369702D01*
X4855409Y2390370D01*
X4830538Y2411240D01*
X4828915Y2412132D01*
X4827486Y2413306D01*
X4798869Y2428650D01*
X4770338Y2444336D01*
X4768571Y2444897D01*
X4766942Y2445770D01*
X4735894Y2455262D01*
X4704855Y2465108D01*
X4703012Y2465315D01*
X4701245Y2465855D01*
X4668933Y2469137D01*
X4636585Y2472766D01*
X4632968Y2472791D01*
X4632899Y2472798D01*
X4632835Y2472792D01*
X4631670Y2472800D01*
X4598105Y2472800D01*
X4582451Y2488564D01*
X4505224Y2540655D01*
X4419351Y2576752D01*
X4328101Y2595483D01*
X4234951Y2596134D01*
X4143449Y2578679D01*
X4057080Y2543783D01*
X3979133Y2492776D01*
X3912579Y2427601D01*
X3859951Y2350740D01*
X3823254Y2265121D01*
X3803887Y2174004D01*
X3802586Y2080861D01*
X3819402Y1989239D01*
X3853693Y1902628D01*
X3903375Y1825538D01*
X3899530Y1825538D01*
X3863700Y1822681D01*
X3802928Y1803861D01*
X3749805Y1768855D01*
X3708537Y1720436D01*
X3682393Y1662437D01*
X3673442Y1599450D01*
X3673442Y400570D01*
X3674607Y385956D01*
X3673165Y388145D01*
X3624746Y429413D01*
X3567499Y455218D01*
X3600777Y529961D01*
X3621414Y620799D01*
X3622900Y727196D01*
X3604807Y818574D01*
X3569309Y904698D01*
X3517759Y982286D01*
X3452121Y1048384D01*
X3374894Y1100475D01*
X3342400Y1114134D01*
X3342400Y1219972D01*
X3377560Y1219972D01*
X3413390Y1222829D01*
X3474162Y1241649D01*
X3527285Y1276655D01*
X3568553Y1325074D01*
X3594697Y1383073D01*
X3603648Y1446060D01*
X3603648Y2046060D01*
X3600791Y2081890D01*
X3581971Y2142662D01*
X3546965Y2195785D01*
X3498546Y2237053D01*
X3440547Y2263197D01*
X3385216Y2271060D01*
X3404645Y2271060D01*
X3457775Y2281628D01*
X3507821Y2302358D01*
X3552862Y2332454D01*
X3591167Y2370758D01*
X3621262Y2415799D01*
X3641992Y2465846D01*
X3652560Y2518975D01*
X3652560Y2692310D01*
X3583812Y2761058D01*
X3652560Y2761058D01*
X3652560Y2762319D01*
X3655828Y2754429D01*
X3685924Y2709388D01*
X3724228Y2671083D01*
X3769269Y2640988D01*
X3819316Y2620258D01*
X3872445Y2609690D01*
X4745270Y2609690D01*
X4814020Y2678440D01*
X4814020Y3399130D01*
X4984020Y3399130D01*
X4984020Y2678440D01*
X5052770Y2609690D01*
X5925595Y2609690D01*
X5978724Y2620258D01*
X6028771Y2640988D01*
X6073812Y2671083D01*
X6112116Y2709388D01*
X6142212Y2754429D01*
X6162942Y2804475D01*
X6173510Y2857605D01*
X6173510Y3330380D01*
X6104760Y3399130D01*
X4984020Y3399130D01*
X4814020Y3399130D01*
X3693280Y3399130D01*
X3624530Y3330380D01*
X3624530Y3268431D01*
X3621262Y3276321D01*
X3591167Y3321362D01*
X3552862Y3359666D01*
X3507821Y3389762D01*
X3457775Y3410492D01*
X3404645Y3421060D01*
X3281310Y3421060D01*
X3212562Y3352312D01*
X3212562Y3421060D01*
X3150164Y3421060D01*
X3455201Y3726098D01*
X3475845Y3751231D01*
X3496740Y3776132D01*
X3497632Y3777755D01*
X3498806Y3779184D01*
X3514150Y3807801D01*
X3529836Y3836332D01*
X3530397Y3838099D01*
X3531270Y3839728D01*
X3540762Y3870776D01*
X3550608Y3901815D01*
X3550815Y3903658D01*
X3551355Y3905425D01*
X3554637Y3937737D01*
X3558266Y3970085D01*
X3558291Y3973702D01*
X3558298Y3973771D01*
X3558292Y3973835D01*
X3558300Y3975000D01*
X3558300Y4110655D01*
X3624530Y4110655D01*
X3624530Y3637880D01*
X3693280Y3569130D01*
X4814020Y3569130D01*
X4814020Y4289820D01*
X4984020Y4289820D01*
X4984020Y3569130D01*
X6104760Y3569130D01*
X6173510Y3637880D01*
X6173510Y4110655D01*
X6162942Y4163785D01*
X6142212Y4213831D01*
X6112116Y4258872D01*
X6073812Y4297177D01*
X6028771Y4327272D01*
X5978724Y4348002D01*
X5925595Y4358570D01*
X5052770Y4358570D01*
X4984020Y4289820D01*
X4814020Y4289820D01*
X4745270Y4358570D01*
X3872445Y4358570D01*
X3819316Y4348002D01*
X3769269Y4327272D01*
X3724228Y4297177D01*
X3685924Y4258872D01*
X3655828Y4213831D01*
X3635098Y4163785D01*
X3624530Y4110655D01*
X3558300Y4110655D01*
X3558300Y4428500D01*
X3558201Y4429510D01*
X3558201Y5321801D01*
X3555025Y5354192D01*
X3552194Y5386552D01*
X3551678Y5388330D01*
X3551497Y5390171D01*
X3542105Y5421278D01*
X3533028Y5452523D01*
X3532176Y5454168D01*
X3531641Y5455938D01*
X3516386Y5484628D01*
X3501413Y5513514D01*
X3500258Y5514961D01*
X3499389Y5516595D01*
X3478854Y5541774D01*
X3458554Y5567203D01*
X3456013Y5569780D01*
X3455970Y5569832D01*
X3455921Y5569872D01*
X3455102Y5570703D01*
X3399703Y5626103D01*
X3395760Y5629342D01*
X3395153Y5630102D01*
X3392612Y5632679D01*
X3392569Y5632731D01*
X3392520Y5632771D01*
X3391702Y5633601D01*
X3334723Y5690581D01*
X5015008Y5690581D01*
X5032264Y5500966D01*
X5086021Y5318315D01*
X5174232Y5149584D01*
X5293536Y5001199D01*
X5439389Y4878814D01*
X5606236Y4787089D01*
X5787722Y4729519D01*
X5976933Y4708295D01*
X5990554Y4708200D01*
X8008646Y4708200D01*
X8198135Y4726780D01*
X8380407Y4781811D01*
X8548518Y4871197D01*
X8696066Y4991534D01*
X8817430Y5138238D01*
X8907988Y5305721D01*
X8964290Y5487604D01*
X8984192Y5676959D01*
X8966936Y5866574D01*
X8913179Y6049225D01*
X8824968Y6217956D01*
X8705664Y6366341D01*
X8559811Y6488726D01*
X8392964Y6580451D01*
X8211478Y6638021D01*
X8022267Y6659245D01*
X8008646Y6659340D01*
X5990554Y6659340D01*
X5801065Y6640760D01*
X5618793Y6585729D01*
X5450682Y6496343D01*
X5303134Y6376006D01*
X5181770Y6229302D01*
X5091212Y6061819D01*
X5034910Y5879936D01*
X5015008Y5690581D01*
X3334723Y5690581D01*
X3175802Y5849502D01*
X3150639Y5870170D01*
X3131200Y5886482D01*
X3131200Y5953632D01*
X3146337Y5987213D01*
X3155288Y6050200D01*
X3155288Y6500200D01*
X3152431Y6536030D01*
X3133611Y6596802D01*
X3098605Y6649925D01*
X3050186Y6691193D01*
X2992187Y6717337D01*
X2929200Y6726288D01*
X2629200Y6726288D01*
X2593370Y6723431D01*
X2591134Y6722738D01*
X2559461Y6743902D01*
X2509415Y6764632D01*
X2456285Y6775200D01*
X2422950Y6775200D01*
X2354200Y6706450D01*
X2354200Y6360200D01*
X2384200Y6360200D01*
X2384200Y6190200D01*
X2354200Y6190200D01*
X2354200Y6170200D01*
X2204200Y6170200D01*
X2204200Y6190200D01*
X2174200Y6190200D01*
X2174200Y6360200D01*
X2204200Y6360200D01*
X2204200Y6706450D01*
X2135450Y6775200D01*
X2102115Y6775200D01*
X2048985Y6764632D01*
X1998939Y6743902D01*
X1964971Y6721205D01*
X1929200Y6726288D01*
X1629200Y6726288D01*
X1593370Y6723431D01*
X1532598Y6704611D01*
X1479475Y6669605D01*
X1438207Y6621186D01*
X1412063Y6563187D01*
X1403112Y6500200D01*
X1403112Y6050200D01*
X1405969Y6014370D01*
X1424789Y5953598D01*
X1459795Y5900475D01*
X1495939Y5869669D01*
X1474998Y5852953D01*
X1472421Y5850412D01*
X1472369Y5850369D01*
X1472329Y5850320D01*
X1471498Y5849501D01*
X1077401Y5455405D01*
X1056733Y5430242D01*
X1035863Y5405371D01*
X1034971Y5403748D01*
X1033797Y5402319D01*
X1018453Y5373702D01*
X1002767Y5345171D01*
X1002206Y5343404D01*
X1001333Y5341775D01*
X991841Y5310727D01*
X981995Y5279688D01*
X981788Y5277845D01*
X981248Y5276078D01*
X977966Y5243766D01*
X974337Y5211418D01*
X974312Y5207801D01*
X974305Y5207732D01*
X974311Y5207668D01*
X974303Y5206503D01*
X974303Y4654926D01*
X947141Y4682278D01*
X869914Y4734369D01*
X784041Y4770466D01*
X723432Y4782907D01*
X723488Y4783300D01*
X723488Y6443300D01*
X720631Y6479130D01*
X701811Y6539902D01*
X666805Y6593025D01*
X618386Y6634293D01*
X560387Y6660437D01*
X497400Y6669388D01*
X457400Y6669388D01*
X457400Y6859550D01*
X388650Y6928300D01*
X119900Y6928300D01*
X119900Y6908300D01*
X-5100Y6908300D01*
X-5100Y6928300D01*
X-47600Y6928300D01*
X-47600Y7098300D01*
X-5100Y7098300D01*
X-5100Y7569550D01*
X119900Y7569550D01*
X119900Y7098300D01*
X388650Y7098300D01*
X457400Y7167050D01*
X457400Y7390385D01*
X446832Y7443514D01*
X426102Y7493561D01*
X396007Y7538602D01*
X357702Y7576906D01*
X312661Y7607002D01*
X262615Y7627732D01*
X209485Y7638300D01*
X188650Y7638300D01*
X119900Y7569550D01*
X-5100Y7569550D01*
X-73850Y7638300D01*
X-94685Y7638300D01*
X-147815Y7627732D01*
X-197861Y7607002D01*
X-242902Y7576906D01*
X-244107Y7575701D01*
X-254613Y7580437D01*
X-317600Y7589388D01*
X-567600Y7589388D01*
X-603430Y7586531D01*
X-664202Y7567711D01*
X-691360Y7549815D01*
X-696614Y7554293D01*
X-754613Y7580437D01*
X-817600Y7589388D01*
X-1067600Y7589388D01*
X-1103430Y7586531D01*
X-1164202Y7567711D01*
X-1191360Y7549815D01*
X-1196614Y7554293D01*
X-1254613Y7580437D01*
X-1317600Y7589388D01*
X-1567600Y7589388D01*
X-1603430Y7586531D01*
X-1664202Y7567711D01*
X-1717325Y7532705D01*
X-1758593Y7484286D01*
X-1784737Y7426287D01*
X-1793688Y7363300D01*
X-1793688Y6669388D01*
X-1882600Y6669388D01*
X-1918430Y6666531D01*
X-1979202Y6647711D01*
X-1986134Y6643143D01*
X-2019898Y6676906D01*
X-2064939Y6707002D01*
X-2114985Y6727732D01*
X-2168115Y6738300D01*
X-2291450Y6738300D01*
X-2360200Y6669550D01*
X-2360200Y6248300D01*
X-2340200Y6248300D01*
X-2340200Y6078300D01*
X-2360200Y6078300D01*
X-2360200Y6058300D01*
X-2530200Y6058300D01*
X-2530200Y6078300D01*
X-2550200Y6078300D01*
X-2550200Y6248300D01*
X-2530200Y6248300D01*
X-2530200Y6669550D01*
X-2598950Y6738300D01*
X-2722285Y6738300D01*
X-2738500Y6735075D01*
X-2738500Y7846970D01*
X3375470Y7846970D01*
X3375470Y7096500D01*
G36*
X690000Y-1949400D02*
X692705Y-1976986D01*
X695120Y-2004585D01*
X695559Y-2006095D01*
X695713Y-2007670D01*
X703737Y-2034245D01*
X711454Y-2060810D01*
X712180Y-2062210D01*
X712636Y-2063721D01*
X725647Y-2088191D01*
X738399Y-2112791D01*
X739383Y-2114024D01*
X740124Y-2115417D01*
X757617Y-2136866D01*
X774926Y-2158549D01*
X777095Y-2160748D01*
X777129Y-2160790D01*
X777168Y-2160822D01*
X777868Y-2161532D01*
X1025660Y-2409324D01*
X1047096Y-2426932D01*
X1068302Y-2444726D01*
X1069681Y-2445484D01*
X1070903Y-2446488D01*
X1095342Y-2459592D01*
X1119609Y-2472933D01*
X1121115Y-2473411D01*
X1122503Y-2474155D01*
X1148973Y-2482248D01*
X1175418Y-2490636D01*
X1176987Y-2490812D01*
X1178495Y-2491273D01*
X1206033Y-2494070D01*
X1233603Y-2497163D01*
X1236690Y-2497184D01*
X1236745Y-2497190D01*
X1236797Y-2497185D01*
X1237792Y-2497192D01*
X1367561Y-2497192D01*
X1398429Y-2529157D01*
X1375983Y-2578953D01*
X1367032Y-2641940D01*
X1367032Y-3041940D01*
X1369889Y-3077770D01*
X1388709Y-3138542D01*
X1423715Y-3191665D01*
X1472134Y-3232933D01*
X1530133Y-3259077D01*
X1593120Y-3268028D01*
X2193120Y-3268028D01*
X2228950Y-3265171D01*
X2289722Y-3246351D01*
X2342845Y-3211345D01*
X2384113Y-3162926D01*
X2397786Y-3132592D01*
X2399629Y-3138542D01*
X2434635Y-3191665D01*
X2483054Y-3232933D01*
X2541053Y-3259077D01*
X2604040Y-3268028D01*
X3204040Y-3268028D01*
X3239870Y-3265171D01*
X3300642Y-3246351D01*
X3353765Y-3211345D01*
X3395033Y-3162926D01*
X3421177Y-3104927D01*
X3430128Y-3041940D01*
X3430128Y-2641940D01*
X3427271Y-2606110D01*
X3408451Y-2545338D01*
X3373445Y-2492215D01*
X3325026Y-2450947D01*
X3267027Y-2424803D01*
X3204040Y-2415852D01*
X3188800Y-2415852D01*
X3188800Y-2296562D01*
X3613990Y-2721752D01*
X3635421Y-2739356D01*
X3656632Y-2757154D01*
X3658011Y-2757912D01*
X3659232Y-2758915D01*
X3683654Y-2772010D01*
X3707939Y-2785361D01*
X3709445Y-2785839D01*
X3710833Y-2786583D01*
X3715165Y-2787907D01*
X3708537Y-2795684D01*
X3682393Y-2853683D01*
X3673442Y-2916670D01*
X3673442Y-3433900D01*
X3400914Y-3433900D01*
X3373445Y-3392215D01*
X3325026Y-3350947D01*
X3267027Y-3324803D01*
X3204040Y-3315852D01*
X2952982Y-3315852D01*
X2950735Y-3315165D01*
X2882389Y-3308222D01*
X2813995Y-3314687D01*
X2810087Y-3315852D01*
X2604040Y-3315852D01*
X2568210Y-3318709D01*
X2507438Y-3337529D01*
X2454315Y-3372535D01*
X2413047Y-3420954D01*
X2403587Y-3441940D01*
X2395292Y-3441940D01*
X2362525Y-3392215D01*
X2314106Y-3350947D01*
X2256107Y-3324803D01*
X2193120Y-3315852D01*
X1593120Y-3315852D01*
X1557290Y-3318709D01*
X1496518Y-3337529D01*
X1443395Y-3372535D01*
X1402127Y-3420954D01*
X1375983Y-3478953D01*
X1367032Y-3541940D01*
X1367032Y-3941940D01*
X1369889Y-3977770D01*
X1388709Y-4038542D01*
X1423715Y-4091665D01*
X1423942Y-4091858D01*
X1412085Y-4089500D01*
X1213750Y-4089500D01*
X1145000Y-4158250D01*
X1145000Y-4809500D01*
X1165000Y-4809500D01*
X1165000Y-4979500D01*
X1145000Y-4979500D01*
X1145000Y-5630750D01*
X1213750Y-5699500D01*
X1412085Y-5699500D01*
X1465215Y-5688932D01*
X1515261Y-5668202D01*
X1560302Y-5638106D01*
X1577043Y-5621366D01*
X1622013Y-5641637D01*
X1685000Y-5650588D01*
X2335000Y-5650588D01*
X2370830Y-5647731D01*
X2431602Y-5628911D01*
X2450960Y-5616155D01*
X2450960Y-5670825D01*
X2461528Y-5723954D01*
X2482258Y-5774001D01*
X2512353Y-5819042D01*
X2526485Y-5833173D01*
X2522098Y-5839739D01*
X2501368Y-5889786D01*
X2490800Y-5942915D01*
X2490800Y-6116250D01*
X2559550Y-6185000D01*
X2930800Y-6185000D01*
X2930800Y-5860150D01*
X2940960Y-5849990D01*
X2940960Y-5763750D01*
X3100800Y-5763750D01*
X3100800Y-6185000D01*
X3472050Y-6185000D01*
X3540800Y-6116250D01*
X3540800Y-5942915D01*
X3530232Y-5889786D01*
X3512246Y-5846363D01*
X3539567Y-5819042D01*
X3569662Y-5774001D01*
X3590392Y-5723954D01*
X3600960Y-5670825D01*
X3600960Y-5597490D01*
X3532210Y-5528740D01*
X3110960Y-5528740D01*
X3110960Y-5753590D01*
X3100800Y-5763750D01*
X2940960Y-5763750D01*
X2940960Y-5528740D01*
X2920960Y-5528740D01*
X2920960Y-5358740D01*
X2940960Y-5358740D01*
X2940960Y-5338740D01*
X3110960Y-5338740D01*
X3110960Y-5358740D01*
X3532210Y-5358740D01*
X3600960Y-5289990D01*
X3600960Y-5216655D01*
X3590392Y-5163526D01*
X3569662Y-5113479D01*
X3539567Y-5068438D01*
X3501262Y-5030134D01*
X3456221Y-5000038D01*
X3406175Y-4979308D01*
X3353045Y-4968740D01*
X3339605Y-4968740D01*
X3361790Y-4966971D01*
X3422562Y-4948151D01*
X3475685Y-4913145D01*
X3516953Y-4864726D01*
X3543097Y-4806727D01*
X3552048Y-4743740D01*
X3552048Y-4343740D01*
X3549191Y-4307910D01*
X3530371Y-4247138D01*
X3495365Y-4194015D01*
X3446946Y-4152747D01*
X3388947Y-4126603D01*
X3340959Y-4119784D01*
X3353765Y-4111345D01*
X3395033Y-4062926D01*
X3408117Y-4033900D01*
X3673442Y-4033900D01*
X3673442Y-4115550D01*
X3676299Y-4151380D01*
X3695119Y-4212152D01*
X3730125Y-4265275D01*
X3778544Y-4306543D01*
X3836543Y-4332687D01*
X3886536Y-4339791D01*
X3886075Y-4340095D01*
X3844807Y-4388514D01*
X3818663Y-4446513D01*
X3809712Y-4509500D01*
X3809712Y-5109500D01*
X3812569Y-5145330D01*
X3831389Y-5206102D01*
X3866395Y-5259225D01*
X3914814Y-5300493D01*
X3972813Y-5326637D01*
X4028144Y-5334500D01*
X4008715Y-5334500D01*
X3955585Y-5345068D01*
X3905539Y-5365798D01*
X3860498Y-5395894D01*
X3822193Y-5434198D01*
X3792098Y-5479239D01*
X3771368Y-5529286D01*
X3760800Y-5582415D01*
X3760800Y-5755750D01*
X3829550Y-5824500D01*
X4200800Y-5824500D01*
X4200800Y-5804500D01*
X4370800Y-5804500D01*
X4370800Y-5824500D01*
X4390800Y-5824500D01*
X4390800Y-5994500D01*
X4370800Y-5994500D01*
X4370800Y-6014500D01*
X4200800Y-6014500D01*
X4200800Y-5994500D01*
X3829550Y-5994500D01*
X3760800Y-6063250D01*
X3760800Y-6236585D01*
X3771368Y-6289714D01*
X3792098Y-6339761D01*
X3822193Y-6384802D01*
X3860498Y-6423106D01*
X3870666Y-6429900D01*
X3587300Y-6429900D01*
X3554909Y-6433076D01*
X3540800Y-6434310D01*
X3540800Y-6423750D01*
X3472050Y-6355000D01*
X3100800Y-6355000D01*
X3100800Y-6375000D01*
X2930800Y-6375000D01*
X2930800Y-6355000D01*
X2559550Y-6355000D01*
X2501905Y-6412645D01*
X2455986Y-6373507D01*
X2397987Y-6347363D01*
X2335000Y-6338412D01*
X1988178Y-6338412D01*
X1777133Y-6127367D01*
X1755724Y-6109781D01*
X1734491Y-6091965D01*
X1733109Y-6091205D01*
X1731890Y-6090204D01*
X1707490Y-6077121D01*
X1683184Y-6063758D01*
X1681678Y-6063280D01*
X1680290Y-6062536D01*
X1653820Y-6054443D01*
X1627375Y-6046055D01*
X1625806Y-6045879D01*
X1624298Y-6045418D01*
X1596760Y-6042621D01*
X1569190Y-6039528D01*
X1566103Y-6039507D01*
X1566048Y-6039501D01*
X1565996Y-6039506D01*
X1565001Y-6039499D01*
X1183320Y-6039499D01*
X1038835Y-5895014D01*
X1040176Y-5799023D01*
X1022083Y-5707645D01*
X986585Y-5621521D01*
X975000Y-5604084D01*
X975000Y-4979500D01*
X955000Y-4979500D01*
X955000Y-4809500D01*
X975000Y-4809500D01*
X975000Y-4158250D01*
X906250Y-4089500D01*
X707915Y-4089500D01*
X654785Y-4100068D01*
X604739Y-4120798D01*
X559698Y-4150894D01*
X542957Y-4167634D01*
X497987Y-4147363D01*
X435000Y-4138412D01*
X-206049Y-4138412D01*
X-205977Y-4082445D01*
X172132Y-3704336D01*
X189740Y-3682900D01*
X207534Y-3661694D01*
X208292Y-3660315D01*
X209296Y-3659093D01*
X222400Y-3634654D01*
X235741Y-3610387D01*
X236219Y-3608881D01*
X236963Y-3607493D01*
X245056Y-3581023D01*
X253444Y-3554578D01*
X253620Y-3553009D01*
X254081Y-3551501D01*
X256878Y-3523963D01*
X259971Y-3496393D01*
X259992Y-3493306D01*
X259998Y-3493251D01*
X259993Y-3493199D01*
X260000Y-3492204D01*
X260000Y-1957685D01*
X264282Y-1961227D01*
X324370Y-1993716D01*
X389623Y-2013915D01*
X457557Y-2021055D01*
X525583Y-2014865D01*
X591112Y-1995578D01*
X651647Y-1963932D01*
X690000Y-1933095D01*
X690000Y-1949400D01*
X690000Y-1949400D01*
G37*
X690000Y-1949400D02*
X692705Y-1976986D01*
X695120Y-2004585D01*
X695559Y-2006095D01*
X695713Y-2007670D01*
X703737Y-2034245D01*
X711454Y-2060810D01*
X712180Y-2062210D01*
X712636Y-2063721D01*
X725647Y-2088191D01*
X738399Y-2112791D01*
X739383Y-2114024D01*
X740124Y-2115417D01*
X757617Y-2136866D01*
X774926Y-2158549D01*
X777095Y-2160748D01*
X777129Y-2160790D01*
X777168Y-2160822D01*
X777868Y-2161532D01*
X1025660Y-2409324D01*
X1047096Y-2426932D01*
X1068302Y-2444726D01*
X1069681Y-2445484D01*
X1070903Y-2446488D01*
X1095342Y-2459592D01*
X1119609Y-2472933D01*
X1121115Y-2473411D01*
X1122503Y-2474155D01*
X1148973Y-2482248D01*
X1175418Y-2490636D01*
X1176987Y-2490812D01*
X1178495Y-2491273D01*
X1206033Y-2494070D01*
X1233603Y-2497163D01*
X1236690Y-2497184D01*
X1236745Y-2497190D01*
X1236797Y-2497185D01*
X1237792Y-2497192D01*
X1367561Y-2497192D01*
X1398429Y-2529157D01*
X1375983Y-2578953D01*
X1367032Y-2641940D01*
X1367032Y-3041940D01*
X1369889Y-3077770D01*
X1388709Y-3138542D01*
X1423715Y-3191665D01*
X1472134Y-3232933D01*
X1530133Y-3259077D01*
X1593120Y-3268028D01*
X2193120Y-3268028D01*
X2228950Y-3265171D01*
X2289722Y-3246351D01*
X2342845Y-3211345D01*
X2384113Y-3162926D01*
X2397786Y-3132592D01*
X2399629Y-3138542D01*
X2434635Y-3191665D01*
X2483054Y-3232933D01*
X2541053Y-3259077D01*
X2604040Y-3268028D01*
X3204040Y-3268028D01*
X3239870Y-3265171D01*
X3300642Y-3246351D01*
X3353765Y-3211345D01*
X3395033Y-3162926D01*
X3421177Y-3104927D01*
X3430128Y-3041940D01*
X3430128Y-2641940D01*
X3427271Y-2606110D01*
X3408451Y-2545338D01*
X3373445Y-2492215D01*
X3325026Y-2450947D01*
X3267027Y-2424803D01*
X3204040Y-2415852D01*
X3188800Y-2415852D01*
X3188800Y-2296562D01*
X3613990Y-2721752D01*
X3635421Y-2739356D01*
X3656632Y-2757154D01*
X3658011Y-2757912D01*
X3659232Y-2758915D01*
X3683654Y-2772010D01*
X3707939Y-2785361D01*
X3709445Y-2785839D01*
X3710833Y-2786583D01*
X3715165Y-2787907D01*
X3708537Y-2795684D01*
X3682393Y-2853683D01*
X3673442Y-2916670D01*
X3673442Y-3433900D01*
X3400914Y-3433900D01*
X3373445Y-3392215D01*
X3325026Y-3350947D01*
X3267027Y-3324803D01*
X3204040Y-3315852D01*
X2952982Y-3315852D01*
X2950735Y-3315165D01*
X2882389Y-3308222D01*
X2813995Y-3314687D01*
X2810087Y-3315852D01*
X2604040Y-3315852D01*
X2568210Y-3318709D01*
X2507438Y-3337529D01*
X2454315Y-3372535D01*
X2413047Y-3420954D01*
X2403587Y-3441940D01*
X2395292Y-3441940D01*
X2362525Y-3392215D01*
X2314106Y-3350947D01*
X2256107Y-3324803D01*
X2193120Y-3315852D01*
X1593120Y-3315852D01*
X1557290Y-3318709D01*
X1496518Y-3337529D01*
X1443395Y-3372535D01*
X1402127Y-3420954D01*
X1375983Y-3478953D01*
X1367032Y-3541940D01*
X1367032Y-3941940D01*
X1369889Y-3977770D01*
X1388709Y-4038542D01*
X1423715Y-4091665D01*
X1423942Y-4091858D01*
X1412085Y-4089500D01*
X1213750Y-4089500D01*
X1145000Y-4158250D01*
X1145000Y-4809500D01*
X1165000Y-4809500D01*
X1165000Y-4979500D01*
X1145000Y-4979500D01*
X1145000Y-5630750D01*
X1213750Y-5699500D01*
X1412085Y-5699500D01*
X1465215Y-5688932D01*
X1515261Y-5668202D01*
X1560302Y-5638106D01*
X1577043Y-5621366D01*
X1622013Y-5641637D01*
X1685000Y-5650588D01*
X2335000Y-5650588D01*
X2370830Y-5647731D01*
X2431602Y-5628911D01*
X2450960Y-5616155D01*
X2450960Y-5670825D01*
X2461528Y-5723954D01*
X2482258Y-5774001D01*
X2512353Y-5819042D01*
X2526485Y-5833173D01*
X2522098Y-5839739D01*
X2501368Y-5889786D01*
X2490800Y-5942915D01*
X2490800Y-6116250D01*
X2559550Y-6185000D01*
X2930800Y-6185000D01*
X2930800Y-5860150D01*
X2940960Y-5849990D01*
X2940960Y-5763750D01*
X3100800Y-5763750D01*
X3100800Y-6185000D01*
X3472050Y-6185000D01*
X3540800Y-6116250D01*
X3540800Y-5942915D01*
X3530232Y-5889786D01*
X3512246Y-5846363D01*
X3539567Y-5819042D01*
X3569662Y-5774001D01*
X3590392Y-5723954D01*
X3600960Y-5670825D01*
X3600960Y-5597490D01*
X3532210Y-5528740D01*
X3110960Y-5528740D01*
X3110960Y-5753590D01*
X3100800Y-5763750D01*
X2940960Y-5763750D01*
X2940960Y-5528740D01*
X2920960Y-5528740D01*
X2920960Y-5358740D01*
X2940960Y-5358740D01*
X2940960Y-5338740D01*
X3110960Y-5338740D01*
X3110960Y-5358740D01*
X3532210Y-5358740D01*
X3600960Y-5289990D01*
X3600960Y-5216655D01*
X3590392Y-5163526D01*
X3569662Y-5113479D01*
X3539567Y-5068438D01*
X3501262Y-5030134D01*
X3456221Y-5000038D01*
X3406175Y-4979308D01*
X3353045Y-4968740D01*
X3339605Y-4968740D01*
X3361790Y-4966971D01*
X3422562Y-4948151D01*
X3475685Y-4913145D01*
X3516953Y-4864726D01*
X3543097Y-4806727D01*
X3552048Y-4743740D01*
X3552048Y-4343740D01*
X3549191Y-4307910D01*
X3530371Y-4247138D01*
X3495365Y-4194015D01*
X3446946Y-4152747D01*
X3388947Y-4126603D01*
X3340959Y-4119784D01*
X3353765Y-4111345D01*
X3395033Y-4062926D01*
X3408117Y-4033900D01*
X3673442Y-4033900D01*
X3673442Y-4115550D01*
X3676299Y-4151380D01*
X3695119Y-4212152D01*
X3730125Y-4265275D01*
X3778544Y-4306543D01*
X3836543Y-4332687D01*
X3886536Y-4339791D01*
X3886075Y-4340095D01*
X3844807Y-4388514D01*
X3818663Y-4446513D01*
X3809712Y-4509500D01*
X3809712Y-5109500D01*
X3812569Y-5145330D01*
X3831389Y-5206102D01*
X3866395Y-5259225D01*
X3914814Y-5300493D01*
X3972813Y-5326637D01*
X4028144Y-5334500D01*
X4008715Y-5334500D01*
X3955585Y-5345068D01*
X3905539Y-5365798D01*
X3860498Y-5395894D01*
X3822193Y-5434198D01*
X3792098Y-5479239D01*
X3771368Y-5529286D01*
X3760800Y-5582415D01*
X3760800Y-5755750D01*
X3829550Y-5824500D01*
X4200800Y-5824500D01*
X4200800Y-5804500D01*
X4370800Y-5804500D01*
X4370800Y-5824500D01*
X4390800Y-5824500D01*
X4390800Y-5994500D01*
X4370800Y-5994500D01*
X4370800Y-6014500D01*
X4200800Y-6014500D01*
X4200800Y-5994500D01*
X3829550Y-5994500D01*
X3760800Y-6063250D01*
X3760800Y-6236585D01*
X3771368Y-6289714D01*
X3792098Y-6339761D01*
X3822193Y-6384802D01*
X3860498Y-6423106D01*
X3870666Y-6429900D01*
X3587300Y-6429900D01*
X3554909Y-6433076D01*
X3540800Y-6434310D01*
X3540800Y-6423750D01*
X3472050Y-6355000D01*
X3100800Y-6355000D01*
X3100800Y-6375000D01*
X2930800Y-6375000D01*
X2930800Y-6355000D01*
X2559550Y-6355000D01*
X2501905Y-6412645D01*
X2455986Y-6373507D01*
X2397987Y-6347363D01*
X2335000Y-6338412D01*
X1988178Y-6338412D01*
X1777133Y-6127367D01*
X1755724Y-6109781D01*
X1734491Y-6091965D01*
X1733109Y-6091205D01*
X1731890Y-6090204D01*
X1707490Y-6077121D01*
X1683184Y-6063758D01*
X1681678Y-6063280D01*
X1680290Y-6062536D01*
X1653820Y-6054443D01*
X1627375Y-6046055D01*
X1625806Y-6045879D01*
X1624298Y-6045418D01*
X1596760Y-6042621D01*
X1569190Y-6039528D01*
X1566103Y-6039507D01*
X1566048Y-6039501D01*
X1565996Y-6039506D01*
X1565001Y-6039499D01*
X1183320Y-6039499D01*
X1038835Y-5895014D01*
X1040176Y-5799023D01*
X1022083Y-5707645D01*
X986585Y-5621521D01*
X975000Y-5604084D01*
X975000Y-4979500D01*
X955000Y-4979500D01*
X955000Y-4809500D01*
X975000Y-4809500D01*
X975000Y-4158250D01*
X906250Y-4089500D01*
X707915Y-4089500D01*
X654785Y-4100068D01*
X604739Y-4120798D01*
X559698Y-4150894D01*
X542957Y-4167634D01*
X497987Y-4147363D01*
X435000Y-4138412D01*
X-206049Y-4138412D01*
X-205977Y-4082445D01*
X172132Y-3704336D01*
X189740Y-3682900D01*
X207534Y-3661694D01*
X208292Y-3660315D01*
X209296Y-3659093D01*
X222400Y-3634654D01*
X235741Y-3610387D01*
X236219Y-3608881D01*
X236963Y-3607493D01*
X245056Y-3581023D01*
X253444Y-3554578D01*
X253620Y-3553009D01*
X254081Y-3551501D01*
X256878Y-3523963D01*
X259971Y-3496393D01*
X259992Y-3493306D01*
X259998Y-3493251D01*
X259993Y-3493199D01*
X260000Y-3492204D01*
X260000Y-1957685D01*
X264282Y-1961227D01*
X324370Y-1993716D01*
X389623Y-2013915D01*
X457557Y-2021055D01*
X525583Y-2014865D01*
X591112Y-1995578D01*
X651647Y-1963932D01*
X690000Y-1933095D01*
X690000Y-1949400D01*
G36*
X1552500Y-1403500D02*
X1593912Y-1403500D01*
X1593912Y-1573500D01*
X1552500Y-1573500D01*
X1552500Y-1593500D01*
X1427500Y-1593500D01*
X1427500Y-1573500D01*
X1385000Y-1573500D01*
X1385000Y-1403500D01*
X1427500Y-1403500D01*
X1427500Y-1383500D01*
X1552500Y-1383500D01*
X1552500Y-1403500D01*
X1552500Y-1403500D01*
G37*
X1552500Y-1403500D02*
X1593912Y-1403500D01*
X1593912Y-1573500D01*
X1552500Y-1573500D01*
X1552500Y-1593500D01*
X1427500Y-1593500D01*
X1427500Y-1573500D01*
X1385000Y-1573500D01*
X1385000Y-1403500D01*
X1427500Y-1403500D01*
X1427500Y-1383500D01*
X1552500Y-1383500D01*
X1552500Y-1403500D01*
G36*
X810000Y-68500D02*
X830000Y-68500D01*
X830000Y-238500D01*
X810000Y-238500D01*
X810000Y-258500D01*
X640000Y-258500D01*
X640000Y-238500D01*
X620000Y-238500D01*
X620000Y-68500D01*
X640000Y-68500D01*
X640000Y-48500D01*
X810000Y-48500D01*
X810000Y-68500D01*
X810000Y-68500D01*
G37*
X810000Y-68500D02*
X830000Y-68500D01*
X830000Y-238500D01*
X810000Y-238500D01*
X810000Y-258500D01*
X640000Y-258500D01*
X640000Y-238500D01*
X620000Y-238500D01*
X620000Y-68500D01*
X640000Y-68500D01*
X640000Y-48500D01*
X810000Y-48500D01*
X810000Y-68500D01*
G36*
X1539489Y3024553D02*
X777868Y2262932D01*
X760282Y2241523D01*
X742466Y2220290D01*
X741706Y2218908D01*
X740705Y2217689D01*
X727622Y2193289D01*
X714259Y2168983D01*
X713781Y2167477D01*
X713037Y2166089D01*
X704944Y2139619D01*
X696556Y2113174D01*
X696380Y2111605D01*
X695919Y2110097D01*
X693122Y2082559D01*
X690029Y2054989D01*
X690008Y2051902D01*
X690002Y2051847D01*
X690007Y2051795D01*
X690000Y2050800D01*
X690000Y1718644D01*
X682738Y1724447D01*
X611553Y1761311D01*
X583536Y1761946D01*
X522500Y1706800D01*
X522500Y1286500D01*
X565000Y1286500D01*
X565000Y1116500D01*
X522500Y1116500D01*
X522500Y1096500D01*
X397500Y1096500D01*
X397500Y1116500D01*
X355000Y1116500D01*
X355000Y1286500D01*
X397500Y1286500D01*
X397500Y1706800D01*
X336464Y1761946D01*
X308447Y1761311D01*
X237262Y1724447D01*
X174636Y1674403D01*
X166777Y1665078D01*
X155718Y1674227D01*
X95630Y1706716D01*
X30377Y1726915D01*
X-37557Y1734055D01*
X-78130Y1730363D01*
X-77880Y1748276D01*
X-95973Y1839654D01*
X-131471Y1925778D01*
X-183021Y2003366D01*
X-248659Y2069464D01*
X-325886Y2121555D01*
X-411759Y2157652D01*
X-503009Y2176383D01*
X-596159Y2177034D01*
X-613970Y2173636D01*
X-841889Y2401555D01*
X-841889Y2600504D01*
X-816814Y2597957D01*
X-784515Y2594334D01*
X-780898Y2594309D01*
X-780829Y2594302D01*
X-780765Y2594308D01*
X-779600Y2594300D01*
X818700Y2594300D01*
X851091Y2597476D01*
X883451Y2600307D01*
X885229Y2600823D01*
X887070Y2601004D01*
X918145Y2610386D01*
X949421Y2619472D01*
X951069Y2620326D01*
X952837Y2620860D01*
X981510Y2636106D01*
X1010413Y2651088D01*
X1011860Y2652243D01*
X1013494Y2653112D01*
X1038673Y2673647D01*
X1064102Y2693947D01*
X1066683Y2696492D01*
X1066731Y2696531D01*
X1066768Y2696575D01*
X1067602Y2697398D01*
X1539489Y3169285D01*
X1539489Y3024553D01*
X1539489Y3024553D01*
G37*
X1539489Y3024553D02*
X777868Y2262932D01*
X760282Y2241523D01*
X742466Y2220290D01*
X741706Y2218908D01*
X740705Y2217689D01*
X727622Y2193289D01*
X714259Y2168983D01*
X713781Y2167477D01*
X713037Y2166089D01*
X704944Y2139619D01*
X696556Y2113174D01*
X696380Y2111605D01*
X695919Y2110097D01*
X693122Y2082559D01*
X690029Y2054989D01*
X690008Y2051902D01*
X690002Y2051847D01*
X690007Y2051795D01*
X690000Y2050800D01*
X690000Y1718644D01*
X682738Y1724447D01*
X611553Y1761311D01*
X583536Y1761946D01*
X522500Y1706800D01*
X522500Y1286500D01*
X565000Y1286500D01*
X565000Y1116500D01*
X522500Y1116500D01*
X522500Y1096500D01*
X397500Y1096500D01*
X397500Y1116500D01*
X355000Y1116500D01*
X355000Y1286500D01*
X397500Y1286500D01*
X397500Y1706800D01*
X336464Y1761946D01*
X308447Y1761311D01*
X237262Y1724447D01*
X174636Y1674403D01*
X166777Y1665078D01*
X155718Y1674227D01*
X95630Y1706716D01*
X30377Y1726915D01*
X-37557Y1734055D01*
X-78130Y1730363D01*
X-77880Y1748276D01*
X-95973Y1839654D01*
X-131471Y1925778D01*
X-183021Y2003366D01*
X-248659Y2069464D01*
X-325886Y2121555D01*
X-411759Y2157652D01*
X-503009Y2176383D01*
X-596159Y2177034D01*
X-613970Y2173636D01*
X-841889Y2401555D01*
X-841889Y2600504D01*
X-816814Y2597957D01*
X-784515Y2594334D01*
X-780898Y2594309D01*
X-780829Y2594302D01*
X-780765Y2594308D01*
X-779600Y2594300D01*
X818700Y2594300D01*
X851091Y2597476D01*
X883451Y2600307D01*
X885229Y2600823D01*
X887070Y2601004D01*
X918145Y2610386D01*
X949421Y2619472D01*
X951069Y2620326D01*
X952837Y2620860D01*
X981510Y2636106D01*
X1010413Y2651088D01*
X1011860Y2652243D01*
X1013494Y2653112D01*
X1038673Y2673647D01*
X1064102Y2693947D01*
X1066683Y2696492D01*
X1066731Y2696531D01*
X1066768Y2696575D01*
X1067602Y2697398D01*
X1539489Y3169285D01*
X1539489Y3024553D01*
G36*
X3212560Y2931060D02*
X3232560Y2931060D01*
X3232560Y2761060D01*
X3212560Y2761060D01*
X3212560Y2741060D01*
X3042560Y2741060D01*
X3042560Y2761060D01*
X3022560Y2761060D01*
X3022560Y2931060D01*
X3042560Y2931060D01*
X3042560Y2951060D01*
X3212560Y2951060D01*
X3212560Y2931060D01*
X3212560Y2931060D01*
G37*
X3212560Y2931060D02*
X3232560Y2931060D01*
X3232560Y2761060D01*
X3212560Y2761060D01*
X3212560Y2741060D01*
X3042560Y2741060D01*
X3042560Y2761060D01*
X3022560Y2761060D01*
X3022560Y2931060D01*
X3042560Y2931060D01*
X3042560Y2951060D01*
X3212560Y2951060D01*
X3212560Y2931060D01*
M02*
