G04 #@! TF.FileFunction,Soldermask,Bot*
%FSLAX46Y46*%
G04 Gerber Fmt 4.6, Leading zero omitted, Abs format (unit mm)*
G04 Created by KiCad (PCBNEW 4.0.5) date 06/23/17 04:53:47*
%MOMM*%
%LPD*%
G01*
G04 APERTURE LIST*
%ADD10C,0.150000*%
%ADD11R,0.554800X1.004800*%
%ADD12R,1.494800X1.134800*%
%ADD13O,3.804920X1.805940*%
%ADD14R,2.303780X1.503680*%
%ADD15C,1.404620*%
%ADD16R,0.804800X0.904800*%
%ADD17R,0.954800X1.364800*%
%ADD18R,0.904800X0.804800*%
%ADD19R,0.644800X0.644800*%
%ADD20O,0.554800X0.914800*%
%ADD21O,0.914800X0.554800*%
%ADD22R,1.804800X1.804800*%
%ADD23R,0.604800X0.754800*%
%ADD24R,1.004800X0.904800*%
%ADD25R,0.704800X0.904800*%
%ADD26R,0.904800X0.704800*%
G04 APERTURE END LIST*
D10*
D11*
X-1425000Y6746500D03*
X-925000Y6746500D03*
X-425000Y6746500D03*
X75000Y6746500D03*
X75000Y3946500D03*
X-425000Y3946500D03*
X-925000Y3946500D03*
X-1425000Y3946500D03*
D12*
X-80000Y4931500D03*
X-1270000Y4931500D03*
X-80000Y5761500D03*
X-1270000Y5761500D03*
D13*
X6999600Y5683770D03*
X6999600Y-5715750D03*
D14*
X4899020Y-1016750D03*
X4899020Y1000010D03*
X4899020Y-3516110D03*
X4899020Y3484130D03*
D15*
X6999600Y-2266430D03*
X6999600Y2234450D03*
D16*
X-2975000Y5296500D03*
X-2975000Y6396500D03*
D17*
X-3025000Y-4753500D03*
X-2075000Y-4753500D03*
X-1125000Y-4753500D03*
X-1125000Y-6953500D03*
X-3025000Y-6953500D03*
X-2075000Y-6953500D03*
D18*
X-4925000Y-7053500D03*
X-6025000Y-7053500D03*
D19*
X-540000Y1111500D03*
D20*
X-40000Y1201500D03*
X460000Y1201500D03*
X990000Y1201500D03*
X1460000Y1201500D03*
D19*
X1990000Y1111500D03*
D21*
X2060000Y611500D03*
X2060000Y111500D03*
X2060000Y-418500D03*
X2060000Y-918500D03*
D19*
X1990000Y-1418500D03*
D20*
X1490000Y-1488500D03*
X990000Y-1488500D03*
X460000Y-1488500D03*
X-40000Y-1488500D03*
D19*
X-540000Y-1418500D03*
D21*
X-610000Y-918500D03*
X-610000Y-418500D03*
X-610000Y102500D03*
X-610000Y611500D03*
D22*
X725000Y-153500D03*
D23*
X1625000Y6146500D03*
X2625000Y6146500D03*
X1625000Y4746500D03*
X2125000Y6146500D03*
X2625000Y4746500D03*
D16*
X3125000Y-4403500D03*
X3125000Y-5503500D03*
D24*
X-11375000Y-603500D03*
X-11375000Y496500D03*
D25*
X-5925000Y-5553500D03*
X-5025000Y-5553500D03*
D26*
X475000Y-6153500D03*
X475000Y-5253500D03*
X-11425000Y-1603500D03*
X-11425000Y-2503500D03*
M02*
