G04 #@! TF.GenerationSoftware,KiCad,Pcbnew,(5.0.0-3-g5ebb6b6)*
G04 #@! TF.CreationDate,2018-08-18T00:05:47+02:00*
G04 #@! TF.ProjectId,nk-u2f,6E6B2D7532662E6B696361645F706362,R5*
G04 #@! TF.SameCoordinates,PX791ddc0PY5e69114*
G04 #@! TF.FileFunction,Legend,Bot*
G04 #@! TF.FilePolarity,Positive*
%FSLAX46Y46*%
G04 Gerber Fmt 4.6, Leading zero omitted, Abs format (unit mm)*
G04 Created by KiCad (PCBNEW (5.0.0-3-g5ebb6b6)) date Saturday, 18 August 2018 at 00:05:47*
%MOMM*%
%LPD*%
G01*
G04 APERTURE LIST*
%ADD10C,0.150000*%
%ADD11C,0.120000*%
G04 APERTURE END LIST*
D10*
X3155500Y-11087200D02*
X386900Y-11125300D01*
X386900Y-9106000D02*
X3180900Y-9080600D01*
X3739700Y-4038700D02*
X3485700Y-4038700D01*
X3739700Y-4534000D02*
X3523800Y-4534000D01*
X3739700Y-4038700D02*
X3739700Y-4534000D01*
X3650800Y-4038700D02*
X3739700Y-4038700D01*
X3485700Y-4254600D02*
X3193600Y-4038700D01*
X3485700Y-3848200D02*
X3485700Y-4254600D01*
X3193600Y-4038700D02*
X3485700Y-3848200D01*
X3523800Y-4534000D02*
X3523800Y-10998300D01*
X3206300Y-4038700D02*
X3587300Y-4038700D01*
X2101400Y-13309700D02*
X3536500Y-13322400D01*
X2088700Y-15227400D02*
X2076000Y-11392000D01*
X3625400Y-15189300D02*
X2088700Y-15227400D01*
X3612700Y-11392000D02*
X3625400Y-15189300D01*
X2076000Y-11392000D02*
X3612700Y-11392000D01*
X1783900Y-9080600D02*
X1783900Y-11074500D01*
X386900Y-9106000D02*
X399600Y-11163400D01*
X3180900Y-9055200D02*
X3168200Y-11087200D01*
X-5551669Y5639009D02*
X-5218336Y5639009D01*
X-5218336Y5115200D02*
X-5218336Y6115200D01*
X-5694526Y6115200D01*
X-6075479Y5115200D02*
X-6075479Y6115200D01*
X-6551669Y5115200D02*
X-6551669Y6115200D01*
X-6789764Y6115200D01*
X-6932621Y6067580D01*
X-7027860Y5972342D01*
X-7075479Y5877104D01*
X-7123098Y5686628D01*
X-7123098Y5543771D01*
X-7075479Y5353295D01*
X-7027860Y5258057D01*
X-6932621Y5162819D01*
X-6789764Y5115200D01*
X-6551669Y5115200D01*
X-7742145Y6115200D02*
X-7932621Y6115200D01*
X-8027860Y6067580D01*
X-8123098Y5972342D01*
X-8170717Y5781866D01*
X-8170717Y5448533D01*
X-8123098Y5258057D01*
X-8027860Y5162819D01*
X-7932621Y5115200D01*
X-7742145Y5115200D01*
X-7646907Y5162819D01*
X-7551669Y5258057D01*
X-7504050Y5448533D01*
X-7504050Y5781866D01*
X-7551669Y5972342D01*
X-7646907Y6067580D01*
X-7742145Y6115200D01*
X-9361193Y6115200D02*
X-9361193Y5305676D01*
X-9408812Y5210438D01*
X-9456431Y5162819D01*
X-9551669Y5115200D01*
X-9742145Y5115200D01*
X-9837383Y5162819D01*
X-9885002Y5210438D01*
X-9932621Y5305676D01*
X-9932621Y6115200D01*
X-10361193Y6019961D02*
X-10408812Y6067580D01*
X-10504050Y6115200D01*
X-10742145Y6115200D01*
X-10837383Y6067580D01*
X-10885002Y6019961D01*
X-10932621Y5924723D01*
X-10932621Y5829485D01*
X-10885002Y5686628D01*
X-10313574Y5115200D01*
X-10932621Y5115200D01*
X-11694526Y5639009D02*
X-11361193Y5639009D01*
X-11361193Y5115200D02*
X-11361193Y6115200D01*
X-11837383Y6115200D01*
X-10853574Y3743600D02*
X-10520240Y4219790D01*
X-10282145Y3743600D02*
X-10282145Y4743600D01*
X-10663098Y4743600D01*
X-10758336Y4695980D01*
X-10805955Y4648361D01*
X-10853574Y4553123D01*
X-10853574Y4410266D01*
X-10805955Y4315028D01*
X-10758336Y4267409D01*
X-10663098Y4219790D01*
X-10282145Y4219790D01*
X-11710717Y4743600D02*
X-11520240Y4743600D01*
X-11425002Y4695980D01*
X-11377383Y4648361D01*
X-11282145Y4505504D01*
X-11234526Y4315028D01*
X-11234526Y3934076D01*
X-11282145Y3838838D01*
X-11329764Y3791219D01*
X-11425002Y3743600D01*
X-11615479Y3743600D01*
X-11710717Y3791219D01*
X-11758336Y3838838D01*
X-11805955Y3934076D01*
X-11805955Y4172171D01*
X-11758336Y4267409D01*
X-11710717Y4315028D01*
X-11615479Y4362647D01*
X-11425002Y4362647D01*
X-11329764Y4315028D01*
X-11282145Y4267409D01*
X-11234526Y4172171D01*
X-6060286Y6672220D02*
X-6060286Y7672220D01*
X-6631715Y6672220D01*
X-6631715Y7672220D01*
X-7107905Y6672220D02*
X-7107905Y7338886D01*
X-7107905Y7672220D02*
X-7060286Y7624600D01*
X-7107905Y7576981D01*
X-7155524Y7624600D01*
X-7107905Y7672220D01*
X-7107905Y7576981D01*
X-7441239Y7338886D02*
X-7822191Y7338886D01*
X-7584096Y7672220D02*
X-7584096Y6815077D01*
X-7631715Y6719839D01*
X-7726953Y6672220D01*
X-7822191Y6672220D01*
X-8155524Y6672220D02*
X-8155524Y7338886D01*
X-8155524Y7148410D02*
X-8203143Y7243648D01*
X-8250762Y7291267D01*
X-8346000Y7338886D01*
X-8441239Y7338886D01*
X-8917429Y6672220D02*
X-8822191Y6719839D01*
X-8774572Y6767458D01*
X-8726953Y6862696D01*
X-8726953Y7148410D01*
X-8774572Y7243648D01*
X-8822191Y7291267D01*
X-8917429Y7338886D01*
X-9060286Y7338886D01*
X-9155524Y7291267D01*
X-9203143Y7243648D01*
X-9250762Y7148410D01*
X-9250762Y6862696D01*
X-9203143Y6767458D01*
X-9155524Y6719839D01*
X-9060286Y6672220D01*
X-8917429Y6672220D01*
X-9679334Y6672220D02*
X-9679334Y7672220D01*
X-9774572Y7053172D02*
X-10060286Y6672220D01*
X-10060286Y7338886D02*
X-9679334Y6957934D01*
X-10869810Y6719839D02*
X-10774572Y6672220D01*
X-10584096Y6672220D01*
X-10488858Y6719839D01*
X-10441239Y6815077D01*
X-10441239Y7196029D01*
X-10488858Y7291267D01*
X-10584096Y7338886D01*
X-10774572Y7338886D01*
X-10869810Y7291267D01*
X-10917429Y7196029D01*
X-10917429Y7100791D01*
X-10441239Y7005553D01*
X-11250762Y7338886D02*
X-11488858Y6672220D01*
X-11726953Y7338886D02*
X-11488858Y6672220D01*
X-11393620Y6434124D01*
X-11346000Y6386505D01*
X-11250762Y6338886D01*
D11*
G04 #@! TO.C,U2*
X2670000Y-5094500D02*
X2670000Y-6894500D01*
X-550000Y-6894500D02*
X-550000Y-4444500D01*
D10*
G04 #@! TO.C,U4*
X932400Y6663300D02*
X932400Y4563300D01*
X-2317600Y7438300D02*
X-2317600Y4563300D01*
G04 #@! TO.C,P1*
X-2255534Y-453500D02*
G75*
G03X-2255534Y-453500I-4119466J0D01*
G01*
D11*
G04 #@! TO.C,C2*
X3485800Y-6570000D02*
X3485800Y-7070000D01*
X2545800Y-7070000D02*
X2545800Y-6570000D01*
D10*
G04 #@! TO.C,U1*
X-1025000Y-1903500D02*
X-1025000Y1096500D01*
X-1025000Y1096500D02*
X-525000Y1596500D01*
X-525000Y1596500D02*
X2475000Y1596500D01*
X2475000Y1596500D02*
X2475000Y-1903500D01*
X2475000Y-1903500D02*
X-1025000Y-1903500D01*
X-775000Y1346500D02*
X-775000Y1346500D01*
X-775000Y-1653500D02*
X-775000Y-1653500D01*
X-775000Y-1653500D02*
X-775000Y-1653500D01*
X2225000Y1346500D02*
X2225000Y1346500D01*
X2225000Y1346500D02*
X2225000Y1346500D01*
X2225000Y-1653500D02*
X2225000Y-1653500D01*
X2225000Y-1653500D02*
X2225000Y-1653500D01*
D11*
G04 #@! TO.C,U3*
X3179200Y4925200D02*
X3179200Y6225200D01*
X1379200Y6475200D02*
X1379200Y4925200D01*
G04 #@! TO.C,C3*
X3815800Y-5609500D02*
X3815800Y-5109500D01*
X4755800Y-5109500D02*
X4755800Y-5609500D01*
G04 #@! TO.C,D1*
X-11825000Y896500D02*
X-10925000Y896500D01*
X-10925000Y896500D02*
X-10925000Y-553500D01*
X-11825000Y896500D02*
X-11825000Y-553500D01*
G04 #@! TO.C,R1*
X-1006480Y-5620260D02*
X-1506480Y-5620260D01*
X-1506480Y-4560260D02*
X-1006480Y-4560260D01*
G04 #@! TO.C,R2*
X3555960Y-4743740D02*
X3555960Y-5243740D01*
X2495960Y-5243740D02*
X2495960Y-4743740D01*
G04 #@! TO.C,R3*
X-1001400Y-6689600D02*
X-1501400Y-6689600D01*
X-1501400Y-5629600D02*
X-1001400Y-5629600D01*
G04 #@! TO.C,R4*
X2511200Y-598500D02*
X2511200Y-98500D01*
X3571200Y-98500D02*
X3571200Y-598500D01*
G04 #@! TO.C,R5*
X2423120Y-3041940D02*
X2423120Y-3541940D01*
X1363120Y-3541940D02*
X1363120Y-3041940D01*
G04 #@! TO.C,R7*
X3434040Y-3041940D02*
X3434040Y-3541940D01*
X2374040Y-3541940D02*
X2374040Y-3041940D01*
G04 #@! TO.C,C4*
X3597560Y2546060D02*
X3597560Y2046060D01*
X2657560Y2046060D02*
X2657560Y2546060D01*
G04 #@! TO.C,C1*
X-1975200Y5863300D02*
X-1975200Y5363300D01*
X-2915200Y5363300D02*
X-2915200Y5863300D01*
G04 #@! TO.C,U2*
D10*
X-489496Y-6894680D02*
X-489496Y-7704204D01*
X-537115Y-7799442D01*
X-584734Y-7847061D01*
X-679972Y-7894680D01*
X-870448Y-7894680D01*
X-965686Y-7847061D01*
X-1013305Y-7799442D01*
X-1060924Y-7704204D01*
X-1060924Y-6894680D01*
X-1489496Y-6989919D02*
X-1537115Y-6942300D01*
X-1632353Y-6894680D01*
X-1870448Y-6894680D01*
X-1965686Y-6942300D01*
X-2013305Y-6989919D01*
X-2060924Y-7085157D01*
X-2060924Y-7180395D01*
X-2013305Y-7323252D01*
X-1441877Y-7894680D01*
X-2060924Y-7894680D01*
G04 #@! TO.C,U4*
X1948904Y7773820D02*
X1948904Y6964296D01*
X1901285Y6869058D01*
X1853666Y6821439D01*
X1758428Y6773820D01*
X1567952Y6773820D01*
X1472714Y6821439D01*
X1425095Y6869058D01*
X1377476Y6964296D01*
X1377476Y7773820D01*
X472714Y7440486D02*
X472714Y6773820D01*
X710809Y7821439D02*
X948904Y7107153D01*
X329857Y7107153D01*
G04 #@! TO.C,C2*
X3271342Y-14095533D02*
X3318961Y-14047914D01*
X3366580Y-13905057D01*
X3366580Y-13809819D01*
X3318961Y-13666961D01*
X3223723Y-13571723D01*
X3128485Y-13524104D01*
X2938009Y-13476485D01*
X2795152Y-13476485D01*
X2604676Y-13524104D01*
X2509438Y-13571723D01*
X2414200Y-13666961D01*
X2366580Y-13809819D01*
X2366580Y-13905057D01*
X2414200Y-14047914D01*
X2461819Y-14095533D01*
X2461819Y-14476485D02*
X2414200Y-14524104D01*
X2366580Y-14619342D01*
X2366580Y-14857438D01*
X2414200Y-14952676D01*
X2461819Y-15000295D01*
X2557057Y-15047914D01*
X2652295Y-15047914D01*
X2795152Y-15000295D01*
X3366580Y-14428866D01*
X3366580Y-15047914D01*
G04 #@! TO.C,U1*
X1351985Y3133543D02*
X1351985Y2162115D01*
X1294842Y2047829D01*
X1237700Y1990686D01*
X1123414Y1933543D01*
X894842Y1933543D01*
X780557Y1990686D01*
X723414Y2047829D01*
X666271Y2162115D01*
X666271Y3133543D01*
X-533729Y1933543D02*
X151985Y1933543D01*
X-190872Y1933543D02*
X-190872Y3133543D01*
X-76586Y2962115D01*
X37700Y2847829D01*
X151985Y2790686D01*
G04 #@! TO.C,U3*
X4882604Y6808620D02*
X4882604Y5999096D01*
X4834985Y5903858D01*
X4787366Y5856239D01*
X4692128Y5808620D01*
X4501652Y5808620D01*
X4406414Y5856239D01*
X4358795Y5903858D01*
X4311176Y5999096D01*
X4311176Y6808620D01*
X3930223Y6808620D02*
X3311176Y6808620D01*
X3644509Y6427667D01*
X3501652Y6427667D01*
X3406414Y6380048D01*
X3358795Y6332429D01*
X3311176Y6237191D01*
X3311176Y5999096D01*
X3358795Y5903858D01*
X3406414Y5856239D01*
X3501652Y5808620D01*
X3787366Y5808620D01*
X3882604Y5856239D01*
X3930223Y5903858D01*
G04 #@! TO.C,C3*
X5620866Y-7634342D02*
X5668485Y-7681961D01*
X5811342Y-7729580D01*
X5906580Y-7729580D01*
X6049438Y-7681961D01*
X6144676Y-7586723D01*
X6192295Y-7491485D01*
X6239914Y-7301009D01*
X6239914Y-7158152D01*
X6192295Y-6967676D01*
X6144676Y-6872438D01*
X6049438Y-6777200D01*
X5906580Y-6729580D01*
X5811342Y-6729580D01*
X5668485Y-6777200D01*
X5620866Y-6824819D01*
X5287533Y-6729580D02*
X4668485Y-6729580D01*
X5001819Y-7110533D01*
X4858961Y-7110533D01*
X4763723Y-7158152D01*
X4716104Y-7205771D01*
X4668485Y-7301009D01*
X4668485Y-7539104D01*
X4716104Y-7634342D01*
X4763723Y-7681961D01*
X4858961Y-7729580D01*
X5144676Y-7729580D01*
X5239914Y-7681961D01*
X5287533Y-7634342D01*
G04 #@! TO.C,D1*
X-10971720Y2782696D02*
X-11971720Y2782696D01*
X-11971720Y2544600D01*
X-11924100Y2401743D01*
X-11828862Y2306505D01*
X-11733624Y2258886D01*
X-11543148Y2211267D01*
X-11400291Y2211267D01*
X-11209815Y2258886D01*
X-11114577Y2306505D01*
X-11019339Y2401743D01*
X-10971720Y2544600D01*
X-10971720Y2782696D01*
X-10971720Y1258886D02*
X-10971720Y1830315D01*
X-10971720Y1544600D02*
X-11971720Y1544600D01*
X-11828862Y1639839D01*
X-11733624Y1735077D01*
X-11686005Y1830315D01*
G04 #@! TO.C,R1*
X-2862734Y-5481680D02*
X-2529400Y-5005490D01*
X-2291305Y-5481680D02*
X-2291305Y-4481680D01*
X-2672258Y-4481680D01*
X-2767496Y-4529300D01*
X-2815115Y-4576919D01*
X-2862734Y-4672157D01*
X-2862734Y-4815014D01*
X-2815115Y-4910252D01*
X-2767496Y-4957871D01*
X-2672258Y-5005490D01*
X-2291305Y-5005490D01*
X-3815115Y-5481680D02*
X-3243686Y-5481680D01*
X-3529400Y-5481680D02*
X-3529400Y-4481680D01*
X-3434162Y-4624538D01*
X-3338924Y-4719776D01*
X-3243686Y-4767395D01*
G04 #@! TO.C,R2*
X3315780Y-12177833D02*
X2839590Y-11844500D01*
X3315780Y-11606404D02*
X2315780Y-11606404D01*
X2315780Y-11987357D01*
X2363400Y-12082595D01*
X2411019Y-12130214D01*
X2506257Y-12177833D01*
X2649114Y-12177833D01*
X2744352Y-12130214D01*
X2791971Y-12082595D01*
X2839590Y-11987357D01*
X2839590Y-11606404D01*
X2411019Y-12558785D02*
X2363400Y-12606404D01*
X2315780Y-12701642D01*
X2315780Y-12939738D01*
X2363400Y-13034976D01*
X2411019Y-13082595D01*
X2506257Y-13130214D01*
X2601495Y-13130214D01*
X2744352Y-13082595D01*
X3315780Y-12511166D01*
X3315780Y-13130214D01*
G04 #@! TO.C,R3*
X-2862734Y-6764380D02*
X-2529400Y-6288190D01*
X-2291305Y-6764380D02*
X-2291305Y-5764380D01*
X-2672258Y-5764380D01*
X-2767496Y-5812000D01*
X-2815115Y-5859619D01*
X-2862734Y-5954857D01*
X-2862734Y-6097714D01*
X-2815115Y-6192952D01*
X-2767496Y-6240571D01*
X-2672258Y-6288190D01*
X-2291305Y-6288190D01*
X-3196067Y-5764380D02*
X-3815115Y-5764380D01*
X-3481781Y-6145333D01*
X-3624639Y-6145333D01*
X-3719877Y-6192952D01*
X-3767496Y-6240571D01*
X-3815115Y-6335809D01*
X-3815115Y-6573904D01*
X-3767496Y-6669142D01*
X-3719877Y-6716761D01*
X-3624639Y-6764380D01*
X-3338924Y-6764380D01*
X-3243686Y-6716761D01*
X-3196067Y-6669142D01*
G04 #@! TO.C,R4*
X3671380Y-1649533D02*
X3195190Y-1316200D01*
X3671380Y-1078104D02*
X2671380Y-1078104D01*
X2671380Y-1459057D01*
X2719000Y-1554295D01*
X2766619Y-1601914D01*
X2861857Y-1649533D01*
X3004714Y-1649533D01*
X3099952Y-1601914D01*
X3147571Y-1554295D01*
X3195190Y-1459057D01*
X3195190Y-1078104D01*
X3004714Y-2506676D02*
X3671380Y-2506676D01*
X2623761Y-2268580D02*
X3338047Y-2030485D01*
X3338047Y-2649533D01*
G04 #@! TO.C,R5*
X1575880Y-9942633D02*
X1099690Y-9609300D01*
X1575880Y-9371204D02*
X575880Y-9371204D01*
X575880Y-9752157D01*
X623500Y-9847395D01*
X671119Y-9895014D01*
X766357Y-9942633D01*
X909214Y-9942633D01*
X1004452Y-9895014D01*
X1052071Y-9847395D01*
X1099690Y-9752157D01*
X1099690Y-9371204D01*
X575880Y-10847395D02*
X575880Y-10371204D01*
X1052071Y-10323585D01*
X1004452Y-10371204D01*
X956833Y-10466442D01*
X956833Y-10704538D01*
X1004452Y-10799776D01*
X1052071Y-10847395D01*
X1147309Y-10895014D01*
X1385404Y-10895014D01*
X1480642Y-10847395D01*
X1528261Y-10799776D01*
X1575880Y-10704538D01*
X1575880Y-10466442D01*
X1528261Y-10371204D01*
X1480642Y-10323585D01*
G04 #@! TO.C,R7*
X2985580Y-9950253D02*
X2509390Y-9616920D01*
X2985580Y-9378824D02*
X1985580Y-9378824D01*
X1985580Y-9759777D01*
X2033200Y-9855015D01*
X2080819Y-9902634D01*
X2176057Y-9950253D01*
X2318914Y-9950253D01*
X2414152Y-9902634D01*
X2461771Y-9855015D01*
X2509390Y-9759777D01*
X2509390Y-9378824D01*
X1985580Y-10283586D02*
X1985580Y-10950253D01*
X2985580Y-10521681D01*
G04 #@! TO.C,C4*
X2649042Y2858967D02*
X2696661Y2906586D01*
X2744280Y3049443D01*
X2744280Y3144681D01*
X2696661Y3287539D01*
X2601423Y3382777D01*
X2506185Y3430396D01*
X2315709Y3478015D01*
X2172852Y3478015D01*
X1982376Y3430396D01*
X1887138Y3382777D01*
X1791900Y3287539D01*
X1744280Y3144681D01*
X1744280Y3049443D01*
X1791900Y2906586D01*
X1839519Y2858967D01*
X2077614Y2001824D02*
X2744280Y2001824D01*
X1696661Y2239920D02*
X2410947Y2478015D01*
X2410947Y1858967D01*
G04 #@! TO.C,C1*
X-3091358Y5335467D02*
X-3043739Y5383086D01*
X-2996120Y5525943D01*
X-2996120Y5621181D01*
X-3043739Y5764039D01*
X-3138977Y5859277D01*
X-3234215Y5906896D01*
X-3424691Y5954515D01*
X-3567548Y5954515D01*
X-3758024Y5906896D01*
X-3853262Y5859277D01*
X-3948500Y5764039D01*
X-3996120Y5621181D01*
X-3996120Y5525943D01*
X-3948500Y5383086D01*
X-3900881Y5335467D01*
X-2996120Y4383086D02*
X-2996120Y4954515D01*
X-2996120Y4668800D02*
X-3996120Y4668800D01*
X-3853262Y4764039D01*
X-3758024Y4859277D01*
X-3710405Y4954515D01*
G04 #@! TD*
M02*
