M48
;DRILL file {KiCad 4.0.7} date 2018. May 23., Wednesday 20:43:39
;FORMAT={-:-/ absolute / inch / decimal}
FMAT,2
INCH,TZ
T1C0.012
T2C0.039
T3C0.043
%
G90
G05
M72
T1
X4.5427Y-3.8493
X4.9452Y-4.0615
X4.9782Y-3.8305
X4.9835Y-3.8055
X5.0182Y-3.8195
X5.0223Y-4.1276
X5.0252Y-3.7542
X5.0253Y-3.7276
X5.0285Y-3.9035
X5.0684Y-3.984
X5.073Y-3.7365
X5.0907Y-4.14
X5.0952Y-3.983
X5.0996Y-3.7363
X5.1239Y-3.8707
X5.1462Y-4.109
X5.1562Y-3.8975
X5.1592Y-3.6775
X5.1684Y-3.814
X5.2757Y-3.8935
X5.3117Y-3.786
X5.3242Y-4.002
X5.3307Y-4.045
T3
X5.2756Y-3.8095
X5.2756Y-3.9867
T2
X5.3051Y-3.6737G85X5.2461Y-3.6737
G05
X5.3051Y-4.1225G85X5.2461Y-4.1225
G05
T0
M30
