G04 #@! TF.GenerationSoftware,KiCad,Pcbnew,(5.0.0-3-g5ebb6b6)*
G04 #@! TF.CreationDate,2018-08-18T00:05:47+02:00*
G04 #@! TF.ProjectId,nk-u2f,6E6B2D7532662E6B696361645F706362,R5*
G04 #@! TF.SameCoordinates,PX791ddc0PY5e69114*
G04 #@! TF.FileFunction,Soldermask,Bot*
G04 #@! TF.FilePolarity,Negative*
%FSLAX46Y46*%
G04 Gerber Fmt 4.6, Leading zero omitted, Abs format (unit mm)*
G04 Created by KiCad (PCBNEW (5.0.0-3-g5ebb6b6)) date Saturday, 18 August 2018 at 00:05:47*
%MOMM*%
%LPD*%
G01*
G04 APERTURE LIST*
%ADD10C,1.199820*%
%ADD11R,2.098980X1.298880*%
%ADD12O,3.600120X1.601140*%
%ADD13R,0.750000X1.160000*%
%ADD14R,0.350000X0.800000*%
%ADD15R,1.290000X0.930000*%
%ADD16R,0.600000X0.700000*%
%ADD17R,0.440000X0.440000*%
%ADD18O,0.350000X0.710000*%
%ADD19O,0.710000X0.350000*%
%ADD20R,1.600000X1.600000*%
%ADD21R,0.400000X0.550000*%
%ADD22R,0.800000X0.700000*%
%ADD23R,0.500000X0.700000*%
%ADD24R,0.700000X0.500000*%
G04 APERTURE END LIST*
D10*
G04 #@! TO.C,J1*
X6999600Y2234450D03*
X6999600Y-2266430D03*
D11*
X4599020Y3484130D03*
X4599020Y-3516110D03*
X4599020Y1000010D03*
X4599020Y-1016750D03*
D12*
X6999600Y-5715750D03*
X6999600Y5683770D03*
G04 #@! TD*
D13*
G04 #@! TO.C,U2*
X110000Y-4894500D03*
X1060000Y-4894500D03*
X2010000Y-4894500D03*
X2010000Y-7094500D03*
X110000Y-7094500D03*
X1060000Y-7094500D03*
G04 #@! TD*
D14*
G04 #@! TO.C,U4*
X-1442600Y7013300D03*
X-942600Y7013300D03*
X-442600Y7013300D03*
X57400Y7013300D03*
X57400Y4213300D03*
X-442600Y4213300D03*
X-942600Y4213300D03*
X-1442600Y4213300D03*
D15*
X-97600Y5198300D03*
X-1287600Y5198300D03*
X-97600Y6028300D03*
X-1287600Y6028300D03*
G04 #@! TD*
D16*
G04 #@! TO.C,C2*
X3015800Y-7370000D03*
X3015800Y-6270000D03*
G04 #@! TD*
D17*
G04 #@! TO.C,U1*
X-540000Y1111500D03*
D18*
X-40000Y1201500D03*
X460000Y1201500D03*
X990000Y1201500D03*
X1460000Y1201500D03*
D17*
X1990000Y1111500D03*
D19*
X2060000Y611500D03*
X2060000Y111500D03*
X2060000Y-418500D03*
X2060000Y-918500D03*
D17*
X1990000Y-1418500D03*
D18*
X1490000Y-1488500D03*
X990000Y-1488500D03*
X460000Y-1488500D03*
X-40000Y-1488500D03*
D17*
X-540000Y-1418500D03*
D19*
X-610000Y-918500D03*
X-610000Y-418500D03*
X-610000Y102500D03*
X-610000Y611500D03*
D20*
X725000Y-153500D03*
G04 #@! TD*
D21*
G04 #@! TO.C,U3*
X1779200Y6275200D03*
X2779200Y6275200D03*
X1779200Y4875200D03*
X2279200Y6275200D03*
X2779200Y4875200D03*
G04 #@! TD*
D16*
G04 #@! TO.C,C3*
X4285800Y-4809500D03*
X4285800Y-5909500D03*
G04 #@! TD*
D22*
G04 #@! TO.C,D1*
X-11375000Y-603500D03*
X-11375000Y496500D03*
G04 #@! TD*
D23*
G04 #@! TO.C,R1*
X-1706480Y-5090260D03*
X-806480Y-5090260D03*
G04 #@! TD*
D24*
G04 #@! TO.C,R2*
X3025960Y-5443740D03*
X3025960Y-4543740D03*
G04 #@! TD*
D23*
G04 #@! TO.C,R3*
X-1701400Y-6159600D03*
X-801400Y-6159600D03*
G04 #@! TD*
D24*
G04 #@! TO.C,R4*
X3041200Y101500D03*
X3041200Y-798500D03*
G04 #@! TD*
G04 #@! TO.C,R5*
X1893120Y-3741940D03*
X1893120Y-2841940D03*
G04 #@! TD*
G04 #@! TO.C,R7*
X2904040Y-3741940D03*
X2904040Y-2841940D03*
G04 #@! TD*
D16*
G04 #@! TO.C,C4*
X3127560Y1746060D03*
X3127560Y2846060D03*
G04 #@! TD*
G04 #@! TO.C,C1*
X-2445200Y5063300D03*
X-2445200Y6163300D03*
G04 #@! TD*
M02*
