G04 #@! TF.FileFunction,Soldermask,Bot*
%FSLAX46Y46*%
G04 Gerber Fmt 4.6, Leading zero omitted, Abs format (unit mm)*
G04 Created by KiCad (PCBNEW 4.0.7) date 2018. March 20., Tuesday 00:31:41*
%MOMM*%
%LPD*%
G01*
G04 APERTURE LIST*
%ADD10C,0.150000*%
%ADD11R,0.750000X1.160000*%
%ADD12R,0.350000X0.800000*%
%ADD13R,1.290000X0.930000*%
%ADD14O,3.600120X1.601140*%
%ADD15R,2.098980X1.298880*%
%ADD16C,1.199820*%
%ADD17R,0.600000X0.700000*%
%ADD18R,0.440000X0.440000*%
%ADD19O,0.350000X0.710000*%
%ADD20O,0.710000X0.350000*%
%ADD21R,1.600000X1.600000*%
%ADD22R,0.400000X0.550000*%
%ADD23R,0.800000X0.700000*%
%ADD24R,0.500000X0.700000*%
%ADD25R,0.700000X0.500000*%
G04 APERTURE END LIST*
D10*
D11*
X110000Y-4894500D03*
X1060000Y-4894500D03*
X2010000Y-4894500D03*
X2010000Y-7094500D03*
X110000Y-7094500D03*
X1060000Y-7094500D03*
D12*
X-1442600Y7013300D03*
X-942600Y7013300D03*
X-442600Y7013300D03*
X57400Y7013300D03*
X57400Y4213300D03*
X-442600Y4213300D03*
X-942600Y4213300D03*
X-1442600Y4213300D03*
D13*
X-97600Y5198300D03*
X-1287600Y5198300D03*
X-97600Y6028300D03*
X-1287600Y6028300D03*
D14*
X6999600Y5683770D03*
X6999600Y-5715750D03*
D15*
X4899020Y-1016750D03*
X4899020Y1000010D03*
X4899020Y-3516110D03*
X4899020Y3484130D03*
D16*
X6999600Y-2266430D03*
X6999600Y2234450D03*
D17*
X3015800Y-7370000D03*
X3015800Y-6270000D03*
D18*
X-540000Y1111500D03*
D19*
X-40000Y1201500D03*
X460000Y1201500D03*
X990000Y1201500D03*
X1460000Y1201500D03*
D18*
X1990000Y1111500D03*
D20*
X2060000Y611500D03*
X2060000Y111500D03*
X2060000Y-418500D03*
X2060000Y-918500D03*
D18*
X1990000Y-1418500D03*
D19*
X1490000Y-1488500D03*
X990000Y-1488500D03*
X460000Y-1488500D03*
X-40000Y-1488500D03*
D18*
X-540000Y-1418500D03*
D20*
X-610000Y-918500D03*
X-610000Y-418500D03*
X-610000Y102500D03*
X-610000Y611500D03*
D21*
X725000Y-153500D03*
D22*
X1779200Y6275200D03*
X2779200Y6275200D03*
X1779200Y4875200D03*
X2279200Y6275200D03*
X2779200Y4875200D03*
D17*
X4285800Y-4809500D03*
X4285800Y-5909500D03*
D23*
X-11375000Y-603500D03*
X-11375000Y496500D03*
D24*
X-1706480Y-5090260D03*
X-806480Y-5090260D03*
D25*
X3025960Y-5443740D03*
X3025960Y-4543740D03*
D24*
X-1701400Y-6159600D03*
X-801400Y-6159600D03*
D25*
X3203760Y38420D03*
X3203760Y-861580D03*
X1893120Y-3741940D03*
X1893120Y-2841940D03*
X2904040Y-3741940D03*
X2904040Y-2841940D03*
D17*
X3127560Y1746060D03*
X3127560Y2846060D03*
X-2445200Y5063300D03*
X-2445200Y6163300D03*
M02*
