G04 #@! TF.FileFunction,Paste,Bot*
%FSLAX46Y46*%
G04 Gerber Fmt 4.6, Leading zero omitted, Abs format (unit mm)*
G04 Created by KiCad (PCBNEW 4.0.7) date 2018. May 23., Wednesday 20:43:36*
%MOMM*%
%LPD*%
G01*
G04 APERTURE LIST*
%ADD10C,0.150000*%
%ADD11R,0.520000X0.848000*%
%ADD12R,0.200000X0.560000*%
%ADD13R,0.714000X0.498000*%
%ADD14R,1.599184X0.959104*%
%ADD15R,0.400000X0.480000*%
%ADD16R,0.272000X0.272000*%
%ADD17O,0.200000X0.488000*%
%ADD18O,0.488000X0.200000*%
%ADD19R,1.200000X1.200000*%
%ADD20R,0.240000X0.360000*%
%ADD21R,0.560000X0.480000*%
%ADD22R,0.320000X0.480000*%
%ADD23R,0.480000X0.320000*%
G04 APERTURE END LIST*
D10*
D11*
X110000Y-4894500D03*
X1060000Y-4894500D03*
X2010000Y-4894500D03*
X2010000Y-7094500D03*
X110000Y-7094500D03*
X1060000Y-7094500D03*
D12*
X-1442600Y7013300D03*
X-942600Y7013300D03*
X-442600Y7013300D03*
X57400Y7013300D03*
X57400Y4213300D03*
X-442600Y4213300D03*
X-942600Y4213300D03*
X-1442600Y4213300D03*
D13*
X-97600Y5198300D03*
X-1287600Y5198300D03*
X-97600Y6028300D03*
X-1287600Y6028300D03*
D14*
X4899020Y-1016750D03*
X4899020Y1000010D03*
X4899020Y-3516110D03*
X4899020Y3484130D03*
D15*
X3015800Y-7370000D03*
X3015800Y-6270000D03*
D16*
X-540000Y1111500D03*
D17*
X-40000Y1201500D03*
X460000Y1201500D03*
X990000Y1201500D03*
X1460000Y1201500D03*
D16*
X1990000Y1111500D03*
D18*
X2060000Y611500D03*
X2060000Y111500D03*
X2060000Y-418500D03*
X2060000Y-918500D03*
D16*
X1990000Y-1418500D03*
D17*
X1490000Y-1488500D03*
X990000Y-1488500D03*
X460000Y-1488500D03*
X-40000Y-1488500D03*
D16*
X-540000Y-1418500D03*
D18*
X-610000Y-918500D03*
X-610000Y-418500D03*
X-610000Y102500D03*
X-610000Y611500D03*
D19*
X725000Y-153500D03*
D20*
X1779200Y6275200D03*
X2779200Y6275200D03*
X1779200Y4875200D03*
X2279200Y6275200D03*
X2779200Y4875200D03*
D15*
X4285800Y-4809500D03*
X4285800Y-5909500D03*
D21*
X-11375000Y-603500D03*
X-11375000Y496500D03*
D22*
X-1706480Y-5090260D03*
X-806480Y-5090260D03*
D23*
X3025960Y-5443740D03*
X3025960Y-4543740D03*
D22*
X-1701400Y-6159600D03*
X-801400Y-6159600D03*
D23*
X3203760Y38420D03*
X3203760Y-861580D03*
X1893120Y-3741940D03*
X1893120Y-2841940D03*
X2904040Y-3741940D03*
X2904040Y-2841940D03*
D15*
X3127560Y1746060D03*
X3127560Y2846060D03*
X-2445200Y5063300D03*
X-2445200Y6163300D03*
M02*
