M48
;DRILL file {KiCad 4.0.5} date 06/23/17 04:53:20
;FORMAT={-:-/ absolute / metric / decimal}
FMAT,2
METRIC,TZ
T1C0.300
T2C1.001
T3C1.100
%
G90
G05
M71
T1
X-11.275Y1.246
X-6.975Y5.346
X-6.875Y-7.053
X-4.425Y5.346
X-4.025Y-7.053
X-2.775Y7.546
X-1.075Y-6.053
X-0.875Y-2.753
X-0.775Y2.046
X0.225Y2.946
X0.325Y-3.553
X0.425Y1.846
X0.625Y3.846
X0.725Y-0.153
X1.325Y-2.454
X1.625Y3.646
X2.025Y-6.353
X2.125Y6.746
X2.125Y-2.454
X2.625Y2.846
X2.725Y0.346
X3.525Y-3.553
X4.125Y3.446
X4.125Y0.947
X4.125Y-1.053
X7.375Y0.396
X8.525Y-2.503
T3
X7.Y2.234
X7.Y-2.266
T2
X7.749Y5.684G85X6.25Y5.684
G05
X7.749Y-5.716G85X6.25Y-5.716
G05
T0
M30
