G04 #@! TF.GenerationSoftware,KiCad,Pcbnew,(5.0.0-3-g5ebb6b6)*
G04 #@! TF.CreationDate,2018-09-01T16:23:46+02:00*
G04 #@! TF.ProjectId,nk-u2f,6E6B2D7532662E6B696361645F706362,R5*
G04 #@! TF.SameCoordinates,PX791ddc0PY5e69114*
G04 #@! TF.FileFunction,Copper,L2,Bot,Signal*
G04 #@! TF.FilePolarity,Positive*
%FSLAX46Y46*%
G04 Gerber Fmt 4.6, Leading zero omitted, Abs format (unit mm)*
G04 Created by KiCad (PCBNEW (5.0.0-3-g5ebb6b6)) date Saturday, 01 September 2018 at 16:23:46*
%MOMM*%
%LPD*%
G01*
G04 APERTURE LIST*
G04 #@! TA.AperFunction,ComponentPad*
%ADD10C,1.099820*%
G04 #@! TD*
G04 #@! TA.AperFunction,SMDPad,CuDef*
%ADD11R,1.998980X1.198880*%
G04 #@! TD*
G04 #@! TA.AperFunction,ComponentPad*
%ADD12O,3.500120X1.501140*%
G04 #@! TD*
G04 #@! TA.AperFunction,SMDPad,CuDef*
%ADD13R,0.650000X1.060000*%
G04 #@! TD*
G04 #@! TA.AperFunction,SMDPad,CuDef*
%ADD14R,0.250000X0.700000*%
G04 #@! TD*
G04 #@! TA.AperFunction,SMDPad,CuDef*
%ADD15R,1.190000X0.830000*%
G04 #@! TD*
G04 #@! TA.AperFunction,Conductor*
%ADD16O,8.000000X8.000000*%
G04 #@! TD*
G04 #@! TA.AperFunction,SMDPad,CuDef*
%ADD17R,0.500000X0.600000*%
G04 #@! TD*
G04 #@! TA.AperFunction,SMDPad,CuDef*
%ADD18R,0.340000X0.340000*%
G04 #@! TD*
G04 #@! TA.AperFunction,SMDPad,CuDef*
%ADD19O,0.250000X0.610000*%
G04 #@! TD*
G04 #@! TA.AperFunction,SMDPad,CuDef*
%ADD20O,0.610000X0.250000*%
G04 #@! TD*
G04 #@! TA.AperFunction,SMDPad,CuDef*
%ADD21R,1.500000X1.500000*%
G04 #@! TD*
G04 #@! TA.AperFunction,SMDPad,CuDef*
%ADD22R,0.300000X0.450000*%
G04 #@! TD*
G04 #@! TA.AperFunction,SMDPad,CuDef*
%ADD23R,0.700000X0.600000*%
G04 #@! TD*
G04 #@! TA.AperFunction,SMDPad,CuDef*
%ADD24R,0.400000X0.600000*%
G04 #@! TD*
G04 #@! TA.AperFunction,SMDPad,CuDef*
%ADD25R,0.600000X0.400000*%
G04 #@! TD*
G04 #@! TA.AperFunction,ViaPad*
%ADD26C,0.500000*%
G04 #@! TD*
G04 #@! TA.AperFunction,Conductor*
%ADD27C,0.254000*%
G04 #@! TD*
G04 #@! TA.AperFunction,Conductor*
%ADD28C,0.500000*%
G04 #@! TD*
G04 #@! TA.AperFunction,Conductor*
%ADD29C,0.150000*%
G04 #@! TD*
G04 #@! TA.AperFunction,Conductor*
%ADD30C,0.300000*%
G04 #@! TD*
G04 #@! TA.AperFunction,Conductor*
%ADD31C,0.350000*%
G04 #@! TD*
G04 #@! TA.AperFunction,Conductor*
%ADD32C,0.250000*%
G04 #@! TD*
G04 APERTURE END LIST*
D10*
G04 #@! TO.P,J1,8*
G04 #@! TO.N,N/C*
X6999600Y2234450D03*
G04 #@! TO.P,J1,7*
X6999600Y-2266430D03*
D11*
G04 #@! TO.P,J1,4*
G04 #@! TO.N,/GND*
X4599020Y3484130D03*
G04 #@! TO.P,J1,1*
G04 #@! TO.N,/+5V*
X4599020Y-3516110D03*
G04 #@! TO.P,J1,3*
G04 #@! TO.N,/HD+*
X4599020Y1000010D03*
G04 #@! TO.P,J1,2*
G04 #@! TO.N,/HD-*
X4599020Y-1016750D03*
D12*
G04 #@! TO.P,J1,6*
G04 #@! TO.N,N/C*
X6999600Y-5715750D03*
G04 #@! TO.P,J1,5*
X6999600Y5683770D03*
G04 #@! TD*
D13*
G04 #@! TO.P,U2,1*
G04 #@! TO.N,Net-(R1-Pad2)*
X112500Y-4648300D03*
G04 #@! TO.P,U2,2*
G04 #@! TO.N,/GND*
X1062500Y-4648300D03*
G04 #@! TO.P,U2,3*
G04 #@! TO.N,Net-(R2-Pad2)*
X2012500Y-4648300D03*
G04 #@! TO.P,U2,4*
G04 #@! TO.N,/Button*
X2012500Y-6848300D03*
G04 #@! TO.P,U2,6*
G04 #@! TO.N,/Button_reset*
X112500Y-6848300D03*
G04 #@! TO.P,U2,5*
G04 #@! TO.N,/+5V*
X1062500Y-6848300D03*
G04 #@! TD*
D14*
G04 #@! TO.P,U4,1*
G04 #@! TO.N,N/C*
X-1442600Y7013300D03*
G04 #@! TO.P,U4,2*
X-942600Y7013300D03*
G04 #@! TO.P,U4,3*
X-442600Y7013300D03*
G04 #@! TO.P,U4,4*
G04 #@! TO.N,/GND*
X57400Y7013300D03*
G04 #@! TO.P,U4,5*
G04 #@! TO.N,/SDA*
X57400Y4213300D03*
G04 #@! TO.P,U4,6*
G04 #@! TO.N,/SCL*
X-442600Y4213300D03*
G04 #@! TO.P,U4,7*
G04 #@! TO.N,N/C*
X-942600Y4213300D03*
G04 #@! TO.P,U4,8*
G04 #@! TO.N,/+5V*
X-1442600Y4213300D03*
D15*
G04 #@! TO.P,U4,9*
G04 #@! TO.N,N/C*
X-97600Y5198300D03*
X-1287600Y5198300D03*
X-97600Y6028300D03*
X-1287600Y6028300D03*
G04 #@! TD*
D16*
G04 #@! TO.N,Net-(P1-Pad1)*
G04 #@! TO.C,P1*
X-6375000Y-453500D03*
G04 #@! TD*
D17*
G04 #@! TO.P,C2,1*
G04 #@! TO.N,/+5V*
X3015800Y-7370000D03*
G04 #@! TO.P,C2,2*
G04 #@! TO.N,/GND*
X3015800Y-6270000D03*
G04 #@! TD*
D18*
G04 #@! TO.P,U1,1*
G04 #@! TO.N,/Button*
X-540000Y1111500D03*
D19*
G04 #@! TO.P,U1,2*
G04 #@! TO.N,N/C*
X-40000Y1201500D03*
G04 #@! TO.P,U1,3*
G04 #@! TO.N,/GND*
X460000Y1201500D03*
G04 #@! TO.P,U1,4*
G04 #@! TO.N,/HD+*
X990000Y1201500D03*
G04 #@! TO.P,U1,5*
G04 #@! TO.N,/HD-*
X1460000Y1201500D03*
D18*
G04 #@! TO.P,U1,6*
G04 #@! TO.N,N/C*
X1990000Y1111500D03*
D20*
G04 #@! TO.P,U1,7*
G04 #@! TO.N,/+5V*
X2060000Y611500D03*
G04 #@! TO.P,U1,8*
X2060000Y111500D03*
G04 #@! TO.P,U1,9*
G04 #@! TO.N,/C2CK*
X2060000Y-418500D03*
G04 #@! TO.P,U1,10*
G04 #@! TO.N,/C2D*
X2060000Y-918500D03*
D18*
G04 #@! TO.P,U1,11*
G04 #@! TO.N,/SCL*
X1990000Y-1418500D03*
D19*
G04 #@! TO.P,U1,12*
G04 #@! TO.N,/GND*
X1490000Y-1488500D03*
G04 #@! TO.P,U1,13*
G04 #@! TO.N,/SDA*
X990000Y-1488500D03*
G04 #@! TO.P,U1,14*
G04 #@! TO.N,N/C*
X460000Y-1488500D03*
G04 #@! TO.P,U1,15*
G04 #@! TO.N,/Button_reset*
X-40000Y-1488500D03*
D18*
G04 #@! TO.P,U1,16*
G04 #@! TO.N,/LED*
X-540000Y-1418500D03*
D20*
G04 #@! TO.P,U1,17*
G04 #@! TO.N,/RX*
X-610000Y-918500D03*
G04 #@! TO.P,U1,18*
G04 #@! TO.N,/TX*
X-610000Y-418500D03*
G04 #@! TO.P,U1,19*
G04 #@! TO.N,N/C*
X-610000Y102500D03*
G04 #@! TO.P,U1,20*
X-610000Y611500D03*
D21*
G04 #@! TO.P,U1,21*
G04 #@! TO.N,/GND*
X725000Y-153500D03*
G04 #@! TD*
D22*
G04 #@! TO.P,U3,1*
G04 #@! TO.N,N/C*
X1779200Y6275200D03*
G04 #@! TO.P,U3,3*
G04 #@! TO.N,/+5V*
X2779200Y6275200D03*
G04 #@! TO.P,U3,5*
G04 #@! TO.N,/HD+*
X1779200Y4875200D03*
G04 #@! TO.P,U3,2*
G04 #@! TO.N,/GND*
X2279200Y6275200D03*
G04 #@! TO.P,U3,4*
G04 #@! TO.N,/HD-*
X2779200Y4875200D03*
G04 #@! TD*
D17*
G04 #@! TO.P,C3,1*
G04 #@! TO.N,/+5V*
X4285800Y-4809500D03*
G04 #@! TO.P,C3,2*
G04 #@! TO.N,/GND*
X4285800Y-5909500D03*
G04 #@! TD*
D23*
G04 #@! TO.P,D1,2*
G04 #@! TO.N,Net-(D1-Pad2)*
X-11375000Y-603500D03*
G04 #@! TO.P,D1,1*
G04 #@! TO.N,/LED*
X-11375000Y496500D03*
G04 #@! TD*
D24*
G04 #@! TO.P,R1,1*
G04 #@! TO.N,Net-(P1-Pad1)*
X-1706480Y-5090260D03*
G04 #@! TO.P,R1,2*
G04 #@! TO.N,Net-(R1-Pad2)*
X-806480Y-5090260D03*
G04 #@! TD*
D25*
G04 #@! TO.P,R2,1*
G04 #@! TO.N,/GND*
X3025960Y-5443740D03*
G04 #@! TO.P,R2,2*
G04 #@! TO.N,Net-(R2-Pad2)*
X3025960Y-4543740D03*
G04 #@! TD*
D24*
G04 #@! TO.P,R3,1*
G04 #@! TO.N,Net-(D1-Pad2)*
X-1701400Y-6159600D03*
G04 #@! TO.P,R3,2*
G04 #@! TO.N,/+5V*
X-801400Y-6159600D03*
G04 #@! TD*
D25*
G04 #@! TO.P,R4,1*
G04 #@! TO.N,/+5V*
X3041200Y101500D03*
G04 #@! TO.P,R4,2*
G04 #@! TO.N,/C2CK*
X3041200Y-798500D03*
G04 #@! TD*
G04 #@! TO.P,R5,1*
G04 #@! TO.N,/+5V*
X1707700Y-3617900D03*
G04 #@! TO.P,R5,2*
G04 #@! TO.N,/SDA*
X1707700Y-2717900D03*
G04 #@! TD*
G04 #@! TO.P,R7,1*
G04 #@! TO.N,/+5V*
X2774500Y-3617900D03*
G04 #@! TO.P,R7,2*
G04 #@! TO.N,/SCL*
X2774500Y-2717900D03*
G04 #@! TD*
D17*
G04 #@! TO.P,C4,1*
G04 #@! TO.N,/+5V*
X3127560Y1746060D03*
G04 #@! TO.P,C4,2*
G04 #@! TO.N,/GND*
X3127560Y2846060D03*
G04 #@! TD*
G04 #@! TO.P,C1,1*
G04 #@! TO.N,/+5V*
X-2445200Y5063300D03*
G04 #@! TO.P,C1,2*
G04 #@! TO.N,/GND*
X-2445200Y6163300D03*
G04 #@! TD*
D26*
G04 #@! TO.N,/+5V*
X8400600Y-3746600D03*
X3147880Y680620D03*
G04 #@! TO.N,/C2CK*
X7003602Y101500D03*
G04 #@! TO.N,/C2D*
X8235500Y-2654400D03*
G04 #@! TO.N,/HD+*
X1853305Y4089775D03*
X4278210Y2120800D03*
G04 #@! TO.N,/HD-*
X2529430Y4094134D03*
X3968300Y554D03*
G04 #@! TO.N,/Button*
X-552900Y1701700D03*
X583739Y-5572444D03*
G04 #@! TO.N,/SDA*
X642900Y4314514D03*
X1738210Y-2197192D03*
G04 #@! TO.N,/SCL*
X640376Y3640223D03*
X2418900Y-2171800D03*
G04 #@! TO.N,/LED*
X-1391100Y-4165700D03*
X-11614600Y1224180D03*
G04 #@! TO.N,/GND*
X3714300Y-5372200D03*
X-420330Y2338039D03*
X4044500Y5587900D03*
X7918000Y2832000D03*
X463100Y1981100D03*
X725000Y-153500D03*
X2343923Y-5918338D03*
G04 #@! TD*
D27*
G04 #@! TO.N,/+5V*
X3015800Y-7370000D02*
X3015800Y-7353400D01*
X3015800Y-7353400D02*
X3587300Y-6781900D01*
X4812801Y-6559699D02*
X4812801Y-5386501D01*
X3587300Y-6781900D02*
X4590600Y-6781900D01*
X4590600Y-6781900D02*
X4812801Y-6559699D01*
X4812801Y-5386501D02*
X4285800Y-4859500D01*
X4285800Y-4859500D02*
X4285800Y-4809500D01*
X3127560Y1746060D02*
X3098440Y1746060D01*
X3206201Y4428599D02*
X3206201Y5321801D01*
X3098440Y1746060D02*
X2600559Y2243941D01*
X2600559Y3369259D02*
X3206300Y3975000D01*
X2600559Y2243941D02*
X2600559Y3369259D01*
X3142800Y5384700D02*
X2926900Y5600600D01*
X3206300Y3975000D02*
X3206300Y4428500D01*
X3206300Y4428500D02*
X3206201Y4428599D01*
X3206201Y5321801D02*
X3150801Y5377201D01*
X2926900Y5600600D02*
X2783900Y5600600D01*
X3150801Y5377201D02*
X3142800Y5377201D01*
X3142800Y5377201D02*
X3142800Y5384700D01*
X2783900Y5600600D02*
X2779200Y5595900D01*
X-1442600Y4213300D02*
X-1442600Y3609300D01*
X-1442600Y3609300D02*
X-779600Y2946300D01*
X-779600Y2946300D02*
X818700Y2946300D01*
X818700Y2946300D02*
X1326303Y3453903D01*
X1326303Y3453903D02*
X1326303Y5206503D01*
X1326303Y5206503D02*
X1720400Y5600600D01*
X1720400Y5600600D02*
X2850700Y5600600D01*
X2850700Y5600600D02*
X2855400Y5595900D01*
X2855400Y5595900D02*
X2779200Y5595900D01*
D28*
X8047047Y-3746600D02*
X8400600Y-3746600D01*
X5129510Y-3746600D02*
X8047047Y-3746600D01*
X4899020Y-3516110D02*
X5129510Y-3746600D01*
D27*
X4285800Y-4809500D02*
X4285800Y-4129330D01*
X4285800Y-4129330D02*
X4899020Y-3516110D01*
D29*
X4899020Y-3516110D02*
X4681230Y-3733900D01*
X4681230Y-3733900D02*
X2912080Y-3733900D01*
X2912080Y-3733900D02*
X2904040Y-3741940D01*
X2904040Y-3741940D02*
X1893120Y-3741940D01*
D27*
X4888210Y-3505300D02*
X4899020Y-3516110D01*
X2779200Y5595900D02*
X2779200Y6275200D01*
D30*
X-2445200Y4863300D02*
X-2445200Y4813200D01*
X-2445200Y4813200D02*
X-1835600Y4203600D01*
X-1835600Y4203600D02*
X-1452300Y4203600D01*
X-1452300Y4203600D02*
X-1442600Y4213300D01*
D27*
X-2445200Y5063300D02*
X-2445200Y5113300D01*
X3203760Y38420D02*
X3203760Y624740D01*
X3203760Y624740D02*
X3147880Y680620D01*
X4025000Y-3553500D02*
X4062390Y-3516110D01*
X4062390Y-3516110D02*
X4899020Y-3516110D01*
X4185800Y-4909500D02*
X4285800Y-4809500D01*
X2060000Y111500D02*
X2060000Y346500D01*
X2060000Y346500D02*
X2060000Y611500D01*
X3015800Y-7370000D02*
X3015800Y-7520000D01*
X3130100Y698400D02*
X3147880Y680620D01*
X2647500Y698400D02*
X3130100Y698400D01*
X2556600Y611500D02*
X2558600Y609500D01*
X2558600Y609500D02*
X2647500Y698400D01*
X2060000Y611500D02*
X2556600Y611500D01*
X3130100Y1743520D02*
X3130100Y698400D01*
X3127560Y1746060D02*
X3130100Y1743520D01*
D29*
X2838840Y-3617900D02*
X2965000Y-3744060D01*
X2774500Y-3617900D02*
X2838840Y-3617900D01*
X-737900Y-6096100D02*
X-801400Y-6159600D01*
X-395302Y-6096100D02*
X-737900Y-6096100D01*
X-392501Y-6093299D02*
X-395302Y-6096100D01*
X617501Y-6093299D02*
X-392501Y-6093299D01*
X806000Y-6281798D02*
X617501Y-6093299D01*
X1060000Y-6784498D02*
X806000Y-6530498D01*
X806000Y-6530498D02*
X806000Y-6281798D01*
X1060000Y-7094500D02*
X1060000Y-6784498D01*
D27*
X1179200Y-7256700D02*
X1179200Y-7213700D01*
X1179200Y-7213700D02*
X1060000Y-7094500D01*
X3015800Y-7370000D02*
X2961100Y-7370000D01*
X1263200Y-7452602D02*
X1263200Y-7340700D01*
X1481498Y-7670900D02*
X1263200Y-7452602D01*
X1263200Y-7340700D02*
X1179200Y-7256700D01*
X2961100Y-7370000D02*
X2660200Y-7670900D01*
X2660200Y-7670900D02*
X1481498Y-7670900D01*
D29*
G04 #@! TO.N,/C2CK*
X2060000Y-418500D02*
X2621400Y-418500D01*
X2621400Y-418500D02*
X2883720Y-680820D01*
X2883720Y-680820D02*
X3023000Y-680820D01*
X3023000Y-680820D02*
X3203760Y-861580D01*
X2060000Y-418500D02*
X2128640Y-418500D01*
X5893911Y-2113089D02*
X7003602Y-1003398D01*
X3579389Y-2113089D02*
X5893911Y-2113089D01*
X7003602Y-1003398D02*
X7003602Y-252053D01*
X3203760Y-1737460D02*
X3579389Y-2113089D01*
X7003602Y-252053D02*
X7003602Y101500D01*
X3203760Y-861580D02*
X3203760Y-1737460D01*
G04 #@! TO.N,/C2D*
X2903749Y-1582249D02*
X2903749Y-1861728D01*
X2060000Y-918500D02*
X2240000Y-918500D01*
X2240000Y-918500D02*
X2903749Y-1582249D01*
X7985501Y-2904399D02*
X8235500Y-2654400D01*
X2903749Y-1861728D02*
X3551641Y-2509620D01*
X5981120Y-2509620D02*
X6633900Y-3162400D01*
X7727500Y-3162400D02*
X7985501Y-2904399D01*
X3551641Y-2509620D02*
X5981120Y-2509620D01*
X6633900Y-3162400D02*
X7727500Y-3162400D01*
G04 #@! TO.N,/HD+*
X990000Y2050800D02*
X1839489Y2900289D01*
X1839489Y4075959D02*
X1853305Y4089775D01*
X1779200Y4163880D02*
X1853305Y4089775D01*
X1839489Y2900289D02*
X1839489Y4075959D01*
X990000Y1201500D02*
X990000Y2050800D01*
X1779200Y4875200D02*
X1779200Y4163880D01*
D27*
X4899020Y1000010D02*
X4895830Y1003200D01*
X4349300Y1003200D02*
X4278210Y1074290D01*
X4278210Y1074290D02*
X4278210Y2120800D01*
X4895830Y1003200D02*
X4349300Y1003200D01*
D29*
G04 #@! TO.N,/HD-*
X1390200Y1981100D02*
X2139500Y2730400D01*
X1460000Y1201500D02*
X1390200Y1271300D01*
X2139500Y3704204D02*
X2529430Y4094134D01*
X1390200Y1271300D02*
X1390200Y1981100D01*
X2139500Y2730400D02*
X2139500Y3704204D01*
X2779200Y4875200D02*
X2558600Y4654600D01*
X2558600Y4654600D02*
X2558600Y4123304D01*
X2558600Y4123304D02*
X2529430Y4094134D01*
D27*
X4197550Y-1016750D02*
X3968300Y-787500D01*
X3968300Y-787500D02*
X3968300Y554D01*
X5175000Y-1016750D02*
X4197550Y-1016750D01*
D29*
G04 #@! TO.N,/Button*
X-540000Y1111500D02*
X-540000Y1688800D01*
X-540000Y1688800D02*
X-552900Y1701700D01*
X833738Y-5822443D02*
X583739Y-5572444D01*
X2010000Y-7094500D02*
X2010000Y-6271400D01*
X2010000Y-6271400D02*
X1771200Y-6032600D01*
X1771200Y-6032600D02*
X1043895Y-6032600D01*
X1043895Y-6032600D02*
X833738Y-5822443D01*
D27*
G04 #@! TO.N,Net-(P1-Pad1)*
X-1706480Y-5090260D02*
X-1977000Y-4851500D01*
X-1977000Y-4851500D02*
X-5925000Y-903500D01*
X-5925000Y-903500D02*
X-6375000Y-453500D01*
G04 #@! TO.N,Net-(R2-Pad2)*
X3025960Y-4543740D02*
X2360760Y-4543740D01*
X2360760Y-4543740D02*
X2010000Y-4894500D01*
D29*
G04 #@! TO.N,/SDA*
X642900Y4314514D02*
X158614Y4314514D01*
X158614Y4314514D02*
X57400Y4213300D01*
X990000Y-1488500D02*
X990000Y-1949400D01*
X990000Y-1949400D02*
X1237792Y-2197192D01*
X1237792Y-2197192D02*
X1738210Y-2197192D01*
X1738210Y-2197192D02*
X1738210Y-2687030D01*
X1738210Y-2687030D02*
X1893120Y-2841940D01*
G04 #@! TO.N,/SCL*
X-442600Y3713300D02*
X-119524Y3390224D01*
X-119524Y3390224D02*
X390377Y3390224D01*
X390377Y3390224D02*
X640376Y3640223D01*
X-442600Y4213300D02*
X-442600Y3713300D01*
X2168901Y-1921801D02*
X2418900Y-2171800D01*
X1990000Y-1742900D02*
X2168901Y-1921801D01*
X1990000Y-1418500D02*
X1990000Y-1742900D01*
X2873140Y-2841940D02*
X2904040Y-2841940D01*
X2634800Y-2603600D02*
X2873140Y-2841940D01*
X2545900Y-2298800D02*
X2545900Y-2603600D01*
X2545900Y-2603600D02*
X2634800Y-2603600D01*
X2418900Y-2171800D02*
X2545900Y-2298800D01*
G04 #@! TO.N,Net-(D1-Pad2)*
X-11375000Y-603500D02*
X-11379800Y-603500D01*
X-2419800Y-7785200D02*
X-1701400Y-7066800D01*
X-1701400Y-7066800D02*
X-1701400Y-6159600D01*
X-11379800Y-603500D02*
X-11627300Y-851000D01*
X-11627300Y-851000D02*
X-11627300Y-6693000D01*
X-11627300Y-6693000D02*
X-10535100Y-7785200D01*
X-10535100Y-7785200D02*
X-2419800Y-7785200D01*
G04 #@! TO.N,/LED*
X-540000Y-1418500D02*
X-540000Y-3314600D01*
X-540000Y-3314600D02*
X-1391100Y-4165700D01*
X-11375000Y984580D02*
X-11614600Y1224180D01*
X-11375000Y496500D02*
X-11375000Y984580D01*
D27*
G04 #@! TO.N,Net-(R1-Pad2)*
X110000Y-4894500D02*
X-88300Y-5092800D01*
X-88300Y-5092800D02*
X-803940Y-5092800D01*
X-803940Y-5092800D02*
X-806480Y-5090260D01*
D28*
X102200Y-4902300D02*
X110000Y-4894500D01*
G04 #@! TO.N,/GND*
X3127560Y2846060D02*
X3127560Y3146960D01*
X3127560Y3146960D02*
X3371400Y3390800D01*
X3371400Y3390800D02*
X4805690Y3390800D01*
X4805690Y3390800D02*
X4899020Y3484130D01*
D27*
X3025960Y-5443740D02*
X3028500Y-5446280D01*
X3028500Y-5446280D02*
X3028500Y-6257300D01*
X3028500Y-6257300D02*
X3015800Y-6270000D01*
X3015800Y-6270000D02*
X3476900Y-6270000D01*
X3476900Y-6270000D02*
X3841300Y-5905600D01*
X3841300Y-5905600D02*
X4281900Y-5905600D01*
X4281900Y-5905600D02*
X4285800Y-5909500D01*
D31*
X2825300Y7188100D02*
X2393500Y7188100D01*
X2393500Y7188100D02*
X2304199Y7277401D01*
X2279200Y6275200D02*
X2304199Y6300199D01*
X2304199Y6300199D02*
X2304199Y7277401D01*
X2304199Y7277401D02*
X1885500Y7696100D01*
X1885500Y7696100D02*
X-6800Y7696100D01*
X4849530Y5587900D02*
X4849530Y5709970D01*
X4849530Y5709970D02*
X4095300Y6464200D01*
X4095300Y6464200D02*
X3550202Y6464200D01*
X3550202Y6464200D02*
X3189201Y6825201D01*
X3189201Y6825201D02*
X3188199Y6825201D01*
X3188199Y6825201D02*
X2825300Y7188100D01*
X57400Y7013300D02*
X57400Y7631900D01*
X-6800Y7696100D02*
X-1899100Y7696100D01*
X57400Y7631900D02*
X-6800Y7696100D01*
X-1899100Y7696100D02*
X-2445200Y7150000D01*
X-2445200Y7150000D02*
X-2445200Y6163300D01*
D32*
X1490000Y-1488500D02*
X1490000Y-1348100D01*
X1490000Y-1348100D02*
X1491800Y-1346300D01*
X1491800Y-1095999D02*
X1352100Y-956299D01*
X1491800Y-1346300D02*
X1491800Y-1095999D01*
X1352100Y-956299D02*
X1352100Y-780600D01*
X1352100Y-780600D02*
X725000Y-153500D01*
D29*
X3547500Y-5372200D02*
X3714300Y-5372200D01*
X3025960Y-5443740D02*
X3475960Y-5443740D01*
X3475960Y-5443740D02*
X3547500Y-5372200D01*
X463100Y1981100D02*
X-95700Y1981100D01*
X-420330Y2305730D02*
X-420330Y2338039D01*
X-95700Y1981100D02*
X-420330Y2305730D01*
X4849530Y5587900D02*
X4044500Y5587900D01*
D28*
X4849530Y5207185D02*
X4849530Y5587900D01*
X4899020Y3484130D02*
X4899020Y5157695D01*
X4899020Y5157695D02*
X4849530Y5207185D01*
X7668001Y3081999D02*
X7918000Y2832000D01*
X7265870Y3484130D02*
X7668001Y3081999D01*
X4899020Y3484130D02*
X7265870Y3484130D01*
D27*
X463100Y1763600D02*
X463100Y1981100D01*
X460000Y1201500D02*
X460000Y1760500D01*
X460000Y1760500D02*
X463100Y1763600D01*
X3015800Y-6270000D02*
X3015800Y-6146900D01*
X3015800Y-6146900D02*
X3079300Y-6083400D01*
D32*
X460000Y1201500D02*
X460000Y111500D01*
D29*
X460000Y111500D02*
X725000Y-153500D01*
D27*
X3015800Y-6270000D02*
X2695585Y-6270000D01*
X2695585Y-6270000D02*
X2593922Y-6168337D01*
X2593922Y-6168337D02*
X2343923Y-5918338D01*
X2093924Y-5668339D02*
X2343923Y-5918338D01*
X1915674Y-5490089D02*
X2093924Y-5668339D01*
X1203289Y-5490089D02*
X1915674Y-5490089D01*
X1060000Y-5346800D02*
X1203289Y-5490089D01*
X1060000Y-4894500D02*
X1060000Y-5346800D01*
D29*
G04 #@! TO.N,/Button_reset*
X110000Y-7094500D02*
X-761000Y-7094500D01*
X-761000Y-7094500D02*
X-1231481Y-6624019D01*
X-1231481Y-6624019D02*
X-1231481Y-4683685D01*
X-1231481Y-4683685D02*
X-40000Y-3492204D01*
X-40000Y-3492204D02*
X-40000Y-1668500D01*
X-40000Y-1668500D02*
X-40000Y-1488500D01*
D28*
X110000Y-7094500D02*
X102200Y-7086700D01*
D27*
X110000Y-7094500D02*
X110000Y-6844500D01*
G04 #@! TD*
D29*
G04 #@! TO.N,/GND*
G36*
X3375470Y7109982D02*
X3374142Y7096500D01*
X3379443Y7042683D01*
X3395140Y6990934D01*
X3420632Y6943242D01*
X3454939Y6901439D01*
X3496742Y6867132D01*
X3544434Y6841640D01*
X3596183Y6825943D01*
X3650000Y6820642D01*
X3663482Y6821970D01*
X4336518Y6821970D01*
X4350000Y6820642D01*
X4363482Y6821970D01*
X4403817Y6825943D01*
X4455566Y6841640D01*
X4503258Y6867132D01*
X4545061Y6901439D01*
X4579368Y6943242D01*
X4604860Y6990934D01*
X4620557Y7042683D01*
X4625858Y7096500D01*
X4624530Y7109982D01*
X4624530Y7846970D01*
X9225071Y7846970D01*
X9225070Y-7878970D01*
X4624530Y-7878970D01*
X4624530Y-7132261D01*
X4659604Y-7128807D01*
X4725956Y-7108679D01*
X4787107Y-7075993D01*
X4840706Y-7032006D01*
X4851734Y-7018568D01*
X5049478Y-6820825D01*
X5062906Y-6809805D01*
X5073927Y-6796376D01*
X5073930Y-6796373D01*
X5106894Y-6756206D01*
X5139580Y-6695056D01*
X5147642Y-6668478D01*
X5159708Y-6628703D01*
X5164801Y-6576991D01*
X5164801Y-6576988D01*
X5166504Y-6559699D01*
X5164801Y-6542410D01*
X5164801Y-6222526D01*
X5185029Y-6260370D01*
X5306940Y-6408920D01*
X5455490Y-6530831D01*
X5624969Y-6621420D01*
X5808865Y-6677204D01*
X5952187Y-6691320D01*
X8047013Y-6691320D01*
X8190335Y-6677204D01*
X8374231Y-6621420D01*
X8543710Y-6530831D01*
X8692260Y-6408920D01*
X8814171Y-6260370D01*
X8904760Y-6090891D01*
X8960544Y-5906995D01*
X8979380Y-5715750D01*
X8960544Y-5524505D01*
X8904760Y-5340609D01*
X8814171Y-5171130D01*
X8692260Y-5022580D01*
X8543710Y-4900669D01*
X8374231Y-4810080D01*
X8190335Y-4754296D01*
X8047013Y-4740180D01*
X5952187Y-4740180D01*
X5808865Y-4754296D01*
X5624969Y-4810080D01*
X5455490Y-4900669D01*
X5306940Y-5022580D01*
X5185029Y-5171130D01*
X5140550Y-5254343D01*
X5139580Y-5251145D01*
X5115121Y-5205385D01*
X5106894Y-5189993D01*
X5073929Y-5149826D01*
X5062907Y-5136395D01*
X5049474Y-5125371D01*
X4761888Y-4837786D01*
X4761888Y-4509500D01*
X4757544Y-4465392D01*
X4744678Y-4422980D01*
X4723785Y-4383892D01*
X4695668Y-4349632D01*
X4685927Y-4341638D01*
X5598510Y-4341638D01*
X5642618Y-4337294D01*
X5685030Y-4324428D01*
X5724118Y-4303535D01*
X5758378Y-4275418D01*
X5786495Y-4241158D01*
X5796949Y-4221600D01*
X8447383Y-4221600D01*
X8470383Y-4217025D01*
X8493716Y-4214727D01*
X8516153Y-4207921D01*
X8539152Y-4203346D01*
X8560815Y-4194373D01*
X8583254Y-4187566D01*
X8603936Y-4176511D01*
X8625597Y-4167539D01*
X8645090Y-4154514D01*
X8665773Y-4143459D01*
X8683903Y-4128580D01*
X8703395Y-4115556D01*
X8719972Y-4098979D01*
X8738101Y-4084101D01*
X8752979Y-4065972D01*
X8769556Y-4049395D01*
X8782580Y-4029903D01*
X8797459Y-4011773D01*
X8808514Y-3991090D01*
X8821539Y-3971597D01*
X8830511Y-3949936D01*
X8841566Y-3929254D01*
X8848373Y-3906815D01*
X8857346Y-3885152D01*
X8861921Y-3862153D01*
X8868727Y-3839716D01*
X8871025Y-3816382D01*
X8875600Y-3793383D01*
X8875600Y-3769932D01*
X8877898Y-3746600D01*
X8875600Y-3723268D01*
X8875600Y-3699817D01*
X8871025Y-3676818D01*
X8868727Y-3653484D01*
X8861921Y-3631047D01*
X8857346Y-3608048D01*
X8848373Y-3586385D01*
X8841566Y-3563946D01*
X8830511Y-3543264D01*
X8821539Y-3521603D01*
X8808514Y-3502110D01*
X8797459Y-3481427D01*
X8782580Y-3463297D01*
X8769556Y-3443805D01*
X8752979Y-3427228D01*
X8738101Y-3409099D01*
X8719972Y-3394221D01*
X8703395Y-3377644D01*
X8683903Y-3364620D01*
X8665773Y-3349741D01*
X8645090Y-3338686D01*
X8625597Y-3325661D01*
X8603936Y-3316689D01*
X8583254Y-3305634D01*
X8560815Y-3298827D01*
X8539152Y-3289854D01*
X8516153Y-3285279D01*
X8493716Y-3278473D01*
X8470383Y-3276175D01*
X8447383Y-3271600D01*
X8042563Y-3271600D01*
X8185420Y-3128744D01*
X8188717Y-3129400D01*
X8282283Y-3129400D01*
X8374052Y-3111146D01*
X8460497Y-3075339D01*
X8538295Y-3023356D01*
X8604456Y-2957195D01*
X8656439Y-2879397D01*
X8692246Y-2792952D01*
X8710500Y-2701183D01*
X8710500Y-2607617D01*
X8692246Y-2515848D01*
X8656439Y-2429403D01*
X8604456Y-2351605D01*
X8538295Y-2285444D01*
X8460497Y-2233461D01*
X8374052Y-2197654D01*
X8282283Y-2179400D01*
X8188717Y-2179400D01*
X8096948Y-2197654D01*
X8010503Y-2233461D01*
X7932705Y-2285444D01*
X7866544Y-2351605D01*
X7814561Y-2429403D01*
X7778754Y-2515848D01*
X7760500Y-2607617D01*
X7760500Y-2701183D01*
X7761156Y-2704480D01*
X7603237Y-2862400D01*
X7499518Y-2862400D01*
X7601512Y-2760406D01*
X7686316Y-2633487D01*
X7744730Y-2492463D01*
X7774510Y-2342752D01*
X7774510Y-2190108D01*
X7744730Y-2040397D01*
X7686316Y-1899373D01*
X7601512Y-1772454D01*
X7493576Y-1664518D01*
X7366657Y-1579714D01*
X7225633Y-1521300D01*
X7075922Y-1491520D01*
X6939744Y-1491520D01*
X7205318Y-1225945D01*
X7216760Y-1216556D01*
X7226743Y-1204392D01*
X7254249Y-1170876D01*
X7276317Y-1129588D01*
X7282106Y-1118758D01*
X7299261Y-1062208D01*
X7303602Y-1018131D01*
X7303602Y-1018122D01*
X7305052Y-1003399D01*
X7303602Y-988676D01*
X7303602Y-269324D01*
X7306397Y-267456D01*
X7372558Y-201295D01*
X7424541Y-123497D01*
X7460348Y-37052D01*
X7478602Y54717D01*
X7478602Y148283D01*
X7460348Y240052D01*
X7424541Y326497D01*
X7372558Y404295D01*
X7306397Y470456D01*
X7228599Y522439D01*
X7142154Y558246D01*
X7050385Y576500D01*
X6956819Y576500D01*
X6865050Y558246D01*
X6778605Y522439D01*
X6700807Y470456D01*
X6634646Y404295D01*
X6582663Y326497D01*
X6546856Y240052D01*
X6528602Y148283D01*
X6528602Y54717D01*
X6546856Y-37052D01*
X6582663Y-123497D01*
X6634646Y-201295D01*
X6700807Y-267456D01*
X6703603Y-269324D01*
X6703602Y-879134D01*
X5769648Y-1813089D01*
X5707441Y-1813089D01*
X5724118Y-1804175D01*
X5758378Y-1776058D01*
X5786495Y-1741798D01*
X5807388Y-1702710D01*
X5820254Y-1660298D01*
X5824598Y-1616190D01*
X5824598Y-417310D01*
X5820254Y-373202D01*
X5807388Y-330790D01*
X5786495Y-291702D01*
X5758378Y-257442D01*
X5724118Y-229325D01*
X5685030Y-208432D01*
X5642618Y-195566D01*
X5598510Y-191222D01*
X4403000Y-191222D01*
X4425046Y-137998D01*
X4443300Y-46229D01*
X4443300Y47337D01*
X4425046Y139106D01*
X4410393Y174482D01*
X5598510Y174482D01*
X5642618Y178826D01*
X5685030Y191692D01*
X5724118Y212585D01*
X5758378Y240702D01*
X5786495Y274962D01*
X5807388Y314050D01*
X5820254Y356462D01*
X5824598Y400570D01*
X5824598Y1599450D01*
X5820254Y1643558D01*
X5807388Y1685970D01*
X5786495Y1725058D01*
X5758378Y1759318D01*
X5724118Y1787435D01*
X5685030Y1808328D01*
X5642618Y1821194D01*
X5598510Y1825538D01*
X4652199Y1825538D01*
X4699149Y1895803D01*
X4734956Y1982248D01*
X4753210Y2074017D01*
X4753210Y2167583D01*
X4734956Y2259352D01*
X4713657Y2310772D01*
X6224690Y2310772D01*
X6224690Y2158128D01*
X6254470Y2008417D01*
X6312884Y1867393D01*
X6397688Y1740474D01*
X6505624Y1632538D01*
X6632543Y1547734D01*
X6773567Y1489320D01*
X6923278Y1459540D01*
X7075922Y1459540D01*
X7225633Y1489320D01*
X7366657Y1547734D01*
X7493576Y1632538D01*
X7601512Y1740474D01*
X7686316Y1867393D01*
X7744730Y2008417D01*
X7774510Y2158128D01*
X7774510Y2310772D01*
X7744730Y2460483D01*
X7686316Y2601507D01*
X7601512Y2728426D01*
X7493576Y2836362D01*
X7366657Y2921166D01*
X7225633Y2979580D01*
X7075922Y3009360D01*
X6923278Y3009360D01*
X6773567Y2979580D01*
X6632543Y2921166D01*
X6505624Y2836362D01*
X6397688Y2728426D01*
X6312884Y2601507D01*
X6254470Y2460483D01*
X6224690Y2310772D01*
X4713657Y2310772D01*
X4699149Y2345797D01*
X4647166Y2423595D01*
X4581005Y2489756D01*
X4503207Y2541739D01*
X4416762Y2577546D01*
X4324993Y2595800D01*
X4231427Y2595800D01*
X4139658Y2577546D01*
X4053213Y2541739D01*
X3975415Y2489756D01*
X3909254Y2423595D01*
X3857271Y2345797D01*
X3821464Y2259352D01*
X3803210Y2167583D01*
X3803210Y2074017D01*
X3821464Y1982248D01*
X3857271Y1895803D01*
X3904221Y1825538D01*
X3603648Y1825538D01*
X3603648Y2046060D01*
X3599304Y2090168D01*
X3586438Y2132580D01*
X3565545Y2171668D01*
X3537428Y2205928D01*
X3503168Y2234045D01*
X3464080Y2254938D01*
X3421668Y2267804D01*
X3388607Y2271060D01*
X3404645Y2271060D01*
X3457775Y2281628D01*
X3507821Y2302358D01*
X3552862Y2332454D01*
X3591167Y2370758D01*
X3621262Y2415799D01*
X3641992Y2465846D01*
X3652560Y2518975D01*
X3652560Y2609690D01*
X4445270Y2609690D01*
X4514020Y2678440D01*
X4514020Y3399130D01*
X4684020Y3399130D01*
X4684020Y2678440D01*
X4752770Y2609690D01*
X5625595Y2609690D01*
X5678724Y2620258D01*
X5728771Y2640988D01*
X5773812Y2671083D01*
X5812116Y2709388D01*
X5842212Y2754429D01*
X5862942Y2804475D01*
X5873510Y2857605D01*
X5873510Y3330380D01*
X5804760Y3399130D01*
X4684020Y3399130D01*
X4514020Y3399130D01*
X3485205Y3399130D01*
X3457775Y3410492D01*
X3404645Y3421060D01*
X3281310Y3421060D01*
X3212562Y3352312D01*
X3212562Y3421060D01*
X3150162Y3421060D01*
X3345756Y3616654D01*
X3393280Y3569130D01*
X4514020Y3569130D01*
X4514020Y4289820D01*
X4684020Y4289820D01*
X4684020Y3569130D01*
X5804760Y3569130D01*
X5873510Y3637880D01*
X5873510Y4110655D01*
X5862942Y4163785D01*
X5842212Y4213831D01*
X5812116Y4258872D01*
X5773812Y4297177D01*
X5728771Y4327272D01*
X5678724Y4348002D01*
X5625595Y4358570D01*
X4752770Y4358570D01*
X4684020Y4289820D01*
X4514020Y4289820D01*
X4445270Y4358570D01*
X3572445Y4358570D01*
X3558300Y4355756D01*
X3558300Y4411212D01*
X3560003Y4428501D01*
X3558300Y4445792D01*
X3558201Y4446797D01*
X3558201Y5304521D01*
X3559903Y5321802D01*
X3558201Y5339083D01*
X3558201Y5339093D01*
X3553108Y5390805D01*
X3532980Y5457157D01*
X3500294Y5518308D01*
X3456307Y5571907D01*
X3442868Y5582936D01*
X3411936Y5613868D01*
X3400907Y5627307D01*
X3395248Y5631951D01*
X3392906Y5634805D01*
X3379476Y5645826D01*
X3341532Y5683770D01*
X5019820Y5683770D01*
X5038656Y5492525D01*
X5094440Y5308629D01*
X5185029Y5139150D01*
X5306940Y4990600D01*
X5455490Y4868689D01*
X5624969Y4778100D01*
X5808865Y4722316D01*
X5952187Y4708200D01*
X8047013Y4708200D01*
X8190335Y4722316D01*
X8374231Y4778100D01*
X8543710Y4868689D01*
X8692260Y4990600D01*
X8814171Y5139150D01*
X8904760Y5308629D01*
X8960544Y5492525D01*
X8979380Y5683770D01*
X8960544Y5875015D01*
X8904760Y6058911D01*
X8814171Y6228390D01*
X8692260Y6376940D01*
X8543710Y6498851D01*
X8374231Y6589440D01*
X8190335Y6645224D01*
X8047013Y6659340D01*
X5952187Y6659340D01*
X5808865Y6645224D01*
X5624969Y6589440D01*
X5455490Y6498851D01*
X5306940Y6376940D01*
X5185029Y6228390D01*
X5094440Y6058911D01*
X5038656Y5875015D01*
X5019820Y5683770D01*
X3341532Y5683770D01*
X3188034Y5837268D01*
X3177006Y5850706D01*
X3131200Y5888298D01*
X3131200Y5950812D01*
X3138078Y5963680D01*
X3150944Y6006092D01*
X3155288Y6050200D01*
X3155288Y6500200D01*
X3150944Y6544308D01*
X3138078Y6586720D01*
X3117185Y6625808D01*
X3089068Y6660068D01*
X3054808Y6688185D01*
X3015720Y6709078D01*
X2973308Y6721944D01*
X2929200Y6726288D01*
X2629200Y6726288D01*
X2591394Y6722565D01*
X2559461Y6743902D01*
X2509415Y6764632D01*
X2456285Y6775200D01*
X2422950Y6775200D01*
X2354200Y6706450D01*
X2354200Y6360200D01*
X2384200Y6360200D01*
X2384200Y6190200D01*
X2354200Y6190200D01*
X2354200Y6170200D01*
X2204200Y6170200D01*
X2204200Y6190200D01*
X2174200Y6190200D01*
X2174200Y6360200D01*
X2204200Y6360200D01*
X2204200Y6706450D01*
X2135450Y6775200D01*
X2102115Y6775200D01*
X2048985Y6764632D01*
X1998939Y6743902D01*
X1967006Y6722565D01*
X1929200Y6726288D01*
X1629200Y6726288D01*
X1585092Y6721944D01*
X1542680Y6709078D01*
X1503592Y6688185D01*
X1469332Y6660068D01*
X1441215Y6625808D01*
X1420322Y6586720D01*
X1407456Y6544308D01*
X1403112Y6500200D01*
X1403112Y6050200D01*
X1407456Y6006092D01*
X1420322Y5963680D01*
X1441215Y5924592D01*
X1469332Y5890332D01*
X1493955Y5870124D01*
X1470294Y5850706D01*
X1459270Y5837272D01*
X1089631Y5467633D01*
X1076198Y5456609D01*
X1065175Y5443177D01*
X1032210Y5403010D01*
X999525Y5341859D01*
X979397Y5275506D01*
X972600Y5206503D01*
X974304Y5189204D01*
X974304Y4654861D01*
X945695Y4683470D01*
X867897Y4735453D01*
X781452Y4771260D01*
X723439Y4782800D01*
X723488Y4783300D01*
X723488Y6443300D01*
X719144Y6487408D01*
X706278Y6529820D01*
X685385Y6568908D01*
X657268Y6603168D01*
X623008Y6631285D01*
X583920Y6652178D01*
X541508Y6665044D01*
X497400Y6669388D01*
X457400Y6669388D01*
X457400Y6859550D01*
X388650Y6928300D01*
X119900Y6928300D01*
X119900Y6908300D01*
X-5100Y6908300D01*
X-5100Y6928300D01*
X-47600Y6928300D01*
X-47600Y7098300D01*
X-5100Y7098300D01*
X-5100Y7569550D01*
X119900Y7569550D01*
X119900Y7098300D01*
X388650Y7098300D01*
X457400Y7167050D01*
X457400Y7390385D01*
X446832Y7443514D01*
X426102Y7493561D01*
X396007Y7538602D01*
X357702Y7576906D01*
X312661Y7607002D01*
X262615Y7627732D01*
X209485Y7638300D01*
X188650Y7638300D01*
X119900Y7569550D01*
X-5100Y7569550D01*
X-73850Y7638300D01*
X-94685Y7638300D01*
X-147815Y7627732D01*
X-197861Y7607002D01*
X-242902Y7576906D01*
X-243778Y7576030D01*
X-273492Y7585044D01*
X-317600Y7589388D01*
X-567600Y7589388D01*
X-611708Y7585044D01*
X-654120Y7572178D01*
X-692600Y7551610D01*
X-731080Y7572178D01*
X-773492Y7585044D01*
X-817600Y7589388D01*
X-1067600Y7589388D01*
X-1111708Y7585044D01*
X-1154120Y7572178D01*
X-1192600Y7551610D01*
X-1231080Y7572178D01*
X-1273492Y7585044D01*
X-1317600Y7589388D01*
X-1567600Y7589388D01*
X-1611708Y7585044D01*
X-1654120Y7572178D01*
X-1693208Y7551285D01*
X-1727468Y7523168D01*
X-1755585Y7488908D01*
X-1776478Y7449820D01*
X-1789344Y7407408D01*
X-1793688Y7363300D01*
X-1793688Y6669388D01*
X-1882600Y6669388D01*
X-1926708Y6665044D01*
X-1969120Y6652178D01*
X-1986096Y6643104D01*
X-2019898Y6676906D01*
X-2064939Y6707002D01*
X-2114985Y6727732D01*
X-2168115Y6738300D01*
X-2291450Y6738300D01*
X-2360200Y6669550D01*
X-2360200Y6248300D01*
X-2340200Y6248300D01*
X-2340200Y6078300D01*
X-2360200Y6078300D01*
X-2360200Y6058300D01*
X-2530200Y6058300D01*
X-2530200Y6078300D01*
X-2550200Y6078300D01*
X-2550200Y6248300D01*
X-2530200Y6248300D01*
X-2530200Y6669550D01*
X-2598950Y6738300D01*
X-2722285Y6738300D01*
X-2738500Y6735075D01*
X-2738500Y7846970D01*
X3375471Y7846970D01*
X3375470Y7109982D01*
X3375470Y7109982D01*
G37*
X3375470Y7109982D02*
X3374142Y7096500D01*
X3379443Y7042683D01*
X3395140Y6990934D01*
X3420632Y6943242D01*
X3454939Y6901439D01*
X3496742Y6867132D01*
X3544434Y6841640D01*
X3596183Y6825943D01*
X3650000Y6820642D01*
X3663482Y6821970D01*
X4336518Y6821970D01*
X4350000Y6820642D01*
X4363482Y6821970D01*
X4403817Y6825943D01*
X4455566Y6841640D01*
X4503258Y6867132D01*
X4545061Y6901439D01*
X4579368Y6943242D01*
X4604860Y6990934D01*
X4620557Y7042683D01*
X4625858Y7096500D01*
X4624530Y7109982D01*
X4624530Y7846970D01*
X9225071Y7846970D01*
X9225070Y-7878970D01*
X4624530Y-7878970D01*
X4624530Y-7132261D01*
X4659604Y-7128807D01*
X4725956Y-7108679D01*
X4787107Y-7075993D01*
X4840706Y-7032006D01*
X4851734Y-7018568D01*
X5049478Y-6820825D01*
X5062906Y-6809805D01*
X5073927Y-6796376D01*
X5073930Y-6796373D01*
X5106894Y-6756206D01*
X5139580Y-6695056D01*
X5147642Y-6668478D01*
X5159708Y-6628703D01*
X5164801Y-6576991D01*
X5164801Y-6576988D01*
X5166504Y-6559699D01*
X5164801Y-6542410D01*
X5164801Y-6222526D01*
X5185029Y-6260370D01*
X5306940Y-6408920D01*
X5455490Y-6530831D01*
X5624969Y-6621420D01*
X5808865Y-6677204D01*
X5952187Y-6691320D01*
X8047013Y-6691320D01*
X8190335Y-6677204D01*
X8374231Y-6621420D01*
X8543710Y-6530831D01*
X8692260Y-6408920D01*
X8814171Y-6260370D01*
X8904760Y-6090891D01*
X8960544Y-5906995D01*
X8979380Y-5715750D01*
X8960544Y-5524505D01*
X8904760Y-5340609D01*
X8814171Y-5171130D01*
X8692260Y-5022580D01*
X8543710Y-4900669D01*
X8374231Y-4810080D01*
X8190335Y-4754296D01*
X8047013Y-4740180D01*
X5952187Y-4740180D01*
X5808865Y-4754296D01*
X5624969Y-4810080D01*
X5455490Y-4900669D01*
X5306940Y-5022580D01*
X5185029Y-5171130D01*
X5140550Y-5254343D01*
X5139580Y-5251145D01*
X5115121Y-5205385D01*
X5106894Y-5189993D01*
X5073929Y-5149826D01*
X5062907Y-5136395D01*
X5049474Y-5125371D01*
X4761888Y-4837786D01*
X4761888Y-4509500D01*
X4757544Y-4465392D01*
X4744678Y-4422980D01*
X4723785Y-4383892D01*
X4695668Y-4349632D01*
X4685927Y-4341638D01*
X5598510Y-4341638D01*
X5642618Y-4337294D01*
X5685030Y-4324428D01*
X5724118Y-4303535D01*
X5758378Y-4275418D01*
X5786495Y-4241158D01*
X5796949Y-4221600D01*
X8447383Y-4221600D01*
X8470383Y-4217025D01*
X8493716Y-4214727D01*
X8516153Y-4207921D01*
X8539152Y-4203346D01*
X8560815Y-4194373D01*
X8583254Y-4187566D01*
X8603936Y-4176511D01*
X8625597Y-4167539D01*
X8645090Y-4154514D01*
X8665773Y-4143459D01*
X8683903Y-4128580D01*
X8703395Y-4115556D01*
X8719972Y-4098979D01*
X8738101Y-4084101D01*
X8752979Y-4065972D01*
X8769556Y-4049395D01*
X8782580Y-4029903D01*
X8797459Y-4011773D01*
X8808514Y-3991090D01*
X8821539Y-3971597D01*
X8830511Y-3949936D01*
X8841566Y-3929254D01*
X8848373Y-3906815D01*
X8857346Y-3885152D01*
X8861921Y-3862153D01*
X8868727Y-3839716D01*
X8871025Y-3816382D01*
X8875600Y-3793383D01*
X8875600Y-3769932D01*
X8877898Y-3746600D01*
X8875600Y-3723268D01*
X8875600Y-3699817D01*
X8871025Y-3676818D01*
X8868727Y-3653484D01*
X8861921Y-3631047D01*
X8857346Y-3608048D01*
X8848373Y-3586385D01*
X8841566Y-3563946D01*
X8830511Y-3543264D01*
X8821539Y-3521603D01*
X8808514Y-3502110D01*
X8797459Y-3481427D01*
X8782580Y-3463297D01*
X8769556Y-3443805D01*
X8752979Y-3427228D01*
X8738101Y-3409099D01*
X8719972Y-3394221D01*
X8703395Y-3377644D01*
X8683903Y-3364620D01*
X8665773Y-3349741D01*
X8645090Y-3338686D01*
X8625597Y-3325661D01*
X8603936Y-3316689D01*
X8583254Y-3305634D01*
X8560815Y-3298827D01*
X8539152Y-3289854D01*
X8516153Y-3285279D01*
X8493716Y-3278473D01*
X8470383Y-3276175D01*
X8447383Y-3271600D01*
X8042563Y-3271600D01*
X8185420Y-3128744D01*
X8188717Y-3129400D01*
X8282283Y-3129400D01*
X8374052Y-3111146D01*
X8460497Y-3075339D01*
X8538295Y-3023356D01*
X8604456Y-2957195D01*
X8656439Y-2879397D01*
X8692246Y-2792952D01*
X8710500Y-2701183D01*
X8710500Y-2607617D01*
X8692246Y-2515848D01*
X8656439Y-2429403D01*
X8604456Y-2351605D01*
X8538295Y-2285444D01*
X8460497Y-2233461D01*
X8374052Y-2197654D01*
X8282283Y-2179400D01*
X8188717Y-2179400D01*
X8096948Y-2197654D01*
X8010503Y-2233461D01*
X7932705Y-2285444D01*
X7866544Y-2351605D01*
X7814561Y-2429403D01*
X7778754Y-2515848D01*
X7760500Y-2607617D01*
X7760500Y-2701183D01*
X7761156Y-2704480D01*
X7603237Y-2862400D01*
X7499518Y-2862400D01*
X7601512Y-2760406D01*
X7686316Y-2633487D01*
X7744730Y-2492463D01*
X7774510Y-2342752D01*
X7774510Y-2190108D01*
X7744730Y-2040397D01*
X7686316Y-1899373D01*
X7601512Y-1772454D01*
X7493576Y-1664518D01*
X7366657Y-1579714D01*
X7225633Y-1521300D01*
X7075922Y-1491520D01*
X6939744Y-1491520D01*
X7205318Y-1225945D01*
X7216760Y-1216556D01*
X7226743Y-1204392D01*
X7254249Y-1170876D01*
X7276317Y-1129588D01*
X7282106Y-1118758D01*
X7299261Y-1062208D01*
X7303602Y-1018131D01*
X7303602Y-1018122D01*
X7305052Y-1003399D01*
X7303602Y-988676D01*
X7303602Y-269324D01*
X7306397Y-267456D01*
X7372558Y-201295D01*
X7424541Y-123497D01*
X7460348Y-37052D01*
X7478602Y54717D01*
X7478602Y148283D01*
X7460348Y240052D01*
X7424541Y326497D01*
X7372558Y404295D01*
X7306397Y470456D01*
X7228599Y522439D01*
X7142154Y558246D01*
X7050385Y576500D01*
X6956819Y576500D01*
X6865050Y558246D01*
X6778605Y522439D01*
X6700807Y470456D01*
X6634646Y404295D01*
X6582663Y326497D01*
X6546856Y240052D01*
X6528602Y148283D01*
X6528602Y54717D01*
X6546856Y-37052D01*
X6582663Y-123497D01*
X6634646Y-201295D01*
X6700807Y-267456D01*
X6703603Y-269324D01*
X6703602Y-879134D01*
X5769648Y-1813089D01*
X5707441Y-1813089D01*
X5724118Y-1804175D01*
X5758378Y-1776058D01*
X5786495Y-1741798D01*
X5807388Y-1702710D01*
X5820254Y-1660298D01*
X5824598Y-1616190D01*
X5824598Y-417310D01*
X5820254Y-373202D01*
X5807388Y-330790D01*
X5786495Y-291702D01*
X5758378Y-257442D01*
X5724118Y-229325D01*
X5685030Y-208432D01*
X5642618Y-195566D01*
X5598510Y-191222D01*
X4403000Y-191222D01*
X4425046Y-137998D01*
X4443300Y-46229D01*
X4443300Y47337D01*
X4425046Y139106D01*
X4410393Y174482D01*
X5598510Y174482D01*
X5642618Y178826D01*
X5685030Y191692D01*
X5724118Y212585D01*
X5758378Y240702D01*
X5786495Y274962D01*
X5807388Y314050D01*
X5820254Y356462D01*
X5824598Y400570D01*
X5824598Y1599450D01*
X5820254Y1643558D01*
X5807388Y1685970D01*
X5786495Y1725058D01*
X5758378Y1759318D01*
X5724118Y1787435D01*
X5685030Y1808328D01*
X5642618Y1821194D01*
X5598510Y1825538D01*
X4652199Y1825538D01*
X4699149Y1895803D01*
X4734956Y1982248D01*
X4753210Y2074017D01*
X4753210Y2167583D01*
X4734956Y2259352D01*
X4713657Y2310772D01*
X6224690Y2310772D01*
X6224690Y2158128D01*
X6254470Y2008417D01*
X6312884Y1867393D01*
X6397688Y1740474D01*
X6505624Y1632538D01*
X6632543Y1547734D01*
X6773567Y1489320D01*
X6923278Y1459540D01*
X7075922Y1459540D01*
X7225633Y1489320D01*
X7366657Y1547734D01*
X7493576Y1632538D01*
X7601512Y1740474D01*
X7686316Y1867393D01*
X7744730Y2008417D01*
X7774510Y2158128D01*
X7774510Y2310772D01*
X7744730Y2460483D01*
X7686316Y2601507D01*
X7601512Y2728426D01*
X7493576Y2836362D01*
X7366657Y2921166D01*
X7225633Y2979580D01*
X7075922Y3009360D01*
X6923278Y3009360D01*
X6773567Y2979580D01*
X6632543Y2921166D01*
X6505624Y2836362D01*
X6397688Y2728426D01*
X6312884Y2601507D01*
X6254470Y2460483D01*
X6224690Y2310772D01*
X4713657Y2310772D01*
X4699149Y2345797D01*
X4647166Y2423595D01*
X4581005Y2489756D01*
X4503207Y2541739D01*
X4416762Y2577546D01*
X4324993Y2595800D01*
X4231427Y2595800D01*
X4139658Y2577546D01*
X4053213Y2541739D01*
X3975415Y2489756D01*
X3909254Y2423595D01*
X3857271Y2345797D01*
X3821464Y2259352D01*
X3803210Y2167583D01*
X3803210Y2074017D01*
X3821464Y1982248D01*
X3857271Y1895803D01*
X3904221Y1825538D01*
X3603648Y1825538D01*
X3603648Y2046060D01*
X3599304Y2090168D01*
X3586438Y2132580D01*
X3565545Y2171668D01*
X3537428Y2205928D01*
X3503168Y2234045D01*
X3464080Y2254938D01*
X3421668Y2267804D01*
X3388607Y2271060D01*
X3404645Y2271060D01*
X3457775Y2281628D01*
X3507821Y2302358D01*
X3552862Y2332454D01*
X3591167Y2370758D01*
X3621262Y2415799D01*
X3641992Y2465846D01*
X3652560Y2518975D01*
X3652560Y2609690D01*
X4445270Y2609690D01*
X4514020Y2678440D01*
X4514020Y3399130D01*
X4684020Y3399130D01*
X4684020Y2678440D01*
X4752770Y2609690D01*
X5625595Y2609690D01*
X5678724Y2620258D01*
X5728771Y2640988D01*
X5773812Y2671083D01*
X5812116Y2709388D01*
X5842212Y2754429D01*
X5862942Y2804475D01*
X5873510Y2857605D01*
X5873510Y3330380D01*
X5804760Y3399130D01*
X4684020Y3399130D01*
X4514020Y3399130D01*
X3485205Y3399130D01*
X3457775Y3410492D01*
X3404645Y3421060D01*
X3281310Y3421060D01*
X3212562Y3352312D01*
X3212562Y3421060D01*
X3150162Y3421060D01*
X3345756Y3616654D01*
X3393280Y3569130D01*
X4514020Y3569130D01*
X4514020Y4289820D01*
X4684020Y4289820D01*
X4684020Y3569130D01*
X5804760Y3569130D01*
X5873510Y3637880D01*
X5873510Y4110655D01*
X5862942Y4163785D01*
X5842212Y4213831D01*
X5812116Y4258872D01*
X5773812Y4297177D01*
X5728771Y4327272D01*
X5678724Y4348002D01*
X5625595Y4358570D01*
X4752770Y4358570D01*
X4684020Y4289820D01*
X4514020Y4289820D01*
X4445270Y4358570D01*
X3572445Y4358570D01*
X3558300Y4355756D01*
X3558300Y4411212D01*
X3560003Y4428501D01*
X3558300Y4445792D01*
X3558201Y4446797D01*
X3558201Y5304521D01*
X3559903Y5321802D01*
X3558201Y5339083D01*
X3558201Y5339093D01*
X3553108Y5390805D01*
X3532980Y5457157D01*
X3500294Y5518308D01*
X3456307Y5571907D01*
X3442868Y5582936D01*
X3411936Y5613868D01*
X3400907Y5627307D01*
X3395248Y5631951D01*
X3392906Y5634805D01*
X3379476Y5645826D01*
X3341532Y5683770D01*
X5019820Y5683770D01*
X5038656Y5492525D01*
X5094440Y5308629D01*
X5185029Y5139150D01*
X5306940Y4990600D01*
X5455490Y4868689D01*
X5624969Y4778100D01*
X5808865Y4722316D01*
X5952187Y4708200D01*
X8047013Y4708200D01*
X8190335Y4722316D01*
X8374231Y4778100D01*
X8543710Y4868689D01*
X8692260Y4990600D01*
X8814171Y5139150D01*
X8904760Y5308629D01*
X8960544Y5492525D01*
X8979380Y5683770D01*
X8960544Y5875015D01*
X8904760Y6058911D01*
X8814171Y6228390D01*
X8692260Y6376940D01*
X8543710Y6498851D01*
X8374231Y6589440D01*
X8190335Y6645224D01*
X8047013Y6659340D01*
X5952187Y6659340D01*
X5808865Y6645224D01*
X5624969Y6589440D01*
X5455490Y6498851D01*
X5306940Y6376940D01*
X5185029Y6228390D01*
X5094440Y6058911D01*
X5038656Y5875015D01*
X5019820Y5683770D01*
X3341532Y5683770D01*
X3188034Y5837268D01*
X3177006Y5850706D01*
X3131200Y5888298D01*
X3131200Y5950812D01*
X3138078Y5963680D01*
X3150944Y6006092D01*
X3155288Y6050200D01*
X3155288Y6500200D01*
X3150944Y6544308D01*
X3138078Y6586720D01*
X3117185Y6625808D01*
X3089068Y6660068D01*
X3054808Y6688185D01*
X3015720Y6709078D01*
X2973308Y6721944D01*
X2929200Y6726288D01*
X2629200Y6726288D01*
X2591394Y6722565D01*
X2559461Y6743902D01*
X2509415Y6764632D01*
X2456285Y6775200D01*
X2422950Y6775200D01*
X2354200Y6706450D01*
X2354200Y6360200D01*
X2384200Y6360200D01*
X2384200Y6190200D01*
X2354200Y6190200D01*
X2354200Y6170200D01*
X2204200Y6170200D01*
X2204200Y6190200D01*
X2174200Y6190200D01*
X2174200Y6360200D01*
X2204200Y6360200D01*
X2204200Y6706450D01*
X2135450Y6775200D01*
X2102115Y6775200D01*
X2048985Y6764632D01*
X1998939Y6743902D01*
X1967006Y6722565D01*
X1929200Y6726288D01*
X1629200Y6726288D01*
X1585092Y6721944D01*
X1542680Y6709078D01*
X1503592Y6688185D01*
X1469332Y6660068D01*
X1441215Y6625808D01*
X1420322Y6586720D01*
X1407456Y6544308D01*
X1403112Y6500200D01*
X1403112Y6050200D01*
X1407456Y6006092D01*
X1420322Y5963680D01*
X1441215Y5924592D01*
X1469332Y5890332D01*
X1493955Y5870124D01*
X1470294Y5850706D01*
X1459270Y5837272D01*
X1089631Y5467633D01*
X1076198Y5456609D01*
X1065175Y5443177D01*
X1032210Y5403010D01*
X999525Y5341859D01*
X979397Y5275506D01*
X972600Y5206503D01*
X974304Y5189204D01*
X974304Y4654861D01*
X945695Y4683470D01*
X867897Y4735453D01*
X781452Y4771260D01*
X723439Y4782800D01*
X723488Y4783300D01*
X723488Y6443300D01*
X719144Y6487408D01*
X706278Y6529820D01*
X685385Y6568908D01*
X657268Y6603168D01*
X623008Y6631285D01*
X583920Y6652178D01*
X541508Y6665044D01*
X497400Y6669388D01*
X457400Y6669388D01*
X457400Y6859550D01*
X388650Y6928300D01*
X119900Y6928300D01*
X119900Y6908300D01*
X-5100Y6908300D01*
X-5100Y6928300D01*
X-47600Y6928300D01*
X-47600Y7098300D01*
X-5100Y7098300D01*
X-5100Y7569550D01*
X119900Y7569550D01*
X119900Y7098300D01*
X388650Y7098300D01*
X457400Y7167050D01*
X457400Y7390385D01*
X446832Y7443514D01*
X426102Y7493561D01*
X396007Y7538602D01*
X357702Y7576906D01*
X312661Y7607002D01*
X262615Y7627732D01*
X209485Y7638300D01*
X188650Y7638300D01*
X119900Y7569550D01*
X-5100Y7569550D01*
X-73850Y7638300D01*
X-94685Y7638300D01*
X-147815Y7627732D01*
X-197861Y7607002D01*
X-242902Y7576906D01*
X-243778Y7576030D01*
X-273492Y7585044D01*
X-317600Y7589388D01*
X-567600Y7589388D01*
X-611708Y7585044D01*
X-654120Y7572178D01*
X-692600Y7551610D01*
X-731080Y7572178D01*
X-773492Y7585044D01*
X-817600Y7589388D01*
X-1067600Y7589388D01*
X-1111708Y7585044D01*
X-1154120Y7572178D01*
X-1192600Y7551610D01*
X-1231080Y7572178D01*
X-1273492Y7585044D01*
X-1317600Y7589388D01*
X-1567600Y7589388D01*
X-1611708Y7585044D01*
X-1654120Y7572178D01*
X-1693208Y7551285D01*
X-1727468Y7523168D01*
X-1755585Y7488908D01*
X-1776478Y7449820D01*
X-1789344Y7407408D01*
X-1793688Y7363300D01*
X-1793688Y6669388D01*
X-1882600Y6669388D01*
X-1926708Y6665044D01*
X-1969120Y6652178D01*
X-1986096Y6643104D01*
X-2019898Y6676906D01*
X-2064939Y6707002D01*
X-2114985Y6727732D01*
X-2168115Y6738300D01*
X-2291450Y6738300D01*
X-2360200Y6669550D01*
X-2360200Y6248300D01*
X-2340200Y6248300D01*
X-2340200Y6078300D01*
X-2360200Y6078300D01*
X-2360200Y6058300D01*
X-2530200Y6058300D01*
X-2530200Y6078300D01*
X-2550200Y6078300D01*
X-2550200Y6248300D01*
X-2530200Y6248300D01*
X-2530200Y6669550D01*
X-2598950Y6738300D01*
X-2722285Y6738300D01*
X-2738500Y6735075D01*
X-2738500Y7846970D01*
X3375471Y7846970D01*
X3375470Y7109982D01*
G36*
X690001Y-1934668D02*
X688550Y-1949400D01*
X694342Y-2008210D01*
X711497Y-2064760D01*
X739353Y-2116877D01*
X767451Y-2151114D01*
X776843Y-2162558D01*
X788285Y-2171948D01*
X1015243Y-2398907D01*
X1024634Y-2410350D01*
X1036077Y-2419741D01*
X1070314Y-2447839D01*
X1122431Y-2475696D01*
X1135593Y-2479689D01*
X1178982Y-2492851D01*
X1184030Y-2493348D01*
X1181612Y-2517900D01*
X1181612Y-2917900D01*
X1185956Y-2962008D01*
X1198822Y-3004420D01*
X1219715Y-3043508D01*
X1247832Y-3077768D01*
X1282092Y-3105885D01*
X1321180Y-3126778D01*
X1363592Y-3139644D01*
X1407700Y-3143988D01*
X2007700Y-3143988D01*
X2051808Y-3139644D01*
X2094220Y-3126778D01*
X2133308Y-3105885D01*
X2167568Y-3077768D01*
X2195685Y-3043508D01*
X2216578Y-3004420D01*
X2229444Y-2962008D01*
X2233788Y-2917900D01*
X2233788Y-2609260D01*
X2245484Y-2614105D01*
X2248412Y-2643839D01*
X2248412Y-2917900D01*
X2252756Y-2962008D01*
X2265622Y-3004420D01*
X2286515Y-3043508D01*
X2314632Y-3077768D01*
X2348892Y-3105885D01*
X2387980Y-3126778D01*
X2430392Y-3139644D01*
X2474500Y-3143988D01*
X3074500Y-3143988D01*
X3118608Y-3139644D01*
X3161020Y-3126778D01*
X3200108Y-3105885D01*
X3234368Y-3077768D01*
X3262485Y-3043508D01*
X3283378Y-3004420D01*
X3296244Y-2962008D01*
X3300588Y-2917900D01*
X3300588Y-2682831D01*
X3329091Y-2711334D01*
X3338483Y-2722778D01*
X3349926Y-2732169D01*
X3349927Y-2732170D01*
X3384163Y-2760267D01*
X3404388Y-2771077D01*
X3420763Y-2779830D01*
X3411545Y-2791062D01*
X3390652Y-2830150D01*
X3377786Y-2872562D01*
X3373442Y-2916670D01*
X3373442Y-3433900D01*
X3300588Y-3433900D01*
X3300588Y-3417900D01*
X3296244Y-3373792D01*
X3283378Y-3331380D01*
X3262485Y-3292292D01*
X3234368Y-3258032D01*
X3200108Y-3229915D01*
X3161020Y-3209022D01*
X3118608Y-3196156D01*
X3074500Y-3191812D01*
X2474500Y-3191812D01*
X2430392Y-3196156D01*
X2387980Y-3209022D01*
X2348892Y-3229915D01*
X2314632Y-3258032D01*
X2286515Y-3292292D01*
X2265622Y-3331380D01*
X2252756Y-3373792D01*
X2248412Y-3417900D01*
X2248412Y-3441940D01*
X2233788Y-3441940D01*
X2233788Y-3417900D01*
X2229444Y-3373792D01*
X2216578Y-3331380D01*
X2195685Y-3292292D01*
X2167568Y-3258032D01*
X2133308Y-3229915D01*
X2094220Y-3209022D01*
X2051808Y-3196156D01*
X2007700Y-3191812D01*
X1407700Y-3191812D01*
X1363592Y-3196156D01*
X1321180Y-3209022D01*
X1282092Y-3229915D01*
X1247832Y-3258032D01*
X1219715Y-3292292D01*
X1198822Y-3331380D01*
X1185956Y-3373792D01*
X1181612Y-3417900D01*
X1181612Y-3817900D01*
X1185956Y-3862008D01*
X1188653Y-3870897D01*
X1147500Y-3912050D01*
X1147500Y-4563300D01*
X1167500Y-4563300D01*
X1167500Y-4733300D01*
X1147500Y-4733300D01*
X1147500Y-5384550D01*
X1216250Y-5453300D01*
X1414585Y-5453300D01*
X1467715Y-5442732D01*
X1517761Y-5422002D01*
X1562802Y-5391906D01*
X1579182Y-5375527D01*
X1600980Y-5387178D01*
X1643392Y-5400044D01*
X1687500Y-5404388D01*
X2337500Y-5404388D01*
X2381608Y-5400044D01*
X2424020Y-5387178D01*
X2463108Y-5366285D01*
X2497368Y-5338168D01*
X2498166Y-5337196D01*
X2519710Y-5358740D01*
X2940960Y-5358740D01*
X2940960Y-5338740D01*
X3110960Y-5338740D01*
X3110960Y-5358740D01*
X3532210Y-5358740D01*
X3600960Y-5289990D01*
X3600960Y-5216655D01*
X3590392Y-5163526D01*
X3569662Y-5113479D01*
X3539567Y-5068438D01*
X3501262Y-5030134D01*
X3456221Y-5000038D01*
X3406175Y-4979308D01*
X3353045Y-4968740D01*
X3337007Y-4968740D01*
X3370068Y-4965484D01*
X3412480Y-4952618D01*
X3451568Y-4931725D01*
X3485828Y-4903608D01*
X3513945Y-4869348D01*
X3534838Y-4830260D01*
X3547704Y-4787848D01*
X3552048Y-4743740D01*
X3552048Y-4343740D01*
X3551290Y-4336040D01*
X3555422Y-4337294D01*
X3599530Y-4341638D01*
X3885673Y-4341638D01*
X3875932Y-4349632D01*
X3847815Y-4383892D01*
X3826922Y-4422980D01*
X3814056Y-4465392D01*
X3809712Y-4509500D01*
X3809712Y-5109500D01*
X3814056Y-5153608D01*
X3826922Y-5196020D01*
X3847815Y-5235108D01*
X3875932Y-5269368D01*
X3910192Y-5297485D01*
X3949280Y-5318378D01*
X3991692Y-5331244D01*
X4024753Y-5334500D01*
X4008715Y-5334500D01*
X3955585Y-5345068D01*
X3905539Y-5365798D01*
X3860498Y-5395894D01*
X3822193Y-5434198D01*
X3792098Y-5479239D01*
X3771368Y-5529286D01*
X3760800Y-5582415D01*
X3760800Y-5755750D01*
X3829550Y-5824500D01*
X4200800Y-5824500D01*
X4200800Y-5804500D01*
X4370800Y-5804500D01*
X4370800Y-5824500D01*
X4390800Y-5824500D01*
X4390800Y-5994500D01*
X4370800Y-5994500D01*
X4370800Y-6014500D01*
X4200800Y-6014500D01*
X4200800Y-5994500D01*
X3829550Y-5994500D01*
X3760800Y-6063250D01*
X3760800Y-6236585D01*
X3771368Y-6289714D01*
X3792098Y-6339761D01*
X3822193Y-6384802D01*
X3860498Y-6423106D01*
X3870666Y-6429900D01*
X3604588Y-6429900D01*
X3587299Y-6428197D01*
X3570010Y-6429900D01*
X3570008Y-6429900D01*
X3540800Y-6432777D01*
X3540800Y-6423750D01*
X3472050Y-6355000D01*
X3100800Y-6355000D01*
X3100800Y-6375000D01*
X2930800Y-6375000D01*
X2930800Y-6355000D01*
X2910800Y-6355000D01*
X2910800Y-6185000D01*
X2930800Y-6185000D01*
X2930800Y-5860150D01*
X2940960Y-5849990D01*
X2940960Y-5763750D01*
X3100800Y-5763750D01*
X3100800Y-6185000D01*
X3472050Y-6185000D01*
X3540800Y-6116250D01*
X3540800Y-5942915D01*
X3530232Y-5889786D01*
X3512246Y-5846363D01*
X3539567Y-5819042D01*
X3569662Y-5774001D01*
X3590392Y-5723954D01*
X3600960Y-5670825D01*
X3600960Y-5597490D01*
X3532210Y-5528740D01*
X3110960Y-5528740D01*
X3110960Y-5753590D01*
X3100800Y-5763750D01*
X2940960Y-5763750D01*
X2940960Y-5528740D01*
X2519710Y-5528740D01*
X2450960Y-5597490D01*
X2450960Y-5670825D01*
X2461528Y-5723954D01*
X2482258Y-5774001D01*
X2512353Y-5819042D01*
X2526485Y-5833173D01*
X2522098Y-5839739D01*
X2501368Y-5889786D01*
X2490800Y-5942915D01*
X2490800Y-6116250D01*
X2559548Y-6184998D01*
X2519171Y-6184998D01*
X2497368Y-6158432D01*
X2463108Y-6130315D01*
X2424020Y-6109422D01*
X2381608Y-6096556D01*
X2337500Y-6092212D01*
X2251037Y-6092212D01*
X2232549Y-6069685D01*
X2223158Y-6058242D01*
X2211715Y-6048851D01*
X1993753Y-5830890D01*
X1984358Y-5819442D01*
X1938677Y-5781953D01*
X1886560Y-5754096D01*
X1830010Y-5736941D01*
X1785933Y-5732600D01*
X1785923Y-5732600D01*
X1771200Y-5731150D01*
X1756477Y-5732600D01*
X1168159Y-5732600D01*
X1058083Y-5622525D01*
X1058739Y-5619227D01*
X1058739Y-5525661D01*
X1040485Y-5433892D01*
X1004678Y-5347447D01*
X977500Y-5306772D01*
X977500Y-4733300D01*
X957500Y-4733300D01*
X957500Y-4563300D01*
X977500Y-4563300D01*
X977500Y-3912050D01*
X908750Y-3843300D01*
X710415Y-3843300D01*
X657285Y-3853868D01*
X607239Y-3874598D01*
X562198Y-3904694D01*
X545818Y-3921073D01*
X524020Y-3909422D01*
X481608Y-3896556D01*
X437500Y-3892212D01*
X-15744Y-3892212D01*
X161716Y-3714751D01*
X173158Y-3705362D01*
X186704Y-3688856D01*
X210647Y-3659682D01*
X238504Y-3607564D01*
X238504Y-3607563D01*
X255659Y-3551014D01*
X260000Y-3506937D01*
X260000Y-3506934D01*
X261451Y-3492204D01*
X260000Y-3477474D01*
X260000Y-1957139D01*
X264610Y-1960922D01*
X325413Y-1993422D01*
X391388Y-2013435D01*
X460000Y-2020193D01*
X528611Y-2013435D01*
X594586Y-1993422D01*
X655389Y-1960922D01*
X690001Y-1932517D01*
X690001Y-1934668D01*
X690001Y-1934668D01*
G37*
X690001Y-1934668D02*
X688550Y-1949400D01*
X694342Y-2008210D01*
X711497Y-2064760D01*
X739353Y-2116877D01*
X767451Y-2151114D01*
X776843Y-2162558D01*
X788285Y-2171948D01*
X1015243Y-2398907D01*
X1024634Y-2410350D01*
X1036077Y-2419741D01*
X1070314Y-2447839D01*
X1122431Y-2475696D01*
X1135593Y-2479689D01*
X1178982Y-2492851D01*
X1184030Y-2493348D01*
X1181612Y-2517900D01*
X1181612Y-2917900D01*
X1185956Y-2962008D01*
X1198822Y-3004420D01*
X1219715Y-3043508D01*
X1247832Y-3077768D01*
X1282092Y-3105885D01*
X1321180Y-3126778D01*
X1363592Y-3139644D01*
X1407700Y-3143988D01*
X2007700Y-3143988D01*
X2051808Y-3139644D01*
X2094220Y-3126778D01*
X2133308Y-3105885D01*
X2167568Y-3077768D01*
X2195685Y-3043508D01*
X2216578Y-3004420D01*
X2229444Y-2962008D01*
X2233788Y-2917900D01*
X2233788Y-2609260D01*
X2245484Y-2614105D01*
X2248412Y-2643839D01*
X2248412Y-2917900D01*
X2252756Y-2962008D01*
X2265622Y-3004420D01*
X2286515Y-3043508D01*
X2314632Y-3077768D01*
X2348892Y-3105885D01*
X2387980Y-3126778D01*
X2430392Y-3139644D01*
X2474500Y-3143988D01*
X3074500Y-3143988D01*
X3118608Y-3139644D01*
X3161020Y-3126778D01*
X3200108Y-3105885D01*
X3234368Y-3077768D01*
X3262485Y-3043508D01*
X3283378Y-3004420D01*
X3296244Y-2962008D01*
X3300588Y-2917900D01*
X3300588Y-2682831D01*
X3329091Y-2711334D01*
X3338483Y-2722778D01*
X3349926Y-2732169D01*
X3349927Y-2732170D01*
X3384163Y-2760267D01*
X3404388Y-2771077D01*
X3420763Y-2779830D01*
X3411545Y-2791062D01*
X3390652Y-2830150D01*
X3377786Y-2872562D01*
X3373442Y-2916670D01*
X3373442Y-3433900D01*
X3300588Y-3433900D01*
X3300588Y-3417900D01*
X3296244Y-3373792D01*
X3283378Y-3331380D01*
X3262485Y-3292292D01*
X3234368Y-3258032D01*
X3200108Y-3229915D01*
X3161020Y-3209022D01*
X3118608Y-3196156D01*
X3074500Y-3191812D01*
X2474500Y-3191812D01*
X2430392Y-3196156D01*
X2387980Y-3209022D01*
X2348892Y-3229915D01*
X2314632Y-3258032D01*
X2286515Y-3292292D01*
X2265622Y-3331380D01*
X2252756Y-3373792D01*
X2248412Y-3417900D01*
X2248412Y-3441940D01*
X2233788Y-3441940D01*
X2233788Y-3417900D01*
X2229444Y-3373792D01*
X2216578Y-3331380D01*
X2195685Y-3292292D01*
X2167568Y-3258032D01*
X2133308Y-3229915D01*
X2094220Y-3209022D01*
X2051808Y-3196156D01*
X2007700Y-3191812D01*
X1407700Y-3191812D01*
X1363592Y-3196156D01*
X1321180Y-3209022D01*
X1282092Y-3229915D01*
X1247832Y-3258032D01*
X1219715Y-3292292D01*
X1198822Y-3331380D01*
X1185956Y-3373792D01*
X1181612Y-3417900D01*
X1181612Y-3817900D01*
X1185956Y-3862008D01*
X1188653Y-3870897D01*
X1147500Y-3912050D01*
X1147500Y-4563300D01*
X1167500Y-4563300D01*
X1167500Y-4733300D01*
X1147500Y-4733300D01*
X1147500Y-5384550D01*
X1216250Y-5453300D01*
X1414585Y-5453300D01*
X1467715Y-5442732D01*
X1517761Y-5422002D01*
X1562802Y-5391906D01*
X1579182Y-5375527D01*
X1600980Y-5387178D01*
X1643392Y-5400044D01*
X1687500Y-5404388D01*
X2337500Y-5404388D01*
X2381608Y-5400044D01*
X2424020Y-5387178D01*
X2463108Y-5366285D01*
X2497368Y-5338168D01*
X2498166Y-5337196D01*
X2519710Y-5358740D01*
X2940960Y-5358740D01*
X2940960Y-5338740D01*
X3110960Y-5338740D01*
X3110960Y-5358740D01*
X3532210Y-5358740D01*
X3600960Y-5289990D01*
X3600960Y-5216655D01*
X3590392Y-5163526D01*
X3569662Y-5113479D01*
X3539567Y-5068438D01*
X3501262Y-5030134D01*
X3456221Y-5000038D01*
X3406175Y-4979308D01*
X3353045Y-4968740D01*
X3337007Y-4968740D01*
X3370068Y-4965484D01*
X3412480Y-4952618D01*
X3451568Y-4931725D01*
X3485828Y-4903608D01*
X3513945Y-4869348D01*
X3534838Y-4830260D01*
X3547704Y-4787848D01*
X3552048Y-4743740D01*
X3552048Y-4343740D01*
X3551290Y-4336040D01*
X3555422Y-4337294D01*
X3599530Y-4341638D01*
X3885673Y-4341638D01*
X3875932Y-4349632D01*
X3847815Y-4383892D01*
X3826922Y-4422980D01*
X3814056Y-4465392D01*
X3809712Y-4509500D01*
X3809712Y-5109500D01*
X3814056Y-5153608D01*
X3826922Y-5196020D01*
X3847815Y-5235108D01*
X3875932Y-5269368D01*
X3910192Y-5297485D01*
X3949280Y-5318378D01*
X3991692Y-5331244D01*
X4024753Y-5334500D01*
X4008715Y-5334500D01*
X3955585Y-5345068D01*
X3905539Y-5365798D01*
X3860498Y-5395894D01*
X3822193Y-5434198D01*
X3792098Y-5479239D01*
X3771368Y-5529286D01*
X3760800Y-5582415D01*
X3760800Y-5755750D01*
X3829550Y-5824500D01*
X4200800Y-5824500D01*
X4200800Y-5804500D01*
X4370800Y-5804500D01*
X4370800Y-5824500D01*
X4390800Y-5824500D01*
X4390800Y-5994500D01*
X4370800Y-5994500D01*
X4370800Y-6014500D01*
X4200800Y-6014500D01*
X4200800Y-5994500D01*
X3829550Y-5994500D01*
X3760800Y-6063250D01*
X3760800Y-6236585D01*
X3771368Y-6289714D01*
X3792098Y-6339761D01*
X3822193Y-6384802D01*
X3860498Y-6423106D01*
X3870666Y-6429900D01*
X3604588Y-6429900D01*
X3587299Y-6428197D01*
X3570010Y-6429900D01*
X3570008Y-6429900D01*
X3540800Y-6432777D01*
X3540800Y-6423750D01*
X3472050Y-6355000D01*
X3100800Y-6355000D01*
X3100800Y-6375000D01*
X2930800Y-6375000D01*
X2930800Y-6355000D01*
X2910800Y-6355000D01*
X2910800Y-6185000D01*
X2930800Y-6185000D01*
X2930800Y-5860150D01*
X2940960Y-5849990D01*
X2940960Y-5763750D01*
X3100800Y-5763750D01*
X3100800Y-6185000D01*
X3472050Y-6185000D01*
X3540800Y-6116250D01*
X3540800Y-5942915D01*
X3530232Y-5889786D01*
X3512246Y-5846363D01*
X3539567Y-5819042D01*
X3569662Y-5774001D01*
X3590392Y-5723954D01*
X3600960Y-5670825D01*
X3600960Y-5597490D01*
X3532210Y-5528740D01*
X3110960Y-5528740D01*
X3110960Y-5753590D01*
X3100800Y-5763750D01*
X2940960Y-5763750D01*
X2940960Y-5528740D01*
X2519710Y-5528740D01*
X2450960Y-5597490D01*
X2450960Y-5670825D01*
X2461528Y-5723954D01*
X2482258Y-5774001D01*
X2512353Y-5819042D01*
X2526485Y-5833173D01*
X2522098Y-5839739D01*
X2501368Y-5889786D01*
X2490800Y-5942915D01*
X2490800Y-6116250D01*
X2559548Y-6184998D01*
X2519171Y-6184998D01*
X2497368Y-6158432D01*
X2463108Y-6130315D01*
X2424020Y-6109422D01*
X2381608Y-6096556D01*
X2337500Y-6092212D01*
X2251037Y-6092212D01*
X2232549Y-6069685D01*
X2223158Y-6058242D01*
X2211715Y-6048851D01*
X1993753Y-5830890D01*
X1984358Y-5819442D01*
X1938677Y-5781953D01*
X1886560Y-5754096D01*
X1830010Y-5736941D01*
X1785933Y-5732600D01*
X1785923Y-5732600D01*
X1771200Y-5731150D01*
X1756477Y-5732600D01*
X1168159Y-5732600D01*
X1058083Y-5622525D01*
X1058739Y-5619227D01*
X1058739Y-5525661D01*
X1040485Y-5433892D01*
X1004678Y-5347447D01*
X977500Y-5306772D01*
X977500Y-4733300D01*
X957500Y-4733300D01*
X957500Y-4563300D01*
X977500Y-4563300D01*
X977500Y-3912050D01*
X908750Y-3843300D01*
X710415Y-3843300D01*
X657285Y-3853868D01*
X607239Y-3874598D01*
X562198Y-3904694D01*
X545818Y-3921073D01*
X524020Y-3909422D01*
X481608Y-3896556D01*
X437500Y-3892212D01*
X-15744Y-3892212D01*
X161716Y-3714751D01*
X173158Y-3705362D01*
X186704Y-3688856D01*
X210647Y-3659682D01*
X238504Y-3607564D01*
X238504Y-3607563D01*
X255659Y-3551014D01*
X260000Y-3506937D01*
X260000Y-3506934D01*
X261451Y-3492204D01*
X260000Y-3477474D01*
X260000Y-1957139D01*
X264610Y-1960922D01*
X325413Y-1993422D01*
X391388Y-2013435D01*
X460000Y-2020193D01*
X528611Y-2013435D01*
X594586Y-1993422D01*
X655389Y-1960922D01*
X690001Y-1932517D01*
X690001Y-1934668D01*
G36*
X1552500Y-1403500D02*
X1593912Y-1403500D01*
X1593912Y-1573500D01*
X1552500Y-1573500D01*
X1552500Y-1593500D01*
X1427500Y-1593500D01*
X1427500Y-1573500D01*
X1385000Y-1573500D01*
X1385000Y-1403500D01*
X1427500Y-1403500D01*
X1427500Y-1383500D01*
X1552500Y-1383500D01*
X1552500Y-1403500D01*
X1552500Y-1403500D01*
G37*
X1552500Y-1403500D02*
X1593912Y-1403500D01*
X1593912Y-1573500D01*
X1552500Y-1573500D01*
X1552500Y-1593500D01*
X1427500Y-1593500D01*
X1427500Y-1573500D01*
X1385000Y-1573500D01*
X1385000Y-1403500D01*
X1427500Y-1403500D01*
X1427500Y-1383500D01*
X1552500Y-1383500D01*
X1552500Y-1403500D01*
G36*
X810000Y-68500D02*
X830000Y-68500D01*
X830000Y-238500D01*
X810000Y-238500D01*
X810000Y-258500D01*
X640000Y-258500D01*
X640000Y-238500D01*
X620000Y-238500D01*
X620000Y-68500D01*
X640000Y-68500D01*
X640000Y-48500D01*
X810000Y-48500D01*
X810000Y-68500D01*
X810000Y-68500D01*
G37*
X810000Y-68500D02*
X830000Y-68500D01*
X830000Y-238500D01*
X810000Y-238500D01*
X810000Y-258500D01*
X640000Y-258500D01*
X640000Y-238500D01*
X620000Y-238500D01*
X620000Y-68500D01*
X640000Y-68500D01*
X640000Y-48500D01*
X810000Y-48500D01*
X810000Y-68500D01*
G36*
X-2700681Y4537752D02*
X-2697335Y4535006D01*
X-2113791Y3951461D01*
X-2102048Y3937152D01*
X-2079596Y3918726D01*
X-2044947Y3890290D01*
X-2009951Y3871585D01*
X-1979800Y3855469D01*
X-1909113Y3834026D01*
X-1854019Y3828600D01*
X-1854016Y3828600D01*
X-1835600Y3826786D01*
X-1817184Y3828600D01*
X-1794599Y3828600D01*
X-1794599Y3626598D01*
X-1796303Y3609300D01*
X-1791220Y3557702D01*
X-1789506Y3540296D01*
X-1780797Y3511586D01*
X-1769378Y3473944D01*
X-1736693Y3412793D01*
X-1717791Y3389762D01*
X-1692705Y3359194D01*
X-1679272Y3348170D01*
X-1040726Y2709622D01*
X-1029706Y2696194D01*
X-1016278Y2685174D01*
X-1016275Y2685171D01*
X-976107Y2652207D01*
X-914957Y2619521D01*
X-900188Y2615041D01*
X-848604Y2599393D01*
X-796892Y2594300D01*
X-796889Y2594300D01*
X-779600Y2592597D01*
X-762311Y2594300D01*
X801411Y2594300D01*
X818700Y2592597D01*
X835989Y2594300D01*
X835992Y2594300D01*
X887704Y2599393D01*
X954056Y2619521D01*
X1015207Y2652207D01*
X1068806Y2696194D01*
X1079835Y2709633D01*
X1539489Y3169286D01*
X1539489Y3024553D01*
X788285Y2273348D01*
X776843Y2263958D01*
X767452Y2252515D01*
X767451Y2252514D01*
X739353Y2218277D01*
X711497Y2166160D01*
X694342Y2109610D01*
X688550Y2050800D01*
X690001Y2036067D01*
X690001Y1718644D01*
X682738Y1724447D01*
X611553Y1761311D01*
X583536Y1761946D01*
X522500Y1706800D01*
X522500Y1286500D01*
X565000Y1286500D01*
X565000Y1116500D01*
X522500Y1116500D01*
X522500Y1096500D01*
X397500Y1096500D01*
X397500Y1116500D01*
X355000Y1116500D01*
X355000Y1286500D01*
X397500Y1286500D01*
X397500Y1706800D01*
X336464Y1761946D01*
X308447Y1761311D01*
X237262Y1724447D01*
X174636Y1674403D01*
X166528Y1664782D01*
X155390Y1673922D01*
X94587Y1706422D01*
X28612Y1726435D01*
X-40000Y1733193D01*
X-77900Y1729460D01*
X-77900Y1748483D01*
X-96154Y1840252D01*
X-131961Y1926697D01*
X-183944Y2004495D01*
X-250105Y2070656D01*
X-327903Y2122639D01*
X-414348Y2158446D01*
X-506117Y2176700D01*
X-599683Y2176700D01*
X-614155Y2173821D01*
X-2738500Y4298166D01*
X-2738500Y4541476D01*
X-2700681Y4537752D01*
X-2700681Y4537752D01*
G37*
X-2700681Y4537752D02*
X-2697335Y4535006D01*
X-2113791Y3951461D01*
X-2102048Y3937152D01*
X-2079596Y3918726D01*
X-2044947Y3890290D01*
X-2009951Y3871585D01*
X-1979800Y3855469D01*
X-1909113Y3834026D01*
X-1854019Y3828600D01*
X-1854016Y3828600D01*
X-1835600Y3826786D01*
X-1817184Y3828600D01*
X-1794599Y3828600D01*
X-1794599Y3626598D01*
X-1796303Y3609300D01*
X-1791220Y3557702D01*
X-1789506Y3540296D01*
X-1780797Y3511586D01*
X-1769378Y3473944D01*
X-1736693Y3412793D01*
X-1717791Y3389762D01*
X-1692705Y3359194D01*
X-1679272Y3348170D01*
X-1040726Y2709622D01*
X-1029706Y2696194D01*
X-1016278Y2685174D01*
X-1016275Y2685171D01*
X-976107Y2652207D01*
X-914957Y2619521D01*
X-900188Y2615041D01*
X-848604Y2599393D01*
X-796892Y2594300D01*
X-796889Y2594300D01*
X-779600Y2592597D01*
X-762311Y2594300D01*
X801411Y2594300D01*
X818700Y2592597D01*
X835989Y2594300D01*
X835992Y2594300D01*
X887704Y2599393D01*
X954056Y2619521D01*
X1015207Y2652207D01*
X1068806Y2696194D01*
X1079835Y2709633D01*
X1539489Y3169286D01*
X1539489Y3024553D01*
X788285Y2273348D01*
X776843Y2263958D01*
X767452Y2252515D01*
X767451Y2252514D01*
X739353Y2218277D01*
X711497Y2166160D01*
X694342Y2109610D01*
X688550Y2050800D01*
X690001Y2036067D01*
X690001Y1718644D01*
X682738Y1724447D01*
X611553Y1761311D01*
X583536Y1761946D01*
X522500Y1706800D01*
X522500Y1286500D01*
X565000Y1286500D01*
X565000Y1116500D01*
X522500Y1116500D01*
X522500Y1096500D01*
X397500Y1096500D01*
X397500Y1116500D01*
X355000Y1116500D01*
X355000Y1286500D01*
X397500Y1286500D01*
X397500Y1706800D01*
X336464Y1761946D01*
X308447Y1761311D01*
X237262Y1724447D01*
X174636Y1674403D01*
X166528Y1664782D01*
X155390Y1673922D01*
X94587Y1706422D01*
X28612Y1726435D01*
X-40000Y1733193D01*
X-77900Y1729460D01*
X-77900Y1748483D01*
X-96154Y1840252D01*
X-131961Y1926697D01*
X-183944Y2004495D01*
X-250105Y2070656D01*
X-327903Y2122639D01*
X-414348Y2158446D01*
X-506117Y2176700D01*
X-599683Y2176700D01*
X-614155Y2173821D01*
X-2738500Y4298166D01*
X-2738500Y4541476D01*
X-2700681Y4537752D01*
G36*
X3212560Y2931060D02*
X3232560Y2931060D01*
X3232560Y2761060D01*
X3212560Y2761060D01*
X3212560Y2741060D01*
X3042560Y2741060D01*
X3042560Y2761060D01*
X3022560Y2761060D01*
X3022560Y2931060D01*
X3042560Y2931060D01*
X3042560Y2951060D01*
X3212560Y2951060D01*
X3212560Y2931060D01*
X3212560Y2931060D01*
G37*
X3212560Y2931060D02*
X3232560Y2931060D01*
X3232560Y2761060D01*
X3212560Y2761060D01*
X3212560Y2741060D01*
X3042560Y2741060D01*
X3042560Y2761060D01*
X3022560Y2761060D01*
X3022560Y2931060D01*
X3042560Y2931060D01*
X3042560Y2951060D01*
X3212560Y2951060D01*
X3212560Y2931060D01*
G04 #@! TD*
M02*
