G04 #@! TF.FileFunction,Legend,Bot*
%FSLAX46Y46*%
G04 Gerber Fmt 4.6, Leading zero omitted, Abs format (unit mm)*
G04 Created by KiCad (PCBNEW 4.0.2+dfsg1-stable) date So 14 Jan 2018 15:20:38 CET*
%MOMM*%
G01*
G04 APERTURE LIST*
%ADD10C,0.150000*%
%ADD11C,0.099060*%
%ADD12C,0.254000*%
%ADD13C,0.120000*%
%ADD14C,0.250000*%
%ADD15C,0.304800*%
G04 APERTURE END LIST*
D10*
D11*
X-6723276Y2946498D02*
X-7122056Y2946498D01*
X-6723276Y2546498D01*
X-7122056Y2546498D01*
X-6723276Y2213165D02*
X-6989129Y2213165D01*
X-7122056Y2213165D02*
X-7103066Y2246499D01*
X-7084076Y2213165D01*
X-7103066Y2179832D01*
X-7122056Y2213165D01*
X-7084076Y2213165D01*
X-6989129Y1979832D02*
X-6989129Y1713166D01*
X-7122056Y1879832D02*
X-6780244Y1879832D01*
X-6742265Y1846499D01*
X-6723276Y1779832D01*
X-6723276Y1713166D01*
X-6723276Y1479832D02*
X-6989129Y1479832D01*
X-6913171Y1479832D02*
X-6951150Y1446499D01*
X-6970139Y1413166D01*
X-6989129Y1346499D01*
X-6989129Y1279832D01*
X-6723276Y946499D02*
X-6742265Y1013166D01*
X-6761255Y1046499D01*
X-6799234Y1079833D01*
X-6913171Y1079833D01*
X-6951150Y1046499D01*
X-6970139Y1013166D01*
X-6989129Y946499D01*
X-6989129Y846499D01*
X-6970139Y779833D01*
X-6951150Y746499D01*
X-6913171Y713166D01*
X-6799234Y713166D01*
X-6761255Y746499D01*
X-6742265Y779833D01*
X-6723276Y846499D01*
X-6723276Y946499D01*
X-6723276Y413166D02*
X-7122056Y413166D01*
X-6875192Y346500D02*
X-6723276Y146500D01*
X-6989129Y146500D02*
X-6837213Y413166D01*
X-6742265Y-420167D02*
X-6723276Y-353501D01*
X-6723276Y-220167D01*
X-6742265Y-153501D01*
X-6780244Y-120167D01*
X-6932160Y-120167D01*
X-6970139Y-153501D01*
X-6989129Y-220167D01*
X-6989129Y-353501D01*
X-6970139Y-420167D01*
X-6932160Y-453501D01*
X-6894181Y-453501D01*
X-6856202Y-120167D01*
X-6989129Y-686834D02*
X-6723276Y-853501D01*
X-6989129Y-1020167D02*
X-6723276Y-853501D01*
X-6628328Y-786834D01*
X-6609338Y-753501D01*
X-6590349Y-686834D01*
X-6932160Y-2053500D02*
X-6932160Y-1820167D01*
X-6723276Y-1820167D02*
X-7122056Y-1820167D01*
X-7122056Y-2153500D01*
X-6723276Y-2420167D02*
X-7122056Y-2420167D01*
X-6723276Y-2753500D02*
X-7122056Y-2753500D01*
X-7122056Y-2920166D01*
X-7103066Y-3020166D01*
X-7065087Y-3086833D01*
X-7027108Y-3120166D01*
X-6951150Y-3153500D01*
X-6894181Y-3153500D01*
X-6818223Y-3120166D01*
X-6780244Y-3086833D01*
X-6742265Y-3020166D01*
X-6723276Y-2920166D01*
X-6723276Y-2753500D01*
X-7122056Y-3586833D02*
X-7122056Y-3720166D01*
X-7103066Y-3786833D01*
X-7065087Y-3853500D01*
X-6989129Y-3886833D01*
X-6856202Y-3886833D01*
X-6780244Y-3853500D01*
X-6742265Y-3786833D01*
X-6723276Y-3720166D01*
X-6723276Y-3586833D01*
X-6742265Y-3520166D01*
X-6780244Y-3453500D01*
X-6856202Y-3420166D01*
X-6989129Y-3420166D01*
X-7065087Y-3453500D01*
X-7103066Y-3520166D01*
X-7122056Y-3586833D01*
X-6464704Y1496499D02*
X-6141882Y1496499D01*
X-6103903Y1463166D01*
X-6084913Y1429833D01*
X-6065924Y1363166D01*
X-6065924Y1229833D01*
X-6084913Y1163166D01*
X-6103903Y1129833D01*
X-6141882Y1096499D01*
X-6464704Y1096499D01*
X-6426724Y796500D02*
X-6445714Y763166D01*
X-6464704Y696500D01*
X-6464704Y529833D01*
X-6445714Y463166D01*
X-6426724Y429833D01*
X-6388745Y396500D01*
X-6350766Y396500D01*
X-6293798Y429833D01*
X-6065924Y829833D01*
X-6065924Y396500D01*
X-6274808Y-136834D02*
X-6274808Y96499D01*
X-6065924Y96499D02*
X-6464704Y96499D01*
X-6464704Y-236834D01*
X-6084913Y-536834D02*
X-6065924Y-536834D01*
X-6027944Y-503501D01*
X-6008955Y-470167D01*
X-6065924Y-1770167D02*
X-6255819Y-1536833D01*
X-6065924Y-1370167D02*
X-6464704Y-1370167D01*
X-6464704Y-1636833D01*
X-6445714Y-1703500D01*
X-6426724Y-1736833D01*
X-6388745Y-1770167D01*
X-6331777Y-1770167D01*
X-6293798Y-1736833D01*
X-6274808Y-1703500D01*
X-6255819Y-1636833D01*
X-6255819Y-1370167D01*
X-6065924Y-2436833D02*
X-6065924Y-2036833D01*
X-6065924Y-2236833D02*
X-6464704Y-2236833D01*
X-6407735Y-2170167D01*
X-6369756Y-2103500D01*
X-6350766Y-2036833D01*
D10*
X950000Y6396500D02*
X950000Y4296500D01*
X-2300000Y7171500D02*
X-2300000Y4296500D01*
X-2255534Y-453500D02*
G75*
G03X-2255534Y-453500I-4119466J0D01*
G01*
D12*
X4899020Y4683010D02*
X4899020Y5782830D01*
X4899020Y-4714990D02*
X4899020Y-5814810D01*
D13*
X-2505000Y6096500D02*
X-2505000Y5596500D01*
X-3445000Y5596500D02*
X-3445000Y6096500D01*
X-465000Y-4953500D02*
X-465000Y-6753500D01*
X-3685000Y-6753500D02*
X-3685000Y-4303500D01*
X-5725000Y-6583500D02*
X-5225000Y-6583500D01*
X-5225000Y-7523500D02*
X-5725000Y-7523500D01*
D10*
X-1025000Y-1903500D02*
X-1025000Y1096500D01*
X-1025000Y1096500D02*
X-525000Y1596500D01*
X-525000Y1596500D02*
X2475000Y1596500D01*
X2475000Y1596500D02*
X2475000Y-1903500D01*
X2475000Y-1903500D02*
X-1025000Y-1903500D01*
X-775000Y1346500D02*
X-775000Y1346500D01*
X-775000Y-1653500D02*
X-775000Y-1653500D01*
X-775000Y-1653500D02*
X-775000Y-1653500D01*
X2225000Y1346500D02*
X2225000Y1346500D01*
X2225000Y1346500D02*
X2225000Y1346500D01*
X2225000Y-1653500D02*
X2225000Y-1653500D01*
X2225000Y-1653500D02*
X2225000Y-1653500D01*
D13*
X3025000Y4796500D02*
X3025000Y6096500D01*
X1225000Y6346500D02*
X1225000Y4796500D01*
X2655000Y-5203500D02*
X2655000Y-4703500D01*
X3595000Y-4703500D02*
X3595000Y-5203500D01*
X-11825000Y896500D02*
X-10925000Y896500D01*
X-10925000Y896500D02*
X-10925000Y-553500D01*
X-11825000Y896500D02*
X-11825000Y-553500D01*
X-5225000Y-6083500D02*
X-5725000Y-6083500D01*
X-5725000Y-5023500D02*
X-5225000Y-5023500D01*
X1005000Y-5453500D02*
X1005000Y-5953500D01*
X-55000Y-5953500D02*
X-55000Y-5453500D01*
X-11955000Y-2303500D02*
X-11955000Y-1803500D01*
X-10895000Y-1803500D02*
X-10895000Y-2303500D01*
D10*
X-213095Y3294119D02*
X-213095Y2484595D01*
X-260714Y2389357D01*
X-308333Y2341738D01*
X-403571Y2294119D01*
X-594048Y2294119D01*
X-689286Y2341738D01*
X-736905Y2389357D01*
X-784524Y2484595D01*
X-784524Y3294119D01*
X-1689286Y2960786D02*
X-1689286Y2294119D01*
X-1451190Y3341738D02*
X-1213095Y2627452D01*
X-1832143Y2627452D01*
D14*
X7952381Y-6870167D02*
X8666667Y-6870167D01*
X8809524Y-6822547D01*
X8904762Y-6727309D01*
X8952381Y-6584452D01*
X8952381Y-6489214D01*
X8952381Y-7870167D02*
X8952381Y-7298738D01*
X8952381Y-7584452D02*
X7952381Y-7584452D01*
X8095238Y-7489214D01*
X8190476Y-7393976D01*
X8238095Y-7298738D01*
D15*
D10*
X-3717857Y6013166D02*
X-3670238Y6060785D01*
X-3622619Y6203642D01*
X-3622619Y6298880D01*
X-3670238Y6441738D01*
X-3765476Y6536976D01*
X-3860714Y6584595D01*
X-4051190Y6632214D01*
X-4194048Y6632214D01*
X-4384524Y6584595D01*
X-4479762Y6536976D01*
X-4575000Y6441738D01*
X-4622619Y6298880D01*
X-4622619Y6203642D01*
X-4575000Y6060785D01*
X-4527381Y6013166D01*
X-3622619Y5060785D02*
X-3622619Y5632214D01*
X-3622619Y5346500D02*
X-4622619Y5346500D01*
X-4479762Y5441738D01*
X-4384524Y5536976D01*
X-4336905Y5632214D01*
X-1013095Y-3005881D02*
X-1013095Y-3815405D01*
X-1060714Y-3910643D01*
X-1108333Y-3958262D01*
X-1203571Y-4005881D01*
X-1394048Y-4005881D01*
X-1489286Y-3958262D01*
X-1536905Y-3910643D01*
X-1584524Y-3815405D01*
X-1584524Y-3005881D01*
X-2013095Y-3101119D02*
X-2060714Y-3053500D01*
X-2155952Y-3005881D01*
X-2394048Y-3005881D01*
X-2489286Y-3053500D01*
X-2536905Y-3101119D01*
X-2584524Y-3196357D01*
X-2584524Y-3291595D01*
X-2536905Y-3434452D01*
X-1965476Y-4005881D01*
X-2584524Y-4005881D01*
X-7208334Y-7410643D02*
X-7160715Y-7458262D01*
X-7017858Y-7505881D01*
X-6922620Y-7505881D01*
X-6779762Y-7458262D01*
X-6684524Y-7363024D01*
X-6636905Y-7267786D01*
X-6589286Y-7077310D01*
X-6589286Y-6934452D01*
X-6636905Y-6743976D01*
X-6684524Y-6648738D01*
X-6779762Y-6553500D01*
X-6922620Y-6505881D01*
X-7017858Y-6505881D01*
X-7160715Y-6553500D01*
X-7208334Y-6601119D01*
X-7589286Y-6601119D02*
X-7636905Y-6553500D01*
X-7732143Y-6505881D01*
X-7970239Y-6505881D01*
X-8065477Y-6553500D01*
X-8113096Y-6601119D01*
X-8160715Y-6696357D01*
X-8160715Y-6791595D01*
X-8113096Y-6934452D01*
X-7541667Y-7505881D01*
X-8160715Y-7505881D01*
X2339286Y3003643D02*
X2339286Y2032214D01*
X2282143Y1917929D01*
X2225000Y1860786D01*
X2110714Y1803643D01*
X1882143Y1803643D01*
X1767857Y1860786D01*
X1710714Y1917929D01*
X1653571Y2032214D01*
X1653571Y3003643D01*
X453571Y1803643D02*
X1139286Y1803643D01*
X796428Y1803643D02*
X796428Y3003643D01*
X910714Y2832214D01*
X1025000Y2717929D01*
X1139286Y2660786D01*
X3477381Y6308405D02*
X4286905Y6308405D01*
X4382143Y6260786D01*
X4429762Y6213167D01*
X4477381Y6117929D01*
X4477381Y5927452D01*
X4429762Y5832214D01*
X4382143Y5784595D01*
X4286905Y5736976D01*
X3477381Y5736976D01*
X3477381Y5356024D02*
X3477381Y4736976D01*
X3858333Y5070310D01*
X3858333Y4927452D01*
X3905952Y4832214D01*
X3953571Y4784595D01*
X4048810Y4736976D01*
X4286905Y4736976D01*
X4382143Y4784595D01*
X4429762Y4832214D01*
X4477381Y4927452D01*
X4477381Y5213167D01*
X4429762Y5308405D01*
X4382143Y5356024D01*
X3382143Y-6686834D02*
X3429762Y-6639215D01*
X3477381Y-6496358D01*
X3477381Y-6401120D01*
X3429762Y-6258262D01*
X3334524Y-6163024D01*
X3239286Y-6115405D01*
X3048810Y-6067786D01*
X2905952Y-6067786D01*
X2715476Y-6115405D01*
X2620238Y-6163024D01*
X2525000Y-6258262D01*
X2477381Y-6401120D01*
X2477381Y-6496358D01*
X2525000Y-6639215D01*
X2572619Y-6686834D01*
X2477381Y-7020167D02*
X2477381Y-7639215D01*
X2858333Y-7305881D01*
X2858333Y-7448739D01*
X2905952Y-7543977D01*
X2953571Y-7591596D01*
X3048810Y-7639215D01*
X3286905Y-7639215D01*
X3382143Y-7591596D01*
X3429762Y-7543977D01*
X3477381Y-7448739D01*
X3477381Y-7163024D01*
X3429762Y-7067786D01*
X3382143Y-7020167D01*
X-10822619Y2934595D02*
X-11822619Y2934595D01*
X-11822619Y2696500D01*
X-11775000Y2553642D01*
X-11679762Y2458404D01*
X-11584524Y2410785D01*
X-11394048Y2363166D01*
X-11251190Y2363166D01*
X-11060714Y2410785D01*
X-10965476Y2458404D01*
X-10870238Y2553642D01*
X-10822619Y2696500D01*
X-10822619Y2934595D01*
X-10822619Y1410785D02*
X-10822619Y1982214D01*
X-10822619Y1696500D02*
X-11822619Y1696500D01*
X-11679762Y1791738D01*
X-11584524Y1886976D01*
X-11536905Y1982214D01*
X-6958334Y-5955881D02*
X-6625000Y-5479690D01*
X-6386905Y-5955881D02*
X-6386905Y-4955881D01*
X-6767858Y-4955881D01*
X-6863096Y-5003500D01*
X-6910715Y-5051119D01*
X-6958334Y-5146357D01*
X-6958334Y-5289214D01*
X-6910715Y-5384452D01*
X-6863096Y-5432071D01*
X-6767858Y-5479690D01*
X-6386905Y-5479690D01*
X-7910715Y-5955881D02*
X-7339286Y-5955881D01*
X-7625000Y-5955881D02*
X-7625000Y-4955881D01*
X-7529762Y-5098738D01*
X-7434524Y-5193976D01*
X-7339286Y-5241595D01*
X2177381Y-5136834D02*
X1701190Y-4803500D01*
X2177381Y-4565405D02*
X1177381Y-4565405D01*
X1177381Y-4946358D01*
X1225000Y-5041596D01*
X1272619Y-5089215D01*
X1367857Y-5136834D01*
X1510714Y-5136834D01*
X1605952Y-5089215D01*
X1653571Y-5041596D01*
X1701190Y-4946358D01*
X1701190Y-4565405D01*
X1272619Y-5517786D02*
X1225000Y-5565405D01*
X1177381Y-5660643D01*
X1177381Y-5898739D01*
X1225000Y-5993977D01*
X1272619Y-6041596D01*
X1367857Y-6089215D01*
X1463095Y-6089215D01*
X1605952Y-6041596D01*
X2177381Y-5470167D01*
X2177381Y-6089215D01*
X-10922619Y-3636834D02*
X-11398810Y-3303500D01*
X-10922619Y-3065405D02*
X-11922619Y-3065405D01*
X-11922619Y-3446358D01*
X-11875000Y-3541596D01*
X-11827381Y-3589215D01*
X-11732143Y-3636834D01*
X-11589286Y-3636834D01*
X-11494048Y-3589215D01*
X-11446429Y-3541596D01*
X-11398810Y-3446358D01*
X-11398810Y-3065405D01*
X-11922619Y-3970167D02*
X-11922619Y-4589215D01*
X-11541667Y-4255881D01*
X-11541667Y-4398739D01*
X-11494048Y-4493977D01*
X-11446429Y-4541596D01*
X-11351190Y-4589215D01*
X-11113095Y-4589215D01*
X-11017857Y-4541596D01*
X-10970238Y-4493977D01*
X-10922619Y-4398739D01*
X-10922619Y-4113024D01*
X-10970238Y-4017786D01*
X-11017857Y-3970167D01*
M02*
