G04 #@! TF.GenerationSoftware,KiCad,Pcbnew,(5.0.0-3-g5ebb6b6)*
G04 #@! TF.CreationDate,2018-08-18T00:05:47+02:00*
G04 #@! TF.ProjectId,nk-u2f,6E6B2D7532662E6B696361645F706362,R5*
G04 #@! TF.SameCoordinates,PX791ddc0PY5e69114*
G04 #@! TF.FileFunction,Copper,L1,Top,Signal*
G04 #@! TF.FilePolarity,Positive*
%FSLAX46Y46*%
G04 Gerber Fmt 4.6, Leading zero omitted, Abs format (unit mm)*
G04 Created by KiCad (PCBNEW (5.0.0-3-g5ebb6b6)) date Saturday, 18 August 2018 at 00:05:47*
%MOMM*%
%LPD*%
G01*
G04 APERTURE LIST*
G04 #@! TA.AperFunction,ComponentPad*
%ADD10C,1.099820*%
G04 #@! TD*
G04 #@! TA.AperFunction,ComponentPad*
%ADD11O,3.500120X1.501140*%
G04 #@! TD*
G04 #@! TA.AperFunction,BGAPad,CuDef*
%ADD12C,1.800000*%
G04 #@! TD*
G04 #@! TA.AperFunction,ViaPad*
%ADD13C,0.500000*%
G04 #@! TD*
G04 #@! TA.AperFunction,Conductor*
%ADD14C,0.500000*%
G04 #@! TD*
G04 #@! TA.AperFunction,Conductor*
%ADD15C,0.150000*%
G04 #@! TD*
G04 #@! TA.AperFunction,Conductor*
%ADD16C,0.254000*%
G04 #@! TD*
G04 APERTURE END LIST*
D10*
G04 #@! TO.P,J1,8*
G04 #@! TO.N,N/C*
X6999600Y2234450D03*
G04 #@! TO.P,J1,7*
X6999600Y-2266430D03*
D11*
G04 #@! TO.P,J1,6*
X6999600Y-5715750D03*
G04 #@! TO.P,J1,5*
X6999600Y5683770D03*
G04 #@! TD*
D12*
G04 #@! TO.P,TP1,1*
G04 #@! TO.N,/GND*
X6970000Y3866500D03*
G04 #@! TD*
G04 #@! TO.P,TP5,1*
G04 #@! TO.N,/C2CK*
X8240000Y1326500D03*
G04 #@! TD*
G04 #@! TO.P,TP2,1*
G04 #@! TO.N,/HD+*
X5700000Y1326500D03*
G04 #@! TD*
G04 #@! TO.P,TP3,1*
G04 #@! TO.N,/HD-*
X5700000Y-1213500D03*
G04 #@! TD*
G04 #@! TO.P,TP6,1*
G04 #@! TO.N,/C2D*
X8240000Y-1213500D03*
G04 #@! TD*
G04 #@! TO.P,TP4,1*
G04 #@! TO.N,/+5V*
X6970000Y-3753500D03*
G04 #@! TD*
D13*
G04 #@! TO.N,/+5V*
X8400600Y-3746600D03*
X3147880Y680620D03*
G04 #@! TO.N,/C2CK*
X7003602Y101500D03*
G04 #@! TO.N,/C2D*
X8235500Y-2654400D03*
G04 #@! TO.N,/HD+*
X1853305Y4089775D03*
X4278210Y2120800D03*
G04 #@! TO.N,/HD-*
X2529430Y4094134D03*
X3968300Y554D03*
G04 #@! TO.N,/Button*
X565156Y-5845599D03*
X-552900Y1701700D03*
G04 #@! TO.N,/SDA*
X642900Y4314514D03*
X1738210Y-2197192D03*
G04 #@! TO.N,/SCL*
X640376Y3640223D03*
X2418900Y-2171800D03*
G04 #@! TO.N,/LED*
X-1391100Y-4165700D03*
X-11614600Y1224180D03*
G04 #@! TO.N,/GND*
X3714300Y-5372200D03*
X-420330Y2338039D03*
X4044500Y5587900D03*
X7918000Y2832000D03*
X463100Y1981100D03*
X2304600Y-6159600D03*
X725000Y-153500D03*
G04 #@! TD*
D14*
G04 #@! TO.N,/+5V*
X6970000Y-3753500D02*
X5588100Y-3753500D01*
X5588100Y-3753500D02*
X3147880Y-1313280D01*
X3147880Y327067D02*
X3147880Y680620D01*
X3147880Y-1313280D02*
X3147880Y327067D01*
X8393700Y-3753500D02*
X8400600Y-3746600D01*
X6970000Y-3753500D02*
X8393700Y-3753500D01*
D15*
G04 #@! TO.N,/C2CK*
X7562402Y660300D02*
X7422702Y520600D01*
X7848602Y946500D02*
X7562402Y660300D01*
D14*
X7562402Y660300D02*
X7573800Y660300D01*
X7573800Y660300D02*
X8240000Y1326500D01*
X7422702Y520600D02*
X7003602Y101500D01*
D15*
X8525000Y946500D02*
X7848602Y946500D01*
G04 #@! TO.N,/C2D*
X8525000Y-1053500D02*
X8235500Y-1343000D01*
D14*
X8235500Y-1343000D02*
X8235500Y-2654400D01*
D16*
G04 #@! TO.N,/HD+*
X5175000Y1000010D02*
X5175000Y1218900D01*
D15*
X4278210Y2153790D02*
X4278210Y2120800D01*
X4108000Y2324000D02*
X4278210Y2153790D01*
D16*
X4383909Y2226499D02*
X4278210Y2120800D01*
D15*
X4108000Y3365400D02*
X4108000Y2324000D01*
D16*
X4800001Y2226499D02*
X4383909Y2226499D01*
D15*
X2332665Y4569135D02*
X2904265Y4569135D01*
D16*
X5700000Y1326500D02*
X4800001Y2226499D01*
D15*
X1853305Y4089775D02*
X2332665Y4569135D01*
X2904265Y4569135D02*
X4108000Y3365400D01*
D14*
G04 #@! TO.N,/HD-*
X4791400Y-304900D02*
X5803019Y-1316519D01*
X5803019Y-1316519D02*
X5700000Y-1213500D01*
D16*
X5175000Y-1016750D02*
X5175000Y-736900D01*
D15*
X3803200Y165654D02*
X3968300Y554D01*
X2934766Y4094134D02*
X3803200Y3225700D01*
D16*
X4485946Y554D02*
X4791400Y-304900D01*
D15*
X2529430Y4094134D02*
X2934766Y4094134D01*
D16*
X3968300Y554D02*
X4485946Y554D01*
D15*
X3803200Y3225700D02*
X3803200Y165654D01*
G04 #@! TO.N,/Button*
X114777Y-2213488D02*
X114777Y-5395220D01*
X114777Y-5395220D02*
X315157Y-5595600D01*
X315157Y-5595600D02*
X565156Y-5845599D01*
X114777Y1034023D02*
X114777Y-1859935D01*
X-552900Y1701700D02*
X114777Y1034023D01*
X114777Y-1859935D02*
X114777Y-2213488D01*
G04 #@! TO.N,/SDA*
X392901Y4064515D02*
X642900Y4314514D01*
X140499Y3812113D02*
X392901Y4064515D01*
X1738210Y1834956D02*
X140499Y3432667D01*
X1738210Y-2197192D02*
X1738210Y1834956D01*
X140499Y3432667D02*
X140499Y3812113D01*
G04 #@! TO.N,/SCL*
X2418900Y-2171800D02*
X2126800Y-1879700D01*
X2126800Y-1879700D02*
X2126800Y2153799D01*
X2126800Y2153799D02*
X640900Y3639699D01*
X640900Y3639699D02*
X640376Y3640223D01*
G04 #@! TO.N,/LED*
X-11614600Y1224180D02*
X-11614600Y-6705700D01*
X-11614600Y-6705700D02*
X-10522400Y-7797900D01*
X-10522400Y-7797900D02*
X-1708600Y-7797900D01*
X-1708600Y-7797900D02*
X-1391100Y-7480400D01*
X-1391100Y-7480400D02*
X-1391100Y-4165700D01*
D14*
G04 #@! TO.N,/GND*
X788190Y-1466690D02*
X788190Y-4643190D01*
X463100Y1981100D02*
X463100Y2438300D01*
X463100Y2438300D02*
X-972000Y3873400D01*
X-972000Y3873400D02*
X-972000Y5600437D01*
X-972000Y5600437D02*
X-972163Y5600600D01*
X6970000Y3866500D02*
X4330800Y3866500D01*
X4330800Y3866500D02*
X2634800Y5562500D01*
X2634800Y5562500D02*
X-934063Y5562500D01*
X-934063Y5562500D02*
X-972163Y5600600D01*
X-972163Y5600600D02*
X-972163Y7289863D01*
X-972163Y7289863D02*
X-1340300Y7658000D01*
X-1340300Y7658000D02*
X-8274500Y7658000D01*
X-8274500Y7658000D02*
X-9744294Y6188206D01*
X-9744294Y6188206D02*
X-10067010Y6188206D01*
X-10067010Y6188206D02*
X-9912652Y6033848D01*
D16*
X-9540000Y6406500D02*
X-9390000Y6406500D01*
D14*
X463100Y1981100D02*
X725000Y1719200D01*
X725000Y1719200D02*
X725000Y-153500D01*
X6970000Y3866500D02*
X6970000Y3780000D01*
X6970000Y3780000D02*
X7918000Y2832000D01*
X788190Y-4643190D02*
X2304600Y-6159600D01*
X725000Y-153500D02*
X725000Y-1403500D01*
X725000Y-1403500D02*
X788190Y-1466690D01*
G04 #@! TD*
D15*
G04 #@! TO.N,/GND*
G36*
X3375470Y7109982D02*
X3374142Y7096500D01*
X3379443Y7042683D01*
X3395140Y6990934D01*
X3420632Y6943242D01*
X3454939Y6901439D01*
X3496742Y6867132D01*
X3544434Y6841640D01*
X3596183Y6825943D01*
X3650000Y6820642D01*
X3663482Y6821970D01*
X4336518Y6821970D01*
X4350000Y6820642D01*
X4363482Y6821970D01*
X4403817Y6825943D01*
X4455566Y6841640D01*
X4503258Y6867132D01*
X4545061Y6901439D01*
X4579368Y6943242D01*
X4604860Y6990934D01*
X4620557Y7042683D01*
X4625858Y7096500D01*
X4624530Y7109982D01*
X4624530Y7846970D01*
X9225071Y7846970D01*
X9225071Y1877184D01*
X9113844Y2043645D01*
X8957145Y2200344D01*
X8772887Y2323462D01*
X8568150Y2408267D01*
X8350803Y2451500D01*
X8129197Y2451500D01*
X7911850Y2408267D01*
X7767047Y2348288D01*
X7744730Y2460483D01*
X7686316Y2601507D01*
X7601512Y2728426D01*
X7510460Y2819478D01*
X7593422Y2863823D01*
X7693852Y3022440D01*
X6970000Y3746292D01*
X6246148Y3022440D01*
X6346578Y2863823D01*
X6471493Y2802231D01*
X6397688Y2728426D01*
X6312884Y2601507D01*
X6254470Y2460483D01*
X6227646Y2325633D01*
X6028150Y2408267D01*
X5810803Y2451500D01*
X5589197Y2451500D01*
X5371850Y2408267D01*
X5190962Y2333341D01*
X5061136Y2463167D01*
X5050107Y2476605D01*
X4996508Y2520592D01*
X4935357Y2553278D01*
X4869005Y2573406D01*
X4817293Y2578499D01*
X4817290Y2578499D01*
X4800001Y2580202D01*
X4782712Y2578499D01*
X4411971Y2578499D01*
X4408000Y2579289D01*
X4408000Y3350678D01*
X4409450Y3365401D01*
X4408000Y3380124D01*
X4408000Y3380133D01*
X4403659Y3424210D01*
X4386504Y3480760D01*
X4367425Y3516455D01*
X4358647Y3532878D01*
X4330549Y3567115D01*
X4321158Y3578558D01*
X4309716Y3587947D01*
X4069864Y3827799D01*
X5789949Y3827799D01*
X5820174Y3598326D01*
X5894586Y3379158D01*
X5967323Y3243078D01*
X6125940Y3142648D01*
X6849792Y3866500D01*
X7090208Y3866500D01*
X7814060Y3142648D01*
X7972677Y3243078D01*
X8075035Y3450670D01*
X8134927Y3674241D01*
X8150051Y3905201D01*
X8119826Y4134674D01*
X8045414Y4353842D01*
X7972677Y4489922D01*
X7814060Y4590352D01*
X7090208Y3866500D01*
X6849792Y3866500D01*
X6125940Y4590352D01*
X5967323Y4489922D01*
X5864965Y4282330D01*
X5805073Y4058759D01*
X5789949Y3827799D01*
X4069864Y3827799D01*
X3126818Y4770845D01*
X3117423Y4782293D01*
X3071742Y4819782D01*
X3019625Y4847639D01*
X2963075Y4864794D01*
X2918998Y4869135D01*
X2918988Y4869135D01*
X2904265Y4870585D01*
X2889542Y4869135D01*
X2347387Y4869135D01*
X2332664Y4870585D01*
X2317941Y4869135D01*
X2317932Y4869135D01*
X2273855Y4864794D01*
X2217305Y4847639D01*
X2193044Y4834671D01*
X2165187Y4819782D01*
X2130950Y4791684D01*
X2119507Y4782293D01*
X2110116Y4770850D01*
X1903386Y4564119D01*
X1900088Y4564775D01*
X1806522Y4564775D01*
X1714753Y4546521D01*
X1628308Y4510714D01*
X1550510Y4458731D01*
X1484349Y4392570D01*
X1432366Y4314772D01*
X1396559Y4228327D01*
X1378305Y4136558D01*
X1378305Y4042992D01*
X1396559Y3951223D01*
X1432366Y3864778D01*
X1484349Y3786980D01*
X1550510Y3720819D01*
X1628308Y3668836D01*
X1714753Y3633029D01*
X1806522Y3614775D01*
X1900088Y3614775D01*
X1991857Y3633029D01*
X2078302Y3668836D01*
X2156100Y3720819D01*
X2193547Y3758266D01*
X2226635Y3725178D01*
X2304433Y3673195D01*
X2390878Y3637388D01*
X2482647Y3619134D01*
X2576213Y3619134D01*
X2667982Y3637388D01*
X2754427Y3673195D01*
X2832225Y3725178D01*
X2855842Y3748795D01*
X3503200Y3101436D01*
X3503201Y997050D01*
X3500259Y999992D01*
X3485381Y1018121D01*
X3467252Y1032999D01*
X3450675Y1049576D01*
X3431183Y1062600D01*
X3413053Y1077479D01*
X3392370Y1088534D01*
X3372877Y1101559D01*
X3351216Y1110531D01*
X3330534Y1121586D01*
X3308095Y1128393D01*
X3286432Y1137366D01*
X3263433Y1141941D01*
X3240996Y1148747D01*
X3217662Y1151045D01*
X3194663Y1155620D01*
X3171212Y1155620D01*
X3147880Y1157918D01*
X3124548Y1155620D01*
X3101097Y1155620D01*
X3078097Y1151045D01*
X3054765Y1148747D01*
X3032330Y1141941D01*
X3009328Y1137366D01*
X2987662Y1128392D01*
X2965227Y1121586D01*
X2944549Y1110533D01*
X2922883Y1101559D01*
X2903386Y1088532D01*
X2882708Y1077479D01*
X2864583Y1062604D01*
X2845085Y1049576D01*
X2828504Y1032995D01*
X2810380Y1018121D01*
X2795506Y999997D01*
X2778924Y983415D01*
X2765895Y963916D01*
X2751022Y945793D01*
X2739971Y925117D01*
X2726941Y905617D01*
X2717965Y883947D01*
X2706915Y863274D01*
X2700110Y840842D01*
X2691134Y819172D01*
X2686559Y796171D01*
X2679753Y773736D01*
X2677455Y750403D01*
X2672880Y727403D01*
X2672880Y303736D01*
X2672881Y303726D01*
X2672880Y-1289947D01*
X2670582Y-1313280D01*
X2679753Y-1406396D01*
X2680736Y-1409635D01*
X2706914Y-1495933D01*
X2751021Y-1578453D01*
X2810379Y-1650781D01*
X2828514Y-1665664D01*
X5235721Y-4072872D01*
X5250599Y-4091001D01*
X5322927Y-4150359D01*
X5405446Y-4194466D01*
X5464840Y-4212483D01*
X5494983Y-4221627D01*
X5588099Y-4230798D01*
X5611431Y-4228500D01*
X5949060Y-4228500D01*
X5973038Y-4286387D01*
X6096156Y-4470645D01*
X6252855Y-4627344D01*
X6421725Y-4740180D01*
X5952187Y-4740180D01*
X5808865Y-4754296D01*
X5624969Y-4810080D01*
X5455490Y-4900669D01*
X5306940Y-5022580D01*
X5185029Y-5171130D01*
X5094440Y-5340609D01*
X5038656Y-5524505D01*
X5019820Y-5715750D01*
X5038656Y-5906995D01*
X5094440Y-6090891D01*
X5185029Y-6260370D01*
X5306940Y-6408920D01*
X5455490Y-6530831D01*
X5624969Y-6621420D01*
X5808865Y-6677204D01*
X5952187Y-6691320D01*
X8047013Y-6691320D01*
X8190335Y-6677204D01*
X8374231Y-6621420D01*
X8543710Y-6530831D01*
X8692260Y-6408920D01*
X8814171Y-6260370D01*
X8904760Y-6090891D01*
X8960544Y-5906995D01*
X8979380Y-5715750D01*
X8960544Y-5524505D01*
X8904760Y-5340609D01*
X8814171Y-5171130D01*
X8692260Y-5022580D01*
X8543710Y-4900669D01*
X8374231Y-4810080D01*
X8190335Y-4754296D01*
X8047013Y-4740180D01*
X7518275Y-4740180D01*
X7687145Y-4627344D01*
X7843844Y-4470645D01*
X7966962Y-4286387D01*
X7990940Y-4228500D01*
X8370368Y-4228500D01*
X8393700Y-4230798D01*
X8417032Y-4228500D01*
X8486816Y-4221627D01*
X8576354Y-4194466D01*
X8658873Y-4150359D01*
X8692016Y-4123159D01*
X8703395Y-4115556D01*
X8713072Y-4105879D01*
X8731201Y-4091001D01*
X8746079Y-4072872D01*
X8769556Y-4049395D01*
X8782589Y-4029890D01*
X8797458Y-4011772D01*
X8808507Y-3991100D01*
X8821539Y-3971597D01*
X8830515Y-3949926D01*
X8841565Y-3929254D01*
X8848370Y-3906822D01*
X8857346Y-3885152D01*
X8861921Y-3862151D01*
X8868727Y-3839716D01*
X8871025Y-3816382D01*
X8875600Y-3793383D01*
X8875600Y-3769933D01*
X8877898Y-3746601D01*
X8875600Y-3723268D01*
X8875600Y-3699817D01*
X8871025Y-3676817D01*
X8868727Y-3653484D01*
X8861921Y-3631049D01*
X8857346Y-3608048D01*
X8848370Y-3586378D01*
X8841565Y-3563946D01*
X8830515Y-3543274D01*
X8821539Y-3521603D01*
X8808507Y-3502100D01*
X8797458Y-3481428D01*
X8782588Y-3463309D01*
X8769556Y-3443805D01*
X8752969Y-3427218D01*
X8738100Y-3409100D01*
X8719982Y-3394231D01*
X8703395Y-3377644D01*
X8683891Y-3364612D01*
X8665772Y-3349742D01*
X8645100Y-3338693D01*
X8625597Y-3325661D01*
X8603926Y-3316685D01*
X8583254Y-3305635D01*
X8560822Y-3298830D01*
X8539152Y-3289854D01*
X8516151Y-3285279D01*
X8493716Y-3278473D01*
X8470383Y-3276175D01*
X8447383Y-3271600D01*
X8423932Y-3271600D01*
X8400599Y-3269302D01*
X8377267Y-3271600D01*
X8353817Y-3271600D01*
X8330818Y-3276175D01*
X8307484Y-3278473D01*
X8307395Y-3278500D01*
X7990940Y-3278500D01*
X7966962Y-3220613D01*
X7843844Y-3036355D01*
X7687145Y-2879656D01*
X7564327Y-2797591D01*
X7601512Y-2760406D01*
X7686316Y-2633487D01*
X7744730Y-2492463D01*
X7760501Y-2413179D01*
X7760501Y-2607612D01*
X7760500Y-2607617D01*
X7760500Y-2701183D01*
X7765077Y-2724193D01*
X7767374Y-2747516D01*
X7774177Y-2769944D01*
X7778754Y-2792952D01*
X7787731Y-2814624D01*
X7794535Y-2837054D01*
X7805585Y-2857727D01*
X7814561Y-2879397D01*
X7827591Y-2898897D01*
X7838642Y-2919573D01*
X7853515Y-2937696D01*
X7866544Y-2957195D01*
X7883126Y-2973777D01*
X7898000Y-2991901D01*
X7916124Y-3006775D01*
X7932705Y-3023356D01*
X7952203Y-3036384D01*
X7970328Y-3051259D01*
X7991006Y-3062312D01*
X8010503Y-3075339D01*
X8032169Y-3084313D01*
X8052847Y-3095366D01*
X8075282Y-3102172D01*
X8096948Y-3111146D01*
X8119950Y-3115721D01*
X8142385Y-3122527D01*
X8165717Y-3124825D01*
X8188717Y-3129400D01*
X8212168Y-3129400D01*
X8235500Y-3131698D01*
X8258832Y-3129400D01*
X8282283Y-3129400D01*
X8305282Y-3124825D01*
X8328616Y-3122527D01*
X8351053Y-3115721D01*
X8374052Y-3111146D01*
X8395715Y-3102173D01*
X8418154Y-3095366D01*
X8438836Y-3084311D01*
X8460497Y-3075339D01*
X8479990Y-3062314D01*
X8500673Y-3051259D01*
X8518803Y-3036380D01*
X8538295Y-3023356D01*
X8554872Y-3006779D01*
X8573001Y-2991901D01*
X8587879Y-2973772D01*
X8604456Y-2957195D01*
X8617480Y-2937703D01*
X8632359Y-2919573D01*
X8643414Y-2898890D01*
X8656439Y-2879397D01*
X8665411Y-2857736D01*
X8676466Y-2837054D01*
X8683273Y-2814615D01*
X8692246Y-2792952D01*
X8696821Y-2769953D01*
X8703627Y-2747516D01*
X8705925Y-2724183D01*
X8710500Y-2701183D01*
X8710500Y-2236304D01*
X8772887Y-2210462D01*
X8957145Y-2087344D01*
X9113844Y-1930645D01*
X9225070Y-1764184D01*
X9225070Y-7878970D01*
X4624530Y-7878970D01*
X4624530Y-7116982D01*
X4625858Y-7103500D01*
X4620557Y-7049683D01*
X4604860Y-6997934D01*
X4579368Y-6950242D01*
X4545061Y-6908439D01*
X4503258Y-6874132D01*
X4455566Y-6848640D01*
X4403817Y-6832943D01*
X4363482Y-6828970D01*
X4350000Y-6827642D01*
X4336518Y-6828970D01*
X3663482Y-6828970D01*
X3650000Y-6827642D01*
X3636518Y-6828970D01*
X3596183Y-6832943D01*
X3544434Y-6848640D01*
X3496742Y-6874132D01*
X3454939Y-6908439D01*
X3420632Y-6950242D01*
X3395140Y-6997934D01*
X3379443Y-7049683D01*
X3374142Y-7103500D01*
X3375470Y-7116982D01*
X3375471Y-7878970D01*
X-1365407Y-7878970D01*
X-1189384Y-7702948D01*
X-1177942Y-7693558D01*
X-1168551Y-7682115D01*
X-1140453Y-7647878D01*
X-1112596Y-7595761D01*
X-1108603Y-7582599D01*
X-1095441Y-7539210D01*
X-1091100Y-7495133D01*
X-1091100Y-7495130D01*
X-1089649Y-7480400D01*
X-1091100Y-7465670D01*
X-1091100Y-4536524D01*
X-1088305Y-4534656D01*
X-1022144Y-4468495D01*
X-970161Y-4390697D01*
X-934354Y-4304252D01*
X-916100Y-4212483D01*
X-916100Y-4118917D01*
X-934354Y-4027148D01*
X-970161Y-3940703D01*
X-1022144Y-3862905D01*
X-1088305Y-3796744D01*
X-1166103Y-3744761D01*
X-1252548Y-3708954D01*
X-1344317Y-3690700D01*
X-1437883Y-3690700D01*
X-1529652Y-3708954D01*
X-1616097Y-3744761D01*
X-1693895Y-3796744D01*
X-1760056Y-3862905D01*
X-1812039Y-3940703D01*
X-1847846Y-4027148D01*
X-1866100Y-4118917D01*
X-1866100Y-4212483D01*
X-1847846Y-4304252D01*
X-1812039Y-4390697D01*
X-1760056Y-4468495D01*
X-1693895Y-4534656D01*
X-1691099Y-4536524D01*
X-1691100Y-7356136D01*
X-1832863Y-7497900D01*
X-10398136Y-7497900D01*
X-11314600Y-6581437D01*
X-11314600Y853356D01*
X-11311805Y855224D01*
X-11245644Y921385D01*
X-11193661Y999183D01*
X-11157854Y1085628D01*
X-11139600Y1177397D01*
X-11139600Y1270963D01*
X-11157854Y1362732D01*
X-11193661Y1449177D01*
X-11245644Y1526975D01*
X-11311805Y1593136D01*
X-11389603Y1645119D01*
X-11476048Y1680926D01*
X-11567817Y1699180D01*
X-11661383Y1699180D01*
X-11753152Y1680926D01*
X-11839597Y1645119D01*
X-11917395Y1593136D01*
X-11983556Y1526975D01*
X-12000470Y1501661D01*
X-12000470Y1748483D01*
X-1027900Y1748483D01*
X-1027900Y1654917D01*
X-1009646Y1563148D01*
X-973839Y1476703D01*
X-921856Y1398905D01*
X-855695Y1332744D01*
X-777897Y1280761D01*
X-691452Y1244954D01*
X-599683Y1226700D01*
X-506117Y1226700D01*
X-502819Y1227356D01*
X-185223Y909759D01*
X-185222Y-1845193D01*
X-185223Y-1845203D01*
X-185223Y-2198756D01*
X-185222Y-5380487D01*
X-186673Y-5395220D01*
X-180881Y-5454030D01*
X-163726Y-5510580D01*
X-135870Y-5562697D01*
X-108867Y-5595600D01*
X-98380Y-5608378D01*
X-86937Y-5617769D01*
X90812Y-5795518D01*
X90156Y-5798816D01*
X90156Y-5892382D01*
X108410Y-5984151D01*
X144217Y-6070596D01*
X196200Y-6148394D01*
X262361Y-6214555D01*
X340159Y-6266538D01*
X426604Y-6302345D01*
X518373Y-6320599D01*
X611939Y-6320599D01*
X703708Y-6302345D01*
X790153Y-6266538D01*
X867951Y-6214555D01*
X934112Y-6148394D01*
X986095Y-6070596D01*
X1021902Y-5984151D01*
X1040156Y-5892382D01*
X1040156Y-5798816D01*
X1021902Y-5707047D01*
X986095Y-5620602D01*
X934112Y-5542804D01*
X867951Y-5476643D01*
X790153Y-5424660D01*
X703708Y-5388853D01*
X611939Y-5370599D01*
X518373Y-5370599D01*
X515075Y-5371255D01*
X414777Y-5270957D01*
X414777Y1019293D01*
X416228Y1034023D01*
X413949Y1057159D01*
X410436Y1092833D01*
X393281Y1149383D01*
X378307Y1177397D01*
X365424Y1201501D01*
X337326Y1235738D01*
X327935Y1247181D01*
X316493Y1256571D01*
X-78556Y1651619D01*
X-77900Y1654917D01*
X-77900Y1748483D01*
X-96154Y1840252D01*
X-131961Y1926697D01*
X-183944Y2004495D01*
X-250105Y2070656D01*
X-327903Y2122639D01*
X-414348Y2158446D01*
X-506117Y2176700D01*
X-599683Y2176700D01*
X-691452Y2158446D01*
X-777897Y2122639D01*
X-855695Y2070656D01*
X-921856Y2004495D01*
X-973839Y1926697D01*
X-1009646Y1840252D01*
X-1027900Y1748483D01*
X-12000470Y1748483D01*
X-12000470Y3812113D01*
X-160951Y3812113D01*
X-159501Y3797390D01*
X-159501Y3447390D01*
X-160951Y3432667D01*
X-159501Y3417944D01*
X-159501Y3417935D01*
X-155160Y3373858D01*
X-138005Y3317308D01*
X-125037Y3293047D01*
X-110148Y3265190D01*
X-97715Y3250041D01*
X-72659Y3219509D01*
X-61211Y3210114D01*
X1438211Y1710691D01*
X1438210Y-1826368D01*
X1435415Y-1828236D01*
X1369254Y-1894397D01*
X1317271Y-1972195D01*
X1281464Y-2058640D01*
X1263210Y-2150409D01*
X1263210Y-2243975D01*
X1281464Y-2335744D01*
X1317271Y-2422189D01*
X1369254Y-2499987D01*
X1435415Y-2566148D01*
X1513213Y-2618131D01*
X1599658Y-2653938D01*
X1691427Y-2672192D01*
X1784993Y-2672192D01*
X1876762Y-2653938D01*
X1963207Y-2618131D01*
X2041005Y-2566148D01*
X2091251Y-2515902D01*
X2116105Y-2540756D01*
X2193903Y-2592739D01*
X2280348Y-2628546D01*
X2372117Y-2646800D01*
X2465683Y-2646800D01*
X2557452Y-2628546D01*
X2643897Y-2592739D01*
X2721695Y-2540756D01*
X2787856Y-2474595D01*
X2839839Y-2396797D01*
X2875646Y-2310352D01*
X2893900Y-2218583D01*
X2893900Y-2125017D01*
X2875646Y-2033248D01*
X2839839Y-1946803D01*
X2787856Y-1869005D01*
X2721695Y-1802844D01*
X2643897Y-1750861D01*
X2557452Y-1715054D01*
X2465683Y-1696800D01*
X2426800Y-1696800D01*
X2426800Y2139076D01*
X2428250Y2153799D01*
X2426800Y2168523D01*
X2426800Y2168532D01*
X2422459Y2212609D01*
X2405304Y2269159D01*
X2383866Y2309267D01*
X2377447Y2321277D01*
X2349349Y2355514D01*
X2339958Y2366957D01*
X2328515Y2376348D01*
X1114720Y3590142D01*
X1115376Y3593440D01*
X1115376Y3687006D01*
X1097122Y3778775D01*
X1061315Y3865220D01*
X1009332Y3943018D01*
X976244Y3976106D01*
X1011856Y4011719D01*
X1063839Y4089517D01*
X1099646Y4175962D01*
X1117900Y4267731D01*
X1117900Y4361297D01*
X1099646Y4453066D01*
X1063839Y4539511D01*
X1011856Y4617309D01*
X945695Y4683470D01*
X867897Y4735453D01*
X781452Y4771260D01*
X689683Y4789514D01*
X596117Y4789514D01*
X504348Y4771260D01*
X417903Y4735453D01*
X340105Y4683470D01*
X273944Y4617309D01*
X221961Y4539511D01*
X186154Y4453066D01*
X167900Y4361297D01*
X167900Y4267731D01*
X168556Y4264434D01*
X-61216Y4034661D01*
X-72658Y4025271D01*
X-82049Y4013828D01*
X-82050Y4013827D01*
X-110148Y3979590D01*
X-129695Y3943018D01*
X-138004Y3927473D01*
X-155160Y3870923D01*
X-159501Y3826846D01*
X-159501Y3826836D01*
X-160951Y3812113D01*
X-12000470Y3812113D01*
X-12000470Y5683770D01*
X5019820Y5683770D01*
X5038656Y5492525D01*
X5094440Y5308629D01*
X5185029Y5139150D01*
X5306940Y4990600D01*
X5455490Y4868689D01*
X5624969Y4778100D01*
X5808865Y4722316D01*
X5952187Y4708200D01*
X6248508Y4708200D01*
X6970000Y3986708D01*
X7691492Y4708200D01*
X8047013Y4708200D01*
X8190335Y4722316D01*
X8374231Y4778100D01*
X8543710Y4868689D01*
X8692260Y4990600D01*
X8814171Y5139150D01*
X8904760Y5308629D01*
X8960544Y5492525D01*
X8979380Y5683770D01*
X8960544Y5875015D01*
X8904760Y6058911D01*
X8814171Y6228390D01*
X8692260Y6376940D01*
X8543710Y6498851D01*
X8374231Y6589440D01*
X8190335Y6645224D01*
X8047013Y6659340D01*
X5952187Y6659340D01*
X5808865Y6645224D01*
X5624969Y6589440D01*
X5455490Y6498851D01*
X5306940Y6376940D01*
X5185029Y6228390D01*
X5094440Y6058911D01*
X5038656Y5875015D01*
X5019820Y5683770D01*
X-12000470Y5683770D01*
X-12000470Y7846970D01*
X3375471Y7846970D01*
X3375470Y7109982D01*
X3375470Y7109982D01*
G37*
X3375470Y7109982D02*
X3374142Y7096500D01*
X3379443Y7042683D01*
X3395140Y6990934D01*
X3420632Y6943242D01*
X3454939Y6901439D01*
X3496742Y6867132D01*
X3544434Y6841640D01*
X3596183Y6825943D01*
X3650000Y6820642D01*
X3663482Y6821970D01*
X4336518Y6821970D01*
X4350000Y6820642D01*
X4363482Y6821970D01*
X4403817Y6825943D01*
X4455566Y6841640D01*
X4503258Y6867132D01*
X4545061Y6901439D01*
X4579368Y6943242D01*
X4604860Y6990934D01*
X4620557Y7042683D01*
X4625858Y7096500D01*
X4624530Y7109982D01*
X4624530Y7846970D01*
X9225071Y7846970D01*
X9225071Y1877184D01*
X9113844Y2043645D01*
X8957145Y2200344D01*
X8772887Y2323462D01*
X8568150Y2408267D01*
X8350803Y2451500D01*
X8129197Y2451500D01*
X7911850Y2408267D01*
X7767047Y2348288D01*
X7744730Y2460483D01*
X7686316Y2601507D01*
X7601512Y2728426D01*
X7510460Y2819478D01*
X7593422Y2863823D01*
X7693852Y3022440D01*
X6970000Y3746292D01*
X6246148Y3022440D01*
X6346578Y2863823D01*
X6471493Y2802231D01*
X6397688Y2728426D01*
X6312884Y2601507D01*
X6254470Y2460483D01*
X6227646Y2325633D01*
X6028150Y2408267D01*
X5810803Y2451500D01*
X5589197Y2451500D01*
X5371850Y2408267D01*
X5190962Y2333341D01*
X5061136Y2463167D01*
X5050107Y2476605D01*
X4996508Y2520592D01*
X4935357Y2553278D01*
X4869005Y2573406D01*
X4817293Y2578499D01*
X4817290Y2578499D01*
X4800001Y2580202D01*
X4782712Y2578499D01*
X4411971Y2578499D01*
X4408000Y2579289D01*
X4408000Y3350678D01*
X4409450Y3365401D01*
X4408000Y3380124D01*
X4408000Y3380133D01*
X4403659Y3424210D01*
X4386504Y3480760D01*
X4367425Y3516455D01*
X4358647Y3532878D01*
X4330549Y3567115D01*
X4321158Y3578558D01*
X4309716Y3587947D01*
X4069864Y3827799D01*
X5789949Y3827799D01*
X5820174Y3598326D01*
X5894586Y3379158D01*
X5967323Y3243078D01*
X6125940Y3142648D01*
X6849792Y3866500D01*
X7090208Y3866500D01*
X7814060Y3142648D01*
X7972677Y3243078D01*
X8075035Y3450670D01*
X8134927Y3674241D01*
X8150051Y3905201D01*
X8119826Y4134674D01*
X8045414Y4353842D01*
X7972677Y4489922D01*
X7814060Y4590352D01*
X7090208Y3866500D01*
X6849792Y3866500D01*
X6125940Y4590352D01*
X5967323Y4489922D01*
X5864965Y4282330D01*
X5805073Y4058759D01*
X5789949Y3827799D01*
X4069864Y3827799D01*
X3126818Y4770845D01*
X3117423Y4782293D01*
X3071742Y4819782D01*
X3019625Y4847639D01*
X2963075Y4864794D01*
X2918998Y4869135D01*
X2918988Y4869135D01*
X2904265Y4870585D01*
X2889542Y4869135D01*
X2347387Y4869135D01*
X2332664Y4870585D01*
X2317941Y4869135D01*
X2317932Y4869135D01*
X2273855Y4864794D01*
X2217305Y4847639D01*
X2193044Y4834671D01*
X2165187Y4819782D01*
X2130950Y4791684D01*
X2119507Y4782293D01*
X2110116Y4770850D01*
X1903386Y4564119D01*
X1900088Y4564775D01*
X1806522Y4564775D01*
X1714753Y4546521D01*
X1628308Y4510714D01*
X1550510Y4458731D01*
X1484349Y4392570D01*
X1432366Y4314772D01*
X1396559Y4228327D01*
X1378305Y4136558D01*
X1378305Y4042992D01*
X1396559Y3951223D01*
X1432366Y3864778D01*
X1484349Y3786980D01*
X1550510Y3720819D01*
X1628308Y3668836D01*
X1714753Y3633029D01*
X1806522Y3614775D01*
X1900088Y3614775D01*
X1991857Y3633029D01*
X2078302Y3668836D01*
X2156100Y3720819D01*
X2193547Y3758266D01*
X2226635Y3725178D01*
X2304433Y3673195D01*
X2390878Y3637388D01*
X2482647Y3619134D01*
X2576213Y3619134D01*
X2667982Y3637388D01*
X2754427Y3673195D01*
X2832225Y3725178D01*
X2855842Y3748795D01*
X3503200Y3101436D01*
X3503201Y997050D01*
X3500259Y999992D01*
X3485381Y1018121D01*
X3467252Y1032999D01*
X3450675Y1049576D01*
X3431183Y1062600D01*
X3413053Y1077479D01*
X3392370Y1088534D01*
X3372877Y1101559D01*
X3351216Y1110531D01*
X3330534Y1121586D01*
X3308095Y1128393D01*
X3286432Y1137366D01*
X3263433Y1141941D01*
X3240996Y1148747D01*
X3217662Y1151045D01*
X3194663Y1155620D01*
X3171212Y1155620D01*
X3147880Y1157918D01*
X3124548Y1155620D01*
X3101097Y1155620D01*
X3078097Y1151045D01*
X3054765Y1148747D01*
X3032330Y1141941D01*
X3009328Y1137366D01*
X2987662Y1128392D01*
X2965227Y1121586D01*
X2944549Y1110533D01*
X2922883Y1101559D01*
X2903386Y1088532D01*
X2882708Y1077479D01*
X2864583Y1062604D01*
X2845085Y1049576D01*
X2828504Y1032995D01*
X2810380Y1018121D01*
X2795506Y999997D01*
X2778924Y983415D01*
X2765895Y963916D01*
X2751022Y945793D01*
X2739971Y925117D01*
X2726941Y905617D01*
X2717965Y883947D01*
X2706915Y863274D01*
X2700110Y840842D01*
X2691134Y819172D01*
X2686559Y796171D01*
X2679753Y773736D01*
X2677455Y750403D01*
X2672880Y727403D01*
X2672880Y303736D01*
X2672881Y303726D01*
X2672880Y-1289947D01*
X2670582Y-1313280D01*
X2679753Y-1406396D01*
X2680736Y-1409635D01*
X2706914Y-1495933D01*
X2751021Y-1578453D01*
X2810379Y-1650781D01*
X2828514Y-1665664D01*
X5235721Y-4072872D01*
X5250599Y-4091001D01*
X5322927Y-4150359D01*
X5405446Y-4194466D01*
X5464840Y-4212483D01*
X5494983Y-4221627D01*
X5588099Y-4230798D01*
X5611431Y-4228500D01*
X5949060Y-4228500D01*
X5973038Y-4286387D01*
X6096156Y-4470645D01*
X6252855Y-4627344D01*
X6421725Y-4740180D01*
X5952187Y-4740180D01*
X5808865Y-4754296D01*
X5624969Y-4810080D01*
X5455490Y-4900669D01*
X5306940Y-5022580D01*
X5185029Y-5171130D01*
X5094440Y-5340609D01*
X5038656Y-5524505D01*
X5019820Y-5715750D01*
X5038656Y-5906995D01*
X5094440Y-6090891D01*
X5185029Y-6260370D01*
X5306940Y-6408920D01*
X5455490Y-6530831D01*
X5624969Y-6621420D01*
X5808865Y-6677204D01*
X5952187Y-6691320D01*
X8047013Y-6691320D01*
X8190335Y-6677204D01*
X8374231Y-6621420D01*
X8543710Y-6530831D01*
X8692260Y-6408920D01*
X8814171Y-6260370D01*
X8904760Y-6090891D01*
X8960544Y-5906995D01*
X8979380Y-5715750D01*
X8960544Y-5524505D01*
X8904760Y-5340609D01*
X8814171Y-5171130D01*
X8692260Y-5022580D01*
X8543710Y-4900669D01*
X8374231Y-4810080D01*
X8190335Y-4754296D01*
X8047013Y-4740180D01*
X7518275Y-4740180D01*
X7687145Y-4627344D01*
X7843844Y-4470645D01*
X7966962Y-4286387D01*
X7990940Y-4228500D01*
X8370368Y-4228500D01*
X8393700Y-4230798D01*
X8417032Y-4228500D01*
X8486816Y-4221627D01*
X8576354Y-4194466D01*
X8658873Y-4150359D01*
X8692016Y-4123159D01*
X8703395Y-4115556D01*
X8713072Y-4105879D01*
X8731201Y-4091001D01*
X8746079Y-4072872D01*
X8769556Y-4049395D01*
X8782589Y-4029890D01*
X8797458Y-4011772D01*
X8808507Y-3991100D01*
X8821539Y-3971597D01*
X8830515Y-3949926D01*
X8841565Y-3929254D01*
X8848370Y-3906822D01*
X8857346Y-3885152D01*
X8861921Y-3862151D01*
X8868727Y-3839716D01*
X8871025Y-3816382D01*
X8875600Y-3793383D01*
X8875600Y-3769933D01*
X8877898Y-3746601D01*
X8875600Y-3723268D01*
X8875600Y-3699817D01*
X8871025Y-3676817D01*
X8868727Y-3653484D01*
X8861921Y-3631049D01*
X8857346Y-3608048D01*
X8848370Y-3586378D01*
X8841565Y-3563946D01*
X8830515Y-3543274D01*
X8821539Y-3521603D01*
X8808507Y-3502100D01*
X8797458Y-3481428D01*
X8782588Y-3463309D01*
X8769556Y-3443805D01*
X8752969Y-3427218D01*
X8738100Y-3409100D01*
X8719982Y-3394231D01*
X8703395Y-3377644D01*
X8683891Y-3364612D01*
X8665772Y-3349742D01*
X8645100Y-3338693D01*
X8625597Y-3325661D01*
X8603926Y-3316685D01*
X8583254Y-3305635D01*
X8560822Y-3298830D01*
X8539152Y-3289854D01*
X8516151Y-3285279D01*
X8493716Y-3278473D01*
X8470383Y-3276175D01*
X8447383Y-3271600D01*
X8423932Y-3271600D01*
X8400599Y-3269302D01*
X8377267Y-3271600D01*
X8353817Y-3271600D01*
X8330818Y-3276175D01*
X8307484Y-3278473D01*
X8307395Y-3278500D01*
X7990940Y-3278500D01*
X7966962Y-3220613D01*
X7843844Y-3036355D01*
X7687145Y-2879656D01*
X7564327Y-2797591D01*
X7601512Y-2760406D01*
X7686316Y-2633487D01*
X7744730Y-2492463D01*
X7760501Y-2413179D01*
X7760501Y-2607612D01*
X7760500Y-2607617D01*
X7760500Y-2701183D01*
X7765077Y-2724193D01*
X7767374Y-2747516D01*
X7774177Y-2769944D01*
X7778754Y-2792952D01*
X7787731Y-2814624D01*
X7794535Y-2837054D01*
X7805585Y-2857727D01*
X7814561Y-2879397D01*
X7827591Y-2898897D01*
X7838642Y-2919573D01*
X7853515Y-2937696D01*
X7866544Y-2957195D01*
X7883126Y-2973777D01*
X7898000Y-2991901D01*
X7916124Y-3006775D01*
X7932705Y-3023356D01*
X7952203Y-3036384D01*
X7970328Y-3051259D01*
X7991006Y-3062312D01*
X8010503Y-3075339D01*
X8032169Y-3084313D01*
X8052847Y-3095366D01*
X8075282Y-3102172D01*
X8096948Y-3111146D01*
X8119950Y-3115721D01*
X8142385Y-3122527D01*
X8165717Y-3124825D01*
X8188717Y-3129400D01*
X8212168Y-3129400D01*
X8235500Y-3131698D01*
X8258832Y-3129400D01*
X8282283Y-3129400D01*
X8305282Y-3124825D01*
X8328616Y-3122527D01*
X8351053Y-3115721D01*
X8374052Y-3111146D01*
X8395715Y-3102173D01*
X8418154Y-3095366D01*
X8438836Y-3084311D01*
X8460497Y-3075339D01*
X8479990Y-3062314D01*
X8500673Y-3051259D01*
X8518803Y-3036380D01*
X8538295Y-3023356D01*
X8554872Y-3006779D01*
X8573001Y-2991901D01*
X8587879Y-2973772D01*
X8604456Y-2957195D01*
X8617480Y-2937703D01*
X8632359Y-2919573D01*
X8643414Y-2898890D01*
X8656439Y-2879397D01*
X8665411Y-2857736D01*
X8676466Y-2837054D01*
X8683273Y-2814615D01*
X8692246Y-2792952D01*
X8696821Y-2769953D01*
X8703627Y-2747516D01*
X8705925Y-2724183D01*
X8710500Y-2701183D01*
X8710500Y-2236304D01*
X8772887Y-2210462D01*
X8957145Y-2087344D01*
X9113844Y-1930645D01*
X9225070Y-1764184D01*
X9225070Y-7878970D01*
X4624530Y-7878970D01*
X4624530Y-7116982D01*
X4625858Y-7103500D01*
X4620557Y-7049683D01*
X4604860Y-6997934D01*
X4579368Y-6950242D01*
X4545061Y-6908439D01*
X4503258Y-6874132D01*
X4455566Y-6848640D01*
X4403817Y-6832943D01*
X4363482Y-6828970D01*
X4350000Y-6827642D01*
X4336518Y-6828970D01*
X3663482Y-6828970D01*
X3650000Y-6827642D01*
X3636518Y-6828970D01*
X3596183Y-6832943D01*
X3544434Y-6848640D01*
X3496742Y-6874132D01*
X3454939Y-6908439D01*
X3420632Y-6950242D01*
X3395140Y-6997934D01*
X3379443Y-7049683D01*
X3374142Y-7103500D01*
X3375470Y-7116982D01*
X3375471Y-7878970D01*
X-1365407Y-7878970D01*
X-1189384Y-7702948D01*
X-1177942Y-7693558D01*
X-1168551Y-7682115D01*
X-1140453Y-7647878D01*
X-1112596Y-7595761D01*
X-1108603Y-7582599D01*
X-1095441Y-7539210D01*
X-1091100Y-7495133D01*
X-1091100Y-7495130D01*
X-1089649Y-7480400D01*
X-1091100Y-7465670D01*
X-1091100Y-4536524D01*
X-1088305Y-4534656D01*
X-1022144Y-4468495D01*
X-970161Y-4390697D01*
X-934354Y-4304252D01*
X-916100Y-4212483D01*
X-916100Y-4118917D01*
X-934354Y-4027148D01*
X-970161Y-3940703D01*
X-1022144Y-3862905D01*
X-1088305Y-3796744D01*
X-1166103Y-3744761D01*
X-1252548Y-3708954D01*
X-1344317Y-3690700D01*
X-1437883Y-3690700D01*
X-1529652Y-3708954D01*
X-1616097Y-3744761D01*
X-1693895Y-3796744D01*
X-1760056Y-3862905D01*
X-1812039Y-3940703D01*
X-1847846Y-4027148D01*
X-1866100Y-4118917D01*
X-1866100Y-4212483D01*
X-1847846Y-4304252D01*
X-1812039Y-4390697D01*
X-1760056Y-4468495D01*
X-1693895Y-4534656D01*
X-1691099Y-4536524D01*
X-1691100Y-7356136D01*
X-1832863Y-7497900D01*
X-10398136Y-7497900D01*
X-11314600Y-6581437D01*
X-11314600Y853356D01*
X-11311805Y855224D01*
X-11245644Y921385D01*
X-11193661Y999183D01*
X-11157854Y1085628D01*
X-11139600Y1177397D01*
X-11139600Y1270963D01*
X-11157854Y1362732D01*
X-11193661Y1449177D01*
X-11245644Y1526975D01*
X-11311805Y1593136D01*
X-11389603Y1645119D01*
X-11476048Y1680926D01*
X-11567817Y1699180D01*
X-11661383Y1699180D01*
X-11753152Y1680926D01*
X-11839597Y1645119D01*
X-11917395Y1593136D01*
X-11983556Y1526975D01*
X-12000470Y1501661D01*
X-12000470Y1748483D01*
X-1027900Y1748483D01*
X-1027900Y1654917D01*
X-1009646Y1563148D01*
X-973839Y1476703D01*
X-921856Y1398905D01*
X-855695Y1332744D01*
X-777897Y1280761D01*
X-691452Y1244954D01*
X-599683Y1226700D01*
X-506117Y1226700D01*
X-502819Y1227356D01*
X-185223Y909759D01*
X-185222Y-1845193D01*
X-185223Y-1845203D01*
X-185223Y-2198756D01*
X-185222Y-5380487D01*
X-186673Y-5395220D01*
X-180881Y-5454030D01*
X-163726Y-5510580D01*
X-135870Y-5562697D01*
X-108867Y-5595600D01*
X-98380Y-5608378D01*
X-86937Y-5617769D01*
X90812Y-5795518D01*
X90156Y-5798816D01*
X90156Y-5892382D01*
X108410Y-5984151D01*
X144217Y-6070596D01*
X196200Y-6148394D01*
X262361Y-6214555D01*
X340159Y-6266538D01*
X426604Y-6302345D01*
X518373Y-6320599D01*
X611939Y-6320599D01*
X703708Y-6302345D01*
X790153Y-6266538D01*
X867951Y-6214555D01*
X934112Y-6148394D01*
X986095Y-6070596D01*
X1021902Y-5984151D01*
X1040156Y-5892382D01*
X1040156Y-5798816D01*
X1021902Y-5707047D01*
X986095Y-5620602D01*
X934112Y-5542804D01*
X867951Y-5476643D01*
X790153Y-5424660D01*
X703708Y-5388853D01*
X611939Y-5370599D01*
X518373Y-5370599D01*
X515075Y-5371255D01*
X414777Y-5270957D01*
X414777Y1019293D01*
X416228Y1034023D01*
X413949Y1057159D01*
X410436Y1092833D01*
X393281Y1149383D01*
X378307Y1177397D01*
X365424Y1201501D01*
X337326Y1235738D01*
X327935Y1247181D01*
X316493Y1256571D01*
X-78556Y1651619D01*
X-77900Y1654917D01*
X-77900Y1748483D01*
X-96154Y1840252D01*
X-131961Y1926697D01*
X-183944Y2004495D01*
X-250105Y2070656D01*
X-327903Y2122639D01*
X-414348Y2158446D01*
X-506117Y2176700D01*
X-599683Y2176700D01*
X-691452Y2158446D01*
X-777897Y2122639D01*
X-855695Y2070656D01*
X-921856Y2004495D01*
X-973839Y1926697D01*
X-1009646Y1840252D01*
X-1027900Y1748483D01*
X-12000470Y1748483D01*
X-12000470Y3812113D01*
X-160951Y3812113D01*
X-159501Y3797390D01*
X-159501Y3447390D01*
X-160951Y3432667D01*
X-159501Y3417944D01*
X-159501Y3417935D01*
X-155160Y3373858D01*
X-138005Y3317308D01*
X-125037Y3293047D01*
X-110148Y3265190D01*
X-97715Y3250041D01*
X-72659Y3219509D01*
X-61211Y3210114D01*
X1438211Y1710691D01*
X1438210Y-1826368D01*
X1435415Y-1828236D01*
X1369254Y-1894397D01*
X1317271Y-1972195D01*
X1281464Y-2058640D01*
X1263210Y-2150409D01*
X1263210Y-2243975D01*
X1281464Y-2335744D01*
X1317271Y-2422189D01*
X1369254Y-2499987D01*
X1435415Y-2566148D01*
X1513213Y-2618131D01*
X1599658Y-2653938D01*
X1691427Y-2672192D01*
X1784993Y-2672192D01*
X1876762Y-2653938D01*
X1963207Y-2618131D01*
X2041005Y-2566148D01*
X2091251Y-2515902D01*
X2116105Y-2540756D01*
X2193903Y-2592739D01*
X2280348Y-2628546D01*
X2372117Y-2646800D01*
X2465683Y-2646800D01*
X2557452Y-2628546D01*
X2643897Y-2592739D01*
X2721695Y-2540756D01*
X2787856Y-2474595D01*
X2839839Y-2396797D01*
X2875646Y-2310352D01*
X2893900Y-2218583D01*
X2893900Y-2125017D01*
X2875646Y-2033248D01*
X2839839Y-1946803D01*
X2787856Y-1869005D01*
X2721695Y-1802844D01*
X2643897Y-1750861D01*
X2557452Y-1715054D01*
X2465683Y-1696800D01*
X2426800Y-1696800D01*
X2426800Y2139076D01*
X2428250Y2153799D01*
X2426800Y2168523D01*
X2426800Y2168532D01*
X2422459Y2212609D01*
X2405304Y2269159D01*
X2383866Y2309267D01*
X2377447Y2321277D01*
X2349349Y2355514D01*
X2339958Y2366957D01*
X2328515Y2376348D01*
X1114720Y3590142D01*
X1115376Y3593440D01*
X1115376Y3687006D01*
X1097122Y3778775D01*
X1061315Y3865220D01*
X1009332Y3943018D01*
X976244Y3976106D01*
X1011856Y4011719D01*
X1063839Y4089517D01*
X1099646Y4175962D01*
X1117900Y4267731D01*
X1117900Y4361297D01*
X1099646Y4453066D01*
X1063839Y4539511D01*
X1011856Y4617309D01*
X945695Y4683470D01*
X867897Y4735453D01*
X781452Y4771260D01*
X689683Y4789514D01*
X596117Y4789514D01*
X504348Y4771260D01*
X417903Y4735453D01*
X340105Y4683470D01*
X273944Y4617309D01*
X221961Y4539511D01*
X186154Y4453066D01*
X167900Y4361297D01*
X167900Y4267731D01*
X168556Y4264434D01*
X-61216Y4034661D01*
X-72658Y4025271D01*
X-82049Y4013828D01*
X-82050Y4013827D01*
X-110148Y3979590D01*
X-129695Y3943018D01*
X-138004Y3927473D01*
X-155160Y3870923D01*
X-159501Y3826846D01*
X-159501Y3826836D01*
X-160951Y3812113D01*
X-12000470Y3812113D01*
X-12000470Y5683770D01*
X5019820Y5683770D01*
X5038656Y5492525D01*
X5094440Y5308629D01*
X5185029Y5139150D01*
X5306940Y4990600D01*
X5455490Y4868689D01*
X5624969Y4778100D01*
X5808865Y4722316D01*
X5952187Y4708200D01*
X6248508Y4708200D01*
X6970000Y3986708D01*
X7691492Y4708200D01*
X8047013Y4708200D01*
X8190335Y4722316D01*
X8374231Y4778100D01*
X8543710Y4868689D01*
X8692260Y4990600D01*
X8814171Y5139150D01*
X8904760Y5308629D01*
X8960544Y5492525D01*
X8979380Y5683770D01*
X8960544Y5875015D01*
X8904760Y6058911D01*
X8814171Y6228390D01*
X8692260Y6376940D01*
X8543710Y6498851D01*
X8374231Y6589440D01*
X8190335Y6645224D01*
X8047013Y6659340D01*
X5952187Y6659340D01*
X5808865Y6645224D01*
X5624969Y6589440D01*
X5455490Y6498851D01*
X5306940Y6376940D01*
X5185029Y6228390D01*
X5094440Y6058911D01*
X5038656Y5875015D01*
X5019820Y5683770D01*
X-12000470Y5683770D01*
X-12000470Y7846970D01*
X3375471Y7846970D01*
X3375470Y7109982D01*
G04 #@! TD*
M02*
