G04 #@! TF.FileFunction,Legend,Top*
%FSLAX46Y46*%
G04 Gerber Fmt 4.6, Leading zero omitted, Abs format (unit mm)*
G04 Created by KiCad (PCBNEW 4.0.2+dfsg1-stable) date So 14 Jan 2018 15:20:38 CET*
%MOMM*%
G01*
G04 APERTURE LIST*
%ADD10C,0.150000*%
G04 APERTURE END LIST*
D10*
X5246429Y-4989214D02*
X5246429Y-4227309D01*
X5627381Y-4608261D02*
X4865476Y-4608261D01*
X4627381Y-3274928D02*
X4627381Y-3751119D01*
X5103571Y-3798738D01*
X5055952Y-3751119D01*
X5008333Y-3655881D01*
X5008333Y-3417785D01*
X5055952Y-3322547D01*
X5103571Y-3274928D01*
X5198810Y-3227309D01*
X5436905Y-3227309D01*
X5532143Y-3274928D01*
X5579762Y-3322547D01*
X5627381Y-3417785D01*
X5627381Y-3655881D01*
X5579762Y-3751119D01*
X5532143Y-3798738D01*
X4627381Y-2941595D02*
X5627381Y-2608262D01*
X4627381Y-2274928D01*
X3413096Y4346500D02*
X3317858Y4394119D01*
X3175001Y4394119D01*
X3032143Y4346500D01*
X2936905Y4251262D01*
X2889286Y4156024D01*
X2841667Y3965548D01*
X2841667Y3822690D01*
X2889286Y3632214D01*
X2936905Y3536976D01*
X3032143Y3441738D01*
X3175001Y3394119D01*
X3270239Y3394119D01*
X3413096Y3441738D01*
X3460715Y3489357D01*
X3460715Y3822690D01*
X3270239Y3822690D01*
X3889286Y3394119D02*
X3889286Y4394119D01*
X4460715Y3394119D01*
X4460715Y4394119D01*
X4936905Y3394119D02*
X4936905Y4394119D01*
X5175000Y4394119D01*
X5317858Y4346500D01*
X5413096Y4251262D01*
X5460715Y4156024D01*
X5508334Y3965548D01*
X5508334Y3822690D01*
X5460715Y3632214D01*
X5413096Y3536976D01*
X5317858Y3441738D01*
X5175000Y3394119D01*
X4936905Y3394119D01*
X9232143Y-4320166D02*
X9279762Y-4367785D01*
X9327381Y-4510642D01*
X9327381Y-4605880D01*
X9279762Y-4748738D01*
X9184524Y-4843976D01*
X9089286Y-4891595D01*
X8898810Y-4939214D01*
X8755952Y-4939214D01*
X8565476Y-4891595D01*
X8470238Y-4843976D01*
X8375000Y-4748738D01*
X8327381Y-4605880D01*
X8327381Y-4510642D01*
X8375000Y-4367785D01*
X8422619Y-4320166D01*
X8422619Y-3939214D02*
X8375000Y-3891595D01*
X8327381Y-3796357D01*
X8327381Y-3558261D01*
X8375000Y-3463023D01*
X8422619Y-3415404D01*
X8517857Y-3367785D01*
X8613095Y-3367785D01*
X8755952Y-3415404D01*
X9327381Y-3986833D01*
X9327381Y-3367785D01*
X9327381Y-2939214D02*
X8327381Y-2939214D01*
X8327381Y-2701119D01*
X8375000Y-2558261D01*
X8470238Y-2463023D01*
X8565476Y-2415404D01*
X8755952Y-2367785D01*
X8898810Y-2367785D01*
X9089286Y-2415404D01*
X9184524Y-2463023D01*
X9279762Y-2558261D01*
X9327381Y-2701119D01*
X9327381Y-2939214D01*
X8975000Y2729834D02*
X9008333Y2696500D01*
X9041667Y2596500D01*
X9041667Y2529834D01*
X9008333Y2429834D01*
X8941667Y2363167D01*
X8875000Y2329834D01*
X8741667Y2296500D01*
X8641667Y2296500D01*
X8508333Y2329834D01*
X8441667Y2363167D01*
X8375000Y2429834D01*
X8341667Y2529834D01*
X8341667Y2596500D01*
X8375000Y2696500D01*
X8408333Y2729834D01*
X8408333Y2996500D02*
X8375000Y3029834D01*
X8341667Y3096500D01*
X8341667Y3263167D01*
X8375000Y3329834D01*
X8408333Y3363167D01*
X8475000Y3396500D01*
X8541667Y3396500D01*
X8641667Y3363167D01*
X9041667Y2963167D01*
X9041667Y3396500D01*
X8975000Y4096501D02*
X9008333Y4063167D01*
X9041667Y3963167D01*
X9041667Y3896501D01*
X9008333Y3796501D01*
X8941667Y3729834D01*
X8875000Y3696501D01*
X8741667Y3663167D01*
X8641667Y3663167D01*
X8508333Y3696501D01*
X8441667Y3729834D01*
X8375000Y3796501D01*
X8341667Y3896501D01*
X8341667Y3963167D01*
X8375000Y4063167D01*
X8408333Y4096501D01*
X9041667Y4396501D02*
X8341667Y4396501D01*
X9041667Y4796501D02*
X8641667Y4496501D01*
X8341667Y4796501D02*
X8741667Y4396501D01*
X2794048Y-955881D02*
X2794048Y44119D01*
X3032143Y44119D01*
X3175001Y-3500D01*
X3270239Y-98738D01*
X3317858Y-193976D01*
X3365477Y-384452D01*
X3365477Y-527310D01*
X3317858Y-717786D01*
X3270239Y-813024D01*
X3175001Y-908262D01*
X3032143Y-955881D01*
X2794048Y-955881D01*
X3794048Y-574929D02*
X4555953Y-574929D01*
X2844048Y1244119D02*
X2844048Y2244119D01*
X3082143Y2244119D01*
X3225001Y2196500D01*
X3320239Y2101262D01*
X3367858Y2006024D01*
X3415477Y1815548D01*
X3415477Y1672690D01*
X3367858Y1482214D01*
X3320239Y1386976D01*
X3225001Y1291738D01*
X3082143Y1244119D01*
X2844048Y1244119D01*
X3844048Y1625071D02*
X4605953Y1625071D01*
X4225001Y1244119D02*
X4225001Y2006024D01*
X-10025000Y3284596D02*
X-10072619Y3189358D01*
X-10072619Y3046501D01*
X-10025000Y2903643D01*
X-9929762Y2808405D01*
X-9834524Y2760786D01*
X-9644048Y2713167D01*
X-9501190Y2713167D01*
X-9310714Y2760786D01*
X-9215476Y2808405D01*
X-9120238Y2903643D01*
X-9072619Y3046501D01*
X-9072619Y3141739D01*
X-9120238Y3284596D01*
X-9167857Y3332215D01*
X-9501190Y3332215D01*
X-9501190Y3141739D01*
X-9072619Y3760786D02*
X-10072619Y3760786D01*
X-9072619Y4332215D01*
X-10072619Y4332215D01*
X-9072619Y4808405D02*
X-10072619Y4808405D01*
X-10072619Y5046500D01*
X-10025000Y5189358D01*
X-9929762Y5284596D01*
X-9834524Y5332215D01*
X-9644048Y5379834D01*
X-9501190Y5379834D01*
X-9310714Y5332215D01*
X-9215476Y5284596D01*
X-9120238Y5189358D01*
X-9072619Y5046500D01*
X-9072619Y4808405D01*
X-6472619Y4129834D02*
X-6948810Y3796500D01*
X-6472619Y3558405D02*
X-7472619Y3558405D01*
X-7472619Y3939358D01*
X-7425000Y4034596D01*
X-7377381Y4082215D01*
X-7282143Y4129834D01*
X-7139286Y4129834D01*
X-7044048Y4082215D01*
X-6996429Y4034596D01*
X-6948810Y3939358D01*
X-6948810Y3558405D01*
X-7472619Y4463167D02*
X-6472619Y5129834D01*
X-7472619Y5129834D02*
X-6472619Y4463167D01*
X-4872619Y3634595D02*
X-4872619Y4206024D01*
X-3872619Y3920309D02*
X-4872619Y3920309D01*
X-4872619Y4444119D02*
X-3872619Y5110786D01*
X-4872619Y5110786D02*
X-3872619Y4444119D01*
M02*
