G04 #@! TF.FileFunction,Legend,Top*
%FSLAX46Y46*%
G04 Gerber Fmt 4.6, Leading zero omitted, Abs format (unit mm)*
G04 Created by KiCad (PCBNEW 4.0.7) date 02/08/18 14:43:57*
%MOMM*%
%LPD*%
G01*
G04 APERTURE LIST*
%ADD10C,0.150000*%
G04 APERTURE END LIST*
D10*
X-10358866Y-6053181D02*
X-10692200Y-5576990D01*
X-10930295Y-6053181D02*
X-10930295Y-5053181D01*
X-10549342Y-5053181D01*
X-10454104Y-5100800D01*
X-10406485Y-5148419D01*
X-10358866Y-5243657D01*
X-10358866Y-5386514D01*
X-10406485Y-5481752D01*
X-10454104Y-5529371D01*
X-10549342Y-5576990D01*
X-10930295Y-5576990D01*
X-10025533Y-5053181D02*
X-9406485Y-5053181D01*
X-9739819Y-5434133D01*
X-9596961Y-5434133D01*
X-9501723Y-5481752D01*
X-9454104Y-5529371D01*
X-9406485Y-5624610D01*
X-9406485Y-5862705D01*
X-9454104Y-5957943D01*
X-9501723Y-6005562D01*
X-9596961Y-6053181D01*
X-9882676Y-6053181D01*
X-9977914Y-6005562D01*
X-10025533Y-5957943D01*
X-10606171Y-4005371D02*
X-10939505Y-4005371D01*
X-10939505Y-4529181D02*
X-10939505Y-3529181D01*
X-10463314Y-3529181D01*
X-10082362Y-4529181D02*
X-10082362Y-3529181D01*
X-9606172Y-4529181D02*
X-9606172Y-3529181D01*
X-9368077Y-3529181D01*
X-9225219Y-3576800D01*
X-9129981Y-3672038D01*
X-9082362Y-3767276D01*
X-9034743Y-3957752D01*
X-9034743Y-4100610D01*
X-9082362Y-4291086D01*
X-9129981Y-4386324D01*
X-9225219Y-4481562D01*
X-9368077Y-4529181D01*
X-9606172Y-4529181D01*
X-8415696Y-3529181D02*
X-8225219Y-3529181D01*
X-8129981Y-3576800D01*
X-8034743Y-3672038D01*
X-7987124Y-3862514D01*
X-7987124Y-4195848D01*
X-8034743Y-4386324D01*
X-8129981Y-4481562D01*
X-8225219Y-4529181D01*
X-8415696Y-4529181D01*
X-8510934Y-4481562D01*
X-8606172Y-4386324D01*
X-8653791Y-4195848D01*
X-8653791Y-3862514D01*
X-8606172Y-3672038D01*
X-8510934Y-3576800D01*
X-8415696Y-3529181D01*
X-6796648Y-3529181D02*
X-6796648Y-4338705D01*
X-6749029Y-4433943D01*
X-6701410Y-4481562D01*
X-6606172Y-4529181D01*
X-6415695Y-4529181D01*
X-6320457Y-4481562D01*
X-6272838Y-4433943D01*
X-6225219Y-4338705D01*
X-6225219Y-3529181D01*
X-5796648Y-3624419D02*
X-5749029Y-3576800D01*
X-5653791Y-3529181D01*
X-5415695Y-3529181D01*
X-5320457Y-3576800D01*
X-5272838Y-3624419D01*
X-5225219Y-3719657D01*
X-5225219Y-3814895D01*
X-5272838Y-3957752D01*
X-5844267Y-4529181D01*
X-5225219Y-4529181D01*
X-4463314Y-4005371D02*
X-4796648Y-4005371D01*
X-4796648Y-4529181D02*
X-4796648Y-3529181D01*
X-4320457Y-3529181D01*
X-10933215Y-2992481D02*
X-10933215Y-1992481D01*
X-10361786Y-2992481D01*
X-10361786Y-1992481D01*
X-9885596Y-2992481D02*
X-9885596Y-2325814D01*
X-9885596Y-1992481D02*
X-9933215Y-2040100D01*
X-9885596Y-2087719D01*
X-9837977Y-2040100D01*
X-9885596Y-1992481D01*
X-9885596Y-2087719D01*
X-9552263Y-2325814D02*
X-9171311Y-2325814D01*
X-9409406Y-1992481D02*
X-9409406Y-2849624D01*
X-9361787Y-2944862D01*
X-9266549Y-2992481D01*
X-9171311Y-2992481D01*
X-8837977Y-2992481D02*
X-8837977Y-2325814D01*
X-8837977Y-2516290D02*
X-8790358Y-2421052D01*
X-8742739Y-2373433D01*
X-8647501Y-2325814D01*
X-8552262Y-2325814D01*
X-8076072Y-2992481D02*
X-8171310Y-2944862D01*
X-8218929Y-2897243D01*
X-8266548Y-2802005D01*
X-8266548Y-2516290D01*
X-8218929Y-2421052D01*
X-8171310Y-2373433D01*
X-8076072Y-2325814D01*
X-7933214Y-2325814D01*
X-7837976Y-2373433D01*
X-7790357Y-2421052D01*
X-7742738Y-2516290D01*
X-7742738Y-2802005D01*
X-7790357Y-2897243D01*
X-7837976Y-2944862D01*
X-7933214Y-2992481D01*
X-8076072Y-2992481D01*
X-7314167Y-2992481D02*
X-7314167Y-1992481D01*
X-7218929Y-2611529D02*
X-6933214Y-2992481D01*
X-6933214Y-2325814D02*
X-7314167Y-2706767D01*
X-6123690Y-2944862D02*
X-6218928Y-2992481D01*
X-6409405Y-2992481D01*
X-6504643Y-2944862D01*
X-6552262Y-2849624D01*
X-6552262Y-2468671D01*
X-6504643Y-2373433D01*
X-6409405Y-2325814D01*
X-6218928Y-2325814D01*
X-6123690Y-2373433D01*
X-6076071Y-2468671D01*
X-6076071Y-2563910D01*
X-6552262Y-2659148D01*
X-5742738Y-2325814D02*
X-5504643Y-2992481D01*
X-5266547Y-2325814D02*
X-5504643Y-2992481D01*
X-5599881Y-3230576D01*
X-5647500Y-3278195D01*
X-5742738Y-3325814D01*
X8559386Y-2629067D02*
X8521290Y-2590972D01*
X8483195Y-2476686D01*
X8483195Y-2400496D01*
X8521290Y-2286210D01*
X8597481Y-2210019D01*
X8673671Y-2171924D01*
X8826052Y-2133829D01*
X8940338Y-2133829D01*
X9092719Y-2171924D01*
X9168910Y-2210019D01*
X9245100Y-2286210D01*
X9283195Y-2400496D01*
X9283195Y-2476686D01*
X9245100Y-2590972D01*
X9207005Y-2629067D01*
X9207005Y-2933829D02*
X9245100Y-2971924D01*
X9283195Y-3048115D01*
X9283195Y-3238591D01*
X9245100Y-3314781D01*
X9207005Y-3352877D01*
X9130814Y-3390972D01*
X9054624Y-3390972D01*
X8940338Y-3352877D01*
X8483195Y-2895734D01*
X8483195Y-3390972D01*
X8483195Y-3733829D02*
X9283195Y-3733829D01*
X9283195Y-3924305D01*
X9245100Y-4038591D01*
X9168910Y-4114782D01*
X9092719Y-4152877D01*
X8940338Y-4190972D01*
X8826052Y-4190972D01*
X8673671Y-4152877D01*
X8597481Y-4114782D01*
X8521290Y-4038591D01*
X8483195Y-3924305D01*
X8483195Y-3733829D01*
X8597486Y4679733D02*
X8559390Y4717828D01*
X8521295Y4832114D01*
X8521295Y4908304D01*
X8559390Y5022590D01*
X8635581Y5098781D01*
X8711771Y5136876D01*
X8864152Y5174971D01*
X8978438Y5174971D01*
X9130819Y5136876D01*
X9207010Y5098781D01*
X9283200Y5022590D01*
X9321295Y4908304D01*
X9321295Y4832114D01*
X9283200Y4717828D01*
X9245105Y4679733D01*
X9245105Y4374971D02*
X9283200Y4336876D01*
X9321295Y4260685D01*
X9321295Y4070209D01*
X9283200Y3994019D01*
X9245105Y3955923D01*
X9168914Y3917828D01*
X9092724Y3917828D01*
X8978438Y3955923D01*
X8521295Y4413066D01*
X8521295Y3917828D01*
X8597486Y3117828D02*
X8559390Y3155923D01*
X8521295Y3270209D01*
X8521295Y3346399D01*
X8559390Y3460685D01*
X8635581Y3536876D01*
X8711771Y3574971D01*
X8864152Y3613066D01*
X8978438Y3613066D01*
X9130819Y3574971D01*
X9207010Y3536876D01*
X9283200Y3460685D01*
X9321295Y3346399D01*
X9321295Y3270209D01*
X9283200Y3155923D01*
X9245105Y3117828D01*
X8521295Y2774971D02*
X9321295Y2774971D01*
X8521295Y2317828D02*
X8978438Y2660685D01*
X9321295Y2317828D02*
X8864152Y2774971D01*
X-5455100Y9918600D02*
X-5455100Y8432700D01*
X-8388800Y9918600D02*
X-8388800Y8420000D01*
X-11474900Y8394600D02*
X-11474900Y9931300D01*
X-2483300Y8394600D02*
X-11474900Y8394600D01*
X-2483300Y9918600D02*
X-2483300Y8394600D01*
X-11449500Y9931300D02*
X-2483300Y9918600D01*
X-5213705Y5462419D02*
X-4642276Y5462419D01*
X-4927991Y4462419D02*
X-4927991Y5462419D01*
X-4404181Y5462419D02*
X-3737514Y4462419D01*
X-3737514Y5462419D02*
X-4404181Y4462419D01*
X-7120366Y4487819D02*
X-7453700Y4964010D01*
X-7691795Y4487819D02*
X-7691795Y5487819D01*
X-7310842Y5487819D01*
X-7215604Y5440200D01*
X-7167985Y5392581D01*
X-7120366Y5297343D01*
X-7120366Y5154486D01*
X-7167985Y5059248D01*
X-7215604Y5011629D01*
X-7310842Y4964010D01*
X-7691795Y4964010D01*
X-6787033Y5487819D02*
X-6120366Y4487819D01*
X-6120366Y5487819D02*
X-6787033Y4487819D01*
X-10636604Y5478300D02*
X-10731842Y5525919D01*
X-10874699Y5525919D01*
X-11017557Y5478300D01*
X-11112795Y5383062D01*
X-11160414Y5287824D01*
X-11208033Y5097348D01*
X-11208033Y4954490D01*
X-11160414Y4764014D01*
X-11112795Y4668776D01*
X-11017557Y4573538D01*
X-10874699Y4525919D01*
X-10779461Y4525919D01*
X-10636604Y4573538D01*
X-10588985Y4621157D01*
X-10588985Y4954490D01*
X-10779461Y4954490D01*
X-10160414Y4525919D02*
X-10160414Y5525919D01*
X-9588985Y4525919D01*
X-9588985Y5525919D01*
X-9112795Y4525919D02*
X-9112795Y5525919D01*
X-8874700Y5525919D01*
X-8731842Y5478300D01*
X-8636604Y5383062D01*
X-8588985Y5287824D01*
X-8541366Y5097348D01*
X-8541366Y4954490D01*
X-8588985Y4764014D01*
X-8636604Y4668776D01*
X-8731842Y4573538D01*
X-8874700Y4525919D01*
X-9112795Y4525919D01*
X2860386Y-4008529D02*
X3622291Y-4008529D01*
X3241339Y-4389481D02*
X3241339Y-3627576D01*
X4574672Y-3389481D02*
X4098481Y-3389481D01*
X4050862Y-3865671D01*
X4098481Y-3818052D01*
X4193719Y-3770433D01*
X4431815Y-3770433D01*
X4527053Y-3818052D01*
X4574672Y-3865671D01*
X4622291Y-3960910D01*
X4622291Y-4199005D01*
X4574672Y-4294243D01*
X4527053Y-4341862D01*
X4431815Y-4389481D01*
X4193719Y-4389481D01*
X4098481Y-4341862D01*
X4050862Y-4294243D01*
X4908005Y-3389481D02*
X5241338Y-4389481D01*
X5574672Y-3389481D01*
X2731748Y-1709781D02*
X2731748Y-709781D01*
X2969843Y-709781D01*
X3112701Y-757400D01*
X3207939Y-852638D01*
X3255558Y-947876D01*
X3303177Y-1138352D01*
X3303177Y-1281210D01*
X3255558Y-1471686D01*
X3207939Y-1566924D01*
X3112701Y-1662162D01*
X2969843Y-1709781D01*
X2731748Y-1709781D01*
X3731748Y-1328829D02*
X4493653Y-1328829D01*
X2680948Y995319D02*
X2680948Y1995319D01*
X2919043Y1995319D01*
X3061901Y1947700D01*
X3157139Y1852462D01*
X3204758Y1757224D01*
X3252377Y1566748D01*
X3252377Y1423890D01*
X3204758Y1233414D01*
X3157139Y1138176D01*
X3061901Y1042938D01*
X2919043Y995319D01*
X2680948Y995319D01*
X3680948Y1376271D02*
X4442853Y1376271D01*
X4061901Y995319D02*
X4061901Y1757224D01*
X3676296Y4259100D02*
X3581058Y4306719D01*
X3438201Y4306719D01*
X3295343Y4259100D01*
X3200105Y4163862D01*
X3152486Y4068624D01*
X3104867Y3878148D01*
X3104867Y3735290D01*
X3152486Y3544814D01*
X3200105Y3449576D01*
X3295343Y3354338D01*
X3438201Y3306719D01*
X3533439Y3306719D01*
X3676296Y3354338D01*
X3723915Y3401957D01*
X3723915Y3735290D01*
X3533439Y3735290D01*
X4152486Y3306719D02*
X4152486Y4306719D01*
X4723915Y3306719D01*
X4723915Y4306719D01*
X5200105Y3306719D02*
X5200105Y4306719D01*
X5438200Y4306719D01*
X5581058Y4259100D01*
X5676296Y4163862D01*
X5723915Y4068624D01*
X5771534Y3878148D01*
X5771534Y3735290D01*
X5723915Y3544814D01*
X5676296Y3449576D01*
X5581058Y3354338D01*
X5438200Y3306719D01*
X5200105Y3306719D01*
X14977872Y-3378300D02*
G75*
G03X14977872Y-3378300I-1395672J0D01*
G01*
X16895572Y-1246029D02*
G75*
G03X16895572Y-1246029I-1395672J0D01*
G01*
X13199872Y-1182529D02*
G75*
G03X13199872Y-1182529I-1395672J0D01*
G01*
X13199872Y1586071D02*
G75*
G03X13199872Y1586071I-1395672J0D01*
G01*
X16922301Y1498500D02*
G75*
G03X16922301Y1498500I-1395672J0D01*
G01*
X15118901Y3632100D02*
G75*
G03X15118901Y3632100I-1395672J0D01*
G01*
X-11225505Y9577219D02*
X-10654076Y9577219D01*
X-10939791Y8577219D02*
X-10939791Y9577219D01*
X-10320743Y8577219D02*
X-10320743Y9577219D01*
X-9939790Y9577219D01*
X-9844552Y9529600D01*
X-9796933Y9481981D01*
X-9749314Y9386743D01*
X-9749314Y9243886D01*
X-9796933Y9148648D01*
X-9844552Y9101029D01*
X-9939790Y9053410D01*
X-10320743Y9053410D01*
X-9415981Y9577219D02*
X-8749314Y9577219D01*
X-9177886Y8577219D01*
X-8177505Y9564519D02*
X-7606076Y9564519D01*
X-7891791Y8564519D02*
X-7891791Y9564519D01*
X-7272743Y8564519D02*
X-7272743Y9564519D01*
X-6891790Y9564519D01*
X-6796552Y9516900D01*
X-6748933Y9469281D01*
X-6701314Y9374043D01*
X-6701314Y9231186D01*
X-6748933Y9135948D01*
X-6796552Y9088329D01*
X-6891790Y9040710D01*
X-7272743Y9040710D01*
X-6129886Y9135948D02*
X-6225124Y9183567D01*
X-6272743Y9231186D01*
X-6320362Y9326424D01*
X-6320362Y9374043D01*
X-6272743Y9469281D01*
X-6225124Y9516900D01*
X-6129886Y9564519D01*
X-5939409Y9564519D01*
X-5844171Y9516900D01*
X-5796552Y9469281D01*
X-5748933Y9374043D01*
X-5748933Y9326424D01*
X-5796552Y9231186D01*
X-5844171Y9183567D01*
X-5939409Y9135948D01*
X-6129886Y9135948D01*
X-6225124Y9088329D01*
X-6272743Y9040710D01*
X-6320362Y8945471D01*
X-6320362Y8754995D01*
X-6272743Y8659757D01*
X-6225124Y8612138D01*
X-6129886Y8564519D01*
X-5939409Y8564519D01*
X-5844171Y8612138D01*
X-5796552Y8659757D01*
X-5748933Y8754995D01*
X-5748933Y8945471D01*
X-5796552Y9040710D01*
X-5844171Y9088329D01*
X-5939409Y9135948D01*
X-5218405Y9564519D02*
X-4646976Y9564519D01*
X-4932691Y8564519D02*
X-4932691Y9564519D01*
X-4313643Y8564519D02*
X-4313643Y9564519D01*
X-3932690Y9564519D01*
X-3837452Y9516900D01*
X-3789833Y9469281D01*
X-3742214Y9374043D01*
X-3742214Y9231186D01*
X-3789833Y9135948D01*
X-3837452Y9088329D01*
X-3932690Y9040710D01*
X-4313643Y9040710D01*
X-3266024Y8564519D02*
X-3075548Y8564519D01*
X-2980309Y8612138D01*
X-2932690Y8659757D01*
X-2837452Y8802614D01*
X-2789833Y8993090D01*
X-2789833Y9374043D01*
X-2837452Y9469281D01*
X-2885071Y9516900D01*
X-2980309Y9564519D01*
X-3170786Y9564519D01*
X-3266024Y9516900D01*
X-3313643Y9469281D01*
X-3361262Y9374043D01*
X-3361262Y9135948D01*
X-3313643Y9040710D01*
X-3266024Y8993090D01*
X-3170786Y8945471D01*
X-2980309Y8945471D01*
X-2885071Y8993090D01*
X-2837452Y9040710D01*
X-2789833Y9135948D01*
X12574295Y4014619D02*
X13145724Y4014619D01*
X12860009Y3014619D02*
X12860009Y4014619D01*
X13479057Y3014619D02*
X13479057Y4014619D01*
X13860010Y4014619D01*
X13955248Y3967000D01*
X14002867Y3919381D01*
X14050486Y3824143D01*
X14050486Y3681286D01*
X14002867Y3586048D01*
X13955248Y3538429D01*
X13860010Y3490810D01*
X13479057Y3490810D01*
X15002867Y3014619D02*
X14431438Y3014619D01*
X14717152Y3014619D02*
X14717152Y4014619D01*
X14621914Y3871762D01*
X14526676Y3776524D01*
X14431438Y3728905D01*
X14276095Y1957219D02*
X14847524Y1957219D01*
X14561809Y957219D02*
X14561809Y1957219D01*
X15180857Y957219D02*
X15180857Y1957219D01*
X15561810Y1957219D01*
X15657048Y1909600D01*
X15704667Y1861981D01*
X15752286Y1766743D01*
X15752286Y1623886D01*
X15704667Y1528648D01*
X15657048Y1481029D01*
X15561810Y1433410D01*
X15180857Y1433410D01*
X16657048Y1957219D02*
X16180857Y1957219D01*
X16133238Y1481029D01*
X16180857Y1528648D01*
X16276095Y1576267D01*
X16514191Y1576267D01*
X16609429Y1528648D01*
X16657048Y1481029D01*
X16704667Y1385790D01*
X16704667Y1147695D01*
X16657048Y1052457D01*
X16609429Y1004838D01*
X16514191Y957219D01*
X16276095Y957219D01*
X16180857Y1004838D01*
X16133238Y1052457D01*
X10554995Y2058819D02*
X11126424Y2058819D01*
X10840709Y1058819D02*
X10840709Y2058819D01*
X11459757Y1058819D02*
X11459757Y2058819D01*
X11840710Y2058819D01*
X11935948Y2011200D01*
X11983567Y1963581D01*
X12031186Y1868343D01*
X12031186Y1725486D01*
X11983567Y1630248D01*
X11935948Y1582629D01*
X11840710Y1535010D01*
X11459757Y1535010D01*
X12412138Y1963581D02*
X12459757Y2011200D01*
X12554995Y2058819D01*
X12793091Y2058819D01*
X12888329Y2011200D01*
X12935948Y1963581D01*
X12983567Y1868343D01*
X12983567Y1773105D01*
X12935948Y1630248D01*
X12364519Y1058819D01*
X12983567Y1058819D01*
X10542295Y-760581D02*
X11113724Y-760581D01*
X10828009Y-1760581D02*
X10828009Y-760581D01*
X11447057Y-1760581D02*
X11447057Y-760581D01*
X11828010Y-760581D01*
X11923248Y-808200D01*
X11970867Y-855819D01*
X12018486Y-951057D01*
X12018486Y-1093914D01*
X11970867Y-1189152D01*
X11923248Y-1236771D01*
X11828010Y-1284390D01*
X11447057Y-1284390D01*
X12351819Y-760581D02*
X12970867Y-760581D01*
X12637533Y-1141533D01*
X12780391Y-1141533D01*
X12875629Y-1189152D01*
X12923248Y-1236771D01*
X12970867Y-1332010D01*
X12970867Y-1570105D01*
X12923248Y-1665343D01*
X12875629Y-1712962D01*
X12780391Y-1760581D01*
X12494676Y-1760581D01*
X12399438Y-1712962D01*
X12351819Y-1665343D01*
X14276095Y-811381D02*
X14847524Y-811381D01*
X14561809Y-1811381D02*
X14561809Y-811381D01*
X15180857Y-1811381D02*
X15180857Y-811381D01*
X15561810Y-811381D01*
X15657048Y-859000D01*
X15704667Y-906619D01*
X15752286Y-1001857D01*
X15752286Y-1144714D01*
X15704667Y-1239952D01*
X15657048Y-1287571D01*
X15561810Y-1335190D01*
X15180857Y-1335190D01*
X16609429Y-811381D02*
X16418952Y-811381D01*
X16323714Y-859000D01*
X16276095Y-906619D01*
X16180857Y-1049476D01*
X16133238Y-1239952D01*
X16133238Y-1620905D01*
X16180857Y-1716143D01*
X16228476Y-1763762D01*
X16323714Y-1811381D01*
X16514191Y-1811381D01*
X16609429Y-1763762D01*
X16657048Y-1716143D01*
X16704667Y-1620905D01*
X16704667Y-1382810D01*
X16657048Y-1287571D01*
X16609429Y-1239952D01*
X16514191Y-1192333D01*
X16323714Y-1192333D01*
X16228476Y-1239952D01*
X16180857Y-1287571D01*
X16133238Y-1382810D01*
X12383795Y-2894181D02*
X12955224Y-2894181D01*
X12669509Y-3894181D02*
X12669509Y-2894181D01*
X13288557Y-3894181D02*
X13288557Y-2894181D01*
X13669510Y-2894181D01*
X13764748Y-2941800D01*
X13812367Y-2989419D01*
X13859986Y-3084657D01*
X13859986Y-3227514D01*
X13812367Y-3322752D01*
X13764748Y-3370371D01*
X13669510Y-3417990D01*
X13288557Y-3417990D01*
X14717129Y-3227514D02*
X14717129Y-3894181D01*
X14479033Y-2846562D02*
X14240938Y-3560848D01*
X14859986Y-3560848D01*
M02*
