G04 #@! TF.GenerationSoftware,KiCad,Pcbnew,(5.0.0-3-g5ebb6b6)*
G04 #@! TF.CreationDate,2018-09-30T02:42:38+02:00*
G04 #@! TF.ProjectId,nk-u2f,6E6B2D7532662E6B696361645F706362,R5*
G04 #@! TF.SameCoordinates,PX791ddc0PY5e69114*
G04 #@! TF.FileFunction,Legend,Top*
G04 #@! TF.FilePolarity,Positive*
%FSLAX46Y46*%
G04 Gerber Fmt 4.6, Leading zero omitted, Abs format (unit mm)*
G04 Created by KiCad (PCBNEW (5.0.0-3-g5ebb6b6)) date Sunday, 30 September 2018 at 02:42:38*
%MOMM*%
%LPD*%
G01*
G04 APERTURE LIST*
%ADD10C,0.150000*%
%ADD11C,0.254000*%
%ADD12C,0.250000*%
%ADD13C,0.304800*%
G04 APERTURE END LIST*
D10*
X-10358867Y-6053180D02*
X-10692200Y-5576990D01*
X-10930296Y-6053180D02*
X-10930296Y-5053180D01*
X-10549343Y-5053180D01*
X-10454105Y-5100800D01*
X-10406486Y-5148419D01*
X-10358867Y-5243657D01*
X-10358867Y-5386514D01*
X-10406486Y-5481752D01*
X-10454105Y-5529371D01*
X-10549343Y-5576990D01*
X-10930296Y-5576990D01*
X-10025534Y-5053180D02*
X-9358867Y-5053180D01*
X-9787439Y-6053180D01*
X-10606172Y-4005371D02*
X-10939505Y-4005371D01*
X-10939505Y-4529180D02*
X-10939505Y-3529180D01*
X-10463315Y-3529180D01*
X-10082362Y-4529180D02*
X-10082362Y-3529180D01*
X-9606172Y-4529180D02*
X-9606172Y-3529180D01*
X-9368077Y-3529180D01*
X-9225220Y-3576800D01*
X-9129981Y-3672038D01*
X-9082362Y-3767276D01*
X-9034743Y-3957752D01*
X-9034743Y-4100609D01*
X-9082362Y-4291085D01*
X-9129981Y-4386323D01*
X-9225220Y-4481561D01*
X-9368077Y-4529180D01*
X-9606172Y-4529180D01*
X-8415696Y-3529180D02*
X-8225220Y-3529180D01*
X-8129981Y-3576800D01*
X-8034743Y-3672038D01*
X-7987124Y-3862514D01*
X-7987124Y-4195847D01*
X-8034743Y-4386323D01*
X-8129981Y-4481561D01*
X-8225220Y-4529180D01*
X-8415696Y-4529180D01*
X-8510934Y-4481561D01*
X-8606172Y-4386323D01*
X-8653791Y-4195847D01*
X-8653791Y-3862514D01*
X-8606172Y-3672038D01*
X-8510934Y-3576800D01*
X-8415696Y-3529180D01*
X-6796648Y-3529180D02*
X-6796648Y-4338704D01*
X-6749029Y-4433942D01*
X-6701410Y-4481561D01*
X-6606172Y-4529180D01*
X-6415696Y-4529180D01*
X-6320458Y-4481561D01*
X-6272839Y-4433942D01*
X-6225220Y-4338704D01*
X-6225220Y-3529180D01*
X-5796648Y-3624419D02*
X-5749029Y-3576800D01*
X-5653791Y-3529180D01*
X-5415696Y-3529180D01*
X-5320458Y-3576800D01*
X-5272839Y-3624419D01*
X-5225220Y-3719657D01*
X-5225220Y-3814895D01*
X-5272839Y-3957752D01*
X-5844267Y-4529180D01*
X-5225220Y-4529180D01*
X-4463315Y-4005371D02*
X-4796648Y-4005371D01*
X-4796648Y-4529180D02*
X-4796648Y-3529180D01*
X-4320458Y-3529180D01*
X-10933215Y-2992480D02*
X-10933215Y-1992480D01*
X-10361786Y-2992480D01*
X-10361786Y-1992480D01*
X-9885596Y-2992480D02*
X-9885596Y-2325814D01*
X-9885596Y-1992480D02*
X-9933215Y-2040100D01*
X-9885596Y-2087719D01*
X-9837977Y-2040100D01*
X-9885596Y-1992480D01*
X-9885596Y-2087719D01*
X-9552262Y-2325814D02*
X-9171310Y-2325814D01*
X-9409405Y-1992480D02*
X-9409405Y-2849623D01*
X-9361786Y-2944861D01*
X-9266548Y-2992480D01*
X-9171310Y-2992480D01*
X-8837977Y-2992480D02*
X-8837977Y-2325814D01*
X-8837977Y-2516290D02*
X-8790358Y-2421052D01*
X-8742739Y-2373433D01*
X-8647500Y-2325814D01*
X-8552262Y-2325814D01*
X-8076072Y-2992480D02*
X-8171310Y-2944861D01*
X-8218929Y-2897242D01*
X-8266548Y-2802004D01*
X-8266548Y-2516290D01*
X-8218929Y-2421052D01*
X-8171310Y-2373433D01*
X-8076072Y-2325814D01*
X-7933215Y-2325814D01*
X-7837977Y-2373433D01*
X-7790358Y-2421052D01*
X-7742739Y-2516290D01*
X-7742739Y-2802004D01*
X-7790358Y-2897242D01*
X-7837977Y-2944861D01*
X-7933215Y-2992480D01*
X-8076072Y-2992480D01*
X-7314167Y-2992480D02*
X-7314167Y-1992480D01*
X-7218929Y-2611528D02*
X-6933215Y-2992480D01*
X-6933215Y-2325814D02*
X-7314167Y-2706766D01*
X-6123691Y-2944861D02*
X-6218929Y-2992480D01*
X-6409405Y-2992480D01*
X-6504643Y-2944861D01*
X-6552262Y-2849623D01*
X-6552262Y-2468671D01*
X-6504643Y-2373433D01*
X-6409405Y-2325814D01*
X-6218929Y-2325814D01*
X-6123691Y-2373433D01*
X-6076072Y-2468671D01*
X-6076072Y-2563909D01*
X-6552262Y-2659147D01*
X-5742739Y-2325814D02*
X-5504643Y-2992480D01*
X-5266548Y-2325814D02*
X-5504643Y-2992480D01*
X-5599881Y-3230576D01*
X-5647500Y-3278195D01*
X-5742739Y-3325814D01*
X8559385Y-2629066D02*
X8521290Y-2590971D01*
X8483195Y-2476685D01*
X8483195Y-2400495D01*
X8521290Y-2286209D01*
X8597480Y-2210019D01*
X8673671Y-2171923D01*
X8826052Y-2133828D01*
X8940338Y-2133828D01*
X9092719Y-2171923D01*
X9168909Y-2210019D01*
X9245100Y-2286209D01*
X9283195Y-2400495D01*
X9283195Y-2476685D01*
X9245100Y-2590971D01*
X9207004Y-2629066D01*
X9207004Y-2933828D02*
X9245100Y-2971923D01*
X9283195Y-3048114D01*
X9283195Y-3238590D01*
X9245100Y-3314780D01*
X9207004Y-3352876D01*
X9130814Y-3390971D01*
X9054623Y-3390971D01*
X8940338Y-3352876D01*
X8483195Y-2895733D01*
X8483195Y-3390971D01*
X8483195Y-3733828D02*
X9283195Y-3733828D01*
X9283195Y-3924304D01*
X9245100Y-4038590D01*
X9168909Y-4114780D01*
X9092719Y-4152876D01*
X8940338Y-4190971D01*
X8826052Y-4190971D01*
X8673671Y-4152876D01*
X8597480Y-4114780D01*
X8521290Y-4038590D01*
X8483195Y-3924304D01*
X8483195Y-3733828D01*
X8597485Y4679734D02*
X8559390Y4717829D01*
X8521295Y4832115D01*
X8521295Y4908305D01*
X8559390Y5022591D01*
X8635580Y5098781D01*
X8711771Y5136877D01*
X8864152Y5174972D01*
X8978438Y5174972D01*
X9130819Y5136877D01*
X9207009Y5098781D01*
X9283200Y5022591D01*
X9321295Y4908305D01*
X9321295Y4832115D01*
X9283200Y4717829D01*
X9245104Y4679734D01*
X9245104Y4374972D02*
X9283200Y4336877D01*
X9321295Y4260686D01*
X9321295Y4070210D01*
X9283200Y3994020D01*
X9245104Y3955924D01*
X9168914Y3917829D01*
X9092723Y3917829D01*
X8978438Y3955924D01*
X8521295Y4413067D01*
X8521295Y3917829D01*
X8597485Y3117829D02*
X8559390Y3155924D01*
X8521295Y3270210D01*
X8521295Y3346400D01*
X8559390Y3460686D01*
X8635580Y3536877D01*
X8711771Y3574972D01*
X8864152Y3613067D01*
X8978438Y3613067D01*
X9130819Y3574972D01*
X9207009Y3536877D01*
X9283200Y3460686D01*
X9321295Y3346400D01*
X9321295Y3270210D01*
X9283200Y3155924D01*
X9245104Y3117829D01*
X8521295Y2774972D02*
X9321295Y2774972D01*
X8521295Y2317829D02*
X8978438Y2660686D01*
X9321295Y2317829D02*
X8864152Y2774972D01*
X2860385Y-4008528D02*
X3622290Y-4008528D01*
X3241338Y-4389480D02*
X3241338Y-3627576D01*
X4574671Y-3389480D02*
X4098480Y-3389480D01*
X4050861Y-3865671D01*
X4098480Y-3818052D01*
X4193719Y-3770433D01*
X4431814Y-3770433D01*
X4527052Y-3818052D01*
X4574671Y-3865671D01*
X4622290Y-3960909D01*
X4622290Y-4199004D01*
X4574671Y-4294242D01*
X4527052Y-4341861D01*
X4431814Y-4389480D01*
X4193719Y-4389480D01*
X4098480Y-4341861D01*
X4050861Y-4294242D01*
X4908004Y-3389480D02*
X5241338Y-4389480D01*
X5574671Y-3389480D01*
X2731747Y-1709780D02*
X2731747Y-709780D01*
X2969842Y-709780D01*
X3112700Y-757400D01*
X3207938Y-852638D01*
X3255557Y-947876D01*
X3303176Y-1138352D01*
X3303176Y-1281209D01*
X3255557Y-1471685D01*
X3207938Y-1566923D01*
X3112700Y-1662161D01*
X2969842Y-1709780D01*
X2731747Y-1709780D01*
X3731747Y-1328828D02*
X4493652Y-1328828D01*
X2680947Y995320D02*
X2680947Y1995320D01*
X2919042Y1995320D01*
X3061900Y1947700D01*
X3157138Y1852462D01*
X3204757Y1757224D01*
X3252376Y1566748D01*
X3252376Y1423891D01*
X3204757Y1233415D01*
X3157138Y1138177D01*
X3061900Y1042939D01*
X2919042Y995320D01*
X2680947Y995320D01*
X3680947Y1376272D02*
X4442852Y1376272D01*
X4061900Y995320D02*
X4061900Y1757224D01*
X3676295Y4259100D02*
X3581057Y4306720D01*
X3438200Y4306720D01*
X3295342Y4259100D01*
X3200104Y4163862D01*
X3152485Y4068624D01*
X3104866Y3878148D01*
X3104866Y3735291D01*
X3152485Y3544815D01*
X3200104Y3449577D01*
X3295342Y3354339D01*
X3438200Y3306720D01*
X3533438Y3306720D01*
X3676295Y3354339D01*
X3723914Y3401958D01*
X3723914Y3735291D01*
X3533438Y3735291D01*
X4152485Y3306720D02*
X4152485Y4306720D01*
X4723914Y3306720D01*
X4723914Y4306720D01*
X5200104Y3306720D02*
X5200104Y4306720D01*
X5438200Y4306720D01*
X5581057Y4259100D01*
X5676295Y4163862D01*
X5723914Y4068624D01*
X5771533Y3878148D01*
X5771533Y3735291D01*
X5723914Y3544815D01*
X5676295Y3449577D01*
X5581057Y3354339D01*
X5438200Y3306720D01*
X5200104Y3306720D01*
X14977872Y-3378300D02*
G75*
G03X14977872Y-3378300I-1395672J0D01*
G01*
X16895572Y-1246029D02*
G75*
G03X16895572Y-1246029I-1395672J0D01*
G01*
X13199872Y-1182529D02*
G75*
G03X13199872Y-1182529I-1395672J0D01*
G01*
X13199872Y1586071D02*
G75*
G03X13199872Y1586071I-1395672J0D01*
G01*
X16922301Y1498500D02*
G75*
G03X16922301Y1498500I-1395672J0D01*
G01*
X15118901Y3632100D02*
G75*
G03X15118901Y3632100I-1395672J0D01*
G01*
D11*
G04 #@! TO.C,J1*
X4899020Y-4714990D02*
X4899020Y-5814810D01*
X4899020Y4683010D02*
X4899020Y5782830D01*
D12*
X8833333Y-6655880D02*
X8833333Y-7370166D01*
X8880952Y-7513023D01*
X8976190Y-7608261D01*
X9119047Y-7655880D01*
X9214285Y-7655880D01*
X7833333Y-7655880D02*
X8404761Y-7655880D01*
X8119047Y-7655880D02*
X8119047Y-6655880D01*
X8214285Y-6798738D01*
X8309523Y-6893976D01*
X8404761Y-6941595D01*
D13*
G04 #@! TO.C,TP1*
D10*
X12574295Y4014620D02*
X13145723Y4014620D01*
X12860009Y3014620D02*
X12860009Y4014620D01*
X13479057Y3014620D02*
X13479057Y4014620D01*
X13860009Y4014620D01*
X13955247Y3967000D01*
X14002866Y3919381D01*
X14050485Y3824143D01*
X14050485Y3681286D01*
X14002866Y3586048D01*
X13955247Y3538429D01*
X13860009Y3490810D01*
X13479057Y3490810D01*
X15002866Y3014620D02*
X14431438Y3014620D01*
X14717152Y3014620D02*
X14717152Y4014620D01*
X14621914Y3871762D01*
X14526676Y3776524D01*
X14431438Y3728905D01*
G04 #@! TO.C,TP5*
X14276095Y1957220D02*
X14847523Y1957220D01*
X14561809Y957220D02*
X14561809Y1957220D01*
X15180857Y957220D02*
X15180857Y1957220D01*
X15561809Y1957220D01*
X15657047Y1909600D01*
X15704666Y1861981D01*
X15752285Y1766743D01*
X15752285Y1623886D01*
X15704666Y1528648D01*
X15657047Y1481029D01*
X15561809Y1433410D01*
X15180857Y1433410D01*
X16657047Y1957220D02*
X16180857Y1957220D01*
X16133238Y1481029D01*
X16180857Y1528648D01*
X16276095Y1576267D01*
X16514190Y1576267D01*
X16609428Y1528648D01*
X16657047Y1481029D01*
X16704666Y1385791D01*
X16704666Y1147696D01*
X16657047Y1052458D01*
X16609428Y1004839D01*
X16514190Y957220D01*
X16276095Y957220D01*
X16180857Y1004839D01*
X16133238Y1052458D01*
G04 #@! TO.C,TP2*
X10554995Y2058820D02*
X11126423Y2058820D01*
X10840709Y1058820D02*
X10840709Y2058820D01*
X11459757Y1058820D02*
X11459757Y2058820D01*
X11840709Y2058820D01*
X11935947Y2011200D01*
X11983566Y1963581D01*
X12031185Y1868343D01*
X12031185Y1725486D01*
X11983566Y1630248D01*
X11935947Y1582629D01*
X11840709Y1535010D01*
X11459757Y1535010D01*
X12412138Y1963581D02*
X12459757Y2011200D01*
X12554995Y2058820D01*
X12793090Y2058820D01*
X12888328Y2011200D01*
X12935947Y1963581D01*
X12983566Y1868343D01*
X12983566Y1773105D01*
X12935947Y1630248D01*
X12364519Y1058820D01*
X12983566Y1058820D01*
G04 #@! TO.C,TP3*
X10542295Y-760580D02*
X11113723Y-760580D01*
X10828009Y-1760580D02*
X10828009Y-760580D01*
X11447057Y-1760580D02*
X11447057Y-760580D01*
X11828009Y-760580D01*
X11923247Y-808200D01*
X11970866Y-855819D01*
X12018485Y-951057D01*
X12018485Y-1093914D01*
X11970866Y-1189152D01*
X11923247Y-1236771D01*
X11828009Y-1284390D01*
X11447057Y-1284390D01*
X12351819Y-760580D02*
X12970866Y-760580D01*
X12637533Y-1141533D01*
X12780390Y-1141533D01*
X12875628Y-1189152D01*
X12923247Y-1236771D01*
X12970866Y-1332009D01*
X12970866Y-1570104D01*
X12923247Y-1665342D01*
X12875628Y-1712961D01*
X12780390Y-1760580D01*
X12494676Y-1760580D01*
X12399438Y-1712961D01*
X12351819Y-1665342D01*
G04 #@! TO.C,TP6*
X14276095Y-811380D02*
X14847523Y-811380D01*
X14561809Y-1811380D02*
X14561809Y-811380D01*
X15180857Y-1811380D02*
X15180857Y-811380D01*
X15561809Y-811380D01*
X15657047Y-859000D01*
X15704666Y-906619D01*
X15752285Y-1001857D01*
X15752285Y-1144714D01*
X15704666Y-1239952D01*
X15657047Y-1287571D01*
X15561809Y-1335190D01*
X15180857Y-1335190D01*
X16609428Y-811380D02*
X16418952Y-811380D01*
X16323714Y-859000D01*
X16276095Y-906619D01*
X16180857Y-1049476D01*
X16133238Y-1239952D01*
X16133238Y-1620904D01*
X16180857Y-1716142D01*
X16228476Y-1763761D01*
X16323714Y-1811380D01*
X16514190Y-1811380D01*
X16609428Y-1763761D01*
X16657047Y-1716142D01*
X16704666Y-1620904D01*
X16704666Y-1382809D01*
X16657047Y-1287571D01*
X16609428Y-1239952D01*
X16514190Y-1192333D01*
X16323714Y-1192333D01*
X16228476Y-1239952D01*
X16180857Y-1287571D01*
X16133238Y-1382809D01*
G04 #@! TO.C,TP4*
X12383795Y-2894180D02*
X12955223Y-2894180D01*
X12669509Y-3894180D02*
X12669509Y-2894180D01*
X13288557Y-3894180D02*
X13288557Y-2894180D01*
X13669509Y-2894180D01*
X13764747Y-2941800D01*
X13812366Y-2989419D01*
X13859985Y-3084657D01*
X13859985Y-3227514D01*
X13812366Y-3322752D01*
X13764747Y-3370371D01*
X13669509Y-3417990D01*
X13288557Y-3417990D01*
X14717128Y-3227514D02*
X14717128Y-3894180D01*
X14479033Y-2846561D02*
X14240938Y-3560847D01*
X14859985Y-3560847D01*
G04 #@! TD*
M02*
