M48
;DRILL file {KiCad (5.0.0-3-g5ebb6b6)} date Saturday, 01 September 2018 at 16:23:51
;FORMAT={-:-/ absolute / inch / decimal}
FMAT,2
INCH,TZ
T1C0.0118
T2C0.0394
T3C0.0433
%
G90
G05
M72
T1
X-0.4573Y0.0482
X-0.0548Y-0.164
X-0.0218Y0.067
X-0.0165Y0.092
X0.0182Y0.078
X0.023Y-0.2194
X0.0252Y0.1433
X0.0253Y0.1699
X0.0285Y-0.006
X0.0684Y-0.0865
X0.073Y0.161
X0.0923Y-0.233
X0.0952Y-0.0855
X0.0996Y0.1612
X0.1239Y0.0268
X0.1462Y-0.2115
X0.1562Y0.
X0.1592Y0.22
X0.1684Y0.0835
X0.2757Y0.004
X0.3117Y0.1115
X0.3242Y-0.1045
X0.3307Y-0.1475
T3
X0.2756Y0.088
X0.2756Y-0.0892
T2
X0.3051Y0.2238G85X0.2461Y0.2238
G05
X0.3051Y-0.225G85X0.2461Y-0.225
G05
T0
M30
