G04 #@! TF.FileFunction,Paste,Bot*
%FSLAX46Y46*%
G04 Gerber Fmt 4.6, Leading zero omitted, Abs format (unit mm)*
G04 Created by KiCad (PCBNEW 4.0.5) date 03/08/17 21:21:33*
%MOMM*%
%LPD*%
G01*
G04 APERTURE LIST*
%ADD10C,0.150000*%
%ADD11R,0.200000X0.560000*%
%ADD12R,0.714000X0.498000*%
%ADD13R,1.599184X0.959104*%
%ADD14R,0.400000X0.480000*%
%ADD15R,0.520000X0.848000*%
%ADD16R,0.480000X0.400000*%
%ADD17R,0.272000X0.272000*%
%ADD18O,0.200000X0.488000*%
%ADD19O,0.488000X0.200000*%
%ADD20R,1.200000X1.200000*%
%ADD21R,0.240000X0.360000*%
%ADD22R,0.560000X0.480000*%
%ADD23R,0.480000X0.320000*%
%ADD24R,0.320000X0.480000*%
G04 APERTURE END LIST*
D10*
D11*
X-1425000Y6746500D03*
X-925000Y6746500D03*
X-425000Y6746500D03*
X75000Y6746500D03*
X75000Y3946500D03*
X-425000Y3946500D03*
X-925000Y3946500D03*
X-1425000Y3946500D03*
D12*
X-80000Y4931500D03*
X-1270000Y4931500D03*
X-80000Y5761500D03*
X-1270000Y5761500D03*
D13*
X4899020Y-1016750D03*
X4899020Y1000010D03*
X4899020Y-3516110D03*
X4899020Y3484130D03*
D14*
X-2975000Y5296500D03*
X-2975000Y6396500D03*
D15*
X-3025000Y-4753500D03*
X-2075000Y-4753500D03*
X-1125000Y-4753500D03*
X-1125000Y-6953500D03*
X-3025000Y-6953500D03*
X-2075000Y-6953500D03*
D16*
X-4925000Y-7053500D03*
X-6025000Y-7053500D03*
D17*
X-540000Y1111500D03*
D18*
X-40000Y1201500D03*
X460000Y1201500D03*
X990000Y1201500D03*
X1460000Y1201500D03*
D17*
X1990000Y1111500D03*
D19*
X2060000Y611500D03*
X2060000Y111500D03*
X2060000Y-418500D03*
X2060000Y-918500D03*
D17*
X1990000Y-1418500D03*
D18*
X1490000Y-1488500D03*
X990000Y-1488500D03*
X460000Y-1488500D03*
X-40000Y-1488500D03*
D17*
X-540000Y-1418500D03*
D19*
X-610000Y-918500D03*
X-610000Y-418500D03*
X-610000Y102500D03*
X-610000Y611500D03*
D20*
X725000Y-153500D03*
D21*
X1625000Y6146500D03*
X2625000Y6146500D03*
X1625000Y4746500D03*
X2125000Y6146500D03*
X2625000Y4746500D03*
D14*
X3125000Y-4403500D03*
X3125000Y-5503500D03*
D22*
X-11375000Y-603500D03*
X-11375000Y496500D03*
D23*
X325000Y-6303500D03*
X325000Y-7203500D03*
D24*
X-5925000Y-5553500D03*
X-5025000Y-5553500D03*
D23*
X325000Y-5403500D03*
X325000Y-4503500D03*
X1725000Y-4503500D03*
X1725000Y-5403500D03*
X-11375000Y-1603500D03*
X-11375000Y-2503500D03*
M02*
