G04 #@! TF.GenerationSoftware,KiCad,Pcbnew,(5.0.0-3-g5ebb6b6)*
G04 #@! TF.CreationDate,2018-09-30T02:42:38+02:00*
G04 #@! TF.ProjectId,nk-u2f,6E6B2D7532662E6B696361645F706362,R5*
G04 #@! TF.SameCoordinates,PX791ddc0PY5e69114*
G04 #@! TF.FileFunction,Copper,L1,Top,Signal*
G04 #@! TF.FilePolarity,Positive*
%FSLAX46Y46*%
G04 Gerber Fmt 4.6, Leading zero omitted, Abs format (unit mm)*
G04 Created by KiCad (PCBNEW (5.0.0-3-g5ebb6b6)) date Sunday, 30 September 2018 at 02:42:38*
%MOMM*%
%LPD*%
G01*
G04 APERTURE LIST*
G04 #@! TA.AperFunction,ComponentPad*
%ADD10C,1.099820*%
G04 #@! TD*
G04 #@! TA.AperFunction,ComponentPad*
%ADD11O,3.500120X1.501140*%
G04 #@! TD*
G04 #@! TA.AperFunction,BGAPad,CuDef*
%ADD12C,1.800000*%
G04 #@! TD*
G04 #@! TA.AperFunction,ViaPad*
%ADD13C,0.500000*%
G04 #@! TD*
G04 #@! TA.AperFunction,Conductor*
%ADD14C,0.500000*%
G04 #@! TD*
G04 #@! TA.AperFunction,Conductor*
%ADD15C,0.150000*%
G04 #@! TD*
G04 #@! TA.AperFunction,Conductor*
%ADD16C,0.254000*%
G04 #@! TD*
G04 APERTURE END LIST*
D10*
G04 #@! TO.P,J1,8*
G04 #@! TO.N,N/C*
X6999600Y2234450D03*
G04 #@! TO.P,J1,7*
X6999600Y-2266430D03*
D11*
G04 #@! TO.P,J1,6*
G04 #@! TO.N,Net-(C5-Pad1)*
X6999600Y-5715750D03*
G04 #@! TO.P,J1,5*
X6999600Y5683770D03*
G04 #@! TD*
D12*
G04 #@! TO.P,TP1,1*
G04 #@! TO.N,/GND*
X6970000Y3866500D03*
G04 #@! TD*
G04 #@! TO.P,TP5,1*
G04 #@! TO.N,/C2CK*
X8240000Y1326500D03*
G04 #@! TD*
G04 #@! TO.P,TP2,1*
G04 #@! TO.N,/HD+*
X5700000Y1326500D03*
G04 #@! TD*
G04 #@! TO.P,TP3,1*
G04 #@! TO.N,/HD-*
X5700000Y-1213500D03*
G04 #@! TD*
G04 #@! TO.P,TP6,1*
G04 #@! TO.N,/C2D*
X8240000Y-1213500D03*
G04 #@! TD*
G04 #@! TO.P,TP4,1*
G04 #@! TO.N,/+5V*
X6970000Y-3753500D03*
G04 #@! TD*
D13*
G04 #@! TO.N,/+5V*
X3147880Y680620D03*
X5428800Y-4622900D03*
G04 #@! TO.N,/C2CK*
X7003602Y101500D03*
G04 #@! TO.N,/C2D*
X8068090Y-2654400D03*
G04 #@! TO.N,/HD+*
X1853305Y4089775D03*
X4278210Y2120800D03*
G04 #@! TO.N,/HD-*
X2529430Y4094134D03*
X3968300Y554D03*
G04 #@! TO.N,/Button*
X-552900Y1701700D03*
X1199700Y-5918288D03*
G04 #@! TO.N,/SDA*
X642900Y4314514D03*
X1738210Y-2197192D03*
G04 #@! TO.N,/SCL*
X640376Y3640223D03*
X2418900Y-2171800D03*
G04 #@! TO.N,/LED*
X-11589200Y-6743800D03*
X-558583Y-2204217D03*
G04 #@! TO.N,/GND*
X3714300Y-5372200D03*
X-420330Y2338039D03*
X7918000Y2832000D03*
X463100Y1981100D03*
X725000Y-153500D03*
X2343923Y-5918338D03*
X6965500Y-7429600D03*
X7016300Y7124600D03*
X920300Y5562500D03*
G04 #@! TO.N,/Button_reset*
X-44900Y-3048100D03*
X-667200Y-6312000D03*
G04 #@! TD*
D14*
G04 #@! TO.N,/+5V*
X3147880Y327067D02*
X3147880Y680620D01*
X3147880Y-1935580D02*
X3147880Y327067D01*
X4965800Y-3753500D02*
X3147880Y-1935580D01*
X6970000Y-3753500D02*
X4965800Y-3753500D01*
X5428800Y-3772000D02*
X5428800Y-4622900D01*
X6415700Y-3772000D02*
X5428800Y-3772000D01*
X6970000Y-4326300D02*
X6415700Y-3772000D01*
X6970000Y-3753500D02*
X6970000Y-4326300D01*
D15*
G04 #@! TO.N,/C2CK*
X7562402Y660300D02*
X7422702Y520600D01*
X7848602Y946500D02*
X7562402Y660300D01*
D14*
X7562402Y660300D02*
X7573800Y660300D01*
X7573800Y660300D02*
X8240000Y1326500D01*
X7422702Y520600D02*
X7003602Y101500D01*
D15*
X8525000Y946500D02*
X7848602Y946500D01*
G04 #@! TO.N,/C2D*
X8525000Y-1053500D02*
X8235500Y-1343000D01*
D14*
X8068090Y-2644010D02*
X8068090Y-2654400D01*
X8235500Y-2476600D02*
X8068090Y-2644010D01*
X8235500Y-1343000D02*
X8235500Y-2476600D01*
D16*
G04 #@! TO.N,/HD+*
X5175000Y1000010D02*
X5175000Y1218900D01*
D15*
X4278210Y2153790D02*
X4278210Y2120800D01*
X4108000Y2324000D02*
X4278210Y2153790D01*
D16*
X4383909Y2226499D02*
X4278210Y2120800D01*
D15*
X4108000Y3365400D02*
X4108000Y2324000D01*
D16*
X4800001Y2226499D02*
X4383909Y2226499D01*
D15*
X2332665Y4569135D02*
X2904265Y4569135D01*
D16*
X5700000Y1326500D02*
X4800001Y2226499D01*
D15*
X1853305Y4089775D02*
X2332665Y4569135D01*
X2904265Y4569135D02*
X4108000Y3365400D01*
D14*
G04 #@! TO.N,/HD-*
X4791400Y-304900D02*
X5803019Y-1316519D01*
X5803019Y-1316519D02*
X5700000Y-1213500D01*
D16*
X5175000Y-1016750D02*
X5175000Y-736900D01*
D15*
X3803200Y165654D02*
X3968300Y554D01*
X2934766Y4094134D02*
X3803200Y3225700D01*
D16*
X4485946Y554D02*
X4791400Y-304900D01*
D15*
X2529430Y4094134D02*
X2934766Y4094134D01*
D16*
X3968300Y554D02*
X4485946Y554D01*
D15*
X3803200Y3225700D02*
X3803200Y165654D01*
G04 #@! TO.N,/Button*
X-552900Y1701700D02*
X249989Y898811D01*
X1199700Y-3526198D02*
X1199700Y-5564735D01*
X249989Y-2576487D02*
X1199700Y-3526198D01*
X1199700Y-5564735D02*
X1199700Y-5918288D01*
X249989Y898811D02*
X249989Y-2576487D01*
G04 #@! TO.N,/SDA*
X392901Y4064515D02*
X642900Y4314514D01*
X140499Y3812113D02*
X392901Y4064515D01*
X1738210Y1834956D02*
X140499Y3432667D01*
X1738210Y-2197192D02*
X1738210Y1834956D01*
X140499Y3432667D02*
X140499Y3812113D01*
G04 #@! TO.N,/SCL*
X2418900Y-2171800D02*
X2126800Y-1879700D01*
X2126800Y-1879700D02*
X2126800Y2153799D01*
X2126800Y2153799D02*
X640900Y3639699D01*
X640900Y3639699D02*
X640376Y3640223D01*
G04 #@! TO.N,/LED*
X-558583Y-5479483D02*
X-558583Y-2204217D01*
X-1162500Y-7582000D02*
X-1162500Y-6083400D01*
X-1162500Y-6083400D02*
X-558583Y-5479483D01*
X-11589200Y-6743800D02*
X-10573200Y-7759800D01*
X-1340300Y-7759800D02*
X-1162500Y-7582000D01*
X-10573200Y-7759800D02*
X-1340300Y-7759800D01*
D14*
G04 #@! TO.N,/GND*
X463100Y1981100D02*
X463100Y2438300D01*
X463100Y2438300D02*
X-972000Y3873400D01*
X-972000Y3873400D02*
X-972000Y5600437D01*
X-972000Y5600437D02*
X-972163Y5600600D01*
X6970000Y3866500D02*
X4330800Y3866500D01*
X4330800Y3866500D02*
X2634800Y5562500D01*
X2634800Y5562500D02*
X920300Y5562500D01*
X-934063Y5562500D02*
X-972163Y5600600D01*
X-972163Y5600600D02*
X-972163Y7289863D01*
X-972163Y7289863D02*
X-1340300Y7658000D01*
X-1340300Y7658000D02*
X-8274500Y7658000D01*
X-8274500Y7658000D02*
X-9744294Y6188206D01*
X-9744294Y6188206D02*
X-10067010Y6188206D01*
X-10067010Y6188206D02*
X-9912652Y6033848D01*
D16*
X-9540000Y6406500D02*
X-9390000Y6406500D01*
D14*
X463100Y1981100D02*
X725000Y1719200D01*
X725000Y1719200D02*
X725000Y-153500D01*
X6970000Y3866500D02*
X6970000Y3780000D01*
X6970000Y3780000D02*
X7918000Y2832000D01*
X2343923Y-5564785D02*
X2343923Y-5918338D01*
X725000Y-153500D02*
X725000Y-2379732D01*
X725000Y-2379732D02*
X2343923Y-3998655D01*
X2343923Y-3998655D02*
X2343923Y-5564785D01*
X920300Y5562500D02*
X-934063Y5562500D01*
D16*
X6970000Y3866500D02*
X8242792Y3866500D01*
X8242792Y3866500D02*
X9073700Y4697408D01*
X9073700Y4697408D02*
X9073700Y6273700D01*
X8222800Y7124600D02*
X7016300Y7124600D01*
X9073700Y6273700D02*
X8222800Y7124600D01*
X2593922Y-6168337D02*
X2343923Y-5918338D01*
X6312860Y-6776960D02*
X3202545Y-6776960D01*
X3202545Y-6776960D02*
X2593922Y-6168337D01*
X6965500Y-7429600D02*
X6312860Y-6776960D01*
D15*
G04 #@! TO.N,/Button_reset*
X-44900Y-5715100D02*
X-641800Y-6312000D01*
X-641800Y-6312000D02*
X-667200Y-6312000D01*
X-44900Y-3048100D02*
X-44900Y-5715100D01*
G04 #@! TD*
G04 #@! TO.N,/GND*
G36*
X3375470Y7109982D02*
X3374142Y7096500D01*
X3379443Y7042683D01*
X3395140Y6990934D01*
X3420632Y6943242D01*
X3454939Y6901439D01*
X3496742Y6867132D01*
X3544434Y6841640D01*
X3596183Y6825943D01*
X3650000Y6820642D01*
X3663482Y6821970D01*
X4336518Y6821970D01*
X4350000Y6820642D01*
X4363482Y6821970D01*
X4403817Y6825943D01*
X4455566Y6841640D01*
X4503258Y6867132D01*
X4545061Y6901439D01*
X4579368Y6943242D01*
X4604860Y6990934D01*
X4620557Y7042683D01*
X4625858Y7096500D01*
X4624530Y7109982D01*
X4624530Y7846970D01*
X9225071Y7846970D01*
X9225071Y1877184D01*
X9113844Y2043645D01*
X8957145Y2200344D01*
X8772887Y2323462D01*
X8568150Y2408267D01*
X8350803Y2451500D01*
X8129197Y2451500D01*
X7911850Y2408267D01*
X7767047Y2348288D01*
X7744730Y2460483D01*
X7686316Y2601507D01*
X7601512Y2728426D01*
X7510460Y2819478D01*
X7593422Y2863823D01*
X7693852Y3022440D01*
X6970000Y3746292D01*
X6246148Y3022440D01*
X6346578Y2863823D01*
X6471493Y2802231D01*
X6397688Y2728426D01*
X6312884Y2601507D01*
X6254470Y2460483D01*
X6227646Y2325633D01*
X6028150Y2408267D01*
X5810803Y2451500D01*
X5589197Y2451500D01*
X5371850Y2408267D01*
X5190962Y2333341D01*
X5061136Y2463167D01*
X5050107Y2476605D01*
X4996508Y2520592D01*
X4935357Y2553278D01*
X4869005Y2573406D01*
X4817293Y2578499D01*
X4817290Y2578499D01*
X4800001Y2580202D01*
X4782712Y2578499D01*
X4411971Y2578499D01*
X4408000Y2579289D01*
X4408000Y3350678D01*
X4409450Y3365401D01*
X4408000Y3380124D01*
X4408000Y3380133D01*
X4403659Y3424210D01*
X4386504Y3480760D01*
X4367425Y3516455D01*
X4358647Y3532878D01*
X4330549Y3567115D01*
X4321158Y3578558D01*
X4309716Y3587947D01*
X4069864Y3827799D01*
X5789949Y3827799D01*
X5820174Y3598326D01*
X5894586Y3379158D01*
X5967323Y3243078D01*
X6125940Y3142648D01*
X6849792Y3866500D01*
X7090208Y3866500D01*
X7814060Y3142648D01*
X7972677Y3243078D01*
X8075035Y3450670D01*
X8134927Y3674241D01*
X8150051Y3905201D01*
X8119826Y4134674D01*
X8045414Y4353842D01*
X7972677Y4489922D01*
X7814060Y4590352D01*
X7090208Y3866500D01*
X6849792Y3866500D01*
X6125940Y4590352D01*
X5967323Y4489922D01*
X5864965Y4282330D01*
X5805073Y4058759D01*
X5789949Y3827799D01*
X4069864Y3827799D01*
X3126818Y4770845D01*
X3117423Y4782293D01*
X3071742Y4819782D01*
X3019625Y4847639D01*
X2963075Y4864794D01*
X2918998Y4869135D01*
X2918988Y4869135D01*
X2904265Y4870585D01*
X2889542Y4869135D01*
X2347387Y4869135D01*
X2332664Y4870585D01*
X2317941Y4869135D01*
X2317932Y4869135D01*
X2273855Y4864794D01*
X2217305Y4847639D01*
X2193044Y4834671D01*
X2165187Y4819782D01*
X2130950Y4791684D01*
X2119507Y4782293D01*
X2110116Y4770850D01*
X1903386Y4564119D01*
X1900088Y4564775D01*
X1806522Y4564775D01*
X1714753Y4546521D01*
X1628308Y4510714D01*
X1550510Y4458731D01*
X1484349Y4392570D01*
X1432366Y4314772D01*
X1396559Y4228327D01*
X1378305Y4136558D01*
X1378305Y4042992D01*
X1396559Y3951223D01*
X1432366Y3864778D01*
X1484349Y3786980D01*
X1550510Y3720819D01*
X1628308Y3668836D01*
X1714753Y3633029D01*
X1806522Y3614775D01*
X1900088Y3614775D01*
X1991857Y3633029D01*
X2078302Y3668836D01*
X2156100Y3720819D01*
X2193547Y3758266D01*
X2226635Y3725178D01*
X2304433Y3673195D01*
X2390878Y3637388D01*
X2482647Y3619134D01*
X2576213Y3619134D01*
X2667982Y3637388D01*
X2754427Y3673195D01*
X2832225Y3725178D01*
X2855842Y3748795D01*
X3503200Y3101436D01*
X3503201Y997050D01*
X3500259Y999992D01*
X3485381Y1018121D01*
X3467252Y1032999D01*
X3450675Y1049576D01*
X3431183Y1062600D01*
X3413053Y1077479D01*
X3392370Y1088534D01*
X3372877Y1101559D01*
X3351216Y1110531D01*
X3330534Y1121586D01*
X3308095Y1128393D01*
X3286432Y1137366D01*
X3263433Y1141941D01*
X3240996Y1148747D01*
X3217662Y1151045D01*
X3194663Y1155620D01*
X3171212Y1155620D01*
X3147880Y1157918D01*
X3124548Y1155620D01*
X3101097Y1155620D01*
X3078097Y1151045D01*
X3054765Y1148747D01*
X3032330Y1141941D01*
X3009328Y1137366D01*
X2987662Y1128392D01*
X2965227Y1121586D01*
X2944549Y1110533D01*
X2922883Y1101559D01*
X2903386Y1088532D01*
X2882708Y1077479D01*
X2864583Y1062604D01*
X2845085Y1049576D01*
X2828504Y1032995D01*
X2810380Y1018121D01*
X2795506Y999997D01*
X2778924Y983415D01*
X2765895Y963916D01*
X2751022Y945793D01*
X2739971Y925117D01*
X2726941Y905617D01*
X2717965Y883947D01*
X2706915Y863274D01*
X2700110Y840842D01*
X2691134Y819172D01*
X2686559Y796171D01*
X2679753Y773736D01*
X2677455Y750403D01*
X2672880Y727403D01*
X2672880Y303736D01*
X2672881Y303726D01*
X2672880Y-1770227D01*
X2643897Y-1750861D01*
X2557452Y-1715054D01*
X2465683Y-1696800D01*
X2426800Y-1696800D01*
X2426800Y2139076D01*
X2428250Y2153799D01*
X2426800Y2168523D01*
X2426800Y2168532D01*
X2422459Y2212609D01*
X2405304Y2269159D01*
X2383866Y2309267D01*
X2377447Y2321277D01*
X2349349Y2355514D01*
X2339958Y2366957D01*
X2328515Y2376348D01*
X1114720Y3590142D01*
X1115376Y3593440D01*
X1115376Y3687006D01*
X1097122Y3778775D01*
X1061315Y3865220D01*
X1009332Y3943018D01*
X976244Y3976106D01*
X1011856Y4011719D01*
X1063839Y4089517D01*
X1099646Y4175962D01*
X1117900Y4267731D01*
X1117900Y4361297D01*
X1099646Y4453066D01*
X1063839Y4539511D01*
X1011856Y4617309D01*
X945695Y4683470D01*
X867897Y4735453D01*
X781452Y4771260D01*
X689683Y4789514D01*
X596117Y4789514D01*
X504348Y4771260D01*
X417903Y4735453D01*
X340105Y4683470D01*
X273944Y4617309D01*
X221961Y4539511D01*
X186154Y4453066D01*
X167900Y4361297D01*
X167900Y4267731D01*
X168556Y4264434D01*
X-61216Y4034661D01*
X-72658Y4025271D01*
X-82049Y4013828D01*
X-82050Y4013827D01*
X-110148Y3979590D01*
X-129695Y3943018D01*
X-138004Y3927473D01*
X-155160Y3870923D01*
X-159501Y3826846D01*
X-159501Y3826836D01*
X-160951Y3812113D01*
X-159501Y3797390D01*
X-159501Y3447390D01*
X-160951Y3432667D01*
X-159501Y3417944D01*
X-159501Y3417935D01*
X-155160Y3373858D01*
X-138005Y3317308D01*
X-125037Y3293047D01*
X-110148Y3265190D01*
X-97715Y3250041D01*
X-72659Y3219509D01*
X-61211Y3210114D01*
X1438211Y1710691D01*
X1438210Y-1826368D01*
X1435415Y-1828236D01*
X1369254Y-1894397D01*
X1317271Y-1972195D01*
X1281464Y-2058640D01*
X1263210Y-2150409D01*
X1263210Y-2243975D01*
X1281464Y-2335744D01*
X1317271Y-2422189D01*
X1369254Y-2499987D01*
X1435415Y-2566148D01*
X1513213Y-2618131D01*
X1599658Y-2653938D01*
X1691427Y-2672192D01*
X1784993Y-2672192D01*
X1876762Y-2653938D01*
X1963207Y-2618131D01*
X2041005Y-2566148D01*
X2091251Y-2515902D01*
X2116105Y-2540756D01*
X2193903Y-2592739D01*
X2280348Y-2628546D01*
X2372117Y-2646800D01*
X2465683Y-2646800D01*
X2557452Y-2628546D01*
X2643897Y-2592739D01*
X2721695Y-2540756D01*
X2787856Y-2474595D01*
X2839839Y-2396797D01*
X2868399Y-2327849D01*
X4613421Y-4072871D01*
X4628299Y-4091001D01*
X4700627Y-4150359D01*
X4783146Y-4194466D01*
X4845522Y-4213388D01*
X4872683Y-4221627D01*
X4953801Y-4229616D01*
X4953801Y-4576112D01*
X4953800Y-4576117D01*
X4953800Y-4669683D01*
X4958377Y-4692693D01*
X4960674Y-4716016D01*
X4967477Y-4738444D01*
X4972054Y-4761452D01*
X4981031Y-4783124D01*
X4987835Y-4805554D01*
X4998885Y-4826227D01*
X5007861Y-4847897D01*
X5020891Y-4867397D01*
X5031942Y-4888073D01*
X5046815Y-4906196D01*
X5059844Y-4925695D01*
X5076426Y-4942277D01*
X5091300Y-4960401D01*
X5109424Y-4975275D01*
X5126005Y-4991856D01*
X5145503Y-5004884D01*
X5163628Y-5019759D01*
X5184306Y-5030812D01*
X5203803Y-5043839D01*
X5225469Y-5052813D01*
X5246147Y-5063866D01*
X5267694Y-5070402D01*
X5185029Y-5171130D01*
X5094440Y-5340609D01*
X5038656Y-5524505D01*
X5019820Y-5715750D01*
X5038656Y-5906995D01*
X5094440Y-6090891D01*
X5185029Y-6260370D01*
X5306940Y-6408920D01*
X5455490Y-6530831D01*
X5624969Y-6621420D01*
X5808865Y-6677204D01*
X5952187Y-6691320D01*
X8047013Y-6691320D01*
X8190335Y-6677204D01*
X8374231Y-6621420D01*
X8543710Y-6530831D01*
X8692260Y-6408920D01*
X8814171Y-6260370D01*
X8904760Y-6090891D01*
X8960544Y-5906995D01*
X8979380Y-5715750D01*
X8960544Y-5524505D01*
X8904760Y-5340609D01*
X8814171Y-5171130D01*
X8692260Y-5022580D01*
X8543710Y-4900669D01*
X8374231Y-4810080D01*
X8190335Y-4754296D01*
X8047013Y-4740180D01*
X7518275Y-4740180D01*
X7687145Y-4627344D01*
X7843844Y-4470645D01*
X7966962Y-4286387D01*
X8051767Y-4081650D01*
X8095000Y-3864303D01*
X8095000Y-3642697D01*
X8051767Y-3425350D01*
X7966962Y-3220613D01*
X7882073Y-3093568D01*
X7885437Y-3095366D01*
X7907872Y-3102172D01*
X7929538Y-3111146D01*
X7952540Y-3115721D01*
X7974975Y-3122527D01*
X7998307Y-3124825D01*
X8021307Y-3129400D01*
X8044758Y-3129400D01*
X8068090Y-3131698D01*
X8091422Y-3129400D01*
X8114873Y-3129400D01*
X8137872Y-3124825D01*
X8161206Y-3122527D01*
X8183643Y-3115721D01*
X8206642Y-3111146D01*
X8228305Y-3102173D01*
X8250744Y-3095366D01*
X8271426Y-3084311D01*
X8293087Y-3075339D01*
X8312580Y-3062314D01*
X8333263Y-3051259D01*
X8351393Y-3036380D01*
X8370885Y-3023356D01*
X8387462Y-3006779D01*
X8405591Y-2991901D01*
X8420469Y-2973772D01*
X8437046Y-2957195D01*
X8450070Y-2937703D01*
X8464949Y-2919573D01*
X8465721Y-2918129D01*
X8554866Y-2828984D01*
X8573001Y-2814101D01*
X8632359Y-2741773D01*
X8676466Y-2659254D01*
X8703627Y-2569716D01*
X8710500Y-2499932D01*
X8710500Y-2499931D01*
X8712798Y-2476601D01*
X8710500Y-2453271D01*
X8710500Y-2236304D01*
X8772887Y-2210462D01*
X8957145Y-2087344D01*
X9113844Y-1930645D01*
X9225070Y-1764184D01*
X9225070Y-7878970D01*
X4624530Y-7878970D01*
X4624530Y-7116982D01*
X4625858Y-7103500D01*
X4620557Y-7049683D01*
X4604860Y-6997934D01*
X4579368Y-6950242D01*
X4545061Y-6908439D01*
X4503258Y-6874132D01*
X4455566Y-6848640D01*
X4403817Y-6832943D01*
X4363482Y-6828970D01*
X4350000Y-6827642D01*
X4336518Y-6828970D01*
X3663482Y-6828970D01*
X3650000Y-6827642D01*
X3636518Y-6828970D01*
X3596183Y-6832943D01*
X3544434Y-6848640D01*
X3496742Y-6874132D01*
X3454939Y-6908439D01*
X3420632Y-6950242D01*
X3395140Y-6997934D01*
X3379443Y-7049683D01*
X3374142Y-7103500D01*
X3375470Y-7116982D01*
X3375471Y-7878970D01*
X-1035207Y-7878970D01*
X-960789Y-7804552D01*
X-949342Y-7795158D01*
X-926620Y-7767470D01*
X-911853Y-7749478D01*
X-896964Y-7721621D01*
X-883996Y-7697360D01*
X-866841Y-7640810D01*
X-862500Y-7596733D01*
X-862500Y-7596724D01*
X-861050Y-7582001D01*
X-862500Y-7567278D01*
X-862500Y-6745240D01*
X-805752Y-6768746D01*
X-713983Y-6787000D01*
X-620417Y-6787000D01*
X-528648Y-6768746D01*
X-442203Y-6732939D01*
X-364405Y-6680956D01*
X-298244Y-6614795D01*
X-246261Y-6536997D01*
X-210454Y-6450552D01*
X-192200Y-6358783D01*
X-192200Y-6286663D01*
X156815Y-5937649D01*
X168258Y-5928258D01*
X185708Y-5906995D01*
X205747Y-5882578D01*
X220636Y-5854721D01*
X233604Y-5830460D01*
X250759Y-5773910D01*
X255100Y-5729833D01*
X255100Y-5729824D01*
X256550Y-5715101D01*
X255100Y-5700378D01*
X255100Y-3418924D01*
X257895Y-3417056D01*
X324056Y-3350895D01*
X376039Y-3273097D01*
X411846Y-3186652D01*
X415835Y-3166597D01*
X899700Y-3650462D01*
X899701Y-5547464D01*
X896905Y-5549332D01*
X830744Y-5615493D01*
X778761Y-5693291D01*
X742954Y-5779736D01*
X724700Y-5871505D01*
X724700Y-5965071D01*
X742954Y-6056840D01*
X778761Y-6143285D01*
X830744Y-6221083D01*
X896905Y-6287244D01*
X974703Y-6339227D01*
X1061148Y-6375034D01*
X1152917Y-6393288D01*
X1246483Y-6393288D01*
X1338252Y-6375034D01*
X1424697Y-6339227D01*
X1502495Y-6287244D01*
X1568656Y-6221083D01*
X1620639Y-6143285D01*
X1656446Y-6056840D01*
X1674700Y-5965071D01*
X1674700Y-5871505D01*
X1656446Y-5779736D01*
X1620639Y-5693291D01*
X1568656Y-5615493D01*
X1502495Y-5549332D01*
X1499700Y-5547464D01*
X1499700Y-3540920D01*
X1501150Y-3526197D01*
X1499700Y-3511474D01*
X1499700Y-3511465D01*
X1495359Y-3467388D01*
X1478204Y-3410838D01*
X1450348Y-3358722D01*
X1450347Y-3358720D01*
X1422249Y-3324483D01*
X1412858Y-3313040D01*
X1401416Y-3303650D01*
X549989Y-2452224D01*
X549989Y884081D01*
X551440Y898811D01*
X549989Y913544D01*
X545648Y957621D01*
X528493Y1014171D01*
X503003Y1061860D01*
X500636Y1066289D01*
X472539Y1100525D01*
X472538Y1100526D01*
X463147Y1111969D01*
X451705Y1121359D01*
X-78556Y1651619D01*
X-77900Y1654917D01*
X-77900Y1748483D01*
X-96154Y1840252D01*
X-131961Y1926697D01*
X-183944Y2004495D01*
X-250105Y2070656D01*
X-327903Y2122639D01*
X-414348Y2158446D01*
X-506117Y2176700D01*
X-599683Y2176700D01*
X-691452Y2158446D01*
X-777897Y2122639D01*
X-855695Y2070656D01*
X-921856Y2004495D01*
X-973839Y1926697D01*
X-1009646Y1840252D01*
X-1027900Y1748483D01*
X-1027900Y1654917D01*
X-1009646Y1563148D01*
X-973839Y1476703D01*
X-921856Y1398905D01*
X-855695Y1332744D01*
X-777897Y1280761D01*
X-691452Y1244954D01*
X-599683Y1226700D01*
X-506117Y1226700D01*
X-502819Y1227356D01*
X-50011Y774547D01*
X-50010Y-2561754D01*
X-51127Y-2573100D01*
X-91683Y-2573100D01*
X-183452Y-2591354D01*
X-258583Y-2622475D01*
X-258583Y-2575041D01*
X-255788Y-2573173D01*
X-189627Y-2507012D01*
X-137644Y-2429214D01*
X-101837Y-2342769D01*
X-83583Y-2251000D01*
X-83583Y-2157434D01*
X-101837Y-2065665D01*
X-137644Y-1979220D01*
X-189627Y-1901422D01*
X-255788Y-1835261D01*
X-333586Y-1783278D01*
X-420031Y-1747471D01*
X-511800Y-1729217D01*
X-605366Y-1729217D01*
X-697135Y-1747471D01*
X-783580Y-1783278D01*
X-861378Y-1835261D01*
X-927539Y-1901422D01*
X-979522Y-1979220D01*
X-1015329Y-2065665D01*
X-1033583Y-2157434D01*
X-1033583Y-2251000D01*
X-1015329Y-2342769D01*
X-979522Y-2429214D01*
X-927539Y-2507012D01*
X-861378Y-2573173D01*
X-858582Y-2575041D01*
X-858583Y-5355219D01*
X-1364215Y-5860852D01*
X-1375657Y-5870242D01*
X-1385048Y-5881685D01*
X-1385049Y-5881686D01*
X-1413147Y-5915923D01*
X-1441003Y-5968040D01*
X-1458158Y-6024590D01*
X-1463950Y-6083400D01*
X-1462499Y-6098133D01*
X-1462500Y-7457737D01*
X-1464563Y-7459800D01*
X-10448936Y-7459800D01*
X-11114856Y-6793881D01*
X-11114200Y-6790583D01*
X-11114200Y-6697017D01*
X-11132454Y-6605248D01*
X-11168261Y-6518803D01*
X-11220244Y-6441005D01*
X-11286405Y-6374844D01*
X-11364203Y-6322861D01*
X-11450648Y-6287054D01*
X-11542417Y-6268800D01*
X-11635983Y-6268800D01*
X-11727752Y-6287054D01*
X-11814197Y-6322861D01*
X-11891995Y-6374844D01*
X-11958156Y-6441005D01*
X-12000470Y-6504332D01*
X-12000470Y5683770D01*
X5019820Y5683770D01*
X5038656Y5492525D01*
X5094440Y5308629D01*
X5185029Y5139150D01*
X5306940Y4990600D01*
X5455490Y4868689D01*
X5624969Y4778100D01*
X5808865Y4722316D01*
X5952187Y4708200D01*
X6248508Y4708200D01*
X6970000Y3986708D01*
X7691492Y4708200D01*
X8047013Y4708200D01*
X8190335Y4722316D01*
X8374231Y4778100D01*
X8543710Y4868689D01*
X8692260Y4990600D01*
X8814171Y5139150D01*
X8904760Y5308629D01*
X8960544Y5492525D01*
X8979380Y5683770D01*
X8960544Y5875015D01*
X8904760Y6058911D01*
X8814171Y6228390D01*
X8692260Y6376940D01*
X8543710Y6498851D01*
X8374231Y6589440D01*
X8190335Y6645224D01*
X8047013Y6659340D01*
X5952187Y6659340D01*
X5808865Y6645224D01*
X5624969Y6589440D01*
X5455490Y6498851D01*
X5306940Y6376940D01*
X5185029Y6228390D01*
X5094440Y6058911D01*
X5038656Y5875015D01*
X5019820Y5683770D01*
X-12000470Y5683770D01*
X-12000470Y7846970D01*
X3375471Y7846970D01*
X3375470Y7109982D01*
X3375470Y7109982D01*
G37*
X3375470Y7109982D02*
X3374142Y7096500D01*
X3379443Y7042683D01*
X3395140Y6990934D01*
X3420632Y6943242D01*
X3454939Y6901439D01*
X3496742Y6867132D01*
X3544434Y6841640D01*
X3596183Y6825943D01*
X3650000Y6820642D01*
X3663482Y6821970D01*
X4336518Y6821970D01*
X4350000Y6820642D01*
X4363482Y6821970D01*
X4403817Y6825943D01*
X4455566Y6841640D01*
X4503258Y6867132D01*
X4545061Y6901439D01*
X4579368Y6943242D01*
X4604860Y6990934D01*
X4620557Y7042683D01*
X4625858Y7096500D01*
X4624530Y7109982D01*
X4624530Y7846970D01*
X9225071Y7846970D01*
X9225071Y1877184D01*
X9113844Y2043645D01*
X8957145Y2200344D01*
X8772887Y2323462D01*
X8568150Y2408267D01*
X8350803Y2451500D01*
X8129197Y2451500D01*
X7911850Y2408267D01*
X7767047Y2348288D01*
X7744730Y2460483D01*
X7686316Y2601507D01*
X7601512Y2728426D01*
X7510460Y2819478D01*
X7593422Y2863823D01*
X7693852Y3022440D01*
X6970000Y3746292D01*
X6246148Y3022440D01*
X6346578Y2863823D01*
X6471493Y2802231D01*
X6397688Y2728426D01*
X6312884Y2601507D01*
X6254470Y2460483D01*
X6227646Y2325633D01*
X6028150Y2408267D01*
X5810803Y2451500D01*
X5589197Y2451500D01*
X5371850Y2408267D01*
X5190962Y2333341D01*
X5061136Y2463167D01*
X5050107Y2476605D01*
X4996508Y2520592D01*
X4935357Y2553278D01*
X4869005Y2573406D01*
X4817293Y2578499D01*
X4817290Y2578499D01*
X4800001Y2580202D01*
X4782712Y2578499D01*
X4411971Y2578499D01*
X4408000Y2579289D01*
X4408000Y3350678D01*
X4409450Y3365401D01*
X4408000Y3380124D01*
X4408000Y3380133D01*
X4403659Y3424210D01*
X4386504Y3480760D01*
X4367425Y3516455D01*
X4358647Y3532878D01*
X4330549Y3567115D01*
X4321158Y3578558D01*
X4309716Y3587947D01*
X4069864Y3827799D01*
X5789949Y3827799D01*
X5820174Y3598326D01*
X5894586Y3379158D01*
X5967323Y3243078D01*
X6125940Y3142648D01*
X6849792Y3866500D01*
X7090208Y3866500D01*
X7814060Y3142648D01*
X7972677Y3243078D01*
X8075035Y3450670D01*
X8134927Y3674241D01*
X8150051Y3905201D01*
X8119826Y4134674D01*
X8045414Y4353842D01*
X7972677Y4489922D01*
X7814060Y4590352D01*
X7090208Y3866500D01*
X6849792Y3866500D01*
X6125940Y4590352D01*
X5967323Y4489922D01*
X5864965Y4282330D01*
X5805073Y4058759D01*
X5789949Y3827799D01*
X4069864Y3827799D01*
X3126818Y4770845D01*
X3117423Y4782293D01*
X3071742Y4819782D01*
X3019625Y4847639D01*
X2963075Y4864794D01*
X2918998Y4869135D01*
X2918988Y4869135D01*
X2904265Y4870585D01*
X2889542Y4869135D01*
X2347387Y4869135D01*
X2332664Y4870585D01*
X2317941Y4869135D01*
X2317932Y4869135D01*
X2273855Y4864794D01*
X2217305Y4847639D01*
X2193044Y4834671D01*
X2165187Y4819782D01*
X2130950Y4791684D01*
X2119507Y4782293D01*
X2110116Y4770850D01*
X1903386Y4564119D01*
X1900088Y4564775D01*
X1806522Y4564775D01*
X1714753Y4546521D01*
X1628308Y4510714D01*
X1550510Y4458731D01*
X1484349Y4392570D01*
X1432366Y4314772D01*
X1396559Y4228327D01*
X1378305Y4136558D01*
X1378305Y4042992D01*
X1396559Y3951223D01*
X1432366Y3864778D01*
X1484349Y3786980D01*
X1550510Y3720819D01*
X1628308Y3668836D01*
X1714753Y3633029D01*
X1806522Y3614775D01*
X1900088Y3614775D01*
X1991857Y3633029D01*
X2078302Y3668836D01*
X2156100Y3720819D01*
X2193547Y3758266D01*
X2226635Y3725178D01*
X2304433Y3673195D01*
X2390878Y3637388D01*
X2482647Y3619134D01*
X2576213Y3619134D01*
X2667982Y3637388D01*
X2754427Y3673195D01*
X2832225Y3725178D01*
X2855842Y3748795D01*
X3503200Y3101436D01*
X3503201Y997050D01*
X3500259Y999992D01*
X3485381Y1018121D01*
X3467252Y1032999D01*
X3450675Y1049576D01*
X3431183Y1062600D01*
X3413053Y1077479D01*
X3392370Y1088534D01*
X3372877Y1101559D01*
X3351216Y1110531D01*
X3330534Y1121586D01*
X3308095Y1128393D01*
X3286432Y1137366D01*
X3263433Y1141941D01*
X3240996Y1148747D01*
X3217662Y1151045D01*
X3194663Y1155620D01*
X3171212Y1155620D01*
X3147880Y1157918D01*
X3124548Y1155620D01*
X3101097Y1155620D01*
X3078097Y1151045D01*
X3054765Y1148747D01*
X3032330Y1141941D01*
X3009328Y1137366D01*
X2987662Y1128392D01*
X2965227Y1121586D01*
X2944549Y1110533D01*
X2922883Y1101559D01*
X2903386Y1088532D01*
X2882708Y1077479D01*
X2864583Y1062604D01*
X2845085Y1049576D01*
X2828504Y1032995D01*
X2810380Y1018121D01*
X2795506Y999997D01*
X2778924Y983415D01*
X2765895Y963916D01*
X2751022Y945793D01*
X2739971Y925117D01*
X2726941Y905617D01*
X2717965Y883947D01*
X2706915Y863274D01*
X2700110Y840842D01*
X2691134Y819172D01*
X2686559Y796171D01*
X2679753Y773736D01*
X2677455Y750403D01*
X2672880Y727403D01*
X2672880Y303736D01*
X2672881Y303726D01*
X2672880Y-1770227D01*
X2643897Y-1750861D01*
X2557452Y-1715054D01*
X2465683Y-1696800D01*
X2426800Y-1696800D01*
X2426800Y2139076D01*
X2428250Y2153799D01*
X2426800Y2168523D01*
X2426800Y2168532D01*
X2422459Y2212609D01*
X2405304Y2269159D01*
X2383866Y2309267D01*
X2377447Y2321277D01*
X2349349Y2355514D01*
X2339958Y2366957D01*
X2328515Y2376348D01*
X1114720Y3590142D01*
X1115376Y3593440D01*
X1115376Y3687006D01*
X1097122Y3778775D01*
X1061315Y3865220D01*
X1009332Y3943018D01*
X976244Y3976106D01*
X1011856Y4011719D01*
X1063839Y4089517D01*
X1099646Y4175962D01*
X1117900Y4267731D01*
X1117900Y4361297D01*
X1099646Y4453066D01*
X1063839Y4539511D01*
X1011856Y4617309D01*
X945695Y4683470D01*
X867897Y4735453D01*
X781452Y4771260D01*
X689683Y4789514D01*
X596117Y4789514D01*
X504348Y4771260D01*
X417903Y4735453D01*
X340105Y4683470D01*
X273944Y4617309D01*
X221961Y4539511D01*
X186154Y4453066D01*
X167900Y4361297D01*
X167900Y4267731D01*
X168556Y4264434D01*
X-61216Y4034661D01*
X-72658Y4025271D01*
X-82049Y4013828D01*
X-82050Y4013827D01*
X-110148Y3979590D01*
X-129695Y3943018D01*
X-138004Y3927473D01*
X-155160Y3870923D01*
X-159501Y3826846D01*
X-159501Y3826836D01*
X-160951Y3812113D01*
X-159501Y3797390D01*
X-159501Y3447390D01*
X-160951Y3432667D01*
X-159501Y3417944D01*
X-159501Y3417935D01*
X-155160Y3373858D01*
X-138005Y3317308D01*
X-125037Y3293047D01*
X-110148Y3265190D01*
X-97715Y3250041D01*
X-72659Y3219509D01*
X-61211Y3210114D01*
X1438211Y1710691D01*
X1438210Y-1826368D01*
X1435415Y-1828236D01*
X1369254Y-1894397D01*
X1317271Y-1972195D01*
X1281464Y-2058640D01*
X1263210Y-2150409D01*
X1263210Y-2243975D01*
X1281464Y-2335744D01*
X1317271Y-2422189D01*
X1369254Y-2499987D01*
X1435415Y-2566148D01*
X1513213Y-2618131D01*
X1599658Y-2653938D01*
X1691427Y-2672192D01*
X1784993Y-2672192D01*
X1876762Y-2653938D01*
X1963207Y-2618131D01*
X2041005Y-2566148D01*
X2091251Y-2515902D01*
X2116105Y-2540756D01*
X2193903Y-2592739D01*
X2280348Y-2628546D01*
X2372117Y-2646800D01*
X2465683Y-2646800D01*
X2557452Y-2628546D01*
X2643897Y-2592739D01*
X2721695Y-2540756D01*
X2787856Y-2474595D01*
X2839839Y-2396797D01*
X2868399Y-2327849D01*
X4613421Y-4072871D01*
X4628299Y-4091001D01*
X4700627Y-4150359D01*
X4783146Y-4194466D01*
X4845522Y-4213388D01*
X4872683Y-4221627D01*
X4953801Y-4229616D01*
X4953801Y-4576112D01*
X4953800Y-4576117D01*
X4953800Y-4669683D01*
X4958377Y-4692693D01*
X4960674Y-4716016D01*
X4967477Y-4738444D01*
X4972054Y-4761452D01*
X4981031Y-4783124D01*
X4987835Y-4805554D01*
X4998885Y-4826227D01*
X5007861Y-4847897D01*
X5020891Y-4867397D01*
X5031942Y-4888073D01*
X5046815Y-4906196D01*
X5059844Y-4925695D01*
X5076426Y-4942277D01*
X5091300Y-4960401D01*
X5109424Y-4975275D01*
X5126005Y-4991856D01*
X5145503Y-5004884D01*
X5163628Y-5019759D01*
X5184306Y-5030812D01*
X5203803Y-5043839D01*
X5225469Y-5052813D01*
X5246147Y-5063866D01*
X5267694Y-5070402D01*
X5185029Y-5171130D01*
X5094440Y-5340609D01*
X5038656Y-5524505D01*
X5019820Y-5715750D01*
X5038656Y-5906995D01*
X5094440Y-6090891D01*
X5185029Y-6260370D01*
X5306940Y-6408920D01*
X5455490Y-6530831D01*
X5624969Y-6621420D01*
X5808865Y-6677204D01*
X5952187Y-6691320D01*
X8047013Y-6691320D01*
X8190335Y-6677204D01*
X8374231Y-6621420D01*
X8543710Y-6530831D01*
X8692260Y-6408920D01*
X8814171Y-6260370D01*
X8904760Y-6090891D01*
X8960544Y-5906995D01*
X8979380Y-5715750D01*
X8960544Y-5524505D01*
X8904760Y-5340609D01*
X8814171Y-5171130D01*
X8692260Y-5022580D01*
X8543710Y-4900669D01*
X8374231Y-4810080D01*
X8190335Y-4754296D01*
X8047013Y-4740180D01*
X7518275Y-4740180D01*
X7687145Y-4627344D01*
X7843844Y-4470645D01*
X7966962Y-4286387D01*
X8051767Y-4081650D01*
X8095000Y-3864303D01*
X8095000Y-3642697D01*
X8051767Y-3425350D01*
X7966962Y-3220613D01*
X7882073Y-3093568D01*
X7885437Y-3095366D01*
X7907872Y-3102172D01*
X7929538Y-3111146D01*
X7952540Y-3115721D01*
X7974975Y-3122527D01*
X7998307Y-3124825D01*
X8021307Y-3129400D01*
X8044758Y-3129400D01*
X8068090Y-3131698D01*
X8091422Y-3129400D01*
X8114873Y-3129400D01*
X8137872Y-3124825D01*
X8161206Y-3122527D01*
X8183643Y-3115721D01*
X8206642Y-3111146D01*
X8228305Y-3102173D01*
X8250744Y-3095366D01*
X8271426Y-3084311D01*
X8293087Y-3075339D01*
X8312580Y-3062314D01*
X8333263Y-3051259D01*
X8351393Y-3036380D01*
X8370885Y-3023356D01*
X8387462Y-3006779D01*
X8405591Y-2991901D01*
X8420469Y-2973772D01*
X8437046Y-2957195D01*
X8450070Y-2937703D01*
X8464949Y-2919573D01*
X8465721Y-2918129D01*
X8554866Y-2828984D01*
X8573001Y-2814101D01*
X8632359Y-2741773D01*
X8676466Y-2659254D01*
X8703627Y-2569716D01*
X8710500Y-2499932D01*
X8710500Y-2499931D01*
X8712798Y-2476601D01*
X8710500Y-2453271D01*
X8710500Y-2236304D01*
X8772887Y-2210462D01*
X8957145Y-2087344D01*
X9113844Y-1930645D01*
X9225070Y-1764184D01*
X9225070Y-7878970D01*
X4624530Y-7878970D01*
X4624530Y-7116982D01*
X4625858Y-7103500D01*
X4620557Y-7049683D01*
X4604860Y-6997934D01*
X4579368Y-6950242D01*
X4545061Y-6908439D01*
X4503258Y-6874132D01*
X4455566Y-6848640D01*
X4403817Y-6832943D01*
X4363482Y-6828970D01*
X4350000Y-6827642D01*
X4336518Y-6828970D01*
X3663482Y-6828970D01*
X3650000Y-6827642D01*
X3636518Y-6828970D01*
X3596183Y-6832943D01*
X3544434Y-6848640D01*
X3496742Y-6874132D01*
X3454939Y-6908439D01*
X3420632Y-6950242D01*
X3395140Y-6997934D01*
X3379443Y-7049683D01*
X3374142Y-7103500D01*
X3375470Y-7116982D01*
X3375471Y-7878970D01*
X-1035207Y-7878970D01*
X-960789Y-7804552D01*
X-949342Y-7795158D01*
X-926620Y-7767470D01*
X-911853Y-7749478D01*
X-896964Y-7721621D01*
X-883996Y-7697360D01*
X-866841Y-7640810D01*
X-862500Y-7596733D01*
X-862500Y-7596724D01*
X-861050Y-7582001D01*
X-862500Y-7567278D01*
X-862500Y-6745240D01*
X-805752Y-6768746D01*
X-713983Y-6787000D01*
X-620417Y-6787000D01*
X-528648Y-6768746D01*
X-442203Y-6732939D01*
X-364405Y-6680956D01*
X-298244Y-6614795D01*
X-246261Y-6536997D01*
X-210454Y-6450552D01*
X-192200Y-6358783D01*
X-192200Y-6286663D01*
X156815Y-5937649D01*
X168258Y-5928258D01*
X185708Y-5906995D01*
X205747Y-5882578D01*
X220636Y-5854721D01*
X233604Y-5830460D01*
X250759Y-5773910D01*
X255100Y-5729833D01*
X255100Y-5729824D01*
X256550Y-5715101D01*
X255100Y-5700378D01*
X255100Y-3418924D01*
X257895Y-3417056D01*
X324056Y-3350895D01*
X376039Y-3273097D01*
X411846Y-3186652D01*
X415835Y-3166597D01*
X899700Y-3650462D01*
X899701Y-5547464D01*
X896905Y-5549332D01*
X830744Y-5615493D01*
X778761Y-5693291D01*
X742954Y-5779736D01*
X724700Y-5871505D01*
X724700Y-5965071D01*
X742954Y-6056840D01*
X778761Y-6143285D01*
X830744Y-6221083D01*
X896905Y-6287244D01*
X974703Y-6339227D01*
X1061148Y-6375034D01*
X1152917Y-6393288D01*
X1246483Y-6393288D01*
X1338252Y-6375034D01*
X1424697Y-6339227D01*
X1502495Y-6287244D01*
X1568656Y-6221083D01*
X1620639Y-6143285D01*
X1656446Y-6056840D01*
X1674700Y-5965071D01*
X1674700Y-5871505D01*
X1656446Y-5779736D01*
X1620639Y-5693291D01*
X1568656Y-5615493D01*
X1502495Y-5549332D01*
X1499700Y-5547464D01*
X1499700Y-3540920D01*
X1501150Y-3526197D01*
X1499700Y-3511474D01*
X1499700Y-3511465D01*
X1495359Y-3467388D01*
X1478204Y-3410838D01*
X1450348Y-3358722D01*
X1450347Y-3358720D01*
X1422249Y-3324483D01*
X1412858Y-3313040D01*
X1401416Y-3303650D01*
X549989Y-2452224D01*
X549989Y884081D01*
X551440Y898811D01*
X549989Y913544D01*
X545648Y957621D01*
X528493Y1014171D01*
X503003Y1061860D01*
X500636Y1066289D01*
X472539Y1100525D01*
X472538Y1100526D01*
X463147Y1111969D01*
X451705Y1121359D01*
X-78556Y1651619D01*
X-77900Y1654917D01*
X-77900Y1748483D01*
X-96154Y1840252D01*
X-131961Y1926697D01*
X-183944Y2004495D01*
X-250105Y2070656D01*
X-327903Y2122639D01*
X-414348Y2158446D01*
X-506117Y2176700D01*
X-599683Y2176700D01*
X-691452Y2158446D01*
X-777897Y2122639D01*
X-855695Y2070656D01*
X-921856Y2004495D01*
X-973839Y1926697D01*
X-1009646Y1840252D01*
X-1027900Y1748483D01*
X-1027900Y1654917D01*
X-1009646Y1563148D01*
X-973839Y1476703D01*
X-921856Y1398905D01*
X-855695Y1332744D01*
X-777897Y1280761D01*
X-691452Y1244954D01*
X-599683Y1226700D01*
X-506117Y1226700D01*
X-502819Y1227356D01*
X-50011Y774547D01*
X-50010Y-2561754D01*
X-51127Y-2573100D01*
X-91683Y-2573100D01*
X-183452Y-2591354D01*
X-258583Y-2622475D01*
X-258583Y-2575041D01*
X-255788Y-2573173D01*
X-189627Y-2507012D01*
X-137644Y-2429214D01*
X-101837Y-2342769D01*
X-83583Y-2251000D01*
X-83583Y-2157434D01*
X-101837Y-2065665D01*
X-137644Y-1979220D01*
X-189627Y-1901422D01*
X-255788Y-1835261D01*
X-333586Y-1783278D01*
X-420031Y-1747471D01*
X-511800Y-1729217D01*
X-605366Y-1729217D01*
X-697135Y-1747471D01*
X-783580Y-1783278D01*
X-861378Y-1835261D01*
X-927539Y-1901422D01*
X-979522Y-1979220D01*
X-1015329Y-2065665D01*
X-1033583Y-2157434D01*
X-1033583Y-2251000D01*
X-1015329Y-2342769D01*
X-979522Y-2429214D01*
X-927539Y-2507012D01*
X-861378Y-2573173D01*
X-858582Y-2575041D01*
X-858583Y-5355219D01*
X-1364215Y-5860852D01*
X-1375657Y-5870242D01*
X-1385048Y-5881685D01*
X-1385049Y-5881686D01*
X-1413147Y-5915923D01*
X-1441003Y-5968040D01*
X-1458158Y-6024590D01*
X-1463950Y-6083400D01*
X-1462499Y-6098133D01*
X-1462500Y-7457737D01*
X-1464563Y-7459800D01*
X-10448936Y-7459800D01*
X-11114856Y-6793881D01*
X-11114200Y-6790583D01*
X-11114200Y-6697017D01*
X-11132454Y-6605248D01*
X-11168261Y-6518803D01*
X-11220244Y-6441005D01*
X-11286405Y-6374844D01*
X-11364203Y-6322861D01*
X-11450648Y-6287054D01*
X-11542417Y-6268800D01*
X-11635983Y-6268800D01*
X-11727752Y-6287054D01*
X-11814197Y-6322861D01*
X-11891995Y-6374844D01*
X-11958156Y-6441005D01*
X-12000470Y-6504332D01*
X-12000470Y5683770D01*
X5019820Y5683770D01*
X5038656Y5492525D01*
X5094440Y5308629D01*
X5185029Y5139150D01*
X5306940Y4990600D01*
X5455490Y4868689D01*
X5624969Y4778100D01*
X5808865Y4722316D01*
X5952187Y4708200D01*
X6248508Y4708200D01*
X6970000Y3986708D01*
X7691492Y4708200D01*
X8047013Y4708200D01*
X8190335Y4722316D01*
X8374231Y4778100D01*
X8543710Y4868689D01*
X8692260Y4990600D01*
X8814171Y5139150D01*
X8904760Y5308629D01*
X8960544Y5492525D01*
X8979380Y5683770D01*
X8960544Y5875015D01*
X8904760Y6058911D01*
X8814171Y6228390D01*
X8692260Y6376940D01*
X8543710Y6498851D01*
X8374231Y6589440D01*
X8190335Y6645224D01*
X8047013Y6659340D01*
X5952187Y6659340D01*
X5808865Y6645224D01*
X5624969Y6589440D01*
X5455490Y6498851D01*
X5306940Y6376940D01*
X5185029Y6228390D01*
X5094440Y6058911D01*
X5038656Y5875015D01*
X5019820Y5683770D01*
X-12000470Y5683770D01*
X-12000470Y7846970D01*
X3375471Y7846970D01*
X3375470Y7109982D01*
G04 #@! TD*
M02*
