G04 #@! TF.GenerationSoftware,KiCad,Pcbnew,(5.0.0-3-g5ebb6b6)*
G04 #@! TF.CreationDate,2018-09-30T02:42:38+02:00*
G04 #@! TF.ProjectId,nk-u2f,6E6B2D7532662E6B696361645F706362,R5*
G04 #@! TF.SameCoordinates,PX791ddc0PY5e69114*
G04 #@! TF.FileFunction,Paste,Bot*
G04 #@! TF.FilePolarity,Positive*
%FSLAX46Y46*%
G04 Gerber Fmt 4.6, Leading zero omitted, Abs format (unit mm)*
G04 Created by KiCad (PCBNEW (5.0.0-3-g5ebb6b6)) date Sunday, 30 September 2018 at 02:42:38*
%MOMM*%
%LPD*%
G01*
G04 APERTURE LIST*
%ADD10R,1.599184X0.959104*%
%ADD11R,0.520000X0.848000*%
%ADD12R,0.200000X0.560000*%
%ADD13R,0.714000X0.498000*%
%ADD14R,0.400000X0.480000*%
%ADD15R,0.272000X0.272000*%
%ADD16O,0.200000X0.488000*%
%ADD17O,0.488000X0.200000*%
%ADD18R,1.200000X1.200000*%
%ADD19R,0.240000X0.360000*%
%ADD20R,0.480000X0.560000*%
%ADD21R,0.320000X0.480000*%
%ADD22R,0.480000X0.320000*%
%ADD23R,0.480000X0.400000*%
G04 APERTURE END LIST*
D10*
G04 #@! TO.C,J1*
X4599020Y3484130D03*
X4599020Y-3516110D03*
X4599020Y1000010D03*
X4599020Y-1016750D03*
G04 #@! TD*
D11*
G04 #@! TO.C,U2*
X112500Y-4648300D03*
X1062500Y-4648300D03*
X2012500Y-4648300D03*
X2012500Y-6848300D03*
X112500Y-6848300D03*
X1062500Y-6848300D03*
G04 #@! TD*
D12*
G04 #@! TO.C,U4*
X-1442600Y7013300D03*
X-942600Y7013300D03*
X-442600Y7013300D03*
X57400Y7013300D03*
X57400Y4213300D03*
X-442600Y4213300D03*
X-942600Y4213300D03*
X-1442600Y4213300D03*
D13*
X-97600Y5198300D03*
X-1287600Y5198300D03*
X-97600Y6028300D03*
X-1287600Y6028300D03*
G04 #@! TD*
D14*
G04 #@! TO.C,C2*
X3015800Y-7370000D03*
X3015800Y-6270000D03*
G04 #@! TD*
D15*
G04 #@! TO.C,U1*
X-540000Y1111500D03*
D16*
X-40000Y1201500D03*
X460000Y1201500D03*
X990000Y1201500D03*
X1460000Y1201500D03*
D15*
X1990000Y1111500D03*
D17*
X2060000Y611500D03*
X2060000Y111500D03*
X2060000Y-418500D03*
X2060000Y-918500D03*
D15*
X1990000Y-1418500D03*
D16*
X1490000Y-1488500D03*
X990000Y-1488500D03*
X460000Y-1488500D03*
X-40000Y-1488500D03*
D15*
X-540000Y-1418500D03*
D17*
X-610000Y-918500D03*
X-610000Y-418500D03*
X-610000Y102500D03*
X-610000Y611500D03*
D18*
X725000Y-153500D03*
G04 #@! TD*
D19*
G04 #@! TO.C,U3*
X1779200Y6275200D03*
X2779200Y6275200D03*
X1779200Y4875200D03*
X2279200Y6275200D03*
X2779200Y4875200D03*
G04 #@! TD*
D14*
G04 #@! TO.C,C3*
X4285800Y-4809500D03*
X4285800Y-5909500D03*
G04 #@! TD*
D20*
G04 #@! TO.C,D1*
X-9633400Y-6743800D03*
X-10733400Y-6743800D03*
G04 #@! TD*
D21*
G04 #@! TO.C,R1*
X-1694200Y-4864200D03*
X-794200Y-4864200D03*
G04 #@! TD*
D22*
G04 #@! TO.C,R2*
X3025960Y-5443740D03*
X3025960Y-4543740D03*
G04 #@! TD*
D21*
G04 #@! TO.C,R3*
X-1701400Y-7086700D03*
X-801400Y-7086700D03*
G04 #@! TD*
D22*
G04 #@! TO.C,R4*
X3041200Y101500D03*
X3041200Y-798500D03*
G04 #@! TD*
G04 #@! TO.C,R5*
X1707700Y-3617900D03*
X1707700Y-2717900D03*
G04 #@! TD*
G04 #@! TO.C,R7*
X2774500Y-3617900D03*
X2774500Y-2717900D03*
G04 #@! TD*
D14*
G04 #@! TO.C,C4*
X3127560Y1746060D03*
X3127560Y2846060D03*
G04 #@! TD*
G04 #@! TO.C,C1*
X-2445200Y5063300D03*
X-2445200Y6163300D03*
G04 #@! TD*
D23*
G04 #@! TO.C,C5*
X3795400Y4711600D03*
X4895400Y4711600D03*
G04 #@! TD*
D21*
G04 #@! TO.C,R6*
X3817600Y5626000D03*
X4717600Y5626000D03*
G04 #@! TD*
M02*
