G04 #@! TF.FileFunction,Legend,Top*
%FSLAX46Y46*%
G04 Gerber Fmt 4.6, Leading zero omitted, Abs format (unit mm)*
G04 Created by KiCad (PCBNEW 4.0.5) date 03/08/17 21:21:33*
%MOMM*%
%LPD*%
G01*
G04 APERTURE LIST*
%ADD10C,0.150000*%
%ADD11C,0.125000*%
%ADD12C,0.075000*%
G04 APERTURE END LIST*
D10*
D11*
X1882144Y-3589214D02*
X2263096Y-3589214D01*
X2072620Y-3779690D02*
X2072620Y-3398738D01*
X2739287Y-3279690D02*
X2501192Y-3279690D01*
X2477382Y-3517786D01*
X2501192Y-3493976D01*
X2548811Y-3470167D01*
X2667858Y-3470167D01*
X2715477Y-3493976D01*
X2739287Y-3517786D01*
X2763096Y-3565405D01*
X2763096Y-3684452D01*
X2739287Y-3732071D01*
X2715477Y-3755881D01*
X2667858Y-3779690D01*
X2548811Y-3779690D01*
X2501192Y-3755881D01*
X2477382Y-3732071D01*
X2905953Y-3279690D02*
X3072620Y-3779690D01*
X3239286Y-3279690D01*
D12*
X6675000Y839357D02*
X6660714Y825071D01*
X6617857Y810786D01*
X6589286Y810786D01*
X6546429Y825071D01*
X6517857Y853643D01*
X6503572Y882214D01*
X6489286Y939357D01*
X6489286Y982214D01*
X6503572Y1039357D01*
X6517857Y1067929D01*
X6546429Y1096500D01*
X6589286Y1110786D01*
X6617857Y1110786D01*
X6660714Y1096500D01*
X6675000Y1082214D01*
X6789286Y1082214D02*
X6803572Y1096500D01*
X6832143Y1110786D01*
X6903572Y1110786D01*
X6932143Y1096500D01*
X6946429Y1082214D01*
X6960714Y1053643D01*
X6960714Y1025071D01*
X6946429Y982214D01*
X6775000Y810786D01*
X6960714Y810786D01*
X7260714Y839357D02*
X7246428Y825071D01*
X7203571Y810786D01*
X7175000Y810786D01*
X7132143Y825071D01*
X7103571Y853643D01*
X7089286Y882214D01*
X7075000Y939357D01*
X7075000Y982214D01*
X7089286Y1039357D01*
X7103571Y1067929D01*
X7132143Y1096500D01*
X7175000Y1110786D01*
X7203571Y1110786D01*
X7246428Y1096500D01*
X7260714Y1082214D01*
X7389286Y810786D02*
X7389286Y1110786D01*
X7560714Y810786D02*
X7432143Y982214D01*
X7560714Y1110786D02*
X7389286Y939357D01*
X7025000Y-1060643D02*
X7010714Y-1074929D01*
X6967857Y-1089214D01*
X6939286Y-1089214D01*
X6896429Y-1074929D01*
X6867857Y-1046357D01*
X6853572Y-1017786D01*
X6839286Y-960643D01*
X6839286Y-917786D01*
X6853572Y-860643D01*
X6867857Y-832071D01*
X6896429Y-803500D01*
X6939286Y-789214D01*
X6967857Y-789214D01*
X7010714Y-803500D01*
X7025000Y-817786D01*
X7139286Y-817786D02*
X7153572Y-803500D01*
X7182143Y-789214D01*
X7253572Y-789214D01*
X7282143Y-803500D01*
X7296429Y-817786D01*
X7310714Y-846357D01*
X7310714Y-874929D01*
X7296429Y-917786D01*
X7125000Y-1089214D01*
X7310714Y-1089214D01*
X7439286Y-1089214D02*
X7439286Y-789214D01*
X7510714Y-789214D01*
X7553571Y-803500D01*
X7582143Y-832071D01*
X7596428Y-860643D01*
X7610714Y-917786D01*
X7610714Y-960643D01*
X7596428Y-1017786D01*
X7582143Y-1046357D01*
X7553571Y-1074929D01*
X7510714Y-1089214D01*
X7439286Y-1089214D01*
D11*
X2784524Y820310D02*
X2784524Y1320310D01*
X2903571Y1320310D01*
X2975000Y1296500D01*
X3022619Y1248881D01*
X3046428Y1201262D01*
X3070238Y1106024D01*
X3070238Y1034595D01*
X3046428Y939357D01*
X3022619Y891738D01*
X2975000Y844119D01*
X2903571Y820310D01*
X2784524Y820310D01*
X3284524Y1010786D02*
X3665476Y1010786D01*
X3475000Y820310D02*
X3475000Y1201262D01*
X2884524Y-1279690D02*
X2884524Y-779690D01*
X3003571Y-779690D01*
X3075000Y-803500D01*
X3122619Y-851119D01*
X3146428Y-898738D01*
X3170238Y-993976D01*
X3170238Y-1065405D01*
X3146428Y-1160643D01*
X3122619Y-1208262D01*
X3075000Y-1255881D01*
X3003571Y-1279690D01*
X2884524Y-1279690D01*
X3384524Y-1089214D02*
X3765476Y-1089214D01*
X2744047Y3696500D02*
X2696428Y3720310D01*
X2625000Y3720310D01*
X2553571Y3696500D01*
X2505952Y3648881D01*
X2482143Y3601262D01*
X2458333Y3506024D01*
X2458333Y3434595D01*
X2482143Y3339357D01*
X2505952Y3291738D01*
X2553571Y3244119D01*
X2625000Y3220310D01*
X2672619Y3220310D01*
X2744047Y3244119D01*
X2767857Y3267929D01*
X2767857Y3434595D01*
X2672619Y3434595D01*
X2982143Y3220310D02*
X2982143Y3720310D01*
X3267857Y3220310D01*
X3267857Y3720310D01*
X3505953Y3220310D02*
X3505953Y3720310D01*
X3625000Y3720310D01*
X3696429Y3696500D01*
X3744048Y3648881D01*
X3767857Y3601262D01*
X3791667Y3506024D01*
X3791667Y3434595D01*
X3767857Y3339357D01*
X3744048Y3291738D01*
X3696429Y3244119D01*
X3625000Y3220310D01*
X3505953Y3220310D01*
X-10425000Y4215547D02*
X-10448810Y4167928D01*
X-10448810Y4096500D01*
X-10425000Y4025071D01*
X-10377381Y3977452D01*
X-10329762Y3953643D01*
X-10234524Y3929833D01*
X-10163095Y3929833D01*
X-10067857Y3953643D01*
X-10020238Y3977452D01*
X-9972619Y4025071D01*
X-9948810Y4096500D01*
X-9948810Y4144119D01*
X-9972619Y4215547D01*
X-9996429Y4239357D01*
X-10163095Y4239357D01*
X-10163095Y4144119D01*
X-9948810Y4453643D02*
X-10448810Y4453643D01*
X-9948810Y4739357D01*
X-10448810Y4739357D01*
X-9948810Y4977453D02*
X-10448810Y4977453D01*
X-10448810Y5096500D01*
X-10425000Y5167929D01*
X-10377381Y5215548D01*
X-10329762Y5239357D01*
X-10234524Y5263167D01*
X-10163095Y5263167D01*
X-10067857Y5239357D01*
X-10020238Y5215548D01*
X-9972619Y5167929D01*
X-9948810Y5096500D01*
X-9948810Y4977453D01*
X-8498810Y4763167D02*
X-8736905Y4596500D01*
X-8498810Y4477453D02*
X-8998810Y4477453D01*
X-8998810Y4667929D01*
X-8975000Y4715548D01*
X-8951190Y4739357D01*
X-8903571Y4763167D01*
X-8832143Y4763167D01*
X-8784524Y4739357D01*
X-8760714Y4715548D01*
X-8736905Y4667929D01*
X-8736905Y4477453D01*
X-8998810Y4929834D02*
X-8498810Y5263167D01*
X-8998810Y5263167D02*
X-8498810Y4929834D01*
X-7148810Y4515548D02*
X-7148810Y4801262D01*
X-6648810Y4658405D02*
X-7148810Y4658405D01*
X-7148810Y4920310D02*
X-6648810Y5253643D01*
X-7148810Y5253643D02*
X-6648810Y4920310D01*
M02*
